G75*
%MOIN*%
%OFA0B0*%
%FSLAX25Y25*%
%IPPOS*%
%LPD*%
%AMOC8*
5,1,8,0,0,1.08239X$1,22.5*
%
%ADD10C,0.00400*%
%ADD11C,0.01300*%
%ADD12C,0.00800*%
%ADD13C,0.01000*%
%ADD14C,0.00500*%
%ADD15C,0.00200*%
%ADD16R,0.00130X0.00124*%
%ADD17R,0.00750X0.00125*%
%ADD18R,0.01000X0.00125*%
%ADD19R,0.01000X0.00126*%
%ADD20R,0.00870X0.00125*%
%ADD21R,0.01000X0.00124*%
%ADD22R,0.00880X0.00125*%
%ADD23R,0.01130X0.00125*%
%ADD24R,0.01620X0.00125*%
%ADD25R,0.02130X0.00125*%
%ADD26R,0.02380X0.00124*%
%ADD27R,0.02750X0.00125*%
%ADD28R,0.00500X0.00125*%
%ADD29R,0.02880X0.00125*%
%ADD30R,0.02880X0.00126*%
%ADD31R,0.00870X0.00126*%
%ADD32R,0.03000X0.00125*%
%ADD33R,0.02870X0.00125*%
%ADD34R,0.03000X0.00124*%
%ADD35R,0.00870X0.00124*%
%ADD36R,0.02000X0.00125*%
%ADD37R,0.02120X0.00125*%
%ADD38R,0.03130X0.00125*%
%ADD39R,0.02250X0.00125*%
%ADD40R,0.02500X0.00125*%
%ADD41R,0.02620X0.00125*%
%ADD42R,0.03000X0.00126*%
%ADD43R,0.02750X0.00126*%
%ADD44R,0.03120X0.00125*%
%ADD45R,0.03250X0.00125*%
%ADD46R,0.02870X0.00124*%
%ADD47R,0.03250X0.00124*%
%ADD48R,0.02630X0.00125*%
%ADD49R,0.02380X0.00125*%
%ADD50R,0.02130X0.00126*%
%ADD51R,0.03250X0.00126*%
%ADD52R,0.01870X0.00125*%
%ADD53R,0.01750X0.00125*%
%ADD54R,0.03380X0.00125*%
%ADD55R,0.01500X0.00125*%
%ADD56R,0.01380X0.00125*%
%ADD57R,0.03370X0.00125*%
%ADD58R,0.01370X0.00125*%
%ADD59R,0.01370X0.00124*%
%ADD60R,0.01370X0.00126*%
%ADD61R,0.03370X0.00126*%
%ADD62R,0.03370X0.00124*%
%ADD63R,0.03130X0.00124*%
%ADD64R,0.03130X0.00126*%
%ADD65R,0.01250X0.00124*%
%ADD66R,0.02880X0.00124*%
%ADD67R,0.01380X0.00126*%
%ADD68R,0.01380X0.00124*%
%ADD69R,0.02750X0.00124*%
%ADD70R,0.02630X0.00126*%
%ADD71R,0.02500X0.00124*%
%ADD72R,0.02370X0.00126*%
%ADD73R,0.02370X0.00125*%
%ADD74R,0.02000X0.00124*%
%ADD75R,0.01870X0.00126*%
%ADD76R,0.01750X0.00124*%
%ADD77R,0.01500X0.00126*%
%ADD78R,0.01630X0.00126*%
%ADD79R,0.01500X0.00124*%
%ADD80R,0.01620X0.00126*%
%ADD81R,0.01630X0.00124*%
%ADD82R,0.01630X0.00125*%
%ADD83R,0.00500X0.00126*%
%ADD84R,0.00750X0.00124*%
%ADD85R,0.00880X0.00126*%
%ADD86R,0.01120X0.00125*%
%ADD87R,0.01120X0.00124*%
%ADD88R,0.01120X0.00126*%
%ADD89R,0.01130X0.00124*%
%ADD90R,0.03120X0.00124*%
%ADD91R,0.03120X0.00126*%
%ADD92R,0.03380X0.00126*%
%ADD93R,0.03380X0.00124*%
%ADD94R,0.03500X0.00126*%
%ADD95R,0.03500X0.00124*%
%ADD96R,0.00630X0.00124*%
%ADD97R,0.03620X0.00124*%
%ADD98R,0.03620X0.00126*%
%ADD99R,0.03750X0.00124*%
%ADD100R,0.03750X0.00126*%
%ADD101R,0.03880X0.00125*%
%ADD102R,0.01250X0.00125*%
%ADD103R,0.04000X0.00125*%
%ADD104R,0.00250X0.00125*%
%ADD105R,0.03630X0.00125*%
%ADD106R,0.03870X0.00124*%
%ADD107R,0.00250X0.00124*%
%ADD108R,0.01130X0.00126*%
%ADD109R,0.03870X0.00126*%
%ADD110R,0.00250X0.00126*%
%ADD111R,0.02620X0.00124*%
%ADD112R,0.00750X0.00126*%
%ADD113R,0.00370X0.00126*%
%ADD114R,0.02120X0.00124*%
%ADD115R,0.02000X0.00126*%
%ADD116R,0.01750X0.00126*%
%ADD117R,0.01880X0.00126*%
%ADD118R,0.02250X0.00126*%
%ADD119R,0.01620X0.00124*%
%ADD120R,0.04500X0.00124*%
%ADD121R,0.04370X0.00126*%
%ADD122R,0.04370X0.00124*%
%ADD123R,0.01870X0.00124*%
%ADD124R,0.04250X0.00126*%
%ADD125R,0.04130X0.00124*%
%ADD126R,0.03880X0.00124*%
%ADD127R,0.04130X0.00126*%
%ADD128R,0.02250X0.00124*%
%ADD129R,0.02370X0.00124*%
%ADD130R,0.03630X0.00126*%
%ADD131R,0.02380X0.00126*%
%ADD132R,0.02500X0.00126*%
%ADD133R,0.02620X0.00126*%
%ADD134R,0.02630X0.00124*%
%ADD135R,0.00380X0.00124*%
%ADD136R,0.01880X0.00125*%
%ADD137R,0.00380X0.00125*%
%ADD138R,0.00380X0.00126*%
%ADD139R,0.02870X0.00126*%
%ADD140R,0.01250X0.00126*%
%ADD141R,0.00880X0.00124*%
%ADD142R,0.02120X0.00126*%
%ADD143R,0.01880X0.00124*%
%ADD144R,0.00630X0.00125*%
%ADD145R,0.00630X0.00126*%
%ADD146R,0.00500X0.00124*%
%ADD147R,0.00370X0.00125*%
%ADD148R,0.02130X0.00124*%
%ADD149R,0.05130X0.00125*%
%ADD150R,0.04000X0.00126*%
%ADD151R,0.03870X0.00125*%
%ADD152R,0.03750X0.00125*%
%ADD153R,0.03620X0.00125*%
%ADD154R,0.03500X0.00125*%
%ADD155R,0.00620X0.00124*%
%ADD156R,0.04750X0.00124*%
%ADD157R,0.04750X0.00125*%
%ADD158R,0.04750X0.00126*%
%ADD159R,0.04630X0.00125*%
%ADD160R,0.04630X0.00126*%
%ADD161R,0.04630X0.00124*%
%ADD162R,0.04620X0.00125*%
%ADD163R,0.04620X0.00124*%
%ADD164R,0.04620X0.00126*%
%ADD165R,0.04500X0.00126*%
%ADD166R,0.04500X0.00125*%
%ADD167R,0.04370X0.00125*%
%ADD168R,0.04250X0.00125*%
%ADD169R,0.04250X0.00124*%
%ADD170R,0.04120X0.00126*%
%ADD171R,0.04120X0.00125*%
%ADD172R,0.04120X0.00124*%
%ADD173R,0.04000X0.00124*%
%ADD174R,0.10250X0.00126*%
%ADD175R,0.14750X0.00125*%
%ADD176R,0.18880X0.00125*%
%ADD177R,0.20120X0.00124*%
%ADD178R,0.06500X0.00126*%
%ADD179R,0.07250X0.00126*%
%ADD180R,0.05380X0.00125*%
%ADD181R,0.05250X0.00125*%
%ADD182R,0.05630X0.00125*%
%ADD183R,0.03880X0.00126*%
%ADD184R,0.04130X0.00125*%
%ADD185R,0.06120X0.00124*%
%ADD186R,0.07500X0.00124*%
%ADD187R,0.09130X0.00125*%
%ADD188R,0.09370X0.00125*%
%ADD189R,0.18000X0.00125*%
%ADD190R,0.14500X0.00126*%
%ADD191R,0.12000X0.00125*%
%ADD192R,0.07880X0.00125*%
%ADD193R,0.06130X0.00125*%
%ADD194R,0.04380X0.00124*%
%ADD195R,0.04380X0.00125*%
%ADD196R,0.05750X0.00126*%
%ADD197R,0.05750X0.00125*%
%ADD198R,0.05750X0.00124*%
%ADD199R,0.00120X0.00124*%
%ADD200R,0.00370X0.00124*%
%ADD201R,0.00620X0.00125*%
%ADD202R,0.06750X0.00125*%
%ADD203R,0.07630X0.00125*%
%ADD204R,0.08000X0.00125*%
%ADD205R,0.10130X0.00124*%
%ADD206R,0.09380X0.00125*%
%ADD207R,0.10000X0.00125*%
%ADD208R,0.10380X0.00126*%
%ADD209R,0.10380X0.00125*%
%ADD210R,0.00130X0.00125*%
%ADD211R,0.08750X0.00125*%
%ADD212R,0.08500X0.00125*%
%ADD213R,0.09000X0.00125*%
%ADD214R,0.14120X0.00124*%
%ADD215R,0.06870X0.00125*%
%ADD216R,0.06620X0.00125*%
%ADD217R,0.06120X0.00125*%
%ADD218R,0.08250X0.00126*%
%ADD219R,0.14000X0.00125*%
%ADD220R,0.12750X0.00125*%
%ADD221R,0.05870X0.00125*%
%ADD222R,0.11380X0.00125*%
%ADD223R,0.06000X0.00124*%
%ADD224R,0.10880X0.00124*%
%ADD225R,0.05880X0.00125*%
%ADD226R,0.09880X0.00125*%
%ADD227R,0.09870X0.00125*%
%ADD228R,0.09620X0.00126*%
%ADD229R,0.09120X0.00125*%
%ADD230R,0.08620X0.00125*%
%ADD231R,0.08120X0.00125*%
%ADD232R,0.07250X0.00125*%
%ADD233R,0.06250X0.00124*%
%ADD234R,0.05000X0.00125*%
%ADD235R,0.04870X0.00125*%
%ADD236R,0.05370X0.00124*%
%ADD237R,0.03630X0.00124*%
%ADD238R,0.04870X0.00124*%
%ADD239R,0.06000X0.00125*%
%ADD240R,0.06250X0.00126*%
%ADD241R,0.06370X0.00125*%
%ADD242R,0.06630X0.00125*%
%ADD243R,0.05620X0.00125*%
%ADD244R,0.06500X0.00125*%
%ADD245R,0.04880X0.00125*%
%ADD246R,0.05130X0.00126*%
%ADD247R,0.06880X0.00126*%
%ADD248R,0.05370X0.00125*%
%ADD249R,0.07130X0.00125*%
%ADD250R,0.06250X0.00125*%
%ADD251R,0.09500X0.00125*%
%ADD252R,0.06500X0.00124*%
%ADD253R,0.10380X0.00124*%
%ADD254R,0.10880X0.00125*%
%ADD255R,0.18250X0.00125*%
%ADD256R,0.18750X0.00126*%
%ADD257R,0.11120X0.00125*%
%ADD258R,0.08630X0.00125*%
%ADD259R,0.10250X0.00125*%
%ADD260R,0.08130X0.00125*%
%ADD261R,0.09750X0.00125*%
%ADD262R,0.06380X0.00125*%
%ADD263R,0.08880X0.00124*%
%ADD264R,0.09250X0.00125*%
%ADD265R,0.09630X0.00125*%
%ADD266R,0.13880X0.00126*%
%ADD267R,0.14130X0.00125*%
%ADD268R,0.14120X0.00125*%
%ADD269R,0.11500X0.00125*%
%ADD270R,0.00120X0.00125*%
%ADD271R,0.11250X0.00124*%
%ADD272R,0.10500X0.00125*%
%ADD273R,0.12130X0.00125*%
%ADD274R,0.12120X0.00125*%
%ADD275R,0.05120X0.00125*%
%ADD276R,0.12130X0.00124*%
%ADD277R,0.04880X0.00124*%
%ADD278R,0.12250X0.00125*%
%ADD279R,0.12370X0.00126*%
%ADD280R,0.12500X0.00125*%
%ADD281R,0.12630X0.00125*%
%ADD282R,0.12620X0.00125*%
%ADD283R,0.05500X0.00125*%
%ADD284R,0.05880X0.00124*%
%ADD285R,0.12750X0.00124*%
%ADD286R,0.12870X0.00125*%
%ADD287R,0.13000X0.00125*%
%ADD288R,0.08250X0.00125*%
%ADD289R,0.13130X0.00125*%
%ADD290R,0.13250X0.00126*%
%ADD291R,0.13500X0.00125*%
%ADD292R,0.13630X0.00125*%
%ADD293R,0.13870X0.00125*%
%ADD294R,0.07370X0.00124*%
%ADD295R,0.08130X0.00124*%
%ADD296R,0.07500X0.00125*%
%ADD297R,0.07750X0.00125*%
%ADD298R,0.07620X0.00125*%
%ADD299R,0.07880X0.00126*%
%ADD300R,0.18620X0.00126*%
%ADD301R,0.05500X0.00126*%
%ADD302R,0.08370X0.00125*%
%ADD303R,0.11000X0.00125*%
%ADD304R,0.19630X0.00125*%
%ADD305R,0.19620X0.00125*%
%ADD306R,0.19880X0.00125*%
%ADD307R,0.28750X0.00124*%
%ADD308R,0.06370X0.00124*%
%ADD309R,0.29000X0.00125*%
%ADD310R,0.17870X0.00125*%
%ADD311R,0.17250X0.00126*%
%ADD312R,0.16750X0.00125*%
%ADD313R,0.16500X0.00125*%
%ADD314R,0.30870X0.00125*%
%ADD315R,0.34380X0.00125*%
%ADD316R,0.36380X0.00125*%
%ADD317R,0.36370X0.00124*%
%ADD318R,0.36630X0.00125*%
%ADD319R,0.36750X0.00125*%
%ADD320R,0.26000X0.00126*%
%ADD321R,0.10870X0.00126*%
%ADD322R,0.26000X0.00125*%
%ADD323R,0.10750X0.00125*%
%ADD324R,0.26130X0.00125*%
%ADD325R,0.26120X0.00125*%
%ADD326R,0.10620X0.00125*%
%ADD327R,0.26250X0.00125*%
%ADD328R,0.26370X0.00124*%
%ADD329R,0.10500X0.00124*%
%ADD330R,0.26500X0.00125*%
%ADD331R,0.26630X0.00125*%
%ADD332R,0.26750X0.00126*%
%ADD333R,0.06000X0.00126*%
%ADD334R,0.26750X0.00125*%
%ADD335R,0.21630X0.00125*%
%ADD336R,0.21500X0.00125*%
%ADD337R,0.21620X0.00125*%
%ADD338R,0.13250X0.00125*%
%ADD339R,0.21620X0.00124*%
%ADD340R,0.13250X0.00124*%
%ADD341R,0.21750X0.00125*%
%ADD342R,0.21880X0.00125*%
%ADD343R,0.22000X0.00126*%
%ADD344R,0.22000X0.00125*%
%ADD345R,0.22130X0.00125*%
%ADD346R,0.10630X0.00125*%
%ADD347R,0.22370X0.00125*%
%ADD348R,0.11620X0.00125*%
%ADD349R,0.22370X0.00124*%
%ADD350R,0.05870X0.00124*%
%ADD351R,0.22370X0.00126*%
%ADD352R,0.05370X0.00126*%
%ADD353R,0.22500X0.00124*%
%ADD354R,0.22500X0.00125*%
%ADD355R,0.22380X0.00125*%
%ADD356R,0.22250X0.00126*%
%ADD357R,0.21870X0.00124*%
%ADD358R,0.21870X0.00125*%
%ADD359R,0.21750X0.00126*%
%ADD360R,0.00620X0.00126*%
%ADD361R,0.21380X0.00125*%
%ADD362R,0.21000X0.00125*%
%ADD363R,0.20750X0.00125*%
%ADD364R,0.20630X0.00125*%
%ADD365R,0.20500X0.00125*%
%ADD366R,0.20380X0.00124*%
%ADD367R,0.20380X0.00125*%
%ADD368R,0.20380X0.00126*%
%ADD369R,0.20120X0.00125*%
%ADD370R,0.07000X0.00124*%
%ADD371R,0.20000X0.00125*%
%ADD372R,0.07000X0.00125*%
%ADD373R,0.19870X0.00126*%
%ADD374R,0.06750X0.00126*%
%ADD375R,0.19870X0.00125*%
%ADD376R,0.19750X0.00125*%
%ADD377R,0.21250X0.00126*%
%ADD378R,0.00130X0.00126*%
%ADD379R,0.21120X0.00125*%
%ADD380R,0.20870X0.00125*%
%ADD381R,0.20750X0.00124*%
%ADD382R,0.20620X0.00125*%
%ADD383R,0.14370X0.00126*%
%ADD384R,0.06120X0.00126*%
%ADD385R,0.13370X0.00124*%
%ADD386R,0.12870X0.00126*%
%ADD387R,0.17000X0.00125*%
%ADD388R,0.16880X0.00125*%
%ADD389R,0.19500X0.00125*%
%ADD390R,0.19380X0.00124*%
%ADD391R,0.19250X0.00125*%
%ADD392R,0.19370X0.00125*%
%ADD393R,0.19250X0.00126*%
%ADD394R,0.19120X0.00125*%
%ADD395R,0.19130X0.00125*%
%ADD396R,0.19000X0.00125*%
%ADD397R,0.19000X0.00124*%
%ADD398R,0.22500X0.00126*%
%ADD399R,0.15250X0.00125*%
%ADD400R,0.15130X0.00124*%
%ADD401R,0.15120X0.00125*%
%ADD402R,0.15130X0.00125*%
%ADD403R,0.15000X0.00126*%
%ADD404R,0.15000X0.00125*%
%ADD405R,0.08880X0.00125*%
%ADD406R,0.14870X0.00125*%
%ADD407R,0.14880X0.00125*%
%ADD408R,0.14750X0.00124*%
%ADD409R,0.08500X0.00124*%
%ADD410R,0.14500X0.00125*%
%ADD411R,0.08380X0.00125*%
%ADD412R,0.14250X0.00126*%
%ADD413R,0.08130X0.00126*%
%ADD414R,0.13880X0.00125*%
%ADD415R,0.13370X0.00125*%
%ADD416R,0.17620X0.00125*%
%ADD417R,0.17380X0.00125*%
%ADD418R,0.17000X0.00126*%
%ADD419R,0.16130X0.00125*%
%ADD420R,0.15750X0.00125*%
%ADD421R,0.15500X0.00125*%
%ADD422R,0.15370X0.00125*%
%ADD423R,0.14880X0.00124*%
%ADD424R,0.14380X0.00125*%
%ADD425R,0.14250X0.00125*%
%ADD426R,0.11130X0.00125*%
%ADD427R,0.05500X0.00124*%
%ADD428R,0.10000X0.00124*%
%ADD429R,0.07750X0.00126*%
%ADD430R,0.05250X0.00124*%
%ADD431R,0.07370X0.00125*%
%ADD432R,0.18120X0.00125*%
%ADD433R,0.17380X0.00124*%
%ADD434R,0.16620X0.00125*%
%ADD435R,0.15620X0.00125*%
%ADD436R,0.14880X0.00126*%
%ADD437R,0.09500X0.00124*%
%ADD438C,0.00600*%
%ADD439R,0.02000X0.02000*%
%ADD440C,0.02400*%
D10*
X0037957Y0050867D02*
X0037957Y0052735D01*
X0038891Y0051801D02*
X0037022Y0051801D01*
X0039969Y0050867D02*
X0039969Y0052735D01*
X0040436Y0053202D01*
X0041837Y0053202D01*
X0041837Y0050400D01*
X0040436Y0050400D01*
X0039969Y0050867D01*
X0040436Y0060400D02*
X0039969Y0060867D01*
X0039969Y0062735D01*
X0040436Y0063202D01*
X0041837Y0063202D01*
X0041837Y0060400D01*
X0040436Y0060400D01*
X0038891Y0061801D02*
X0037022Y0061801D01*
X0037490Y0070400D02*
X0038424Y0070400D01*
X0038891Y0070867D01*
X0038424Y0071801D02*
X0037490Y0071801D01*
X0037022Y0071334D01*
X0037022Y0070867D01*
X0037490Y0070400D01*
X0038424Y0071801D02*
X0038891Y0072268D01*
X0038891Y0072735D01*
X0038424Y0073202D01*
X0037490Y0073202D01*
X0037022Y0072735D01*
X0039969Y0073202D02*
X0039969Y0070867D01*
X0040436Y0070400D01*
X0041370Y0070400D01*
X0041837Y0070867D01*
X0041837Y0073202D01*
X0042915Y0072735D02*
X0042915Y0072268D01*
X0043383Y0071801D01*
X0044784Y0071801D01*
X0045862Y0071334D02*
X0045862Y0073202D01*
X0044784Y0073202D02*
X0043383Y0073202D01*
X0042915Y0072735D01*
X0043383Y0071801D02*
X0042915Y0071334D01*
X0042915Y0070867D01*
X0043383Y0070400D01*
X0044784Y0070400D01*
X0044784Y0073202D01*
X0045862Y0071334D02*
X0046796Y0070400D01*
X0047730Y0071334D01*
X0047730Y0073202D01*
X0044317Y0080400D02*
X0043383Y0080400D01*
X0042915Y0080867D01*
X0042915Y0081801D01*
X0043850Y0081801D01*
X0044784Y0080867D02*
X0044317Y0080400D01*
X0044784Y0080867D02*
X0044784Y0082735D01*
X0044317Y0083202D01*
X0043383Y0083202D01*
X0042915Y0082735D01*
X0041837Y0083202D02*
X0039969Y0080400D01*
X0039969Y0083202D01*
X0038891Y0083202D02*
X0037490Y0083202D01*
X0037022Y0082735D01*
X0037022Y0080867D01*
X0037490Y0080400D01*
X0038891Y0080400D01*
X0038891Y0083202D01*
X0041837Y0083202D02*
X0041837Y0080400D01*
X0041461Y0097580D02*
X0040994Y0098047D01*
X0040994Y0098981D01*
X0041461Y0099448D01*
X0041928Y0099448D01*
X0042395Y0098981D01*
X0042395Y0098047D01*
X0042862Y0097580D01*
X0043330Y0097580D01*
X0043797Y0098047D01*
X0043797Y0098981D01*
X0043330Y0099448D01*
X0043797Y0100527D02*
X0040994Y0100527D01*
X0041928Y0101461D01*
X0040994Y0102395D01*
X0043797Y0102395D01*
X0043330Y0103473D02*
X0043797Y0103940D01*
X0043797Y0104874D01*
X0043330Y0105342D01*
X0042862Y0105342D01*
X0040994Y0103473D01*
X0040994Y0105342D01*
X0041461Y0123830D02*
X0040994Y0124297D01*
X0040994Y0125231D01*
X0041461Y0125698D01*
X0041928Y0125698D01*
X0042395Y0125231D01*
X0042395Y0124297D01*
X0042862Y0123830D01*
X0043330Y0123830D01*
X0043797Y0124297D01*
X0043797Y0125231D01*
X0043330Y0125698D01*
X0043797Y0126777D02*
X0040994Y0126777D01*
X0041928Y0127711D01*
X0040994Y0128645D01*
X0043797Y0128645D01*
X0042862Y0129723D02*
X0043797Y0130657D01*
X0040994Y0130657D01*
X0040994Y0129723D02*
X0040994Y0131592D01*
X0044990Y0141750D02*
X0045924Y0141750D01*
X0046391Y0142217D01*
X0046391Y0143151D01*
X0045924Y0143618D01*
X0044990Y0143618D01*
X0044522Y0143151D01*
X0044522Y0142684D01*
X0046391Y0142684D01*
X0047469Y0141750D02*
X0048870Y0141750D01*
X0049337Y0142217D01*
X0049337Y0143151D01*
X0048870Y0143618D01*
X0047469Y0143618D01*
X0047421Y0146550D02*
X0048355Y0146550D01*
X0047888Y0146550D02*
X0047888Y0148418D01*
X0048355Y0148418D01*
X0047888Y0149352D02*
X0047888Y0149819D01*
X0049433Y0149352D02*
X0049433Y0146550D01*
X0050835Y0146550D01*
X0051302Y0147017D01*
X0051302Y0147951D01*
X0050835Y0148418D01*
X0049433Y0148418D01*
X0052380Y0148418D02*
X0052380Y0146550D01*
X0053781Y0146550D01*
X0054248Y0147017D01*
X0054248Y0148418D01*
X0055326Y0147951D02*
X0055326Y0146550D01*
X0056728Y0146550D01*
X0057195Y0147017D01*
X0056728Y0147484D01*
X0055326Y0147484D01*
X0055326Y0147951D02*
X0055793Y0148418D01*
X0056728Y0148418D01*
X0061219Y0147951D02*
X0061686Y0148418D01*
X0062621Y0148418D01*
X0063088Y0147951D01*
X0063088Y0147017D01*
X0062621Y0146550D01*
X0061686Y0146550D01*
X0061219Y0147017D01*
X0061219Y0147951D01*
X0061147Y0144085D02*
X0061147Y0142217D01*
X0060680Y0141750D01*
X0059650Y0142217D02*
X0059650Y0143151D01*
X0059183Y0143618D01*
X0058249Y0143618D01*
X0057782Y0143151D01*
X0057782Y0142684D01*
X0059650Y0142684D01*
X0059650Y0142217D02*
X0059183Y0141750D01*
X0058249Y0141750D01*
X0056704Y0141750D02*
X0056704Y0143618D01*
X0056704Y0142684D02*
X0055769Y0143618D01*
X0055302Y0143618D01*
X0054248Y0143151D02*
X0053314Y0143151D01*
X0053781Y0144085D02*
X0053314Y0144552D01*
X0053781Y0144085D02*
X0053781Y0141750D01*
X0052284Y0142217D02*
X0051817Y0142684D01*
X0050415Y0142684D01*
X0050415Y0143151D02*
X0050415Y0141750D01*
X0051817Y0141750D01*
X0052284Y0142217D01*
X0051817Y0143618D02*
X0050883Y0143618D01*
X0050415Y0143151D01*
X0046391Y0147017D02*
X0045924Y0146550D01*
X0044990Y0146550D01*
X0044522Y0147017D01*
X0044522Y0147951D01*
X0044990Y0148418D01*
X0045924Y0148418D01*
X0046391Y0147951D01*
X0046391Y0147017D01*
X0033802Y0147900D02*
X0032867Y0147900D01*
X0033335Y0147900D02*
X0033335Y0150702D01*
X0033802Y0150702D02*
X0032867Y0150702D01*
X0031837Y0150702D02*
X0029969Y0147900D01*
X0029969Y0150702D01*
X0028891Y0149768D02*
X0027957Y0150702D01*
X0027957Y0147900D01*
X0028891Y0147900D02*
X0027022Y0147900D01*
X0022552Y0147900D02*
X0021617Y0147900D01*
X0022085Y0147900D02*
X0022085Y0150702D01*
X0022552Y0150702D02*
X0021617Y0150702D01*
X0020587Y0150702D02*
X0020587Y0147900D01*
X0018719Y0147900D02*
X0018719Y0150702D01*
X0017641Y0150235D02*
X0017174Y0150702D01*
X0016240Y0150702D01*
X0015772Y0150235D01*
X0015772Y0149768D01*
X0017641Y0147900D01*
X0015772Y0147900D01*
X0018719Y0147900D02*
X0020587Y0150702D01*
X0031837Y0150702D02*
X0031837Y0147900D01*
X0031617Y0170400D02*
X0032552Y0170400D01*
X0032085Y0170400D02*
X0032085Y0173202D01*
X0032552Y0173202D02*
X0031617Y0173202D01*
X0030587Y0173202D02*
X0028719Y0170400D01*
X0028719Y0173202D01*
X0027641Y0172735D02*
X0027174Y0173202D01*
X0026240Y0173202D01*
X0025772Y0172735D01*
X0025772Y0172268D01*
X0027641Y0170400D01*
X0025772Y0170400D01*
X0030587Y0170400D02*
X0030587Y0173202D01*
X0030587Y0180400D02*
X0030587Y0183202D01*
X0028719Y0180400D01*
X0028719Y0183202D01*
X0027641Y0182268D02*
X0026707Y0183202D01*
X0026707Y0180400D01*
X0027641Y0180400D02*
X0025772Y0180400D01*
X0031617Y0180400D02*
X0032552Y0180400D01*
X0032085Y0180400D02*
X0032085Y0183202D01*
X0032552Y0183202D02*
X0031617Y0183202D01*
X0032133Y0190400D02*
X0031665Y0190867D01*
X0031665Y0193202D01*
X0030587Y0193202D02*
X0028719Y0193202D01*
X0029653Y0193202D02*
X0029653Y0190400D01*
X0027641Y0190867D02*
X0027641Y0191334D01*
X0027174Y0191801D01*
X0026240Y0191801D01*
X0025772Y0191334D01*
X0025772Y0190867D01*
X0026240Y0190400D01*
X0027174Y0190400D01*
X0027641Y0190867D01*
X0027174Y0191801D02*
X0027641Y0192268D01*
X0027641Y0192735D01*
X0027174Y0193202D01*
X0026240Y0193202D01*
X0025772Y0192735D01*
X0025772Y0192268D01*
X0026240Y0191801D01*
X0027641Y0200400D02*
X0027641Y0200867D01*
X0025772Y0202735D01*
X0025772Y0203202D01*
X0027641Y0203202D01*
X0028719Y0203202D02*
X0030587Y0203202D01*
X0029653Y0203202D02*
X0029653Y0200400D01*
X0031665Y0200867D02*
X0031665Y0203202D01*
X0033534Y0203202D02*
X0033534Y0200867D01*
X0033067Y0200400D01*
X0032133Y0200400D01*
X0031665Y0200867D01*
X0034612Y0200867D02*
X0035079Y0200400D01*
X0036013Y0200400D01*
X0036480Y0200867D01*
X0036480Y0202735D01*
X0036013Y0203202D01*
X0035079Y0203202D01*
X0034612Y0202735D01*
X0034612Y0200867D01*
X0035079Y0193202D02*
X0034612Y0192735D01*
X0034612Y0190867D01*
X0035079Y0190400D01*
X0036013Y0190400D01*
X0036480Y0190867D01*
X0036480Y0192735D01*
X0036013Y0193202D01*
X0035079Y0193202D01*
X0033534Y0193202D02*
X0033534Y0190867D01*
X0033067Y0190400D01*
X0032133Y0190400D01*
X0032133Y0210400D02*
X0031665Y0210867D01*
X0031665Y0213202D01*
X0030587Y0213202D02*
X0028719Y0213202D01*
X0029653Y0213202D02*
X0029653Y0210400D01*
X0027641Y0210867D02*
X0027174Y0210400D01*
X0026240Y0210400D01*
X0025772Y0210867D01*
X0025772Y0211334D01*
X0026240Y0211801D01*
X0027641Y0211801D01*
X0027641Y0210867D01*
X0027641Y0211801D02*
X0026707Y0212735D01*
X0025772Y0213202D01*
X0026240Y0220400D02*
X0027174Y0220400D01*
X0027641Y0220867D01*
X0027641Y0221801D02*
X0026707Y0222268D01*
X0026240Y0222268D01*
X0025772Y0221801D01*
X0025772Y0220867D01*
X0026240Y0220400D01*
X0027641Y0221801D02*
X0027641Y0223202D01*
X0025772Y0223202D01*
X0028719Y0223202D02*
X0030587Y0223202D01*
X0029653Y0223202D02*
X0029653Y0220400D01*
X0031665Y0220867D02*
X0031665Y0223202D01*
X0033534Y0223202D02*
X0033534Y0220867D01*
X0033067Y0220400D01*
X0032133Y0220400D01*
X0031665Y0220867D01*
X0034612Y0220867D02*
X0034612Y0222735D01*
X0035079Y0223202D01*
X0036013Y0223202D01*
X0036480Y0222735D01*
X0036480Y0220867D01*
X0036013Y0220400D01*
X0035079Y0220400D01*
X0034612Y0220867D01*
X0035079Y0213202D02*
X0034612Y0212735D01*
X0034612Y0210867D01*
X0035079Y0210400D01*
X0036013Y0210400D01*
X0036480Y0210867D01*
X0036480Y0212735D01*
X0036013Y0213202D01*
X0035079Y0213202D01*
X0033534Y0213202D02*
X0033534Y0210867D01*
X0033067Y0210400D01*
X0032133Y0210400D01*
X0032133Y0230400D02*
X0031665Y0230867D01*
X0031665Y0233202D01*
X0030587Y0233202D02*
X0028719Y0233202D01*
X0029653Y0233202D02*
X0029653Y0230400D01*
X0027641Y0231801D02*
X0025772Y0231801D01*
X0026240Y0230400D02*
X0026240Y0233202D01*
X0027641Y0231801D01*
X0027174Y0240400D02*
X0027641Y0240867D01*
X0027174Y0240400D02*
X0026240Y0240400D01*
X0025772Y0240867D01*
X0025772Y0241334D01*
X0026240Y0241801D01*
X0026707Y0241801D01*
X0026240Y0241801D02*
X0025772Y0242268D01*
X0025772Y0242735D01*
X0026240Y0243202D01*
X0027174Y0243202D01*
X0027641Y0242735D01*
X0028719Y0243202D02*
X0030587Y0243202D01*
X0029653Y0243202D02*
X0029653Y0240400D01*
X0031665Y0240867D02*
X0031665Y0243202D01*
X0033534Y0243202D02*
X0033534Y0240867D01*
X0033067Y0240400D01*
X0032133Y0240400D01*
X0031665Y0240867D01*
X0034612Y0240867D02*
X0035079Y0240400D01*
X0036013Y0240400D01*
X0036480Y0240867D01*
X0036480Y0242735D01*
X0036013Y0243202D01*
X0035079Y0243202D01*
X0034612Y0242735D01*
X0034612Y0240867D01*
X0035079Y0233202D02*
X0034612Y0232735D01*
X0034612Y0230867D01*
X0035079Y0230400D01*
X0036013Y0230400D01*
X0036480Y0230867D01*
X0036480Y0232735D01*
X0036013Y0233202D01*
X0035079Y0233202D01*
X0033534Y0233202D02*
X0033534Y0230867D01*
X0033067Y0230400D01*
X0032133Y0230400D01*
X0032133Y0250400D02*
X0031665Y0250867D01*
X0031665Y0253202D01*
X0030587Y0253202D02*
X0028719Y0253202D01*
X0029653Y0253202D02*
X0029653Y0250400D01*
X0027641Y0250400D02*
X0025772Y0252268D01*
X0025772Y0252735D01*
X0026240Y0253202D01*
X0027174Y0253202D01*
X0027641Y0252735D01*
X0027641Y0250400D02*
X0025772Y0250400D01*
X0032133Y0250400D02*
X0033067Y0250400D01*
X0033534Y0250867D01*
X0033534Y0253202D01*
X0034612Y0252735D02*
X0035079Y0253202D01*
X0036013Y0253202D01*
X0036480Y0252735D01*
X0036480Y0250867D01*
X0036013Y0250400D01*
X0035079Y0250400D01*
X0034612Y0250867D01*
X0034612Y0252735D01*
X0035079Y0260400D02*
X0034612Y0260867D01*
X0034612Y0262735D01*
X0035079Y0263202D01*
X0036013Y0263202D01*
X0036480Y0262735D01*
X0036480Y0260867D01*
X0036013Y0260400D01*
X0035079Y0260400D01*
X0033534Y0260867D02*
X0033534Y0263202D01*
X0031665Y0263202D02*
X0031665Y0260867D01*
X0032133Y0260400D01*
X0033067Y0260400D01*
X0033534Y0260867D01*
X0030587Y0263202D02*
X0028719Y0263202D01*
X0029653Y0263202D02*
X0029653Y0260400D01*
X0027641Y0260400D02*
X0025772Y0260400D01*
X0026707Y0260400D02*
X0026707Y0263202D01*
X0027641Y0262268D01*
X0097736Y0289401D02*
X0099605Y0289401D01*
X0100683Y0290802D02*
X0100683Y0288000D01*
X0102551Y0288000D02*
X0102551Y0290802D01*
X0101617Y0289868D01*
X0100683Y0290802D01*
X0100096Y0292800D02*
X0098695Y0292800D01*
X0098227Y0293267D01*
X0098227Y0293734D01*
X0098695Y0294201D01*
X0100096Y0294201D01*
X0100096Y0292800D02*
X0100096Y0295602D01*
X0098695Y0295602D01*
X0098227Y0295135D01*
X0098227Y0294668D01*
X0098695Y0294201D01*
X0101174Y0293267D02*
X0101641Y0292800D01*
X0102575Y0292800D01*
X0103042Y0293267D01*
X0103042Y0295135D01*
X0102575Y0295602D01*
X0101641Y0295602D01*
X0101174Y0295135D01*
X0104121Y0295135D02*
X0104121Y0294201D01*
X0104588Y0293734D01*
X0105989Y0293734D01*
X0105989Y0292800D02*
X0105989Y0295602D01*
X0104588Y0295602D01*
X0104121Y0295135D01*
X0104096Y0290802D02*
X0103629Y0290335D01*
X0103629Y0288467D01*
X0104096Y0288000D01*
X0105031Y0288000D01*
X0105498Y0288467D01*
X0105498Y0290335D01*
X0105031Y0290802D01*
X0104096Y0290802D01*
X0106576Y0290802D02*
X0108444Y0290802D01*
X0107510Y0290802D02*
X0107510Y0288000D01*
X0110457Y0288000D02*
X0110457Y0290802D01*
X0111391Y0290802D02*
X0109522Y0290802D01*
X0110014Y0292800D02*
X0110014Y0295602D01*
X0111882Y0295602D02*
X0110014Y0292800D01*
X0111882Y0292800D02*
X0111882Y0295602D01*
X0112912Y0295602D02*
X0113846Y0295602D01*
X0113379Y0295602D02*
X0113379Y0292800D01*
X0113846Y0292800D02*
X0112912Y0292800D01*
X0112936Y0290802D02*
X0112469Y0290335D01*
X0112469Y0288467D01*
X0112936Y0288000D01*
X0113870Y0288000D01*
X0114337Y0288467D01*
X0114337Y0290335D01*
X0113870Y0290802D01*
X0112936Y0290802D01*
X0115415Y0290335D02*
X0115415Y0289868D01*
X0115883Y0289401D01*
X0117284Y0289401D01*
X0118362Y0289401D02*
X0120230Y0289401D01*
X0117284Y0288000D02*
X0117284Y0290802D01*
X0115883Y0290802D01*
X0115415Y0290335D01*
X0115883Y0289401D02*
X0115415Y0288934D01*
X0115415Y0288467D01*
X0115883Y0288000D01*
X0117284Y0288000D01*
X0116793Y0292800D02*
X0116793Y0294668D01*
X0115859Y0295602D01*
X0114924Y0294668D01*
X0114924Y0292800D01*
X0114924Y0294201D02*
X0116793Y0294201D01*
X0117871Y0295602D02*
X0117871Y0292800D01*
X0119739Y0292800D02*
X0119739Y0295602D01*
X0118805Y0294668D01*
X0117871Y0295602D01*
X0064585Y0148885D02*
X0064585Y0147017D01*
X0064118Y0146550D01*
X0064118Y0148418D02*
X0065052Y0148418D01*
X0066058Y0145019D02*
X0066058Y0144552D01*
X0066058Y0143618D02*
X0066058Y0141750D01*
X0066525Y0141750D02*
X0065591Y0141750D01*
X0064561Y0141750D02*
X0064561Y0143618D01*
X0063160Y0143618D01*
X0062693Y0143151D01*
X0062693Y0141750D01*
X0061614Y0143618D02*
X0060680Y0143618D01*
X0066058Y0143618D02*
X0066525Y0143618D01*
X0064580Y0092261D02*
X0062711Y0092261D01*
X0062244Y0091794D01*
X0062244Y0090393D01*
X0065047Y0090393D01*
X0065047Y0091794D01*
X0064580Y0092261D01*
X0065047Y0089315D02*
X0062244Y0089315D01*
X0065047Y0087447D01*
X0062244Y0087447D01*
X0062711Y0086368D02*
X0063645Y0086368D01*
X0063645Y0085434D01*
X0062711Y0084500D02*
X0062244Y0084967D01*
X0062244Y0085901D01*
X0062711Y0086368D01*
X0062711Y0084500D02*
X0064580Y0084500D01*
X0065047Y0084967D01*
X0065047Y0085901D01*
X0064580Y0086368D01*
X0072244Y0085901D02*
X0072711Y0086368D01*
X0073645Y0086368D01*
X0073645Y0085434D01*
X0072711Y0084500D02*
X0072244Y0084967D01*
X0072244Y0085901D01*
X0072711Y0084500D02*
X0074580Y0084500D01*
X0075047Y0084967D01*
X0075047Y0085901D01*
X0074580Y0086368D01*
X0075047Y0087447D02*
X0072244Y0089315D01*
X0075047Y0089315D01*
X0075047Y0090393D02*
X0075047Y0091794D01*
X0074580Y0092261D01*
X0072711Y0092261D01*
X0072244Y0091794D01*
X0072244Y0090393D01*
X0075047Y0090393D01*
X0075047Y0087447D02*
X0072244Y0087447D01*
X0082244Y0088333D02*
X0085047Y0088333D01*
X0084580Y0089411D02*
X0084112Y0089411D01*
X0083645Y0089878D01*
X0083645Y0090812D01*
X0083178Y0091279D01*
X0082711Y0091279D01*
X0082244Y0090812D01*
X0082244Y0089878D01*
X0082711Y0089411D01*
X0083178Y0089411D01*
X0083645Y0089878D01*
X0083645Y0090812D02*
X0084112Y0091279D01*
X0084580Y0091279D01*
X0085047Y0090812D01*
X0085047Y0089878D01*
X0084580Y0089411D01*
X0082244Y0088333D02*
X0085047Y0086464D01*
X0082244Y0086464D01*
X0082244Y0085434D02*
X0082244Y0084500D01*
X0082244Y0084967D02*
X0085047Y0084967D01*
X0085047Y0084500D02*
X0085047Y0085434D01*
X0092244Y0085434D02*
X0092244Y0084500D01*
X0092244Y0084967D02*
X0095047Y0084967D01*
X0095047Y0084500D02*
X0095047Y0085434D01*
X0095047Y0086464D02*
X0092244Y0088333D01*
X0095047Y0088333D01*
X0095047Y0089411D02*
X0095047Y0091279D01*
X0094580Y0091279D01*
X0092711Y0089411D01*
X0092244Y0089411D01*
X0092244Y0086464D02*
X0095047Y0086464D01*
X0102244Y0086464D02*
X0105047Y0086464D01*
X0102244Y0088333D01*
X0105047Y0088333D01*
X0103645Y0089411D02*
X0103645Y0090812D01*
X0103178Y0091279D01*
X0102711Y0091279D01*
X0102244Y0090812D01*
X0102244Y0089878D01*
X0102711Y0089411D01*
X0103645Y0089411D01*
X0104580Y0090345D01*
X0105047Y0091279D01*
X0105047Y0085434D02*
X0105047Y0084500D01*
X0105047Y0084967D02*
X0102244Y0084967D01*
X0102244Y0084500D02*
X0102244Y0085434D01*
X0112244Y0085434D02*
X0112244Y0084500D01*
X0112244Y0084967D02*
X0115047Y0084967D01*
X0115047Y0084500D02*
X0115047Y0085434D01*
X0115047Y0086464D02*
X0112244Y0088333D01*
X0115047Y0088333D01*
X0115047Y0089411D02*
X0113645Y0089411D01*
X0114112Y0090345D01*
X0114112Y0090812D01*
X0113645Y0091279D01*
X0112711Y0091279D01*
X0112244Y0090812D01*
X0112244Y0089878D01*
X0112711Y0089411D01*
X0112244Y0086464D02*
X0115047Y0086464D01*
X0115047Y0089411D02*
X0115047Y0091279D01*
X0122244Y0090812D02*
X0125047Y0090812D01*
X0123645Y0089411D01*
X0123645Y0091279D01*
X0122244Y0088333D02*
X0125047Y0088333D01*
X0125047Y0086464D02*
X0122244Y0088333D01*
X0122244Y0086464D02*
X0125047Y0086464D01*
X0125047Y0085434D02*
X0125047Y0084500D01*
X0125047Y0084967D02*
X0122244Y0084967D01*
X0122244Y0084500D02*
X0122244Y0085434D01*
X0132244Y0085434D02*
X0132244Y0084500D01*
X0132244Y0084967D02*
X0135047Y0084967D01*
X0135047Y0084500D02*
X0135047Y0085434D01*
X0135047Y0086464D02*
X0132244Y0088333D01*
X0135047Y0088333D01*
X0134580Y0089411D02*
X0135047Y0089878D01*
X0135047Y0090812D01*
X0134580Y0091279D01*
X0134112Y0091279D01*
X0133645Y0090812D01*
X0133178Y0091279D01*
X0132711Y0091279D01*
X0132244Y0090812D01*
X0132244Y0089878D01*
X0132711Y0089411D01*
X0133645Y0090345D02*
X0133645Y0090812D01*
X0132244Y0086464D02*
X0135047Y0086464D01*
X0142244Y0086464D02*
X0145047Y0086464D01*
X0142244Y0088333D01*
X0145047Y0088333D01*
X0144580Y0089411D02*
X0145047Y0089878D01*
X0145047Y0090812D01*
X0144580Y0091279D01*
X0144112Y0091279D01*
X0142244Y0089411D01*
X0142244Y0091279D01*
X0142244Y0085434D02*
X0142244Y0084500D01*
X0142244Y0084967D02*
X0145047Y0084967D01*
X0145047Y0084500D02*
X0145047Y0085434D01*
X0152244Y0085434D02*
X0152244Y0084500D01*
X0152244Y0084967D02*
X0155047Y0084967D01*
X0155047Y0084500D02*
X0155047Y0085434D01*
X0155047Y0086464D02*
X0152244Y0088333D01*
X0155047Y0088333D01*
X0154112Y0089411D02*
X0155047Y0090345D01*
X0152244Y0090345D01*
X0152244Y0089411D02*
X0152244Y0091279D01*
X0152244Y0086464D02*
X0155047Y0086464D01*
X0170594Y0093951D02*
X0172329Y0095685D01*
X0172763Y0095685D01*
X0173196Y0095252D01*
X0173196Y0094384D01*
X0172763Y0093951D01*
X0170594Y0093951D02*
X0170594Y0095685D01*
X0171028Y0096713D02*
X0172763Y0098448D01*
X0171028Y0098448D01*
X0170594Y0098014D01*
X0170594Y0097147D01*
X0171028Y0096713D01*
X0172763Y0096713D01*
X0173196Y0097147D01*
X0173196Y0098014D01*
X0172763Y0098448D01*
X0172329Y0099475D02*
X0173196Y0100343D01*
X0170594Y0100343D01*
X0170594Y0101210D02*
X0170594Y0099475D01*
X0171028Y0102238D02*
X0170594Y0102671D01*
X0170594Y0103539D01*
X0171028Y0103972D01*
X0171462Y0103972D01*
X0171895Y0103539D01*
X0171895Y0102238D01*
X0171028Y0102238D01*
X0171895Y0102238D02*
X0172763Y0103105D01*
X0173196Y0103972D01*
X0175094Y0103539D02*
X0175094Y0102671D01*
X0175528Y0102238D01*
X0176395Y0102238D01*
X0176829Y0102671D01*
X0176829Y0103539D01*
X0176395Y0103972D01*
X0175962Y0103972D01*
X0175962Y0102238D01*
X0175962Y0101210D02*
X0175962Y0099475D01*
X0176395Y0099475D02*
X0176829Y0099909D01*
X0176829Y0100776D01*
X0176395Y0101210D01*
X0175962Y0101210D01*
X0175094Y0100776D02*
X0175094Y0099909D01*
X0175528Y0099475D01*
X0176395Y0099475D01*
X0176829Y0098501D02*
X0174660Y0098501D01*
X0174227Y0098067D01*
X0174227Y0097634D01*
X0175094Y0095332D02*
X0176829Y0095332D01*
X0176829Y0096199D02*
X0176829Y0096633D01*
X0176829Y0096199D02*
X0175962Y0095332D01*
X0175962Y0094304D02*
X0175962Y0092569D01*
X0176395Y0092569D02*
X0176829Y0093003D01*
X0176829Y0093870D01*
X0176395Y0094304D01*
X0175962Y0094304D01*
X0175094Y0093870D02*
X0175094Y0093003D01*
X0175528Y0092569D01*
X0176395Y0092569D01*
X0176395Y0091542D02*
X0175094Y0091542D01*
X0176395Y0091542D02*
X0176829Y0091108D01*
X0176829Y0089807D01*
X0175094Y0089807D01*
X0175094Y0088779D02*
X0175094Y0087478D01*
X0175528Y0087045D01*
X0175962Y0087478D01*
X0175962Y0088779D01*
X0176395Y0088779D02*
X0175094Y0088779D01*
X0176395Y0088779D02*
X0176829Y0088346D01*
X0176829Y0087478D01*
X0176829Y0086017D02*
X0176395Y0085583D01*
X0176395Y0084282D01*
X0175094Y0084282D02*
X0175094Y0085583D01*
X0175528Y0086017D01*
X0175962Y0086017D01*
X0176395Y0085583D01*
X0176829Y0086017D02*
X0177263Y0086017D01*
X0177696Y0085583D01*
X0177696Y0084282D01*
X0175094Y0084282D01*
X0175528Y0080492D02*
X0175962Y0080059D01*
X0175962Y0079191D01*
X0176395Y0078758D01*
X0176829Y0079191D01*
X0176829Y0080492D01*
X0175528Y0080492D02*
X0175094Y0080059D01*
X0175094Y0078758D01*
X0175094Y0077730D02*
X0175094Y0076429D01*
X0175528Y0075995D01*
X0176829Y0075995D01*
X0176829Y0075021D02*
X0174660Y0075021D01*
X0174227Y0074587D01*
X0174227Y0074154D01*
X0175094Y0071852D02*
X0176829Y0071852D01*
X0176829Y0072719D02*
X0176829Y0073153D01*
X0176829Y0072719D02*
X0175962Y0071852D01*
X0176829Y0070824D02*
X0175094Y0070824D01*
X0175094Y0069523D01*
X0175528Y0069089D01*
X0176829Y0069089D01*
X0176395Y0068062D02*
X0176829Y0067628D01*
X0176829Y0066761D01*
X0175962Y0066761D02*
X0175962Y0068062D01*
X0176395Y0068062D02*
X0175094Y0068062D01*
X0175094Y0066761D01*
X0175528Y0066327D01*
X0175962Y0066761D01*
X0176395Y0065299D02*
X0175094Y0065299D01*
X0176395Y0065299D02*
X0176829Y0064866D01*
X0176829Y0063998D01*
X0176395Y0063565D01*
X0175962Y0062537D02*
X0175528Y0062537D01*
X0175094Y0062103D01*
X0175094Y0061236D01*
X0175528Y0060802D01*
X0176395Y0061236D02*
X0176395Y0062103D01*
X0175962Y0062537D01*
X0177263Y0062537D02*
X0177696Y0062103D01*
X0177696Y0061236D01*
X0177263Y0060802D01*
X0176829Y0060802D01*
X0176395Y0061236D01*
X0177696Y0063565D02*
X0175094Y0063565D01*
X0177696Y0075021D02*
X0178130Y0075021D01*
X0179594Y0075535D02*
X0179594Y0076836D01*
X0180028Y0077270D01*
X0181763Y0077270D01*
X0182196Y0076836D01*
X0182196Y0075535D01*
X0179594Y0075535D01*
X0180028Y0078297D02*
X0180895Y0078297D01*
X0181329Y0078731D01*
X0181329Y0079598D01*
X0180895Y0080032D01*
X0180462Y0080032D01*
X0180462Y0078297D01*
X0180028Y0078297D02*
X0179594Y0078731D01*
X0179594Y0079598D01*
X0179594Y0081060D02*
X0179594Y0082361D01*
X0180028Y0082794D01*
X0180462Y0082361D01*
X0180462Y0081493D01*
X0180895Y0081060D01*
X0181329Y0081493D01*
X0181329Y0082794D01*
X0181329Y0083822D02*
X0181329Y0084256D01*
X0179594Y0084256D01*
X0179594Y0084689D02*
X0179594Y0083822D01*
X0180028Y0085663D02*
X0179594Y0086097D01*
X0179594Y0087398D01*
X0179160Y0087398D02*
X0181329Y0087398D01*
X0181329Y0086097D01*
X0180895Y0085663D01*
X0180028Y0085663D01*
X0178727Y0086531D02*
X0178727Y0086965D01*
X0179160Y0087398D01*
X0179594Y0088426D02*
X0181329Y0088426D01*
X0181329Y0089727D01*
X0180895Y0090161D01*
X0179594Y0090161D01*
X0180028Y0091188D02*
X0180895Y0091188D01*
X0181329Y0091622D01*
X0181329Y0092489D01*
X0180895Y0092923D01*
X0180462Y0092923D01*
X0180462Y0091188D01*
X0180028Y0091188D02*
X0179594Y0091622D01*
X0179594Y0092489D01*
X0180028Y0093951D02*
X0180895Y0093951D01*
X0181329Y0094384D01*
X0181329Y0095685D01*
X0182196Y0095685D02*
X0179594Y0095685D01*
X0179594Y0094384D01*
X0180028Y0093951D01*
X0178130Y0098501D02*
X0177696Y0098501D01*
X0179594Y0099475D02*
X0179594Y0100776D01*
X0180028Y0101210D01*
X0180895Y0101210D01*
X0181329Y0100776D01*
X0181329Y0099475D01*
X0182196Y0099475D02*
X0179594Y0099475D01*
X0180028Y0102238D02*
X0179594Y0102671D01*
X0179594Y0103972D01*
X0179160Y0103972D02*
X0178727Y0103539D01*
X0178727Y0103105D01*
X0179160Y0103972D02*
X0181329Y0103972D01*
X0181329Y0102238D02*
X0180028Y0102238D01*
X0182196Y0084256D02*
X0182630Y0084256D01*
X0176829Y0077730D02*
X0174660Y0077730D01*
X0174227Y0077296D01*
X0174227Y0076863D01*
D11*
X0186444Y0073428D02*
X0192716Y0073428D01*
X0189580Y0073428D02*
X0192716Y0076564D01*
X0192716Y0078132D01*
X0192716Y0083206D02*
X0192716Y0086342D01*
X0191148Y0087910D01*
X0186444Y0087910D01*
X0186444Y0083206D01*
X0188012Y0081638D01*
X0189580Y0083206D01*
X0189580Y0087910D01*
X0192716Y0091491D02*
X0192716Y0093059D01*
X0186444Y0093059D01*
X0186444Y0091491D02*
X0186444Y0094627D01*
X0186444Y0098059D02*
X0192716Y0098059D01*
X0192716Y0102763D01*
X0191148Y0104331D01*
X0186444Y0104331D01*
X0195852Y0093059D02*
X0197420Y0093059D01*
X0194284Y0069848D02*
X0192716Y0069848D01*
X0191148Y0068280D01*
X0191148Y0063576D01*
X0192716Y0059995D02*
X0192716Y0055291D01*
X0191148Y0053723D01*
X0188012Y0053723D01*
X0186444Y0055291D01*
X0186444Y0059995D01*
X0195852Y0059995D01*
X0195852Y0063576D02*
X0195852Y0068280D01*
X0194284Y0069848D01*
X0191148Y0068280D02*
X0189580Y0069848D01*
X0188012Y0069848D01*
X0186444Y0068280D01*
X0186444Y0063576D01*
X0195852Y0063576D01*
X0191148Y0050143D02*
X0186444Y0050143D01*
X0191148Y0050143D02*
X0192716Y0048575D01*
X0192716Y0043871D01*
X0186444Y0043871D01*
X0186444Y0040438D02*
X0186444Y0037302D01*
X0186444Y0038870D02*
X0192716Y0038870D01*
X0192716Y0037302D01*
X0195852Y0038870D02*
X0197420Y0038870D01*
X0195852Y0033722D02*
X0186444Y0033722D01*
X0186444Y0027450D02*
X0195852Y0027450D01*
X0192716Y0030586D01*
X0195852Y0033722D01*
D12*
X0181549Y0033218D02*
X0175744Y0033218D01*
X0175744Y0037088D01*
X0177679Y0039296D02*
X0175744Y0041231D01*
X0177679Y0043166D01*
X0181549Y0043166D01*
X0179614Y0045373D02*
X0181549Y0047308D01*
X0175744Y0047308D01*
X0175744Y0045373D02*
X0175744Y0049243D01*
X0177679Y0039296D02*
X0181549Y0039296D01*
X0181549Y0037088D02*
X0181549Y0033218D01*
X0180582Y0031011D02*
X0181549Y0030044D01*
X0181549Y0027141D01*
X0175744Y0027141D01*
X0177679Y0027141D02*
X0177679Y0030044D01*
X0178647Y0031011D01*
X0180582Y0031011D01*
X0178647Y0033218D02*
X0178647Y0035153D01*
X0175744Y0031011D02*
X0177679Y0029076D01*
X0148408Y0024083D02*
X0148408Y0059517D01*
X0117306Y0059517D01*
X0117306Y0053611D01*
X0099983Y0053611D01*
X0099983Y0059517D01*
X0068880Y0059517D01*
X0068880Y0024477D01*
X0068880Y0024083D02*
X0148408Y0024083D01*
X0139235Y0025530D02*
X0139235Y0030078D01*
X0139235Y0034015D02*
X0139235Y0038562D01*
X0139235Y0042499D02*
X0139235Y0047046D01*
X0135044Y0047046D01*
X0131107Y0047046D02*
X0126917Y0047046D01*
X0122980Y0047046D02*
X0118789Y0047046D01*
X0114852Y0047046D02*
X0110662Y0047046D01*
X0106725Y0047046D02*
X0102534Y0047046D01*
X0098597Y0047046D02*
X0094407Y0047046D01*
X0090470Y0047046D02*
X0086280Y0047046D01*
X0082343Y0047046D02*
X0078152Y0047046D01*
X0078152Y0042499D01*
X0078152Y0038562D02*
X0078152Y0034015D01*
X0078152Y0030078D02*
X0078152Y0025530D01*
X0078152Y0021593D02*
X0078152Y0017046D01*
X0078152Y0013109D02*
X0078152Y0008562D01*
X0085239Y0008562D01*
X0085239Y0011367D01*
X0085239Y0008562D02*
X0089776Y0008562D01*
X0093713Y0008562D02*
X0098250Y0008562D01*
X0102187Y0008562D02*
X0106725Y0008562D01*
X0110662Y0008562D02*
X0115199Y0008562D01*
X0119136Y0008562D02*
X0123674Y0008562D01*
X0127611Y0008562D02*
X0132148Y0008562D01*
X0132148Y0011367D01*
X0132148Y0008562D02*
X0139235Y0008562D01*
X0139235Y0013109D01*
X0139235Y0017046D02*
X0139235Y0021593D01*
X0132148Y0018109D02*
X0132148Y0015304D01*
X0132148Y0018109D02*
X0127611Y0018109D01*
X0123674Y0018109D02*
X0119136Y0018109D01*
X0115199Y0018109D02*
X0110662Y0018109D01*
X0106725Y0018109D02*
X0102187Y0018109D01*
X0098250Y0018109D02*
X0093713Y0018109D01*
X0089776Y0018109D02*
X0085239Y0018109D01*
X0085239Y0015304D01*
X0086144Y0052725D02*
X0091144Y0052725D01*
X0099983Y0059517D02*
X0117306Y0059517D01*
X0055749Y0052147D02*
X0051879Y0052147D01*
X0049944Y0050212D01*
X0051879Y0048277D01*
X0055749Y0048277D01*
X0054782Y0046070D02*
X0055749Y0045102D01*
X0055749Y0043167D01*
X0054782Y0042200D01*
X0054782Y0046070D02*
X0053814Y0046070D01*
X0049944Y0042200D01*
X0049944Y0046070D01*
X0049944Y0039993D02*
X0049944Y0036123D01*
X0049944Y0038058D02*
X0055749Y0038058D01*
X0053814Y0036123D01*
X0052847Y0033916D02*
X0052847Y0030046D01*
D13*
X0043644Y0048050D02*
X0044894Y0049300D01*
X0044894Y0063050D01*
X0051144Y0069300D01*
X0051144Y0084300D01*
X0049894Y0085550D01*
X0058644Y0089300D02*
X0058644Y0095550D01*
X0158644Y0095550D01*
X0158644Y0089300D01*
X0198644Y0136800D02*
X0192394Y0141800D01*
X0192394Y0240550D01*
X0193644Y0241800D01*
X0198644Y0136800D02*
X0198644Y0133050D01*
X0042394Y0145550D02*
X0039894Y0145550D01*
X0037394Y0148050D01*
X0037394Y0161800D01*
X0034894Y0164300D01*
X0014894Y0164300D01*
X0012394Y0161800D01*
X0012394Y0159300D01*
X0038644Y0143050D02*
X0038644Y0119300D01*
X0036144Y0116800D01*
X0036144Y0114300D02*
X0038644Y0111800D01*
X0038644Y0089300D01*
X0036144Y0086800D01*
X0038644Y0188050D02*
X0039894Y0189300D01*
X0039894Y0265550D01*
X0034894Y0270550D01*
X0034894Y0273050D01*
D14*
X0034060Y0275050D02*
X0034644Y0275634D01*
X0034060Y0276218D01*
X0032309Y0276218D01*
X0032309Y0276801D02*
X0032309Y0275050D01*
X0034060Y0275050D01*
X0035992Y0275634D02*
X0036576Y0275050D01*
X0038327Y0275050D01*
X0038327Y0273882D02*
X0038327Y0277385D01*
X0036576Y0277385D01*
X0035992Y0276801D01*
X0035992Y0275634D01*
X0034060Y0277385D02*
X0032893Y0277385D01*
X0032309Y0276801D01*
X0030961Y0277385D02*
X0029210Y0277385D01*
X0028626Y0276801D01*
X0028626Y0275050D01*
X0027278Y0275634D02*
X0027278Y0276801D01*
X0026694Y0277385D01*
X0025526Y0277385D01*
X0024943Y0276801D01*
X0024943Y0276218D01*
X0027278Y0276218D01*
X0027278Y0275634D02*
X0026694Y0275050D01*
X0025526Y0275050D01*
X0023595Y0275050D02*
X0022427Y0275050D01*
X0023011Y0275050D02*
X0023011Y0278553D01*
X0023595Y0278553D01*
X0030961Y0277385D02*
X0030961Y0275050D01*
X0043358Y0275634D02*
X0043358Y0276801D01*
X0043942Y0277385D01*
X0045110Y0277385D01*
X0045694Y0276801D01*
X0045694Y0275634D01*
X0045110Y0275050D01*
X0043942Y0275050D01*
X0043358Y0275634D01*
X0046981Y0275050D02*
X0047565Y0275634D01*
X0047565Y0277969D01*
X0048149Y0277385D02*
X0046981Y0277385D01*
X0094678Y0102385D02*
X0094094Y0101801D01*
X0094094Y0101218D01*
X0096429Y0101218D01*
X0096429Y0101801D02*
X0095845Y0102385D01*
X0094678Y0102385D01*
X0096429Y0101801D02*
X0096429Y0100634D01*
X0095845Y0100050D01*
X0094678Y0100050D01*
X0097777Y0100050D02*
X0099528Y0100050D01*
X0100112Y0100634D01*
X0100112Y0101801D01*
X0099528Y0102385D01*
X0097777Y0102385D01*
X0101460Y0101801D02*
X0101460Y0100050D01*
X0103212Y0100050D01*
X0103795Y0100634D01*
X0103212Y0101218D01*
X0101460Y0101218D01*
X0101460Y0101801D02*
X0102044Y0102385D01*
X0103212Y0102385D01*
X0105083Y0101801D02*
X0106251Y0101801D01*
X0105667Y0102969D02*
X0105667Y0100050D01*
X0105667Y0102969D02*
X0105083Y0103553D01*
X0107569Y0102385D02*
X0108152Y0102385D01*
X0109320Y0101218D01*
X0109320Y0102385D02*
X0109320Y0100050D01*
X0110668Y0101218D02*
X0113003Y0101218D01*
X0113003Y0101801D02*
X0112419Y0102385D01*
X0111252Y0102385D01*
X0110668Y0101801D01*
X0110668Y0101218D01*
X0111252Y0100050D02*
X0112419Y0100050D01*
X0113003Y0100634D01*
X0113003Y0101801D01*
X0114291Y0102385D02*
X0115459Y0102385D01*
X0114875Y0102969D02*
X0114875Y0100634D01*
X0114291Y0100050D01*
X0116806Y0100050D02*
X0116806Y0101801D01*
X0117390Y0102385D01*
X0119142Y0102385D01*
X0119142Y0100050D01*
X0120430Y0100050D02*
X0121597Y0100050D01*
X0121013Y0100050D02*
X0121013Y0102385D01*
X0121597Y0102385D01*
X0121013Y0103553D02*
X0121013Y0104137D01*
X0126628Y0101801D02*
X0127212Y0102385D01*
X0128380Y0102385D01*
X0128964Y0101801D01*
X0128964Y0100634D01*
X0128380Y0100050D01*
X0127212Y0100050D01*
X0126628Y0100634D01*
X0126628Y0101801D01*
X0130251Y0100050D02*
X0131419Y0100050D01*
X0130835Y0100050D02*
X0130835Y0102385D01*
X0131419Y0102385D01*
X0130835Y0103553D02*
X0130835Y0104137D01*
X0132767Y0103553D02*
X0132767Y0100050D01*
X0134518Y0100050D01*
X0135102Y0100634D01*
X0135102Y0101801D01*
X0134518Y0102385D01*
X0132767Y0102385D01*
X0136450Y0102385D02*
X0136450Y0100050D01*
X0138201Y0100050D01*
X0138785Y0100634D01*
X0138785Y0102385D01*
X0140133Y0101801D02*
X0140133Y0100050D01*
X0141885Y0100050D01*
X0142468Y0100634D01*
X0141885Y0101218D01*
X0140133Y0101218D01*
X0140133Y0101801D02*
X0140717Y0102385D01*
X0141885Y0102385D01*
X0147499Y0101801D02*
X0147499Y0100050D01*
X0148667Y0100050D02*
X0148667Y0101801D01*
X0148083Y0102385D01*
X0147499Y0101801D01*
X0148667Y0101801D02*
X0149251Y0102385D01*
X0149835Y0102385D01*
X0149835Y0100050D01*
X0151182Y0100634D02*
X0151182Y0101801D01*
X0151766Y0102385D01*
X0152934Y0102385D01*
X0153518Y0101801D01*
X0153518Y0100634D01*
X0152934Y0100050D01*
X0151766Y0100050D01*
X0151182Y0100634D01*
X0154836Y0102385D02*
X0155419Y0102385D01*
X0156587Y0101218D01*
X0156587Y0102385D02*
X0156587Y0100050D01*
X0158459Y0100050D02*
X0158459Y0102969D01*
X0157875Y0103553D01*
X0157875Y0101801D02*
X0159043Y0101801D01*
X0194217Y0128134D02*
X0194217Y0130469D01*
X0194801Y0131053D01*
X0196553Y0131053D01*
X0196553Y0127550D01*
X0194801Y0127550D01*
X0194217Y0128134D01*
X0197900Y0127550D02*
X0197900Y0131053D01*
X0200236Y0131053D02*
X0197900Y0127550D01*
X0200236Y0127550D02*
X0200236Y0131053D01*
X0201584Y0130469D02*
X0202167Y0131053D01*
X0203335Y0131053D01*
X0203919Y0130469D01*
X0203919Y0128134D01*
X0203335Y0127550D01*
X0202167Y0127550D01*
X0201584Y0128134D01*
X0201584Y0129301D01*
X0202751Y0129301D01*
X0062731Y0057396D02*
X0060396Y0057396D01*
X0059228Y0057396D02*
X0058644Y0057396D01*
X0058644Y0056049D02*
X0058644Y0053713D01*
X0062147Y0053713D01*
X0062147Y0056049D01*
X0060396Y0054881D02*
X0060396Y0053713D01*
X0060396Y0052365D02*
X0059812Y0051782D01*
X0059812Y0050030D01*
X0058644Y0050030D02*
X0062147Y0050030D01*
X0062147Y0051782D01*
X0061563Y0052365D01*
X0060396Y0052365D01*
X0062147Y0048742D02*
X0062147Y0047575D01*
X0062147Y0048159D02*
X0058644Y0048159D01*
X0058644Y0048742D02*
X0058644Y0047575D01*
X0058644Y0046227D02*
X0059812Y0045059D01*
X0059812Y0045643D02*
X0059812Y0043892D01*
X0058644Y0043892D02*
X0062147Y0043892D01*
X0062147Y0045643D01*
X0061563Y0046227D01*
X0060396Y0046227D01*
X0059812Y0045643D01*
X0062147Y0042544D02*
X0062147Y0040208D01*
X0062147Y0041376D02*
X0058644Y0041376D01*
X0059228Y0038861D02*
X0058644Y0038277D01*
X0058644Y0037109D01*
X0059228Y0036525D01*
X0060396Y0037109D02*
X0060396Y0038277D01*
X0059812Y0038861D01*
X0059228Y0038861D01*
X0060396Y0037109D02*
X0060980Y0036525D01*
X0061563Y0036525D01*
X0062147Y0037109D01*
X0062147Y0038277D01*
X0061563Y0038861D01*
X0061563Y0035177D02*
X0059228Y0035177D01*
X0058644Y0034594D01*
X0058644Y0032842D01*
X0062147Y0032842D01*
X0062147Y0034594D01*
X0061563Y0035177D01*
X0062147Y0031494D02*
X0062147Y0029159D01*
X0058644Y0029159D01*
X0058644Y0031494D01*
X0060396Y0030327D02*
X0060396Y0029159D01*
X0060396Y0027811D02*
X0059812Y0027227D01*
X0059812Y0025476D01*
X0059812Y0026643D02*
X0058644Y0027811D01*
X0060396Y0027811D02*
X0061563Y0027811D01*
X0062147Y0027227D01*
X0062147Y0025476D01*
X0058644Y0025476D01*
X0056647Y0072050D02*
X0053728Y0072050D01*
X0053144Y0072634D01*
X0053144Y0073801D01*
X0053728Y0074385D01*
X0056647Y0074385D01*
X0056063Y0075733D02*
X0055480Y0075733D01*
X0054896Y0076317D01*
X0054896Y0077485D01*
X0054312Y0078068D01*
X0053728Y0078068D01*
X0053144Y0077485D01*
X0053144Y0076317D01*
X0053728Y0075733D01*
X0056063Y0075733D02*
X0056647Y0076317D01*
X0056647Y0077485D01*
X0056063Y0078068D01*
X0056647Y0079416D02*
X0056647Y0081168D01*
X0056063Y0081752D01*
X0055480Y0081752D01*
X0054896Y0081168D01*
X0054896Y0079416D01*
X0056647Y0079416D02*
X0053144Y0079416D01*
X0053144Y0081168D01*
X0053728Y0081752D01*
X0054312Y0081752D01*
X0054896Y0081168D01*
D15*
X0072210Y0181966D02*
X0071743Y0182433D01*
X0071743Y0184768D01*
X0073144Y0184768D01*
X0073611Y0184301D01*
X0073611Y0183367D01*
X0073144Y0182900D01*
X0071743Y0182900D01*
X0070849Y0183367D02*
X0070382Y0183834D01*
X0068980Y0183834D01*
X0068980Y0184301D02*
X0068980Y0182900D01*
X0070382Y0182900D01*
X0070849Y0183367D01*
X0070382Y0184768D02*
X0069448Y0184768D01*
X0068980Y0184301D01*
X0068086Y0184768D02*
X0067619Y0184768D01*
X0067619Y0182900D01*
X0068086Y0182900D02*
X0067152Y0182900D01*
X0066245Y0182900D02*
X0066245Y0184768D01*
X0064844Y0184768D01*
X0064377Y0184301D01*
X0064377Y0182900D01*
X0067619Y0185702D02*
X0067619Y0186169D01*
X0067613Y0187400D02*
X0068080Y0187867D01*
X0068080Y0189735D01*
X0068547Y0189268D02*
X0067613Y0189268D01*
X0066705Y0188801D02*
X0066705Y0187867D01*
X0066238Y0187400D01*
X0065304Y0187400D01*
X0064837Y0187867D01*
X0064837Y0188801D01*
X0065304Y0189268D01*
X0066238Y0189268D01*
X0066705Y0188801D01*
X0069441Y0188801D02*
X0069441Y0187400D01*
X0070842Y0187400D01*
X0071309Y0187867D01*
X0070842Y0188334D01*
X0069441Y0188334D01*
X0069441Y0188801D02*
X0069908Y0189268D01*
X0070842Y0189268D01*
X0072684Y0190202D02*
X0072684Y0187400D01*
X0073151Y0187400D02*
X0072217Y0187400D01*
X0074058Y0187400D02*
X0074992Y0187400D01*
X0074525Y0187400D02*
X0074525Y0190202D01*
X0074992Y0190202D01*
X0076367Y0190202D02*
X0076367Y0190669D01*
X0076367Y0189268D02*
X0076367Y0187400D01*
X0076834Y0187400D02*
X0075900Y0187400D01*
X0077728Y0187400D02*
X0079129Y0187400D01*
X0079596Y0187867D01*
X0079596Y0188801D01*
X0079129Y0189268D01*
X0077728Y0189268D01*
X0076834Y0189268D02*
X0076367Y0189268D01*
X0073151Y0190202D02*
X0072684Y0190202D01*
X0074972Y0184768D02*
X0074505Y0184301D01*
X0074505Y0182900D01*
X0075906Y0182900D01*
X0076373Y0183367D01*
X0075906Y0183834D01*
X0074505Y0183834D01*
X0074972Y0184768D02*
X0075906Y0184768D01*
X0072677Y0181966D02*
X0072210Y0181966D01*
X0063943Y0187400D02*
X0063943Y0189268D01*
X0063943Y0188334D02*
X0063009Y0189268D01*
X0062542Y0189268D01*
X0061641Y0188801D02*
X0061174Y0189268D01*
X0059773Y0189268D01*
X0060240Y0188334D02*
X0061174Y0188334D01*
X0061641Y0188801D01*
X0061641Y0187400D02*
X0060240Y0187400D01*
X0059773Y0187867D01*
X0060240Y0188334D01*
X0080037Y0184768D02*
X0081438Y0183834D01*
X0080037Y0182900D01*
X0081438Y0182900D02*
X0081438Y0185702D01*
X0082332Y0184768D02*
X0083733Y0184768D01*
X0084200Y0184301D01*
X0084200Y0183367D01*
X0083733Y0182900D01*
X0082332Y0182900D01*
X0085094Y0182900D02*
X0086495Y0182900D01*
X0086962Y0183367D01*
X0086495Y0183834D01*
X0085094Y0183834D01*
X0085094Y0184301D02*
X0085094Y0182900D01*
X0085094Y0184301D02*
X0085561Y0184768D01*
X0086495Y0184768D01*
X0087863Y0184768D02*
X0088330Y0184768D01*
X0089264Y0183834D01*
X0089264Y0182900D02*
X0089264Y0184768D01*
X0090172Y0184768D02*
X0091106Y0184768D01*
X0090639Y0185235D02*
X0090639Y0183367D01*
X0090172Y0182900D01*
X0090179Y0187400D02*
X0089244Y0187400D01*
X0090179Y0187400D02*
X0090646Y0187867D01*
X0090646Y0188801D01*
X0090179Y0189268D01*
X0089244Y0189268D01*
X0088777Y0188801D01*
X0088777Y0188334D01*
X0090646Y0188334D01*
X0091546Y0187400D02*
X0092948Y0188334D01*
X0091546Y0189268D01*
X0092948Y0190202D02*
X0092948Y0187400D01*
X0093842Y0187400D02*
X0093842Y0188801D01*
X0094309Y0189268D01*
X0095243Y0189268D01*
X0095243Y0188334D02*
X0093842Y0188334D01*
X0093842Y0187400D02*
X0095243Y0187400D01*
X0095710Y0187867D01*
X0095243Y0188334D01*
X0096604Y0188801D02*
X0096604Y0187400D01*
X0097538Y0187400D02*
X0097538Y0188801D01*
X0097071Y0189268D01*
X0096604Y0188801D01*
X0097538Y0188801D02*
X0098005Y0189268D01*
X0098472Y0189268D01*
X0098472Y0187400D01*
X0085121Y0187867D02*
X0084654Y0187400D01*
X0083720Y0187400D01*
X0083253Y0187867D01*
X0083253Y0188801D01*
X0083720Y0189268D01*
X0084654Y0189268D01*
X0085121Y0188801D01*
X0085121Y0187867D01*
X0082359Y0187400D02*
X0080957Y0187400D01*
X0080490Y0187867D01*
X0080957Y0188334D01*
X0081892Y0188334D01*
X0082359Y0188801D01*
X0081892Y0189268D01*
X0080490Y0189268D01*
D16*
X0110519Y0236175D03*
X0105019Y0257050D03*
X0115519Y0153800D03*
X0120019Y0114300D03*
D17*
X0119829Y0114424D03*
X0110459Y0119174D03*
X0115829Y0148051D03*
X0115829Y0148176D03*
X0114959Y0155801D03*
X0114959Y0156049D03*
X0112959Y0161799D03*
X0112959Y0162051D03*
X0119959Y0184674D03*
X0119829Y0184926D03*
X0119829Y0185174D03*
X0119709Y0185426D03*
X0119709Y0185551D03*
X0119579Y0185926D03*
X0119579Y0186051D03*
X0151079Y0204174D03*
X0151329Y0204551D03*
X0151459Y0204676D03*
X0151459Y0204801D03*
X0151579Y0205049D03*
X0135579Y0246674D03*
X0132209Y0245799D03*
X0140829Y0247051D03*
X0143579Y0250426D03*
X0124209Y0260926D03*
X0124209Y0261051D03*
X0121579Y0261676D03*
X0112079Y0269426D03*
X0111959Y0269301D03*
X0112209Y0269674D03*
X0112329Y0269926D03*
X0112829Y0270674D03*
X0108209Y0265424D03*
X0105709Y0261299D03*
X0104829Y0257551D03*
X0103079Y0256551D03*
X0101329Y0256426D03*
X0104209Y0251426D03*
X0102079Y0248924D03*
X0102209Y0248799D03*
X0102959Y0246674D03*
X0102459Y0242926D03*
X0105209Y0242549D03*
X0106459Y0236299D03*
X0116329Y0235299D03*
X0118329Y0236424D03*
X0110829Y0255426D03*
D18*
X0110954Y0255676D03*
X0108204Y0247301D03*
X0107954Y0244674D03*
X0110204Y0244426D03*
X0105204Y0242926D03*
X0101704Y0249176D03*
X0101584Y0249301D03*
X0101454Y0249426D03*
X0101334Y0249551D03*
X0101204Y0249799D03*
X0101084Y0249924D03*
X0100954Y0250176D03*
X0100834Y0250426D03*
X0100704Y0250676D03*
X0100584Y0251049D03*
X0100584Y0251301D03*
X0100584Y0251426D03*
X0099954Y0254676D03*
X0099954Y0254801D03*
X0101334Y0256676D03*
X0101334Y0256801D03*
X0101334Y0256926D03*
X0104704Y0257801D03*
X0105084Y0259174D03*
X0105584Y0260926D03*
X0105334Y0252301D03*
X0115084Y0236926D03*
X0115084Y0236801D03*
X0116584Y0236676D03*
X0119334Y0239801D03*
X0121584Y0236424D03*
X0126954Y0246426D03*
X0132334Y0244176D03*
X0138954Y0244799D03*
X0140584Y0246799D03*
X0140954Y0247799D03*
X0143204Y0250176D03*
X0126704Y0270176D03*
X0124084Y0271426D03*
X0119834Y0270426D03*
X0120584Y0264176D03*
X0121334Y0261424D03*
X0124334Y0260801D03*
X0112454Y0270176D03*
X0112584Y0270426D03*
X0096204Y0208926D03*
X0096084Y0208801D03*
X0093834Y0205174D03*
X0093834Y0205049D03*
X0093954Y0204801D03*
X0094084Y0204551D03*
X0094204Y0204426D03*
X0094334Y0204174D03*
X0094454Y0204049D03*
X0094584Y0203924D03*
X0094834Y0203676D03*
X0094954Y0203551D03*
X0095454Y0203174D03*
X0114084Y0175051D03*
X0114084Y0174799D03*
X0119204Y0187051D03*
X0112954Y0161051D03*
X0114834Y0158926D03*
X0114834Y0158674D03*
X0114834Y0158426D03*
X0114834Y0158301D03*
X0122834Y0144426D03*
X0114584Y0138926D03*
X0114454Y0138676D03*
X0114334Y0138426D03*
X0114204Y0138176D03*
X0111204Y0120801D03*
X0111084Y0120551D03*
X0120204Y0117676D03*
X0120204Y0117551D03*
X0120204Y0117426D03*
X0120204Y0117301D03*
X0120204Y0117176D03*
X0120084Y0117051D03*
X0120084Y0116926D03*
X0120084Y0116801D03*
X0120084Y0116676D03*
X0120084Y0116551D03*
X0119954Y0116299D03*
X0119954Y0116174D03*
X0119954Y0116049D03*
X0119954Y0115924D03*
X0119954Y0115799D03*
X0119834Y0115549D03*
X0119834Y0115424D03*
X0119834Y0115299D03*
X0119834Y0115174D03*
X0119704Y0114674D03*
X0119704Y0114549D03*
X0150454Y0203551D03*
X0150584Y0203676D03*
D19*
X0119334Y0186800D03*
X0115954Y0197800D03*
X0114084Y0174925D03*
X0114834Y0158800D03*
X0114834Y0158175D03*
X0115954Y0149050D03*
X0122454Y0145925D03*
X0122954Y0144050D03*
X0114084Y0138050D03*
X0113954Y0137800D03*
X0120084Y0116425D03*
X0119704Y0114800D03*
X0118334Y0236550D03*
X0115084Y0236550D03*
X0105204Y0242800D03*
X0102954Y0246925D03*
X0100584Y0251175D03*
X0103204Y0256300D03*
X0103204Y0259425D03*
D20*
X0104769Y0257676D03*
X0100519Y0251676D03*
X0100519Y0251551D03*
X0100019Y0255049D03*
X0102519Y0248551D03*
X0105269Y0242674D03*
X0112519Y0270301D03*
X0138769Y0244674D03*
X0151269Y0204426D03*
X0151019Y0204049D03*
X0119269Y0186926D03*
X0094019Y0204676D03*
X0111519Y0121426D03*
X0111269Y0121051D03*
X0111269Y0120926D03*
X0111019Y0120426D03*
X0111019Y0120301D03*
X0110769Y0119926D03*
X0110769Y0119801D03*
X0110519Y0119299D03*
X0119769Y0114926D03*
D21*
X0119834Y0115050D03*
X0113834Y0137425D03*
X0113954Y0137675D03*
X0114084Y0137925D03*
X0122954Y0143925D03*
X0115954Y0148925D03*
X0114834Y0158550D03*
X0112954Y0161175D03*
X0114084Y0175175D03*
X0119204Y0187175D03*
X0096454Y0209050D03*
X0094704Y0203800D03*
X0116454Y0235050D03*
X0101204Y0249675D03*
X0104954Y0259050D03*
X0120584Y0264300D03*
X0124334Y0261175D03*
X0150704Y0203800D03*
D22*
X0150894Y0203924D03*
X0137394Y0244301D03*
X0143394Y0250301D03*
X0143644Y0250551D03*
X0128144Y0246301D03*
X0119644Y0261676D03*
X0110894Y0255551D03*
X0105644Y0261051D03*
X0103144Y0256426D03*
X0101394Y0256551D03*
X0102644Y0248426D03*
X0102894Y0246799D03*
X0105144Y0245674D03*
X0111394Y0236299D03*
X0115144Y0236676D03*
X0116394Y0235174D03*
X0111894Y0269176D03*
X0112394Y0270051D03*
X0119394Y0186551D03*
X0119394Y0186426D03*
X0118394Y0174051D03*
X0112894Y0161551D03*
X0112894Y0161426D03*
X0114894Y0157926D03*
X0114894Y0157801D03*
X0114894Y0157426D03*
X0114894Y0157301D03*
X0114894Y0156926D03*
X0114894Y0156801D03*
X0114894Y0156549D03*
X0114894Y0156301D03*
X0115894Y0148551D03*
X0115894Y0148426D03*
X0115894Y0148301D03*
X0111644Y0121799D03*
X0111644Y0121674D03*
X0111394Y0121301D03*
X0111394Y0121176D03*
X0111144Y0120676D03*
X0110894Y0120176D03*
X0110894Y0120051D03*
X0110644Y0119676D03*
X0110644Y0119551D03*
X0119894Y0115674D03*
D23*
X0120269Y0117801D03*
X0120269Y0117926D03*
X0114269Y0138301D03*
X0114519Y0138801D03*
X0122769Y0144551D03*
X0122769Y0144676D03*
X0122519Y0145426D03*
X0114769Y0159174D03*
X0114269Y0169801D03*
X0114269Y0169926D03*
X0114269Y0170301D03*
X0114269Y0170426D03*
X0114019Y0175299D03*
X0114019Y0175551D03*
X0114019Y0175676D03*
X0114019Y0176051D03*
X0114019Y0176176D03*
X0114019Y0176551D03*
X0114019Y0176676D03*
X0114019Y0205426D03*
X0114019Y0205551D03*
X0114019Y0205676D03*
X0114019Y0205801D03*
X0114019Y0206049D03*
X0114019Y0206174D03*
X0114019Y0206299D03*
X0114019Y0206551D03*
X0114019Y0206676D03*
X0114019Y0206801D03*
X0114269Y0212676D03*
X0114269Y0212801D03*
X0114269Y0212926D03*
X0114269Y0213801D03*
X0114269Y0213926D03*
X0116769Y0231801D03*
X0116769Y0231926D03*
X0116519Y0234926D03*
X0115019Y0236424D03*
X0115019Y0237051D03*
X0121519Y0236299D03*
X0112269Y0246051D03*
X0109019Y0242549D03*
X0108769Y0242674D03*
X0105269Y0243051D03*
X0102769Y0248301D03*
X0100769Y0250551D03*
X0103269Y0256174D03*
X0105519Y0260676D03*
X0105519Y0260801D03*
X0111019Y0255801D03*
X0119769Y0261801D03*
X0140519Y0246674D03*
X0151519Y0205174D03*
X0150269Y0203426D03*
X0148769Y0202301D03*
X0148519Y0202176D03*
X0148269Y0202051D03*
X0095769Y0208551D03*
D24*
X0093894Y0219176D03*
X0093894Y0219301D03*
X0093894Y0219426D03*
X0093894Y0219674D03*
X0093894Y0219799D03*
X0093894Y0220051D03*
X0093894Y0220176D03*
X0093894Y0220301D03*
X0093894Y0220426D03*
X0093894Y0220674D03*
X0093894Y0220799D03*
X0093894Y0221051D03*
X0093894Y0221176D03*
X0093894Y0221301D03*
X0093894Y0221426D03*
X0093894Y0221674D03*
X0093894Y0221799D03*
X0093894Y0222051D03*
X0093894Y0222176D03*
X0093894Y0222301D03*
X0093894Y0222426D03*
X0093894Y0222674D03*
X0093894Y0222799D03*
X0093894Y0222924D03*
X0093894Y0223176D03*
X0093894Y0223301D03*
X0093894Y0223426D03*
X0093894Y0223551D03*
X0093894Y0223799D03*
X0093894Y0223924D03*
X0093894Y0224176D03*
X0093894Y0224301D03*
X0093894Y0224426D03*
X0093894Y0224551D03*
X0093894Y0224799D03*
X0093894Y0224924D03*
X0093894Y0225176D03*
X0093894Y0225301D03*
X0093894Y0225426D03*
X0093894Y0225551D03*
X0093894Y0225676D03*
X0093894Y0225924D03*
X0093894Y0226049D03*
X0093894Y0226301D03*
X0093894Y0226426D03*
X0093894Y0226551D03*
X0093894Y0226676D03*
X0093894Y0226924D03*
X0093894Y0227049D03*
X0093894Y0227301D03*
X0093894Y0227426D03*
X0093894Y0227551D03*
X0093894Y0227676D03*
X0093894Y0227924D03*
X0093894Y0228049D03*
X0093894Y0228301D03*
X0093894Y0228426D03*
X0093894Y0228551D03*
X0093894Y0228676D03*
X0093894Y0228924D03*
X0093894Y0229049D03*
X0093894Y0229174D03*
X0093894Y0229426D03*
X0093894Y0229551D03*
X0093894Y0229676D03*
X0093894Y0229801D03*
X0093894Y0230049D03*
X0093894Y0230174D03*
X0093894Y0230426D03*
X0093894Y0230551D03*
X0093894Y0230676D03*
X0093894Y0230801D03*
X0093894Y0231049D03*
X0093894Y0231174D03*
X0093894Y0231426D03*
X0093894Y0231551D03*
X0093894Y0231676D03*
X0093894Y0231801D03*
X0093894Y0231926D03*
X0093894Y0232174D03*
X0093894Y0232299D03*
X0093894Y0232551D03*
X0093894Y0232676D03*
X0093894Y0232801D03*
X0093894Y0232926D03*
X0093894Y0233174D03*
X0093894Y0233299D03*
X0093894Y0233551D03*
X0093894Y0233676D03*
X0093894Y0233801D03*
X0093894Y0233926D03*
X0093894Y0234174D03*
X0093894Y0234299D03*
X0093894Y0234551D03*
X0093894Y0234676D03*
X0093894Y0234801D03*
X0093894Y0234926D03*
X0093894Y0235174D03*
X0093894Y0235299D03*
X0093894Y0235424D03*
X0093894Y0235676D03*
X0093894Y0235801D03*
X0093894Y0235926D03*
X0093894Y0236051D03*
X0093894Y0236299D03*
X0093894Y0236424D03*
X0093894Y0236676D03*
X0093894Y0236801D03*
X0093894Y0236926D03*
X0093894Y0237051D03*
X0093894Y0237299D03*
X0093894Y0237424D03*
X0093894Y0237676D03*
X0093894Y0237801D03*
X0093894Y0237926D03*
X0093894Y0238051D03*
X0093894Y0238176D03*
X0093894Y0238424D03*
X0093894Y0238549D03*
X0093894Y0238801D03*
X0093894Y0238926D03*
X0093894Y0239051D03*
X0093894Y0239176D03*
X0093894Y0239424D03*
X0093894Y0239549D03*
X0093894Y0239801D03*
X0093894Y0239926D03*
X0093894Y0240051D03*
X0093894Y0240176D03*
X0093894Y0240424D03*
X0093894Y0240549D03*
X0093894Y0240801D03*
X0093894Y0240926D03*
X0093894Y0241051D03*
X0093894Y0241176D03*
X0093894Y0241424D03*
X0093894Y0241549D03*
X0093894Y0241674D03*
X0093894Y0241926D03*
X0093894Y0242051D03*
X0093894Y0242176D03*
X0093894Y0242301D03*
X0093894Y0242549D03*
X0093894Y0242674D03*
X0093894Y0242926D03*
X0093894Y0243051D03*
X0093894Y0243176D03*
X0093894Y0243301D03*
X0093894Y0243549D03*
X0093894Y0243674D03*
X0093894Y0243926D03*
X0093894Y0244051D03*
X0093894Y0244176D03*
X0093894Y0244301D03*
X0093894Y0244426D03*
X0093894Y0244674D03*
X0093894Y0244799D03*
X0093894Y0245051D03*
X0093894Y0245176D03*
X0093894Y0245301D03*
X0093894Y0245426D03*
X0093894Y0245674D03*
X0093894Y0245799D03*
X0093894Y0246051D03*
X0093894Y0246176D03*
X0093894Y0246301D03*
X0093894Y0246426D03*
X0093894Y0246674D03*
X0093894Y0246799D03*
X0093894Y0247051D03*
X0093894Y0247176D03*
X0093894Y0247301D03*
X0093894Y0247426D03*
X0093894Y0247674D03*
X0093894Y0247799D03*
X0093894Y0247924D03*
X0093894Y0248176D03*
X0093894Y0248301D03*
X0093894Y0248426D03*
X0093894Y0248551D03*
X0093894Y0248799D03*
X0093894Y0248924D03*
X0093894Y0249176D03*
X0093894Y0249301D03*
X0093894Y0249426D03*
X0093894Y0249551D03*
X0093894Y0249799D03*
X0093894Y0249924D03*
X0093894Y0250176D03*
X0093894Y0250301D03*
X0093894Y0250426D03*
X0093894Y0250551D03*
X0093894Y0250676D03*
X0093894Y0250924D03*
X0093894Y0251049D03*
X0093894Y0251301D03*
X0093894Y0251426D03*
X0093894Y0251551D03*
X0093894Y0251676D03*
X0094144Y0254676D03*
X0094144Y0254801D03*
X0094144Y0255049D03*
X0094144Y0255174D03*
X0094144Y0255426D03*
X0094394Y0256426D03*
X0094394Y0256551D03*
X0094394Y0256676D03*
X0094394Y0256801D03*
X0094644Y0257801D03*
X0094644Y0257926D03*
X0094894Y0258801D03*
X0094894Y0258926D03*
X0094894Y0259174D03*
X0095144Y0259676D03*
X0095144Y0259801D03*
X0095144Y0259926D03*
X0095394Y0260551D03*
X0095394Y0260676D03*
X0095644Y0261299D03*
X0095894Y0261926D03*
X0096144Y0262676D03*
X0096394Y0263176D03*
X0096644Y0263801D03*
X0101644Y0258299D03*
X0101394Y0257801D03*
X0107394Y0256174D03*
X0104144Y0244176D03*
X0103144Y0242549D03*
X0116644Y0234676D03*
X0116644Y0231174D03*
X0116644Y0231049D03*
X0121144Y0231426D03*
X0121144Y0231551D03*
X0121144Y0231676D03*
X0121144Y0231801D03*
X0121144Y0231926D03*
X0121144Y0232174D03*
X0121144Y0232299D03*
X0121144Y0232551D03*
X0121144Y0232676D03*
X0121144Y0232801D03*
X0121144Y0232926D03*
X0119894Y0226551D03*
X0119644Y0225551D03*
X0119394Y0224551D03*
X0119144Y0223426D03*
X0119144Y0223301D03*
X0121394Y0215549D03*
X0121394Y0215424D03*
X0121394Y0215176D03*
X0120894Y0210424D03*
X0120894Y0210299D03*
X0114144Y0201176D03*
X0113894Y0200551D03*
X0113894Y0200299D03*
X0119644Y0194926D03*
X0119644Y0194801D03*
X0119394Y0194049D03*
X0116644Y0187551D03*
X0116394Y0186551D03*
X0114144Y0186426D03*
X0113644Y0188551D03*
X0113644Y0188676D03*
X0120894Y0180801D03*
X0120894Y0180676D03*
X0120894Y0179801D03*
X0120894Y0179676D03*
X0121144Y0173926D03*
X0121144Y0173551D03*
X0121144Y0173426D03*
X0121144Y0172174D03*
X0121144Y0171926D03*
X0116644Y0171674D03*
X0115894Y0132676D03*
X0120394Y0118051D03*
X0145894Y0201051D03*
X0151394Y0206174D03*
X0151394Y0206299D03*
X0151394Y0212801D03*
X0151394Y0212926D03*
X0151394Y0213051D03*
X0151394Y0213176D03*
X0151394Y0213424D03*
X0151394Y0213549D03*
X0151394Y0213801D03*
X0151394Y0213926D03*
X0151394Y0214051D03*
X0151394Y0214176D03*
X0151394Y0214424D03*
X0151394Y0214549D03*
X0151394Y0214801D03*
X0151394Y0214926D03*
X0151394Y0215051D03*
X0151394Y0215176D03*
X0151394Y0215424D03*
X0151394Y0215549D03*
X0151394Y0215801D03*
X0151394Y0215926D03*
X0151394Y0216051D03*
X0151394Y0216176D03*
X0151394Y0216424D03*
X0151394Y0216549D03*
X0151394Y0216674D03*
X0151394Y0216926D03*
X0151394Y0217051D03*
X0151394Y0217176D03*
X0151394Y0217301D03*
X0151394Y0217549D03*
X0151394Y0217674D03*
X0151394Y0217926D03*
X0151394Y0218051D03*
X0151394Y0218176D03*
X0151394Y0218301D03*
X0151394Y0218549D03*
X0151394Y0218674D03*
X0151394Y0218926D03*
X0151394Y0219051D03*
X0151394Y0219176D03*
X0151394Y0219301D03*
X0151394Y0219426D03*
X0151394Y0219674D03*
X0151394Y0219799D03*
X0151394Y0220051D03*
X0151394Y0220176D03*
X0151394Y0220301D03*
X0151394Y0220426D03*
X0151394Y0220674D03*
X0151394Y0220799D03*
X0151394Y0221051D03*
X0151394Y0221176D03*
X0151394Y0221301D03*
X0151394Y0221426D03*
X0151394Y0221674D03*
X0151394Y0221799D03*
X0151394Y0222051D03*
X0151394Y0222176D03*
X0151394Y0222301D03*
X0151394Y0222426D03*
X0151394Y0222674D03*
X0151394Y0222799D03*
X0151394Y0222924D03*
X0151394Y0223176D03*
X0151394Y0223301D03*
X0151394Y0223426D03*
X0151394Y0223551D03*
X0151394Y0223799D03*
X0151394Y0223924D03*
X0151394Y0224176D03*
X0151394Y0224301D03*
X0151394Y0224426D03*
X0151394Y0224551D03*
X0151394Y0224799D03*
X0151394Y0224924D03*
X0151394Y0225176D03*
X0151394Y0225301D03*
X0151394Y0225426D03*
X0151394Y0225551D03*
X0151394Y0225676D03*
X0151394Y0225924D03*
X0151394Y0226049D03*
X0146394Y0210424D03*
X0146644Y0210299D03*
X0145644Y0210676D03*
X0139644Y0245674D03*
X0138144Y0246301D03*
X0142644Y0249924D03*
X0150644Y0258551D03*
X0150394Y0259299D03*
X0150144Y0260174D03*
X0150144Y0260299D03*
X0149894Y0260926D03*
X0149894Y0261051D03*
X0149644Y0261676D03*
X0149394Y0262299D03*
X0149144Y0262801D03*
X0149144Y0262926D03*
X0148894Y0263424D03*
X0148644Y0263926D03*
X0148644Y0264051D03*
X0148394Y0264424D03*
X0148394Y0264549D03*
X0120644Y0270799D03*
X0120394Y0273051D03*
D25*
X0121019Y0271051D03*
X0122519Y0272426D03*
X0124019Y0268926D03*
X0123769Y0268674D03*
X0120519Y0262424D03*
X0120769Y0260299D03*
X0117519Y0260676D03*
X0117269Y0259926D03*
X0117269Y0259801D03*
X0117269Y0259676D03*
X0117519Y0262424D03*
X0117519Y0262676D03*
X0117519Y0262801D03*
X0117519Y0262926D03*
X0117519Y0263051D03*
X0117519Y0263176D03*
X0117519Y0263424D03*
X0117519Y0263676D03*
X0117519Y0269926D03*
X0117519Y0270051D03*
X0111769Y0268301D03*
X0111519Y0267926D03*
X0103769Y0255426D03*
X0103019Y0247674D03*
X0114519Y0236051D03*
X0121019Y0229801D03*
X0121019Y0229676D03*
X0121019Y0229551D03*
X0115019Y0221426D03*
X0115019Y0221301D03*
X0115019Y0221176D03*
X0120769Y0211926D03*
X0120769Y0211801D03*
X0120769Y0211676D03*
X0119019Y0208926D03*
X0119019Y0208801D03*
X0121019Y0200676D03*
X0121019Y0200551D03*
X0121019Y0200299D03*
X0121019Y0200051D03*
X0121019Y0198426D03*
X0102519Y0211424D03*
X0094269Y0207551D03*
X0116269Y0175676D03*
X0116269Y0175551D03*
X0116269Y0175299D03*
X0121019Y0170926D03*
X0121019Y0170801D03*
X0119019Y0166176D03*
X0119019Y0165924D03*
X0114519Y0166424D03*
X0121269Y0125926D03*
X0121269Y0125801D03*
X0121269Y0125549D03*
X0120519Y0118176D03*
X0112519Y0122174D03*
X0142519Y0200051D03*
X0117519Y0254426D03*
X0101269Y0270799D03*
X0101519Y0271176D03*
X0101769Y0271426D03*
X0102019Y0271674D03*
X0100769Y0270301D03*
X0143769Y0271176D03*
X0144269Y0270674D03*
D26*
X0141144Y0273675D03*
X0137894Y0246550D03*
X0120644Y0260050D03*
X0102894Y0272550D03*
X0120644Y0182550D03*
X0114894Y0167925D03*
X0114894Y0161675D03*
X0114894Y0161175D03*
X0114894Y0160675D03*
X0117144Y0155925D03*
X0121144Y0159050D03*
X0120394Y0118300D03*
D27*
X0120329Y0118424D03*
X0120329Y0118549D03*
X0120329Y0118674D03*
X0120329Y0118799D03*
X0120329Y0118924D03*
X0120329Y0119049D03*
X0120579Y0152676D03*
X0117079Y0155549D03*
X0121079Y0160426D03*
X0121079Y0160551D03*
X0119079Y0162799D03*
X0119079Y0167176D03*
X0115079Y0169049D03*
X0120579Y0183801D03*
X0105959Y0199426D03*
X0114709Y0204426D03*
X0114709Y0204551D03*
X0114709Y0204676D03*
X0114829Y0205049D03*
X0114459Y0224426D03*
X0114459Y0224551D03*
X0114459Y0224799D03*
X0120959Y0228301D03*
X0115579Y0232676D03*
X0119329Y0240801D03*
X0127459Y0242549D03*
X0116959Y0253301D03*
X0115209Y0256174D03*
X0117959Y0261299D03*
X0120459Y0259801D03*
X0120209Y0268301D03*
X0121579Y0271426D03*
X0116829Y0271051D03*
X0109329Y0264549D03*
X0108829Y0263176D03*
X0108829Y0263051D03*
X0108829Y0262299D03*
X0108829Y0260174D03*
X0105829Y0274924D03*
X0106329Y0275301D03*
X0104709Y0243926D03*
X0105209Y0241926D03*
X0106329Y0241549D03*
X0106579Y0241424D03*
X0109829Y0241926D03*
X0094579Y0208174D03*
X0139709Y0199426D03*
X0150959Y0207926D03*
X0139209Y0275176D03*
X0138829Y0275426D03*
D28*
X0123704Y0273051D03*
X0119584Y0270301D03*
X0117084Y0272301D03*
X0122084Y0262051D03*
X0115454Y0258926D03*
X0115454Y0258801D03*
X0110834Y0255174D03*
X0110834Y0255049D03*
X0104834Y0257426D03*
X0102954Y0256801D03*
X0103084Y0259299D03*
X0105834Y0261676D03*
X0105834Y0261801D03*
X0102954Y0246426D03*
X0108084Y0244426D03*
X0109334Y0243674D03*
X0109584Y0243549D03*
X0109334Y0236424D03*
X0116334Y0236299D03*
X0118334Y0236299D03*
X0118334Y0234801D03*
X0118204Y0234676D03*
X0121704Y0236676D03*
X0118454Y0244301D03*
X0128084Y0246426D03*
X0129334Y0247799D03*
X0137454Y0245674D03*
X0140954Y0247301D03*
X0117954Y0177676D03*
X0118084Y0177176D03*
X0118084Y0177051D03*
X0118204Y0176676D03*
X0118204Y0176551D03*
X0118204Y0176176D03*
X0118334Y0176051D03*
X0118334Y0175676D03*
X0118334Y0175551D03*
X0118454Y0175299D03*
X0118454Y0175051D03*
X0118454Y0174799D03*
X0118454Y0174551D03*
X0119454Y0154301D03*
X0119454Y0153676D03*
X0110584Y0119049D03*
D29*
X0112394Y0122801D03*
X0120644Y0121301D03*
X0120394Y0119801D03*
X0120394Y0119676D03*
X0120394Y0119551D03*
X0120394Y0119299D03*
X0120394Y0119174D03*
X0121644Y0148426D03*
X0120644Y0151926D03*
X0118144Y0157426D03*
X0119144Y0162299D03*
X0119144Y0162551D03*
X0120894Y0168801D03*
X0120894Y0197426D03*
X0114894Y0205174D03*
X0114394Y0224924D03*
X0114394Y0225176D03*
X0114394Y0225301D03*
X0120894Y0227676D03*
X0120894Y0227924D03*
X0120894Y0228049D03*
X0139144Y0212299D03*
X0150894Y0208174D03*
X0115144Y0256049D03*
X0114894Y0255801D03*
X0115394Y0256426D03*
X0115644Y0256676D03*
X0117644Y0264549D03*
X0119144Y0266176D03*
X0120394Y0268549D03*
X0108894Y0260299D03*
X0106144Y0275176D03*
X0106894Y0275676D03*
X0138644Y0275551D03*
X0094644Y0208299D03*
D30*
X0106644Y0199300D03*
X0114894Y0205300D03*
X0114394Y0225050D03*
X0105644Y0241800D03*
X0108894Y0245925D03*
X0109394Y0264675D03*
X0120894Y0168675D03*
X0119144Y0162425D03*
X0114144Y0128425D03*
X0120394Y0119425D03*
D31*
X0110519Y0119425D03*
X0113769Y0137300D03*
X0123019Y0143550D03*
X0123019Y0143800D03*
X0119769Y0185300D03*
X0094269Y0204300D03*
X0106519Y0250050D03*
X0128519Y0248050D03*
D32*
X0120334Y0259676D03*
X0118084Y0261424D03*
X0115834Y0256926D03*
X0115704Y0256801D03*
X0114834Y0255676D03*
X0114704Y0255551D03*
X0110334Y0256049D03*
X0108704Y0262051D03*
X0116704Y0270799D03*
X0119084Y0266051D03*
X0121584Y0271176D03*
X0121584Y0271301D03*
X0123584Y0272674D03*
X0127704Y0271799D03*
X0138084Y0275924D03*
X0138454Y0275676D03*
X0117584Y0237051D03*
X0117584Y0236926D03*
X0114084Y0235926D03*
X0114084Y0235801D03*
X0114084Y0235676D03*
X0107204Y0241051D03*
X0106334Y0243549D03*
X0105704Y0243674D03*
X0105584Y0247176D03*
X0120834Y0227551D03*
X0120834Y0227426D03*
X0120834Y0227301D03*
X0118084Y0220051D03*
X0118084Y0219799D03*
X0117584Y0212299D03*
X0117584Y0212051D03*
X0117584Y0211926D03*
X0117584Y0211801D03*
X0107204Y0212424D03*
X0138454Y0212424D03*
X0150834Y0208299D03*
X0119204Y0162051D03*
X0117084Y0155301D03*
X0117084Y0155049D03*
X0117084Y0154801D03*
X0116954Y0154301D03*
X0116954Y0154176D03*
X0120454Y0155049D03*
X0120704Y0151801D03*
X0120704Y0151676D03*
X0120704Y0151551D03*
X0121584Y0148551D03*
X0121704Y0148301D03*
X0121704Y0148176D03*
X0121704Y0148051D03*
X0121084Y0124551D03*
X0121084Y0124426D03*
X0121084Y0124301D03*
X0121084Y0124176D03*
X0120954Y0123551D03*
X0120954Y0123426D03*
X0120954Y0123301D03*
X0120834Y0122801D03*
X0120834Y0122549D03*
X0120834Y0122424D03*
X0120834Y0122299D03*
X0120704Y0122049D03*
X0120704Y0121924D03*
X0120704Y0121799D03*
X0120704Y0121674D03*
X0120704Y0121426D03*
X0120584Y0121176D03*
X0120584Y0121051D03*
X0120584Y0120926D03*
X0120584Y0120801D03*
X0120584Y0120676D03*
X0120584Y0120551D03*
X0120454Y0120176D03*
X0120454Y0120051D03*
X0120454Y0119926D03*
X0112334Y0122926D03*
X0112454Y0123301D03*
X0106704Y0275551D03*
D33*
X0106519Y0275426D03*
X0117519Y0264424D03*
X0115519Y0256551D03*
X0107019Y0241176D03*
X0106019Y0241674D03*
X0117519Y0213176D03*
X0117519Y0213051D03*
X0117519Y0212926D03*
X0117519Y0212801D03*
X0117519Y0212676D03*
X0117519Y0212424D03*
X0114769Y0204801D03*
X0106519Y0212299D03*
X0130519Y0246301D03*
X0137769Y0246674D03*
X0139019Y0275301D03*
X0119019Y0167301D03*
X0120519Y0154801D03*
X0120519Y0154676D03*
X0117019Y0154676D03*
X0121019Y0124799D03*
X0120519Y0120426D03*
X0120519Y0120301D03*
D34*
X0120704Y0121550D03*
X0114084Y0128050D03*
X0121584Y0148675D03*
X0120454Y0154925D03*
X0118204Y0157050D03*
X0117084Y0154925D03*
X0117584Y0212175D03*
X0136454Y0244550D03*
X0120334Y0259050D03*
X0115954Y0257050D03*
X0107084Y0275800D03*
D35*
X0109269Y0255925D03*
X0100519Y0251800D03*
X0100019Y0254925D03*
X0106269Y0242425D03*
X0116769Y0232050D03*
X0119519Y0186175D03*
X0123019Y0143675D03*
X0111519Y0121550D03*
D36*
X0112334Y0121924D03*
X0114704Y0129551D03*
X0121334Y0126176D03*
X0121334Y0126051D03*
X0120834Y0153676D03*
X0120954Y0154176D03*
X0120954Y0154301D03*
X0121084Y0156301D03*
X0118334Y0159426D03*
X0118334Y0159674D03*
X0118454Y0160174D03*
X0118454Y0160426D03*
X0118454Y0160551D03*
X0118954Y0165176D03*
X0118954Y0165424D03*
X0118954Y0165676D03*
X0114954Y0159674D03*
X0116334Y0174799D03*
X0116334Y0175051D03*
X0120704Y0181801D03*
X0116834Y0188176D03*
X0113454Y0190051D03*
X0113454Y0190176D03*
X0113454Y0190424D03*
X0114334Y0202176D03*
X0114334Y0202301D03*
X0114334Y0202426D03*
X0118954Y0209174D03*
X0120834Y0211299D03*
X0120834Y0211424D03*
X0120954Y0203174D03*
X0120954Y0203049D03*
X0120954Y0202924D03*
X0120954Y0202676D03*
X0120954Y0202551D03*
X0120954Y0202426D03*
X0120954Y0202301D03*
X0120954Y0202176D03*
X0102204Y0200299D03*
X0094204Y0207299D03*
X0102084Y0211299D03*
X0110954Y0236424D03*
X0114584Y0240549D03*
X0109334Y0242176D03*
X0108084Y0245301D03*
X0108204Y0245426D03*
X0102954Y0247799D03*
X0107584Y0257174D03*
X0107584Y0257426D03*
X0110454Y0266051D03*
X0110584Y0266176D03*
X0110704Y0266549D03*
X0110834Y0266801D03*
X0110834Y0266926D03*
X0110954Y0267051D03*
X0110954Y0267176D03*
X0111084Y0267301D03*
X0111204Y0267549D03*
X0111334Y0267674D03*
X0111584Y0268051D03*
X0111954Y0268549D03*
X0111954Y0268674D03*
X0117584Y0262299D03*
X0117454Y0260551D03*
X0117334Y0260299D03*
X0117334Y0260174D03*
X0117954Y0255174D03*
X0124834Y0269926D03*
X0137954Y0246426D03*
X0146334Y0268051D03*
X0145954Y0268674D03*
X0145704Y0268926D03*
X0145584Y0269176D03*
X0145454Y0269301D03*
X0145334Y0269426D03*
X0145084Y0269674D03*
X0144954Y0269926D03*
X0144834Y0270051D03*
X0144704Y0270176D03*
X0144584Y0270301D03*
X0144454Y0270426D03*
X0121084Y0234299D03*
X0121084Y0234174D03*
X0121084Y0230426D03*
X0121084Y0230174D03*
X0121084Y0230049D03*
X0143584Y0211299D03*
X0151334Y0206926D03*
X0151334Y0206801D03*
X0143454Y0200299D03*
X0098954Y0267926D03*
X0099204Y0268301D03*
X0099454Y0268674D03*
X0099704Y0268926D03*
X0099704Y0269051D03*
X0099834Y0269176D03*
X0099954Y0269301D03*
X0100084Y0269426D03*
X0100204Y0269674D03*
X0100454Y0269926D03*
X0100584Y0270051D03*
D37*
X0100644Y0270176D03*
X0100894Y0270426D03*
X0101144Y0270674D03*
X0101394Y0271051D03*
X0101644Y0271301D03*
X0102144Y0271799D03*
X0110394Y0265926D03*
X0110394Y0265801D03*
X0109144Y0264051D03*
X0109144Y0263926D03*
X0109144Y0263801D03*
X0111644Y0268176D03*
X0117394Y0270426D03*
X0122144Y0272301D03*
X0124894Y0261676D03*
X0117644Y0261676D03*
X0117644Y0261801D03*
X0117644Y0261926D03*
X0117644Y0262051D03*
X0117644Y0260926D03*
X0117644Y0260801D03*
X0117894Y0255049D03*
X0117644Y0254676D03*
X0126894Y0246799D03*
X0127644Y0245674D03*
X0127894Y0245799D03*
X0114894Y0222176D03*
X0114894Y0222051D03*
X0106894Y0236424D03*
X0107644Y0257551D03*
X0107644Y0257676D03*
X0143644Y0271301D03*
X0143894Y0271051D03*
X0144144Y0270799D03*
X0145644Y0269051D03*
X0143144Y0211424D03*
X0120894Y0203551D03*
X0120894Y0203426D03*
X0114394Y0202676D03*
X0114394Y0202551D03*
X0113394Y0197926D03*
X0113394Y0197674D03*
X0113394Y0197426D03*
X0113394Y0191176D03*
X0113394Y0190924D03*
X0113394Y0190676D03*
X0116894Y0188551D03*
X0120644Y0181926D03*
X0118894Y0164924D03*
X0118894Y0164676D03*
X0118894Y0164551D03*
X0118394Y0159174D03*
X0118394Y0158926D03*
X0117394Y0156301D03*
X0121144Y0156549D03*
X0121144Y0156801D03*
X0121144Y0156926D03*
X0121144Y0157301D03*
X0121144Y0157426D03*
X0121144Y0157801D03*
X0114644Y0129426D03*
X0112394Y0122049D03*
X0103144Y0200051D03*
D38*
X0115769Y0226676D03*
X0115769Y0226924D03*
X0115769Y0227049D03*
X0115769Y0227301D03*
X0115769Y0227426D03*
X0115769Y0227551D03*
X0115769Y0227676D03*
X0115769Y0227924D03*
X0115769Y0228049D03*
X0115769Y0228301D03*
X0115769Y0228426D03*
X0115769Y0228551D03*
X0115769Y0228676D03*
X0115769Y0228924D03*
X0115769Y0229049D03*
X0115769Y0229174D03*
X0115769Y0229426D03*
X0115769Y0229551D03*
X0115769Y0229676D03*
X0115769Y0229801D03*
X0115769Y0230049D03*
X0115769Y0230174D03*
X0115769Y0230426D03*
X0115769Y0230551D03*
X0119769Y0239549D03*
X0109019Y0245799D03*
X0120269Y0259174D03*
X0120269Y0259299D03*
X0120269Y0259551D03*
X0121269Y0263051D03*
X0119019Y0265926D03*
X0120519Y0268674D03*
X0120769Y0268926D03*
X0116769Y0270674D03*
X0109519Y0264801D03*
X0107269Y0275924D03*
X0119019Y0167801D03*
X0119019Y0167676D03*
X0120519Y0155301D03*
X0120769Y0151426D03*
X0120769Y0151301D03*
X0120769Y0151176D03*
X0121769Y0147926D03*
X0121769Y0147801D03*
X0121019Y0124051D03*
X0121019Y0123926D03*
X0121019Y0123801D03*
X0121019Y0123676D03*
X0120769Y0122174D03*
X0113019Y0124799D03*
X0112769Y0124176D03*
X0112769Y0124051D03*
X0112519Y0123551D03*
X0112519Y0123426D03*
D39*
X0112459Y0122299D03*
X0114579Y0129176D03*
X0114579Y0129301D03*
X0121209Y0125424D03*
X0121209Y0125299D03*
X0115079Y0147801D03*
X0115079Y0147926D03*
X0117209Y0156049D03*
X0118329Y0158301D03*
X0118329Y0158426D03*
X0118329Y0158674D03*
X0121209Y0158674D03*
X0121209Y0158426D03*
X0121209Y0158301D03*
X0121209Y0157926D03*
X0121209Y0158926D03*
X0118959Y0164051D03*
X0118959Y0164176D03*
X0118209Y0168801D03*
X0120959Y0170301D03*
X0120959Y0170426D03*
X0116209Y0176051D03*
X0116209Y0176176D03*
X0120829Y0184174D03*
X0113329Y0191424D03*
X0113329Y0191676D03*
X0113329Y0191801D03*
X0113329Y0196674D03*
X0113329Y0196926D03*
X0113329Y0197174D03*
X0114459Y0202924D03*
X0114459Y0203049D03*
X0114459Y0203174D03*
X0120959Y0203676D03*
X0120959Y0203924D03*
X0120959Y0204049D03*
X0120959Y0199926D03*
X0120959Y0198551D03*
X0120709Y0212051D03*
X0120709Y0212299D03*
X0115079Y0220674D03*
X0115079Y0220799D03*
X0115079Y0221051D03*
X0114959Y0221674D03*
X0114959Y0221799D03*
X0114829Y0222301D03*
X0114829Y0222426D03*
X0114829Y0222674D03*
X0120959Y0229426D03*
X0116829Y0234174D03*
X0116959Y0234299D03*
X0104459Y0244051D03*
X0103709Y0242301D03*
X0106709Y0248799D03*
X0106579Y0248924D03*
X0107709Y0257801D03*
X0107709Y0257926D03*
X0107829Y0258174D03*
X0107829Y0258299D03*
X0107959Y0258551D03*
X0108079Y0258676D03*
X0108209Y0258926D03*
X0108329Y0259174D03*
X0104829Y0260174D03*
X0109079Y0262926D03*
X0109079Y0263676D03*
X0109209Y0264176D03*
X0110329Y0265549D03*
X0116959Y0271426D03*
X0119329Y0272426D03*
X0119829Y0272674D03*
X0120079Y0272799D03*
X0121329Y0271799D03*
X0124829Y0272301D03*
X0119959Y0267674D03*
X0119829Y0267549D03*
X0119709Y0267301D03*
X0119709Y0267176D03*
X0119579Y0267051D03*
X0119579Y0266926D03*
X0117459Y0263926D03*
X0117459Y0263801D03*
X0117209Y0259551D03*
X0117209Y0259299D03*
X0120709Y0260174D03*
X0117709Y0254801D03*
X0117579Y0254551D03*
X0117459Y0254301D03*
X0117329Y0254049D03*
X0117329Y0253924D03*
X0117209Y0253676D03*
X0132329Y0244674D03*
X0134329Y0244176D03*
X0137079Y0244799D03*
X0140829Y0250426D03*
X0143579Y0271426D03*
X0143329Y0271674D03*
X0143209Y0271799D03*
X0142959Y0272051D03*
X0142829Y0272176D03*
X0142709Y0272301D03*
X0142579Y0272426D03*
X0142329Y0272674D03*
X0142209Y0272799D03*
X0102459Y0272051D03*
X0103579Y0211676D03*
X0094329Y0207676D03*
X0103709Y0199926D03*
X0114829Y0167676D03*
X0114709Y0167301D03*
X0114709Y0167176D03*
X0114579Y0166801D03*
X0114579Y0166676D03*
X0114709Y0166176D03*
X0114709Y0165924D03*
X0114829Y0162299D03*
X0114959Y0160551D03*
X0114959Y0160426D03*
X0114959Y0160174D03*
X0114959Y0159926D03*
X0151209Y0207174D03*
X0151209Y0207299D03*
D40*
X0151084Y0207551D03*
X0151084Y0207676D03*
X0141084Y0211926D03*
X0140454Y0212051D03*
X0120704Y0212676D03*
X0120834Y0205174D03*
X0120834Y0205049D03*
X0120834Y0204801D03*
X0120954Y0199426D03*
X0120954Y0199051D03*
X0120954Y0198926D03*
X0114584Y0203676D03*
X0114584Y0203924D03*
X0105204Y0212051D03*
X0104584Y0211926D03*
X0114704Y0223176D03*
X0114584Y0223551D03*
X0114584Y0223799D03*
X0114584Y0223924D03*
X0115084Y0220051D03*
X0120954Y0228551D03*
X0120954Y0228676D03*
X0120954Y0228924D03*
X0115454Y0232926D03*
X0119084Y0238926D03*
X0108704Y0246176D03*
X0108584Y0246301D03*
X0107204Y0247799D03*
X0107084Y0247924D03*
X0106954Y0248176D03*
X0106834Y0248301D03*
X0107584Y0243051D03*
X0107704Y0242926D03*
X0117084Y0253426D03*
X0121084Y0257426D03*
X0120954Y0257676D03*
X0120834Y0262676D03*
X0117454Y0264176D03*
X0119334Y0266549D03*
X0120084Y0268051D03*
X0117334Y0269426D03*
X0117204Y0269301D03*
X0117454Y0269674D03*
X0116454Y0268549D03*
X0116834Y0271176D03*
X0119084Y0272301D03*
X0121454Y0272051D03*
X0123584Y0268301D03*
X0124584Y0264176D03*
X0125204Y0261801D03*
X0129084Y0248176D03*
X0136834Y0244674D03*
X0140834Y0273924D03*
X0140584Y0274176D03*
X0140334Y0274301D03*
X0140204Y0274426D03*
X0108954Y0262676D03*
X0108834Y0259926D03*
X0108704Y0259801D03*
X0103454Y0273051D03*
X0103584Y0273176D03*
X0103704Y0273301D03*
X0103834Y0273426D03*
X0104084Y0273551D03*
X0104334Y0273799D03*
X0104454Y0273924D03*
X0104954Y0274301D03*
X0094454Y0207926D03*
X0116204Y0176676D03*
X0120584Y0182801D03*
X0120584Y0182926D03*
X0120704Y0183926D03*
X0120954Y0169926D03*
X0120954Y0169801D03*
X0118084Y0169426D03*
X0119084Y0166801D03*
X0114954Y0168301D03*
X0114704Y0165176D03*
X0114704Y0164924D03*
X0114704Y0164676D03*
X0114704Y0164551D03*
X0118334Y0157926D03*
X0118334Y0157801D03*
X0117084Y0155801D03*
X0117084Y0153924D03*
X0116954Y0153424D03*
X0116954Y0153176D03*
X0116834Y0152924D03*
X0116834Y0152676D03*
X0116704Y0152424D03*
X0116584Y0151676D03*
X0116584Y0151551D03*
X0116584Y0151426D03*
X0116454Y0151051D03*
X0116454Y0150926D03*
X0121204Y0159174D03*
X0121204Y0159426D03*
X0121204Y0159674D03*
X0121084Y0125049D03*
X0112334Y0122424D03*
D41*
X0112394Y0122549D03*
X0120644Y0152424D03*
X0121144Y0159926D03*
X0121144Y0160174D03*
X0120894Y0169049D03*
X0120894Y0169301D03*
X0120894Y0169426D03*
X0116144Y0177051D03*
X0116144Y0177176D03*
X0105394Y0199551D03*
X0114644Y0204049D03*
X0114644Y0204174D03*
X0120644Y0212801D03*
X0120644Y0212926D03*
X0120644Y0213051D03*
X0120644Y0213176D03*
X0115144Y0219799D03*
X0120894Y0228426D03*
X0108894Y0262424D03*
X0108894Y0263424D03*
X0105144Y0274426D03*
X0105644Y0274799D03*
X0120144Y0268176D03*
D42*
X0108834Y0260425D03*
X0107454Y0276050D03*
X0110584Y0236550D03*
X0118084Y0219925D03*
X0120834Y0197300D03*
X0118204Y0157175D03*
X0117084Y0155175D03*
X0120454Y0155175D03*
X0121584Y0148800D03*
X0121704Y0146675D03*
X0114084Y0128175D03*
X0120834Y0122675D03*
X0137834Y0276050D03*
D43*
X0139329Y0275050D03*
X0107709Y0242800D03*
X0120959Y0228175D03*
X0105959Y0275050D03*
X0119079Y0162925D03*
X0120709Y0152175D03*
X0121579Y0146425D03*
X0121579Y0146175D03*
X0112329Y0122675D03*
D44*
X0112394Y0123051D03*
X0112394Y0123176D03*
X0112644Y0123676D03*
X0112644Y0123801D03*
X0112644Y0123926D03*
X0112894Y0124426D03*
X0112894Y0124551D03*
X0113144Y0125174D03*
X0120894Y0123176D03*
X0120894Y0123051D03*
X0120894Y0122926D03*
X0118144Y0156926D03*
X0118144Y0157301D03*
X0119144Y0161551D03*
X0119144Y0161799D03*
X0120894Y0196926D03*
X0120894Y0197174D03*
X0120644Y0197674D03*
X0117644Y0237299D03*
X0117644Y0237424D03*
X0104894Y0242051D03*
X0114644Y0255426D03*
X0111394Y0257551D03*
X0111144Y0257174D03*
X0110894Y0256801D03*
X0110394Y0256174D03*
X0108644Y0261801D03*
X0108644Y0261926D03*
X0113394Y0264424D03*
X0121144Y0262801D03*
X0121144Y0269176D03*
X0121394Y0272176D03*
X0127894Y0271674D03*
X0137394Y0276301D03*
X0137644Y0276176D03*
X0107894Y0276301D03*
X0107644Y0276176D03*
D45*
X0108079Y0276426D03*
X0108329Y0276551D03*
X0109579Y0264926D03*
X0108579Y0261676D03*
X0108829Y0260551D03*
X0111579Y0257926D03*
X0111579Y0257801D03*
X0111459Y0257676D03*
X0111329Y0257426D03*
X0110959Y0256926D03*
X0110829Y0256676D03*
X0110709Y0256551D03*
X0110579Y0256426D03*
X0114329Y0255049D03*
X0114459Y0255174D03*
X0116079Y0257174D03*
X0112959Y0261051D03*
X0112959Y0261299D03*
X0113209Y0264176D03*
X0113459Y0264549D03*
X0113579Y0264926D03*
X0121209Y0262926D03*
X0121329Y0263176D03*
X0121459Y0263424D03*
X0120959Y0269051D03*
X0121329Y0269301D03*
X0121459Y0269426D03*
X0121709Y0269674D03*
X0121959Y0269926D03*
X0136959Y0276551D03*
X0137209Y0276426D03*
X0125079Y0240801D03*
X0117709Y0237676D03*
X0110709Y0236676D03*
X0107459Y0240926D03*
X0104209Y0259676D03*
X0104329Y0259926D03*
X0120829Y0227049D03*
X0120829Y0196674D03*
X0120829Y0196426D03*
X0118959Y0168049D03*
X0119209Y0161426D03*
X0120459Y0155801D03*
X0120459Y0155549D03*
X0120829Y0151051D03*
X0120829Y0150926D03*
X0120829Y0150801D03*
X0116079Y0142176D03*
X0115959Y0141926D03*
X0115829Y0141676D03*
X0113829Y0126926D03*
X0113709Y0126676D03*
X0113709Y0126551D03*
X0113579Y0126301D03*
X0113579Y0126176D03*
X0113459Y0126051D03*
X0113459Y0125926D03*
X0113459Y0125801D03*
X0113329Y0125549D03*
X0113209Y0125424D03*
X0113209Y0125299D03*
X0113079Y0125049D03*
X0113079Y0124924D03*
X0112829Y0124301D03*
X0150709Y0208551D03*
D46*
X0119019Y0167425D03*
X0117019Y0154425D03*
X0121019Y0124675D03*
X0106769Y0241300D03*
X0115019Y0255925D03*
X0108769Y0262175D03*
X0138269Y0275800D03*
D47*
X0121579Y0269550D03*
X0113329Y0264300D03*
X0112959Y0261175D03*
X0111079Y0257050D03*
X0120829Y0196550D03*
X0119209Y0161175D03*
X0120459Y0155425D03*
X0115709Y0140050D03*
X0113959Y0127300D03*
X0112959Y0124675D03*
D48*
X0121019Y0124924D03*
X0120519Y0152924D03*
X0120519Y0153176D03*
X0120519Y0153424D03*
X0117019Y0153676D03*
X0119019Y0163051D03*
X0119019Y0163176D03*
X0115019Y0168549D03*
X0115019Y0168801D03*
X0120519Y0183301D03*
X0120519Y0183426D03*
X0120769Y0205426D03*
X0120769Y0205551D03*
X0120769Y0205676D03*
X0120769Y0205801D03*
X0114519Y0224176D03*
X0114519Y0224301D03*
X0115519Y0232801D03*
X0115519Y0233551D03*
X0108769Y0246051D03*
X0120519Y0259926D03*
X0119269Y0266424D03*
X0123519Y0268176D03*
X0139519Y0274924D03*
X0139769Y0274799D03*
X0140019Y0274551D03*
X0105269Y0274551D03*
X0104769Y0274176D03*
X0151019Y0207801D03*
X0140269Y0199551D03*
D49*
X0142144Y0211676D03*
X0141644Y0211801D03*
X0120644Y0212424D03*
X0120894Y0204676D03*
X0120894Y0204551D03*
X0120894Y0204426D03*
X0120894Y0204174D03*
X0115144Y0220176D03*
X0115144Y0220301D03*
X0115144Y0220426D03*
X0114644Y0223301D03*
X0114644Y0223426D03*
X0114394Y0240424D03*
X0119644Y0240549D03*
X0127144Y0245426D03*
X0130644Y0246426D03*
X0117144Y0253551D03*
X0117144Y0259174D03*
X0108644Y0259676D03*
X0108394Y0259299D03*
X0108144Y0258801D03*
X0105394Y0247301D03*
X0116644Y0268674D03*
X0116894Y0268926D03*
X0117144Y0269176D03*
X0116894Y0271301D03*
X0121394Y0271674D03*
X0123644Y0272799D03*
X0123644Y0268549D03*
X0141644Y0273301D03*
X0141894Y0273051D03*
X0103144Y0272799D03*
X0102644Y0272301D03*
X0094394Y0207801D03*
X0116144Y0176551D03*
X0120644Y0182301D03*
X0120644Y0182426D03*
X0118144Y0169301D03*
X0118144Y0169049D03*
X0114894Y0168049D03*
X0114894Y0167801D03*
X0114894Y0162051D03*
X0114894Y0161799D03*
X0114894Y0161551D03*
X0114894Y0161426D03*
X0114894Y0161051D03*
X0114894Y0160926D03*
X0116644Y0151926D03*
X0116644Y0151801D03*
X0116394Y0150801D03*
X0116394Y0150676D03*
X0121144Y0125174D03*
D50*
X0121269Y0125675D03*
X0117269Y0156175D03*
X0119019Y0166050D03*
X0114519Y0166550D03*
X0121019Y0170675D03*
X0116269Y0175425D03*
X0121019Y0198300D03*
X0121019Y0200425D03*
X0120769Y0211550D03*
X0103019Y0211550D03*
X0094269Y0207425D03*
X0106519Y0249050D03*
X0117519Y0262550D03*
X0117519Y0263550D03*
X0101269Y0270925D03*
X0144019Y0270925D03*
D51*
X0132579Y0269800D03*
X0121829Y0269800D03*
X0113459Y0264675D03*
X0111209Y0257300D03*
X0116209Y0257300D03*
X0117709Y0237550D03*
X0107959Y0212550D03*
X0120829Y0196800D03*
X0137709Y0212550D03*
X0119209Y0161300D03*
X0120459Y0155675D03*
X0115709Y0141425D03*
X0115709Y0139925D03*
X0115829Y0139425D03*
X0114079Y0127675D03*
X0113329Y0125675D03*
D52*
X0121269Y0126301D03*
X0118519Y0160926D03*
X0118519Y0161051D03*
X0121019Y0171174D03*
X0121019Y0171426D03*
X0120769Y0181301D03*
X0120769Y0181549D03*
X0116269Y0185926D03*
X0116269Y0186051D03*
X0114269Y0185926D03*
X0116769Y0188051D03*
X0113519Y0189551D03*
X0113519Y0189676D03*
X0118519Y0191176D03*
X0121019Y0201051D03*
X0121019Y0201176D03*
X0121019Y0201551D03*
X0121019Y0201676D03*
X0121019Y0202051D03*
X0114269Y0202051D03*
X0101269Y0211051D03*
X0121019Y0230551D03*
X0116769Y0244426D03*
X0108019Y0245176D03*
X0102769Y0247924D03*
X0107519Y0256801D03*
X0107519Y0256926D03*
X0098019Y0266424D03*
X0098019Y0266549D03*
X0098269Y0266926D03*
X0098519Y0267301D03*
X0098769Y0267674D03*
X0099019Y0268051D03*
X0097769Y0266051D03*
X0117519Y0270176D03*
X0117769Y0272176D03*
X0124269Y0269176D03*
X0140769Y0250301D03*
X0146269Y0268176D03*
X0146019Y0268549D03*
X0151269Y0209299D03*
X0151269Y0209174D03*
X0151269Y0208926D03*
X0151269Y0208801D03*
X0144769Y0200676D03*
D53*
X0145209Y0210801D03*
X0144829Y0210926D03*
X0144459Y0211051D03*
X0151329Y0211051D03*
X0151329Y0210926D03*
X0151329Y0210801D03*
X0151329Y0210676D03*
X0151329Y0210424D03*
X0151329Y0210299D03*
X0151329Y0210174D03*
X0151329Y0209926D03*
X0151329Y0209801D03*
X0151329Y0209676D03*
X0151329Y0209551D03*
X0151329Y0211299D03*
X0151329Y0211424D03*
X0151329Y0211676D03*
X0151329Y0211801D03*
X0151329Y0211926D03*
X0151329Y0212051D03*
X0151329Y0212299D03*
X0151329Y0212424D03*
X0151329Y0212676D03*
X0139709Y0245799D03*
X0134329Y0244051D03*
X0133829Y0248301D03*
X0133709Y0248426D03*
X0131959Y0244799D03*
X0124329Y0258551D03*
X0124329Y0258676D03*
X0120959Y0260801D03*
X0118459Y0255676D03*
X0118329Y0255551D03*
X0119959Y0243051D03*
X0121209Y0235299D03*
X0121209Y0235174D03*
X0121209Y0233174D03*
X0121079Y0231174D03*
X0121079Y0231049D03*
X0121079Y0230801D03*
X0121079Y0230676D03*
X0116459Y0230676D03*
X0116709Y0234551D03*
X0107959Y0236676D03*
X0107959Y0245051D03*
X0106459Y0249426D03*
X0104579Y0252049D03*
X0103579Y0255676D03*
X0107459Y0256426D03*
X0107459Y0256551D03*
X0107459Y0256676D03*
X0098209Y0266801D03*
X0097829Y0266176D03*
X0097709Y0265926D03*
X0097459Y0265549D03*
X0097459Y0265424D03*
X0097329Y0265176D03*
X0097209Y0265051D03*
X0097209Y0264926D03*
X0097079Y0264801D03*
X0096959Y0264549D03*
X0096959Y0264424D03*
X0096829Y0264176D03*
X0096709Y0263926D03*
X0096579Y0263676D03*
X0096329Y0263051D03*
X0094209Y0255551D03*
X0094079Y0254551D03*
X0094079Y0254426D03*
X0094079Y0254301D03*
X0093959Y0253049D03*
X0093959Y0252924D03*
X0093959Y0252676D03*
X0093959Y0252551D03*
X0093959Y0252426D03*
X0093959Y0252301D03*
X0093959Y0252049D03*
X0093959Y0251924D03*
X0117579Y0270301D03*
X0124459Y0269301D03*
X0124579Y0269426D03*
X0124709Y0269674D03*
X0146579Y0267674D03*
X0146829Y0267301D03*
X0146959Y0267051D03*
X0147079Y0266926D03*
X0147329Y0266549D03*
X0147329Y0266424D03*
X0147459Y0266176D03*
X0147579Y0266051D03*
X0147709Y0265926D03*
X0147709Y0265801D03*
X0147829Y0265549D03*
X0147959Y0265424D03*
X0148079Y0265176D03*
X0148079Y0265051D03*
X0148209Y0264926D03*
X0120829Y0211051D03*
X0120829Y0210926D03*
X0120829Y0210801D03*
X0120829Y0210676D03*
X0118829Y0209801D03*
X0118829Y0209676D03*
X0118829Y0209551D03*
X0114209Y0201676D03*
X0114209Y0201551D03*
X0113709Y0199926D03*
X0113709Y0199551D03*
X0113709Y0199426D03*
X0113709Y0199051D03*
X0118709Y0191801D03*
X0118709Y0191676D03*
X0119829Y0195426D03*
X0119959Y0195926D03*
X0116709Y0187799D03*
X0116579Y0187299D03*
X0116329Y0186426D03*
X0114209Y0186051D03*
X0114079Y0186551D03*
X0113579Y0189051D03*
X0113579Y0189176D03*
X0120829Y0181049D03*
X0120959Y0179301D03*
X0120959Y0179176D03*
X0120959Y0178924D03*
X0121079Y0178424D03*
X0121079Y0178176D03*
X0121079Y0177924D03*
X0121079Y0177676D03*
X0121079Y0177551D03*
X0121079Y0174551D03*
X0121079Y0174299D03*
X0121079Y0174051D03*
X0121079Y0171674D03*
X0116459Y0173926D03*
X0116459Y0174051D03*
X0100959Y0200676D03*
X0094079Y0206926D03*
X0094079Y0208551D03*
X0094079Y0208676D03*
X0094079Y0208801D03*
X0094079Y0208926D03*
X0094079Y0209174D03*
X0094079Y0209299D03*
X0094079Y0209551D03*
X0094079Y0209676D03*
X0094079Y0209801D03*
X0094079Y0209926D03*
X0098579Y0210174D03*
X0100079Y0210676D03*
X0100459Y0210801D03*
X0100829Y0210926D03*
X0121329Y0126551D03*
X0121329Y0126426D03*
D54*
X0113894Y0127051D03*
X0113894Y0127176D03*
X0113644Y0126426D03*
X0115894Y0141801D03*
X0116144Y0142301D03*
X0117144Y0145176D03*
X0117144Y0145301D03*
X0120394Y0156049D03*
X0118144Y0156549D03*
X0118144Y0156801D03*
X0108144Y0199051D03*
X0136894Y0212676D03*
X0107644Y0240801D03*
X0112894Y0260801D03*
X0112894Y0260926D03*
X0112894Y0261424D03*
X0112894Y0261676D03*
X0112894Y0261801D03*
X0112894Y0261926D03*
X0112894Y0262051D03*
X0113644Y0265051D03*
X0113644Y0265176D03*
X0109644Y0265051D03*
X0132644Y0269674D03*
D55*
X0124584Y0261424D03*
X0124204Y0258174D03*
X0123584Y0257426D03*
X0121084Y0261051D03*
X0120084Y0262051D03*
X0118584Y0255801D03*
X0107334Y0256049D03*
X0107204Y0255801D03*
X0107204Y0255676D03*
X0107084Y0255551D03*
X0105834Y0252551D03*
X0104454Y0251924D03*
X0106334Y0249799D03*
X0107704Y0247674D03*
X0105084Y0246176D03*
X0104954Y0246051D03*
X0102954Y0247426D03*
X0101334Y0257551D03*
X0101334Y0257676D03*
X0101454Y0257926D03*
X0101584Y0258174D03*
X0101834Y0258676D03*
X0101954Y0258801D03*
X0102454Y0259174D03*
X0103454Y0259551D03*
X0095954Y0262051D03*
X0095834Y0261801D03*
X0095704Y0261424D03*
X0095584Y0261051D03*
X0096084Y0262424D03*
X0094704Y0258174D03*
X0094584Y0257676D03*
X0094584Y0257551D03*
X0094454Y0256926D03*
X0112834Y0233299D03*
X0112834Y0233174D03*
X0112954Y0234174D03*
X0112954Y0234299D03*
X0113084Y0234801D03*
X0113084Y0234926D03*
X0113204Y0235174D03*
X0113204Y0235299D03*
X0113204Y0235424D03*
X0112704Y0231926D03*
X0112704Y0231801D03*
X0112704Y0231676D03*
X0112704Y0231551D03*
X0112704Y0231426D03*
X0112704Y0231174D03*
X0112704Y0231049D03*
X0112704Y0230801D03*
X0112704Y0230676D03*
X0112704Y0230551D03*
X0112704Y0230426D03*
X0112704Y0230174D03*
X0112834Y0229426D03*
X0112834Y0229174D03*
X0112834Y0229049D03*
X0112834Y0228924D03*
X0112954Y0228426D03*
X0112954Y0228301D03*
X0112954Y0228049D03*
X0113084Y0227676D03*
X0113084Y0227551D03*
X0113084Y0227426D03*
X0113204Y0227301D03*
X0113204Y0227049D03*
X0113334Y0226676D03*
X0116704Y0231426D03*
X0119954Y0226924D03*
X0119954Y0226676D03*
X0119834Y0226426D03*
X0119834Y0226301D03*
X0119704Y0225924D03*
X0119704Y0225676D03*
X0119584Y0225426D03*
X0119584Y0225301D03*
X0119584Y0225176D03*
X0119454Y0224924D03*
X0119454Y0224799D03*
X0119334Y0224426D03*
X0119334Y0224301D03*
X0119334Y0224176D03*
X0119204Y0223799D03*
X0119204Y0223551D03*
X0119084Y0223176D03*
X0119084Y0222924D03*
X0119084Y0222799D03*
X0118954Y0222426D03*
X0118954Y0222301D03*
X0118954Y0222176D03*
X0118954Y0222051D03*
X0118954Y0221799D03*
X0118954Y0221674D03*
X0118834Y0221301D03*
X0118834Y0221176D03*
X0118834Y0221051D03*
X0118834Y0220799D03*
X0118834Y0220674D03*
X0118834Y0220426D03*
X0118834Y0220301D03*
X0118834Y0220176D03*
X0117204Y0220799D03*
X0121834Y0220799D03*
X0121834Y0220674D03*
X0121834Y0220426D03*
X0121834Y0220301D03*
X0121834Y0220176D03*
X0121834Y0220051D03*
X0121834Y0219799D03*
X0121834Y0219674D03*
X0121834Y0219426D03*
X0121834Y0219301D03*
X0121834Y0219176D03*
X0121704Y0218926D03*
X0121704Y0218674D03*
X0121704Y0218549D03*
X0121704Y0218301D03*
X0121704Y0218176D03*
X0121704Y0218051D03*
X0121704Y0217926D03*
X0121584Y0217549D03*
X0121584Y0217301D03*
X0121584Y0217176D03*
X0121584Y0217051D03*
X0121584Y0216926D03*
X0121584Y0216674D03*
X0121584Y0216549D03*
X0121454Y0216176D03*
X0121454Y0216051D03*
X0121454Y0215926D03*
X0121454Y0215801D03*
X0121334Y0215051D03*
X0121334Y0214926D03*
X0121334Y0214801D03*
X0118334Y0211676D03*
X0118454Y0211424D03*
X0118454Y0211299D03*
X0118584Y0210926D03*
X0118584Y0210801D03*
X0118584Y0210676D03*
X0118704Y0210424D03*
X0118704Y0210299D03*
X0118704Y0210174D03*
X0116704Y0210174D03*
X0116704Y0210299D03*
X0116704Y0209926D03*
X0116584Y0209299D03*
X0116584Y0209174D03*
X0116454Y0208551D03*
X0116454Y0208299D03*
X0116334Y0207926D03*
X0116334Y0207801D03*
X0116204Y0207299D03*
X0116084Y0206926D03*
X0116084Y0206801D03*
X0115834Y0206049D03*
X0115704Y0205676D03*
X0115704Y0205551D03*
X0118584Y0205551D03*
X0118584Y0205676D03*
X0118584Y0205426D03*
X0118454Y0204174D03*
X0118334Y0203049D03*
X0118334Y0202924D03*
X0118084Y0198551D03*
X0118084Y0198426D03*
X0113954Y0200676D03*
X0119334Y0193801D03*
X0119204Y0193301D03*
X0119084Y0193176D03*
X0118954Y0192801D03*
X0118954Y0192676D03*
X0118834Y0192301D03*
X0118834Y0188551D03*
X0121334Y0185926D03*
X0121334Y0185551D03*
X0121334Y0185426D03*
X0121204Y0184674D03*
X0121454Y0186426D03*
X0121454Y0186551D03*
X0121584Y0187299D03*
X0121584Y0187551D03*
X0121584Y0187799D03*
X0121704Y0188676D03*
X0121704Y0189051D03*
X0121834Y0190676D03*
X0121834Y0194801D03*
X0121834Y0194926D03*
X0121834Y0195301D03*
X0121834Y0195426D03*
X0113704Y0188176D03*
X0113954Y0187551D03*
X0113954Y0187299D03*
X0120834Y0180301D03*
X0120834Y0180176D03*
X0121084Y0173051D03*
X0121084Y0172926D03*
X0121084Y0172674D03*
X0121084Y0172426D03*
X0118454Y0171426D03*
X0116584Y0171926D03*
X0116584Y0172174D03*
X0116454Y0173426D03*
X0116454Y0173551D03*
X0121584Y0168301D03*
X0112954Y0154801D03*
X0112954Y0154676D03*
X0112954Y0154301D03*
X0113084Y0154176D03*
X0113084Y0153924D03*
X0113084Y0153676D03*
X0113204Y0153424D03*
X0113204Y0153176D03*
X0113334Y0152676D03*
X0113334Y0152424D03*
X0113454Y0151926D03*
X0113584Y0151801D03*
X0113584Y0151676D03*
X0113584Y0151551D03*
X0113584Y0151426D03*
X0113704Y0151301D03*
X0113704Y0151176D03*
X0113704Y0151051D03*
X0113834Y0150801D03*
X0113834Y0150676D03*
X0114454Y0148551D03*
X0114584Y0148301D03*
X0114584Y0148176D03*
X0114584Y0148051D03*
X0118834Y0148051D03*
X0118834Y0147926D03*
X0118954Y0148176D03*
X0118954Y0148301D03*
X0119084Y0148426D03*
X0119084Y0148551D03*
X0120954Y0145426D03*
X0120954Y0145301D03*
X0120954Y0145176D03*
X0120954Y0145051D03*
X0121204Y0142301D03*
X0121204Y0142176D03*
X0121204Y0142051D03*
X0121334Y0141551D03*
X0121584Y0138926D03*
X0121584Y0138801D03*
X0121834Y0132676D03*
X0121834Y0132551D03*
X0121834Y0132426D03*
X0121834Y0132301D03*
X0121834Y0132176D03*
X0121834Y0132051D03*
X0121834Y0131926D03*
X0121334Y0126676D03*
X0115704Y0131926D03*
X0115704Y0132051D03*
X0115704Y0132176D03*
X0115834Y0132426D03*
X0115834Y0132551D03*
X0116454Y0135301D03*
X0116454Y0135426D03*
X0116584Y0135676D03*
X0116584Y0135801D03*
X0116704Y0138176D03*
X0116704Y0138301D03*
X0116704Y0138426D03*
X0116704Y0138551D03*
X0116704Y0138676D03*
X0116704Y0138801D03*
X0116704Y0138926D03*
X0112834Y0155301D03*
X0112834Y0155549D03*
X0112834Y0155801D03*
X0112834Y0156049D03*
X0112834Y0156301D03*
X0112834Y0157926D03*
X0112834Y0158301D03*
X0112834Y0158426D03*
X0112834Y0158674D03*
X0112834Y0158926D03*
X0112834Y0159174D03*
X0099454Y0201176D03*
X0093954Y0206299D03*
X0097704Y0209801D03*
X0099334Y0210424D03*
X0093954Y0211299D03*
X0093954Y0211424D03*
X0093954Y0211676D03*
X0093954Y0211801D03*
X0093954Y0211926D03*
X0093954Y0212051D03*
X0093954Y0212299D03*
X0093954Y0212424D03*
X0093954Y0212676D03*
X0093954Y0212801D03*
X0093954Y0212926D03*
X0093954Y0213051D03*
X0093954Y0213176D03*
X0093954Y0213424D03*
X0093954Y0213549D03*
X0093954Y0213801D03*
X0093954Y0213926D03*
X0093954Y0214051D03*
X0093954Y0214176D03*
X0093954Y0214424D03*
X0093954Y0214549D03*
X0093954Y0214801D03*
X0093954Y0214926D03*
X0093954Y0215051D03*
X0093954Y0215176D03*
X0093954Y0215424D03*
X0093954Y0215549D03*
X0093954Y0215801D03*
X0093954Y0215926D03*
X0093954Y0216051D03*
X0093954Y0216176D03*
X0093954Y0216424D03*
X0093954Y0216549D03*
X0093954Y0216674D03*
X0093954Y0216926D03*
X0093954Y0217051D03*
X0093954Y0217176D03*
X0093954Y0217301D03*
X0093954Y0217549D03*
X0093954Y0217674D03*
X0093954Y0217926D03*
X0093954Y0218051D03*
X0093954Y0218176D03*
X0093954Y0218301D03*
X0093954Y0218549D03*
X0093954Y0218674D03*
X0093954Y0218926D03*
X0093954Y0219051D03*
X0118204Y0236801D03*
X0121334Y0235801D03*
X0121334Y0235676D03*
X0121704Y0226924D03*
X0121704Y0226676D03*
X0121704Y0226551D03*
X0121704Y0226426D03*
X0121704Y0226301D03*
X0121704Y0226049D03*
X0121704Y0225924D03*
X0121834Y0225676D03*
X0121834Y0225551D03*
X0121834Y0225426D03*
X0121834Y0225301D03*
X0121834Y0225176D03*
X0121834Y0224924D03*
X0121834Y0224799D03*
X0121834Y0224551D03*
X0121834Y0224426D03*
X0121834Y0224301D03*
X0121834Y0224176D03*
X0121834Y0223924D03*
X0121834Y0223799D03*
X0121834Y0223551D03*
X0121834Y0221301D03*
X0121834Y0221176D03*
X0121834Y0221051D03*
X0120954Y0210174D03*
X0120954Y0209926D03*
X0120954Y0209801D03*
X0120954Y0209676D03*
X0120954Y0209551D03*
X0120954Y0209299D03*
X0121084Y0208926D03*
X0121084Y0208801D03*
X0146204Y0201176D03*
X0151454Y0205801D03*
X0151454Y0206049D03*
X0146954Y0210174D03*
X0151454Y0226301D03*
X0151454Y0226426D03*
X0151454Y0226551D03*
X0151454Y0226676D03*
X0151454Y0226924D03*
X0151454Y0227049D03*
X0151454Y0227301D03*
X0151454Y0227426D03*
X0151454Y0227551D03*
X0151454Y0227676D03*
X0151454Y0227924D03*
X0151454Y0228049D03*
X0151454Y0228301D03*
X0151454Y0228426D03*
X0151454Y0228551D03*
X0151454Y0228676D03*
X0151454Y0228924D03*
X0151454Y0229049D03*
X0151454Y0229174D03*
X0151454Y0229426D03*
X0151454Y0229551D03*
X0151454Y0229676D03*
X0151454Y0229801D03*
X0151454Y0230049D03*
X0151454Y0230174D03*
X0151454Y0230426D03*
X0151454Y0230551D03*
X0151454Y0230676D03*
X0151454Y0230801D03*
X0151454Y0231049D03*
X0151454Y0231174D03*
X0151454Y0231426D03*
X0151454Y0231551D03*
X0151454Y0231676D03*
X0151454Y0231801D03*
X0151454Y0231926D03*
X0151454Y0232174D03*
X0151454Y0232299D03*
X0151454Y0232551D03*
X0151454Y0232676D03*
X0151454Y0232801D03*
X0151454Y0232926D03*
X0151454Y0233174D03*
X0151454Y0233299D03*
X0151454Y0233551D03*
X0151454Y0233676D03*
X0151454Y0233801D03*
X0151454Y0233926D03*
X0151454Y0234174D03*
X0151454Y0234299D03*
X0151454Y0234551D03*
X0151454Y0234676D03*
X0151454Y0234801D03*
X0151454Y0234926D03*
X0151454Y0235174D03*
X0151454Y0235299D03*
X0151454Y0235424D03*
X0151454Y0235676D03*
X0151454Y0235801D03*
X0151454Y0235926D03*
X0151454Y0236051D03*
X0151454Y0236299D03*
X0151454Y0236424D03*
X0151454Y0236676D03*
X0151454Y0236801D03*
X0151454Y0236926D03*
X0151454Y0237051D03*
X0151454Y0237299D03*
X0151454Y0237424D03*
X0151454Y0237676D03*
X0151454Y0237801D03*
X0151454Y0237926D03*
X0151454Y0238051D03*
X0151454Y0238176D03*
X0151454Y0238424D03*
X0151454Y0238549D03*
X0151454Y0238801D03*
X0151454Y0238926D03*
X0151454Y0239051D03*
X0151454Y0239176D03*
X0151454Y0239424D03*
X0151454Y0239549D03*
X0151454Y0239801D03*
X0151454Y0239926D03*
X0151454Y0240051D03*
X0151454Y0240176D03*
X0151454Y0240424D03*
X0151454Y0240549D03*
X0151454Y0240801D03*
X0151454Y0240926D03*
X0151454Y0241051D03*
X0151454Y0241176D03*
X0151454Y0241424D03*
X0151454Y0241549D03*
X0151454Y0241674D03*
X0151454Y0241926D03*
X0151454Y0242051D03*
X0151454Y0242176D03*
X0151454Y0242301D03*
X0151454Y0242549D03*
X0151454Y0242674D03*
X0151454Y0242926D03*
X0151454Y0243051D03*
X0151454Y0243176D03*
X0151454Y0243301D03*
X0151454Y0243549D03*
X0151454Y0243674D03*
X0151454Y0243926D03*
X0151454Y0244051D03*
X0151454Y0244176D03*
X0151454Y0244301D03*
X0151454Y0244426D03*
X0151454Y0244674D03*
X0151454Y0244799D03*
X0151454Y0245051D03*
X0151454Y0245176D03*
X0151454Y0245301D03*
X0151454Y0245426D03*
X0151454Y0245674D03*
X0151454Y0245799D03*
X0151454Y0246051D03*
X0151454Y0246176D03*
X0151454Y0246301D03*
X0151454Y0246426D03*
X0151454Y0246674D03*
X0151454Y0246799D03*
X0151454Y0247051D03*
X0151454Y0247176D03*
X0151454Y0247301D03*
X0151454Y0247426D03*
X0151454Y0247674D03*
X0151454Y0247799D03*
X0151454Y0247924D03*
X0151454Y0248176D03*
X0151454Y0248301D03*
X0151454Y0248426D03*
X0151454Y0248551D03*
X0151334Y0253676D03*
X0151334Y0253924D03*
X0151334Y0254049D03*
X0151334Y0254301D03*
X0151334Y0254426D03*
X0151334Y0254551D03*
X0151334Y0254676D03*
X0151334Y0254801D03*
X0151204Y0255174D03*
X0151204Y0255426D03*
X0151204Y0255551D03*
X0151204Y0255676D03*
X0151204Y0255801D03*
X0151084Y0256049D03*
X0151084Y0256174D03*
X0151084Y0256426D03*
X0150954Y0256676D03*
X0150954Y0256801D03*
X0150954Y0256926D03*
X0150954Y0257174D03*
X0150834Y0257426D03*
X0150834Y0257551D03*
X0150834Y0257676D03*
X0150834Y0257801D03*
X0150704Y0258174D03*
X0150704Y0258299D03*
X0150584Y0258676D03*
X0150584Y0258801D03*
X0150454Y0259174D03*
X0150334Y0259551D03*
X0150334Y0259676D03*
X0149954Y0260801D03*
X0149584Y0261801D03*
X0149334Y0262424D03*
X0140704Y0250176D03*
X0140084Y0246176D03*
X0139954Y0246051D03*
X0138084Y0246176D03*
X0137704Y0245176D03*
X0131454Y0248176D03*
X0117204Y0271674D03*
D56*
X0117394Y0271799D03*
X0120394Y0270674D03*
X0124144Y0271799D03*
X0124144Y0257926D03*
X0119894Y0242926D03*
X0119644Y0240424D03*
X0121394Y0235926D03*
X0116644Y0234801D03*
X0116394Y0233676D03*
X0114894Y0233676D03*
X0114894Y0233801D03*
X0114894Y0233926D03*
X0114894Y0234174D03*
X0114894Y0234299D03*
X0114894Y0234551D03*
X0114894Y0234676D03*
X0114894Y0234801D03*
X0114894Y0234926D03*
X0114894Y0235174D03*
X0114894Y0235299D03*
X0114894Y0235424D03*
X0114894Y0233299D03*
X0114894Y0233174D03*
X0114894Y0232551D03*
X0114894Y0231926D03*
X0116394Y0232174D03*
X0112894Y0233551D03*
X0112894Y0233676D03*
X0112894Y0233801D03*
X0112894Y0233926D03*
X0112894Y0228676D03*
X0112894Y0228551D03*
X0116894Y0223426D03*
X0116894Y0223301D03*
X0116894Y0223176D03*
X0117144Y0221426D03*
X0117144Y0221301D03*
X0117144Y0221176D03*
X0117144Y0221051D03*
X0118894Y0221426D03*
X0121894Y0221426D03*
X0121894Y0221674D03*
X0121894Y0221799D03*
X0121894Y0222051D03*
X0121894Y0222176D03*
X0121894Y0222301D03*
X0121894Y0222426D03*
X0121894Y0222674D03*
X0121894Y0222799D03*
X0121894Y0222924D03*
X0121894Y0223176D03*
X0121894Y0223301D03*
X0121894Y0223426D03*
X0121644Y0217674D03*
X0116644Y0209801D03*
X0116644Y0209676D03*
X0116644Y0209551D03*
X0116394Y0208174D03*
X0116144Y0207174D03*
X0115894Y0206299D03*
X0115894Y0206174D03*
X0115644Y0205426D03*
X0118644Y0205801D03*
X0118394Y0204049D03*
X0118394Y0203924D03*
X0118394Y0203676D03*
X0118394Y0203551D03*
X0118394Y0203426D03*
X0118394Y0203174D03*
X0118144Y0201676D03*
X0118144Y0201551D03*
X0118144Y0201176D03*
X0118144Y0201051D03*
X0117894Y0199551D03*
X0117894Y0199426D03*
X0117894Y0199051D03*
X0117894Y0198926D03*
X0117394Y0197174D03*
X0117394Y0196926D03*
X0117144Y0195426D03*
X0117144Y0195301D03*
X0116894Y0193801D03*
X0116894Y0193549D03*
X0116644Y0191801D03*
X0116644Y0191676D03*
X0116644Y0191424D03*
X0116644Y0191176D03*
X0118894Y0188176D03*
X0118894Y0188051D03*
X0121644Y0188051D03*
X0121644Y0188176D03*
X0121644Y0188551D03*
X0121894Y0190924D03*
X0121894Y0191176D03*
X0121894Y0191424D03*
X0121894Y0191676D03*
X0121894Y0191801D03*
X0121894Y0192176D03*
X0121894Y0192301D03*
X0121894Y0192676D03*
X0121894Y0192801D03*
X0121894Y0193176D03*
X0121894Y0193301D03*
X0121894Y0193549D03*
X0121894Y0193801D03*
X0121894Y0194049D03*
X0121894Y0194301D03*
X0121894Y0194426D03*
X0121394Y0186051D03*
X0113894Y0187799D03*
X0118394Y0172674D03*
X0118394Y0172426D03*
X0118394Y0172174D03*
X0118394Y0171926D03*
X0118394Y0171674D03*
X0115894Y0169426D03*
X0115894Y0169301D03*
X0121644Y0168049D03*
X0121644Y0167801D03*
X0121644Y0167676D03*
X0121894Y0165924D03*
X0121894Y0165676D03*
X0121894Y0165424D03*
X0121894Y0165176D03*
X0121894Y0161426D03*
X0121894Y0161051D03*
X0121894Y0160926D03*
X0112894Y0159926D03*
X0112894Y0159674D03*
X0112894Y0159426D03*
X0112894Y0155049D03*
X0121644Y0138676D03*
X0121644Y0138551D03*
X0121644Y0138426D03*
X0121644Y0138301D03*
X0121644Y0138176D03*
X0121894Y0135801D03*
X0121894Y0135676D03*
X0121894Y0135551D03*
X0121894Y0135426D03*
X0121894Y0135301D03*
X0121644Y0129551D03*
X0121644Y0129426D03*
X0121644Y0129301D03*
X0121644Y0129176D03*
X0121644Y0129051D03*
X0121394Y0126926D03*
X0121394Y0126801D03*
X0097394Y0202051D03*
X0093894Y0205676D03*
X0093894Y0205801D03*
X0093894Y0206049D03*
X0093894Y0206174D03*
X0102894Y0242674D03*
X0105144Y0246301D03*
X0102894Y0247301D03*
X0106394Y0249924D03*
X0103394Y0256049D03*
X0104644Y0258174D03*
X0104644Y0258299D03*
X0104644Y0258551D03*
X0105394Y0260551D03*
X0111894Y0268926D03*
X0140144Y0246301D03*
X0139394Y0245301D03*
X0151394Y0248799D03*
X0151394Y0248924D03*
X0151394Y0249176D03*
X0151394Y0249301D03*
X0151394Y0249426D03*
X0151394Y0249551D03*
X0151394Y0249799D03*
X0151394Y0249924D03*
X0151394Y0250176D03*
X0151394Y0250301D03*
X0151394Y0250426D03*
X0151394Y0250551D03*
X0151394Y0250676D03*
X0151394Y0250924D03*
X0151394Y0251049D03*
X0151394Y0251301D03*
X0151394Y0251426D03*
X0151394Y0251551D03*
X0151394Y0251676D03*
X0151394Y0251924D03*
X0151394Y0252049D03*
X0151394Y0252301D03*
X0151394Y0252426D03*
X0151394Y0252551D03*
X0151394Y0252676D03*
X0151394Y0252924D03*
X0151394Y0253049D03*
X0151394Y0253301D03*
X0151394Y0253426D03*
X0151394Y0253551D03*
X0149394Y0208801D03*
X0147144Y0201551D03*
D57*
X0137519Y0199051D03*
X0120769Y0196301D03*
X0108769Y0212676D03*
X0117769Y0237801D03*
X0117769Y0237926D03*
X0119019Y0240926D03*
X0117019Y0244674D03*
X0108769Y0260676D03*
X0108519Y0261424D03*
X0104269Y0259801D03*
X0113519Y0264801D03*
X0113769Y0265549D03*
X0108519Y0276676D03*
X0109019Y0276924D03*
X0136269Y0276924D03*
X0136769Y0276676D03*
X0119019Y0168301D03*
X0120769Y0150676D03*
X0116019Y0142051D03*
X0115769Y0141551D03*
X0113769Y0126801D03*
D58*
X0116519Y0135551D03*
X0121269Y0141676D03*
X0121269Y0141801D03*
X0121269Y0141926D03*
X0121019Y0144426D03*
X0121019Y0144551D03*
X0121019Y0144676D03*
X0121019Y0144801D03*
X0121019Y0144926D03*
X0118769Y0147801D03*
X0112769Y0156549D03*
X0112769Y0156801D03*
X0112769Y0156926D03*
X0112769Y0157301D03*
X0112769Y0157426D03*
X0112769Y0157801D03*
X0121769Y0166676D03*
X0121769Y0166801D03*
X0121769Y0167176D03*
X0121769Y0167301D03*
X0118269Y0173426D03*
X0118269Y0173551D03*
X0116519Y0173051D03*
X0116519Y0172926D03*
X0121519Y0186926D03*
X0121519Y0187051D03*
X0121769Y0189176D03*
X0121769Y0189551D03*
X0121769Y0189676D03*
X0121769Y0190051D03*
X0121769Y0190176D03*
X0121769Y0190424D03*
X0121769Y0195801D03*
X0121769Y0195926D03*
X0117519Y0197426D03*
X0117269Y0196426D03*
X0117269Y0196301D03*
X0117019Y0194801D03*
X0117019Y0194426D03*
X0116769Y0192801D03*
X0116769Y0192676D03*
X0116769Y0192301D03*
X0118019Y0199926D03*
X0118019Y0200051D03*
X0118019Y0200299D03*
X0118019Y0200551D03*
X0118019Y0200676D03*
X0118269Y0202051D03*
X0118269Y0202176D03*
X0118269Y0202301D03*
X0118269Y0202426D03*
X0118269Y0202551D03*
X0118269Y0202676D03*
X0118519Y0204426D03*
X0118519Y0204551D03*
X0118519Y0204676D03*
X0118519Y0204801D03*
X0118519Y0205049D03*
X0118519Y0205174D03*
X0115769Y0205801D03*
X0116019Y0206551D03*
X0116019Y0206676D03*
X0116269Y0207551D03*
X0116269Y0207676D03*
X0116519Y0208676D03*
X0116519Y0208801D03*
X0116519Y0208926D03*
X0116769Y0210424D03*
X0116769Y0210676D03*
X0116769Y0210801D03*
X0116769Y0210926D03*
X0116769Y0211051D03*
X0116769Y0211299D03*
X0116769Y0211424D03*
X0116769Y0211676D03*
X0118519Y0211051D03*
X0121769Y0219051D03*
X0117269Y0220176D03*
X0117269Y0220301D03*
X0117269Y0220426D03*
X0117269Y0220674D03*
X0117019Y0222051D03*
X0117019Y0222176D03*
X0117019Y0222301D03*
X0117019Y0222426D03*
X0116769Y0224176D03*
X0116769Y0224301D03*
X0116769Y0224426D03*
X0116769Y0224551D03*
X0113019Y0227924D03*
X0112769Y0229551D03*
X0112769Y0229676D03*
X0112769Y0229801D03*
X0112769Y0230049D03*
X0112769Y0232174D03*
X0112769Y0232299D03*
X0112769Y0232551D03*
X0112769Y0232676D03*
X0112769Y0232801D03*
X0112769Y0232926D03*
X0113019Y0234551D03*
X0113019Y0234676D03*
X0116769Y0231551D03*
X0123769Y0257551D03*
X0138019Y0246051D03*
X0139269Y0245176D03*
X0139519Y0245426D03*
X0151019Y0256551D03*
X0147519Y0209926D03*
X0149269Y0208926D03*
X0151519Y0205676D03*
X0104769Y0258676D03*
X0104769Y0258801D03*
X0102019Y0258926D03*
X0101269Y0257426D03*
X0097519Y0209676D03*
X0097269Y0209551D03*
X0098269Y0201676D03*
X0098519Y0201551D03*
X0121519Y0127176D03*
X0121519Y0127051D03*
D59*
X0121519Y0127300D03*
X0121519Y0127550D03*
X0121519Y0127800D03*
X0121519Y0128050D03*
X0121769Y0130425D03*
X0121769Y0130675D03*
X0121769Y0130925D03*
X0121769Y0131175D03*
X0121769Y0131425D03*
X0121769Y0131675D03*
X0121769Y0136675D03*
X0121769Y0136925D03*
X0121769Y0137175D03*
X0121769Y0137425D03*
X0121519Y0139550D03*
X0112769Y0156425D03*
X0112769Y0157050D03*
X0112769Y0157550D03*
X0121769Y0166925D03*
X0121769Y0167425D03*
X0116519Y0173175D03*
X0121519Y0187175D03*
X0121769Y0189300D03*
X0121769Y0189800D03*
X0121769Y0190300D03*
X0121769Y0196050D03*
X0117269Y0196050D03*
X0117019Y0194550D03*
X0116769Y0192925D03*
X0116769Y0192425D03*
X0117519Y0197550D03*
X0118019Y0198675D03*
X0118019Y0200175D03*
X0118269Y0202800D03*
X0118519Y0204925D03*
X0115769Y0205925D03*
X0116769Y0211175D03*
X0117269Y0220550D03*
X0116769Y0224675D03*
X0112769Y0229925D03*
X0112769Y0233050D03*
X0121769Y0225800D03*
X0127019Y0246550D03*
X0118769Y0255925D03*
X0111019Y0255925D03*
X0124019Y0271550D03*
X0147269Y0210050D03*
X0147769Y0201800D03*
D60*
X0121769Y0196175D03*
X0121769Y0195675D03*
X0117269Y0196175D03*
X0117019Y0194675D03*
X0116769Y0193050D03*
X0116769Y0192550D03*
X0118019Y0200425D03*
X0121769Y0189925D03*
X0121769Y0189425D03*
X0118269Y0173300D03*
X0116519Y0172800D03*
X0115769Y0169175D03*
X0121769Y0167550D03*
X0121769Y0167050D03*
X0112769Y0157675D03*
X0112769Y0157175D03*
X0112769Y0156675D03*
X0118519Y0147175D03*
X0121019Y0144300D03*
X0121519Y0139675D03*
X0121519Y0139425D03*
X0121769Y0137550D03*
X0121769Y0137300D03*
X0121769Y0137050D03*
X0121769Y0136800D03*
X0121769Y0136550D03*
X0121769Y0131550D03*
X0121769Y0131300D03*
X0121769Y0131050D03*
X0121769Y0130800D03*
X0121769Y0130550D03*
X0121519Y0128175D03*
X0121519Y0127925D03*
X0121519Y0127675D03*
X0121519Y0127425D03*
X0116769Y0210550D03*
X0116769Y0211550D03*
X0117019Y0221925D03*
X0112769Y0232425D03*
X0113019Y0234425D03*
X0101269Y0257300D03*
X0124269Y0271925D03*
D61*
X0108519Y0261550D03*
X0119019Y0168175D03*
X0116769Y0143550D03*
X0116519Y0143050D03*
X0116269Y0142550D03*
X0114019Y0127425D03*
D62*
X0114019Y0127550D03*
X0116269Y0142675D03*
X0106519Y0243425D03*
X0114269Y0254925D03*
X0128019Y0271550D03*
X0136519Y0276800D03*
X0108769Y0276800D03*
D63*
X0115769Y0229925D03*
X0115769Y0228800D03*
X0115769Y0227800D03*
X0115769Y0226800D03*
X0138269Y0199175D03*
X0119019Y0167925D03*
X0121769Y0147550D03*
X0121769Y0147300D03*
X0121769Y0147050D03*
X0121769Y0146800D03*
X0115769Y0139800D03*
X0114019Y0127800D03*
D64*
X0114019Y0127925D03*
X0121769Y0146925D03*
X0121769Y0147175D03*
X0121769Y0147425D03*
X0121769Y0147675D03*
X0150769Y0208425D03*
X0115769Y0227175D03*
X0115769Y0228175D03*
X0115769Y0229300D03*
X0115769Y0230300D03*
X0114519Y0255300D03*
X0110519Y0256300D03*
X0120269Y0259425D03*
D65*
X0120079Y0270550D03*
X0107959Y0247550D03*
X0105459Y0247550D03*
X0101329Y0257050D03*
X0114829Y0230925D03*
X0116829Y0223675D03*
X0116959Y0222550D03*
X0114329Y0216300D03*
X0114329Y0215300D03*
X0114329Y0214300D03*
X0114209Y0212175D03*
X0114209Y0211175D03*
X0114079Y0208050D03*
X0114079Y0207050D03*
X0117329Y0196550D03*
X0117079Y0195050D03*
X0116829Y0193425D03*
X0116709Y0191925D03*
X0119079Y0187675D03*
X0114079Y0177300D03*
X0116579Y0172550D03*
X0118329Y0173175D03*
X0118209Y0173675D03*
X0114209Y0171050D03*
X0120329Y0160675D03*
X0121829Y0160675D03*
X0121959Y0161675D03*
X0121959Y0162175D03*
X0121959Y0162675D03*
X0121959Y0163300D03*
X0121959Y0163800D03*
X0121959Y0164300D03*
X0121959Y0164800D03*
X0121829Y0166300D03*
X0121579Y0128300D03*
X0097959Y0201800D03*
X0121459Y0236175D03*
X0149079Y0209050D03*
X0149459Y0202800D03*
D66*
X0120894Y0197550D03*
X0120894Y0227800D03*
X0119144Y0162175D03*
X0121644Y0146550D03*
X0114144Y0128300D03*
D67*
X0116644Y0136550D03*
X0121144Y0143050D03*
X0121144Y0143300D03*
X0120894Y0145675D03*
X0120894Y0145925D03*
X0118644Y0147425D03*
X0115144Y0146175D03*
X0121394Y0140675D03*
X0121894Y0136300D03*
X0121894Y0136050D03*
X0121894Y0135175D03*
X0121894Y0134925D03*
X0121894Y0134675D03*
X0121894Y0134425D03*
X0121894Y0134175D03*
X0121894Y0133925D03*
X0121894Y0133675D03*
X0121894Y0133425D03*
X0121894Y0133175D03*
X0121894Y0132925D03*
X0121644Y0129800D03*
X0121644Y0128925D03*
X0121644Y0128675D03*
X0121644Y0128425D03*
X0112894Y0155175D03*
X0112894Y0159800D03*
X0121894Y0160800D03*
X0121894Y0161300D03*
X0121894Y0165050D03*
X0121894Y0165550D03*
X0121644Y0168175D03*
X0118394Y0171800D03*
X0118394Y0172300D03*
X0121644Y0187925D03*
X0121644Y0188425D03*
X0121894Y0191050D03*
X0121894Y0191550D03*
X0121894Y0192050D03*
X0121894Y0192550D03*
X0121894Y0193050D03*
X0121894Y0193675D03*
X0121894Y0194175D03*
X0117144Y0195675D03*
X0117394Y0196800D03*
X0117894Y0199300D03*
X0117894Y0199800D03*
X0118144Y0200925D03*
X0118144Y0201425D03*
X0118394Y0203300D03*
X0116644Y0209425D03*
X0118644Y0210550D03*
X0117144Y0220925D03*
X0116894Y0223050D03*
X0121894Y0223050D03*
X0121894Y0221925D03*
X0114894Y0234425D03*
X0114894Y0235550D03*
X0102894Y0248050D03*
X0104644Y0258425D03*
X0137894Y0245925D03*
X0151394Y0249050D03*
X0151394Y0250050D03*
X0151394Y0251175D03*
X0151394Y0252175D03*
X0151394Y0253175D03*
X0116894Y0193675D03*
X0116644Y0191550D03*
X0116644Y0191050D03*
X0113894Y0187925D03*
X0097644Y0201925D03*
D68*
X0093894Y0205925D03*
X0113894Y0187675D03*
X0116644Y0191300D03*
X0116894Y0193925D03*
X0117144Y0195550D03*
X0117394Y0197050D03*
X0117894Y0199175D03*
X0117894Y0199675D03*
X0118144Y0201300D03*
X0118394Y0203800D03*
X0116144Y0207050D03*
X0116394Y0208050D03*
X0117144Y0221550D03*
X0118894Y0221550D03*
X0121894Y0221550D03*
X0121894Y0222550D03*
X0114894Y0234050D03*
X0114894Y0235050D03*
X0113144Y0235050D03*
X0112894Y0234050D03*
X0109144Y0242425D03*
X0104394Y0251800D03*
X0102144Y0259050D03*
X0121144Y0261175D03*
X0124144Y0258050D03*
X0151394Y0252800D03*
X0151394Y0251800D03*
X0151394Y0250800D03*
X0151394Y0249675D03*
X0151394Y0248675D03*
X0121894Y0194550D03*
X0121894Y0193925D03*
X0121894Y0193425D03*
X0121894Y0192925D03*
X0121894Y0192425D03*
X0121894Y0191925D03*
X0121894Y0191300D03*
X0121644Y0188300D03*
X0118394Y0172550D03*
X0118394Y0172050D03*
X0118394Y0171550D03*
X0115894Y0169550D03*
X0121644Y0167925D03*
X0121894Y0165800D03*
X0121894Y0165300D03*
X0121894Y0161175D03*
X0112894Y0160050D03*
X0112894Y0159550D03*
X0115144Y0146300D03*
X0120894Y0145800D03*
X0120894Y0145550D03*
X0121144Y0143175D03*
X0121394Y0140800D03*
X0121394Y0140550D03*
X0121894Y0136175D03*
X0121894Y0135925D03*
X0121894Y0135050D03*
X0121894Y0134800D03*
X0121894Y0134550D03*
X0121894Y0134300D03*
X0121894Y0134050D03*
X0121894Y0133800D03*
X0121894Y0133550D03*
X0121894Y0133300D03*
X0121894Y0133050D03*
X0121894Y0132800D03*
X0121644Y0129925D03*
X0121644Y0129675D03*
X0121644Y0128800D03*
X0121644Y0128550D03*
D69*
X0114209Y0128550D03*
X0121579Y0146050D03*
X0121579Y0146300D03*
X0120709Y0152050D03*
X0117079Y0155425D03*
X0119079Y0162675D03*
X0120829Y0168925D03*
X0115079Y0168925D03*
X0120579Y0183550D03*
X0114829Y0204925D03*
X0120579Y0213300D03*
X0114459Y0224675D03*
X0105829Y0212175D03*
X0132709Y0244550D03*
X0119209Y0266300D03*
X0120329Y0268425D03*
X0108829Y0263300D03*
X0104579Y0260050D03*
X0105459Y0274675D03*
X0139829Y0212175D03*
X0150959Y0208050D03*
D70*
X0120519Y0183175D03*
X0115019Y0168675D03*
X0119019Y0167050D03*
X0117019Y0155675D03*
X0120519Y0153550D03*
X0120519Y0153050D03*
X0114269Y0128675D03*
X0114519Y0224050D03*
X0119519Y0240675D03*
X0104019Y0255300D03*
D71*
X0114454Y0240300D03*
X0120954Y0228800D03*
X0114584Y0223675D03*
X0120834Y0204925D03*
X0120954Y0199175D03*
X0114584Y0203800D03*
X0104834Y0199675D03*
X0120584Y0183050D03*
X0116204Y0176800D03*
X0118084Y0169550D03*
X0120954Y0169550D03*
X0118954Y0163300D03*
X0121204Y0159550D03*
X0116954Y0153300D03*
X0116834Y0152800D03*
X0116704Y0152300D03*
X0116704Y0152050D03*
X0116334Y0150425D03*
X0114704Y0164800D03*
X0114954Y0168425D03*
X0114454Y0128800D03*
X0140954Y0199675D03*
X0117204Y0259050D03*
X0117834Y0261175D03*
X0117454Y0269550D03*
X0117084Y0270550D03*
X0123584Y0268425D03*
X0104204Y0273675D03*
D72*
X0103269Y0272925D03*
X0108519Y0259425D03*
X0116769Y0268800D03*
X0120019Y0267800D03*
X0142019Y0272925D03*
X0117019Y0234425D03*
X0121019Y0229300D03*
X0114769Y0223050D03*
X0114519Y0203300D03*
X0113269Y0196175D03*
X0113269Y0195675D03*
X0113269Y0195175D03*
X0113269Y0194675D03*
X0113269Y0194175D03*
X0113269Y0193675D03*
X0113269Y0193050D03*
X0113269Y0192550D03*
X0121019Y0199800D03*
X0120769Y0184300D03*
X0114769Y0167550D03*
X0114769Y0165550D03*
X0114769Y0164425D03*
X0114769Y0163925D03*
X0114769Y0163425D03*
X0114769Y0162925D03*
X0119019Y0163425D03*
X0119019Y0166550D03*
X0116269Y0150300D03*
X0116269Y0150050D03*
X0116269Y0149800D03*
X0117769Y0145925D03*
X0114519Y0128925D03*
X0141519Y0199800D03*
D73*
X0142019Y0199926D03*
X0121019Y0199551D03*
X0114519Y0203426D03*
X0114519Y0203551D03*
X0113269Y0196426D03*
X0113269Y0196301D03*
X0113269Y0195926D03*
X0113269Y0195801D03*
X0113269Y0195426D03*
X0113269Y0195301D03*
X0113269Y0194926D03*
X0113269Y0194801D03*
X0113269Y0194426D03*
X0113269Y0194301D03*
X0113269Y0194049D03*
X0113269Y0193801D03*
X0113269Y0193549D03*
X0113269Y0193301D03*
X0113269Y0193176D03*
X0113269Y0192801D03*
X0113269Y0192676D03*
X0113269Y0192301D03*
X0113269Y0192176D03*
X0120769Y0184426D03*
X0119019Y0166676D03*
X0119019Y0166424D03*
X0119019Y0163676D03*
X0119019Y0163551D03*
X0114769Y0163551D03*
X0114769Y0163676D03*
X0114769Y0164051D03*
X0114769Y0164176D03*
X0114769Y0163176D03*
X0114769Y0163051D03*
X0114769Y0162799D03*
X0114769Y0162551D03*
X0114769Y0165424D03*
X0114769Y0165676D03*
X0116519Y0151301D03*
X0116519Y0151176D03*
X0114519Y0129051D03*
X0104019Y0211801D03*
X0114769Y0222799D03*
X0114769Y0222924D03*
X0121019Y0229049D03*
X0121019Y0229174D03*
X0109519Y0242051D03*
X0106769Y0248426D03*
X0106769Y0248551D03*
X0108519Y0259551D03*
X0109019Y0262801D03*
X0109269Y0264424D03*
X0110269Y0265424D03*
X0117019Y0269051D03*
X0120019Y0267926D03*
X0119519Y0266801D03*
X0117519Y0264051D03*
X0117769Y0261051D03*
X0121019Y0257551D03*
X0103019Y0272674D03*
X0102769Y0272426D03*
X0102519Y0272176D03*
X0141019Y0273799D03*
X0141269Y0273551D03*
X0141519Y0273426D03*
X0141769Y0273176D03*
D74*
X0144334Y0270550D03*
X0145204Y0269550D03*
X0146084Y0268425D03*
X0121084Y0234050D03*
X0116704Y0234050D03*
X0118954Y0209050D03*
X0120954Y0202800D03*
X0113454Y0190300D03*
X0116834Y0188300D03*
X0116334Y0175175D03*
X0121084Y0171050D03*
X0118954Y0165300D03*
X0118454Y0160675D03*
X0118334Y0159550D03*
X0121084Y0156425D03*
X0120954Y0154425D03*
X0120834Y0153800D03*
X0117954Y0146300D03*
X0115084Y0147300D03*
X0115084Y0147550D03*
X0114704Y0129675D03*
X0117334Y0260050D03*
X0117584Y0262175D03*
X0110584Y0266300D03*
D75*
X0110769Y0266675D03*
X0120769Y0270925D03*
X0124769Y0269800D03*
X0124769Y0261550D03*
X0146519Y0267800D03*
X0121019Y0201925D03*
X0121019Y0201425D03*
X0114269Y0201925D03*
X0113519Y0189425D03*
X0116769Y0187925D03*
X0116269Y0185800D03*
X0114269Y0185800D03*
X0121019Y0171300D03*
X0118519Y0160800D03*
X0118019Y0146425D03*
X0114769Y0129800D03*
X0101769Y0200425D03*
D76*
X0100579Y0200800D03*
X0098209Y0210050D03*
X0094079Y0209050D03*
X0114209Y0201800D03*
X0113829Y0200175D03*
X0113709Y0199675D03*
X0113709Y0199175D03*
X0119959Y0196050D03*
X0119829Y0195550D03*
X0119709Y0195050D03*
X0116709Y0187675D03*
X0116459Y0186675D03*
X0116329Y0186175D03*
X0114209Y0186175D03*
X0114079Y0186675D03*
X0113579Y0188800D03*
X0120829Y0180925D03*
X0120959Y0179425D03*
X0121079Y0178300D03*
X0121079Y0177800D03*
X0121079Y0174675D03*
X0121079Y0174175D03*
X0121079Y0171550D03*
X0116459Y0174175D03*
X0115079Y0147050D03*
X0115079Y0146800D03*
X0118079Y0146550D03*
X0114829Y0129925D03*
X0151329Y0210050D03*
X0151329Y0211175D03*
X0151329Y0212175D03*
X0121079Y0230925D03*
X0121209Y0235050D03*
X0124579Y0269550D03*
X0147459Y0266300D03*
X0147959Y0265300D03*
X0097329Y0265300D03*
X0096829Y0264300D03*
X0093959Y0252800D03*
X0093959Y0251800D03*
D77*
X0094334Y0256300D03*
X0101704Y0258425D03*
X0105334Y0260425D03*
X0117454Y0271925D03*
X0113334Y0235550D03*
X0112834Y0233425D03*
X0112704Y0231300D03*
X0112704Y0230300D03*
X0112834Y0229300D03*
X0112954Y0228175D03*
X0113204Y0227175D03*
X0116704Y0231300D03*
X0119834Y0226175D03*
X0121704Y0226175D03*
X0121834Y0225050D03*
X0121834Y0224050D03*
X0121834Y0220925D03*
X0121834Y0219925D03*
X0121704Y0218800D03*
X0121704Y0217800D03*
X0121584Y0216800D03*
X0121454Y0215675D03*
X0118334Y0211550D03*
X0120954Y0209425D03*
X0118584Y0205300D03*
X0118454Y0204300D03*
X0118204Y0201925D03*
X0117954Y0198800D03*
X0121834Y0195175D03*
X0121834Y0194675D03*
X0119084Y0193050D03*
X0118954Y0192550D03*
X0118834Y0188425D03*
X0121334Y0185800D03*
X0121334Y0185300D03*
X0121204Y0184800D03*
X0121454Y0186300D03*
X0121454Y0186800D03*
X0121584Y0187425D03*
X0121704Y0188925D03*
X0121834Y0190550D03*
X0120834Y0180550D03*
X0116454Y0173300D03*
X0121084Y0172800D03*
X0112834Y0159300D03*
X0112834Y0158800D03*
X0112834Y0158175D03*
X0112834Y0156175D03*
X0112834Y0155675D03*
X0112954Y0154550D03*
X0113084Y0154050D03*
X0113084Y0153550D03*
X0113204Y0153050D03*
X0113334Y0152550D03*
X0113454Y0152175D03*
X0113954Y0150300D03*
X0114204Y0149550D03*
X0115084Y0146425D03*
X0118334Y0146925D03*
X0118704Y0147675D03*
X0119204Y0148800D03*
X0121084Y0144050D03*
X0121084Y0143800D03*
X0121084Y0143550D03*
X0121204Y0142800D03*
X0121204Y0142550D03*
X0121334Y0141425D03*
X0121334Y0141175D03*
X0121334Y0140925D03*
X0121454Y0140425D03*
X0121454Y0140175D03*
X0121454Y0139925D03*
X0121584Y0139175D03*
X0121704Y0138050D03*
X0121704Y0137800D03*
X0121834Y0131800D03*
X0121704Y0130300D03*
X0121704Y0130050D03*
X0115584Y0131550D03*
X0115584Y0131800D03*
X0115454Y0131300D03*
X0115334Y0130800D03*
X0115204Y0130550D03*
X0115954Y0132925D03*
X0116084Y0133425D03*
X0116204Y0133925D03*
X0116204Y0134175D03*
X0116334Y0134425D03*
X0116334Y0134675D03*
X0116454Y0134925D03*
X0116454Y0135175D03*
X0116584Y0136050D03*
X0116584Y0136300D03*
X0116704Y0136800D03*
X0116704Y0137050D03*
X0116704Y0137300D03*
X0116704Y0137550D03*
X0116704Y0137800D03*
X0116704Y0138050D03*
X0116704Y0139175D03*
X0113954Y0187425D03*
X0115954Y0206425D03*
X0116204Y0207425D03*
X0116454Y0208425D03*
X0118834Y0220925D03*
X0118954Y0221925D03*
X0119084Y0223050D03*
X0099704Y0210550D03*
X0093954Y0211550D03*
X0093954Y0212550D03*
X0093954Y0213675D03*
X0093954Y0214675D03*
X0093954Y0215675D03*
X0093954Y0216800D03*
X0093954Y0217800D03*
X0093954Y0218800D03*
X0093954Y0206425D03*
X0098834Y0201425D03*
X0146834Y0201425D03*
X0151454Y0226175D03*
X0151454Y0227175D03*
X0151454Y0228175D03*
X0151454Y0229300D03*
X0151454Y0230300D03*
X0151454Y0231300D03*
X0151454Y0232425D03*
X0151454Y0233425D03*
X0151454Y0234425D03*
X0151454Y0235550D03*
X0151454Y0236550D03*
X0151454Y0237550D03*
X0151454Y0238675D03*
X0151454Y0239675D03*
X0151454Y0240675D03*
X0151454Y0241800D03*
X0151454Y0242800D03*
X0151454Y0243800D03*
X0151454Y0244925D03*
X0151454Y0245925D03*
X0151454Y0246925D03*
X0151454Y0248050D03*
X0151334Y0254175D03*
X0151204Y0255300D03*
X0151084Y0256300D03*
X0150084Y0260425D03*
D78*
X0149269Y0262550D03*
X0139769Y0245925D03*
X0124269Y0258425D03*
X0121269Y0235550D03*
X0119519Y0225050D03*
X0119269Y0224050D03*
X0121269Y0214675D03*
X0114019Y0200925D03*
X0119269Y0193675D03*
X0118769Y0192050D03*
X0114019Y0186800D03*
X0094019Y0210550D03*
X0094019Y0253175D03*
X0094019Y0254175D03*
X0094519Y0257300D03*
X0094769Y0258425D03*
X0095019Y0259425D03*
X0095769Y0261550D03*
X0096519Y0263550D03*
X0146019Y0210550D03*
X0145519Y0200925D03*
X0114019Y0150050D03*
X0114269Y0149300D03*
X0116019Y0133175D03*
X0115019Y0130050D03*
D79*
X0115084Y0130175D03*
X0115204Y0130425D03*
X0115334Y0130925D03*
X0115454Y0131175D03*
X0115584Y0131675D03*
X0115954Y0132800D03*
X0115954Y0133050D03*
X0116084Y0133300D03*
X0116084Y0133550D03*
X0116204Y0133800D03*
X0116204Y0134050D03*
X0116334Y0134300D03*
X0116334Y0134550D03*
X0116334Y0134800D03*
X0116454Y0135050D03*
X0116584Y0135925D03*
X0116584Y0136175D03*
X0116584Y0136425D03*
X0116704Y0136675D03*
X0116704Y0136925D03*
X0116704Y0137175D03*
X0116704Y0137425D03*
X0116704Y0137675D03*
X0116704Y0137925D03*
X0116704Y0139050D03*
X0116704Y0139300D03*
X0121334Y0141050D03*
X0121334Y0141300D03*
X0121454Y0140300D03*
X0121454Y0140050D03*
X0121454Y0139800D03*
X0121584Y0139300D03*
X0121584Y0139050D03*
X0121704Y0137925D03*
X0121704Y0137675D03*
X0121834Y0136425D03*
X0121204Y0142425D03*
X0121204Y0142675D03*
X0121204Y0142925D03*
X0121084Y0143425D03*
X0121084Y0143675D03*
X0121084Y0143925D03*
X0121084Y0144175D03*
X0118454Y0147050D03*
X0118584Y0147300D03*
X0118704Y0147550D03*
X0115084Y0146550D03*
X0114454Y0148675D03*
X0114334Y0149175D03*
X0114084Y0149925D03*
X0113954Y0150425D03*
X0113454Y0152050D03*
X0113454Y0152300D03*
X0113334Y0152800D03*
X0113204Y0153300D03*
X0113084Y0153800D03*
X0112954Y0154425D03*
X0112954Y0154925D03*
X0112834Y0155425D03*
X0112834Y0155925D03*
X0112834Y0158050D03*
X0112834Y0158550D03*
X0112834Y0159050D03*
X0116584Y0172050D03*
X0116454Y0173675D03*
X0121084Y0172550D03*
X0121584Y0168425D03*
X0120834Y0180425D03*
X0121204Y0184550D03*
X0121334Y0185675D03*
X0121454Y0186175D03*
X0121454Y0186675D03*
X0121584Y0187675D03*
X0121704Y0188800D03*
X0121834Y0190800D03*
X0118834Y0192425D03*
X0119084Y0192925D03*
X0119204Y0193425D03*
X0118834Y0188300D03*
X0113954Y0187175D03*
X0113704Y0188300D03*
X0121834Y0195050D03*
X0121834Y0195550D03*
X0118084Y0200800D03*
X0118204Y0201800D03*
X0116584Y0209050D03*
X0116704Y0210050D03*
X0118454Y0211175D03*
X0120954Y0210050D03*
X0121084Y0209050D03*
X0121454Y0216300D03*
X0121584Y0217425D03*
X0121704Y0218425D03*
X0121834Y0219550D03*
X0121834Y0220550D03*
X0121834Y0223675D03*
X0121834Y0224675D03*
X0121704Y0226800D03*
X0119954Y0226800D03*
X0119704Y0225800D03*
X0119454Y0224675D03*
X0119204Y0223675D03*
X0118834Y0220550D03*
X0113334Y0226800D03*
X0113084Y0227800D03*
X0112834Y0228800D03*
X0112704Y0230925D03*
X0112704Y0232050D03*
X0114834Y0236175D03*
X0107334Y0255925D03*
X0103454Y0255925D03*
X0094454Y0257050D03*
X0093954Y0218425D03*
X0093954Y0217425D03*
X0093954Y0216300D03*
X0093954Y0215300D03*
X0093954Y0214300D03*
X0093954Y0213300D03*
X0093954Y0212175D03*
X0093954Y0211175D03*
X0099084Y0201300D03*
X0139584Y0245550D03*
X0151084Y0255925D03*
X0150954Y0257050D03*
X0150704Y0258050D03*
X0150204Y0260050D03*
X0149834Y0261175D03*
X0151334Y0253800D03*
X0151454Y0247550D03*
X0151454Y0246550D03*
X0151454Y0245550D03*
X0151454Y0244550D03*
X0151454Y0243425D03*
X0151454Y0242425D03*
X0151454Y0241300D03*
X0151454Y0240300D03*
X0151454Y0239300D03*
X0151454Y0238300D03*
X0151454Y0237175D03*
X0151454Y0236175D03*
X0151454Y0235050D03*
X0151454Y0234050D03*
X0151454Y0233050D03*
X0151454Y0232050D03*
X0151454Y0230925D03*
X0151454Y0229925D03*
X0151454Y0228800D03*
X0151454Y0227800D03*
X0151454Y0226800D03*
X0151454Y0205925D03*
X0146584Y0201300D03*
X0121704Y0130175D03*
D80*
X0115394Y0131050D03*
X0115144Y0130300D03*
X0116144Y0133675D03*
X0115144Y0146675D03*
X0114394Y0148800D03*
X0114394Y0149050D03*
X0114144Y0149800D03*
X0113894Y0150550D03*
X0118144Y0146675D03*
X0116644Y0171800D03*
X0121144Y0171800D03*
X0121144Y0172300D03*
X0121144Y0173300D03*
X0121144Y0173800D03*
X0120894Y0179550D03*
X0120894Y0180050D03*
X0116644Y0187425D03*
X0113644Y0188425D03*
X0119394Y0194175D03*
X0113894Y0198800D03*
X0113894Y0200425D03*
X0114144Y0201425D03*
X0120894Y0210550D03*
X0121144Y0231300D03*
X0121144Y0232425D03*
X0107894Y0244925D03*
X0104894Y0245925D03*
X0107394Y0256300D03*
X0111894Y0268800D03*
X0123644Y0272925D03*
X0148894Y0263550D03*
X0149644Y0261550D03*
X0150394Y0259425D03*
X0150644Y0258425D03*
X0150894Y0257300D03*
X0151394Y0225050D03*
X0151394Y0224050D03*
X0151394Y0223050D03*
X0151394Y0221925D03*
X0151394Y0220925D03*
X0151394Y0219925D03*
X0151394Y0218800D03*
X0151394Y0217800D03*
X0151394Y0216800D03*
X0151394Y0215675D03*
X0151394Y0214675D03*
X0151394Y0213675D03*
X0100144Y0200925D03*
X0093894Y0219925D03*
X0093894Y0220925D03*
X0093894Y0221925D03*
X0093894Y0223050D03*
X0093894Y0224050D03*
X0093894Y0225050D03*
X0093894Y0226175D03*
X0093894Y0227175D03*
X0093894Y0228175D03*
X0093894Y0229300D03*
X0093894Y0230300D03*
X0093894Y0231300D03*
X0093894Y0232425D03*
X0093894Y0233425D03*
X0093894Y0234425D03*
X0093894Y0235550D03*
X0093894Y0236550D03*
X0093894Y0237550D03*
X0093894Y0238675D03*
X0093894Y0239675D03*
X0093894Y0240675D03*
X0093894Y0241800D03*
X0093894Y0242800D03*
X0093894Y0243800D03*
X0093894Y0244925D03*
X0093894Y0245925D03*
X0093894Y0246925D03*
X0093894Y0248050D03*
X0093894Y0249050D03*
X0093894Y0250050D03*
X0093894Y0251175D03*
X0094144Y0255300D03*
X0095394Y0260425D03*
X0096144Y0262550D03*
D81*
X0096019Y0262175D03*
X0095269Y0260050D03*
X0094269Y0255925D03*
X0094019Y0253800D03*
X0101519Y0258050D03*
X0115019Y0232050D03*
X0116519Y0230925D03*
X0119019Y0222550D03*
X0121269Y0214300D03*
X0118769Y0210050D03*
X0114019Y0200800D03*
X0119519Y0194550D03*
X0118769Y0191925D03*
X0116519Y0187175D03*
X0121269Y0185050D03*
X0121019Y0178800D03*
X0114019Y0150175D03*
X0118269Y0146800D03*
X0115519Y0131425D03*
X0115269Y0130675D03*
X0094019Y0210050D03*
X0120269Y0262175D03*
X0148519Y0264300D03*
X0150519Y0259050D03*
X0151269Y0254925D03*
D82*
X0151269Y0255049D03*
X0150769Y0257926D03*
X0150519Y0258926D03*
X0150269Y0259801D03*
X0150269Y0259926D03*
X0150019Y0260551D03*
X0150019Y0260676D03*
X0149769Y0261299D03*
X0149769Y0261424D03*
X0149519Y0261926D03*
X0149519Y0262051D03*
X0149269Y0262676D03*
X0149019Y0263051D03*
X0149019Y0263176D03*
X0148769Y0263676D03*
X0148769Y0263801D03*
X0148519Y0264176D03*
X0148269Y0264801D03*
X0127019Y0246674D03*
X0123019Y0239549D03*
X0121269Y0235424D03*
X0116519Y0233801D03*
X0116519Y0230801D03*
X0113269Y0226924D03*
X0119019Y0222674D03*
X0119269Y0223924D03*
X0119769Y0226049D03*
X0121519Y0216424D03*
X0121269Y0214549D03*
X0121269Y0214424D03*
X0118769Y0209926D03*
X0121019Y0209174D03*
X0114019Y0201051D03*
X0113769Y0200051D03*
X0113769Y0198926D03*
X0118769Y0192176D03*
X0119269Y0193549D03*
X0119519Y0194301D03*
X0119519Y0194426D03*
X0119769Y0195301D03*
X0116519Y0187051D03*
X0116519Y0186926D03*
X0114019Y0186926D03*
X0114019Y0187051D03*
X0113769Y0188051D03*
X0121269Y0185174D03*
X0121269Y0184926D03*
X0121019Y0178676D03*
X0114769Y0159426D03*
X0113269Y0152924D03*
X0113769Y0150926D03*
X0114519Y0148426D03*
X0115769Y0132301D03*
X0099769Y0201051D03*
X0094019Y0206551D03*
X0094019Y0206676D03*
X0094019Y0206801D03*
X0094019Y0210174D03*
X0094019Y0210299D03*
X0094019Y0210424D03*
X0094019Y0210676D03*
X0094019Y0210801D03*
X0094019Y0210926D03*
X0094019Y0211051D03*
X0098019Y0209926D03*
X0105769Y0242301D03*
X0109269Y0242301D03*
X0107019Y0255426D03*
X0103519Y0255801D03*
X0101769Y0258551D03*
X0096019Y0262299D03*
X0096269Y0262801D03*
X0096269Y0262926D03*
X0096519Y0263424D03*
X0096769Y0264051D03*
X0095769Y0261676D03*
X0095519Y0260926D03*
X0095519Y0260801D03*
X0095269Y0260299D03*
X0095269Y0260174D03*
X0095019Y0259551D03*
X0095019Y0259299D03*
X0094769Y0258676D03*
X0094769Y0258551D03*
X0094769Y0258299D03*
X0094519Y0257426D03*
X0094519Y0257174D03*
X0094269Y0256174D03*
X0094269Y0256049D03*
X0094269Y0255801D03*
X0094269Y0255676D03*
X0094019Y0254049D03*
X0094019Y0253924D03*
X0094019Y0253676D03*
X0094019Y0253551D03*
X0094019Y0253426D03*
X0094019Y0253301D03*
X0117519Y0272051D03*
X0120769Y0264051D03*
X0121019Y0260926D03*
X0124269Y0258299D03*
D83*
X0100084Y0255300D03*
X0100584Y0252175D03*
X0118084Y0176925D03*
X0118204Y0176425D03*
X0118334Y0175925D03*
X0118334Y0175425D03*
X0118454Y0174925D03*
X0113704Y0137050D03*
D84*
X0113709Y0137175D03*
X0115579Y0145800D03*
X0115579Y0146050D03*
X0115959Y0148675D03*
X0114959Y0155925D03*
X0112959Y0161675D03*
X0118459Y0174175D03*
X0119959Y0184550D03*
X0119829Y0185050D03*
X0151579Y0204925D03*
X0138579Y0244550D03*
X0105709Y0261175D03*
X0102329Y0248675D03*
D85*
X0101894Y0249050D03*
X0105144Y0252175D03*
X0121644Y0236550D03*
X0151144Y0204300D03*
X0119894Y0184800D03*
X0112894Y0161300D03*
X0114894Y0157675D03*
X0114894Y0157175D03*
X0114894Y0156675D03*
X0114894Y0156175D03*
X0113894Y0137550D03*
D86*
X0114394Y0138551D03*
X0122644Y0144926D03*
X0122644Y0145051D03*
X0122644Y0145176D03*
X0112894Y0160426D03*
X0112894Y0160551D03*
X0112894Y0160926D03*
X0114144Y0171426D03*
X0114144Y0171674D03*
X0114144Y0171926D03*
X0114144Y0172174D03*
X0114144Y0172426D03*
X0114144Y0172674D03*
X0114144Y0172926D03*
X0114144Y0173051D03*
X0114144Y0173426D03*
X0114144Y0173551D03*
X0114144Y0173926D03*
X0114144Y0174051D03*
X0114144Y0174299D03*
X0114144Y0174551D03*
X0119144Y0187299D03*
X0114144Y0208926D03*
X0114144Y0209174D03*
X0114144Y0209299D03*
X0114144Y0209551D03*
X0114144Y0209676D03*
X0114144Y0209801D03*
X0114144Y0209926D03*
X0114144Y0210174D03*
X0114144Y0210299D03*
X0114394Y0216424D03*
X0114394Y0216549D03*
X0114394Y0216674D03*
X0114394Y0216926D03*
X0114394Y0217051D03*
X0114394Y0217176D03*
X0114394Y0217301D03*
X0116394Y0232299D03*
X0108144Y0247426D03*
X0102894Y0247051D03*
X0102894Y0248176D03*
X0100894Y0250301D03*
X0100644Y0250924D03*
X0104144Y0251551D03*
X0099894Y0254551D03*
X0104644Y0257926D03*
X0111894Y0269051D03*
X0103894Y0244301D03*
X0096894Y0209299D03*
X0096644Y0209174D03*
X0095894Y0208676D03*
X0095144Y0203426D03*
X0095644Y0203049D03*
X0095894Y0202924D03*
X0096644Y0202426D03*
D87*
X0114144Y0209050D03*
X0114144Y0210050D03*
X0114394Y0217425D03*
X0100644Y0250800D03*
X0104644Y0258050D03*
X0140394Y0246550D03*
X0114144Y0174675D03*
X0114144Y0174175D03*
X0114144Y0173675D03*
X0114144Y0173175D03*
X0114144Y0172550D03*
X0114144Y0172050D03*
X0114144Y0171550D03*
X0112894Y0160675D03*
X0122894Y0144175D03*
X0114644Y0139050D03*
D88*
X0114644Y0139175D03*
X0122894Y0144300D03*
X0112894Y0160300D03*
X0112894Y0160800D03*
X0114144Y0171300D03*
X0114144Y0171800D03*
X0114144Y0172300D03*
X0114144Y0172800D03*
X0114144Y0173300D03*
X0114144Y0173800D03*
X0114144Y0174425D03*
X0119144Y0187425D03*
X0114144Y0209425D03*
X0114394Y0216800D03*
X0102644Y0242800D03*
X0095644Y0208425D03*
X0150144Y0203300D03*
D89*
X0114019Y0205925D03*
X0096019Y0202800D03*
X0114019Y0176800D03*
X0114019Y0176300D03*
X0114019Y0175800D03*
X0114269Y0170550D03*
X0114269Y0170050D03*
X0114269Y0169550D03*
X0114769Y0159050D03*
X0122519Y0145800D03*
X0122519Y0145550D03*
X0114769Y0139300D03*
D90*
X0115894Y0139550D03*
X0119144Y0161675D03*
X0120894Y0197050D03*
X0107394Y0199175D03*
X0117644Y0237175D03*
X0117144Y0244550D03*
X0127144Y0242425D03*
D91*
X0120894Y0227175D03*
X0105144Y0243800D03*
X0117894Y0264675D03*
X0120644Y0268800D03*
X0119144Y0161925D03*
X0115894Y0139675D03*
D92*
X0115644Y0140175D03*
X0115644Y0141175D03*
X0116394Y0142800D03*
X0116644Y0143300D03*
X0118144Y0156675D03*
X0112894Y0261550D03*
D93*
X0112894Y0262175D03*
X0111644Y0258050D03*
X0121394Y0263300D03*
X0120394Y0155925D03*
X0116394Y0142925D03*
X0116144Y0142425D03*
X0115644Y0141300D03*
X0115644Y0141050D03*
X0115644Y0140300D03*
D94*
X0115584Y0140425D03*
X0115584Y0140675D03*
X0115584Y0140925D03*
X0116834Y0143800D03*
X0120834Y0150550D03*
X0117454Y0171300D03*
X0117704Y0190550D03*
X0112834Y0262550D03*
X0113834Y0265675D03*
X0109454Y0277175D03*
X0135834Y0277175D03*
D95*
X0123584Y0272550D03*
X0113704Y0265300D03*
X0109584Y0265300D03*
X0121334Y0255925D03*
X0121204Y0254925D03*
X0124334Y0248675D03*
X0117704Y0190800D03*
X0117704Y0190300D03*
X0118954Y0168425D03*
X0118084Y0156425D03*
X0120834Y0150425D03*
X0116834Y0143675D03*
X0116704Y0143425D03*
X0116584Y0143175D03*
X0115584Y0140800D03*
X0115584Y0140550D03*
D96*
X0114769Y0146050D03*
X0119519Y0154425D03*
X0113019Y0162175D03*
X0118019Y0177300D03*
X0123019Y0143425D03*
X0105269Y0242425D03*
X0108019Y0244550D03*
X0103019Y0246550D03*
D97*
X0117644Y0189800D03*
X0117644Y0189300D03*
X0117394Y0171050D03*
X0116894Y0143925D03*
D98*
X0116894Y0144050D03*
X0117394Y0170675D03*
X0117644Y0189425D03*
X0117644Y0189925D03*
D99*
X0117709Y0188800D03*
X0117329Y0170550D03*
X0120829Y0150175D03*
X0116959Y0144175D03*
X0134459Y0277800D03*
D100*
X0128459Y0261550D03*
X0133209Y0248050D03*
X0111709Y0258425D03*
X0107829Y0240675D03*
X0117709Y0188925D03*
X0117329Y0170175D03*
X0120829Y0150050D03*
X0116959Y0144300D03*
D101*
X0116894Y0144426D03*
X0116894Y0144551D03*
X0116894Y0144676D03*
X0119894Y0208551D03*
X0119894Y0208676D03*
X0124394Y0248426D03*
X0121144Y0254301D03*
X0112644Y0260174D03*
X0111644Y0258551D03*
X0128144Y0271426D03*
X0132894Y0269301D03*
X0134144Y0277924D03*
D102*
X0124079Y0271674D03*
X0124459Y0261299D03*
X0124079Y0257801D03*
X0123959Y0257676D03*
X0121209Y0261299D03*
X0119959Y0261926D03*
X0116829Y0244301D03*
X0116709Y0236801D03*
X0118329Y0236676D03*
X0116459Y0232551D03*
X0116709Y0231676D03*
X0114829Y0231676D03*
X0114829Y0231801D03*
X0114829Y0231551D03*
X0114829Y0231426D03*
X0114829Y0231174D03*
X0114829Y0231049D03*
X0114829Y0230801D03*
X0114829Y0230676D03*
X0114829Y0232174D03*
X0114829Y0232299D03*
X0114959Y0236299D03*
X0107959Y0244799D03*
X0104959Y0245799D03*
X0102959Y0247176D03*
X0104329Y0251676D03*
X0105579Y0252426D03*
X0101329Y0257174D03*
X0099959Y0254426D03*
X0099959Y0254301D03*
X0104829Y0258926D03*
X0121459Y0236051D03*
X0116709Y0225301D03*
X0116709Y0225176D03*
X0116709Y0224924D03*
X0116709Y0224799D03*
X0116829Y0223924D03*
X0116829Y0223799D03*
X0116829Y0223551D03*
X0116959Y0222924D03*
X0116959Y0222799D03*
X0116959Y0222674D03*
X0117079Y0221799D03*
X0117079Y0221674D03*
X0114459Y0217674D03*
X0114459Y0217549D03*
X0114329Y0216176D03*
X0114329Y0216051D03*
X0114329Y0215926D03*
X0114329Y0215801D03*
X0114329Y0215549D03*
X0114329Y0215424D03*
X0114329Y0215176D03*
X0114329Y0215051D03*
X0114329Y0214926D03*
X0114329Y0214801D03*
X0114329Y0214549D03*
X0114329Y0214424D03*
X0114329Y0214176D03*
X0114329Y0214051D03*
X0114209Y0212424D03*
X0114209Y0212299D03*
X0114209Y0212051D03*
X0114209Y0211926D03*
X0114209Y0211801D03*
X0114209Y0211676D03*
X0114209Y0211424D03*
X0114209Y0211299D03*
X0114209Y0211051D03*
X0114209Y0210926D03*
X0114209Y0210801D03*
X0114209Y0210676D03*
X0114209Y0210424D03*
X0114079Y0208801D03*
X0114079Y0208676D03*
X0114079Y0208551D03*
X0114079Y0208299D03*
X0114079Y0208174D03*
X0114079Y0207926D03*
X0114079Y0207801D03*
X0114079Y0207676D03*
X0114079Y0207551D03*
X0114079Y0207299D03*
X0114079Y0207174D03*
X0114079Y0206926D03*
X0117579Y0197674D03*
X0117329Y0196674D03*
X0117209Y0195926D03*
X0117209Y0195801D03*
X0117079Y0194926D03*
X0116959Y0194301D03*
X0116959Y0194049D03*
X0116829Y0193301D03*
X0116829Y0193176D03*
X0116709Y0192176D03*
X0118959Y0187799D03*
X0119079Y0187551D03*
X0114079Y0177176D03*
X0114079Y0177051D03*
X0116579Y0172674D03*
X0116579Y0172426D03*
X0118329Y0172926D03*
X0118329Y0173051D03*
X0118209Y0173926D03*
X0114209Y0171174D03*
X0114209Y0170926D03*
X0114209Y0170801D03*
X0114329Y0169426D03*
X0114329Y0169301D03*
X0112829Y0160174D03*
X0120209Y0160926D03*
X0120209Y0161051D03*
X0121959Y0161551D03*
X0121959Y0161799D03*
X0121959Y0162051D03*
X0121959Y0162299D03*
X0121959Y0162551D03*
X0121959Y0162799D03*
X0121959Y0163051D03*
X0121959Y0163176D03*
X0121959Y0163551D03*
X0121959Y0163676D03*
X0121959Y0164051D03*
X0121959Y0164176D03*
X0121959Y0164551D03*
X0121959Y0164676D03*
X0121959Y0164924D03*
X0121829Y0166176D03*
X0121829Y0166424D03*
X0119329Y0156301D03*
X0122579Y0145301D03*
X0122709Y0144801D03*
X0147459Y0201676D03*
X0148959Y0202426D03*
X0149079Y0202551D03*
X0149329Y0202676D03*
X0149579Y0202924D03*
X0149829Y0203049D03*
X0149959Y0203174D03*
X0151459Y0205426D03*
X0151459Y0205551D03*
X0148959Y0209174D03*
X0148709Y0209299D03*
X0148329Y0209551D03*
X0148079Y0209676D03*
X0147829Y0209801D03*
X0139209Y0245051D03*
X0137829Y0245799D03*
X0140329Y0246426D03*
X0140959Y0247924D03*
X0136459Y0248799D03*
X0134329Y0243926D03*
X0130709Y0246674D03*
X0097079Y0202176D03*
X0096829Y0202301D03*
X0096459Y0202551D03*
X0096209Y0202676D03*
X0093829Y0205426D03*
X0093829Y0205551D03*
D103*
X0115334Y0185426D03*
X0115334Y0185174D03*
X0115334Y0184926D03*
X0115334Y0184674D03*
X0115334Y0184426D03*
X0115334Y0184174D03*
X0115334Y0183926D03*
X0115334Y0183801D03*
X0115454Y0177676D03*
X0115454Y0177551D03*
X0119954Y0207551D03*
X0119954Y0207676D03*
X0119954Y0207801D03*
X0119954Y0207926D03*
X0119954Y0208174D03*
X0119954Y0208299D03*
X0135084Y0212926D03*
X0125204Y0240926D03*
X0124454Y0248301D03*
X0121084Y0253924D03*
X0121084Y0254049D03*
X0127954Y0260926D03*
X0128084Y0261051D03*
X0133704Y0244301D03*
X0117834Y0241926D03*
X0111954Y0245301D03*
X0111704Y0258676D03*
X0111834Y0258926D03*
X0112084Y0259299D03*
X0112334Y0259676D03*
X0112454Y0259801D03*
X0114084Y0266549D03*
X0114204Y0266801D03*
X0114584Y0267301D03*
X0115084Y0267926D03*
X0115204Y0268051D03*
X0115334Y0268176D03*
X0115454Y0268301D03*
X0111454Y0278049D03*
X0111084Y0277924D03*
X0116834Y0145051D03*
X0116834Y0144926D03*
X0116834Y0144801D03*
D104*
X0114829Y0145176D03*
X0114829Y0145301D03*
X0114829Y0145426D03*
X0115579Y0153924D03*
X0113079Y0163051D03*
X0122959Y0242926D03*
X0116959Y0244176D03*
X0106709Y0250176D03*
X0104329Y0251301D03*
X0102829Y0254801D03*
X0101459Y0255551D03*
X0100209Y0255551D03*
X0100209Y0255676D03*
X0099459Y0254049D03*
X0100579Y0252426D03*
X0104959Y0257174D03*
X0105959Y0262299D03*
X0107959Y0265549D03*
X0113079Y0270799D03*
X0115459Y0259299D03*
X0115459Y0259174D03*
X0122329Y0262299D03*
X0122459Y0262676D03*
X0129209Y0247674D03*
X0138079Y0245674D03*
X0138209Y0245426D03*
X0102959Y0246176D03*
D105*
X0108519Y0261051D03*
X0108519Y0261299D03*
X0112769Y0262926D03*
X0112769Y0263051D03*
X0112769Y0263176D03*
X0112769Y0263424D03*
X0110019Y0277426D03*
X0128269Y0261299D03*
X0135269Y0277426D03*
X0135019Y0277551D03*
X0117019Y0145426D03*
D106*
X0117019Y0145550D03*
X0120769Y0149925D03*
X0117269Y0170050D03*
X0115269Y0185675D03*
X0113519Y0244550D03*
X0112519Y0260050D03*
X0114019Y0266300D03*
X0110769Y0277800D03*
D107*
X0115459Y0259050D03*
X0114709Y0145800D03*
X0114709Y0145550D03*
D108*
X0122519Y0145675D03*
X0114269Y0169675D03*
X0114269Y0170175D03*
X0114019Y0175425D03*
X0114019Y0175925D03*
X0114019Y0176425D03*
X0114019Y0206425D03*
X0114269Y0213675D03*
X0095269Y0203300D03*
X0101019Y0250050D03*
X0139019Y0244925D03*
X0140769Y0250050D03*
X0151519Y0205300D03*
D109*
X0135769Y0198800D03*
X0118019Y0241800D03*
X0112769Y0244925D03*
X0120769Y0149800D03*
X0117019Y0145675D03*
D110*
X0114709Y0145675D03*
X0115579Y0154050D03*
D111*
X0120644Y0152300D03*
X0117644Y0145800D03*
X0121144Y0160050D03*
X0116144Y0177300D03*
X0108894Y0260050D03*
X0139894Y0274675D03*
D112*
X0121459Y0261550D03*
X0119459Y0261550D03*
X0110829Y0255300D03*
X0109209Y0243800D03*
X0116459Y0236550D03*
X0119959Y0242800D03*
X0129579Y0248050D03*
X0134329Y0243800D03*
X0140709Y0246925D03*
X0112209Y0269800D03*
X0099709Y0254175D03*
X0119459Y0186300D03*
X0119579Y0185800D03*
X0112959Y0161925D03*
X0115959Y0148800D03*
X0115579Y0145925D03*
D113*
X0114769Y0145925D03*
X0113019Y0162925D03*
X0116269Y0235550D03*
D114*
X0111144Y0267425D03*
X0111894Y0268425D03*
X0101894Y0271550D03*
X0100144Y0269550D03*
X0114394Y0202800D03*
X0113394Y0197550D03*
X0113394Y0190800D03*
X0102644Y0200175D03*
X0114644Y0166300D03*
X0118894Y0164800D03*
X0118894Y0164300D03*
X0118394Y0159050D03*
X0121144Y0157550D03*
X0121144Y0157050D03*
X0117894Y0146050D03*
D115*
X0117954Y0146175D03*
X0115084Y0147425D03*
X0116204Y0149300D03*
X0121084Y0156175D03*
X0118454Y0160300D03*
X0118954Y0165050D03*
X0118954Y0165550D03*
X0116334Y0174925D03*
X0120704Y0181675D03*
X0118454Y0191050D03*
X0113454Y0189925D03*
X0120954Y0200925D03*
X0121084Y0230300D03*
X0119454Y0239675D03*
X0118084Y0255300D03*
X0117454Y0260425D03*
X0120834Y0260425D03*
X0120204Y0272925D03*
X0107584Y0257300D03*
X0099584Y0268800D03*
X0100334Y0269800D03*
X0137204Y0244925D03*
X0145834Y0268800D03*
X0145084Y0269800D03*
X0143954Y0200425D03*
D116*
X0151329Y0209425D03*
X0151329Y0210550D03*
X0151329Y0211550D03*
X0151329Y0212550D03*
X0119959Y0196175D03*
X0119829Y0195675D03*
X0119709Y0195175D03*
X0119579Y0194675D03*
X0113709Y0199300D03*
X0113709Y0199800D03*
X0113579Y0188925D03*
X0114209Y0186300D03*
X0116329Y0186300D03*
X0116459Y0186800D03*
X0120829Y0181175D03*
X0120959Y0179050D03*
X0121079Y0178550D03*
X0121079Y0178050D03*
X0121079Y0177425D03*
X0121079Y0174425D03*
X0116459Y0173800D03*
X0115079Y0146925D03*
X0094079Y0208425D03*
X0094079Y0209425D03*
X0114579Y0240675D03*
X0106829Y0255300D03*
X0097079Y0264675D03*
X0097579Y0265675D03*
X0093959Y0252175D03*
X0147209Y0266675D03*
X0147829Y0265675D03*
X0148329Y0264675D03*
D117*
X0121144Y0234425D03*
X0121144Y0233425D03*
X0118894Y0209425D03*
X0118644Y0191550D03*
X0121144Y0176925D03*
X0121144Y0176425D03*
X0121144Y0175925D03*
X0121144Y0175425D03*
X0121144Y0174925D03*
X0116394Y0174425D03*
X0118394Y0159800D03*
X0120894Y0154050D03*
X0115144Y0147175D03*
X0151394Y0206425D03*
X0098144Y0266675D03*
X0098894Y0267800D03*
D118*
X0102329Y0271925D03*
X0110329Y0265675D03*
X0107959Y0258425D03*
X0117209Y0259425D03*
X0120709Y0262550D03*
X0117459Y0269800D03*
X0117459Y0254175D03*
X0124829Y0240675D03*
X0115329Y0233425D03*
X0115079Y0220925D03*
X0113329Y0197300D03*
X0113329Y0196800D03*
X0113329Y0192050D03*
X0113329Y0191550D03*
X0120709Y0182175D03*
X0116209Y0175925D03*
X0120959Y0170175D03*
X0118209Y0168675D03*
X0118959Y0163925D03*
X0114829Y0162425D03*
X0114959Y0160300D03*
X0114959Y0159800D03*
X0118329Y0158800D03*
X0118329Y0158175D03*
X0121209Y0158175D03*
X0121209Y0158800D03*
X0114709Y0166050D03*
X0114709Y0167050D03*
X0116209Y0149550D03*
X0115079Y0147675D03*
X0143079Y0271925D03*
D119*
X0148894Y0263300D03*
X0149394Y0262175D03*
X0151394Y0225800D03*
X0151394Y0224675D03*
X0151394Y0223675D03*
X0151394Y0222550D03*
X0151394Y0221550D03*
X0151394Y0220550D03*
X0151394Y0219550D03*
X0151394Y0218425D03*
X0151394Y0217425D03*
X0151394Y0216300D03*
X0151394Y0215300D03*
X0151394Y0214300D03*
X0151394Y0213300D03*
X0145144Y0200800D03*
X0121394Y0215300D03*
X0114144Y0201300D03*
X0119394Y0193925D03*
X0120894Y0179925D03*
X0121144Y0173675D03*
X0121144Y0173175D03*
X0121144Y0172050D03*
X0114144Y0149675D03*
X0114394Y0148925D03*
X0119144Y0148675D03*
X0093894Y0219550D03*
X0093894Y0220550D03*
X0093894Y0221550D03*
X0093894Y0222550D03*
X0093894Y0223675D03*
X0093894Y0224675D03*
X0093894Y0225800D03*
X0093894Y0226800D03*
X0093894Y0227800D03*
X0093894Y0228800D03*
X0093894Y0229925D03*
X0093894Y0230925D03*
X0093894Y0232050D03*
X0093894Y0233050D03*
X0093894Y0234050D03*
X0093894Y0235050D03*
X0093894Y0236175D03*
X0093894Y0237175D03*
X0093894Y0238300D03*
X0093894Y0239300D03*
X0093894Y0240300D03*
X0093894Y0241300D03*
X0093894Y0242425D03*
X0093894Y0243425D03*
X0093894Y0244550D03*
X0093894Y0245550D03*
X0093894Y0246550D03*
X0093894Y0247550D03*
X0093894Y0248675D03*
X0093894Y0249675D03*
X0093894Y0250800D03*
X0094144Y0254925D03*
X0094644Y0258050D03*
X0094894Y0259050D03*
X0095644Y0261175D03*
X0096394Y0263300D03*
X0106394Y0249675D03*
X0121144Y0233050D03*
X0121144Y0232050D03*
D120*
X0115084Y0225800D03*
X0117454Y0217425D03*
X0121084Y0252800D03*
X0123204Y0266300D03*
X0115584Y0180425D03*
X0115584Y0179925D03*
X0120704Y0148925D03*
D121*
X0120769Y0149050D03*
X0115519Y0181175D03*
X0118019Y0214675D03*
X0124519Y0248050D03*
X0122019Y0257300D03*
X0128019Y0268800D03*
X0128519Y0269800D03*
D122*
X0121769Y0257050D03*
X0115519Y0181425D03*
X0115519Y0180925D03*
X0120769Y0149175D03*
D123*
X0116269Y0149175D03*
X0120769Y0181425D03*
X0118519Y0191300D03*
X0113519Y0189800D03*
X0113519Y0189300D03*
X0114019Y0198675D03*
X0121019Y0201300D03*
X0121019Y0201800D03*
X0120769Y0211175D03*
X0144019Y0211175D03*
X0151269Y0209050D03*
X0146769Y0267425D03*
X0117019Y0271550D03*
X0107519Y0257050D03*
X0103019Y0247550D03*
X0099269Y0268425D03*
D124*
X0111709Y0278175D03*
X0133579Y0278175D03*
X0117579Y0216800D03*
X0117829Y0215675D03*
X0115459Y0182175D03*
X0115459Y0181675D03*
X0120709Y0149300D03*
D125*
X0120769Y0149425D03*
X0120769Y0149675D03*
X0134769Y0198675D03*
X0120019Y0205925D03*
X0120019Y0207050D03*
X0128519Y0269550D03*
D126*
X0128144Y0261175D03*
X0115644Y0268425D03*
X0115394Y0149425D03*
D127*
X0120769Y0149550D03*
X0120019Y0206425D03*
X0120019Y0207425D03*
X0115019Y0267800D03*
D128*
X0119829Y0267425D03*
X0124459Y0264300D03*
X0127459Y0245550D03*
X0114829Y0222550D03*
X0114959Y0221550D03*
X0115079Y0220550D03*
X0120709Y0212175D03*
X0120959Y0203800D03*
X0120959Y0198675D03*
X0113329Y0197050D03*
X0113329Y0196550D03*
X0113329Y0191925D03*
X0113329Y0191300D03*
X0120709Y0182050D03*
X0116209Y0176300D03*
X0116209Y0175800D03*
X0118209Y0168925D03*
X0118959Y0166300D03*
X0118959Y0163800D03*
X0114829Y0162175D03*
X0114959Y0160050D03*
X0118329Y0158550D03*
X0121209Y0158550D03*
X0121209Y0158050D03*
X0116209Y0149675D03*
X0114579Y0166925D03*
X0120959Y0170050D03*
X0106709Y0248675D03*
X0109209Y0264300D03*
X0142459Y0272550D03*
X0143459Y0271550D03*
D129*
X0117269Y0253800D03*
X0108269Y0259050D03*
X0121019Y0199675D03*
X0113269Y0196050D03*
X0113269Y0195550D03*
X0113269Y0195050D03*
X0113269Y0194550D03*
X0113269Y0193925D03*
X0113269Y0193425D03*
X0113269Y0192925D03*
X0113269Y0192425D03*
X0120769Y0184050D03*
X0114769Y0167425D03*
X0114769Y0165800D03*
X0114769Y0165300D03*
X0114769Y0164300D03*
X0114769Y0163800D03*
X0114769Y0163300D03*
X0114769Y0162675D03*
X0118269Y0158050D03*
X0116269Y0150175D03*
X0116269Y0149925D03*
D130*
X0120769Y0150300D03*
X0110269Y0241800D03*
X0121269Y0255300D03*
X0112769Y0260425D03*
X0112769Y0263550D03*
X0127019Y0271925D03*
D131*
X0121394Y0271925D03*
X0119394Y0266675D03*
X0128144Y0245925D03*
X0151144Y0207425D03*
X0120894Y0204300D03*
X0120644Y0182675D03*
X0116144Y0176425D03*
X0118144Y0169175D03*
X0114894Y0161925D03*
X0114894Y0161300D03*
X0114894Y0160800D03*
X0116394Y0150550D03*
D132*
X0116704Y0152175D03*
X0116834Y0152550D03*
X0116954Y0153550D03*
X0117084Y0154050D03*
X0118334Y0157675D03*
X0121204Y0159300D03*
X0114704Y0165050D03*
X0114954Y0168175D03*
X0120954Y0169675D03*
X0116204Y0176925D03*
X0120954Y0198800D03*
X0120954Y0199300D03*
X0120834Y0205300D03*
X0120704Y0212550D03*
X0104204Y0199800D03*
X0106954Y0248050D03*
X0108954Y0262550D03*
X0108954Y0263550D03*
X0140704Y0274050D03*
D133*
X0107144Y0236550D03*
X0115144Y0219925D03*
X0114644Y0204300D03*
X0120894Y0169175D03*
X0121144Y0160300D03*
X0121144Y0159800D03*
X0120644Y0152550D03*
X0116894Y0153050D03*
X0104644Y0274050D03*
D134*
X0117519Y0264300D03*
X0121519Y0271550D03*
X0094519Y0208050D03*
X0119019Y0166925D03*
X0118269Y0157550D03*
X0117019Y0153800D03*
X0120519Y0153300D03*
X0120519Y0152800D03*
D135*
X0119394Y0153800D03*
X0118644Y0235050D03*
X0135894Y0246550D03*
X0137394Y0245550D03*
X0122144Y0262175D03*
X0105894Y0262175D03*
D136*
X0105144Y0260299D03*
X0103644Y0255551D03*
X0105394Y0247426D03*
X0116644Y0233926D03*
X0121144Y0233926D03*
X0121144Y0233801D03*
X0121144Y0233676D03*
X0121144Y0233551D03*
X0121144Y0233299D03*
X0121144Y0234551D03*
X0121144Y0234676D03*
X0121144Y0234801D03*
X0121144Y0234926D03*
X0133894Y0248176D03*
X0137394Y0245051D03*
X0147144Y0266801D03*
X0146894Y0267176D03*
X0146644Y0267549D03*
X0146394Y0267926D03*
X0146144Y0268301D03*
X0124644Y0272426D03*
X0124144Y0269051D03*
X0120394Y0262299D03*
X0120894Y0260676D03*
X0120894Y0260551D03*
X0118144Y0255426D03*
X0110644Y0266424D03*
X0099394Y0268549D03*
X0099144Y0268176D03*
X0098644Y0267549D03*
X0098394Y0267176D03*
X0098394Y0267051D03*
X0097644Y0265801D03*
X0098894Y0210299D03*
X0094144Y0207174D03*
X0101394Y0200551D03*
X0118644Y0191424D03*
X0119894Y0195801D03*
X0118894Y0209299D03*
X0121144Y0177176D03*
X0121144Y0177051D03*
X0121144Y0176676D03*
X0121144Y0176551D03*
X0121144Y0176176D03*
X0121144Y0176051D03*
X0121144Y0175676D03*
X0121144Y0175551D03*
X0121144Y0175299D03*
X0121144Y0175051D03*
X0121144Y0174799D03*
X0116394Y0174551D03*
X0116394Y0174299D03*
X0116644Y0171426D03*
X0118394Y0159926D03*
X0120894Y0153924D03*
X0144394Y0200551D03*
X0151394Y0206551D03*
X0151394Y0206676D03*
D137*
X0138394Y0244426D03*
X0112894Y0236051D03*
X0101394Y0255676D03*
X0101394Y0255801D03*
X0100144Y0255426D03*
X0105894Y0261926D03*
X0105894Y0262051D03*
X0107644Y0262926D03*
X0119394Y0154176D03*
X0119394Y0153924D03*
D138*
X0119394Y0154050D03*
X0104894Y0257300D03*
D139*
X0115269Y0256300D03*
X0116769Y0270925D03*
X0117519Y0212550D03*
X0120519Y0183675D03*
X0119019Y0167550D03*
X0120519Y0154550D03*
X0117019Y0154550D03*
X0139019Y0199300D03*
D140*
X0147959Y0201925D03*
X0148579Y0209425D03*
X0131829Y0245925D03*
X0142959Y0250050D03*
X0116459Y0232425D03*
X0114829Y0232425D03*
X0114829Y0231300D03*
X0116709Y0225050D03*
X0116829Y0224050D03*
X0114329Y0215675D03*
X0114329Y0214675D03*
X0114209Y0212550D03*
X0114209Y0211550D03*
X0114209Y0210550D03*
X0114079Y0208425D03*
X0114079Y0207425D03*
X0117459Y0197300D03*
X0117079Y0195175D03*
X0116959Y0194175D03*
X0116709Y0192050D03*
X0118959Y0187925D03*
X0114079Y0176925D03*
X0118209Y0173800D03*
X0118329Y0172800D03*
X0116579Y0172300D03*
X0114209Y0170675D03*
X0114329Y0169175D03*
X0114709Y0159300D03*
X0119329Y0156175D03*
X0120329Y0160800D03*
X0121959Y0161925D03*
X0121959Y0162425D03*
X0121959Y0162925D03*
X0121959Y0163425D03*
X0121959Y0163925D03*
X0121959Y0164425D03*
X0121829Y0166050D03*
X0121829Y0166550D03*
X0093829Y0205300D03*
X0097079Y0209425D03*
D141*
X0093894Y0204925D03*
X0119394Y0186675D03*
X0119644Y0185675D03*
X0114894Y0158050D03*
X0114894Y0157550D03*
X0114894Y0157050D03*
X0114894Y0156425D03*
X0112644Y0270550D03*
D142*
X0111394Y0267800D03*
X0117644Y0261550D03*
X0123894Y0268800D03*
X0114894Y0221925D03*
X0120894Y0203300D03*
X0113394Y0197800D03*
X0113394Y0191050D03*
X0113394Y0190550D03*
X0116894Y0188425D03*
X0118894Y0164425D03*
X0118394Y0159300D03*
X0121144Y0157675D03*
X0121144Y0157175D03*
X0121144Y0156675D03*
X0142644Y0211550D03*
D143*
X0130644Y0246550D03*
X0103394Y0242425D03*
X0097894Y0266300D03*
X0098644Y0267425D03*
X0101644Y0211175D03*
X0094144Y0207050D03*
X0116394Y0174675D03*
X0116644Y0171550D03*
X0121144Y0175175D03*
X0121144Y0175800D03*
X0121144Y0176300D03*
X0121144Y0176800D03*
X0121144Y0177300D03*
X0118394Y0160050D03*
X0114894Y0159550D03*
D144*
X0113019Y0162299D03*
X0113019Y0162551D03*
X0118519Y0174299D03*
X0118019Y0177551D03*
X0118019Y0234551D03*
X0116269Y0235424D03*
X0122269Y0242176D03*
X0121769Y0261801D03*
X0124769Y0271176D03*
X0124519Y0271301D03*
X0108519Y0244176D03*
X0106519Y0242674D03*
X0100519Y0251924D03*
X0100519Y0252049D03*
X0100019Y0255174D03*
X0103019Y0256676D03*
X0105269Y0259299D03*
X0105769Y0261424D03*
D145*
X0105769Y0261550D03*
X0118019Y0177425D03*
X0118519Y0174425D03*
X0113019Y0162425D03*
D146*
X0113084Y0162675D03*
X0118454Y0174675D03*
X0118454Y0175175D03*
X0118334Y0175800D03*
X0118204Y0176300D03*
X0105204Y0245550D03*
X0101454Y0255925D03*
D147*
X0100519Y0252301D03*
X0103019Y0246301D03*
X0108269Y0244301D03*
X0110519Y0236299D03*
X0116269Y0236051D03*
X0116269Y0235926D03*
X0116269Y0235801D03*
X0116269Y0235676D03*
X0118519Y0234926D03*
X0118769Y0235174D03*
X0126769Y0246301D03*
X0141019Y0247426D03*
X0110769Y0254676D03*
X0110769Y0254801D03*
X0113019Y0162799D03*
D148*
X0119019Y0165800D03*
X0121019Y0170550D03*
X0121019Y0200175D03*
X0121019Y0200800D03*
X0121019Y0229925D03*
X0115269Y0233050D03*
X0117769Y0254925D03*
X0117519Y0263300D03*
X0119519Y0272550D03*
X0107769Y0258050D03*
X0101019Y0270550D03*
X0143019Y0200175D03*
X0151269Y0207050D03*
D149*
X0129769Y0246051D03*
X0119769Y0168549D03*
D150*
X0117334Y0169675D03*
X0115454Y0177425D03*
X0115334Y0184300D03*
X0115334Y0184800D03*
X0115334Y0185300D03*
X0119954Y0208425D03*
X0125954Y0246925D03*
X0112204Y0259425D03*
D151*
X0112519Y0259926D03*
X0114019Y0266424D03*
X0110519Y0277676D03*
X0112269Y0245176D03*
X0112519Y0245051D03*
X0113019Y0244799D03*
X0113269Y0244674D03*
X0115269Y0185551D03*
X0117269Y0169926D03*
X0117269Y0169801D03*
D152*
X0117329Y0170301D03*
X0117329Y0170426D03*
X0117709Y0188676D03*
X0109709Y0212801D03*
X0118459Y0241424D03*
X0118329Y0241549D03*
X0118209Y0241674D03*
X0124329Y0248551D03*
X0121079Y0254426D03*
X0116579Y0257551D03*
X0112709Y0260299D03*
X0113959Y0266176D03*
X0110209Y0277551D03*
X0132829Y0269426D03*
X0134709Y0277676D03*
X0106709Y0243176D03*
X0136079Y0212801D03*
D153*
X0117644Y0190176D03*
X0117644Y0190051D03*
X0117644Y0189676D03*
X0117644Y0189551D03*
X0117644Y0189176D03*
X0117644Y0189051D03*
X0117394Y0170926D03*
X0117394Y0170801D03*
X0118644Y0241176D03*
X0116894Y0244799D03*
X0114144Y0254801D03*
X0111644Y0258299D03*
X0112894Y0263676D03*
X0112894Y0263801D03*
X0113894Y0265926D03*
X0113894Y0266051D03*
X0121144Y0254801D03*
X0121144Y0254676D03*
X0121144Y0254551D03*
X0128394Y0261424D03*
X0126894Y0242301D03*
X0106644Y0243301D03*
D154*
X0104704Y0242176D03*
X0109084Y0245674D03*
X0111454Y0245426D03*
X0118834Y0241051D03*
X0117834Y0238176D03*
X0117834Y0238051D03*
X0124334Y0248799D03*
X0121204Y0255049D03*
X0121204Y0255174D03*
X0121334Y0255426D03*
X0121334Y0255551D03*
X0121334Y0255676D03*
X0121334Y0255801D03*
X0116334Y0257426D03*
X0111704Y0258174D03*
X0112834Y0260551D03*
X0112834Y0260676D03*
X0112834Y0262299D03*
X0112834Y0262424D03*
X0112834Y0262676D03*
X0112834Y0262801D03*
X0112954Y0263926D03*
X0113084Y0264051D03*
X0113704Y0265424D03*
X0113834Y0265801D03*
X0109584Y0265176D03*
X0108584Y0260926D03*
X0108704Y0260801D03*
X0109204Y0277049D03*
X0109704Y0277301D03*
X0135584Y0277301D03*
X0136084Y0277049D03*
X0150584Y0208676D03*
X0136704Y0198926D03*
X0117704Y0190924D03*
X0117704Y0190676D03*
X0117704Y0190424D03*
X0108954Y0198926D03*
X0117454Y0171174D03*
D155*
X0118144Y0176800D03*
X0112144Y0269550D03*
D156*
X0105079Y0254925D03*
X0139829Y0248675D03*
X0115829Y0178300D03*
X0115829Y0177800D03*
D157*
X0115829Y0177924D03*
X0115829Y0178176D03*
X0114959Y0226426D03*
X0114959Y0226551D03*
X0112579Y0240926D03*
X0106579Y0247051D03*
X0105579Y0254551D03*
X0113459Y0254676D03*
X0129829Y0246176D03*
X0139829Y0248551D03*
X0128329Y0271301D03*
X0132959Y0278426D03*
X0112709Y0278551D03*
D158*
X0133209Y0268800D03*
X0115829Y0178050D03*
D159*
X0115769Y0178424D03*
X0115769Y0178676D03*
X0115769Y0178924D03*
X0115019Y0225924D03*
X0115019Y0226049D03*
X0115019Y0226301D03*
X0125269Y0241051D03*
X0120769Y0256174D03*
X0123019Y0265926D03*
D160*
X0137019Y0246925D03*
X0115019Y0226175D03*
X0115769Y0179050D03*
X0115769Y0178550D03*
D161*
X0115769Y0178800D03*
X0127769Y0268425D03*
D162*
X0123144Y0266176D03*
X0121144Y0252426D03*
X0129894Y0248301D03*
X0107144Y0246674D03*
X0112394Y0278426D03*
X0133644Y0198551D03*
X0115644Y0179801D03*
X0115644Y0179676D03*
X0115644Y0179301D03*
X0115644Y0179176D03*
D163*
X0115644Y0179425D03*
D164*
X0115644Y0179550D03*
X0106894Y0246925D03*
D165*
X0121084Y0253175D03*
X0120954Y0256300D03*
X0115584Y0180550D03*
X0115584Y0180050D03*
D166*
X0115584Y0180176D03*
X0115584Y0180301D03*
X0115584Y0180676D03*
X0133954Y0213051D03*
X0115084Y0225426D03*
X0115084Y0225551D03*
X0115084Y0225676D03*
X0112954Y0240801D03*
X0107084Y0246799D03*
X0105454Y0254676D03*
X0121084Y0253049D03*
X0121084Y0252924D03*
X0121084Y0252676D03*
X0121084Y0252551D03*
X0124584Y0247924D03*
X0124834Y0247799D03*
X0124954Y0247674D03*
X0123084Y0266051D03*
X0127834Y0268549D03*
X0133084Y0268926D03*
X0133204Y0278301D03*
D167*
X0127769Y0260801D03*
X0121019Y0256426D03*
X0125269Y0247426D03*
X0117519Y0217301D03*
X0117519Y0217176D03*
X0117519Y0217051D03*
X0118019Y0214926D03*
X0118019Y0214801D03*
X0115519Y0181549D03*
X0115519Y0181301D03*
X0115519Y0181049D03*
X0115519Y0180801D03*
X0112019Y0278301D03*
D168*
X0116829Y0257676D03*
X0121209Y0256551D03*
X0121709Y0256926D03*
X0121079Y0253676D03*
X0121079Y0253551D03*
X0121079Y0253426D03*
X0124459Y0248176D03*
X0125459Y0247301D03*
X0125579Y0247176D03*
X0137079Y0246799D03*
X0133079Y0269051D03*
X0128579Y0269674D03*
X0128459Y0269426D03*
X0128329Y0269301D03*
X0128209Y0269176D03*
X0128209Y0269051D03*
X0128079Y0268926D03*
X0110079Y0252551D03*
X0108079Y0240549D03*
X0117579Y0216926D03*
X0117709Y0216424D03*
X0117709Y0216176D03*
X0117709Y0216051D03*
X0117829Y0215926D03*
X0117829Y0215801D03*
X0117829Y0215549D03*
X0117959Y0215176D03*
X0117959Y0215051D03*
X0115459Y0182426D03*
X0115459Y0182301D03*
X0115459Y0181926D03*
X0115459Y0181801D03*
D169*
X0115459Y0182050D03*
X0115459Y0182550D03*
X0117959Y0215300D03*
X0117709Y0216300D03*
X0109329Y0245550D03*
D170*
X0110144Y0252175D03*
X0114144Y0266675D03*
X0115394Y0183675D03*
X0115394Y0183175D03*
X0115394Y0182675D03*
D171*
X0115394Y0182801D03*
X0115394Y0182926D03*
X0115394Y0183301D03*
X0115394Y0183426D03*
X0110644Y0212926D03*
X0113644Y0244426D03*
X0110144Y0252301D03*
X0110144Y0252426D03*
X0114394Y0267051D03*
X0114894Y0267674D03*
X0121394Y0256676D03*
X0133894Y0278049D03*
D172*
X0114644Y0267425D03*
X0111894Y0259050D03*
X0110894Y0198675D03*
X0115394Y0183550D03*
X0115394Y0183050D03*
D173*
X0115334Y0184050D03*
X0115334Y0184550D03*
X0115334Y0185050D03*
X0119954Y0208050D03*
X0121084Y0253800D03*
D174*
X0118829Y0245925D03*
X0122209Y0197800D03*
D175*
X0122329Y0197926D03*
X0133329Y0265176D03*
D176*
X0121894Y0198051D03*
D177*
X0122644Y0198175D03*
X0135644Y0258050D03*
D178*
X0130704Y0198300D03*
D179*
X0115329Y0198300D03*
D180*
X0112144Y0213051D03*
X0132394Y0198426D03*
D181*
X0132709Y0213176D03*
X0112959Y0213176D03*
X0113329Y0198426D03*
X0110459Y0248924D03*
X0113209Y0254551D03*
X0122829Y0264549D03*
X0123209Y0270051D03*
X0124709Y0270426D03*
X0133209Y0268549D03*
X0132209Y0278676D03*
X0139329Y0248301D03*
X0136959Y0247301D03*
D182*
X0125269Y0241424D03*
X0106269Y0253924D03*
X0122519Y0281174D03*
X0112519Y0198551D03*
D183*
X0109894Y0198800D03*
X0121144Y0254175D03*
D184*
X0121519Y0256801D03*
X0125769Y0247051D03*
X0126519Y0242176D03*
X0111769Y0258801D03*
X0112019Y0259174D03*
X0112269Y0259551D03*
X0114269Y0266926D03*
X0114519Y0267176D03*
X0114769Y0267549D03*
X0125769Y0272176D03*
X0133019Y0269176D03*
X0120019Y0207299D03*
X0120019Y0207174D03*
X0120019Y0206926D03*
X0120019Y0206801D03*
X0120019Y0206676D03*
X0120019Y0206551D03*
X0120019Y0206299D03*
X0120019Y0206174D03*
X0120019Y0206049D03*
D185*
X0131144Y0213300D03*
D186*
X0115204Y0213300D03*
D187*
X0128519Y0213424D03*
X0124269Y0244426D03*
D188*
X0110269Y0237801D03*
X0117269Y0213424D03*
D189*
X0122704Y0213549D03*
D190*
X0122834Y0213675D03*
D191*
X0121954Y0213801D03*
X0110704Y0239051D03*
X0122704Y0280676D03*
D192*
X0122644Y0281049D03*
X0118894Y0249426D03*
X0109394Y0249301D03*
X0119894Y0213926D03*
D193*
X0119019Y0214051D03*
X0119019Y0214176D03*
D194*
X0118144Y0214300D03*
X0125144Y0247550D03*
D195*
X0121144Y0253301D03*
X0121894Y0257174D03*
X0127894Y0268674D03*
X0105394Y0254801D03*
X0117394Y0217674D03*
X0117394Y0217549D03*
X0117644Y0216674D03*
X0117644Y0216549D03*
X0117894Y0215424D03*
X0118144Y0214549D03*
X0118144Y0214424D03*
D196*
X0116709Y0217800D03*
X0116709Y0218800D03*
X0115709Y0238675D03*
X0138829Y0248050D03*
D197*
X0130459Y0270301D03*
X0131459Y0278924D03*
X0120579Y0239051D03*
X0116709Y0219674D03*
X0116709Y0219426D03*
X0116709Y0219301D03*
X0116709Y0219176D03*
X0116709Y0219051D03*
X0116709Y0218926D03*
X0116709Y0218674D03*
X0116709Y0218549D03*
X0116709Y0218301D03*
X0116709Y0218176D03*
X0116709Y0218051D03*
X0116709Y0217926D03*
D198*
X0116709Y0218425D03*
X0116709Y0219550D03*
D199*
X0118394Y0236175D03*
X0128144Y0246550D03*
X0141144Y0247550D03*
D200*
X0116269Y0236175D03*
X0109769Y0243425D03*
X0110769Y0254925D03*
D201*
X0118394Y0244426D03*
X0116394Y0236424D03*
X0106394Y0242549D03*
X0101394Y0256049D03*
X0101394Y0256174D03*
X0121894Y0261926D03*
X0129394Y0247924D03*
X0132394Y0247799D03*
X0138144Y0245301D03*
X0140894Y0247176D03*
D202*
X0117459Y0249924D03*
X0115829Y0242674D03*
X0109329Y0236801D03*
X0108579Y0238549D03*
X0118459Y0258551D03*
D203*
X0109519Y0236926D03*
D204*
X0109584Y0237051D03*
X0109584Y0249551D03*
X0121334Y0265801D03*
X0128454Y0279551D03*
D205*
X0110519Y0237175D03*
D206*
X0110894Y0237299D03*
X0124144Y0244301D03*
D207*
X0110584Y0237424D03*
D208*
X0110394Y0237550D03*
D209*
X0110394Y0237676D03*
X0113144Y0252049D03*
D210*
X0115519Y0259551D03*
X0115519Y0237801D03*
X0137269Y0245426D03*
D211*
X0120959Y0265051D03*
X0110579Y0237926D03*
D212*
X0110704Y0238051D03*
D213*
X0110584Y0238176D03*
D214*
X0112394Y0238300D03*
D215*
X0115769Y0238424D03*
X0118519Y0258299D03*
D216*
X0112644Y0244301D03*
X0108644Y0238424D03*
X0125644Y0243549D03*
X0129894Y0279301D03*
D217*
X0126894Y0260676D03*
X0126894Y0260551D03*
X0116394Y0242301D03*
X0115894Y0238549D03*
D218*
X0108209Y0238675D03*
D219*
X0111084Y0238801D03*
X0115204Y0248551D03*
D220*
X0114079Y0250301D03*
X0110959Y0238926D03*
D221*
X0120769Y0239176D03*
X0125269Y0241549D03*
X0131019Y0279049D03*
X0114269Y0279049D03*
D222*
X0110394Y0239176D03*
D223*
X0120834Y0239300D03*
D224*
X0109894Y0239300D03*
D225*
X0116644Y0242176D03*
X0120894Y0239424D03*
X0115394Y0252301D03*
X0115394Y0252426D03*
D226*
X0116394Y0243301D03*
X0109394Y0239424D03*
D227*
X0109269Y0239549D03*
D228*
X0109144Y0239675D03*
D229*
X0108894Y0239801D03*
D230*
X0108644Y0239926D03*
D231*
X0108394Y0240051D03*
D232*
X0108209Y0240176D03*
X0112579Y0244176D03*
X0115329Y0243051D03*
X0118459Y0257801D03*
X0118459Y0257926D03*
X0130709Y0248551D03*
X0138829Y0248924D03*
D233*
X0116209Y0242425D03*
X0108209Y0240300D03*
D234*
X0108084Y0240424D03*
X0110454Y0248799D03*
X0105704Y0254426D03*
X0113084Y0278676D03*
X0127834Y0268301D03*
X0133204Y0268674D03*
X0132584Y0278551D03*
X0136954Y0247176D03*
X0125334Y0241176D03*
D235*
X0112269Y0241051D03*
X0112019Y0241176D03*
X0111519Y0241424D03*
X0111269Y0241549D03*
X0111019Y0241674D03*
X0126019Y0272051D03*
X0137019Y0247051D03*
D236*
X0125269Y0241300D03*
D237*
X0118519Y0241300D03*
X0108519Y0261175D03*
X0112769Y0263300D03*
X0132769Y0269550D03*
D238*
X0111769Y0241300D03*
X0110519Y0248675D03*
D239*
X0110454Y0249426D03*
X0112584Y0253924D03*
X0112584Y0254049D03*
X0115334Y0252551D03*
X0118834Y0258801D03*
X0118834Y0258926D03*
X0124334Y0270301D03*
X0130584Y0270176D03*
X0136834Y0247674D03*
X0125204Y0241674D03*
D240*
X0125209Y0241800D03*
X0130579Y0279175D03*
D241*
X0115269Y0279301D03*
X0110519Y0249799D03*
X0125269Y0241926D03*
X0125769Y0243176D03*
X0125769Y0243301D03*
X0136769Y0247799D03*
D242*
X0125269Y0242051D03*
X0118519Y0258676D03*
D243*
X0116894Y0242051D03*
X0106144Y0254049D03*
X0133394Y0268301D03*
D244*
X0115954Y0242549D03*
D245*
X0120644Y0256049D03*
X0126394Y0242674D03*
X0139644Y0248426D03*
X0139894Y0248799D03*
X0105144Y0255049D03*
X0105144Y0255174D03*
D246*
X0113019Y0254175D03*
X0126269Y0242800D03*
D247*
X0115644Y0242800D03*
D248*
X0126269Y0242926D03*
D249*
X0115519Y0242926D03*
X0128019Y0271051D03*
X0129269Y0279426D03*
D250*
X0125829Y0243051D03*
D251*
X0116334Y0243176D03*
D252*
X0125704Y0243425D03*
D253*
X0116394Y0243425D03*
D254*
X0116394Y0243549D03*
D255*
X0119829Y0243674D03*
D256*
X0119579Y0243800D03*
D257*
X0119394Y0245674D03*
X0120644Y0248924D03*
X0123394Y0243926D03*
D258*
X0113019Y0243926D03*
X0121019Y0265176D03*
D259*
X0118579Y0246051D03*
X0123829Y0244051D03*
D260*
X0118769Y0249551D03*
X0112519Y0244051D03*
D261*
X0123959Y0244176D03*
D262*
X0134644Y0244426D03*
X0110644Y0249924D03*
D263*
X0124394Y0244550D03*
D264*
X0124209Y0244674D03*
X0127959Y0270674D03*
D265*
X0124019Y0244799D03*
D266*
X0121894Y0244925D03*
D267*
X0121769Y0245051D03*
X0137269Y0260551D03*
X0137269Y0260676D03*
D268*
X0121644Y0245176D03*
X0121394Y0245301D03*
D269*
X0119834Y0245426D03*
D270*
X0108644Y0247176D03*
X0105394Y0245426D03*
X0102894Y0254676D03*
X0105894Y0262424D03*
X0119394Y0270176D03*
D271*
X0119579Y0245550D03*
D272*
X0118954Y0245799D03*
X0113084Y0251924D03*
X0110204Y0253301D03*
X0110084Y0253426D03*
D273*
X0117269Y0246301D03*
X0117519Y0246176D03*
D274*
X0117144Y0246426D03*
D275*
X0113144Y0254301D03*
X0113144Y0254426D03*
X0107144Y0246426D03*
X0105894Y0254301D03*
X0123394Y0270176D03*
X0129894Y0248426D03*
D276*
X0117019Y0246550D03*
D277*
X0107144Y0246550D03*
D278*
X0116709Y0246799D03*
X0116829Y0246674D03*
D279*
X0116519Y0246925D03*
D280*
X0116454Y0247051D03*
D281*
X0116269Y0247176D03*
X0116019Y0247426D03*
D282*
X0116144Y0247301D03*
D283*
X0122834Y0264424D03*
X0128454Y0271176D03*
X0130334Y0270426D03*
X0139084Y0248176D03*
X0136954Y0247426D03*
X0113834Y0278924D03*
D284*
X0106394Y0253800D03*
X0136894Y0247550D03*
D285*
X0115829Y0247550D03*
D286*
X0115769Y0247674D03*
X0114019Y0250176D03*
D287*
X0115584Y0247799D03*
X0122704Y0280551D03*
D288*
X0116829Y0279551D03*
X0121209Y0265549D03*
X0128079Y0270799D03*
X0135959Y0247924D03*
D289*
X0137269Y0261424D03*
X0115519Y0247924D03*
D290*
X0115459Y0248050D03*
X0114079Y0250050D03*
X0111709Y0253175D03*
D291*
X0115334Y0248176D03*
X0132454Y0265926D03*
X0132334Y0266051D03*
D292*
X0137269Y0261051D03*
X0137269Y0260926D03*
X0115269Y0248301D03*
D293*
X0115269Y0248426D03*
X0137269Y0260801D03*
D294*
X0130519Y0248675D03*
D295*
X0118269Y0248675D03*
D296*
X0119084Y0249176D03*
X0130334Y0248799D03*
X0129954Y0270051D03*
D297*
X0118959Y0249301D03*
X0118579Y0248799D03*
X0109329Y0249176D03*
D298*
X0130144Y0248924D03*
X0130144Y0269926D03*
D299*
X0138644Y0249050D03*
D300*
X0124644Y0249050D03*
D301*
X0110454Y0249050D03*
D302*
X0138519Y0249176D03*
D303*
X0128454Y0249176D03*
D304*
X0133019Y0249301D03*
D305*
X0133144Y0249426D03*
D306*
X0133144Y0249551D03*
D307*
X0128829Y0249675D03*
D308*
X0110519Y0249675D03*
D309*
X0128834Y0249799D03*
D310*
X0130769Y0249924D03*
D311*
X0130709Y0250050D03*
D312*
X0130579Y0250176D03*
D313*
X0130584Y0250301D03*
D314*
X0123269Y0250426D03*
D315*
X0125144Y0250551D03*
D316*
X0126144Y0250676D03*
D317*
X0126269Y0250800D03*
D318*
X0126269Y0250924D03*
D319*
X0126329Y0251049D03*
D320*
X0131834Y0251175D03*
D321*
X0113269Y0251175D03*
D322*
X0131954Y0251301D03*
D323*
X0113209Y0251301D03*
X0113209Y0251426D03*
X0122709Y0280801D03*
D324*
X0132019Y0251426D03*
D325*
X0132144Y0251551D03*
D326*
X0113144Y0251551D03*
X0113144Y0251676D03*
D327*
X0132209Y0251676D03*
D328*
X0132269Y0251800D03*
D329*
X0113084Y0251800D03*
D330*
X0132334Y0251924D03*
D331*
X0132269Y0252049D03*
D332*
X0132329Y0252175D03*
D333*
X0115334Y0252175D03*
X0114704Y0279175D03*
D334*
X0132329Y0252301D03*
D335*
X0135019Y0252426D03*
X0134269Y0259299D03*
D336*
X0135084Y0252551D03*
D337*
X0135144Y0252676D03*
D338*
X0137329Y0261299D03*
X0111709Y0253049D03*
X0111709Y0252924D03*
X0111709Y0252676D03*
D339*
X0135144Y0252800D03*
D340*
X0132209Y0266300D03*
X0111709Y0252800D03*
D341*
X0135079Y0252924D03*
X0134209Y0259174D03*
D342*
X0135144Y0253049D03*
D343*
X0135084Y0253175D03*
D344*
X0135084Y0253301D03*
X0135084Y0255676D03*
X0135084Y0255801D03*
X0134334Y0258801D03*
X0130954Y0263926D03*
D345*
X0131019Y0263801D03*
X0135019Y0255551D03*
X0135019Y0255426D03*
X0135019Y0253551D03*
X0135019Y0253426D03*
D346*
X0110019Y0253551D03*
D347*
X0131019Y0263676D03*
X0135019Y0254801D03*
X0135019Y0254676D03*
X0135019Y0254551D03*
X0135019Y0254426D03*
X0135019Y0254301D03*
X0135019Y0254049D03*
X0135019Y0253924D03*
X0135019Y0253676D03*
D348*
X0109644Y0253676D03*
D349*
X0135019Y0253800D03*
D350*
X0112519Y0253800D03*
D351*
X0135019Y0254175D03*
D352*
X0122769Y0264675D03*
X0106019Y0254175D03*
D353*
X0134954Y0254925D03*
D354*
X0134954Y0255049D03*
D355*
X0134894Y0255174D03*
D356*
X0134959Y0255300D03*
D357*
X0135019Y0255925D03*
X0134269Y0259050D03*
D358*
X0134269Y0258926D03*
X0135019Y0256174D03*
X0135019Y0256049D03*
D359*
X0135079Y0256300D03*
D360*
X0101394Y0256300D03*
D361*
X0135144Y0256426D03*
D362*
X0135334Y0256551D03*
X0134334Y0259676D03*
X0134334Y0259801D03*
D363*
X0134209Y0260174D03*
X0135459Y0256676D03*
D364*
X0135519Y0256801D03*
D365*
X0135584Y0256926D03*
D366*
X0135644Y0257050D03*
D367*
X0135644Y0257174D03*
D368*
X0135644Y0257300D03*
D369*
X0135644Y0257426D03*
X0135644Y0257551D03*
X0135644Y0257676D03*
X0135644Y0257801D03*
X0135644Y0257926D03*
D370*
X0118454Y0258050D03*
D371*
X0135584Y0258174D03*
X0135584Y0258299D03*
D372*
X0118454Y0258174D03*
D373*
X0135519Y0258425D03*
D374*
X0118459Y0258425D03*
D375*
X0135519Y0258551D03*
D376*
X0135459Y0258676D03*
D377*
X0134329Y0259425D03*
D378*
X0122519Y0262550D03*
X0115519Y0259425D03*
D379*
X0134394Y0259551D03*
D380*
X0134269Y0259926D03*
D381*
X0134209Y0260050D03*
D382*
X0134144Y0260299D03*
D383*
X0137269Y0260425D03*
X0129769Y0267800D03*
D384*
X0126894Y0260425D03*
D385*
X0137269Y0261175D03*
D386*
X0137269Y0261550D03*
D387*
X0135204Y0261676D03*
D388*
X0135144Y0261801D03*
D389*
X0133704Y0261926D03*
X0133704Y0262051D03*
D390*
X0133644Y0262175D03*
D391*
X0133579Y0262299D03*
X0133329Y0262801D03*
D392*
X0133519Y0262424D03*
D393*
X0133459Y0262550D03*
D394*
X0133394Y0262676D03*
X0133144Y0263051D03*
X0132894Y0263424D03*
D395*
X0133269Y0262926D03*
D396*
X0133084Y0263176D03*
X0132334Y0264051D03*
X0122584Y0279676D03*
D397*
X0132954Y0263300D03*
D398*
X0131084Y0263550D03*
D399*
X0134079Y0264176D03*
D400*
X0134019Y0264300D03*
D401*
X0133894Y0264424D03*
D402*
X0133769Y0264549D03*
D403*
X0133704Y0264675D03*
D404*
X0133584Y0264801D03*
X0130204Y0267301D03*
D405*
X0120894Y0264926D03*
X0120894Y0264801D03*
D406*
X0133519Y0264926D03*
D407*
X0133394Y0265051D03*
D408*
X0133209Y0265300D03*
D409*
X0121084Y0265300D03*
D410*
X0130084Y0267549D03*
X0132954Y0265549D03*
X0133084Y0265424D03*
D411*
X0121144Y0265424D03*
D412*
X0132829Y0265675D03*
D413*
X0121269Y0265675D03*
D414*
X0122644Y0280426D03*
X0132644Y0265801D03*
D415*
X0132269Y0266176D03*
D416*
X0129894Y0266424D03*
D417*
X0129894Y0266549D03*
D418*
X0129954Y0266675D03*
D419*
X0130269Y0266801D03*
D420*
X0130329Y0266926D03*
D421*
X0130334Y0267051D03*
D422*
X0130269Y0267176D03*
D423*
X0130144Y0267425D03*
D424*
X0129894Y0267674D03*
D425*
X0129579Y0267926D03*
X0129459Y0268051D03*
D426*
X0130769Y0268176D03*
D427*
X0133334Y0268425D03*
X0131834Y0278800D03*
D428*
X0127834Y0270550D03*
D429*
X0128079Y0270925D03*
D430*
X0113459Y0278800D03*
D431*
X0116019Y0279426D03*
D432*
X0122644Y0279801D03*
D433*
X0122644Y0279925D03*
D434*
X0122644Y0280049D03*
D435*
X0122644Y0280174D03*
D436*
X0122644Y0280300D03*
D437*
X0122704Y0280925D03*
D438*
X0122660Y0060550D02*
X0118605Y0060550D01*
X0114668Y0060550D02*
X0110613Y0060550D01*
X0106676Y0060550D02*
X0102621Y0060550D01*
X0098684Y0060550D02*
X0094628Y0060550D01*
X0090691Y0060550D02*
X0086636Y0060550D01*
X0082699Y0060550D02*
X0078644Y0060550D01*
X0078644Y0057519D01*
X0078644Y0053581D02*
X0078644Y0050550D01*
X0078644Y0048050D01*
X0082699Y0048050D01*
X0082699Y0050550D02*
X0078644Y0050550D01*
X0086636Y0050550D02*
X0090691Y0050550D01*
X0090691Y0048050D02*
X0086636Y0048050D01*
X0094628Y0048050D02*
X0098684Y0048050D01*
X0098684Y0050550D02*
X0094628Y0050550D01*
X0102621Y0050550D02*
X0106676Y0050550D01*
X0106676Y0048050D02*
X0102621Y0048050D01*
X0110613Y0048050D02*
X0114668Y0048050D01*
X0114668Y0050550D02*
X0110613Y0050550D01*
X0118605Y0050550D02*
X0122660Y0050550D01*
X0122660Y0048050D02*
X0118605Y0048050D01*
X0126597Y0048050D02*
X0130652Y0048050D01*
X0130652Y0050550D02*
X0126597Y0050550D01*
X0126597Y0060550D02*
X0130652Y0060550D01*
X0134589Y0060550D02*
X0138644Y0060550D01*
X0138644Y0057519D01*
X0138644Y0053581D02*
X0138644Y0050550D01*
X0138644Y0048050D01*
X0134589Y0048050D01*
X0134589Y0050550D02*
X0138644Y0050550D01*
D439*
X0133644Y0055550D03*
X0123644Y0055550D03*
X0113644Y0055550D03*
X0103644Y0055550D03*
X0093644Y0055550D03*
X0083644Y0055550D03*
D440*
X0066144Y0059300D02*
X0066144Y0024300D01*
M02*
