G75*
%MOIN*%
%OFA0B0*%
%FSLAX25Y25*%
%IPPOS*%
%LPD*%
%AMOC8*
5,1,8,0,0,1.08239X$1,22.5*
%
%ADD10C,0.00000*%
%ADD11C,0.01600*%
%ADD12C,0.00400*%
%ADD13C,0.00600*%
%ADD14C,0.00500*%
%ADD15C,0.02400*%
%ADD16C,0.01300*%
%ADD17C,0.00800*%
%ADD18C,0.01000*%
D10*
X0016144Y0018050D02*
X0016146Y0018208D01*
X0016152Y0018365D01*
X0016162Y0018523D01*
X0016176Y0018680D01*
X0016194Y0018836D01*
X0016215Y0018993D01*
X0016241Y0019148D01*
X0016271Y0019303D01*
X0016304Y0019457D01*
X0016342Y0019610D01*
X0016383Y0019763D01*
X0016428Y0019914D01*
X0016477Y0020064D01*
X0016530Y0020212D01*
X0016586Y0020360D01*
X0016647Y0020505D01*
X0016710Y0020650D01*
X0016778Y0020792D01*
X0016849Y0020933D01*
X0016923Y0021072D01*
X0017001Y0021209D01*
X0017083Y0021344D01*
X0017167Y0021477D01*
X0017256Y0021608D01*
X0017347Y0021736D01*
X0017442Y0021863D01*
X0017539Y0021986D01*
X0017640Y0022108D01*
X0017744Y0022226D01*
X0017851Y0022342D01*
X0017961Y0022455D01*
X0018073Y0022566D01*
X0018189Y0022673D01*
X0018307Y0022778D01*
X0018427Y0022880D01*
X0018550Y0022978D01*
X0018676Y0023074D01*
X0018804Y0023166D01*
X0018934Y0023255D01*
X0019066Y0023341D01*
X0019201Y0023423D01*
X0019338Y0023502D01*
X0019476Y0023577D01*
X0019616Y0023649D01*
X0019759Y0023717D01*
X0019902Y0023782D01*
X0020048Y0023843D01*
X0020195Y0023900D01*
X0020343Y0023954D01*
X0020493Y0024004D01*
X0020643Y0024050D01*
X0020795Y0024092D01*
X0020948Y0024131D01*
X0021102Y0024165D01*
X0021257Y0024196D01*
X0021412Y0024222D01*
X0021568Y0024245D01*
X0021725Y0024264D01*
X0021882Y0024279D01*
X0022039Y0024290D01*
X0022197Y0024297D01*
X0022355Y0024300D01*
X0022512Y0024299D01*
X0022670Y0024294D01*
X0022827Y0024285D01*
X0022985Y0024272D01*
X0023141Y0024255D01*
X0023298Y0024234D01*
X0023453Y0024210D01*
X0023608Y0024181D01*
X0023763Y0024148D01*
X0023916Y0024112D01*
X0024069Y0024071D01*
X0024220Y0024027D01*
X0024370Y0023979D01*
X0024519Y0023928D01*
X0024667Y0023872D01*
X0024813Y0023813D01*
X0024958Y0023750D01*
X0025101Y0023683D01*
X0025242Y0023613D01*
X0025381Y0023540D01*
X0025519Y0023463D01*
X0025655Y0023382D01*
X0025788Y0023298D01*
X0025919Y0023211D01*
X0026048Y0023120D01*
X0026175Y0023026D01*
X0026300Y0022929D01*
X0026421Y0022829D01*
X0026541Y0022726D01*
X0026657Y0022620D01*
X0026771Y0022511D01*
X0026883Y0022399D01*
X0026991Y0022285D01*
X0027096Y0022167D01*
X0027199Y0022047D01*
X0027298Y0021925D01*
X0027394Y0021800D01*
X0027487Y0021672D01*
X0027577Y0021543D01*
X0027663Y0021411D01*
X0027747Y0021277D01*
X0027826Y0021141D01*
X0027903Y0021003D01*
X0027975Y0020863D01*
X0028044Y0020721D01*
X0028110Y0020578D01*
X0028172Y0020433D01*
X0028230Y0020286D01*
X0028285Y0020138D01*
X0028336Y0019989D01*
X0028383Y0019838D01*
X0028426Y0019687D01*
X0028465Y0019534D01*
X0028501Y0019380D01*
X0028532Y0019226D01*
X0028560Y0019071D01*
X0028584Y0018915D01*
X0028604Y0018758D01*
X0028620Y0018601D01*
X0028632Y0018444D01*
X0028640Y0018287D01*
X0028644Y0018129D01*
X0028644Y0017971D01*
X0028640Y0017813D01*
X0028632Y0017656D01*
X0028620Y0017499D01*
X0028604Y0017342D01*
X0028584Y0017185D01*
X0028560Y0017029D01*
X0028532Y0016874D01*
X0028501Y0016720D01*
X0028465Y0016566D01*
X0028426Y0016413D01*
X0028383Y0016262D01*
X0028336Y0016111D01*
X0028285Y0015962D01*
X0028230Y0015814D01*
X0028172Y0015667D01*
X0028110Y0015522D01*
X0028044Y0015379D01*
X0027975Y0015237D01*
X0027903Y0015097D01*
X0027826Y0014959D01*
X0027747Y0014823D01*
X0027663Y0014689D01*
X0027577Y0014557D01*
X0027487Y0014428D01*
X0027394Y0014300D01*
X0027298Y0014175D01*
X0027199Y0014053D01*
X0027096Y0013933D01*
X0026991Y0013815D01*
X0026883Y0013701D01*
X0026771Y0013589D01*
X0026657Y0013480D01*
X0026541Y0013374D01*
X0026421Y0013271D01*
X0026300Y0013171D01*
X0026175Y0013074D01*
X0026048Y0012980D01*
X0025919Y0012889D01*
X0025788Y0012802D01*
X0025655Y0012718D01*
X0025519Y0012637D01*
X0025381Y0012560D01*
X0025242Y0012487D01*
X0025101Y0012417D01*
X0024958Y0012350D01*
X0024813Y0012287D01*
X0024667Y0012228D01*
X0024519Y0012172D01*
X0024370Y0012121D01*
X0024220Y0012073D01*
X0024069Y0012029D01*
X0023916Y0011988D01*
X0023763Y0011952D01*
X0023608Y0011919D01*
X0023453Y0011890D01*
X0023298Y0011866D01*
X0023141Y0011845D01*
X0022985Y0011828D01*
X0022827Y0011815D01*
X0022670Y0011806D01*
X0022512Y0011801D01*
X0022355Y0011800D01*
X0022197Y0011803D01*
X0022039Y0011810D01*
X0021882Y0011821D01*
X0021725Y0011836D01*
X0021568Y0011855D01*
X0021412Y0011878D01*
X0021257Y0011904D01*
X0021102Y0011935D01*
X0020948Y0011969D01*
X0020795Y0012008D01*
X0020643Y0012050D01*
X0020493Y0012096D01*
X0020343Y0012146D01*
X0020195Y0012200D01*
X0020048Y0012257D01*
X0019902Y0012318D01*
X0019759Y0012383D01*
X0019616Y0012451D01*
X0019476Y0012523D01*
X0019338Y0012598D01*
X0019201Y0012677D01*
X0019066Y0012759D01*
X0018934Y0012845D01*
X0018804Y0012934D01*
X0018676Y0013026D01*
X0018550Y0013122D01*
X0018427Y0013220D01*
X0018307Y0013322D01*
X0018189Y0013427D01*
X0018073Y0013534D01*
X0017961Y0013645D01*
X0017851Y0013758D01*
X0017744Y0013874D01*
X0017640Y0013992D01*
X0017539Y0014114D01*
X0017442Y0014237D01*
X0017347Y0014364D01*
X0017256Y0014492D01*
X0017167Y0014623D01*
X0017083Y0014756D01*
X0017001Y0014891D01*
X0016923Y0015028D01*
X0016849Y0015167D01*
X0016778Y0015308D01*
X0016710Y0015450D01*
X0016647Y0015595D01*
X0016586Y0015740D01*
X0016530Y0015888D01*
X0016477Y0016036D01*
X0016428Y0016186D01*
X0016383Y0016337D01*
X0016342Y0016490D01*
X0016304Y0016643D01*
X0016271Y0016797D01*
X0016241Y0016952D01*
X0016215Y0017107D01*
X0016194Y0017264D01*
X0016176Y0017420D01*
X0016162Y0017577D01*
X0016152Y0017735D01*
X0016146Y0017892D01*
X0016144Y0018050D01*
X0186144Y0018050D02*
X0186146Y0018208D01*
X0186152Y0018365D01*
X0186162Y0018523D01*
X0186176Y0018680D01*
X0186194Y0018836D01*
X0186215Y0018993D01*
X0186241Y0019148D01*
X0186271Y0019303D01*
X0186304Y0019457D01*
X0186342Y0019610D01*
X0186383Y0019763D01*
X0186428Y0019914D01*
X0186477Y0020064D01*
X0186530Y0020212D01*
X0186586Y0020360D01*
X0186647Y0020505D01*
X0186710Y0020650D01*
X0186778Y0020792D01*
X0186849Y0020933D01*
X0186923Y0021072D01*
X0187001Y0021209D01*
X0187083Y0021344D01*
X0187167Y0021477D01*
X0187256Y0021608D01*
X0187347Y0021736D01*
X0187442Y0021863D01*
X0187539Y0021986D01*
X0187640Y0022108D01*
X0187744Y0022226D01*
X0187851Y0022342D01*
X0187961Y0022455D01*
X0188073Y0022566D01*
X0188189Y0022673D01*
X0188307Y0022778D01*
X0188427Y0022880D01*
X0188550Y0022978D01*
X0188676Y0023074D01*
X0188804Y0023166D01*
X0188934Y0023255D01*
X0189066Y0023341D01*
X0189201Y0023423D01*
X0189338Y0023502D01*
X0189476Y0023577D01*
X0189616Y0023649D01*
X0189759Y0023717D01*
X0189902Y0023782D01*
X0190048Y0023843D01*
X0190195Y0023900D01*
X0190343Y0023954D01*
X0190493Y0024004D01*
X0190643Y0024050D01*
X0190795Y0024092D01*
X0190948Y0024131D01*
X0191102Y0024165D01*
X0191257Y0024196D01*
X0191412Y0024222D01*
X0191568Y0024245D01*
X0191725Y0024264D01*
X0191882Y0024279D01*
X0192039Y0024290D01*
X0192197Y0024297D01*
X0192355Y0024300D01*
X0192512Y0024299D01*
X0192670Y0024294D01*
X0192827Y0024285D01*
X0192985Y0024272D01*
X0193141Y0024255D01*
X0193298Y0024234D01*
X0193453Y0024210D01*
X0193608Y0024181D01*
X0193763Y0024148D01*
X0193916Y0024112D01*
X0194069Y0024071D01*
X0194220Y0024027D01*
X0194370Y0023979D01*
X0194519Y0023928D01*
X0194667Y0023872D01*
X0194813Y0023813D01*
X0194958Y0023750D01*
X0195101Y0023683D01*
X0195242Y0023613D01*
X0195381Y0023540D01*
X0195519Y0023463D01*
X0195655Y0023382D01*
X0195788Y0023298D01*
X0195919Y0023211D01*
X0196048Y0023120D01*
X0196175Y0023026D01*
X0196300Y0022929D01*
X0196421Y0022829D01*
X0196541Y0022726D01*
X0196657Y0022620D01*
X0196771Y0022511D01*
X0196883Y0022399D01*
X0196991Y0022285D01*
X0197096Y0022167D01*
X0197199Y0022047D01*
X0197298Y0021925D01*
X0197394Y0021800D01*
X0197487Y0021672D01*
X0197577Y0021543D01*
X0197663Y0021411D01*
X0197747Y0021277D01*
X0197826Y0021141D01*
X0197903Y0021003D01*
X0197975Y0020863D01*
X0198044Y0020721D01*
X0198110Y0020578D01*
X0198172Y0020433D01*
X0198230Y0020286D01*
X0198285Y0020138D01*
X0198336Y0019989D01*
X0198383Y0019838D01*
X0198426Y0019687D01*
X0198465Y0019534D01*
X0198501Y0019380D01*
X0198532Y0019226D01*
X0198560Y0019071D01*
X0198584Y0018915D01*
X0198604Y0018758D01*
X0198620Y0018601D01*
X0198632Y0018444D01*
X0198640Y0018287D01*
X0198644Y0018129D01*
X0198644Y0017971D01*
X0198640Y0017813D01*
X0198632Y0017656D01*
X0198620Y0017499D01*
X0198604Y0017342D01*
X0198584Y0017185D01*
X0198560Y0017029D01*
X0198532Y0016874D01*
X0198501Y0016720D01*
X0198465Y0016566D01*
X0198426Y0016413D01*
X0198383Y0016262D01*
X0198336Y0016111D01*
X0198285Y0015962D01*
X0198230Y0015814D01*
X0198172Y0015667D01*
X0198110Y0015522D01*
X0198044Y0015379D01*
X0197975Y0015237D01*
X0197903Y0015097D01*
X0197826Y0014959D01*
X0197747Y0014823D01*
X0197663Y0014689D01*
X0197577Y0014557D01*
X0197487Y0014428D01*
X0197394Y0014300D01*
X0197298Y0014175D01*
X0197199Y0014053D01*
X0197096Y0013933D01*
X0196991Y0013815D01*
X0196883Y0013701D01*
X0196771Y0013589D01*
X0196657Y0013480D01*
X0196541Y0013374D01*
X0196421Y0013271D01*
X0196300Y0013171D01*
X0196175Y0013074D01*
X0196048Y0012980D01*
X0195919Y0012889D01*
X0195788Y0012802D01*
X0195655Y0012718D01*
X0195519Y0012637D01*
X0195381Y0012560D01*
X0195242Y0012487D01*
X0195101Y0012417D01*
X0194958Y0012350D01*
X0194813Y0012287D01*
X0194667Y0012228D01*
X0194519Y0012172D01*
X0194370Y0012121D01*
X0194220Y0012073D01*
X0194069Y0012029D01*
X0193916Y0011988D01*
X0193763Y0011952D01*
X0193608Y0011919D01*
X0193453Y0011890D01*
X0193298Y0011866D01*
X0193141Y0011845D01*
X0192985Y0011828D01*
X0192827Y0011815D01*
X0192670Y0011806D01*
X0192512Y0011801D01*
X0192355Y0011800D01*
X0192197Y0011803D01*
X0192039Y0011810D01*
X0191882Y0011821D01*
X0191725Y0011836D01*
X0191568Y0011855D01*
X0191412Y0011878D01*
X0191257Y0011904D01*
X0191102Y0011935D01*
X0190948Y0011969D01*
X0190795Y0012008D01*
X0190643Y0012050D01*
X0190493Y0012096D01*
X0190343Y0012146D01*
X0190195Y0012200D01*
X0190048Y0012257D01*
X0189902Y0012318D01*
X0189759Y0012383D01*
X0189616Y0012451D01*
X0189476Y0012523D01*
X0189338Y0012598D01*
X0189201Y0012677D01*
X0189066Y0012759D01*
X0188934Y0012845D01*
X0188804Y0012934D01*
X0188676Y0013026D01*
X0188550Y0013122D01*
X0188427Y0013220D01*
X0188307Y0013322D01*
X0188189Y0013427D01*
X0188073Y0013534D01*
X0187961Y0013645D01*
X0187851Y0013758D01*
X0187744Y0013874D01*
X0187640Y0013992D01*
X0187539Y0014114D01*
X0187442Y0014237D01*
X0187347Y0014364D01*
X0187256Y0014492D01*
X0187167Y0014623D01*
X0187083Y0014756D01*
X0187001Y0014891D01*
X0186923Y0015028D01*
X0186849Y0015167D01*
X0186778Y0015308D01*
X0186710Y0015450D01*
X0186647Y0015595D01*
X0186586Y0015740D01*
X0186530Y0015888D01*
X0186477Y0016036D01*
X0186428Y0016186D01*
X0186383Y0016337D01*
X0186342Y0016490D01*
X0186304Y0016643D01*
X0186271Y0016797D01*
X0186241Y0016952D01*
X0186215Y0017107D01*
X0186194Y0017264D01*
X0186176Y0017420D01*
X0186162Y0017577D01*
X0186152Y0017735D01*
X0186146Y0017892D01*
X0186144Y0018050D01*
X0186144Y0290550D02*
X0186146Y0290708D01*
X0186152Y0290865D01*
X0186162Y0291023D01*
X0186176Y0291180D01*
X0186194Y0291336D01*
X0186215Y0291493D01*
X0186241Y0291648D01*
X0186271Y0291803D01*
X0186304Y0291957D01*
X0186342Y0292110D01*
X0186383Y0292263D01*
X0186428Y0292414D01*
X0186477Y0292564D01*
X0186530Y0292712D01*
X0186586Y0292860D01*
X0186647Y0293005D01*
X0186710Y0293150D01*
X0186778Y0293292D01*
X0186849Y0293433D01*
X0186923Y0293572D01*
X0187001Y0293709D01*
X0187083Y0293844D01*
X0187167Y0293977D01*
X0187256Y0294108D01*
X0187347Y0294236D01*
X0187442Y0294363D01*
X0187539Y0294486D01*
X0187640Y0294608D01*
X0187744Y0294726D01*
X0187851Y0294842D01*
X0187961Y0294955D01*
X0188073Y0295066D01*
X0188189Y0295173D01*
X0188307Y0295278D01*
X0188427Y0295380D01*
X0188550Y0295478D01*
X0188676Y0295574D01*
X0188804Y0295666D01*
X0188934Y0295755D01*
X0189066Y0295841D01*
X0189201Y0295923D01*
X0189338Y0296002D01*
X0189476Y0296077D01*
X0189616Y0296149D01*
X0189759Y0296217D01*
X0189902Y0296282D01*
X0190048Y0296343D01*
X0190195Y0296400D01*
X0190343Y0296454D01*
X0190493Y0296504D01*
X0190643Y0296550D01*
X0190795Y0296592D01*
X0190948Y0296631D01*
X0191102Y0296665D01*
X0191257Y0296696D01*
X0191412Y0296722D01*
X0191568Y0296745D01*
X0191725Y0296764D01*
X0191882Y0296779D01*
X0192039Y0296790D01*
X0192197Y0296797D01*
X0192355Y0296800D01*
X0192512Y0296799D01*
X0192670Y0296794D01*
X0192827Y0296785D01*
X0192985Y0296772D01*
X0193141Y0296755D01*
X0193298Y0296734D01*
X0193453Y0296710D01*
X0193608Y0296681D01*
X0193763Y0296648D01*
X0193916Y0296612D01*
X0194069Y0296571D01*
X0194220Y0296527D01*
X0194370Y0296479D01*
X0194519Y0296428D01*
X0194667Y0296372D01*
X0194813Y0296313D01*
X0194958Y0296250D01*
X0195101Y0296183D01*
X0195242Y0296113D01*
X0195381Y0296040D01*
X0195519Y0295963D01*
X0195655Y0295882D01*
X0195788Y0295798D01*
X0195919Y0295711D01*
X0196048Y0295620D01*
X0196175Y0295526D01*
X0196300Y0295429D01*
X0196421Y0295329D01*
X0196541Y0295226D01*
X0196657Y0295120D01*
X0196771Y0295011D01*
X0196883Y0294899D01*
X0196991Y0294785D01*
X0197096Y0294667D01*
X0197199Y0294547D01*
X0197298Y0294425D01*
X0197394Y0294300D01*
X0197487Y0294172D01*
X0197577Y0294043D01*
X0197663Y0293911D01*
X0197747Y0293777D01*
X0197826Y0293641D01*
X0197903Y0293503D01*
X0197975Y0293363D01*
X0198044Y0293221D01*
X0198110Y0293078D01*
X0198172Y0292933D01*
X0198230Y0292786D01*
X0198285Y0292638D01*
X0198336Y0292489D01*
X0198383Y0292338D01*
X0198426Y0292187D01*
X0198465Y0292034D01*
X0198501Y0291880D01*
X0198532Y0291726D01*
X0198560Y0291571D01*
X0198584Y0291415D01*
X0198604Y0291258D01*
X0198620Y0291101D01*
X0198632Y0290944D01*
X0198640Y0290787D01*
X0198644Y0290629D01*
X0198644Y0290471D01*
X0198640Y0290313D01*
X0198632Y0290156D01*
X0198620Y0289999D01*
X0198604Y0289842D01*
X0198584Y0289685D01*
X0198560Y0289529D01*
X0198532Y0289374D01*
X0198501Y0289220D01*
X0198465Y0289066D01*
X0198426Y0288913D01*
X0198383Y0288762D01*
X0198336Y0288611D01*
X0198285Y0288462D01*
X0198230Y0288314D01*
X0198172Y0288167D01*
X0198110Y0288022D01*
X0198044Y0287879D01*
X0197975Y0287737D01*
X0197903Y0287597D01*
X0197826Y0287459D01*
X0197747Y0287323D01*
X0197663Y0287189D01*
X0197577Y0287057D01*
X0197487Y0286928D01*
X0197394Y0286800D01*
X0197298Y0286675D01*
X0197199Y0286553D01*
X0197096Y0286433D01*
X0196991Y0286315D01*
X0196883Y0286201D01*
X0196771Y0286089D01*
X0196657Y0285980D01*
X0196541Y0285874D01*
X0196421Y0285771D01*
X0196300Y0285671D01*
X0196175Y0285574D01*
X0196048Y0285480D01*
X0195919Y0285389D01*
X0195788Y0285302D01*
X0195655Y0285218D01*
X0195519Y0285137D01*
X0195381Y0285060D01*
X0195242Y0284987D01*
X0195101Y0284917D01*
X0194958Y0284850D01*
X0194813Y0284787D01*
X0194667Y0284728D01*
X0194519Y0284672D01*
X0194370Y0284621D01*
X0194220Y0284573D01*
X0194069Y0284529D01*
X0193916Y0284488D01*
X0193763Y0284452D01*
X0193608Y0284419D01*
X0193453Y0284390D01*
X0193298Y0284366D01*
X0193141Y0284345D01*
X0192985Y0284328D01*
X0192827Y0284315D01*
X0192670Y0284306D01*
X0192512Y0284301D01*
X0192355Y0284300D01*
X0192197Y0284303D01*
X0192039Y0284310D01*
X0191882Y0284321D01*
X0191725Y0284336D01*
X0191568Y0284355D01*
X0191412Y0284378D01*
X0191257Y0284404D01*
X0191102Y0284435D01*
X0190948Y0284469D01*
X0190795Y0284508D01*
X0190643Y0284550D01*
X0190493Y0284596D01*
X0190343Y0284646D01*
X0190195Y0284700D01*
X0190048Y0284757D01*
X0189902Y0284818D01*
X0189759Y0284883D01*
X0189616Y0284951D01*
X0189476Y0285023D01*
X0189338Y0285098D01*
X0189201Y0285177D01*
X0189066Y0285259D01*
X0188934Y0285345D01*
X0188804Y0285434D01*
X0188676Y0285526D01*
X0188550Y0285622D01*
X0188427Y0285720D01*
X0188307Y0285822D01*
X0188189Y0285927D01*
X0188073Y0286034D01*
X0187961Y0286145D01*
X0187851Y0286258D01*
X0187744Y0286374D01*
X0187640Y0286492D01*
X0187539Y0286614D01*
X0187442Y0286737D01*
X0187347Y0286864D01*
X0187256Y0286992D01*
X0187167Y0287123D01*
X0187083Y0287256D01*
X0187001Y0287391D01*
X0186923Y0287528D01*
X0186849Y0287667D01*
X0186778Y0287808D01*
X0186710Y0287950D01*
X0186647Y0288095D01*
X0186586Y0288240D01*
X0186530Y0288388D01*
X0186477Y0288536D01*
X0186428Y0288686D01*
X0186383Y0288837D01*
X0186342Y0288990D01*
X0186304Y0289143D01*
X0186271Y0289297D01*
X0186241Y0289452D01*
X0186215Y0289607D01*
X0186194Y0289764D01*
X0186176Y0289920D01*
X0186162Y0290077D01*
X0186152Y0290235D01*
X0186146Y0290392D01*
X0186144Y0290550D01*
X0017394Y0290550D02*
X0017396Y0290708D01*
X0017402Y0290865D01*
X0017412Y0291023D01*
X0017426Y0291180D01*
X0017444Y0291336D01*
X0017465Y0291493D01*
X0017491Y0291648D01*
X0017521Y0291803D01*
X0017554Y0291957D01*
X0017592Y0292110D01*
X0017633Y0292263D01*
X0017678Y0292414D01*
X0017727Y0292564D01*
X0017780Y0292712D01*
X0017836Y0292860D01*
X0017897Y0293005D01*
X0017960Y0293150D01*
X0018028Y0293292D01*
X0018099Y0293433D01*
X0018173Y0293572D01*
X0018251Y0293709D01*
X0018333Y0293844D01*
X0018417Y0293977D01*
X0018506Y0294108D01*
X0018597Y0294236D01*
X0018692Y0294363D01*
X0018789Y0294486D01*
X0018890Y0294608D01*
X0018994Y0294726D01*
X0019101Y0294842D01*
X0019211Y0294955D01*
X0019323Y0295066D01*
X0019439Y0295173D01*
X0019557Y0295278D01*
X0019677Y0295380D01*
X0019800Y0295478D01*
X0019926Y0295574D01*
X0020054Y0295666D01*
X0020184Y0295755D01*
X0020316Y0295841D01*
X0020451Y0295923D01*
X0020588Y0296002D01*
X0020726Y0296077D01*
X0020866Y0296149D01*
X0021009Y0296217D01*
X0021152Y0296282D01*
X0021298Y0296343D01*
X0021445Y0296400D01*
X0021593Y0296454D01*
X0021743Y0296504D01*
X0021893Y0296550D01*
X0022045Y0296592D01*
X0022198Y0296631D01*
X0022352Y0296665D01*
X0022507Y0296696D01*
X0022662Y0296722D01*
X0022818Y0296745D01*
X0022975Y0296764D01*
X0023132Y0296779D01*
X0023289Y0296790D01*
X0023447Y0296797D01*
X0023605Y0296800D01*
X0023762Y0296799D01*
X0023920Y0296794D01*
X0024077Y0296785D01*
X0024235Y0296772D01*
X0024391Y0296755D01*
X0024548Y0296734D01*
X0024703Y0296710D01*
X0024858Y0296681D01*
X0025013Y0296648D01*
X0025166Y0296612D01*
X0025319Y0296571D01*
X0025470Y0296527D01*
X0025620Y0296479D01*
X0025769Y0296428D01*
X0025917Y0296372D01*
X0026063Y0296313D01*
X0026208Y0296250D01*
X0026351Y0296183D01*
X0026492Y0296113D01*
X0026631Y0296040D01*
X0026769Y0295963D01*
X0026905Y0295882D01*
X0027038Y0295798D01*
X0027169Y0295711D01*
X0027298Y0295620D01*
X0027425Y0295526D01*
X0027550Y0295429D01*
X0027671Y0295329D01*
X0027791Y0295226D01*
X0027907Y0295120D01*
X0028021Y0295011D01*
X0028133Y0294899D01*
X0028241Y0294785D01*
X0028346Y0294667D01*
X0028449Y0294547D01*
X0028548Y0294425D01*
X0028644Y0294300D01*
X0028737Y0294172D01*
X0028827Y0294043D01*
X0028913Y0293911D01*
X0028997Y0293777D01*
X0029076Y0293641D01*
X0029153Y0293503D01*
X0029225Y0293363D01*
X0029294Y0293221D01*
X0029360Y0293078D01*
X0029422Y0292933D01*
X0029480Y0292786D01*
X0029535Y0292638D01*
X0029586Y0292489D01*
X0029633Y0292338D01*
X0029676Y0292187D01*
X0029715Y0292034D01*
X0029751Y0291880D01*
X0029782Y0291726D01*
X0029810Y0291571D01*
X0029834Y0291415D01*
X0029854Y0291258D01*
X0029870Y0291101D01*
X0029882Y0290944D01*
X0029890Y0290787D01*
X0029894Y0290629D01*
X0029894Y0290471D01*
X0029890Y0290313D01*
X0029882Y0290156D01*
X0029870Y0289999D01*
X0029854Y0289842D01*
X0029834Y0289685D01*
X0029810Y0289529D01*
X0029782Y0289374D01*
X0029751Y0289220D01*
X0029715Y0289066D01*
X0029676Y0288913D01*
X0029633Y0288762D01*
X0029586Y0288611D01*
X0029535Y0288462D01*
X0029480Y0288314D01*
X0029422Y0288167D01*
X0029360Y0288022D01*
X0029294Y0287879D01*
X0029225Y0287737D01*
X0029153Y0287597D01*
X0029076Y0287459D01*
X0028997Y0287323D01*
X0028913Y0287189D01*
X0028827Y0287057D01*
X0028737Y0286928D01*
X0028644Y0286800D01*
X0028548Y0286675D01*
X0028449Y0286553D01*
X0028346Y0286433D01*
X0028241Y0286315D01*
X0028133Y0286201D01*
X0028021Y0286089D01*
X0027907Y0285980D01*
X0027791Y0285874D01*
X0027671Y0285771D01*
X0027550Y0285671D01*
X0027425Y0285574D01*
X0027298Y0285480D01*
X0027169Y0285389D01*
X0027038Y0285302D01*
X0026905Y0285218D01*
X0026769Y0285137D01*
X0026631Y0285060D01*
X0026492Y0284987D01*
X0026351Y0284917D01*
X0026208Y0284850D01*
X0026063Y0284787D01*
X0025917Y0284728D01*
X0025769Y0284672D01*
X0025620Y0284621D01*
X0025470Y0284573D01*
X0025319Y0284529D01*
X0025166Y0284488D01*
X0025013Y0284452D01*
X0024858Y0284419D01*
X0024703Y0284390D01*
X0024548Y0284366D01*
X0024391Y0284345D01*
X0024235Y0284328D01*
X0024077Y0284315D01*
X0023920Y0284306D01*
X0023762Y0284301D01*
X0023605Y0284300D01*
X0023447Y0284303D01*
X0023289Y0284310D01*
X0023132Y0284321D01*
X0022975Y0284336D01*
X0022818Y0284355D01*
X0022662Y0284378D01*
X0022507Y0284404D01*
X0022352Y0284435D01*
X0022198Y0284469D01*
X0022045Y0284508D01*
X0021893Y0284550D01*
X0021743Y0284596D01*
X0021593Y0284646D01*
X0021445Y0284700D01*
X0021298Y0284757D01*
X0021152Y0284818D01*
X0021009Y0284883D01*
X0020866Y0284951D01*
X0020726Y0285023D01*
X0020588Y0285098D01*
X0020451Y0285177D01*
X0020316Y0285259D01*
X0020184Y0285345D01*
X0020054Y0285434D01*
X0019926Y0285526D01*
X0019800Y0285622D01*
X0019677Y0285720D01*
X0019557Y0285822D01*
X0019439Y0285927D01*
X0019323Y0286034D01*
X0019211Y0286145D01*
X0019101Y0286258D01*
X0018994Y0286374D01*
X0018890Y0286492D01*
X0018789Y0286614D01*
X0018692Y0286737D01*
X0018597Y0286864D01*
X0018506Y0286992D01*
X0018417Y0287123D01*
X0018333Y0287256D01*
X0018251Y0287391D01*
X0018173Y0287528D01*
X0018099Y0287667D01*
X0018028Y0287808D01*
X0017960Y0287950D01*
X0017897Y0288095D01*
X0017836Y0288240D01*
X0017780Y0288388D01*
X0017727Y0288536D01*
X0017678Y0288686D01*
X0017633Y0288837D01*
X0017592Y0288990D01*
X0017554Y0289143D01*
X0017521Y0289297D01*
X0017491Y0289452D01*
X0017465Y0289607D01*
X0017444Y0289764D01*
X0017426Y0289920D01*
X0017412Y0290077D01*
X0017402Y0290235D01*
X0017396Y0290392D01*
X0017394Y0290550D01*
D11*
X0008644Y0304398D02*
X0008644Y0005107D01*
X0207463Y0005107D01*
X0207463Y0304398D01*
X0008644Y0304398D01*
D12*
X0025561Y0263202D02*
X0025094Y0262735D01*
X0025094Y0260867D01*
X0025561Y0260400D01*
X0026495Y0260400D01*
X0026962Y0260867D01*
X0026962Y0262735D01*
X0026495Y0263202D01*
X0025561Y0263202D01*
X0028041Y0263202D02*
X0028041Y0260867D01*
X0028508Y0260400D01*
X0029442Y0260400D01*
X0029909Y0260867D01*
X0029909Y0263202D01*
X0030987Y0263202D02*
X0032855Y0263202D01*
X0031921Y0263202D02*
X0031921Y0260400D01*
X0033934Y0260400D02*
X0035802Y0260400D01*
X0034868Y0260400D02*
X0034868Y0263202D01*
X0033934Y0262268D01*
X0034401Y0253202D02*
X0033934Y0252735D01*
X0034401Y0253202D02*
X0035335Y0253202D01*
X0035802Y0252735D01*
X0035802Y0252268D01*
X0033934Y0250400D01*
X0035802Y0250400D01*
X0032855Y0253202D02*
X0030987Y0253202D01*
X0031921Y0253202D02*
X0031921Y0250400D01*
X0029909Y0250867D02*
X0029909Y0253202D01*
X0028041Y0253202D02*
X0028041Y0250867D01*
X0028508Y0250400D01*
X0029442Y0250400D01*
X0029909Y0250867D01*
X0026962Y0250867D02*
X0026962Y0252735D01*
X0026495Y0253202D01*
X0025561Y0253202D01*
X0025094Y0252735D01*
X0025094Y0250867D01*
X0025561Y0250400D01*
X0026495Y0250400D01*
X0026962Y0250867D01*
X0026495Y0243202D02*
X0026962Y0242735D01*
X0026962Y0240867D01*
X0026495Y0240400D01*
X0025561Y0240400D01*
X0025094Y0240867D01*
X0025094Y0242735D01*
X0025561Y0243202D01*
X0026495Y0243202D01*
X0028041Y0243202D02*
X0028041Y0240867D01*
X0028508Y0240400D01*
X0029442Y0240400D01*
X0029909Y0240867D01*
X0029909Y0243202D01*
X0030987Y0243202D02*
X0032855Y0243202D01*
X0031921Y0243202D02*
X0031921Y0240400D01*
X0033934Y0240867D02*
X0034401Y0240400D01*
X0035335Y0240400D01*
X0035802Y0240867D01*
X0035802Y0241334D01*
X0035335Y0241801D01*
X0034868Y0241801D01*
X0035335Y0241801D02*
X0035802Y0242268D01*
X0035802Y0242735D01*
X0035335Y0243202D01*
X0034401Y0243202D01*
X0033934Y0242735D01*
X0032855Y0233202D02*
X0030987Y0233202D01*
X0031921Y0233202D02*
X0031921Y0230400D01*
X0029909Y0230867D02*
X0029909Y0233202D01*
X0028041Y0233202D02*
X0028041Y0230867D01*
X0028508Y0230400D01*
X0029442Y0230400D01*
X0029909Y0230867D01*
X0033934Y0231801D02*
X0035802Y0231801D01*
X0035335Y0230400D02*
X0035335Y0233202D01*
X0033934Y0231801D01*
X0026962Y0230867D02*
X0026962Y0232735D01*
X0026495Y0233202D01*
X0025561Y0233202D01*
X0025094Y0232735D01*
X0025094Y0230867D01*
X0025561Y0230400D01*
X0026495Y0230400D01*
X0026962Y0230867D01*
X0026495Y0223202D02*
X0026962Y0222735D01*
X0026962Y0220867D01*
X0026495Y0220400D01*
X0025561Y0220400D01*
X0025094Y0220867D01*
X0025094Y0222735D01*
X0025561Y0223202D01*
X0026495Y0223202D01*
X0028041Y0223202D02*
X0028041Y0220867D01*
X0028508Y0220400D01*
X0029442Y0220400D01*
X0029909Y0220867D01*
X0029909Y0223202D01*
X0030987Y0223202D02*
X0032855Y0223202D01*
X0031921Y0223202D02*
X0031921Y0220400D01*
X0033934Y0220867D02*
X0034401Y0220400D01*
X0035335Y0220400D01*
X0035802Y0220867D01*
X0035802Y0221801D01*
X0035335Y0222268D01*
X0034868Y0222268D01*
X0033934Y0221801D01*
X0033934Y0223202D01*
X0035802Y0223202D01*
X0035802Y0213202D02*
X0034868Y0212735D01*
X0033934Y0211801D01*
X0035335Y0211801D01*
X0035802Y0211334D01*
X0035802Y0210867D01*
X0035335Y0210400D01*
X0034401Y0210400D01*
X0033934Y0210867D01*
X0033934Y0211801D01*
X0032855Y0213202D02*
X0030987Y0213202D01*
X0031921Y0213202D02*
X0031921Y0210400D01*
X0029909Y0210867D02*
X0029909Y0213202D01*
X0028041Y0213202D02*
X0028041Y0210867D01*
X0028508Y0210400D01*
X0029442Y0210400D01*
X0029909Y0210867D01*
X0026962Y0210867D02*
X0026962Y0212735D01*
X0026495Y0213202D01*
X0025561Y0213202D01*
X0025094Y0212735D01*
X0025094Y0210867D01*
X0025561Y0210400D01*
X0026495Y0210400D01*
X0026962Y0210867D01*
X0026495Y0203202D02*
X0026962Y0202735D01*
X0026962Y0200867D01*
X0026495Y0200400D01*
X0025561Y0200400D01*
X0025094Y0200867D01*
X0025094Y0202735D01*
X0025561Y0203202D01*
X0026495Y0203202D01*
X0028041Y0203202D02*
X0028041Y0200867D01*
X0028508Y0200400D01*
X0029442Y0200400D01*
X0029909Y0200867D01*
X0029909Y0203202D01*
X0030987Y0203202D02*
X0032855Y0203202D01*
X0031921Y0203202D02*
X0031921Y0200400D01*
X0033934Y0200400D02*
X0033934Y0200867D01*
X0035802Y0202735D01*
X0035802Y0203202D01*
X0033934Y0203202D01*
X0034401Y0193202D02*
X0033934Y0192735D01*
X0033934Y0192268D01*
X0034401Y0191801D01*
X0035335Y0191801D01*
X0035802Y0191334D01*
X0035802Y0190867D01*
X0035335Y0190400D01*
X0034401Y0190400D01*
X0033934Y0190867D01*
X0033934Y0191334D01*
X0034401Y0191801D01*
X0035335Y0191801D02*
X0035802Y0192268D01*
X0035802Y0192735D01*
X0035335Y0193202D01*
X0034401Y0193202D01*
X0032855Y0193202D02*
X0030987Y0193202D01*
X0031921Y0193202D02*
X0031921Y0190400D01*
X0029909Y0190867D02*
X0029909Y0193202D01*
X0028041Y0193202D02*
X0028041Y0190867D01*
X0028508Y0190400D01*
X0029442Y0190400D01*
X0029909Y0190867D01*
X0026962Y0190867D02*
X0026962Y0192735D01*
X0026495Y0193202D01*
X0025561Y0193202D01*
X0025094Y0192735D01*
X0025094Y0190867D01*
X0025561Y0190400D01*
X0026495Y0190400D01*
X0026962Y0190867D01*
X0027059Y0183202D02*
X0028927Y0180400D01*
X0028927Y0183202D01*
X0030005Y0182268D02*
X0030939Y0183202D01*
X0030939Y0180400D01*
X0030005Y0180400D02*
X0031873Y0180400D01*
X0027059Y0180400D02*
X0027059Y0183202D01*
X0026028Y0183202D02*
X0025094Y0183202D01*
X0025561Y0183202D02*
X0025561Y0180400D01*
X0025094Y0180400D02*
X0026028Y0180400D01*
X0026028Y0173202D02*
X0025094Y0173202D01*
X0025561Y0173202D02*
X0025561Y0170400D01*
X0025094Y0170400D02*
X0026028Y0170400D01*
X0027059Y0170400D02*
X0027059Y0173202D01*
X0028927Y0170400D01*
X0028927Y0173202D01*
X0030005Y0172735D02*
X0030472Y0173202D01*
X0031406Y0173202D01*
X0031873Y0172735D01*
X0031873Y0172268D01*
X0030005Y0170400D01*
X0031873Y0170400D01*
X0031258Y0169104D02*
X0030490Y0168337D01*
X0030490Y0167569D01*
X0031258Y0166802D01*
X0032792Y0166802D01*
X0033559Y0166035D01*
X0033559Y0165267D01*
X0032792Y0164500D01*
X0031258Y0164500D01*
X0030490Y0165267D01*
X0031258Y0169104D02*
X0032792Y0169104D01*
X0033559Y0168337D01*
X0028956Y0169104D02*
X0025886Y0169104D01*
X0024352Y0169104D02*
X0024352Y0165267D01*
X0023584Y0164500D01*
X0022050Y0164500D01*
X0021282Y0165267D01*
X0021282Y0169104D01*
X0019748Y0168337D02*
X0019748Y0166802D01*
X0018980Y0166035D01*
X0016678Y0166035D01*
X0016678Y0164500D02*
X0016678Y0169104D01*
X0018980Y0169104D01*
X0019748Y0168337D01*
X0015144Y0169104D02*
X0012075Y0169104D01*
X0013609Y0169104D02*
X0013609Y0164500D01*
X0010540Y0165267D02*
X0010540Y0169104D01*
X0007471Y0169104D02*
X0007471Y0165267D01*
X0008238Y0164500D01*
X0009773Y0164500D01*
X0010540Y0165267D01*
X0005936Y0165267D02*
X0005936Y0168337D01*
X0005169Y0169104D01*
X0003634Y0169104D01*
X0002867Y0168337D01*
X0002867Y0165267D01*
X0003634Y0164500D01*
X0005169Y0164500D01*
X0005936Y0165267D01*
X0027421Y0164500D02*
X0027421Y0169104D01*
X0036811Y0143202D02*
X0036344Y0142735D01*
X0036344Y0142268D01*
X0036811Y0141801D01*
X0037745Y0141801D01*
X0038212Y0141334D01*
X0038212Y0140867D01*
X0037745Y0140400D01*
X0036811Y0140400D01*
X0036344Y0140867D01*
X0036811Y0143202D02*
X0037745Y0143202D01*
X0038212Y0142735D01*
X0039291Y0143202D02*
X0039291Y0140400D01*
X0040225Y0141334D01*
X0041159Y0140400D01*
X0041159Y0143202D01*
X0042237Y0142268D02*
X0043171Y0143202D01*
X0043171Y0140400D01*
X0042237Y0140400D02*
X0044105Y0140400D01*
X0043171Y0133202D02*
X0043171Y0130400D01*
X0042237Y0130400D02*
X0044105Y0130400D01*
X0042237Y0132268D02*
X0043171Y0133202D01*
X0041159Y0133202D02*
X0041159Y0130400D01*
X0040225Y0131334D01*
X0039291Y0130400D01*
X0039291Y0133202D01*
X0038212Y0132735D02*
X0037745Y0133202D01*
X0036811Y0133202D01*
X0036344Y0132735D01*
X0036344Y0132268D01*
X0036811Y0131801D01*
X0037745Y0131801D01*
X0038212Y0131334D01*
X0038212Y0130867D01*
X0037745Y0130400D01*
X0036811Y0130400D01*
X0036344Y0130867D01*
X0036811Y0123202D02*
X0036344Y0122735D01*
X0036344Y0122268D01*
X0036811Y0121801D01*
X0037745Y0121801D01*
X0038212Y0121334D01*
X0038212Y0120867D01*
X0037745Y0120400D01*
X0036811Y0120400D01*
X0036344Y0120867D01*
X0036811Y0123202D02*
X0037745Y0123202D01*
X0038212Y0122735D01*
X0039291Y0123202D02*
X0039291Y0120400D01*
X0040225Y0121334D01*
X0041159Y0120400D01*
X0041159Y0123202D01*
X0042237Y0122268D02*
X0043171Y0123202D01*
X0043171Y0120400D01*
X0042237Y0120400D02*
X0044105Y0120400D01*
X0043638Y0113202D02*
X0042704Y0113202D01*
X0042237Y0112735D01*
X0041159Y0113202D02*
X0041159Y0110400D01*
X0040225Y0111334D01*
X0039291Y0110400D01*
X0039291Y0113202D01*
X0038212Y0112735D02*
X0037745Y0113202D01*
X0036811Y0113202D01*
X0036344Y0112735D01*
X0036344Y0112268D01*
X0036811Y0111801D01*
X0037745Y0111801D01*
X0038212Y0111334D01*
X0038212Y0110867D01*
X0037745Y0110400D01*
X0036811Y0110400D01*
X0036344Y0110867D01*
X0042237Y0110400D02*
X0044105Y0112268D01*
X0044105Y0112735D01*
X0043638Y0113202D01*
X0044105Y0110400D02*
X0042237Y0110400D01*
X0042704Y0103202D02*
X0042237Y0102735D01*
X0042704Y0103202D02*
X0043638Y0103202D01*
X0044105Y0102735D01*
X0044105Y0102268D01*
X0042237Y0100400D01*
X0044105Y0100400D01*
X0041159Y0100400D02*
X0041159Y0103202D01*
X0039291Y0103202D02*
X0039291Y0100400D01*
X0040225Y0101334D01*
X0041159Y0100400D01*
X0038212Y0100867D02*
X0037745Y0100400D01*
X0036811Y0100400D01*
X0036344Y0100867D01*
X0036811Y0101801D02*
X0037745Y0101801D01*
X0038212Y0101334D01*
X0038212Y0100867D01*
X0036811Y0101801D02*
X0036344Y0102268D01*
X0036344Y0102735D01*
X0036811Y0103202D01*
X0037745Y0103202D01*
X0038212Y0102735D01*
X0037745Y0093202D02*
X0036811Y0093202D01*
X0036344Y0092735D01*
X0036344Y0092268D01*
X0036811Y0091801D01*
X0037745Y0091801D01*
X0038212Y0091334D01*
X0038212Y0090867D01*
X0037745Y0090400D01*
X0036811Y0090400D01*
X0036344Y0090867D01*
X0038212Y0092735D02*
X0037745Y0093202D01*
X0039291Y0093202D02*
X0039291Y0090400D01*
X0040225Y0091334D01*
X0041159Y0090400D01*
X0041159Y0093202D01*
X0042237Y0092735D02*
X0042704Y0093202D01*
X0043638Y0093202D01*
X0044105Y0092735D01*
X0044105Y0092268D01*
X0042237Y0090400D01*
X0044105Y0090400D01*
X0043638Y0083202D02*
X0042237Y0083202D01*
X0042237Y0080400D01*
X0043638Y0080400D01*
X0044105Y0080867D01*
X0044105Y0082735D01*
X0043638Y0083202D01*
X0041159Y0083202D02*
X0041159Y0080400D01*
X0039291Y0083202D01*
X0039291Y0080400D01*
X0038212Y0080867D02*
X0038212Y0081801D01*
X0037278Y0081801D01*
X0036344Y0080867D02*
X0036811Y0080400D01*
X0037745Y0080400D01*
X0038212Y0080867D01*
X0036344Y0080867D02*
X0036344Y0082735D01*
X0036811Y0083202D01*
X0037745Y0083202D01*
X0038212Y0082735D01*
X0038212Y0073202D02*
X0038212Y0071334D01*
X0037278Y0070400D01*
X0036344Y0071334D01*
X0036344Y0073202D01*
X0039291Y0073202D02*
X0039291Y0070400D01*
X0040692Y0070400D01*
X0041159Y0070867D01*
X0041159Y0071334D01*
X0040692Y0071801D01*
X0039291Y0071801D01*
X0040692Y0071801D02*
X0041159Y0072268D01*
X0041159Y0072735D01*
X0040692Y0073202D01*
X0039291Y0073202D01*
X0042237Y0073202D02*
X0042237Y0070867D01*
X0042704Y0070400D01*
X0043638Y0070400D01*
X0044105Y0070867D01*
X0044105Y0073202D01*
X0045184Y0072735D02*
X0045184Y0072268D01*
X0045651Y0071801D01*
X0046585Y0071801D01*
X0047052Y0071334D01*
X0047052Y0070867D01*
X0046585Y0070400D01*
X0045651Y0070400D01*
X0045184Y0070867D01*
X0045184Y0072735D02*
X0045651Y0073202D01*
X0046585Y0073202D01*
X0047052Y0072735D01*
X0050642Y0069874D02*
X0051109Y0070342D01*
X0051576Y0070342D01*
X0052043Y0069874D01*
X0052043Y0068473D01*
X0052510Y0067395D02*
X0052977Y0067395D01*
X0053444Y0066928D01*
X0053444Y0065994D01*
X0052977Y0065527D01*
X0052043Y0065994D02*
X0052043Y0066928D01*
X0052510Y0067395D01*
X0051109Y0067395D02*
X0050642Y0066928D01*
X0050642Y0065994D01*
X0051109Y0065527D01*
X0051576Y0065527D01*
X0052043Y0065994D01*
X0052977Y0064448D02*
X0050642Y0064448D01*
X0050642Y0062580D02*
X0052977Y0062580D01*
X0053444Y0063047D01*
X0053444Y0063981D01*
X0052977Y0064448D01*
X0053444Y0068473D02*
X0050642Y0068473D01*
X0050642Y0069874D01*
X0052043Y0069874D02*
X0052510Y0070342D01*
X0052977Y0070342D01*
X0053444Y0069874D01*
X0053444Y0068473D01*
X0062709Y0084500D02*
X0064577Y0084500D01*
X0065044Y0084967D01*
X0065044Y0085901D01*
X0064577Y0086368D01*
X0063643Y0086368D01*
X0063643Y0085434D01*
X0062709Y0084500D02*
X0062242Y0084967D01*
X0062242Y0085901D01*
X0062709Y0086368D01*
X0062242Y0087447D02*
X0065044Y0089315D01*
X0062242Y0089315D01*
X0062242Y0090393D02*
X0062242Y0091794D01*
X0062709Y0092261D01*
X0064577Y0092261D01*
X0065044Y0091794D01*
X0065044Y0090393D01*
X0062242Y0090393D01*
X0062242Y0087447D02*
X0065044Y0087447D01*
X0072242Y0087447D02*
X0075044Y0089315D01*
X0072242Y0089315D01*
X0072242Y0090393D02*
X0072242Y0091794D01*
X0072709Y0092261D01*
X0074577Y0092261D01*
X0075044Y0091794D01*
X0075044Y0090393D01*
X0072242Y0090393D01*
X0072242Y0087447D02*
X0075044Y0087447D01*
X0074577Y0086368D02*
X0073643Y0086368D01*
X0073643Y0085434D01*
X0072709Y0084500D02*
X0074577Y0084500D01*
X0075044Y0084967D01*
X0075044Y0085901D01*
X0074577Y0086368D01*
X0072709Y0086368D02*
X0072242Y0085901D01*
X0072242Y0084967D01*
X0072709Y0084500D01*
X0082242Y0084500D02*
X0082242Y0085434D01*
X0082242Y0084967D02*
X0085044Y0084967D01*
X0085044Y0084500D02*
X0085044Y0085434D01*
X0085044Y0086464D02*
X0082242Y0086464D01*
X0085044Y0088333D01*
X0082242Y0088333D01*
X0082709Y0089411D02*
X0083176Y0089411D01*
X0083643Y0089878D01*
X0083643Y0090812D01*
X0084110Y0091279D01*
X0084577Y0091279D01*
X0085044Y0090812D01*
X0085044Y0089878D01*
X0084577Y0089411D01*
X0084110Y0089411D01*
X0083643Y0089878D01*
X0083643Y0090812D02*
X0083176Y0091279D01*
X0082709Y0091279D01*
X0082242Y0090812D01*
X0082242Y0089878D01*
X0082709Y0089411D01*
X0092242Y0089411D02*
X0092242Y0091279D01*
X0092709Y0091279D01*
X0094577Y0089411D01*
X0095044Y0089411D01*
X0095044Y0088333D02*
X0092242Y0088333D01*
X0092242Y0086464D02*
X0095044Y0088333D01*
X0095044Y0086464D02*
X0092242Y0086464D01*
X0092242Y0085434D02*
X0092242Y0084500D01*
X0092242Y0084967D02*
X0095044Y0084967D01*
X0095044Y0084500D02*
X0095044Y0085434D01*
X0102242Y0085434D02*
X0102242Y0084500D01*
X0102242Y0084967D02*
X0105044Y0084967D01*
X0105044Y0084500D02*
X0105044Y0085434D01*
X0105044Y0086464D02*
X0102242Y0086464D01*
X0105044Y0088333D01*
X0102242Y0088333D01*
X0103643Y0089411D02*
X0103643Y0090812D01*
X0104110Y0091279D01*
X0104577Y0091279D01*
X0105044Y0090812D01*
X0105044Y0089878D01*
X0104577Y0089411D01*
X0103643Y0089411D01*
X0102709Y0090345D01*
X0102242Y0091279D01*
X0112242Y0091279D02*
X0112242Y0089411D01*
X0113643Y0089411D01*
X0113176Y0090345D01*
X0113176Y0090812D01*
X0113643Y0091279D01*
X0114577Y0091279D01*
X0115044Y0090812D01*
X0115044Y0089878D01*
X0114577Y0089411D01*
X0115044Y0088333D02*
X0112242Y0088333D01*
X0112242Y0086464D02*
X0115044Y0088333D01*
X0115044Y0086464D02*
X0112242Y0086464D01*
X0112242Y0085434D02*
X0112242Y0084500D01*
X0112242Y0084967D02*
X0115044Y0084967D01*
X0115044Y0084500D02*
X0115044Y0085434D01*
X0122242Y0085434D02*
X0122242Y0084500D01*
X0122242Y0084967D02*
X0125044Y0084967D01*
X0125044Y0084500D02*
X0125044Y0085434D01*
X0125044Y0086464D02*
X0122242Y0086464D01*
X0125044Y0088333D01*
X0122242Y0088333D01*
X0123643Y0089411D02*
X0122242Y0090812D01*
X0125044Y0090812D01*
X0123643Y0091279D02*
X0123643Y0089411D01*
X0132242Y0089878D02*
X0132709Y0089411D01*
X0132242Y0089878D02*
X0132242Y0090812D01*
X0132709Y0091279D01*
X0133176Y0091279D01*
X0133643Y0090812D01*
X0134110Y0091279D01*
X0134577Y0091279D01*
X0135044Y0090812D01*
X0135044Y0089878D01*
X0134577Y0089411D01*
X0135044Y0088333D02*
X0132242Y0088333D01*
X0132242Y0086464D02*
X0135044Y0088333D01*
X0135044Y0086464D02*
X0132242Y0086464D01*
X0132242Y0085434D02*
X0132242Y0084500D01*
X0132242Y0084967D02*
X0135044Y0084967D01*
X0135044Y0084500D02*
X0135044Y0085434D01*
X0133643Y0090345D02*
X0133643Y0090812D01*
X0142242Y0090812D02*
X0142242Y0089878D01*
X0142709Y0089411D01*
X0142242Y0088333D02*
X0145044Y0088333D01*
X0142242Y0086464D01*
X0145044Y0086464D01*
X0145044Y0085434D02*
X0145044Y0084500D01*
X0145044Y0084967D02*
X0142242Y0084967D01*
X0142242Y0084500D02*
X0142242Y0085434D01*
X0145044Y0089411D02*
X0143176Y0091279D01*
X0142709Y0091279D01*
X0142242Y0090812D01*
X0145044Y0091279D02*
X0145044Y0089411D01*
X0152242Y0090345D02*
X0153176Y0089411D01*
X0152242Y0090345D02*
X0155044Y0090345D01*
X0155044Y0089411D02*
X0155044Y0091279D01*
X0155044Y0088333D02*
X0152242Y0088333D01*
X0152242Y0086464D02*
X0155044Y0088333D01*
X0155044Y0086464D02*
X0152242Y0086464D01*
X0152242Y0085434D02*
X0152242Y0084500D01*
X0152242Y0084967D02*
X0155044Y0084967D01*
X0155044Y0084500D02*
X0155044Y0085434D01*
X0160674Y0114500D02*
X0160674Y0117302D01*
X0162076Y0117302D01*
X0162543Y0116835D01*
X0162543Y0115901D01*
X0162076Y0115434D01*
X0160674Y0115434D01*
X0161609Y0115434D02*
X0162543Y0114500D01*
X0163621Y0114500D02*
X0163621Y0117302D01*
X0165489Y0117302D01*
X0166567Y0117302D02*
X0166567Y0115901D01*
X0167502Y0116368D01*
X0167969Y0116368D01*
X0168436Y0115901D01*
X0168436Y0114967D01*
X0167969Y0114500D01*
X0167035Y0114500D01*
X0166567Y0114967D01*
X0164555Y0115901D02*
X0163621Y0115901D01*
X0166567Y0117302D02*
X0168436Y0117302D01*
X0166495Y0124500D02*
X0165561Y0124500D01*
X0165094Y0124967D01*
X0165094Y0125901D02*
X0166028Y0126368D01*
X0166495Y0126368D01*
X0166962Y0125901D01*
X0166962Y0124967D01*
X0166495Y0124500D01*
X0165094Y0125901D02*
X0165094Y0127302D01*
X0166962Y0127302D01*
X0164016Y0126835D02*
X0164016Y0125901D01*
X0163549Y0125434D01*
X0162148Y0125434D01*
X0163082Y0125434D02*
X0164016Y0124500D01*
X0162148Y0124500D02*
X0162148Y0127302D01*
X0163549Y0127302D01*
X0164016Y0126835D01*
X0163573Y0134500D02*
X0162639Y0134500D01*
X0163106Y0134500D02*
X0163106Y0137302D01*
X0162639Y0137302D02*
X0163573Y0137302D01*
X0164603Y0137302D02*
X0164603Y0134500D01*
X0166471Y0134500D02*
X0164603Y0137302D01*
X0166471Y0137302D02*
X0166471Y0134500D01*
X0167550Y0134967D02*
X0168017Y0134500D01*
X0168951Y0134500D01*
X0169418Y0134967D01*
X0169418Y0135901D01*
X0168951Y0136368D01*
X0168484Y0136368D01*
X0167550Y0135901D01*
X0167550Y0137302D01*
X0169418Y0137302D01*
X0161561Y0136835D02*
X0161561Y0135901D01*
X0161093Y0135434D01*
X0159692Y0135434D01*
X0159692Y0134500D02*
X0159692Y0137302D01*
X0161093Y0137302D01*
X0161561Y0136835D01*
X0160626Y0135434D02*
X0161561Y0134500D01*
X0161561Y0154500D02*
X0160626Y0155434D01*
X0161093Y0155434D02*
X0159692Y0155434D01*
X0159692Y0154500D02*
X0159692Y0157302D01*
X0161093Y0157302D01*
X0161561Y0156835D01*
X0161561Y0155901D01*
X0161093Y0155434D01*
X0162639Y0154500D02*
X0163573Y0154500D01*
X0163106Y0154500D02*
X0163106Y0157302D01*
X0162639Y0157302D02*
X0163573Y0157302D01*
X0164603Y0157302D02*
X0166471Y0154500D01*
X0166471Y0157302D01*
X0167550Y0155901D02*
X0168951Y0155901D01*
X0169418Y0155434D01*
X0169418Y0154967D01*
X0168951Y0154500D01*
X0168017Y0154500D01*
X0167550Y0154967D01*
X0167550Y0155901D01*
X0168484Y0156835D01*
X0169418Y0157302D01*
X0164603Y0157302D02*
X0164603Y0154500D01*
X0164016Y0164500D02*
X0163082Y0165434D01*
X0163549Y0165434D02*
X0162148Y0165434D01*
X0162148Y0164500D02*
X0162148Y0167302D01*
X0163549Y0167302D01*
X0164016Y0166835D01*
X0164016Y0165901D01*
X0163549Y0165434D01*
X0165094Y0164967D02*
X0165561Y0164500D01*
X0166495Y0164500D01*
X0166962Y0164967D01*
X0166962Y0165434D01*
X0166495Y0165901D01*
X0165094Y0165901D01*
X0165094Y0164967D01*
X0165094Y0165901D02*
X0166028Y0166835D01*
X0166962Y0167302D01*
X0167035Y0174500D02*
X0167969Y0174500D01*
X0168436Y0174967D01*
X0168436Y0175434D01*
X0167969Y0175901D01*
X0166567Y0175901D01*
X0166567Y0174967D01*
X0167035Y0174500D01*
X0166567Y0175901D02*
X0167502Y0176835D01*
X0168436Y0177302D01*
X0165489Y0177302D02*
X0163621Y0177302D01*
X0163621Y0174500D01*
X0162543Y0174500D02*
X0161609Y0175434D01*
X0162076Y0175434D02*
X0160674Y0175434D01*
X0160674Y0174500D02*
X0160674Y0177302D01*
X0162076Y0177302D01*
X0162543Y0176835D01*
X0162543Y0175901D01*
X0162076Y0175434D01*
X0163621Y0175901D02*
X0164555Y0175901D01*
X0163621Y0204500D02*
X0163621Y0207302D01*
X0165489Y0207302D01*
X0166567Y0206368D02*
X0167502Y0207302D01*
X0167502Y0204500D01*
X0168436Y0204500D02*
X0166567Y0204500D01*
X0164555Y0205901D02*
X0163621Y0205901D01*
X0162543Y0205901D02*
X0162076Y0205434D01*
X0160674Y0205434D01*
X0160674Y0204500D02*
X0160674Y0207302D01*
X0162076Y0207302D01*
X0162543Y0206835D01*
X0162543Y0205901D01*
X0161609Y0205434D02*
X0162543Y0204500D01*
X0162148Y0214500D02*
X0162148Y0217302D01*
X0163549Y0217302D01*
X0164016Y0216835D01*
X0164016Y0215901D01*
X0163549Y0215434D01*
X0162148Y0215434D01*
X0163082Y0215434D02*
X0164016Y0214500D01*
X0165094Y0214500D02*
X0166962Y0214500D01*
X0166028Y0214500D02*
X0166028Y0217302D01*
X0165094Y0216368D01*
X0164603Y0224500D02*
X0164603Y0227302D01*
X0166471Y0224500D01*
X0166471Y0227302D01*
X0167550Y0226368D02*
X0168484Y0227302D01*
X0168484Y0224500D01*
X0167550Y0224500D02*
X0169418Y0224500D01*
X0163573Y0224500D02*
X0162639Y0224500D01*
X0163106Y0224500D02*
X0163106Y0227302D01*
X0162639Y0227302D02*
X0163573Y0227302D01*
X0161561Y0226835D02*
X0161561Y0225901D01*
X0161093Y0225434D01*
X0159692Y0225434D01*
X0159692Y0224500D02*
X0159692Y0227302D01*
X0161093Y0227302D01*
X0161561Y0226835D01*
X0160626Y0225434D02*
X0161561Y0224500D01*
X0161561Y0244500D02*
X0160626Y0245434D01*
X0161093Y0245434D02*
X0159692Y0245434D01*
X0159692Y0244500D02*
X0159692Y0247302D01*
X0161093Y0247302D01*
X0161561Y0246835D01*
X0161561Y0245901D01*
X0161093Y0245434D01*
X0162639Y0244500D02*
X0163573Y0244500D01*
X0163106Y0244500D02*
X0163106Y0247302D01*
X0162639Y0247302D02*
X0163573Y0247302D01*
X0164603Y0247302D02*
X0164603Y0244500D01*
X0166471Y0244500D02*
X0164603Y0247302D01*
X0166471Y0247302D02*
X0166471Y0244500D01*
X0167550Y0244500D02*
X0169418Y0246368D01*
X0169418Y0246835D01*
X0168951Y0247302D01*
X0168017Y0247302D01*
X0167550Y0246835D01*
X0167550Y0244500D02*
X0169418Y0244500D01*
X0166962Y0254500D02*
X0165094Y0254500D01*
X0166962Y0256368D01*
X0166962Y0256835D01*
X0166495Y0257302D01*
X0165561Y0257302D01*
X0165094Y0256835D01*
X0164016Y0256835D02*
X0164016Y0255901D01*
X0163549Y0255434D01*
X0162148Y0255434D01*
X0163082Y0255434D02*
X0164016Y0254500D01*
X0162148Y0254500D02*
X0162148Y0257302D01*
X0163549Y0257302D01*
X0164016Y0256835D01*
X0163621Y0264500D02*
X0163621Y0267302D01*
X0165489Y0267302D01*
X0166567Y0266835D02*
X0167035Y0267302D01*
X0167969Y0267302D01*
X0168436Y0266835D01*
X0168436Y0266368D01*
X0166567Y0264500D01*
X0168436Y0264500D01*
X0164555Y0265901D02*
X0163621Y0265901D01*
X0162543Y0265901D02*
X0162076Y0265434D01*
X0160674Y0265434D01*
X0160674Y0264500D02*
X0160674Y0267302D01*
X0162076Y0267302D01*
X0162543Y0266835D01*
X0162543Y0265901D01*
X0161609Y0265434D02*
X0162543Y0264500D01*
X0119061Y0293267D02*
X0118594Y0292800D01*
X0117193Y0292800D01*
X0117193Y0295602D01*
X0118594Y0295602D01*
X0119061Y0295135D01*
X0119061Y0294668D01*
X0118594Y0294201D01*
X0117193Y0294201D01*
X0118594Y0294201D02*
X0119061Y0293734D01*
X0119061Y0293267D01*
X0116114Y0293267D02*
X0115647Y0292800D01*
X0114713Y0292800D01*
X0114246Y0293267D01*
X0114246Y0295135D01*
X0114713Y0295602D01*
X0115647Y0295602D01*
X0116114Y0295135D01*
X0113168Y0295135D02*
X0113168Y0294201D01*
X0112701Y0293734D01*
X0111300Y0293734D01*
X0111300Y0292800D02*
X0111300Y0295602D01*
X0112701Y0295602D01*
X0113168Y0295135D01*
X0111719Y0290802D02*
X0112186Y0290335D01*
X0112186Y0289401D01*
X0111719Y0288934D01*
X0110317Y0288934D01*
X0110317Y0288000D02*
X0110317Y0290802D01*
X0111719Y0290802D01*
X0113264Y0289401D02*
X0115132Y0289401D01*
X0109239Y0288467D02*
X0109239Y0290335D01*
X0108772Y0290802D01*
X0107838Y0290802D01*
X0107371Y0290335D01*
X0107371Y0288467D01*
X0107838Y0288000D01*
X0108772Y0288000D01*
X0109239Y0288467D01*
X0107275Y0292800D02*
X0107275Y0295602D01*
X0105407Y0295602D02*
X0105407Y0292800D01*
X0104376Y0292800D02*
X0103442Y0292800D01*
X0103909Y0292800D02*
X0103909Y0295602D01*
X0103442Y0295602D02*
X0104376Y0295602D01*
X0105407Y0295602D02*
X0107275Y0292800D01*
X0106293Y0290802D02*
X0104424Y0290802D01*
X0105359Y0290802D02*
X0105359Y0288000D01*
X0103346Y0289401D02*
X0101478Y0289401D01*
X0102364Y0292800D02*
X0102364Y0294668D01*
X0101430Y0295602D01*
X0100496Y0294668D01*
X0100496Y0292800D01*
X0099417Y0292800D02*
X0099417Y0295602D01*
X0098483Y0294668D01*
X0097549Y0295602D01*
X0097549Y0292800D01*
X0100496Y0294201D02*
X0102364Y0294201D01*
X0073436Y0266835D02*
X0073436Y0266368D01*
X0072969Y0265901D01*
X0073436Y0265434D01*
X0073436Y0264967D01*
X0072969Y0264500D01*
X0072035Y0264500D01*
X0071567Y0264967D01*
X0072502Y0265901D02*
X0072969Y0265901D01*
X0073436Y0266835D02*
X0072969Y0267302D01*
X0072035Y0267302D01*
X0071567Y0266835D01*
X0070489Y0267302D02*
X0068621Y0267302D01*
X0068621Y0264500D01*
X0067543Y0264500D02*
X0066609Y0265434D01*
X0067076Y0265434D02*
X0065674Y0265434D01*
X0065674Y0264500D02*
X0065674Y0267302D01*
X0067076Y0267302D01*
X0067543Y0266835D01*
X0067543Y0265901D01*
X0067076Y0265434D01*
X0068621Y0265901D02*
X0069555Y0265901D01*
X0068549Y0257302D02*
X0067148Y0257302D01*
X0067148Y0254500D01*
X0067148Y0255434D02*
X0068549Y0255434D01*
X0069016Y0255901D01*
X0069016Y0256835D01*
X0068549Y0257302D01*
X0070094Y0256835D02*
X0070561Y0257302D01*
X0071495Y0257302D01*
X0071962Y0256835D01*
X0071962Y0256368D01*
X0071495Y0255901D01*
X0071962Y0255434D01*
X0071962Y0254967D01*
X0071495Y0254500D01*
X0070561Y0254500D01*
X0070094Y0254967D01*
X0069016Y0254500D02*
X0068082Y0255434D01*
X0071028Y0255901D02*
X0071495Y0255901D01*
X0071471Y0247302D02*
X0071471Y0244500D01*
X0069603Y0247302D01*
X0069603Y0244500D01*
X0068573Y0244500D02*
X0067639Y0244500D01*
X0068106Y0244500D02*
X0068106Y0247302D01*
X0067639Y0247302D02*
X0068573Y0247302D01*
X0066561Y0246835D02*
X0066561Y0245901D01*
X0066093Y0245434D01*
X0064692Y0245434D01*
X0064692Y0244500D02*
X0064692Y0247302D01*
X0066093Y0247302D01*
X0066561Y0246835D01*
X0065626Y0245434D02*
X0066561Y0244500D01*
X0072550Y0244967D02*
X0073017Y0244500D01*
X0073951Y0244500D01*
X0074418Y0244967D01*
X0074418Y0245434D01*
X0073951Y0245901D01*
X0073484Y0245901D01*
X0073951Y0245901D02*
X0074418Y0246368D01*
X0074418Y0246835D01*
X0073951Y0247302D01*
X0073017Y0247302D01*
X0072550Y0246835D01*
X0071471Y0227302D02*
X0071471Y0224500D01*
X0069603Y0227302D01*
X0069603Y0224500D01*
X0068573Y0224500D02*
X0067639Y0224500D01*
X0068106Y0224500D02*
X0068106Y0227302D01*
X0067639Y0227302D02*
X0068573Y0227302D01*
X0066561Y0226835D02*
X0066561Y0225901D01*
X0066093Y0225434D01*
X0064692Y0225434D01*
X0064692Y0224500D02*
X0064692Y0227302D01*
X0066093Y0227302D01*
X0066561Y0226835D01*
X0065626Y0225434D02*
X0066561Y0224500D01*
X0067148Y0217302D02*
X0068549Y0217302D01*
X0069016Y0216835D01*
X0069016Y0215901D01*
X0068549Y0215434D01*
X0067148Y0215434D01*
X0068082Y0215434D02*
X0069016Y0214500D01*
X0070094Y0215901D02*
X0071962Y0215901D01*
X0071495Y0214500D02*
X0071495Y0217302D01*
X0070094Y0215901D01*
X0067148Y0214500D02*
X0067148Y0217302D01*
X0073951Y0224500D02*
X0073951Y0227302D01*
X0072550Y0225901D01*
X0074418Y0225901D01*
X0072969Y0207302D02*
X0071567Y0205901D01*
X0073436Y0205901D01*
X0072969Y0204500D02*
X0072969Y0207302D01*
X0070489Y0207302D02*
X0068621Y0207302D01*
X0068621Y0204500D01*
X0067543Y0204500D02*
X0066609Y0205434D01*
X0067076Y0205434D02*
X0065674Y0205434D01*
X0065674Y0204500D02*
X0065674Y0207302D01*
X0067076Y0207302D01*
X0067543Y0206835D01*
X0067543Y0205901D01*
X0067076Y0205434D01*
X0068621Y0205901D02*
X0069555Y0205901D01*
X0070094Y0177302D02*
X0071962Y0177302D01*
X0071962Y0176835D01*
X0070094Y0174967D01*
X0070094Y0174500D01*
X0069016Y0174500D02*
X0068082Y0175434D01*
X0068549Y0175434D02*
X0067148Y0175434D01*
X0067148Y0174500D02*
X0067148Y0177302D01*
X0068549Y0177302D01*
X0069016Y0176835D01*
X0069016Y0175901D01*
X0068549Y0175434D01*
X0068621Y0167302D02*
X0070489Y0167302D01*
X0071567Y0167302D02*
X0073436Y0167302D01*
X0073436Y0166835D01*
X0071567Y0164967D01*
X0071567Y0164500D01*
X0069555Y0165901D02*
X0068621Y0165901D01*
X0067543Y0165901D02*
X0067543Y0166835D01*
X0067076Y0167302D01*
X0065674Y0167302D01*
X0065674Y0164500D01*
X0065674Y0165434D02*
X0067076Y0165434D01*
X0067543Y0165901D01*
X0066609Y0165434D02*
X0067543Y0164500D01*
X0068621Y0164500D02*
X0068621Y0167302D01*
X0068573Y0157302D02*
X0067639Y0157302D01*
X0068106Y0157302D02*
X0068106Y0154500D01*
X0067639Y0154500D02*
X0068573Y0154500D01*
X0069603Y0154500D02*
X0069603Y0157302D01*
X0071471Y0154500D01*
X0071471Y0157302D01*
X0072550Y0157302D02*
X0074418Y0157302D01*
X0074418Y0156835D01*
X0072550Y0154967D01*
X0072550Y0154500D01*
X0066561Y0154500D02*
X0065626Y0155434D01*
X0066093Y0155434D02*
X0064692Y0155434D01*
X0064692Y0154500D02*
X0064692Y0157302D01*
X0066093Y0157302D01*
X0066561Y0156835D01*
X0066561Y0155901D01*
X0066093Y0155434D01*
X0066093Y0137302D02*
X0064692Y0137302D01*
X0064692Y0134500D01*
X0064692Y0135434D02*
X0066093Y0135434D01*
X0066561Y0135901D01*
X0066561Y0136835D01*
X0066093Y0137302D01*
X0067639Y0137302D02*
X0068573Y0137302D01*
X0068106Y0137302D02*
X0068106Y0134500D01*
X0067639Y0134500D02*
X0068573Y0134500D01*
X0069603Y0134500D02*
X0069603Y0137302D01*
X0071471Y0134500D01*
X0071471Y0137302D01*
X0072550Y0136835D02*
X0072550Y0136368D01*
X0073017Y0135901D01*
X0073951Y0135901D01*
X0074418Y0135434D01*
X0074418Y0134967D01*
X0073951Y0134500D01*
X0073017Y0134500D01*
X0072550Y0134967D01*
X0072550Y0135434D01*
X0073017Y0135901D01*
X0073951Y0135901D02*
X0074418Y0136368D01*
X0074418Y0136835D01*
X0073951Y0137302D01*
X0073017Y0137302D01*
X0072550Y0136835D01*
X0066561Y0134500D02*
X0065626Y0135434D01*
X0067148Y0127302D02*
X0068549Y0127302D01*
X0069016Y0126835D01*
X0069016Y0125901D01*
X0068549Y0125434D01*
X0067148Y0125434D01*
X0068082Y0125434D02*
X0069016Y0124500D01*
X0070094Y0124967D02*
X0070094Y0125434D01*
X0070561Y0125901D01*
X0071495Y0125901D01*
X0071962Y0125434D01*
X0071962Y0124967D01*
X0071495Y0124500D01*
X0070561Y0124500D01*
X0070094Y0124967D01*
X0070561Y0125901D02*
X0070094Y0126368D01*
X0070094Y0126835D01*
X0070561Y0127302D01*
X0071495Y0127302D01*
X0071962Y0126835D01*
X0071962Y0126368D01*
X0071495Y0125901D01*
X0067148Y0124500D02*
X0067148Y0127302D01*
X0067076Y0117302D02*
X0065674Y0117302D01*
X0065674Y0114500D01*
X0065674Y0115434D02*
X0067076Y0115434D01*
X0067543Y0115901D01*
X0067543Y0116835D01*
X0067076Y0117302D01*
X0068621Y0117302D02*
X0068621Y0114500D01*
X0067543Y0114500D02*
X0066609Y0115434D01*
X0068621Y0115901D02*
X0069555Y0115901D01*
X0068621Y0117302D02*
X0070489Y0117302D01*
X0071567Y0116835D02*
X0072035Y0117302D01*
X0072969Y0117302D01*
X0073436Y0116835D01*
X0073436Y0116368D01*
X0072969Y0115901D01*
X0072035Y0115901D01*
X0071567Y0116368D01*
X0071567Y0116835D01*
X0072035Y0115901D02*
X0071567Y0115434D01*
X0071567Y0114967D01*
X0072035Y0114500D01*
X0072969Y0114500D01*
X0073436Y0114967D01*
X0073436Y0115434D01*
X0072969Y0115901D01*
X0041159Y0061801D02*
X0039291Y0061801D01*
X0038212Y0060867D02*
X0038212Y0062735D01*
X0037745Y0063202D01*
X0036344Y0063202D01*
X0036344Y0060400D01*
X0037745Y0060400D01*
X0038212Y0060867D01*
X0037745Y0053202D02*
X0036344Y0053202D01*
X0036344Y0050400D01*
X0037745Y0050400D01*
X0038212Y0050867D01*
X0038212Y0052735D01*
X0037745Y0053202D01*
X0039291Y0051801D02*
X0041159Y0051801D01*
X0040225Y0052735D02*
X0040225Y0050867D01*
X0180342Y0075483D02*
X0180342Y0076784D01*
X0180776Y0077217D01*
X0182510Y0077217D01*
X0182944Y0076784D01*
X0182944Y0075483D01*
X0180342Y0075483D01*
X0181643Y0078245D02*
X0181209Y0078679D01*
X0181209Y0079546D01*
X0181643Y0079980D01*
X0182077Y0079980D01*
X0182077Y0078245D01*
X0182510Y0078245D02*
X0181643Y0078245D01*
X0182510Y0078245D02*
X0182944Y0078679D01*
X0182944Y0079546D01*
X0182944Y0081007D02*
X0182944Y0082308D01*
X0182510Y0082742D01*
X0182077Y0082308D01*
X0182077Y0081441D01*
X0181643Y0081007D01*
X0181209Y0081441D01*
X0181209Y0082742D01*
X0181209Y0083770D02*
X0181209Y0084203D01*
X0182944Y0084203D01*
X0182944Y0083770D02*
X0182944Y0084637D01*
X0182510Y0085611D02*
X0182944Y0086045D01*
X0182944Y0087346D01*
X0183378Y0087346D02*
X0181209Y0087346D01*
X0181209Y0086045D01*
X0181643Y0085611D01*
X0182510Y0085611D01*
X0183812Y0086479D02*
X0183812Y0086912D01*
X0183378Y0087346D01*
X0182944Y0088374D02*
X0181209Y0088374D01*
X0181209Y0089675D01*
X0181643Y0090108D01*
X0182944Y0090108D01*
X0182510Y0091136D02*
X0181643Y0091136D01*
X0181209Y0091570D01*
X0181209Y0092437D01*
X0181643Y0092871D01*
X0182077Y0092871D01*
X0182077Y0091136D01*
X0182510Y0091136D02*
X0182944Y0091570D01*
X0182944Y0092437D01*
X0182510Y0093898D02*
X0181643Y0093898D01*
X0181209Y0094332D01*
X0181209Y0095633D01*
X0180342Y0095633D02*
X0182944Y0095633D01*
X0182944Y0094332D01*
X0182510Y0093898D01*
X0184408Y0098449D02*
X0184842Y0098449D01*
X0185709Y0098449D02*
X0187878Y0098449D01*
X0188312Y0098015D01*
X0188312Y0097581D01*
X0189342Y0097962D02*
X0189776Y0098395D01*
X0191510Y0096661D01*
X0191944Y0097094D01*
X0191944Y0097962D01*
X0191510Y0098395D01*
X0189776Y0098395D01*
X0189342Y0097962D02*
X0189342Y0097094D01*
X0189776Y0096661D01*
X0191510Y0096661D01*
X0191944Y0095633D02*
X0191944Y0093898D01*
X0190209Y0095633D01*
X0189776Y0095633D01*
X0189342Y0095199D01*
X0189342Y0094332D01*
X0189776Y0093898D01*
X0187444Y0093818D02*
X0187444Y0092951D01*
X0187010Y0092517D01*
X0186143Y0092517D01*
X0185709Y0092951D01*
X0185709Y0093818D01*
X0186143Y0094252D01*
X0186577Y0094252D01*
X0186577Y0092517D01*
X0186143Y0091490D02*
X0187444Y0091490D01*
X0186143Y0091490D02*
X0185709Y0091056D01*
X0185709Y0089755D01*
X0187444Y0089755D01*
X0187444Y0088727D02*
X0186143Y0088727D01*
X0185709Y0088293D01*
X0185709Y0087426D01*
X0186577Y0087426D02*
X0186577Y0088727D01*
X0187444Y0088727D02*
X0187444Y0087426D01*
X0187010Y0086992D01*
X0186577Y0087426D01*
X0186577Y0085965D02*
X0187010Y0085965D01*
X0187444Y0085531D01*
X0187444Y0084230D01*
X0184842Y0084230D01*
X0184842Y0085531D01*
X0185276Y0085965D01*
X0185709Y0085965D01*
X0186143Y0085531D01*
X0186143Y0084230D01*
X0186143Y0085531D02*
X0186577Y0085965D01*
X0186577Y0080440D02*
X0186577Y0079139D01*
X0187010Y0078705D01*
X0187444Y0079139D01*
X0187444Y0080440D01*
X0186143Y0080440D01*
X0185709Y0080006D01*
X0185709Y0079139D01*
X0185709Y0077678D02*
X0187878Y0077678D01*
X0188312Y0077244D01*
X0188312Y0076810D01*
X0187444Y0076377D02*
X0187444Y0077678D01*
X0187444Y0076377D02*
X0187010Y0075943D01*
X0185709Y0075943D01*
X0185709Y0074969D02*
X0187878Y0074969D01*
X0188312Y0074535D01*
X0188312Y0074101D01*
X0187444Y0071799D02*
X0185709Y0071799D01*
X0186577Y0071799D02*
X0185709Y0072667D01*
X0185709Y0073101D01*
X0184842Y0074969D02*
X0184408Y0074969D01*
X0185709Y0070772D02*
X0187444Y0070772D01*
X0187444Y0069471D01*
X0187010Y0069037D01*
X0185709Y0069037D01*
X0186143Y0068010D02*
X0187444Y0068010D01*
X0187444Y0066708D01*
X0187010Y0066275D01*
X0186577Y0066708D01*
X0186577Y0068010D01*
X0186143Y0068010D02*
X0185709Y0067576D01*
X0185709Y0066708D01*
X0186143Y0065247D02*
X0187444Y0065247D01*
X0186143Y0065247D02*
X0185709Y0064813D01*
X0185709Y0063946D01*
X0186143Y0063512D01*
X0186577Y0062485D02*
X0187010Y0062485D01*
X0187444Y0062051D01*
X0187444Y0061184D01*
X0187010Y0060750D01*
X0186143Y0061184D02*
X0186143Y0062051D01*
X0186577Y0062485D01*
X0185276Y0062485D02*
X0184842Y0062051D01*
X0184842Y0061184D01*
X0185276Y0060750D01*
X0185709Y0060750D01*
X0186143Y0061184D01*
X0184842Y0063512D02*
X0187444Y0063512D01*
X0180342Y0084203D02*
X0179908Y0084203D01*
X0185709Y0095279D02*
X0187444Y0095279D01*
X0186577Y0095279D02*
X0185709Y0096147D01*
X0185709Y0096581D01*
X0186143Y0099423D02*
X0185709Y0099857D01*
X0185709Y0100724D01*
X0186143Y0101158D01*
X0186577Y0101158D01*
X0186577Y0099423D01*
X0187010Y0099423D02*
X0186143Y0099423D01*
X0187010Y0099423D02*
X0187444Y0099857D01*
X0187444Y0100724D01*
X0187010Y0102185D02*
X0186143Y0102185D01*
X0185709Y0102619D01*
X0185709Y0103486D01*
X0186143Y0103920D01*
X0186577Y0103920D01*
X0186577Y0102185D01*
X0187010Y0102185D02*
X0187444Y0102619D01*
X0187444Y0103486D01*
X0189342Y0103920D02*
X0189776Y0103053D01*
X0190643Y0102185D01*
X0190643Y0103487D01*
X0191077Y0103920D01*
X0191510Y0103920D01*
X0191944Y0103487D01*
X0191944Y0102619D01*
X0191510Y0102185D01*
X0190643Y0102185D01*
X0191944Y0101158D02*
X0191944Y0099423D01*
X0191944Y0100290D02*
X0189342Y0100290D01*
X0190209Y0099423D01*
X0183812Y0103053D02*
X0183812Y0103486D01*
X0183378Y0103920D01*
X0181209Y0103920D01*
X0181209Y0102185D02*
X0182510Y0102185D01*
X0182944Y0102619D01*
X0182944Y0103920D01*
X0182510Y0101158D02*
X0181643Y0101158D01*
X0181209Y0100724D01*
X0181209Y0099423D01*
X0180342Y0099423D02*
X0182944Y0099423D01*
X0182944Y0100724D01*
X0182510Y0101158D01*
D13*
X0128894Y0110550D02*
X0121394Y0110550D01*
X0121392Y0110676D01*
X0121386Y0110801D01*
X0121376Y0110926D01*
X0121362Y0111051D01*
X0121345Y0111176D01*
X0121323Y0111300D01*
X0121298Y0111423D01*
X0121268Y0111545D01*
X0121235Y0111666D01*
X0121198Y0111786D01*
X0121158Y0111905D01*
X0121113Y0112022D01*
X0121065Y0112139D01*
X0121013Y0112253D01*
X0120958Y0112366D01*
X0120899Y0112477D01*
X0120837Y0112586D01*
X0120771Y0112693D01*
X0120702Y0112798D01*
X0120630Y0112901D01*
X0120555Y0113002D01*
X0120476Y0113100D01*
X0120394Y0113195D01*
X0120310Y0113288D01*
X0120222Y0113378D01*
X0120132Y0113466D01*
X0120039Y0113550D01*
X0119944Y0113632D01*
X0119846Y0113711D01*
X0119745Y0113786D01*
X0119642Y0113858D01*
X0119537Y0113927D01*
X0119430Y0113993D01*
X0119321Y0114055D01*
X0119210Y0114114D01*
X0119097Y0114169D01*
X0118983Y0114221D01*
X0118866Y0114269D01*
X0118749Y0114314D01*
X0118630Y0114354D01*
X0118510Y0114391D01*
X0118389Y0114424D01*
X0118267Y0114454D01*
X0118144Y0114479D01*
X0118020Y0114501D01*
X0117895Y0114518D01*
X0117770Y0114532D01*
X0117645Y0114542D01*
X0117520Y0114548D01*
X0117394Y0114550D01*
X0117268Y0114548D01*
X0117143Y0114542D01*
X0117018Y0114532D01*
X0116893Y0114518D01*
X0116768Y0114501D01*
X0116644Y0114479D01*
X0116521Y0114454D01*
X0116399Y0114424D01*
X0116278Y0114391D01*
X0116158Y0114354D01*
X0116039Y0114314D01*
X0115922Y0114269D01*
X0115805Y0114221D01*
X0115691Y0114169D01*
X0115578Y0114114D01*
X0115467Y0114055D01*
X0115358Y0113993D01*
X0115251Y0113927D01*
X0115146Y0113858D01*
X0115043Y0113786D01*
X0114942Y0113711D01*
X0114844Y0113632D01*
X0114749Y0113550D01*
X0114656Y0113466D01*
X0114566Y0113378D01*
X0114478Y0113288D01*
X0114394Y0113195D01*
X0114312Y0113100D01*
X0114233Y0113002D01*
X0114158Y0112901D01*
X0114086Y0112798D01*
X0114017Y0112693D01*
X0113951Y0112586D01*
X0113889Y0112477D01*
X0113830Y0112366D01*
X0113775Y0112253D01*
X0113723Y0112139D01*
X0113675Y0112022D01*
X0113630Y0111905D01*
X0113590Y0111786D01*
X0113553Y0111666D01*
X0113520Y0111545D01*
X0113490Y0111423D01*
X0113465Y0111300D01*
X0113443Y0111176D01*
X0113426Y0111051D01*
X0113412Y0110926D01*
X0113402Y0110801D01*
X0113396Y0110676D01*
X0113394Y0110550D01*
X0105894Y0110550D01*
X0105894Y0180550D01*
X0128894Y0180550D01*
X0128894Y0110550D01*
X0119594Y0139711D02*
X0119594Y0141179D01*
X0119594Y0140445D02*
X0115190Y0140445D01*
X0115190Y0139711D02*
X0115190Y0141179D01*
X0115924Y0142781D02*
X0118860Y0142781D01*
X0119594Y0143515D01*
X0119594Y0144983D01*
X0118860Y0145717D01*
X0119594Y0147385D02*
X0116658Y0150320D01*
X0115924Y0150320D01*
X0115190Y0149587D01*
X0115190Y0148119D01*
X0115924Y0147385D01*
X0115924Y0145717D02*
X0115190Y0144983D01*
X0115190Y0143515D01*
X0115924Y0142781D01*
X0119594Y0147385D02*
X0119594Y0150320D01*
X0121394Y0200550D02*
X0128894Y0200550D01*
X0128894Y0270550D01*
X0105894Y0270550D01*
X0105894Y0200550D01*
X0113394Y0200550D01*
X0113396Y0200676D01*
X0113402Y0200801D01*
X0113412Y0200926D01*
X0113426Y0201051D01*
X0113443Y0201176D01*
X0113465Y0201300D01*
X0113490Y0201423D01*
X0113520Y0201545D01*
X0113553Y0201666D01*
X0113590Y0201786D01*
X0113630Y0201905D01*
X0113675Y0202022D01*
X0113723Y0202139D01*
X0113775Y0202253D01*
X0113830Y0202366D01*
X0113889Y0202477D01*
X0113951Y0202586D01*
X0114017Y0202693D01*
X0114086Y0202798D01*
X0114158Y0202901D01*
X0114233Y0203002D01*
X0114312Y0203100D01*
X0114394Y0203195D01*
X0114478Y0203288D01*
X0114566Y0203378D01*
X0114656Y0203466D01*
X0114749Y0203550D01*
X0114844Y0203632D01*
X0114942Y0203711D01*
X0115043Y0203786D01*
X0115146Y0203858D01*
X0115251Y0203927D01*
X0115358Y0203993D01*
X0115467Y0204055D01*
X0115578Y0204114D01*
X0115691Y0204169D01*
X0115805Y0204221D01*
X0115922Y0204269D01*
X0116039Y0204314D01*
X0116158Y0204354D01*
X0116278Y0204391D01*
X0116399Y0204424D01*
X0116521Y0204454D01*
X0116644Y0204479D01*
X0116768Y0204501D01*
X0116893Y0204518D01*
X0117018Y0204532D01*
X0117143Y0204542D01*
X0117268Y0204548D01*
X0117394Y0204550D01*
X0117520Y0204548D01*
X0117645Y0204542D01*
X0117770Y0204532D01*
X0117895Y0204518D01*
X0118020Y0204501D01*
X0118144Y0204479D01*
X0118267Y0204454D01*
X0118389Y0204424D01*
X0118510Y0204391D01*
X0118630Y0204354D01*
X0118749Y0204314D01*
X0118866Y0204269D01*
X0118983Y0204221D01*
X0119097Y0204169D01*
X0119210Y0204114D01*
X0119321Y0204055D01*
X0119430Y0203993D01*
X0119537Y0203927D01*
X0119642Y0203858D01*
X0119745Y0203786D01*
X0119846Y0203711D01*
X0119944Y0203632D01*
X0120039Y0203550D01*
X0120132Y0203466D01*
X0120222Y0203378D01*
X0120310Y0203288D01*
X0120394Y0203195D01*
X0120476Y0203100D01*
X0120555Y0203002D01*
X0120630Y0202901D01*
X0120702Y0202798D01*
X0120771Y0202693D01*
X0120837Y0202586D01*
X0120899Y0202477D01*
X0120958Y0202366D01*
X0121013Y0202253D01*
X0121065Y0202139D01*
X0121113Y0202022D01*
X0121158Y0201905D01*
X0121198Y0201786D01*
X0121235Y0201666D01*
X0121268Y0201545D01*
X0121298Y0201423D01*
X0121323Y0201300D01*
X0121345Y0201176D01*
X0121362Y0201051D01*
X0121376Y0200926D01*
X0121386Y0200801D01*
X0121392Y0200676D01*
X0121394Y0200550D01*
X0119594Y0229711D02*
X0119594Y0231179D01*
X0119594Y0230445D02*
X0115190Y0230445D01*
X0115190Y0229711D02*
X0115190Y0231179D01*
X0115924Y0232781D02*
X0118860Y0232781D01*
X0119594Y0233515D01*
X0119594Y0234983D01*
X0118860Y0235717D01*
X0119594Y0237385D02*
X0119594Y0240320D01*
X0119594Y0238853D02*
X0115190Y0238853D01*
X0116658Y0237385D01*
X0115924Y0235717D02*
X0115190Y0234983D01*
X0115190Y0233515D01*
X0115924Y0232781D01*
D14*
X0193644Y0241800D02*
X0193644Y0141800D01*
X0203644Y0141800D01*
X0203644Y0241800D01*
X0193644Y0241800D01*
X0158644Y0081800D02*
X0158644Y0071800D01*
X0058644Y0071800D01*
X0058644Y0081800D01*
X0158644Y0081800D01*
X0149227Y0048068D02*
X0146891Y0048068D01*
X0146891Y0045733D02*
X0149227Y0045733D01*
X0150394Y0046901D01*
X0149227Y0048068D01*
X0150394Y0044385D02*
X0150394Y0042050D01*
X0148059Y0044385D01*
X0147475Y0044385D01*
X0146891Y0043801D01*
X0146891Y0042634D01*
X0147475Y0042050D01*
X0146891Y0039535D02*
X0150394Y0039535D01*
X0150394Y0040702D02*
X0150394Y0038367D01*
X0148643Y0037019D02*
X0148643Y0034684D01*
X0149810Y0035851D02*
X0147475Y0035851D01*
X0148059Y0038367D02*
X0146891Y0039535D01*
X0065394Y0039535D02*
X0061891Y0039535D01*
X0063059Y0038367D01*
X0063643Y0037019D02*
X0063643Y0034684D01*
X0065394Y0038367D02*
X0065394Y0040702D01*
X0065394Y0042050D02*
X0063059Y0044385D01*
X0062475Y0044385D01*
X0061891Y0043801D01*
X0061891Y0042634D01*
X0062475Y0042050D01*
X0065394Y0042050D02*
X0065394Y0044385D01*
X0064227Y0045733D02*
X0065394Y0046901D01*
X0064227Y0048068D01*
X0061891Y0048068D01*
X0061891Y0045733D02*
X0064227Y0045733D01*
X0034894Y0046800D02*
X0024894Y0046800D01*
X0024894Y0146800D01*
X0034894Y0146800D01*
X0034894Y0046800D01*
X0023644Y0046800D02*
X0013644Y0046800D01*
X0013644Y0146800D01*
X0023644Y0146800D01*
X0023644Y0046800D01*
X0023644Y0166800D02*
X0013644Y0166800D01*
X0013644Y0266800D01*
X0023644Y0266800D01*
X0023644Y0166800D01*
D15*
X0069894Y0055550D02*
X0069894Y0028050D01*
D16*
X0164343Y0038870D02*
X0165911Y0038870D01*
X0169047Y0038870D02*
X0175319Y0038870D01*
X0175319Y0037302D02*
X0175319Y0040438D01*
X0175319Y0043871D02*
X0169047Y0043871D01*
X0169047Y0048575D01*
X0170615Y0050143D01*
X0175319Y0050143D01*
X0173751Y0053723D02*
X0170615Y0053723D01*
X0169047Y0055291D01*
X0169047Y0059995D01*
X0170615Y0063576D02*
X0170615Y0068280D01*
X0172183Y0069848D01*
X0173751Y0069848D01*
X0175319Y0068280D01*
X0175319Y0063576D01*
X0165911Y0063576D01*
X0165911Y0068280D01*
X0167479Y0069848D01*
X0169047Y0069848D01*
X0170615Y0068280D01*
X0169047Y0073428D02*
X0175319Y0073428D01*
X0172183Y0073428D02*
X0169047Y0076564D01*
X0169047Y0078132D01*
X0169047Y0083206D02*
X0169047Y0086342D01*
X0170615Y0087910D01*
X0175319Y0087910D01*
X0175319Y0083206D01*
X0173751Y0081638D01*
X0172183Y0083206D01*
X0172183Y0087910D01*
X0169047Y0091491D02*
X0169047Y0093059D01*
X0175319Y0093059D01*
X0175319Y0091491D02*
X0175319Y0094627D01*
X0175319Y0098059D02*
X0169047Y0098059D01*
X0169047Y0102763D01*
X0170615Y0104331D01*
X0175319Y0104331D01*
X0165911Y0093059D02*
X0164343Y0093059D01*
X0165911Y0059995D02*
X0175319Y0059995D01*
X0175319Y0055291D01*
X0173751Y0053723D01*
X0169047Y0038870D02*
X0169047Y0037302D01*
X0165911Y0033722D02*
X0175319Y0033722D01*
X0175319Y0027450D02*
X0165911Y0027450D01*
X0169047Y0030586D01*
X0165911Y0033722D01*
D17*
X0180739Y0033277D02*
X0186544Y0033277D01*
X0186544Y0037147D01*
X0184609Y0039354D02*
X0186544Y0041289D01*
X0184609Y0043224D01*
X0180739Y0043224D01*
X0182674Y0045432D02*
X0180739Y0047367D01*
X0186544Y0047367D01*
X0186544Y0045432D02*
X0186544Y0049302D01*
X0184609Y0039354D02*
X0180739Y0039354D01*
X0180739Y0037147D02*
X0180739Y0033277D01*
X0181707Y0031070D02*
X0180739Y0030102D01*
X0180739Y0027200D01*
X0186544Y0027200D01*
X0184609Y0027200D02*
X0184609Y0030102D01*
X0183642Y0031070D01*
X0181707Y0031070D01*
X0183642Y0033277D02*
X0183642Y0035212D01*
X0186544Y0031070D02*
X0184609Y0029135D01*
X0177296Y0110826D02*
X0152493Y0110826D01*
X0152493Y0120274D01*
X0177296Y0120274D01*
X0177296Y0110826D01*
X0177296Y0120826D02*
X0152493Y0120826D01*
X0152493Y0130274D01*
X0177296Y0130274D01*
X0177296Y0120826D01*
X0177296Y0130826D02*
X0152493Y0130826D01*
X0152493Y0140274D01*
X0177296Y0140274D01*
X0177296Y0130826D01*
X0177296Y0150826D02*
X0152493Y0150826D01*
X0152493Y0160274D01*
X0177296Y0160274D01*
X0177296Y0150826D01*
X0177296Y0160826D02*
X0152493Y0160826D01*
X0152493Y0170274D01*
X0177296Y0170274D01*
X0177296Y0160826D01*
X0177296Y0170826D02*
X0152493Y0170826D01*
X0152493Y0180274D01*
X0177296Y0180274D01*
X0177296Y0170826D01*
X0177296Y0200826D02*
X0152493Y0200826D01*
X0152493Y0210274D01*
X0177296Y0210274D01*
X0177296Y0200826D01*
X0177296Y0210826D02*
X0152493Y0210826D01*
X0152493Y0220274D01*
X0177296Y0220274D01*
X0177296Y0210826D01*
X0177296Y0220826D02*
X0152493Y0220826D01*
X0152493Y0230274D01*
X0177296Y0230274D01*
X0177296Y0220826D01*
X0177296Y0240826D02*
X0152493Y0240826D01*
X0152493Y0250274D01*
X0177296Y0250274D01*
X0177296Y0240826D01*
X0177296Y0250826D02*
X0152493Y0250826D01*
X0152493Y0260274D01*
X0177296Y0260274D01*
X0177296Y0250826D01*
X0177296Y0260826D02*
X0152493Y0260826D01*
X0152493Y0270274D01*
X0177296Y0270274D01*
X0177296Y0260826D01*
X0082296Y0260826D02*
X0057493Y0260826D01*
X0057493Y0270274D01*
X0082296Y0270274D01*
X0082296Y0260826D01*
X0082296Y0260274D02*
X0082296Y0250826D01*
X0057493Y0250826D01*
X0057493Y0260274D01*
X0082296Y0260274D01*
X0082296Y0250274D02*
X0082296Y0240826D01*
X0057493Y0240826D01*
X0057493Y0250274D01*
X0082296Y0250274D01*
X0082296Y0230274D02*
X0082296Y0220826D01*
X0057493Y0220826D01*
X0057493Y0230274D01*
X0082296Y0230274D01*
X0082296Y0220274D02*
X0082296Y0210826D01*
X0057493Y0210826D01*
X0057493Y0220274D01*
X0082296Y0220274D01*
X0082296Y0210274D02*
X0057493Y0210274D01*
X0057493Y0200826D01*
X0082296Y0200826D01*
X0082296Y0210274D01*
X0082296Y0180274D02*
X0057493Y0180274D01*
X0057493Y0170826D01*
X0082296Y0170826D01*
X0082296Y0180274D01*
X0082296Y0170274D02*
X0082296Y0160826D01*
X0057493Y0160826D01*
X0057493Y0170274D01*
X0082296Y0170274D01*
X0082296Y0160274D02*
X0082296Y0150826D01*
X0057493Y0150826D01*
X0057493Y0160274D01*
X0082296Y0160274D01*
X0082296Y0140274D02*
X0082296Y0130826D01*
X0057493Y0130826D01*
X0057493Y0140274D01*
X0082296Y0140274D01*
X0082296Y0130274D02*
X0082296Y0120826D01*
X0057493Y0120826D01*
X0057493Y0130274D01*
X0082296Y0130274D01*
X0082296Y0120274D02*
X0057493Y0120274D01*
X0057493Y0110826D01*
X0082296Y0110826D01*
X0082296Y0120274D01*
D18*
X0071894Y0140550D02*
X0071894Y0150550D01*
X0092894Y0150550D01*
X0092894Y0140550D01*
X0071894Y0140550D01*
X0082394Y0143050D02*
X0082394Y0148050D01*
X0048644Y0086800D02*
X0043644Y0086800D01*
X0048644Y0086800D02*
X0048644Y0048050D01*
X0043644Y0048050D01*
X0141894Y0140550D02*
X0141894Y0150550D01*
X0162894Y0150550D01*
X0162894Y0140550D01*
X0141894Y0140550D01*
X0152394Y0143050D02*
X0152394Y0148050D01*
X0146894Y0230550D02*
X0146894Y0240550D01*
X0167894Y0240550D01*
X0167894Y0230550D01*
X0146894Y0230550D01*
X0157394Y0233050D02*
X0157394Y0238050D01*
X0092894Y0240550D02*
X0092894Y0230550D01*
X0071894Y0230550D01*
X0071894Y0240550D01*
X0092894Y0240550D01*
X0082394Y0238050D02*
X0082394Y0233050D01*
M02*
