%
M48
M72
T01C0.02362
T02C0.03200
T03C0.03543
T04C0.04000
T05C0.06693
T06C0.12500
%
T01
X58644Y21800
X69894Y101800
X102394Y193050
X72394Y195550
X68644Y291800
X158644Y124300
X198644Y111800
X169894Y195550
X198644Y255550
X164894Y291800
X158644Y21800
T02
X102394Y115550
X102394Y125550
X102394Y135550
X102394Y145550
X102394Y155550
X102394Y165550
X102394Y175550
X102394Y205550
X102394Y215550
X102394Y225550
X102394Y235550
X102394Y245550
X102394Y255550
X102394Y265550
X132394Y265550
X132394Y255550
X132394Y245550
X132394Y235550
X132394Y225550
X132394Y215550
X132394Y205550
X132394Y175550
X132394Y165550
X132394Y155550
X132394Y145550
X132394Y135550
X132394Y125550
X132394Y115550
T03
X49894Y115550
X49894Y125550
X49894Y135550
X49894Y155550
X49894Y165550
X49894Y175550
X49894Y205550
X49894Y215550
X49894Y225550
X49894Y245550
X49894Y255550
X49894Y265550
X89894Y265550
X89894Y255550
X89894Y245550
X89894Y225550
X89894Y215550
X89894Y205550
X89894Y175550
X89894Y165550
X89894Y155550
X89894Y135550
X89894Y125550
X89894Y115550
X144894Y115550
X144894Y125550
X144894Y135550
X144894Y155550
X144894Y165550
X144894Y175550
X144894Y205550
X144894Y215550
X144894Y225550
X144894Y245550
X144894Y255550
X144894Y265550
X184894Y265550
X184894Y255550
X184894Y245550
X184894Y225550
X184894Y215550
X184894Y205550
X184894Y175550
X184894Y165550
X184894Y155550
X184894Y135550
X184894Y125550
X184894Y115550
T04
X18644Y51800
X18644Y61800
X18644Y71800
X18644Y81800
X18644Y91800
X18644Y101800
X18644Y111800
X18644Y121800
X18644Y131800
X18644Y141800
X19894Y156800
X29894Y156800
X29894Y141800
X29894Y131800
X29894Y121800
X29894Y111800
X29894Y101800
X29894Y91800
X29894Y81800
X29894Y71800
X29894Y61800
X29894Y51800
X63644Y76800
X73644Y76800
X83644Y76800
X93644Y76800
X103644Y76800
X113644Y76800
X123644Y76800
X133644Y76800
X143644Y76800
X153644Y76800
X133644Y55550
X128644Y46800
X123644Y55550
X118644Y46800
X113644Y55550
X108644Y46800
X103644Y55550
X98644Y46800
X93644Y55550
X88644Y46800
X83644Y55550
X88644Y36800
X98644Y36800
X108644Y36800
X118644Y36800
X128644Y36800
X198644Y146800
X198644Y156800
X198644Y166800
X198644Y176800
X198644Y186800
X198644Y196800
X198644Y206800
X198644Y216800
X198644Y226800
X198644Y236800
X162894Y235550
X151894Y235550
X87894Y235550
X76894Y235550
X18644Y261800
X18644Y251800
X18644Y241800
X18644Y231800
X18644Y221800
X18644Y211800
X18644Y201800
X18644Y191800
X18644Y181800
X18644Y171800
X76894Y145550
X87894Y145550
X146894Y145550
X157894Y145550
T05
X85258Y28050
X100849Y28050
X116439Y28050
X132030Y28050
T06
X22394Y18050
X192394Y18050
X192394Y290550
X23644Y290550
M30
