G75*
%MOIN*%
%OFA0B0*%
%FSLAX25Y25*%
%IPPOS*%
%LPD*%
%AMOC8*
5,1,8,0,0,1.08239X$1,22.5*
%
%ADD10C,0.00000*%
%ADD11C,0.05200*%
%ADD12C,0.07400*%
%ADD13C,0.08000*%
%ADD14OC8,0.07400*%
%ADD15C,0.03962*%
%ADD16C,0.01600*%
%ADD17C,0.05000*%
D10*
X0003050Y0001000D02*
X0003050Y0188461D01*
X0321751Y0188461D01*
X0321751Y0001000D01*
X0003050Y0001000D01*
X0011751Y0016000D02*
X0011753Y0016158D01*
X0011759Y0016316D01*
X0011769Y0016474D01*
X0011783Y0016632D01*
X0011801Y0016789D01*
X0011822Y0016946D01*
X0011848Y0017102D01*
X0011878Y0017258D01*
X0011911Y0017413D01*
X0011949Y0017566D01*
X0011990Y0017719D01*
X0012035Y0017871D01*
X0012084Y0018022D01*
X0012137Y0018171D01*
X0012193Y0018319D01*
X0012253Y0018465D01*
X0012317Y0018610D01*
X0012385Y0018753D01*
X0012456Y0018895D01*
X0012530Y0019035D01*
X0012608Y0019172D01*
X0012690Y0019308D01*
X0012774Y0019442D01*
X0012863Y0019573D01*
X0012954Y0019702D01*
X0013049Y0019829D01*
X0013146Y0019954D01*
X0013247Y0020076D01*
X0013351Y0020195D01*
X0013458Y0020312D01*
X0013568Y0020426D01*
X0013681Y0020537D01*
X0013796Y0020646D01*
X0013914Y0020751D01*
X0014035Y0020853D01*
X0014158Y0020953D01*
X0014284Y0021049D01*
X0014412Y0021142D01*
X0014542Y0021232D01*
X0014675Y0021318D01*
X0014810Y0021402D01*
X0014946Y0021481D01*
X0015085Y0021558D01*
X0015226Y0021630D01*
X0015368Y0021700D01*
X0015512Y0021765D01*
X0015658Y0021827D01*
X0015805Y0021885D01*
X0015954Y0021940D01*
X0016104Y0021991D01*
X0016255Y0022038D01*
X0016407Y0022081D01*
X0016560Y0022120D01*
X0016715Y0022156D01*
X0016870Y0022187D01*
X0017026Y0022215D01*
X0017182Y0022239D01*
X0017339Y0022259D01*
X0017497Y0022275D01*
X0017654Y0022287D01*
X0017813Y0022295D01*
X0017971Y0022299D01*
X0018129Y0022299D01*
X0018287Y0022295D01*
X0018446Y0022287D01*
X0018603Y0022275D01*
X0018761Y0022259D01*
X0018918Y0022239D01*
X0019074Y0022215D01*
X0019230Y0022187D01*
X0019385Y0022156D01*
X0019540Y0022120D01*
X0019693Y0022081D01*
X0019845Y0022038D01*
X0019996Y0021991D01*
X0020146Y0021940D01*
X0020295Y0021885D01*
X0020442Y0021827D01*
X0020588Y0021765D01*
X0020732Y0021700D01*
X0020874Y0021630D01*
X0021015Y0021558D01*
X0021154Y0021481D01*
X0021290Y0021402D01*
X0021425Y0021318D01*
X0021558Y0021232D01*
X0021688Y0021142D01*
X0021816Y0021049D01*
X0021942Y0020953D01*
X0022065Y0020853D01*
X0022186Y0020751D01*
X0022304Y0020646D01*
X0022419Y0020537D01*
X0022532Y0020426D01*
X0022642Y0020312D01*
X0022749Y0020195D01*
X0022853Y0020076D01*
X0022954Y0019954D01*
X0023051Y0019829D01*
X0023146Y0019702D01*
X0023237Y0019573D01*
X0023326Y0019442D01*
X0023410Y0019308D01*
X0023492Y0019172D01*
X0023570Y0019035D01*
X0023644Y0018895D01*
X0023715Y0018753D01*
X0023783Y0018610D01*
X0023847Y0018465D01*
X0023907Y0018319D01*
X0023963Y0018171D01*
X0024016Y0018022D01*
X0024065Y0017871D01*
X0024110Y0017719D01*
X0024151Y0017566D01*
X0024189Y0017413D01*
X0024222Y0017258D01*
X0024252Y0017102D01*
X0024278Y0016946D01*
X0024299Y0016789D01*
X0024317Y0016632D01*
X0024331Y0016474D01*
X0024341Y0016316D01*
X0024347Y0016158D01*
X0024349Y0016000D01*
X0024347Y0015842D01*
X0024341Y0015684D01*
X0024331Y0015526D01*
X0024317Y0015368D01*
X0024299Y0015211D01*
X0024278Y0015054D01*
X0024252Y0014898D01*
X0024222Y0014742D01*
X0024189Y0014587D01*
X0024151Y0014434D01*
X0024110Y0014281D01*
X0024065Y0014129D01*
X0024016Y0013978D01*
X0023963Y0013829D01*
X0023907Y0013681D01*
X0023847Y0013535D01*
X0023783Y0013390D01*
X0023715Y0013247D01*
X0023644Y0013105D01*
X0023570Y0012965D01*
X0023492Y0012828D01*
X0023410Y0012692D01*
X0023326Y0012558D01*
X0023237Y0012427D01*
X0023146Y0012298D01*
X0023051Y0012171D01*
X0022954Y0012046D01*
X0022853Y0011924D01*
X0022749Y0011805D01*
X0022642Y0011688D01*
X0022532Y0011574D01*
X0022419Y0011463D01*
X0022304Y0011354D01*
X0022186Y0011249D01*
X0022065Y0011147D01*
X0021942Y0011047D01*
X0021816Y0010951D01*
X0021688Y0010858D01*
X0021558Y0010768D01*
X0021425Y0010682D01*
X0021290Y0010598D01*
X0021154Y0010519D01*
X0021015Y0010442D01*
X0020874Y0010370D01*
X0020732Y0010300D01*
X0020588Y0010235D01*
X0020442Y0010173D01*
X0020295Y0010115D01*
X0020146Y0010060D01*
X0019996Y0010009D01*
X0019845Y0009962D01*
X0019693Y0009919D01*
X0019540Y0009880D01*
X0019385Y0009844D01*
X0019230Y0009813D01*
X0019074Y0009785D01*
X0018918Y0009761D01*
X0018761Y0009741D01*
X0018603Y0009725D01*
X0018446Y0009713D01*
X0018287Y0009705D01*
X0018129Y0009701D01*
X0017971Y0009701D01*
X0017813Y0009705D01*
X0017654Y0009713D01*
X0017497Y0009725D01*
X0017339Y0009741D01*
X0017182Y0009761D01*
X0017026Y0009785D01*
X0016870Y0009813D01*
X0016715Y0009844D01*
X0016560Y0009880D01*
X0016407Y0009919D01*
X0016255Y0009962D01*
X0016104Y0010009D01*
X0015954Y0010060D01*
X0015805Y0010115D01*
X0015658Y0010173D01*
X0015512Y0010235D01*
X0015368Y0010300D01*
X0015226Y0010370D01*
X0015085Y0010442D01*
X0014946Y0010519D01*
X0014810Y0010598D01*
X0014675Y0010682D01*
X0014542Y0010768D01*
X0014412Y0010858D01*
X0014284Y0010951D01*
X0014158Y0011047D01*
X0014035Y0011147D01*
X0013914Y0011249D01*
X0013796Y0011354D01*
X0013681Y0011463D01*
X0013568Y0011574D01*
X0013458Y0011688D01*
X0013351Y0011805D01*
X0013247Y0011924D01*
X0013146Y0012046D01*
X0013049Y0012171D01*
X0012954Y0012298D01*
X0012863Y0012427D01*
X0012774Y0012558D01*
X0012690Y0012692D01*
X0012608Y0012828D01*
X0012530Y0012965D01*
X0012456Y0013105D01*
X0012385Y0013247D01*
X0012317Y0013390D01*
X0012253Y0013535D01*
X0012193Y0013681D01*
X0012137Y0013829D01*
X0012084Y0013978D01*
X0012035Y0014129D01*
X0011990Y0014281D01*
X0011949Y0014434D01*
X0011911Y0014587D01*
X0011878Y0014742D01*
X0011848Y0014898D01*
X0011822Y0015054D01*
X0011801Y0015211D01*
X0011783Y0015368D01*
X0011769Y0015526D01*
X0011759Y0015684D01*
X0011753Y0015842D01*
X0011751Y0016000D01*
X0011751Y0173500D02*
X0011753Y0173658D01*
X0011759Y0173816D01*
X0011769Y0173974D01*
X0011783Y0174132D01*
X0011801Y0174289D01*
X0011822Y0174446D01*
X0011848Y0174602D01*
X0011878Y0174758D01*
X0011911Y0174913D01*
X0011949Y0175066D01*
X0011990Y0175219D01*
X0012035Y0175371D01*
X0012084Y0175522D01*
X0012137Y0175671D01*
X0012193Y0175819D01*
X0012253Y0175965D01*
X0012317Y0176110D01*
X0012385Y0176253D01*
X0012456Y0176395D01*
X0012530Y0176535D01*
X0012608Y0176672D01*
X0012690Y0176808D01*
X0012774Y0176942D01*
X0012863Y0177073D01*
X0012954Y0177202D01*
X0013049Y0177329D01*
X0013146Y0177454D01*
X0013247Y0177576D01*
X0013351Y0177695D01*
X0013458Y0177812D01*
X0013568Y0177926D01*
X0013681Y0178037D01*
X0013796Y0178146D01*
X0013914Y0178251D01*
X0014035Y0178353D01*
X0014158Y0178453D01*
X0014284Y0178549D01*
X0014412Y0178642D01*
X0014542Y0178732D01*
X0014675Y0178818D01*
X0014810Y0178902D01*
X0014946Y0178981D01*
X0015085Y0179058D01*
X0015226Y0179130D01*
X0015368Y0179200D01*
X0015512Y0179265D01*
X0015658Y0179327D01*
X0015805Y0179385D01*
X0015954Y0179440D01*
X0016104Y0179491D01*
X0016255Y0179538D01*
X0016407Y0179581D01*
X0016560Y0179620D01*
X0016715Y0179656D01*
X0016870Y0179687D01*
X0017026Y0179715D01*
X0017182Y0179739D01*
X0017339Y0179759D01*
X0017497Y0179775D01*
X0017654Y0179787D01*
X0017813Y0179795D01*
X0017971Y0179799D01*
X0018129Y0179799D01*
X0018287Y0179795D01*
X0018446Y0179787D01*
X0018603Y0179775D01*
X0018761Y0179759D01*
X0018918Y0179739D01*
X0019074Y0179715D01*
X0019230Y0179687D01*
X0019385Y0179656D01*
X0019540Y0179620D01*
X0019693Y0179581D01*
X0019845Y0179538D01*
X0019996Y0179491D01*
X0020146Y0179440D01*
X0020295Y0179385D01*
X0020442Y0179327D01*
X0020588Y0179265D01*
X0020732Y0179200D01*
X0020874Y0179130D01*
X0021015Y0179058D01*
X0021154Y0178981D01*
X0021290Y0178902D01*
X0021425Y0178818D01*
X0021558Y0178732D01*
X0021688Y0178642D01*
X0021816Y0178549D01*
X0021942Y0178453D01*
X0022065Y0178353D01*
X0022186Y0178251D01*
X0022304Y0178146D01*
X0022419Y0178037D01*
X0022532Y0177926D01*
X0022642Y0177812D01*
X0022749Y0177695D01*
X0022853Y0177576D01*
X0022954Y0177454D01*
X0023051Y0177329D01*
X0023146Y0177202D01*
X0023237Y0177073D01*
X0023326Y0176942D01*
X0023410Y0176808D01*
X0023492Y0176672D01*
X0023570Y0176535D01*
X0023644Y0176395D01*
X0023715Y0176253D01*
X0023783Y0176110D01*
X0023847Y0175965D01*
X0023907Y0175819D01*
X0023963Y0175671D01*
X0024016Y0175522D01*
X0024065Y0175371D01*
X0024110Y0175219D01*
X0024151Y0175066D01*
X0024189Y0174913D01*
X0024222Y0174758D01*
X0024252Y0174602D01*
X0024278Y0174446D01*
X0024299Y0174289D01*
X0024317Y0174132D01*
X0024331Y0173974D01*
X0024341Y0173816D01*
X0024347Y0173658D01*
X0024349Y0173500D01*
X0024347Y0173342D01*
X0024341Y0173184D01*
X0024331Y0173026D01*
X0024317Y0172868D01*
X0024299Y0172711D01*
X0024278Y0172554D01*
X0024252Y0172398D01*
X0024222Y0172242D01*
X0024189Y0172087D01*
X0024151Y0171934D01*
X0024110Y0171781D01*
X0024065Y0171629D01*
X0024016Y0171478D01*
X0023963Y0171329D01*
X0023907Y0171181D01*
X0023847Y0171035D01*
X0023783Y0170890D01*
X0023715Y0170747D01*
X0023644Y0170605D01*
X0023570Y0170465D01*
X0023492Y0170328D01*
X0023410Y0170192D01*
X0023326Y0170058D01*
X0023237Y0169927D01*
X0023146Y0169798D01*
X0023051Y0169671D01*
X0022954Y0169546D01*
X0022853Y0169424D01*
X0022749Y0169305D01*
X0022642Y0169188D01*
X0022532Y0169074D01*
X0022419Y0168963D01*
X0022304Y0168854D01*
X0022186Y0168749D01*
X0022065Y0168647D01*
X0021942Y0168547D01*
X0021816Y0168451D01*
X0021688Y0168358D01*
X0021558Y0168268D01*
X0021425Y0168182D01*
X0021290Y0168098D01*
X0021154Y0168019D01*
X0021015Y0167942D01*
X0020874Y0167870D01*
X0020732Y0167800D01*
X0020588Y0167735D01*
X0020442Y0167673D01*
X0020295Y0167615D01*
X0020146Y0167560D01*
X0019996Y0167509D01*
X0019845Y0167462D01*
X0019693Y0167419D01*
X0019540Y0167380D01*
X0019385Y0167344D01*
X0019230Y0167313D01*
X0019074Y0167285D01*
X0018918Y0167261D01*
X0018761Y0167241D01*
X0018603Y0167225D01*
X0018446Y0167213D01*
X0018287Y0167205D01*
X0018129Y0167201D01*
X0017971Y0167201D01*
X0017813Y0167205D01*
X0017654Y0167213D01*
X0017497Y0167225D01*
X0017339Y0167241D01*
X0017182Y0167261D01*
X0017026Y0167285D01*
X0016870Y0167313D01*
X0016715Y0167344D01*
X0016560Y0167380D01*
X0016407Y0167419D01*
X0016255Y0167462D01*
X0016104Y0167509D01*
X0015954Y0167560D01*
X0015805Y0167615D01*
X0015658Y0167673D01*
X0015512Y0167735D01*
X0015368Y0167800D01*
X0015226Y0167870D01*
X0015085Y0167942D01*
X0014946Y0168019D01*
X0014810Y0168098D01*
X0014675Y0168182D01*
X0014542Y0168268D01*
X0014412Y0168358D01*
X0014284Y0168451D01*
X0014158Y0168547D01*
X0014035Y0168647D01*
X0013914Y0168749D01*
X0013796Y0168854D01*
X0013681Y0168963D01*
X0013568Y0169074D01*
X0013458Y0169188D01*
X0013351Y0169305D01*
X0013247Y0169424D01*
X0013146Y0169546D01*
X0013049Y0169671D01*
X0012954Y0169798D01*
X0012863Y0169927D01*
X0012774Y0170058D01*
X0012690Y0170192D01*
X0012608Y0170328D01*
X0012530Y0170465D01*
X0012456Y0170605D01*
X0012385Y0170747D01*
X0012317Y0170890D01*
X0012253Y0171035D01*
X0012193Y0171181D01*
X0012137Y0171329D01*
X0012084Y0171478D01*
X0012035Y0171629D01*
X0011990Y0171781D01*
X0011949Y0171934D01*
X0011911Y0172087D01*
X0011878Y0172242D01*
X0011848Y0172398D01*
X0011822Y0172554D01*
X0011801Y0172711D01*
X0011783Y0172868D01*
X0011769Y0173026D01*
X0011759Y0173184D01*
X0011753Y0173342D01*
X0011751Y0173500D01*
X0304251Y0178500D02*
X0304253Y0178658D01*
X0304259Y0178816D01*
X0304269Y0178974D01*
X0304283Y0179132D01*
X0304301Y0179289D01*
X0304322Y0179446D01*
X0304348Y0179602D01*
X0304378Y0179758D01*
X0304411Y0179913D01*
X0304449Y0180066D01*
X0304490Y0180219D01*
X0304535Y0180371D01*
X0304584Y0180522D01*
X0304637Y0180671D01*
X0304693Y0180819D01*
X0304753Y0180965D01*
X0304817Y0181110D01*
X0304885Y0181253D01*
X0304956Y0181395D01*
X0305030Y0181535D01*
X0305108Y0181672D01*
X0305190Y0181808D01*
X0305274Y0181942D01*
X0305363Y0182073D01*
X0305454Y0182202D01*
X0305549Y0182329D01*
X0305646Y0182454D01*
X0305747Y0182576D01*
X0305851Y0182695D01*
X0305958Y0182812D01*
X0306068Y0182926D01*
X0306181Y0183037D01*
X0306296Y0183146D01*
X0306414Y0183251D01*
X0306535Y0183353D01*
X0306658Y0183453D01*
X0306784Y0183549D01*
X0306912Y0183642D01*
X0307042Y0183732D01*
X0307175Y0183818D01*
X0307310Y0183902D01*
X0307446Y0183981D01*
X0307585Y0184058D01*
X0307726Y0184130D01*
X0307868Y0184200D01*
X0308012Y0184265D01*
X0308158Y0184327D01*
X0308305Y0184385D01*
X0308454Y0184440D01*
X0308604Y0184491D01*
X0308755Y0184538D01*
X0308907Y0184581D01*
X0309060Y0184620D01*
X0309215Y0184656D01*
X0309370Y0184687D01*
X0309526Y0184715D01*
X0309682Y0184739D01*
X0309839Y0184759D01*
X0309997Y0184775D01*
X0310154Y0184787D01*
X0310313Y0184795D01*
X0310471Y0184799D01*
X0310629Y0184799D01*
X0310787Y0184795D01*
X0310946Y0184787D01*
X0311103Y0184775D01*
X0311261Y0184759D01*
X0311418Y0184739D01*
X0311574Y0184715D01*
X0311730Y0184687D01*
X0311885Y0184656D01*
X0312040Y0184620D01*
X0312193Y0184581D01*
X0312345Y0184538D01*
X0312496Y0184491D01*
X0312646Y0184440D01*
X0312795Y0184385D01*
X0312942Y0184327D01*
X0313088Y0184265D01*
X0313232Y0184200D01*
X0313374Y0184130D01*
X0313515Y0184058D01*
X0313654Y0183981D01*
X0313790Y0183902D01*
X0313925Y0183818D01*
X0314058Y0183732D01*
X0314188Y0183642D01*
X0314316Y0183549D01*
X0314442Y0183453D01*
X0314565Y0183353D01*
X0314686Y0183251D01*
X0314804Y0183146D01*
X0314919Y0183037D01*
X0315032Y0182926D01*
X0315142Y0182812D01*
X0315249Y0182695D01*
X0315353Y0182576D01*
X0315454Y0182454D01*
X0315551Y0182329D01*
X0315646Y0182202D01*
X0315737Y0182073D01*
X0315826Y0181942D01*
X0315910Y0181808D01*
X0315992Y0181672D01*
X0316070Y0181535D01*
X0316144Y0181395D01*
X0316215Y0181253D01*
X0316283Y0181110D01*
X0316347Y0180965D01*
X0316407Y0180819D01*
X0316463Y0180671D01*
X0316516Y0180522D01*
X0316565Y0180371D01*
X0316610Y0180219D01*
X0316651Y0180066D01*
X0316689Y0179913D01*
X0316722Y0179758D01*
X0316752Y0179602D01*
X0316778Y0179446D01*
X0316799Y0179289D01*
X0316817Y0179132D01*
X0316831Y0178974D01*
X0316841Y0178816D01*
X0316847Y0178658D01*
X0316849Y0178500D01*
X0316847Y0178342D01*
X0316841Y0178184D01*
X0316831Y0178026D01*
X0316817Y0177868D01*
X0316799Y0177711D01*
X0316778Y0177554D01*
X0316752Y0177398D01*
X0316722Y0177242D01*
X0316689Y0177087D01*
X0316651Y0176934D01*
X0316610Y0176781D01*
X0316565Y0176629D01*
X0316516Y0176478D01*
X0316463Y0176329D01*
X0316407Y0176181D01*
X0316347Y0176035D01*
X0316283Y0175890D01*
X0316215Y0175747D01*
X0316144Y0175605D01*
X0316070Y0175465D01*
X0315992Y0175328D01*
X0315910Y0175192D01*
X0315826Y0175058D01*
X0315737Y0174927D01*
X0315646Y0174798D01*
X0315551Y0174671D01*
X0315454Y0174546D01*
X0315353Y0174424D01*
X0315249Y0174305D01*
X0315142Y0174188D01*
X0315032Y0174074D01*
X0314919Y0173963D01*
X0314804Y0173854D01*
X0314686Y0173749D01*
X0314565Y0173647D01*
X0314442Y0173547D01*
X0314316Y0173451D01*
X0314188Y0173358D01*
X0314058Y0173268D01*
X0313925Y0173182D01*
X0313790Y0173098D01*
X0313654Y0173019D01*
X0313515Y0172942D01*
X0313374Y0172870D01*
X0313232Y0172800D01*
X0313088Y0172735D01*
X0312942Y0172673D01*
X0312795Y0172615D01*
X0312646Y0172560D01*
X0312496Y0172509D01*
X0312345Y0172462D01*
X0312193Y0172419D01*
X0312040Y0172380D01*
X0311885Y0172344D01*
X0311730Y0172313D01*
X0311574Y0172285D01*
X0311418Y0172261D01*
X0311261Y0172241D01*
X0311103Y0172225D01*
X0310946Y0172213D01*
X0310787Y0172205D01*
X0310629Y0172201D01*
X0310471Y0172201D01*
X0310313Y0172205D01*
X0310154Y0172213D01*
X0309997Y0172225D01*
X0309839Y0172241D01*
X0309682Y0172261D01*
X0309526Y0172285D01*
X0309370Y0172313D01*
X0309215Y0172344D01*
X0309060Y0172380D01*
X0308907Y0172419D01*
X0308755Y0172462D01*
X0308604Y0172509D01*
X0308454Y0172560D01*
X0308305Y0172615D01*
X0308158Y0172673D01*
X0308012Y0172735D01*
X0307868Y0172800D01*
X0307726Y0172870D01*
X0307585Y0172942D01*
X0307446Y0173019D01*
X0307310Y0173098D01*
X0307175Y0173182D01*
X0307042Y0173268D01*
X0306912Y0173358D01*
X0306784Y0173451D01*
X0306658Y0173547D01*
X0306535Y0173647D01*
X0306414Y0173749D01*
X0306296Y0173854D01*
X0306181Y0173963D01*
X0306068Y0174074D01*
X0305958Y0174188D01*
X0305851Y0174305D01*
X0305747Y0174424D01*
X0305646Y0174546D01*
X0305549Y0174671D01*
X0305454Y0174798D01*
X0305363Y0174927D01*
X0305274Y0175058D01*
X0305190Y0175192D01*
X0305108Y0175328D01*
X0305030Y0175465D01*
X0304956Y0175605D01*
X0304885Y0175747D01*
X0304817Y0175890D01*
X0304753Y0176035D01*
X0304693Y0176181D01*
X0304637Y0176329D01*
X0304584Y0176478D01*
X0304535Y0176629D01*
X0304490Y0176781D01*
X0304449Y0176934D01*
X0304411Y0177087D01*
X0304378Y0177242D01*
X0304348Y0177398D01*
X0304322Y0177554D01*
X0304301Y0177711D01*
X0304283Y0177868D01*
X0304269Y0178026D01*
X0304259Y0178184D01*
X0304253Y0178342D01*
X0304251Y0178500D01*
X0304251Y0013500D02*
X0304253Y0013658D01*
X0304259Y0013816D01*
X0304269Y0013974D01*
X0304283Y0014132D01*
X0304301Y0014289D01*
X0304322Y0014446D01*
X0304348Y0014602D01*
X0304378Y0014758D01*
X0304411Y0014913D01*
X0304449Y0015066D01*
X0304490Y0015219D01*
X0304535Y0015371D01*
X0304584Y0015522D01*
X0304637Y0015671D01*
X0304693Y0015819D01*
X0304753Y0015965D01*
X0304817Y0016110D01*
X0304885Y0016253D01*
X0304956Y0016395D01*
X0305030Y0016535D01*
X0305108Y0016672D01*
X0305190Y0016808D01*
X0305274Y0016942D01*
X0305363Y0017073D01*
X0305454Y0017202D01*
X0305549Y0017329D01*
X0305646Y0017454D01*
X0305747Y0017576D01*
X0305851Y0017695D01*
X0305958Y0017812D01*
X0306068Y0017926D01*
X0306181Y0018037D01*
X0306296Y0018146D01*
X0306414Y0018251D01*
X0306535Y0018353D01*
X0306658Y0018453D01*
X0306784Y0018549D01*
X0306912Y0018642D01*
X0307042Y0018732D01*
X0307175Y0018818D01*
X0307310Y0018902D01*
X0307446Y0018981D01*
X0307585Y0019058D01*
X0307726Y0019130D01*
X0307868Y0019200D01*
X0308012Y0019265D01*
X0308158Y0019327D01*
X0308305Y0019385D01*
X0308454Y0019440D01*
X0308604Y0019491D01*
X0308755Y0019538D01*
X0308907Y0019581D01*
X0309060Y0019620D01*
X0309215Y0019656D01*
X0309370Y0019687D01*
X0309526Y0019715D01*
X0309682Y0019739D01*
X0309839Y0019759D01*
X0309997Y0019775D01*
X0310154Y0019787D01*
X0310313Y0019795D01*
X0310471Y0019799D01*
X0310629Y0019799D01*
X0310787Y0019795D01*
X0310946Y0019787D01*
X0311103Y0019775D01*
X0311261Y0019759D01*
X0311418Y0019739D01*
X0311574Y0019715D01*
X0311730Y0019687D01*
X0311885Y0019656D01*
X0312040Y0019620D01*
X0312193Y0019581D01*
X0312345Y0019538D01*
X0312496Y0019491D01*
X0312646Y0019440D01*
X0312795Y0019385D01*
X0312942Y0019327D01*
X0313088Y0019265D01*
X0313232Y0019200D01*
X0313374Y0019130D01*
X0313515Y0019058D01*
X0313654Y0018981D01*
X0313790Y0018902D01*
X0313925Y0018818D01*
X0314058Y0018732D01*
X0314188Y0018642D01*
X0314316Y0018549D01*
X0314442Y0018453D01*
X0314565Y0018353D01*
X0314686Y0018251D01*
X0314804Y0018146D01*
X0314919Y0018037D01*
X0315032Y0017926D01*
X0315142Y0017812D01*
X0315249Y0017695D01*
X0315353Y0017576D01*
X0315454Y0017454D01*
X0315551Y0017329D01*
X0315646Y0017202D01*
X0315737Y0017073D01*
X0315826Y0016942D01*
X0315910Y0016808D01*
X0315992Y0016672D01*
X0316070Y0016535D01*
X0316144Y0016395D01*
X0316215Y0016253D01*
X0316283Y0016110D01*
X0316347Y0015965D01*
X0316407Y0015819D01*
X0316463Y0015671D01*
X0316516Y0015522D01*
X0316565Y0015371D01*
X0316610Y0015219D01*
X0316651Y0015066D01*
X0316689Y0014913D01*
X0316722Y0014758D01*
X0316752Y0014602D01*
X0316778Y0014446D01*
X0316799Y0014289D01*
X0316817Y0014132D01*
X0316831Y0013974D01*
X0316841Y0013816D01*
X0316847Y0013658D01*
X0316849Y0013500D01*
X0316847Y0013342D01*
X0316841Y0013184D01*
X0316831Y0013026D01*
X0316817Y0012868D01*
X0316799Y0012711D01*
X0316778Y0012554D01*
X0316752Y0012398D01*
X0316722Y0012242D01*
X0316689Y0012087D01*
X0316651Y0011934D01*
X0316610Y0011781D01*
X0316565Y0011629D01*
X0316516Y0011478D01*
X0316463Y0011329D01*
X0316407Y0011181D01*
X0316347Y0011035D01*
X0316283Y0010890D01*
X0316215Y0010747D01*
X0316144Y0010605D01*
X0316070Y0010465D01*
X0315992Y0010328D01*
X0315910Y0010192D01*
X0315826Y0010058D01*
X0315737Y0009927D01*
X0315646Y0009798D01*
X0315551Y0009671D01*
X0315454Y0009546D01*
X0315353Y0009424D01*
X0315249Y0009305D01*
X0315142Y0009188D01*
X0315032Y0009074D01*
X0314919Y0008963D01*
X0314804Y0008854D01*
X0314686Y0008749D01*
X0314565Y0008647D01*
X0314442Y0008547D01*
X0314316Y0008451D01*
X0314188Y0008358D01*
X0314058Y0008268D01*
X0313925Y0008182D01*
X0313790Y0008098D01*
X0313654Y0008019D01*
X0313515Y0007942D01*
X0313374Y0007870D01*
X0313232Y0007800D01*
X0313088Y0007735D01*
X0312942Y0007673D01*
X0312795Y0007615D01*
X0312646Y0007560D01*
X0312496Y0007509D01*
X0312345Y0007462D01*
X0312193Y0007419D01*
X0312040Y0007380D01*
X0311885Y0007344D01*
X0311730Y0007313D01*
X0311574Y0007285D01*
X0311418Y0007261D01*
X0311261Y0007241D01*
X0311103Y0007225D01*
X0310946Y0007213D01*
X0310787Y0007205D01*
X0310629Y0007201D01*
X0310471Y0007201D01*
X0310313Y0007205D01*
X0310154Y0007213D01*
X0309997Y0007225D01*
X0309839Y0007241D01*
X0309682Y0007261D01*
X0309526Y0007285D01*
X0309370Y0007313D01*
X0309215Y0007344D01*
X0309060Y0007380D01*
X0308907Y0007419D01*
X0308755Y0007462D01*
X0308604Y0007509D01*
X0308454Y0007560D01*
X0308305Y0007615D01*
X0308158Y0007673D01*
X0308012Y0007735D01*
X0307868Y0007800D01*
X0307726Y0007870D01*
X0307585Y0007942D01*
X0307446Y0008019D01*
X0307310Y0008098D01*
X0307175Y0008182D01*
X0307042Y0008268D01*
X0306912Y0008358D01*
X0306784Y0008451D01*
X0306658Y0008547D01*
X0306535Y0008647D01*
X0306414Y0008749D01*
X0306296Y0008854D01*
X0306181Y0008963D01*
X0306068Y0009074D01*
X0305958Y0009188D01*
X0305851Y0009305D01*
X0305747Y0009424D01*
X0305646Y0009546D01*
X0305549Y0009671D01*
X0305454Y0009798D01*
X0305363Y0009927D01*
X0305274Y0010058D01*
X0305190Y0010192D01*
X0305108Y0010328D01*
X0305030Y0010465D01*
X0304956Y0010605D01*
X0304885Y0010747D01*
X0304817Y0010890D01*
X0304753Y0011035D01*
X0304693Y0011181D01*
X0304637Y0011329D01*
X0304584Y0011478D01*
X0304535Y0011629D01*
X0304490Y0011781D01*
X0304449Y0011934D01*
X0304411Y0012087D01*
X0304378Y0012242D01*
X0304348Y0012398D01*
X0304322Y0012554D01*
X0304301Y0012711D01*
X0304283Y0012868D01*
X0304269Y0013026D01*
X0304259Y0013184D01*
X0304253Y0013342D01*
X0304251Y0013500D01*
D11*
X0263050Y0080900D02*
X0263050Y0086100D01*
X0253050Y0086100D02*
X0253050Y0080900D01*
X0243050Y0080900D02*
X0243050Y0086100D01*
X0233050Y0086100D02*
X0233050Y0080900D01*
X0223050Y0080900D02*
X0223050Y0086100D01*
X0213050Y0086100D02*
X0213050Y0080900D01*
X0203050Y0080900D02*
X0203050Y0086100D01*
X0163050Y0086100D02*
X0163050Y0080900D01*
X0153050Y0080900D02*
X0153050Y0086100D01*
X0143050Y0086100D02*
X0143050Y0080900D01*
X0133050Y0080900D02*
X0133050Y0086100D01*
X0123050Y0086100D02*
X0123050Y0080900D01*
X0113050Y0080900D02*
X0113050Y0086100D01*
X0103050Y0086100D02*
X0103050Y0080900D01*
X0103050Y0110900D02*
X0103050Y0116100D01*
X0113050Y0116100D02*
X0113050Y0110900D01*
X0123050Y0110900D02*
X0123050Y0116100D01*
X0133050Y0116100D02*
X0133050Y0110900D01*
X0143050Y0110900D02*
X0143050Y0116100D01*
X0153050Y0116100D02*
X0153050Y0110900D01*
X0163050Y0110900D02*
X0163050Y0116100D01*
X0203050Y0116100D02*
X0203050Y0110900D01*
X0213050Y0110900D02*
X0213050Y0116100D01*
X0223050Y0116100D02*
X0223050Y0110900D01*
X0233050Y0110900D02*
X0233050Y0116100D01*
X0243050Y0116100D02*
X0243050Y0110900D01*
X0253050Y0110900D02*
X0253050Y0116100D01*
X0263050Y0116100D02*
X0263050Y0110900D01*
D12*
X0258050Y0128500D03*
X0268050Y0128500D03*
X0243050Y0128500D03*
X0223050Y0128500D03*
X0208050Y0128500D03*
X0198050Y0128500D03*
X0168050Y0128500D03*
X0158050Y0128500D03*
X0143050Y0128500D03*
X0123050Y0128500D03*
X0108050Y0128500D03*
X0098050Y0128500D03*
X0068050Y0123500D03*
X0068050Y0113500D03*
X0068050Y0103500D03*
X0068050Y0093500D03*
X0068050Y0083500D03*
X0068050Y0073500D03*
X0068050Y0063500D03*
X0068050Y0053500D03*
X0098050Y0068500D03*
X0108050Y0068500D03*
X0123050Y0068500D03*
X0143050Y0068500D03*
X0158050Y0068500D03*
X0168050Y0068500D03*
X0198050Y0068500D03*
X0208050Y0068500D03*
X0223050Y0068500D03*
X0243050Y0068500D03*
X0258050Y0068500D03*
X0268050Y0068500D03*
X0298050Y0063500D03*
X0298050Y0073500D03*
X0298050Y0083500D03*
X0298050Y0093500D03*
X0298050Y0103500D03*
X0298050Y0113500D03*
X0298050Y0123500D03*
X0298050Y0133500D03*
X0298050Y0143500D03*
X0268050Y0168500D03*
X0258050Y0168500D03*
X0243050Y0168500D03*
X0223050Y0168500D03*
X0208050Y0168500D03*
X0198050Y0168500D03*
X0168050Y0168500D03*
X0158050Y0168500D03*
X0143050Y0168500D03*
X0123050Y0168500D03*
X0108050Y0168500D03*
X0098050Y0168500D03*
X0068050Y0143500D03*
X0068050Y0133500D03*
X0098050Y0028500D03*
X0108050Y0028500D03*
X0123050Y0028500D03*
X0143050Y0028500D03*
X0158050Y0028500D03*
X0168050Y0028500D03*
X0198050Y0028500D03*
X0208050Y0028500D03*
X0223050Y0028500D03*
X0243050Y0028500D03*
X0258050Y0028500D03*
X0268050Y0028500D03*
X0298050Y0053500D03*
D13*
X0233050Y0048000D03*
X0233050Y0059000D03*
X0133050Y0059000D03*
X0133050Y0048000D03*
X0133050Y0138000D03*
X0133050Y0149000D03*
X0233050Y0149000D03*
X0233050Y0138000D03*
D14*
X0033050Y0118500D03*
X0023050Y0118500D03*
X0023050Y0108500D03*
X0033050Y0108500D03*
X0033050Y0098500D03*
X0023050Y0098500D03*
X0023050Y0088500D03*
X0033050Y0088500D03*
X0033050Y0078500D03*
X0023050Y0078500D03*
D15*
X0068050Y0168500D03*
X0183050Y0118500D03*
X0183050Y0078500D03*
X0283050Y0043500D03*
X0233050Y0013500D03*
X0213050Y0008500D03*
X0295550Y0176000D03*
D16*
X0305550Y0166000D01*
X0305550Y0091000D01*
X0298050Y0083500D01*
X0293233Y0085721D02*
X0284223Y0085721D01*
X0285822Y0084123D02*
X0292750Y0084123D01*
X0292750Y0084554D02*
X0292750Y0082446D01*
X0293557Y0080498D01*
X0295048Y0079007D01*
X0296272Y0078500D01*
X0295048Y0077993D01*
X0294842Y0077787D01*
X0289472Y0080472D01*
X0265450Y0104494D01*
X0265450Y0107360D01*
X0266611Y0108521D01*
X0267250Y0110065D01*
X0267250Y0116935D01*
X0266611Y0118479D01*
X0265429Y0119661D01*
X0263885Y0120300D01*
X0262215Y0120300D01*
X0260671Y0119661D01*
X0259489Y0118479D01*
X0258850Y0116935D01*
X0258850Y0110065D01*
X0259489Y0108521D01*
X0260650Y0107360D01*
X0260650Y0103023D01*
X0261015Y0102141D01*
X0261691Y0101465D01*
X0286293Y0076863D01*
X0286550Y0076567D01*
X0286628Y0076528D01*
X0286691Y0076465D01*
X0287053Y0076315D01*
X0292750Y0073467D01*
X0292750Y0072446D01*
X0293557Y0070498D01*
X0295048Y0069007D01*
X0296272Y0068500D01*
X0295048Y0067993D01*
X0293557Y0066502D01*
X0292750Y0064554D01*
X0292750Y0062446D01*
X0293557Y0060498D01*
X0295048Y0059007D01*
X0296272Y0058500D01*
X0295048Y0057993D01*
X0293557Y0056502D01*
X0293307Y0055900D01*
X0286544Y0055900D01*
X0280450Y0061994D01*
X0280450Y0078977D01*
X0280085Y0079859D01*
X0279409Y0080535D01*
X0266909Y0093035D01*
X0266027Y0093400D01*
X0205073Y0093400D01*
X0204191Y0093035D01*
X0203515Y0092359D01*
X0201015Y0089859D01*
X0200987Y0089792D01*
X0200671Y0089661D01*
X0199489Y0088479D01*
X0198850Y0086935D01*
X0198850Y0080065D01*
X0199489Y0078521D01*
X0200671Y0077339D01*
X0202215Y0076700D01*
X0203885Y0076700D01*
X0205429Y0077339D01*
X0206611Y0078521D01*
X0207250Y0080065D01*
X0207250Y0086935D01*
X0206611Y0088479D01*
X0206517Y0088573D01*
X0206544Y0088600D01*
X0209610Y0088600D01*
X0209489Y0088479D01*
X0208850Y0086935D01*
X0208850Y0080065D01*
X0209489Y0078521D01*
X0210671Y0077339D01*
X0212215Y0076700D01*
X0213885Y0076700D01*
X0215429Y0077339D01*
X0216611Y0078521D01*
X0217250Y0080065D01*
X0217250Y0086935D01*
X0216611Y0088479D01*
X0216490Y0088600D01*
X0219610Y0088600D01*
X0219489Y0088479D01*
X0218850Y0086935D01*
X0218850Y0080065D01*
X0219489Y0078521D01*
X0220671Y0077339D01*
X0222215Y0076700D01*
X0223885Y0076700D01*
X0225429Y0077339D01*
X0226611Y0078521D01*
X0227250Y0080065D01*
X0227250Y0086935D01*
X0226611Y0088479D01*
X0226490Y0088600D01*
X0229610Y0088600D01*
X0229489Y0088479D01*
X0228850Y0086935D01*
X0228850Y0080065D01*
X0228950Y0079823D01*
X0228950Y0062820D01*
X0228303Y0062172D01*
X0227450Y0060114D01*
X0227450Y0059539D01*
X0211005Y0045100D01*
X0156957Y0045100D01*
X0138650Y0059339D01*
X0138650Y0060114D01*
X0137797Y0062172D01*
X0137150Y0062820D01*
X0137150Y0079823D01*
X0137250Y0080065D01*
X0137250Y0086935D01*
X0136611Y0088479D01*
X0136490Y0088600D01*
X0139610Y0088600D01*
X0139489Y0088479D01*
X0138850Y0086935D01*
X0138850Y0080065D01*
X0139489Y0078521D01*
X0140671Y0077339D01*
X0142215Y0076700D01*
X0143885Y0076700D01*
X0145429Y0077339D01*
X0146611Y0078521D01*
X0147250Y0080065D01*
X0147250Y0086935D01*
X0146611Y0088479D01*
X0146490Y0088600D01*
X0149610Y0088600D01*
X0149489Y0088479D01*
X0148850Y0086935D01*
X0148850Y0080065D01*
X0149489Y0078521D01*
X0150671Y0077339D01*
X0152215Y0076700D01*
X0153885Y0076700D01*
X0155429Y0077339D01*
X0156611Y0078521D01*
X0157250Y0080065D01*
X0157250Y0086935D01*
X0156611Y0088479D01*
X0156490Y0088600D01*
X0159610Y0088600D01*
X0159489Y0088479D01*
X0158850Y0086935D01*
X0158850Y0080065D01*
X0159489Y0078521D01*
X0160671Y0077339D01*
X0162215Y0076700D01*
X0163885Y0076700D01*
X0165429Y0077339D01*
X0166611Y0078521D01*
X0167250Y0080065D01*
X0167250Y0086935D01*
X0166611Y0088479D01*
X0166490Y0088600D01*
X0171027Y0088600D01*
X0171909Y0088965D01*
X0181544Y0098600D01*
X0238527Y0098600D01*
X0239409Y0098965D01*
X0244409Y0103965D01*
X0245085Y0104641D01*
X0245450Y0105523D01*
X0245450Y0107360D01*
X0246611Y0108521D01*
X0247250Y0110065D01*
X0247250Y0116935D01*
X0246611Y0118479D01*
X0245429Y0119661D01*
X0243885Y0120300D01*
X0242215Y0120300D01*
X0240671Y0119661D01*
X0239489Y0118479D01*
X0238850Y0116935D01*
X0238850Y0110065D01*
X0239489Y0108521D01*
X0240650Y0107360D01*
X0240650Y0106994D01*
X0237056Y0103400D01*
X0180073Y0103400D01*
X0179191Y0103035D01*
X0178515Y0102359D01*
X0169556Y0093400D01*
X0100073Y0093400D01*
X0099191Y0093035D01*
X0098515Y0092359D01*
X0082056Y0075900D01*
X0072793Y0075900D01*
X0072543Y0076502D01*
X0071052Y0077993D01*
X0069828Y0078500D01*
X0071052Y0079007D01*
X0072543Y0080498D01*
X0072793Y0081100D01*
X0083527Y0081100D01*
X0084409Y0081465D01*
X0096544Y0093600D01*
X0168527Y0093600D01*
X0169409Y0093965D01*
X0179044Y0103600D01*
X0221027Y0103600D01*
X0221909Y0103965D01*
X0224409Y0106465D01*
X0225085Y0107141D01*
X0225113Y0107208D01*
X0225429Y0107339D01*
X0226611Y0108521D01*
X0227250Y0110065D01*
X0227250Y0116935D01*
X0226611Y0118479D01*
X0225429Y0119661D01*
X0223885Y0120300D01*
X0222215Y0120300D01*
X0220671Y0119661D01*
X0219489Y0118479D01*
X0218850Y0116935D01*
X0218850Y0110065D01*
X0219489Y0108521D01*
X0219583Y0108427D01*
X0219556Y0108400D01*
X0216490Y0108400D01*
X0216611Y0108521D01*
X0217250Y0110065D01*
X0217250Y0116935D01*
X0216611Y0118479D01*
X0215429Y0119661D01*
X0213885Y0120300D01*
X0212215Y0120300D01*
X0210671Y0119661D01*
X0209489Y0118479D01*
X0208850Y0116935D01*
X0208850Y0110065D01*
X0209489Y0108521D01*
X0209610Y0108400D01*
X0206490Y0108400D01*
X0206611Y0108521D01*
X0207250Y0110065D01*
X0207250Y0116935D01*
X0206611Y0118479D01*
X0205429Y0119661D01*
X0203885Y0120300D01*
X0202215Y0120300D01*
X0200671Y0119661D01*
X0199489Y0118479D01*
X0198850Y0116935D01*
X0198850Y0110065D01*
X0199489Y0108521D01*
X0199610Y0108400D01*
X0177573Y0108400D01*
X0176691Y0108035D01*
X0176015Y0107359D01*
X0167056Y0098400D01*
X0095073Y0098400D01*
X0094191Y0098035D01*
X0093515Y0097359D01*
X0082056Y0085900D01*
X0072793Y0085900D01*
X0072543Y0086502D01*
X0071052Y0087993D01*
X0069828Y0088500D01*
X0071052Y0089007D01*
X0072543Y0090498D01*
X0073350Y0092446D01*
X0073350Y0094554D01*
X0072543Y0096502D01*
X0071052Y0097993D01*
X0069828Y0098500D01*
X0071052Y0099007D01*
X0072543Y0100498D01*
X0073350Y0102446D01*
X0073350Y0104554D01*
X0072543Y0106502D01*
X0071052Y0107993D01*
X0069828Y0108500D01*
X0071052Y0109007D01*
X0072543Y0110498D01*
X0072793Y0111100D01*
X0087056Y0111100D01*
X0088150Y0110006D01*
X0088150Y0105523D01*
X0088515Y0104641D01*
X0093515Y0099641D01*
X0094191Y0098965D01*
X0095073Y0098600D01*
X0138527Y0098600D01*
X0139409Y0098965D01*
X0144409Y0103965D01*
X0145085Y0104641D01*
X0145450Y0105523D01*
X0145450Y0107360D01*
X0146611Y0108521D01*
X0147250Y0110065D01*
X0147250Y0116935D01*
X0146611Y0118479D01*
X0145429Y0119661D01*
X0143885Y0120300D01*
X0142215Y0120300D01*
X0140671Y0119661D01*
X0139489Y0118479D01*
X0138850Y0116935D01*
X0138850Y0110065D01*
X0139489Y0108521D01*
X0140650Y0107360D01*
X0140650Y0106994D01*
X0137056Y0103400D01*
X0096544Y0103400D01*
X0092950Y0106994D01*
X0092950Y0111477D01*
X0092585Y0112359D01*
X0091909Y0113035D01*
X0089409Y0115535D01*
X0088527Y0115900D01*
X0072793Y0115900D01*
X0072543Y0116502D01*
X0071052Y0117993D01*
X0069828Y0118500D01*
X0071052Y0119007D01*
X0072543Y0120498D01*
X0072793Y0121100D01*
X0087056Y0121100D01*
X0093150Y0115006D01*
X0093150Y0108023D01*
X0093515Y0107141D01*
X0096015Y0104641D01*
X0096691Y0103965D01*
X0097573Y0103600D01*
X0121027Y0103600D01*
X0121909Y0103965D01*
X0124409Y0106465D01*
X0125085Y0107141D01*
X0125113Y0107208D01*
X0125429Y0107339D01*
X0126611Y0108521D01*
X0127250Y0110065D01*
X0127250Y0116935D01*
X0126611Y0118479D01*
X0125429Y0119661D01*
X0123885Y0120300D01*
X0122215Y0120300D01*
X0120671Y0119661D01*
X0119489Y0118479D01*
X0118850Y0116935D01*
X0118850Y0110065D01*
X0119489Y0108521D01*
X0119583Y0108427D01*
X0119556Y0108400D01*
X0116490Y0108400D01*
X0116611Y0108521D01*
X0117250Y0110065D01*
X0117250Y0116935D01*
X0116611Y0118479D01*
X0115429Y0119661D01*
X0113885Y0120300D01*
X0112215Y0120300D01*
X0110671Y0119661D01*
X0109489Y0118479D01*
X0108850Y0116935D01*
X0108850Y0110065D01*
X0109489Y0108521D01*
X0109610Y0108400D01*
X0106490Y0108400D01*
X0106611Y0108521D01*
X0107250Y0110065D01*
X0107250Y0116935D01*
X0106611Y0118479D01*
X0105429Y0119661D01*
X0103885Y0120300D01*
X0102215Y0120300D01*
X0100671Y0119661D01*
X0099489Y0118479D01*
X0098850Y0116935D01*
X0098850Y0110065D01*
X0099489Y0108521D01*
X0099610Y0108400D01*
X0099044Y0108400D01*
X0097950Y0109494D01*
X0097950Y0116477D01*
X0097585Y0117359D01*
X0096909Y0118035D01*
X0089409Y0125535D01*
X0088527Y0125900D01*
X0072793Y0125900D01*
X0072543Y0126502D01*
X0071052Y0127993D01*
X0070106Y0128385D01*
X0070161Y0128403D01*
X0070933Y0128796D01*
X0071633Y0129305D01*
X0072245Y0129917D01*
X0072754Y0130617D01*
X0073147Y0131389D01*
X0073415Y0132212D01*
X0073550Y0133067D01*
X0073550Y0133300D01*
X0068250Y0133300D01*
X0068250Y0133700D01*
X0073550Y0133700D01*
X0073550Y0133933D01*
X0073415Y0134788D01*
X0073147Y0135611D01*
X0072754Y0136383D01*
X0072245Y0137083D01*
X0071633Y0137695D01*
X0070933Y0138204D01*
X0070352Y0138500D01*
X0070933Y0138796D01*
X0071633Y0139305D01*
X0072245Y0139917D01*
X0072754Y0140617D01*
X0073147Y0141389D01*
X0073415Y0142212D01*
X0073550Y0143067D01*
X0073550Y0143300D01*
X0068250Y0143300D01*
X0068250Y0143700D01*
X0067850Y0143700D01*
X0067850Y0149000D01*
X0067617Y0149000D01*
X0066762Y0148865D01*
X0066689Y0148841D01*
X0067248Y0149400D01*
X0111174Y0149400D01*
X0127450Y0137094D01*
X0127450Y0136886D01*
X0128303Y0134828D01*
X0128950Y0134180D01*
X0128950Y0117177D01*
X0128850Y0116935D01*
X0128850Y0110065D01*
X0129489Y0108521D01*
X0130671Y0107339D01*
X0132215Y0106700D01*
X0133885Y0106700D01*
X0135429Y0107339D01*
X0136611Y0108521D01*
X0137250Y0110065D01*
X0137250Y0116935D01*
X0137150Y0117177D01*
X0137150Y0134180D01*
X0137797Y0134828D01*
X0138650Y0136886D01*
X0138650Y0137094D01*
X0154926Y0149400D01*
X0211683Y0149400D01*
X0227450Y0137575D01*
X0227450Y0136886D01*
X0228303Y0134828D01*
X0228950Y0134180D01*
X0228950Y0117177D01*
X0228850Y0116935D01*
X0228850Y0110065D01*
X0229489Y0108521D01*
X0230671Y0107339D01*
X0232215Y0106700D01*
X0233885Y0106700D01*
X0235429Y0107339D01*
X0236611Y0108521D01*
X0237250Y0110065D01*
X0237250Y0116935D01*
X0237150Y0117177D01*
X0237150Y0134180D01*
X0237797Y0134828D01*
X0238650Y0136886D01*
X0238650Y0139114D01*
X0237797Y0141172D01*
X0236222Y0142747D01*
X0234619Y0143411D01*
X0235276Y0143625D01*
X0236090Y0144039D01*
X0236828Y0144576D01*
X0237474Y0145222D01*
X0238011Y0145960D01*
X0238425Y0146774D01*
X0238707Y0147642D01*
X0238850Y0148544D01*
X0238850Y0148800D01*
X0233250Y0148800D01*
X0233250Y0149200D01*
X0232850Y0149200D01*
X0232850Y0154800D01*
X0232594Y0154800D01*
X0231692Y0154657D01*
X0230824Y0154375D01*
X0230010Y0153961D01*
X0229272Y0153424D01*
X0228626Y0152778D01*
X0228089Y0152040D01*
X0227675Y0151226D01*
X0227393Y0150358D01*
X0227250Y0149456D01*
X0227250Y0149200D01*
X0232850Y0149200D01*
X0232850Y0148800D01*
X0227250Y0148800D01*
X0227250Y0148544D01*
X0227352Y0147898D01*
X0215743Y0156605D01*
X0215372Y0156976D01*
X0215097Y0157090D01*
X0214858Y0157269D01*
X0214350Y0157399D01*
X0213866Y0157600D01*
X0213567Y0157600D01*
X0213278Y0157674D01*
X0212759Y0157600D01*
X0153833Y0157600D01*
X0153306Y0157673D01*
X0153025Y0157600D01*
X0152734Y0157600D01*
X0152243Y0157396D01*
X0151728Y0157262D01*
X0151496Y0157087D01*
X0151228Y0156976D01*
X0150851Y0156600D01*
X0138610Y0147344D01*
X0138707Y0147642D01*
X0138850Y0148544D01*
X0138850Y0148800D01*
X0133250Y0148800D01*
X0133250Y0149200D01*
X0132850Y0149200D01*
X0132850Y0154800D01*
X0132594Y0154800D01*
X0131692Y0154657D01*
X0130824Y0154375D01*
X0130010Y0153961D01*
X0129272Y0153424D01*
X0128626Y0152778D01*
X0128089Y0152040D01*
X0127675Y0151226D01*
X0127393Y0150358D01*
X0127250Y0149456D01*
X0127250Y0149200D01*
X0132850Y0149200D01*
X0132850Y0148800D01*
X0127250Y0148800D01*
X0127250Y0148544D01*
X0127393Y0147642D01*
X0127489Y0147344D01*
X0115249Y0156600D01*
X0114872Y0156976D01*
X0114604Y0157087D01*
X0114372Y0157262D01*
X0113857Y0157396D01*
X0113366Y0157600D01*
X0113075Y0157600D01*
X0112794Y0157673D01*
X0112267Y0157600D01*
X0064734Y0157600D01*
X0063228Y0156976D01*
X0062074Y0155822D01*
X0029574Y0123322D01*
X0029275Y0122600D01*
X0026445Y0122600D01*
X0025245Y0123800D01*
X0020855Y0123800D01*
X0017750Y0120695D01*
X0017750Y0116305D01*
X0020413Y0113641D01*
X0017550Y0110778D01*
X0017550Y0108700D01*
X0022850Y0108700D01*
X0022850Y0108300D01*
X0017550Y0108300D01*
X0017550Y0106222D01*
X0020272Y0103500D01*
X0017550Y0100778D01*
X0017550Y0098700D01*
X0022850Y0098700D01*
X0022850Y0104000D01*
X0022850Y0108300D01*
X0023250Y0108300D01*
X0023250Y0108700D01*
X0032850Y0108700D01*
X0032850Y0108300D01*
X0027550Y0108300D01*
X0023250Y0108300D01*
X0023250Y0098700D01*
X0022850Y0098700D01*
X0022850Y0098300D01*
X0023250Y0098300D01*
X0023250Y0098700D01*
X0032850Y0098700D01*
X0032850Y0104000D01*
X0032850Y0108300D01*
X0033250Y0108300D01*
X0033250Y0108700D01*
X0038550Y0108700D01*
X0038550Y0110778D01*
X0035687Y0113641D01*
X0038350Y0116305D01*
X0038350Y0120502D01*
X0062709Y0144861D01*
X0062685Y0144788D01*
X0062550Y0143933D01*
X0062550Y0143700D01*
X0067850Y0143700D01*
X0067850Y0143300D01*
X0062550Y0143300D01*
X0062550Y0143067D01*
X0062685Y0142212D01*
X0062953Y0141389D01*
X0063346Y0140617D01*
X0063855Y0139917D01*
X0064467Y0139305D01*
X0065167Y0138796D01*
X0065748Y0138500D01*
X0065167Y0138204D01*
X0064467Y0137695D01*
X0063855Y0137083D01*
X0063346Y0136383D01*
X0062953Y0135611D01*
X0062685Y0134788D01*
X0062550Y0133933D01*
X0062550Y0133700D01*
X0067850Y0133700D01*
X0067850Y0143300D01*
X0068250Y0143300D01*
X0068250Y0138000D01*
X0068250Y0133700D01*
X0067850Y0133700D01*
X0067850Y0133300D01*
X0062550Y0133300D01*
X0062550Y0133067D01*
X0062685Y0132212D01*
X0062953Y0131389D01*
X0063346Y0130617D01*
X0063855Y0129917D01*
X0064467Y0129305D01*
X0065167Y0128796D01*
X0065939Y0128403D01*
X0065994Y0128385D01*
X0065048Y0127993D01*
X0063557Y0126502D01*
X0062750Y0124554D01*
X0062750Y0122446D01*
X0063557Y0120498D01*
X0065048Y0119007D01*
X0066272Y0118500D01*
X0065048Y0117993D01*
X0063557Y0116502D01*
X0062750Y0114554D01*
X0062750Y0112446D01*
X0063557Y0110498D01*
X0065048Y0109007D01*
X0066272Y0108500D01*
X0065048Y0107993D01*
X0063557Y0106502D01*
X0062750Y0104554D01*
X0062750Y0102446D01*
X0063557Y0100498D01*
X0065048Y0099007D01*
X0066272Y0098500D01*
X0065048Y0097993D01*
X0063557Y0096502D01*
X0062750Y0094554D01*
X0062750Y0092446D01*
X0063557Y0090498D01*
X0065048Y0089007D01*
X0066272Y0088500D01*
X0065048Y0087993D01*
X0063557Y0086502D01*
X0062750Y0084554D01*
X0062750Y0082446D01*
X0063557Y0080498D01*
X0065048Y0079007D01*
X0066272Y0078500D01*
X0065048Y0077993D01*
X0063557Y0076502D01*
X0062750Y0074554D01*
X0062750Y0072446D01*
X0063557Y0070498D01*
X0065048Y0069007D01*
X0066272Y0068500D01*
X0065048Y0067993D01*
X0063557Y0066502D01*
X0062750Y0064554D01*
X0062750Y0062446D01*
X0063557Y0060498D01*
X0065048Y0059007D01*
X0066272Y0058500D01*
X0065048Y0057993D01*
X0063557Y0056502D01*
X0062750Y0054554D01*
X0062750Y0052446D01*
X0062996Y0051853D01*
X0038350Y0076498D01*
X0038350Y0080695D01*
X0035687Y0083359D01*
X0038550Y0086222D01*
X0038550Y0088300D01*
X0033250Y0088300D01*
X0033250Y0088700D01*
X0032850Y0088700D01*
X0032850Y0094000D01*
X0032850Y0098300D01*
X0033250Y0098300D01*
X0033250Y0098700D01*
X0038550Y0098700D01*
X0038550Y0100778D01*
X0035828Y0103500D01*
X0038550Y0106222D01*
X0038550Y0108300D01*
X0033250Y0108300D01*
X0033250Y0098700D01*
X0032850Y0098700D01*
X0032850Y0098300D01*
X0027550Y0098300D01*
X0023250Y0098300D01*
X0023250Y0088700D01*
X0032850Y0088700D01*
X0032850Y0088300D01*
X0028550Y0088300D01*
X0023250Y0088300D01*
X0023250Y0088700D01*
X0022850Y0088700D01*
X0022850Y0094000D01*
X0022850Y0098300D01*
X0017550Y0098300D01*
X0017550Y0096222D01*
X0020272Y0093500D01*
X0017550Y0090778D01*
X0017550Y0088700D01*
X0022850Y0088700D01*
X0022850Y0088300D01*
X0017550Y0088300D01*
X0017550Y0086222D01*
X0020413Y0083359D01*
X0017750Y0080695D01*
X0017750Y0076305D01*
X0020855Y0073200D01*
X0025245Y0073200D01*
X0026445Y0074400D01*
X0029275Y0074400D01*
X0029574Y0073678D01*
X0062074Y0041178D01*
X0063228Y0040024D01*
X0064734Y0039400D01*
X0112267Y0039400D01*
X0112794Y0039327D01*
X0113075Y0039400D01*
X0113366Y0039400D01*
X0113857Y0039604D01*
X0114372Y0039738D01*
X0114604Y0039913D01*
X0114872Y0040024D01*
X0115249Y0040400D01*
X0127489Y0049656D01*
X0127393Y0049358D01*
X0127250Y0048456D01*
X0127250Y0048200D01*
X0132850Y0048200D01*
X0132850Y0047800D01*
X0133250Y0047800D01*
X0133250Y0048200D01*
X0138850Y0048200D01*
X0138850Y0048456D01*
X0138789Y0048842D01*
X0152831Y0037920D01*
X0153228Y0037524D01*
X0153470Y0037424D01*
X0153677Y0037263D01*
X0154217Y0037114D01*
X0154734Y0036900D01*
X0154997Y0036900D01*
X0155249Y0036830D01*
X0155805Y0036900D01*
X0212417Y0036900D01*
X0213098Y0036856D01*
X0213228Y0036900D01*
X0213366Y0036900D01*
X0213996Y0037161D01*
X0214642Y0037381D01*
X0214746Y0037472D01*
X0214872Y0037524D01*
X0215355Y0038007D01*
X0227250Y0048451D01*
X0227250Y0048200D01*
X0232850Y0048200D01*
X0232850Y0047800D01*
X0233250Y0047800D01*
X0233250Y0048200D01*
X0238850Y0048200D01*
X0238850Y0048456D01*
X0238707Y0049358D01*
X0238425Y0050226D01*
X0238011Y0051040D01*
X0237474Y0051778D01*
X0236828Y0052424D01*
X0236090Y0052961D01*
X0235276Y0053375D01*
X0234619Y0053589D01*
X0236222Y0054253D01*
X0237797Y0055828D01*
X0238650Y0057886D01*
X0238650Y0060114D01*
X0237797Y0062172D01*
X0237150Y0062820D01*
X0237150Y0079823D01*
X0237250Y0080065D01*
X0237250Y0086935D01*
X0236611Y0088479D01*
X0236490Y0088600D01*
X0239610Y0088600D01*
X0239489Y0088479D01*
X0238850Y0086935D01*
X0238850Y0080065D01*
X0239489Y0078521D01*
X0240671Y0077339D01*
X0242215Y0076700D01*
X0243885Y0076700D01*
X0245429Y0077339D01*
X0246611Y0078521D01*
X0247250Y0080065D01*
X0247250Y0086935D01*
X0246611Y0088479D01*
X0246490Y0088600D01*
X0249610Y0088600D01*
X0249489Y0088479D01*
X0248850Y0086935D01*
X0248850Y0080065D01*
X0249489Y0078521D01*
X0250671Y0077339D01*
X0252215Y0076700D01*
X0253885Y0076700D01*
X0255429Y0077339D01*
X0256611Y0078521D01*
X0257250Y0080065D01*
X0257250Y0086935D01*
X0256611Y0088479D01*
X0256490Y0088600D01*
X0259610Y0088600D01*
X0259489Y0088479D01*
X0258850Y0086935D01*
X0258850Y0080065D01*
X0259489Y0078521D01*
X0260671Y0077339D01*
X0262215Y0076700D01*
X0263885Y0076700D01*
X0265429Y0077339D01*
X0266611Y0078521D01*
X0267250Y0080065D01*
X0267250Y0085906D01*
X0275650Y0077506D01*
X0275650Y0060523D01*
X0276015Y0059641D01*
X0283515Y0052141D01*
X0284191Y0051465D01*
X0285073Y0051100D01*
X0293307Y0051100D01*
X0293557Y0050498D01*
X0295048Y0049007D01*
X0296996Y0048200D01*
X0299104Y0048200D01*
X0301052Y0049007D01*
X0302543Y0050498D01*
X0303350Y0052446D01*
X0303350Y0054554D01*
X0302543Y0056502D01*
X0301052Y0057993D01*
X0299828Y0058500D01*
X0301052Y0059007D01*
X0302543Y0060498D01*
X0303350Y0062446D01*
X0303350Y0064554D01*
X0302543Y0066502D01*
X0301052Y0067993D01*
X0299828Y0068500D01*
X0301052Y0069007D01*
X0302543Y0070498D01*
X0303350Y0072446D01*
X0303350Y0074554D01*
X0302543Y0076502D01*
X0301052Y0077993D01*
X0299828Y0078500D01*
X0301052Y0079007D01*
X0302543Y0080498D01*
X0303350Y0082446D01*
X0303350Y0084554D01*
X0303101Y0085156D01*
X0306909Y0088965D01*
X0307585Y0089641D01*
X0307950Y0090523D01*
X0307950Y0166477D01*
X0307585Y0167359D01*
X0306978Y0167966D01*
X0309089Y0167401D01*
X0312011Y0167401D01*
X0314834Y0168157D01*
X0316951Y0169379D01*
X0316951Y0022621D01*
X0314834Y0023843D01*
X0312011Y0024599D01*
X0309089Y0024599D01*
X0306266Y0023843D01*
X0303735Y0022382D01*
X0301668Y0020315D01*
X0300207Y0017784D01*
X0299451Y0014961D01*
X0299451Y0012039D01*
X0300207Y0009216D01*
X0301668Y0006685D01*
X0302553Y0005800D01*
X0215414Y0005800D01*
X0216086Y0006471D01*
X0216631Y0007788D01*
X0216631Y0008687D01*
X0224409Y0016465D01*
X0225085Y0017141D01*
X0225450Y0018023D01*
X0225450Y0023757D01*
X0226052Y0024007D01*
X0227543Y0025498D01*
X0228350Y0027446D01*
X0228350Y0029554D01*
X0227543Y0031502D01*
X0226052Y0032993D01*
X0224104Y0033800D01*
X0221996Y0033800D01*
X0220048Y0032993D01*
X0218557Y0031502D01*
X0217750Y0029554D01*
X0217750Y0027446D01*
X0218557Y0025498D01*
X0220048Y0024007D01*
X0220650Y0023757D01*
X0220650Y0019494D01*
X0213237Y0012081D01*
X0212338Y0012081D01*
X0211021Y0011536D01*
X0210014Y0010529D01*
X0209469Y0009212D01*
X0209469Y0007788D01*
X0210014Y0006471D01*
X0210686Y0005800D01*
X0022581Y0005800D01*
X0024865Y0007118D01*
X0026932Y0009185D01*
X0028393Y0011716D01*
X0029149Y0014539D01*
X0029149Y0017461D01*
X0028393Y0020284D01*
X0026932Y0022815D01*
X0024865Y0024882D01*
X0022334Y0026343D01*
X0019511Y0027099D01*
X0016589Y0027099D01*
X0013766Y0026343D01*
X0011235Y0024882D01*
X0009168Y0022815D01*
X0007850Y0020531D01*
X0007850Y0168969D01*
X0009168Y0166685D01*
X0011235Y0164618D01*
X0013766Y0163157D01*
X0016589Y0162401D01*
X0019511Y0162401D01*
X0022334Y0163157D01*
X0024865Y0164618D01*
X0026932Y0166685D01*
X0028393Y0169216D01*
X0029149Y0172039D01*
X0029149Y0174961D01*
X0028393Y0177784D01*
X0026932Y0180315D01*
X0024865Y0182382D01*
X0022650Y0183661D01*
X0104817Y0183661D01*
X0096691Y0175535D01*
X0096015Y0174859D01*
X0095650Y0173977D01*
X0095650Y0173243D01*
X0095048Y0172993D01*
X0093557Y0171502D01*
X0092750Y0169554D01*
X0092750Y0167446D01*
X0093557Y0165498D01*
X0095048Y0164007D01*
X0096996Y0163200D01*
X0099104Y0163200D01*
X0101052Y0164007D01*
X0102543Y0165498D01*
X0102935Y0166444D01*
X0102953Y0166389D01*
X0103346Y0165617D01*
X0103855Y0164917D01*
X0104467Y0164305D01*
X0105167Y0163796D01*
X0105939Y0163403D01*
X0106762Y0163135D01*
X0107617Y0163000D01*
X0107964Y0163000D01*
X0107964Y0168414D01*
X0108136Y0168414D01*
X0108136Y0168586D01*
X0107964Y0168586D01*
X0107964Y0174000D01*
X0107617Y0174000D01*
X0106762Y0173865D01*
X0105939Y0173597D01*
X0105167Y0173204D01*
X0104467Y0172695D01*
X0103855Y0172083D01*
X0103346Y0171383D01*
X0102953Y0170611D01*
X0102935Y0170556D01*
X0102543Y0171502D01*
X0101052Y0172993D01*
X0100971Y0173027D01*
X0109044Y0181100D01*
X0274556Y0181100D01*
X0285650Y0170006D01*
X0285650Y0125523D01*
X0286015Y0124641D01*
X0286691Y0123965D01*
X0289191Y0121465D01*
X0290073Y0121100D01*
X0293307Y0121100D01*
X0293557Y0120498D01*
X0295048Y0119007D01*
X0296272Y0118500D01*
X0295048Y0117993D01*
X0293557Y0116502D01*
X0293307Y0115900D01*
X0289044Y0115900D01*
X0285450Y0119494D01*
X0285450Y0168977D01*
X0285085Y0169859D01*
X0275085Y0179859D01*
X0274409Y0180535D01*
X0273527Y0180900D01*
X0172573Y0180900D01*
X0171691Y0180535D01*
X0171015Y0179859D01*
X0166691Y0175535D01*
X0166691Y0175535D01*
X0166015Y0174859D01*
X0165650Y0173977D01*
X0165650Y0173243D01*
X0165048Y0172993D01*
X0163557Y0171502D01*
X0163165Y0170556D01*
X0163147Y0170611D01*
X0162754Y0171383D01*
X0162245Y0172083D01*
X0161633Y0172695D01*
X0160933Y0173204D01*
X0160161Y0173597D01*
X0159338Y0173865D01*
X0158483Y0174000D01*
X0158136Y0174000D01*
X0158136Y0168586D01*
X0157964Y0168586D01*
X0157964Y0174000D01*
X0157617Y0174000D01*
X0156762Y0173865D01*
X0155939Y0173597D01*
X0155167Y0173204D01*
X0154467Y0172695D01*
X0153855Y0172083D01*
X0153346Y0171383D01*
X0152953Y0170611D01*
X0152685Y0169788D01*
X0152550Y0168933D01*
X0152550Y0168586D01*
X0157964Y0168586D01*
X0157964Y0168414D01*
X0158136Y0168414D01*
X0158136Y0163000D01*
X0158483Y0163000D01*
X0159338Y0163135D01*
X0160161Y0163403D01*
X0160933Y0163796D01*
X0161633Y0164305D01*
X0162245Y0164917D01*
X0162754Y0165617D01*
X0163147Y0166389D01*
X0163165Y0166444D01*
X0163557Y0165498D01*
X0165048Y0164007D01*
X0166996Y0163200D01*
X0169104Y0163200D01*
X0171052Y0164007D01*
X0172543Y0165498D01*
X0173350Y0167446D01*
X0173350Y0169554D01*
X0172543Y0171502D01*
X0171052Y0172993D01*
X0170971Y0173027D01*
X0174044Y0176100D01*
X0272056Y0176100D01*
X0280650Y0167506D01*
X0280650Y0118023D01*
X0281015Y0117141D01*
X0281691Y0116465D01*
X0286691Y0111465D01*
X0287573Y0111100D01*
X0293307Y0111100D01*
X0293557Y0110498D01*
X0295048Y0109007D01*
X0296272Y0108500D01*
X0295048Y0107993D01*
X0293557Y0106502D01*
X0292750Y0104554D01*
X0292750Y0102446D01*
X0293557Y0100498D01*
X0295048Y0099007D01*
X0296272Y0098500D01*
X0295048Y0097993D01*
X0293557Y0096502D01*
X0292750Y0094554D01*
X0292750Y0092446D01*
X0293557Y0090498D01*
X0295048Y0089007D01*
X0296272Y0088500D01*
X0295048Y0087993D01*
X0293557Y0086502D01*
X0292750Y0084554D01*
X0292750Y0082524D02*
X0287420Y0082524D01*
X0289019Y0080926D02*
X0293380Y0080926D01*
X0294728Y0079327D02*
X0291762Y0079327D01*
X0288050Y0078500D02*
X0263050Y0103500D01*
X0263050Y0113500D01*
X0258850Y0112896D02*
X0257250Y0112896D01*
X0257250Y0114494D02*
X0258850Y0114494D01*
X0258850Y0116093D02*
X0257250Y0116093D01*
X0257250Y0116935D02*
X0256611Y0118479D01*
X0255429Y0119661D01*
X0253885Y0120300D01*
X0252215Y0120300D01*
X0250671Y0119661D01*
X0249489Y0118479D01*
X0248850Y0116935D01*
X0248850Y0110065D01*
X0249489Y0108521D01*
X0250671Y0107339D01*
X0252215Y0106700D01*
X0253885Y0106700D01*
X0255429Y0107339D01*
X0256611Y0108521D01*
X0257250Y0110065D01*
X0257250Y0116935D01*
X0256937Y0117691D02*
X0259163Y0117691D01*
X0260300Y0119290D02*
X0255800Y0119290D01*
X0250300Y0119290D02*
X0245800Y0119290D01*
X0246937Y0117691D02*
X0249163Y0117691D01*
X0248850Y0116093D02*
X0247250Y0116093D01*
X0247250Y0114494D02*
X0248850Y0114494D01*
X0248850Y0112896D02*
X0247250Y0112896D01*
X0247250Y0111297D02*
X0248850Y0111297D01*
X0249002Y0109699D02*
X0247098Y0109699D01*
X0246190Y0108100D02*
X0249910Y0108100D01*
X0245450Y0106502D02*
X0260650Y0106502D01*
X0260650Y0104903D02*
X0245193Y0104903D01*
X0243749Y0103305D02*
X0260650Y0103305D01*
X0261450Y0101706D02*
X0242150Y0101706D01*
X0240552Y0100108D02*
X0263048Y0100108D01*
X0264647Y0098509D02*
X0181453Y0098509D01*
X0179855Y0096911D02*
X0266245Y0096911D01*
X0267844Y0095312D02*
X0178256Y0095312D01*
X0176658Y0093714D02*
X0269442Y0093714D01*
X0271041Y0092115D02*
X0267829Y0092115D01*
X0269427Y0090517D02*
X0272639Y0090517D01*
X0274238Y0088918D02*
X0271026Y0088918D01*
X0272624Y0087320D02*
X0275836Y0087320D01*
X0277435Y0085721D02*
X0274223Y0085721D01*
X0275822Y0084123D02*
X0279033Y0084123D01*
X0280632Y0082524D02*
X0277420Y0082524D01*
X0279019Y0080926D02*
X0282230Y0080926D01*
X0283829Y0079327D02*
X0280305Y0079327D01*
X0280450Y0077729D02*
X0285427Y0077729D01*
X0287423Y0076130D02*
X0280450Y0076130D01*
X0280450Y0074532D02*
X0290620Y0074532D01*
X0292750Y0072933D02*
X0280450Y0072933D01*
X0280450Y0071334D02*
X0293210Y0071334D01*
X0294319Y0069736D02*
X0280450Y0069736D01*
X0280450Y0068137D02*
X0295396Y0068137D01*
X0293594Y0066539D02*
X0280450Y0066539D01*
X0280450Y0064940D02*
X0292910Y0064940D01*
X0292750Y0063342D02*
X0280450Y0063342D01*
X0280701Y0061743D02*
X0293041Y0061743D01*
X0293910Y0060145D02*
X0282299Y0060145D01*
X0283898Y0058546D02*
X0296159Y0058546D01*
X0294003Y0056948D02*
X0285496Y0056948D01*
X0281905Y0053751D02*
X0235011Y0053751D01*
X0237100Y0052152D02*
X0283504Y0052152D01*
X0285550Y0053500D02*
X0298050Y0053500D01*
X0293534Y0050554D02*
X0238258Y0050554D01*
X0238771Y0048955D02*
X0295172Y0048955D01*
X0300928Y0048955D02*
X0316951Y0048955D01*
X0316951Y0047357D02*
X0238820Y0047357D01*
X0238850Y0047544D02*
X0238850Y0047800D01*
X0233250Y0047800D01*
X0233250Y0042200D01*
X0233506Y0042200D01*
X0234408Y0042343D01*
X0235276Y0042625D01*
X0236090Y0043039D01*
X0236828Y0043576D01*
X0237474Y0044222D01*
X0238011Y0044960D01*
X0238425Y0045774D01*
X0238707Y0046642D01*
X0238850Y0047544D01*
X0238417Y0045758D02*
X0280244Y0045758D01*
X0280014Y0045529D02*
X0279469Y0044212D01*
X0279469Y0042788D01*
X0280014Y0041471D01*
X0281021Y0040464D01*
X0282338Y0039919D01*
X0283762Y0039919D01*
X0285079Y0040464D01*
X0286086Y0041471D01*
X0286631Y0042788D01*
X0286631Y0044212D01*
X0286086Y0045529D01*
X0285079Y0046536D01*
X0283762Y0047081D01*
X0282338Y0047081D01*
X0281021Y0046536D01*
X0280014Y0045529D01*
X0279469Y0044160D02*
X0237412Y0044160D01*
X0235081Y0042561D02*
X0279563Y0042561D01*
X0280523Y0040963D02*
X0218722Y0040963D01*
X0220542Y0042561D02*
X0231019Y0042561D01*
X0230824Y0042625D02*
X0231692Y0042343D01*
X0232594Y0042200D01*
X0232850Y0042200D01*
X0232850Y0047800D01*
X0227250Y0047800D01*
X0227250Y0047544D01*
X0227393Y0046642D01*
X0227675Y0045774D01*
X0228089Y0044960D01*
X0228626Y0044222D01*
X0229272Y0043576D01*
X0230010Y0043039D01*
X0230824Y0042625D01*
X0232850Y0042561D02*
X0233250Y0042561D01*
X0233250Y0044160D02*
X0232850Y0044160D01*
X0232850Y0045758D02*
X0233250Y0045758D01*
X0233250Y0047357D02*
X0232850Y0047357D01*
X0228688Y0044160D02*
X0222363Y0044160D01*
X0224183Y0045758D02*
X0227683Y0045758D01*
X0227280Y0047357D02*
X0226004Y0047357D01*
X0219037Y0052152D02*
X0147889Y0052152D01*
X0145834Y0053751D02*
X0220858Y0053751D01*
X0222678Y0055349D02*
X0143779Y0055349D01*
X0141724Y0056948D02*
X0224499Y0056948D01*
X0226319Y0058546D02*
X0139668Y0058546D01*
X0138637Y0060145D02*
X0227463Y0060145D01*
X0228125Y0061743D02*
X0137975Y0061743D01*
X0137150Y0063342D02*
X0141127Y0063342D01*
X0140939Y0063403D02*
X0141762Y0063135D01*
X0142617Y0063000D01*
X0142964Y0063000D01*
X0142964Y0068414D01*
X0137550Y0068414D01*
X0137550Y0068067D01*
X0137685Y0067212D01*
X0137953Y0066389D01*
X0138346Y0065617D01*
X0138855Y0064917D01*
X0139467Y0064305D01*
X0140167Y0063796D01*
X0140939Y0063403D01*
X0142964Y0063342D02*
X0143136Y0063342D01*
X0143136Y0063000D02*
X0143483Y0063000D01*
X0144338Y0063135D01*
X0145161Y0063403D01*
X0145933Y0063796D01*
X0146633Y0064305D01*
X0147245Y0064917D01*
X0147754Y0065617D01*
X0148147Y0066389D01*
X0148415Y0067212D01*
X0148550Y0068067D01*
X0148550Y0068414D01*
X0143136Y0068414D01*
X0143136Y0068586D01*
X0142964Y0068586D01*
X0142964Y0074000D01*
X0142617Y0074000D01*
X0141762Y0073865D01*
X0140939Y0073597D01*
X0140167Y0073204D01*
X0139467Y0072695D01*
X0138855Y0072083D01*
X0138346Y0071383D01*
X0137953Y0070611D01*
X0137685Y0069788D01*
X0137550Y0068933D01*
X0137550Y0068586D01*
X0142964Y0068586D01*
X0142964Y0068414D01*
X0143136Y0068414D01*
X0143136Y0063000D01*
X0144973Y0063342D02*
X0156653Y0063342D01*
X0156996Y0063200D02*
X0159104Y0063200D01*
X0161052Y0064007D01*
X0162543Y0065498D01*
X0163050Y0066722D01*
X0163557Y0065498D01*
X0165048Y0064007D01*
X0166996Y0063200D01*
X0169104Y0063200D01*
X0171052Y0064007D01*
X0172543Y0065498D01*
X0173350Y0067446D01*
X0173350Y0069554D01*
X0172543Y0071502D01*
X0171052Y0072993D01*
X0169104Y0073800D01*
X0166996Y0073800D01*
X0165048Y0072993D01*
X0163557Y0071502D01*
X0163050Y0070278D01*
X0162543Y0071502D01*
X0161052Y0072993D01*
X0159104Y0073800D01*
X0156996Y0073800D01*
X0155048Y0072993D01*
X0153557Y0071502D01*
X0152750Y0069554D01*
X0152750Y0067446D01*
X0153557Y0065498D01*
X0155048Y0064007D01*
X0156996Y0063200D01*
X0159447Y0063342D02*
X0166653Y0063342D01*
X0169447Y0063342D02*
X0196653Y0063342D01*
X0196996Y0063200D02*
X0195048Y0064007D01*
X0193557Y0065498D01*
X0192750Y0067446D01*
X0192750Y0069554D01*
X0193557Y0071502D01*
X0195048Y0072993D01*
X0196996Y0073800D01*
X0199104Y0073800D01*
X0201052Y0072993D01*
X0202543Y0071502D01*
X0203050Y0070278D01*
X0203557Y0071502D01*
X0205048Y0072993D01*
X0206996Y0073800D01*
X0209104Y0073800D01*
X0211052Y0072993D01*
X0212543Y0071502D01*
X0213350Y0069554D01*
X0213350Y0067446D01*
X0212543Y0065498D01*
X0211052Y0064007D01*
X0209104Y0063200D01*
X0206996Y0063200D01*
X0205048Y0064007D01*
X0203557Y0065498D01*
X0203050Y0066722D01*
X0202543Y0065498D01*
X0201052Y0064007D01*
X0199104Y0063200D01*
X0196996Y0063200D01*
X0199447Y0063342D02*
X0206653Y0063342D01*
X0209447Y0063342D02*
X0221127Y0063342D01*
X0220939Y0063403D02*
X0221762Y0063135D01*
X0222617Y0063000D01*
X0222964Y0063000D01*
X0222964Y0068414D01*
X0217550Y0068414D01*
X0217550Y0068067D01*
X0217685Y0067212D01*
X0217953Y0066389D01*
X0218346Y0065617D01*
X0218855Y0064917D01*
X0219467Y0064305D01*
X0220167Y0063796D01*
X0220939Y0063403D01*
X0222964Y0063342D02*
X0223136Y0063342D01*
X0223136Y0063000D02*
X0223483Y0063000D01*
X0224338Y0063135D01*
X0225161Y0063403D01*
X0225933Y0063796D01*
X0226633Y0064305D01*
X0227245Y0064917D01*
X0227754Y0065617D01*
X0228147Y0066389D01*
X0228415Y0067212D01*
X0228550Y0068067D01*
X0228550Y0068414D01*
X0223136Y0068414D01*
X0223136Y0068586D01*
X0222964Y0068586D01*
X0222964Y0074000D01*
X0222617Y0074000D01*
X0221762Y0073865D01*
X0220939Y0073597D01*
X0220167Y0073204D01*
X0219467Y0072695D01*
X0218855Y0072083D01*
X0218346Y0071383D01*
X0217953Y0070611D01*
X0217685Y0069788D01*
X0217550Y0068933D01*
X0217550Y0068586D01*
X0222964Y0068586D01*
X0222964Y0068414D01*
X0223136Y0068414D01*
X0223136Y0063000D01*
X0224973Y0063342D02*
X0228950Y0063342D01*
X0228950Y0064940D02*
X0227262Y0064940D01*
X0228196Y0066539D02*
X0228950Y0066539D01*
X0228950Y0068137D02*
X0228550Y0068137D01*
X0228550Y0068586D02*
X0228550Y0068933D01*
X0228415Y0069788D01*
X0228147Y0070611D01*
X0227754Y0071383D01*
X0227245Y0072083D01*
X0226633Y0072695D01*
X0225933Y0073204D01*
X0225161Y0073597D01*
X0224338Y0073865D01*
X0223483Y0074000D01*
X0223136Y0074000D01*
X0223136Y0068586D01*
X0228550Y0068586D01*
X0228423Y0069736D02*
X0228950Y0069736D01*
X0228950Y0071334D02*
X0227779Y0071334D01*
X0228950Y0072933D02*
X0226306Y0072933D01*
X0228950Y0074532D02*
X0137150Y0074532D01*
X0137150Y0076130D02*
X0180356Y0076130D01*
X0180014Y0076471D02*
X0181021Y0075464D01*
X0182338Y0074919D01*
X0183762Y0074919D01*
X0185079Y0075464D01*
X0186086Y0076471D01*
X0186631Y0077788D01*
X0186631Y0079212D01*
X0186086Y0080529D01*
X0185079Y0081536D01*
X0183762Y0082081D01*
X0182338Y0082081D01*
X0181021Y0081536D01*
X0180014Y0080529D01*
X0179469Y0079212D01*
X0179469Y0077788D01*
X0180014Y0076471D01*
X0179493Y0077729D02*
X0165818Y0077729D01*
X0166945Y0079327D02*
X0179516Y0079327D01*
X0180411Y0080926D02*
X0167250Y0080926D01*
X0167250Y0082524D02*
X0198850Y0082524D01*
X0198850Y0080926D02*
X0185689Y0080926D01*
X0186584Y0079327D02*
X0199155Y0079327D01*
X0200282Y0077729D02*
X0186607Y0077729D01*
X0185744Y0076130D02*
X0228950Y0076130D01*
X0228950Y0077729D02*
X0225818Y0077729D01*
X0226945Y0079327D02*
X0228950Y0079327D01*
X0228850Y0080926D02*
X0227250Y0080926D01*
X0227250Y0082524D02*
X0228850Y0082524D01*
X0228850Y0084123D02*
X0227250Y0084123D01*
X0227250Y0085721D02*
X0228850Y0085721D01*
X0229009Y0087320D02*
X0227091Y0087320D01*
X0219009Y0087320D02*
X0217091Y0087320D01*
X0217250Y0085721D02*
X0218850Y0085721D01*
X0218850Y0084123D02*
X0217250Y0084123D01*
X0217250Y0082524D02*
X0218850Y0082524D01*
X0218850Y0080926D02*
X0217250Y0080926D01*
X0216945Y0079327D02*
X0219155Y0079327D01*
X0220282Y0077729D02*
X0215818Y0077729D01*
X0210282Y0077729D02*
X0205818Y0077729D01*
X0206945Y0079327D02*
X0209155Y0079327D01*
X0208850Y0080926D02*
X0207250Y0080926D01*
X0207250Y0082524D02*
X0208850Y0082524D01*
X0208850Y0084123D02*
X0207250Y0084123D01*
X0207250Y0085721D02*
X0208850Y0085721D01*
X0209009Y0087320D02*
X0207091Y0087320D01*
X0205550Y0091000D02*
X0203050Y0088500D01*
X0203050Y0083500D01*
X0198850Y0084123D02*
X0167250Y0084123D01*
X0167250Y0085721D02*
X0198850Y0085721D01*
X0199009Y0087320D02*
X0167091Y0087320D01*
X0171795Y0088918D02*
X0199928Y0088918D01*
X0201673Y0090517D02*
X0173461Y0090517D01*
X0175059Y0092115D02*
X0203271Y0092115D01*
X0205550Y0091000D02*
X0265550Y0091000D01*
X0278050Y0078500D01*
X0278050Y0061000D01*
X0285550Y0053500D01*
X0280306Y0055349D02*
X0237319Y0055349D01*
X0238261Y0056948D02*
X0278708Y0056948D01*
X0277109Y0058546D02*
X0238650Y0058546D01*
X0238637Y0060145D02*
X0275806Y0060145D01*
X0275650Y0061743D02*
X0237975Y0061743D01*
X0237150Y0063342D02*
X0241127Y0063342D01*
X0240939Y0063403D02*
X0241762Y0063135D01*
X0242617Y0063000D01*
X0242964Y0063000D01*
X0242964Y0068414D01*
X0237550Y0068414D01*
X0237550Y0068067D01*
X0237685Y0067212D01*
X0237953Y0066389D01*
X0238346Y0065617D01*
X0238855Y0064917D01*
X0239467Y0064305D01*
X0240167Y0063796D01*
X0240939Y0063403D01*
X0242964Y0063342D02*
X0243136Y0063342D01*
X0243136Y0063000D02*
X0243483Y0063000D01*
X0244338Y0063135D01*
X0245161Y0063403D01*
X0245933Y0063796D01*
X0246633Y0064305D01*
X0247245Y0064917D01*
X0247754Y0065617D01*
X0248147Y0066389D01*
X0248415Y0067212D01*
X0248550Y0068067D01*
X0248550Y0068414D01*
X0243136Y0068414D01*
X0243136Y0068586D01*
X0242964Y0068586D01*
X0242964Y0074000D01*
X0242617Y0074000D01*
X0241762Y0073865D01*
X0240939Y0073597D01*
X0240167Y0073204D01*
X0239467Y0072695D01*
X0238855Y0072083D01*
X0238346Y0071383D01*
X0237953Y0070611D01*
X0237685Y0069788D01*
X0237550Y0068933D01*
X0237550Y0068586D01*
X0242964Y0068586D01*
X0242964Y0068414D01*
X0243136Y0068414D01*
X0243136Y0063000D01*
X0244973Y0063342D02*
X0256653Y0063342D01*
X0256996Y0063200D02*
X0259104Y0063200D01*
X0261052Y0064007D01*
X0262543Y0065498D01*
X0263050Y0066722D01*
X0263557Y0065498D01*
X0265048Y0064007D01*
X0266996Y0063200D01*
X0269104Y0063200D01*
X0271052Y0064007D01*
X0272543Y0065498D01*
X0273350Y0067446D01*
X0273350Y0069554D01*
X0272543Y0071502D01*
X0271052Y0072993D01*
X0269104Y0073800D01*
X0266996Y0073800D01*
X0265048Y0072993D01*
X0263557Y0071502D01*
X0263050Y0070278D01*
X0262543Y0071502D01*
X0261052Y0072993D01*
X0259104Y0073800D01*
X0256996Y0073800D01*
X0255048Y0072993D01*
X0253557Y0071502D01*
X0252750Y0069554D01*
X0252750Y0067446D01*
X0253557Y0065498D01*
X0255048Y0064007D01*
X0256996Y0063200D01*
X0259447Y0063342D02*
X0266653Y0063342D01*
X0269447Y0063342D02*
X0275650Y0063342D01*
X0275650Y0064940D02*
X0271986Y0064940D01*
X0272974Y0066539D02*
X0275650Y0066539D01*
X0275650Y0068137D02*
X0273350Y0068137D01*
X0273275Y0069736D02*
X0275650Y0069736D01*
X0275650Y0071334D02*
X0272613Y0071334D01*
X0271112Y0072933D02*
X0275650Y0072933D01*
X0275650Y0074532D02*
X0237150Y0074532D01*
X0237150Y0076130D02*
X0275650Y0076130D01*
X0275427Y0077729D02*
X0265818Y0077729D01*
X0266945Y0079327D02*
X0273829Y0079327D01*
X0272230Y0080926D02*
X0267250Y0080926D01*
X0267250Y0082524D02*
X0270632Y0082524D01*
X0269033Y0084123D02*
X0267250Y0084123D01*
X0267250Y0085721D02*
X0267435Y0085721D01*
X0259009Y0087320D02*
X0257091Y0087320D01*
X0257250Y0085721D02*
X0258850Y0085721D01*
X0258850Y0084123D02*
X0257250Y0084123D01*
X0257250Y0082524D02*
X0258850Y0082524D01*
X0258850Y0080926D02*
X0257250Y0080926D01*
X0256945Y0079327D02*
X0259155Y0079327D01*
X0260282Y0077729D02*
X0255818Y0077729D01*
X0250282Y0077729D02*
X0245818Y0077729D01*
X0246945Y0079327D02*
X0249155Y0079327D01*
X0248850Y0080926D02*
X0247250Y0080926D01*
X0247250Y0082524D02*
X0248850Y0082524D01*
X0248850Y0084123D02*
X0247250Y0084123D01*
X0247250Y0085721D02*
X0248850Y0085721D01*
X0249009Y0087320D02*
X0247091Y0087320D01*
X0239009Y0087320D02*
X0237091Y0087320D01*
X0237250Y0085721D02*
X0238850Y0085721D01*
X0238850Y0084123D02*
X0237250Y0084123D01*
X0237250Y0082524D02*
X0238850Y0082524D01*
X0238850Y0080926D02*
X0237250Y0080926D01*
X0237150Y0079327D02*
X0239155Y0079327D01*
X0240282Y0077729D02*
X0237150Y0077729D01*
X0237150Y0072933D02*
X0239794Y0072933D01*
X0238321Y0071334D02*
X0237150Y0071334D01*
X0237150Y0069736D02*
X0237677Y0069736D01*
X0237550Y0068137D02*
X0237150Y0068137D01*
X0237150Y0066539D02*
X0237904Y0066539D01*
X0237150Y0064940D02*
X0238838Y0064940D01*
X0242964Y0064940D02*
X0243136Y0064940D01*
X0243136Y0066539D02*
X0242964Y0066539D01*
X0242964Y0068137D02*
X0243136Y0068137D01*
X0243136Y0068586D02*
X0248550Y0068586D01*
X0248550Y0068933D01*
X0248415Y0069788D01*
X0248147Y0070611D01*
X0247754Y0071383D01*
X0247245Y0072083D01*
X0246633Y0072695D01*
X0245933Y0073204D01*
X0245161Y0073597D01*
X0244338Y0073865D01*
X0243483Y0074000D01*
X0243136Y0074000D01*
X0243136Y0068586D01*
X0243136Y0069736D02*
X0242964Y0069736D01*
X0242964Y0071334D02*
X0243136Y0071334D01*
X0243136Y0072933D02*
X0242964Y0072933D01*
X0246306Y0072933D02*
X0254988Y0072933D01*
X0253487Y0071334D02*
X0247779Y0071334D01*
X0248423Y0069736D02*
X0252825Y0069736D01*
X0252750Y0068137D02*
X0248550Y0068137D01*
X0248196Y0066539D02*
X0253126Y0066539D01*
X0254114Y0064940D02*
X0247262Y0064940D01*
X0261986Y0064940D02*
X0264114Y0064940D01*
X0263126Y0066539D02*
X0262974Y0066539D01*
X0262613Y0071334D02*
X0263487Y0071334D01*
X0264988Y0072933D02*
X0261112Y0072933D01*
X0282624Y0087320D02*
X0294374Y0087320D01*
X0295262Y0088918D02*
X0281026Y0088918D01*
X0279427Y0090517D02*
X0293549Y0090517D01*
X0292887Y0092115D02*
X0277829Y0092115D01*
X0276230Y0093714D02*
X0292750Y0093714D01*
X0293064Y0095312D02*
X0274632Y0095312D01*
X0273033Y0096911D02*
X0293965Y0096911D01*
X0296249Y0098509D02*
X0271435Y0098509D01*
X0269836Y0100108D02*
X0293947Y0100108D01*
X0293056Y0101706D02*
X0268238Y0101706D01*
X0266639Y0103305D02*
X0292750Y0103305D01*
X0292895Y0104903D02*
X0265450Y0104903D01*
X0265450Y0106502D02*
X0293557Y0106502D01*
X0295306Y0108100D02*
X0266190Y0108100D01*
X0267098Y0109699D02*
X0294356Y0109699D01*
X0298050Y0113500D02*
X0288050Y0113500D01*
X0283050Y0118500D01*
X0283050Y0168500D01*
X0273050Y0178500D01*
X0173050Y0178500D01*
X0168050Y0173500D01*
X0168050Y0168500D01*
X0163495Y0165647D02*
X0162769Y0165647D01*
X0161280Y0164048D02*
X0165007Y0164048D01*
X0171093Y0164048D02*
X0195007Y0164048D01*
X0195048Y0164007D02*
X0196996Y0163200D01*
X0199104Y0163200D01*
X0201052Y0164007D01*
X0202543Y0165498D01*
X0202935Y0166444D01*
X0202953Y0166389D01*
X0203346Y0165617D01*
X0203855Y0164917D01*
X0204467Y0164305D01*
X0205167Y0163796D01*
X0205939Y0163403D01*
X0206762Y0163135D01*
X0207617Y0163000D01*
X0207964Y0163000D01*
X0207964Y0168414D01*
X0208136Y0168414D01*
X0208136Y0168586D01*
X0207964Y0168586D01*
X0207964Y0174000D01*
X0207617Y0174000D01*
X0206762Y0173865D01*
X0205939Y0173597D01*
X0205167Y0173204D01*
X0204467Y0172695D01*
X0203855Y0172083D01*
X0203346Y0171383D01*
X0202953Y0170611D01*
X0202935Y0170556D01*
X0202543Y0171502D01*
X0201052Y0172993D01*
X0199104Y0173800D01*
X0196996Y0173800D01*
X0195048Y0172993D01*
X0193557Y0171502D01*
X0192750Y0169554D01*
X0192750Y0167446D01*
X0193557Y0165498D01*
X0195048Y0164007D01*
X0193495Y0165647D02*
X0172605Y0165647D01*
X0173267Y0167245D02*
X0192833Y0167245D01*
X0192750Y0168844D02*
X0173350Y0168844D01*
X0172982Y0170442D02*
X0193118Y0170442D01*
X0194095Y0172041D02*
X0172005Y0172041D01*
X0171583Y0173639D02*
X0196608Y0173639D01*
X0199492Y0173639D02*
X0206069Y0173639D01*
X0207964Y0173639D02*
X0208136Y0173639D01*
X0208136Y0174000D02*
X0208136Y0168586D01*
X0213550Y0168586D01*
X0213550Y0168933D01*
X0213415Y0169788D01*
X0213147Y0170611D01*
X0212754Y0171383D01*
X0212245Y0172083D01*
X0211633Y0172695D01*
X0210933Y0173204D01*
X0210161Y0173597D01*
X0209338Y0173865D01*
X0208483Y0174000D01*
X0208136Y0174000D01*
X0210031Y0173639D02*
X0221608Y0173639D01*
X0221996Y0173800D02*
X0220048Y0172993D01*
X0218557Y0171502D01*
X0217750Y0169554D01*
X0217750Y0167446D01*
X0218557Y0165498D01*
X0220048Y0164007D01*
X0221996Y0163200D01*
X0224104Y0163200D01*
X0226052Y0164007D01*
X0227543Y0165498D01*
X0228350Y0167446D01*
X0228350Y0169554D01*
X0227543Y0171502D01*
X0226052Y0172993D01*
X0224104Y0173800D01*
X0221996Y0173800D01*
X0224492Y0173639D02*
X0241608Y0173639D01*
X0241996Y0173800D02*
X0240048Y0172993D01*
X0238557Y0171502D01*
X0237750Y0169554D01*
X0237750Y0167446D01*
X0238557Y0165498D01*
X0240048Y0164007D01*
X0241996Y0163200D01*
X0244104Y0163200D01*
X0246052Y0164007D01*
X0247543Y0165498D01*
X0248350Y0167446D01*
X0248350Y0169554D01*
X0247543Y0171502D01*
X0246052Y0172993D01*
X0244104Y0173800D01*
X0241996Y0173800D01*
X0244492Y0173639D02*
X0256069Y0173639D01*
X0255939Y0173597D02*
X0255167Y0173204D01*
X0254467Y0172695D01*
X0253855Y0172083D01*
X0253346Y0171383D01*
X0252953Y0170611D01*
X0252685Y0169788D01*
X0252550Y0168933D01*
X0252550Y0168586D01*
X0257964Y0168586D01*
X0257964Y0174000D01*
X0257617Y0174000D01*
X0256762Y0173865D01*
X0255939Y0173597D01*
X0257964Y0173639D02*
X0258136Y0173639D01*
X0258136Y0174000D02*
X0258136Y0168586D01*
X0257964Y0168586D01*
X0257964Y0168414D01*
X0252550Y0168414D01*
X0252550Y0168067D01*
X0252685Y0167212D01*
X0252953Y0166389D01*
X0253346Y0165617D01*
X0253855Y0164917D01*
X0254467Y0164305D01*
X0255167Y0163796D01*
X0255939Y0163403D01*
X0256762Y0163135D01*
X0257617Y0163000D01*
X0257964Y0163000D01*
X0257964Y0168414D01*
X0258136Y0168414D01*
X0258136Y0163000D01*
X0258483Y0163000D01*
X0259338Y0163135D01*
X0260161Y0163403D01*
X0260933Y0163796D01*
X0261633Y0164305D01*
X0262245Y0164917D01*
X0262754Y0165617D01*
X0263147Y0166389D01*
X0263165Y0166444D01*
X0263557Y0165498D01*
X0265048Y0164007D01*
X0266996Y0163200D01*
X0269104Y0163200D01*
X0271052Y0164007D01*
X0272543Y0165498D01*
X0273350Y0167446D01*
X0273350Y0169554D01*
X0272543Y0171502D01*
X0271052Y0172993D01*
X0269104Y0173800D01*
X0266996Y0173800D01*
X0265048Y0172993D01*
X0263557Y0171502D01*
X0263165Y0170556D01*
X0263147Y0170611D01*
X0262754Y0171383D01*
X0262245Y0172083D01*
X0261633Y0172695D01*
X0260933Y0173204D01*
X0260161Y0173597D01*
X0259338Y0173865D01*
X0258483Y0174000D01*
X0258136Y0174000D01*
X0260031Y0173639D02*
X0266608Y0173639D01*
X0269492Y0173639D02*
X0274517Y0173639D01*
X0276115Y0172041D02*
X0272005Y0172041D01*
X0272982Y0170442D02*
X0277714Y0170442D01*
X0279312Y0168844D02*
X0273350Y0168844D01*
X0273267Y0167245D02*
X0280650Y0167245D01*
X0280650Y0165647D02*
X0272605Y0165647D01*
X0271093Y0164048D02*
X0280650Y0164048D01*
X0280650Y0162450D02*
X0019694Y0162450D01*
X0016406Y0162450D02*
X0007850Y0162450D01*
X0007850Y0164048D02*
X0012223Y0164048D01*
X0010207Y0165647D02*
X0007850Y0165647D01*
X0007850Y0167245D02*
X0008845Y0167245D01*
X0007922Y0168844D02*
X0007850Y0168844D01*
X0007850Y0160851D02*
X0280650Y0160851D01*
X0280650Y0159253D02*
X0007850Y0159253D01*
X0007850Y0157654D02*
X0112656Y0157654D01*
X0112867Y0157654D02*
X0153233Y0157654D01*
X0153444Y0157654D02*
X0213137Y0157654D01*
X0213356Y0157654D02*
X0280650Y0157654D01*
X0280650Y0156056D02*
X0216476Y0156056D01*
X0218607Y0154457D02*
X0231076Y0154457D01*
X0232850Y0154457D02*
X0233250Y0154457D01*
X0233250Y0154800D02*
X0233250Y0149200D01*
X0238850Y0149200D01*
X0238850Y0149456D01*
X0238707Y0150358D01*
X0238425Y0151226D01*
X0238011Y0152040D01*
X0237474Y0152778D01*
X0236828Y0153424D01*
X0236090Y0153961D01*
X0235276Y0154375D01*
X0234408Y0154657D01*
X0233506Y0154800D01*
X0233250Y0154800D01*
X0235024Y0154457D02*
X0280650Y0154457D01*
X0280650Y0152859D02*
X0237394Y0152859D01*
X0238408Y0151260D02*
X0280650Y0151260D01*
X0280650Y0149662D02*
X0238818Y0149662D01*
X0238774Y0148063D02*
X0280650Y0148063D01*
X0280650Y0146465D02*
X0238268Y0146465D01*
X0237118Y0144866D02*
X0280650Y0144866D01*
X0280650Y0143268D02*
X0234967Y0143268D01*
X0237301Y0141669D02*
X0280650Y0141669D01*
X0280650Y0140070D02*
X0238254Y0140070D01*
X0238650Y0138472D02*
X0280650Y0138472D01*
X0280650Y0136873D02*
X0238645Y0136873D01*
X0237983Y0135275D02*
X0280650Y0135275D01*
X0280650Y0133676D02*
X0269403Y0133676D01*
X0269104Y0133800D02*
X0266996Y0133800D01*
X0265048Y0132993D01*
X0263557Y0131502D01*
X0263050Y0130278D01*
X0262543Y0131502D01*
X0261052Y0132993D01*
X0259104Y0133800D01*
X0256996Y0133800D01*
X0255048Y0132993D01*
X0253557Y0131502D01*
X0252750Y0129554D01*
X0252750Y0127446D01*
X0253557Y0125498D01*
X0255048Y0124007D01*
X0256996Y0123200D01*
X0259104Y0123200D01*
X0261052Y0124007D01*
X0262543Y0125498D01*
X0263050Y0126722D01*
X0263557Y0125498D01*
X0265048Y0124007D01*
X0266996Y0123200D01*
X0269104Y0123200D01*
X0271052Y0124007D01*
X0272543Y0125498D01*
X0273350Y0127446D01*
X0273350Y0129554D01*
X0272543Y0131502D01*
X0271052Y0132993D01*
X0269104Y0133800D01*
X0266697Y0133676D02*
X0259403Y0133676D01*
X0256697Y0133676D02*
X0244917Y0133676D01*
X0245161Y0133597D02*
X0244338Y0133865D01*
X0243483Y0134000D01*
X0243136Y0134000D01*
X0243136Y0128586D01*
X0242964Y0128586D01*
X0242964Y0134000D01*
X0242617Y0134000D01*
X0241762Y0133865D01*
X0240939Y0133597D01*
X0240167Y0133204D01*
X0239467Y0132695D01*
X0238855Y0132083D01*
X0238346Y0131383D01*
X0237953Y0130611D01*
X0237685Y0129788D01*
X0237550Y0128933D01*
X0237550Y0128586D01*
X0242964Y0128586D01*
X0242964Y0128414D01*
X0237550Y0128414D01*
X0237550Y0128067D01*
X0237685Y0127212D01*
X0237953Y0126389D01*
X0238346Y0125617D01*
X0238855Y0124917D01*
X0239467Y0124305D01*
X0240167Y0123796D01*
X0240939Y0123403D01*
X0241762Y0123135D01*
X0242617Y0123000D01*
X0242964Y0123000D01*
X0242964Y0128414D01*
X0243136Y0128414D01*
X0243136Y0128586D01*
X0248550Y0128586D01*
X0248550Y0128933D01*
X0248415Y0129788D01*
X0248147Y0130611D01*
X0247754Y0131383D01*
X0247245Y0132083D01*
X0246633Y0132695D01*
X0245933Y0133204D01*
X0245161Y0133597D01*
X0243136Y0133676D02*
X0242964Y0133676D01*
X0242964Y0132078D02*
X0243136Y0132078D01*
X0243136Y0130479D02*
X0242964Y0130479D01*
X0242964Y0128881D02*
X0243136Y0128881D01*
X0243136Y0128414D02*
X0248550Y0128414D01*
X0248550Y0128067D01*
X0248415Y0127212D01*
X0248147Y0126389D01*
X0247754Y0125617D01*
X0247245Y0124917D01*
X0246633Y0124305D01*
X0245933Y0123796D01*
X0245161Y0123403D01*
X0244338Y0123135D01*
X0243483Y0123000D01*
X0243136Y0123000D01*
X0243136Y0128414D01*
X0243136Y0127282D02*
X0242964Y0127282D01*
X0242964Y0125684D02*
X0243136Y0125684D01*
X0243136Y0124085D02*
X0242964Y0124085D01*
X0239769Y0124085D02*
X0237150Y0124085D01*
X0237150Y0122487D02*
X0280650Y0122487D01*
X0280650Y0124085D02*
X0271131Y0124085D01*
X0272620Y0125684D02*
X0280650Y0125684D01*
X0280650Y0127282D02*
X0273282Y0127282D01*
X0273350Y0128881D02*
X0280650Y0128881D01*
X0280650Y0130479D02*
X0272967Y0130479D01*
X0271967Y0132078D02*
X0280650Y0132078D01*
X0285450Y0132078D02*
X0285650Y0132078D01*
X0285650Y0133676D02*
X0285450Y0133676D01*
X0285450Y0135275D02*
X0285650Y0135275D01*
X0285650Y0136873D02*
X0285450Y0136873D01*
X0285450Y0138472D02*
X0285650Y0138472D01*
X0285650Y0140070D02*
X0285450Y0140070D01*
X0285450Y0141669D02*
X0285650Y0141669D01*
X0285650Y0143268D02*
X0285450Y0143268D01*
X0285450Y0144866D02*
X0285650Y0144866D01*
X0285650Y0146465D02*
X0285450Y0146465D01*
X0285450Y0148063D02*
X0285650Y0148063D01*
X0285650Y0149662D02*
X0285450Y0149662D01*
X0285450Y0151260D02*
X0285650Y0151260D01*
X0285650Y0152859D02*
X0285450Y0152859D01*
X0285450Y0154457D02*
X0285650Y0154457D01*
X0285650Y0156056D02*
X0285450Y0156056D01*
X0285450Y0157654D02*
X0285650Y0157654D01*
X0285650Y0159253D02*
X0285450Y0159253D01*
X0285450Y0160851D02*
X0285650Y0160851D01*
X0285650Y0162450D02*
X0285450Y0162450D01*
X0285450Y0164048D02*
X0285650Y0164048D01*
X0285650Y0165647D02*
X0285450Y0165647D01*
X0285450Y0167245D02*
X0285650Y0167245D01*
X0285650Y0168844D02*
X0285450Y0168844D01*
X0285214Y0170442D02*
X0284502Y0170442D01*
X0283615Y0172041D02*
X0282903Y0172041D01*
X0282017Y0173639D02*
X0281305Y0173639D01*
X0280418Y0175238D02*
X0279706Y0175238D01*
X0278820Y0176836D02*
X0278108Y0176836D01*
X0277221Y0178435D02*
X0276509Y0178435D01*
X0275623Y0180033D02*
X0274911Y0180033D01*
X0275550Y0183500D02*
X0108050Y0183500D01*
X0098050Y0173500D01*
X0098050Y0168500D01*
X0102605Y0165647D02*
X0103331Y0165647D01*
X0104820Y0164048D02*
X0101093Y0164048D01*
X0095007Y0164048D02*
X0023877Y0164048D01*
X0025893Y0165647D02*
X0065839Y0165647D01*
X0066021Y0165464D02*
X0067338Y0164919D01*
X0068762Y0164919D01*
X0070079Y0165464D01*
X0071086Y0166471D01*
X0071631Y0167788D01*
X0071631Y0169212D01*
X0071086Y0170529D01*
X0070079Y0171536D01*
X0068762Y0172081D01*
X0067338Y0172081D01*
X0066021Y0171536D01*
X0065014Y0170529D01*
X0064469Y0169212D01*
X0064469Y0167788D01*
X0065014Y0166471D01*
X0066021Y0165464D01*
X0064694Y0167245D02*
X0027255Y0167245D01*
X0028178Y0168844D02*
X0064469Y0168844D01*
X0064978Y0170442D02*
X0028721Y0170442D01*
X0029149Y0172041D02*
X0067240Y0172041D01*
X0068860Y0172041D02*
X0094095Y0172041D01*
X0093118Y0170442D02*
X0071122Y0170442D01*
X0071631Y0168844D02*
X0092750Y0168844D01*
X0092833Y0167245D02*
X0071406Y0167245D01*
X0070261Y0165647D02*
X0093495Y0165647D01*
X0102005Y0172041D02*
X0103824Y0172041D01*
X0101583Y0173639D02*
X0106069Y0173639D01*
X0107964Y0173639D02*
X0108136Y0173639D01*
X0108136Y0174000D02*
X0108136Y0168586D01*
X0113550Y0168586D01*
X0113550Y0168933D01*
X0113415Y0169788D01*
X0113147Y0170611D01*
X0112754Y0171383D01*
X0112245Y0172083D01*
X0111633Y0172695D01*
X0110933Y0173204D01*
X0110161Y0173597D01*
X0109338Y0173865D01*
X0108483Y0174000D01*
X0108136Y0174000D01*
X0110031Y0173639D02*
X0121608Y0173639D01*
X0121996Y0173800D02*
X0120048Y0172993D01*
X0118557Y0171502D01*
X0117750Y0169554D01*
X0117750Y0167446D01*
X0118557Y0165498D01*
X0120048Y0164007D01*
X0121996Y0163200D01*
X0124104Y0163200D01*
X0126052Y0164007D01*
X0127543Y0165498D01*
X0128350Y0167446D01*
X0128350Y0169554D01*
X0127543Y0171502D01*
X0126052Y0172993D01*
X0124104Y0173800D01*
X0121996Y0173800D01*
X0124492Y0173639D02*
X0141608Y0173639D01*
X0141996Y0173800D02*
X0140048Y0172993D01*
X0138557Y0171502D01*
X0137750Y0169554D01*
X0137750Y0167446D01*
X0138557Y0165498D01*
X0140048Y0164007D01*
X0141996Y0163200D01*
X0144104Y0163200D01*
X0146052Y0164007D01*
X0147543Y0165498D01*
X0148350Y0167446D01*
X0148350Y0169554D01*
X0147543Y0171502D01*
X0146052Y0172993D01*
X0144104Y0173800D01*
X0141996Y0173800D01*
X0144492Y0173639D02*
X0156069Y0173639D01*
X0157964Y0173639D02*
X0158136Y0173639D01*
X0158136Y0172041D02*
X0157964Y0172041D01*
X0157964Y0170442D02*
X0158136Y0170442D01*
X0158136Y0168844D02*
X0157964Y0168844D01*
X0157964Y0168414D02*
X0152550Y0168414D01*
X0152550Y0168067D01*
X0152685Y0167212D01*
X0152953Y0166389D01*
X0153346Y0165617D01*
X0153855Y0164917D01*
X0154467Y0164305D01*
X0155167Y0163796D01*
X0155939Y0163403D01*
X0156762Y0163135D01*
X0157617Y0163000D01*
X0157964Y0163000D01*
X0157964Y0168414D01*
X0157964Y0167245D02*
X0158136Y0167245D01*
X0158136Y0165647D02*
X0157964Y0165647D01*
X0157964Y0164048D02*
X0158136Y0164048D01*
X0154820Y0164048D02*
X0146093Y0164048D01*
X0147605Y0165647D02*
X0153331Y0165647D01*
X0152680Y0167245D02*
X0148267Y0167245D01*
X0148350Y0168844D02*
X0152550Y0168844D01*
X0152898Y0170442D02*
X0147982Y0170442D01*
X0147005Y0172041D02*
X0153824Y0172041D01*
X0160031Y0173639D02*
X0165650Y0173639D01*
X0166394Y0175238D02*
X0103182Y0175238D01*
X0104780Y0176836D02*
X0167992Y0176836D01*
X0169591Y0178435D02*
X0106379Y0178435D01*
X0107977Y0180033D02*
X0171189Y0180033D01*
X0171015Y0179859D02*
X0171015Y0179859D01*
X0173182Y0175238D02*
X0272918Y0175238D01*
X0282411Y0180033D02*
X0299470Y0180033D01*
X0299451Y0179961D02*
X0299451Y0177039D01*
X0300016Y0174928D01*
X0299131Y0175813D01*
X0299131Y0176712D01*
X0298586Y0178029D01*
X0297579Y0179036D01*
X0296262Y0179581D01*
X0294838Y0179581D01*
X0293521Y0179036D01*
X0292514Y0178029D01*
X0291969Y0176712D01*
X0291969Y0175288D01*
X0292514Y0173971D01*
X0293521Y0172964D01*
X0294838Y0172419D01*
X0295737Y0172419D01*
X0303150Y0165006D01*
X0303150Y0145602D01*
X0303147Y0145611D01*
X0302754Y0146383D01*
X0302245Y0147083D01*
X0301633Y0147695D01*
X0300933Y0148204D01*
X0300161Y0148597D01*
X0299338Y0148865D01*
X0298483Y0149000D01*
X0298250Y0149000D01*
X0298250Y0143700D01*
X0297850Y0143700D01*
X0297850Y0149000D01*
X0297617Y0149000D01*
X0296762Y0148865D01*
X0295939Y0148597D01*
X0295167Y0148204D01*
X0294467Y0147695D01*
X0293855Y0147083D01*
X0293346Y0146383D01*
X0292953Y0145611D01*
X0292685Y0144788D01*
X0292550Y0143933D01*
X0292550Y0143700D01*
X0297850Y0143700D01*
X0297850Y0143300D01*
X0298250Y0143300D01*
X0298250Y0138000D01*
X0298250Y0133700D01*
X0297850Y0133700D01*
X0297850Y0143300D01*
X0292550Y0143300D01*
X0292550Y0143067D01*
X0292685Y0142212D01*
X0292953Y0141389D01*
X0293346Y0140617D01*
X0293855Y0139917D01*
X0294467Y0139305D01*
X0295167Y0138796D01*
X0295748Y0138500D01*
X0295167Y0138204D01*
X0294467Y0137695D01*
X0293855Y0137083D01*
X0293346Y0136383D01*
X0292953Y0135611D01*
X0292685Y0134788D01*
X0292550Y0133933D01*
X0292550Y0133700D01*
X0297850Y0133700D01*
X0297850Y0133300D01*
X0292550Y0133300D01*
X0292550Y0133067D01*
X0292685Y0132212D01*
X0292953Y0131389D01*
X0293346Y0130617D01*
X0293855Y0129917D01*
X0294467Y0129305D01*
X0295167Y0128796D01*
X0295939Y0128403D01*
X0295994Y0128385D01*
X0295048Y0127993D01*
X0293557Y0126502D01*
X0293307Y0125900D01*
X0291544Y0125900D01*
X0290450Y0126994D01*
X0290450Y0171477D01*
X0290085Y0172359D01*
X0278783Y0183661D01*
X0300713Y0183661D01*
X0300207Y0182784D01*
X0299451Y0179961D01*
X0299451Y0178435D02*
X0298180Y0178435D01*
X0299080Y0176836D02*
X0299505Y0176836D01*
X0299706Y0175238D02*
X0299933Y0175238D01*
X0296115Y0172041D02*
X0290217Y0172041D01*
X0290450Y0170442D02*
X0297714Y0170442D01*
X0299312Y0168844D02*
X0290450Y0168844D01*
X0290450Y0167245D02*
X0300911Y0167245D01*
X0302509Y0165647D02*
X0290450Y0165647D01*
X0290450Y0164048D02*
X0303150Y0164048D01*
X0303150Y0162450D02*
X0290450Y0162450D01*
X0290450Y0160851D02*
X0303150Y0160851D01*
X0303150Y0159253D02*
X0290450Y0159253D01*
X0290450Y0157654D02*
X0303150Y0157654D01*
X0303150Y0156056D02*
X0290450Y0156056D01*
X0290450Y0154457D02*
X0303150Y0154457D01*
X0303150Y0152859D02*
X0290450Y0152859D01*
X0290450Y0151260D02*
X0303150Y0151260D01*
X0303150Y0149662D02*
X0290450Y0149662D01*
X0290450Y0148063D02*
X0294973Y0148063D01*
X0293405Y0146465D02*
X0290450Y0146465D01*
X0290450Y0144866D02*
X0292711Y0144866D01*
X0292550Y0143268D02*
X0290450Y0143268D01*
X0290450Y0141669D02*
X0292862Y0141669D01*
X0293743Y0140070D02*
X0290450Y0140070D01*
X0290450Y0138472D02*
X0295693Y0138472D01*
X0297850Y0138472D02*
X0298250Y0138472D01*
X0298250Y0140070D02*
X0297850Y0140070D01*
X0297850Y0141669D02*
X0298250Y0141669D01*
X0298250Y0143268D02*
X0297850Y0143268D01*
X0297850Y0144866D02*
X0298250Y0144866D01*
X0298250Y0146465D02*
X0297850Y0146465D01*
X0297850Y0148063D02*
X0298250Y0148063D01*
X0301127Y0148063D02*
X0303150Y0148063D01*
X0303150Y0146465D02*
X0302695Y0146465D01*
X0307950Y0146465D02*
X0316951Y0146465D01*
X0316951Y0148063D02*
X0307950Y0148063D01*
X0307950Y0149662D02*
X0316951Y0149662D01*
X0316951Y0151260D02*
X0307950Y0151260D01*
X0307950Y0152859D02*
X0316951Y0152859D01*
X0316951Y0154457D02*
X0307950Y0154457D01*
X0307950Y0156056D02*
X0316951Y0156056D01*
X0316951Y0157654D02*
X0307950Y0157654D01*
X0307950Y0159253D02*
X0316951Y0159253D01*
X0316951Y0160851D02*
X0307950Y0160851D01*
X0307950Y0162450D02*
X0316951Y0162450D01*
X0316951Y0164048D02*
X0307950Y0164048D01*
X0307950Y0165647D02*
X0316951Y0165647D01*
X0316951Y0167245D02*
X0307632Y0167245D01*
X0316023Y0168844D02*
X0316951Y0168844D01*
X0299898Y0181632D02*
X0280812Y0181632D01*
X0279214Y0183230D02*
X0300465Y0183230D01*
X0292920Y0178435D02*
X0284009Y0178435D01*
X0285608Y0176836D02*
X0292020Y0176836D01*
X0291990Y0175238D02*
X0287206Y0175238D01*
X0288805Y0173639D02*
X0292846Y0173639D01*
X0288050Y0171000D02*
X0275550Y0183500D01*
X0264095Y0172041D02*
X0262276Y0172041D01*
X0258136Y0172041D02*
X0257964Y0172041D01*
X0257964Y0170442D02*
X0258136Y0170442D01*
X0258136Y0168844D02*
X0257964Y0168844D01*
X0257964Y0167245D02*
X0258136Y0167245D01*
X0258136Y0165647D02*
X0257964Y0165647D01*
X0257964Y0164048D02*
X0258136Y0164048D01*
X0261280Y0164048D02*
X0265007Y0164048D01*
X0263495Y0165647D02*
X0262769Y0165647D01*
X0254820Y0164048D02*
X0246093Y0164048D01*
X0247605Y0165647D02*
X0253331Y0165647D01*
X0252680Y0167245D02*
X0248267Y0167245D01*
X0248350Y0168844D02*
X0252550Y0168844D01*
X0252898Y0170442D02*
X0247982Y0170442D01*
X0247005Y0172041D02*
X0253824Y0172041D01*
X0239095Y0172041D02*
X0227005Y0172041D01*
X0227982Y0170442D02*
X0238118Y0170442D01*
X0237750Y0168844D02*
X0228350Y0168844D01*
X0228267Y0167245D02*
X0237833Y0167245D01*
X0238495Y0165647D02*
X0227605Y0165647D01*
X0226093Y0164048D02*
X0240007Y0164048D01*
X0233250Y0152859D02*
X0232850Y0152859D01*
X0232850Y0151260D02*
X0233250Y0151260D01*
X0233250Y0149662D02*
X0232850Y0149662D01*
X0228706Y0152859D02*
X0220739Y0152859D01*
X0222870Y0151260D02*
X0227692Y0151260D01*
X0227282Y0149662D02*
X0225001Y0149662D01*
X0227133Y0148063D02*
X0227326Y0148063D01*
X0217729Y0144866D02*
X0148929Y0144866D01*
X0151043Y0146465D02*
X0215597Y0146465D01*
X0213466Y0148063D02*
X0153157Y0148063D01*
X0146815Y0143268D02*
X0219860Y0143268D01*
X0221991Y0141669D02*
X0144701Y0141669D01*
X0142586Y0140070D02*
X0224123Y0140070D01*
X0226254Y0138472D02*
X0140472Y0138472D01*
X0138645Y0136873D02*
X0227455Y0136873D01*
X0228117Y0135275D02*
X0137983Y0135275D01*
X0137150Y0133676D02*
X0141183Y0133676D01*
X0140939Y0133597D02*
X0140167Y0133204D01*
X0139467Y0132695D01*
X0138855Y0132083D01*
X0138346Y0131383D01*
X0137953Y0130611D01*
X0137685Y0129788D01*
X0137550Y0128933D01*
X0137550Y0128586D01*
X0142964Y0128586D01*
X0142964Y0134000D01*
X0142617Y0134000D01*
X0141762Y0133865D01*
X0140939Y0133597D01*
X0142964Y0133676D02*
X0143136Y0133676D01*
X0143136Y0134000D02*
X0143136Y0128586D01*
X0142964Y0128586D01*
X0142964Y0128414D01*
X0137550Y0128414D01*
X0137550Y0128067D01*
X0137685Y0127212D01*
X0137953Y0126389D01*
X0138346Y0125617D01*
X0138855Y0124917D01*
X0139467Y0124305D01*
X0140167Y0123796D01*
X0140939Y0123403D01*
X0141762Y0123135D01*
X0142617Y0123000D01*
X0142964Y0123000D01*
X0142964Y0128414D01*
X0143136Y0128414D01*
X0143136Y0128586D01*
X0148550Y0128586D01*
X0148550Y0128933D01*
X0148415Y0129788D01*
X0148147Y0130611D01*
X0147754Y0131383D01*
X0147245Y0132083D01*
X0146633Y0132695D01*
X0145933Y0133204D01*
X0145161Y0133597D01*
X0144338Y0133865D01*
X0143483Y0134000D01*
X0143136Y0134000D01*
X0144917Y0133676D02*
X0156697Y0133676D01*
X0156996Y0133800D02*
X0155048Y0132993D01*
X0153557Y0131502D01*
X0152750Y0129554D01*
X0152750Y0127446D01*
X0153557Y0125498D01*
X0155048Y0124007D01*
X0156996Y0123200D01*
X0159104Y0123200D01*
X0161052Y0124007D01*
X0162543Y0125498D01*
X0163050Y0126722D01*
X0163557Y0125498D01*
X0165048Y0124007D01*
X0166996Y0123200D01*
X0169104Y0123200D01*
X0171052Y0124007D01*
X0172543Y0125498D01*
X0173350Y0127446D01*
X0173350Y0129554D01*
X0172543Y0131502D01*
X0171052Y0132993D01*
X0169104Y0133800D01*
X0166996Y0133800D01*
X0165048Y0132993D01*
X0163557Y0131502D01*
X0163050Y0130278D01*
X0162543Y0131502D01*
X0161052Y0132993D01*
X0159104Y0133800D01*
X0156996Y0133800D01*
X0159403Y0133676D02*
X0166697Y0133676D01*
X0169403Y0133676D02*
X0196697Y0133676D01*
X0196996Y0133800D02*
X0195048Y0132993D01*
X0193557Y0131502D01*
X0192750Y0129554D01*
X0192750Y0127446D01*
X0193557Y0125498D01*
X0195048Y0124007D01*
X0196996Y0123200D01*
X0199104Y0123200D01*
X0201052Y0124007D01*
X0202543Y0125498D01*
X0203050Y0126722D01*
X0203557Y0125498D01*
X0205048Y0124007D01*
X0206996Y0123200D01*
X0209104Y0123200D01*
X0211052Y0124007D01*
X0212543Y0125498D01*
X0213350Y0127446D01*
X0213350Y0129554D01*
X0212543Y0131502D01*
X0211052Y0132993D01*
X0209104Y0133800D01*
X0206996Y0133800D01*
X0205048Y0132993D01*
X0203557Y0131502D01*
X0203050Y0130278D01*
X0202543Y0131502D01*
X0201052Y0132993D01*
X0199104Y0133800D01*
X0196996Y0133800D01*
X0199403Y0133676D02*
X0206697Y0133676D01*
X0209403Y0133676D02*
X0221183Y0133676D01*
X0220939Y0133597D02*
X0220167Y0133204D01*
X0219467Y0132695D01*
X0218855Y0132083D01*
X0218346Y0131383D01*
X0217953Y0130611D01*
X0217685Y0129788D01*
X0217550Y0128933D01*
X0217550Y0128586D01*
X0222964Y0128586D01*
X0222964Y0134000D01*
X0222617Y0134000D01*
X0221762Y0133865D01*
X0220939Y0133597D01*
X0222964Y0133676D02*
X0223136Y0133676D01*
X0223136Y0134000D02*
X0223136Y0128586D01*
X0222964Y0128586D01*
X0222964Y0128414D01*
X0217550Y0128414D01*
X0217550Y0128067D01*
X0217685Y0127212D01*
X0217953Y0126389D01*
X0218346Y0125617D01*
X0218855Y0124917D01*
X0219467Y0124305D01*
X0220167Y0123796D01*
X0220939Y0123403D01*
X0221762Y0123135D01*
X0222617Y0123000D01*
X0222964Y0123000D01*
X0222964Y0128414D01*
X0223136Y0128414D01*
X0223136Y0128586D01*
X0228550Y0128586D01*
X0228550Y0128933D01*
X0228415Y0129788D01*
X0228147Y0130611D01*
X0227754Y0131383D01*
X0227245Y0132083D01*
X0226633Y0132695D01*
X0225933Y0133204D01*
X0225161Y0133597D01*
X0224338Y0133865D01*
X0223483Y0134000D01*
X0223136Y0134000D01*
X0224917Y0133676D02*
X0228950Y0133676D01*
X0228950Y0132078D02*
X0227249Y0132078D01*
X0228190Y0130479D02*
X0228950Y0130479D01*
X0228950Y0128881D02*
X0228550Y0128881D01*
X0228550Y0128414D02*
X0223136Y0128414D01*
X0223136Y0123000D01*
X0223483Y0123000D01*
X0224338Y0123135D01*
X0225161Y0123403D01*
X0225933Y0123796D01*
X0226633Y0124305D01*
X0227245Y0124917D01*
X0227754Y0125617D01*
X0228147Y0126389D01*
X0228415Y0127212D01*
X0228550Y0128067D01*
X0228550Y0128414D01*
X0228426Y0127282D02*
X0228950Y0127282D01*
X0228950Y0125684D02*
X0227788Y0125684D01*
X0228950Y0124085D02*
X0226331Y0124085D01*
X0228950Y0122487D02*
X0137150Y0122487D01*
X0137150Y0124085D02*
X0139769Y0124085D01*
X0138312Y0125684D02*
X0137150Y0125684D01*
X0137150Y0127282D02*
X0137674Y0127282D01*
X0137550Y0128881D02*
X0137150Y0128881D01*
X0137150Y0130479D02*
X0137910Y0130479D01*
X0137150Y0132078D02*
X0138851Y0132078D01*
X0142964Y0132078D02*
X0143136Y0132078D01*
X0143136Y0130479D02*
X0142964Y0130479D01*
X0142964Y0128881D02*
X0143136Y0128881D01*
X0143136Y0128414D02*
X0148550Y0128414D01*
X0148550Y0128067D01*
X0148415Y0127212D01*
X0148147Y0126389D01*
X0147754Y0125617D01*
X0147245Y0124917D01*
X0146633Y0124305D01*
X0145933Y0123796D01*
X0145161Y0123403D01*
X0144338Y0123135D01*
X0143483Y0123000D01*
X0143136Y0123000D01*
X0143136Y0128414D01*
X0143136Y0127282D02*
X0142964Y0127282D01*
X0142964Y0125684D02*
X0143136Y0125684D01*
X0143136Y0124085D02*
X0142964Y0124085D01*
X0146331Y0124085D02*
X0154969Y0124085D01*
X0153480Y0125684D02*
X0147788Y0125684D01*
X0148426Y0127282D02*
X0152818Y0127282D01*
X0152750Y0128881D02*
X0148550Y0128881D01*
X0148190Y0130479D02*
X0153133Y0130479D01*
X0154133Y0132078D02*
X0147249Y0132078D01*
X0161967Y0132078D02*
X0164133Y0132078D01*
X0163133Y0130479D02*
X0162967Y0130479D01*
X0171967Y0132078D02*
X0194133Y0132078D01*
X0193133Y0130479D02*
X0172967Y0130479D01*
X0173350Y0128881D02*
X0192750Y0128881D01*
X0192818Y0127282D02*
X0173282Y0127282D01*
X0172620Y0125684D02*
X0193480Y0125684D01*
X0194969Y0124085D02*
X0171131Y0124085D01*
X0164969Y0124085D02*
X0161131Y0124085D01*
X0162620Y0125684D02*
X0163480Y0125684D01*
X0163885Y0120300D02*
X0162215Y0120300D01*
X0160671Y0119661D01*
X0159489Y0118479D01*
X0158850Y0116935D01*
X0158850Y0110065D01*
X0159489Y0108521D01*
X0160671Y0107339D01*
X0162215Y0106700D01*
X0163885Y0106700D01*
X0165429Y0107339D01*
X0166611Y0108521D01*
X0167250Y0110065D01*
X0167250Y0116935D01*
X0166611Y0118479D01*
X0165429Y0119661D01*
X0163885Y0120300D01*
X0165800Y0119290D02*
X0179501Y0119290D01*
X0179469Y0119212D02*
X0179469Y0117788D01*
X0180014Y0116471D01*
X0181021Y0115464D01*
X0182338Y0114919D01*
X0183762Y0114919D01*
X0185079Y0115464D01*
X0186086Y0116471D01*
X0186631Y0117788D01*
X0186631Y0119212D01*
X0186086Y0120529D01*
X0185079Y0121536D01*
X0183762Y0122081D01*
X0182338Y0122081D01*
X0181021Y0121536D01*
X0180014Y0120529D01*
X0179469Y0119212D01*
X0179509Y0117691D02*
X0166937Y0117691D01*
X0167250Y0116093D02*
X0180393Y0116093D01*
X0185707Y0116093D02*
X0198850Y0116093D01*
X0198850Y0114494D02*
X0167250Y0114494D01*
X0167250Y0112896D02*
X0198850Y0112896D01*
X0198850Y0111297D02*
X0167250Y0111297D01*
X0167098Y0109699D02*
X0199002Y0109699D01*
X0207098Y0109699D02*
X0209002Y0109699D01*
X0208850Y0111297D02*
X0207250Y0111297D01*
X0207250Y0112896D02*
X0208850Y0112896D01*
X0208850Y0114494D02*
X0207250Y0114494D01*
X0207250Y0116093D02*
X0208850Y0116093D01*
X0209163Y0117691D02*
X0206937Y0117691D01*
X0205800Y0119290D02*
X0210300Y0119290D01*
X0211131Y0124085D02*
X0219769Y0124085D01*
X0218312Y0125684D02*
X0212620Y0125684D01*
X0213282Y0127282D02*
X0217674Y0127282D01*
X0217550Y0128881D02*
X0213350Y0128881D01*
X0212967Y0130479D02*
X0217910Y0130479D01*
X0218851Y0132078D02*
X0211967Y0132078D01*
X0204133Y0132078D02*
X0201967Y0132078D01*
X0202967Y0130479D02*
X0203133Y0130479D01*
X0203480Y0125684D02*
X0202620Y0125684D01*
X0201131Y0124085D02*
X0204969Y0124085D01*
X0200300Y0119290D02*
X0186599Y0119290D01*
X0186591Y0117691D02*
X0199163Y0117691D01*
X0185726Y0120888D02*
X0228950Y0120888D01*
X0228950Y0119290D02*
X0225800Y0119290D01*
X0226937Y0117691D02*
X0228950Y0117691D01*
X0228850Y0116093D02*
X0227250Y0116093D01*
X0227250Y0114494D02*
X0228850Y0114494D01*
X0228850Y0112896D02*
X0227250Y0112896D01*
X0227250Y0111297D02*
X0228850Y0111297D01*
X0229002Y0109699D02*
X0227098Y0109699D01*
X0226190Y0108100D02*
X0229910Y0108100D01*
X0224446Y0106502D02*
X0240158Y0106502D01*
X0239910Y0108100D02*
X0236190Y0108100D01*
X0237098Y0109699D02*
X0239002Y0109699D01*
X0238850Y0111297D02*
X0237250Y0111297D01*
X0237250Y0112896D02*
X0238850Y0112896D01*
X0238850Y0114494D02*
X0237250Y0114494D01*
X0237250Y0116093D02*
X0238850Y0116093D01*
X0239163Y0117691D02*
X0237150Y0117691D01*
X0237150Y0119290D02*
X0240300Y0119290D01*
X0237150Y0120888D02*
X0280650Y0120888D01*
X0280650Y0119290D02*
X0265800Y0119290D01*
X0266937Y0117691D02*
X0280787Y0117691D01*
X0282063Y0116093D02*
X0267250Y0116093D01*
X0267250Y0114494D02*
X0283662Y0114494D01*
X0285260Y0112896D02*
X0267250Y0112896D01*
X0267250Y0111297D02*
X0287096Y0111297D01*
X0288851Y0116093D02*
X0293387Y0116093D01*
X0294746Y0117691D02*
X0287253Y0117691D01*
X0285654Y0119290D02*
X0294765Y0119290D01*
X0293395Y0120888D02*
X0285450Y0120888D01*
X0285450Y0122487D02*
X0288169Y0122487D01*
X0286571Y0124085D02*
X0285450Y0124085D01*
X0285450Y0125684D02*
X0285650Y0125684D01*
X0285650Y0127282D02*
X0285450Y0127282D01*
X0285450Y0128881D02*
X0285650Y0128881D01*
X0285650Y0130479D02*
X0285450Y0130479D01*
X0290450Y0130479D02*
X0293446Y0130479D01*
X0292729Y0132078D02*
X0290450Y0132078D01*
X0290450Y0133676D02*
X0297850Y0133676D01*
X0297850Y0135275D02*
X0298250Y0135275D01*
X0298250Y0136873D02*
X0297850Y0136873D01*
X0293703Y0136873D02*
X0290450Y0136873D01*
X0290450Y0135275D02*
X0292844Y0135275D01*
X0295050Y0128881D02*
X0290450Y0128881D01*
X0290450Y0127282D02*
X0294337Y0127282D01*
X0298050Y0123500D02*
X0290550Y0123500D01*
X0288050Y0126000D01*
X0288050Y0171000D01*
X0307950Y0144866D02*
X0316951Y0144866D01*
X0316951Y0143268D02*
X0307950Y0143268D01*
X0307950Y0141669D02*
X0316951Y0141669D01*
X0316951Y0140070D02*
X0307950Y0140070D01*
X0307950Y0138472D02*
X0316951Y0138472D01*
X0316951Y0136873D02*
X0307950Y0136873D01*
X0307950Y0135275D02*
X0316951Y0135275D01*
X0316951Y0133676D02*
X0307950Y0133676D01*
X0307950Y0132078D02*
X0316951Y0132078D01*
X0316951Y0130479D02*
X0307950Y0130479D01*
X0307950Y0128881D02*
X0316951Y0128881D01*
X0316951Y0127282D02*
X0307950Y0127282D01*
X0307950Y0125684D02*
X0316951Y0125684D01*
X0316951Y0124085D02*
X0307950Y0124085D01*
X0307950Y0122487D02*
X0316951Y0122487D01*
X0316951Y0120888D02*
X0307950Y0120888D01*
X0307950Y0119290D02*
X0316951Y0119290D01*
X0316951Y0117691D02*
X0307950Y0117691D01*
X0307950Y0116093D02*
X0316951Y0116093D01*
X0316951Y0114494D02*
X0307950Y0114494D01*
X0307950Y0112896D02*
X0316951Y0112896D01*
X0316951Y0111297D02*
X0307950Y0111297D01*
X0307950Y0109699D02*
X0316951Y0109699D01*
X0316951Y0108100D02*
X0307950Y0108100D01*
X0307950Y0106502D02*
X0316951Y0106502D01*
X0316951Y0104903D02*
X0307950Y0104903D01*
X0307950Y0103305D02*
X0316951Y0103305D01*
X0316951Y0101706D02*
X0307950Y0101706D01*
X0307950Y0100108D02*
X0316951Y0100108D01*
X0316951Y0098509D02*
X0307950Y0098509D01*
X0307950Y0096911D02*
X0316951Y0096911D01*
X0316951Y0095312D02*
X0307950Y0095312D01*
X0307950Y0093714D02*
X0316951Y0093714D01*
X0316951Y0092115D02*
X0307950Y0092115D01*
X0307948Y0090517D02*
X0316951Y0090517D01*
X0316951Y0088918D02*
X0306862Y0088918D01*
X0305264Y0087320D02*
X0316951Y0087320D01*
X0316951Y0085721D02*
X0303665Y0085721D01*
X0303350Y0084123D02*
X0316951Y0084123D01*
X0316951Y0082524D02*
X0303350Y0082524D01*
X0302720Y0080926D02*
X0316951Y0080926D01*
X0316951Y0079327D02*
X0301372Y0079327D01*
X0301317Y0077729D02*
X0316951Y0077729D01*
X0316951Y0076130D02*
X0302697Y0076130D01*
X0303350Y0074532D02*
X0316951Y0074532D01*
X0316951Y0072933D02*
X0303350Y0072933D01*
X0302890Y0071334D02*
X0316951Y0071334D01*
X0316951Y0069736D02*
X0301781Y0069736D01*
X0300704Y0068137D02*
X0316951Y0068137D01*
X0316951Y0066539D02*
X0302506Y0066539D01*
X0303190Y0064940D02*
X0316951Y0064940D01*
X0316951Y0063342D02*
X0303350Y0063342D01*
X0303059Y0061743D02*
X0316951Y0061743D01*
X0316951Y0060145D02*
X0302190Y0060145D01*
X0299941Y0058546D02*
X0316951Y0058546D01*
X0316951Y0056948D02*
X0302097Y0056948D01*
X0303021Y0055349D02*
X0316951Y0055349D01*
X0316951Y0053751D02*
X0303350Y0053751D01*
X0303228Y0052152D02*
X0316951Y0052152D01*
X0316951Y0050554D02*
X0302566Y0050554D01*
X0316951Y0045758D02*
X0285856Y0045758D01*
X0286631Y0044160D02*
X0316951Y0044160D01*
X0316951Y0042561D02*
X0286537Y0042561D01*
X0285577Y0040963D02*
X0316951Y0040963D01*
X0316951Y0039364D02*
X0216901Y0039364D01*
X0215114Y0037766D02*
X0316951Y0037766D01*
X0316951Y0036167D02*
X0007850Y0036167D01*
X0007850Y0034569D02*
X0316951Y0034569D01*
X0316951Y0032970D02*
X0271075Y0032970D01*
X0271052Y0032993D02*
X0269104Y0033800D01*
X0266996Y0033800D01*
X0265048Y0032993D01*
X0263557Y0031502D01*
X0263165Y0030556D01*
X0263147Y0030611D01*
X0262754Y0031383D01*
X0262245Y0032083D01*
X0261633Y0032695D01*
X0260933Y0033204D01*
X0260161Y0033597D01*
X0259338Y0033865D01*
X0258483Y0034000D01*
X0258136Y0034000D01*
X0258136Y0028586D01*
X0257964Y0028586D01*
X0257964Y0034000D01*
X0257617Y0034000D01*
X0256762Y0033865D01*
X0255939Y0033597D01*
X0255167Y0033204D01*
X0254467Y0032695D01*
X0253855Y0032083D01*
X0253346Y0031383D01*
X0252953Y0030611D01*
X0252685Y0029788D01*
X0252550Y0028933D01*
X0252550Y0028586D01*
X0257964Y0028586D01*
X0257964Y0028414D01*
X0252550Y0028414D01*
X0252550Y0028067D01*
X0252685Y0027212D01*
X0252953Y0026389D01*
X0253346Y0025617D01*
X0253855Y0024917D01*
X0254467Y0024305D01*
X0255167Y0023796D01*
X0255939Y0023403D01*
X0256762Y0023135D01*
X0257617Y0023000D01*
X0257964Y0023000D01*
X0257964Y0028414D01*
X0258136Y0028414D01*
X0258136Y0023000D01*
X0258483Y0023000D01*
X0259338Y0023135D01*
X0260161Y0023403D01*
X0260933Y0023796D01*
X0261633Y0024305D01*
X0262245Y0024917D01*
X0262754Y0025617D01*
X0263147Y0026389D01*
X0263165Y0026444D01*
X0263557Y0025498D01*
X0265048Y0024007D01*
X0266996Y0023200D01*
X0269104Y0023200D01*
X0271052Y0024007D01*
X0272543Y0025498D01*
X0273350Y0027446D01*
X0273350Y0029554D01*
X0272543Y0031502D01*
X0271052Y0032993D01*
X0272597Y0031372D02*
X0316951Y0031372D01*
X0316951Y0029773D02*
X0273259Y0029773D01*
X0273350Y0028175D02*
X0316951Y0028175D01*
X0316951Y0026576D02*
X0272990Y0026576D01*
X0272023Y0024978D02*
X0316951Y0024978D01*
X0316951Y0023379D02*
X0315637Y0023379D01*
X0305463Y0023379D02*
X0269537Y0023379D01*
X0266563Y0023379D02*
X0260088Y0023379D01*
X0258136Y0023379D02*
X0257964Y0023379D01*
X0257964Y0024978D02*
X0258136Y0024978D01*
X0258136Y0026576D02*
X0257964Y0026576D01*
X0257964Y0028175D02*
X0258136Y0028175D01*
X0258136Y0029773D02*
X0257964Y0029773D01*
X0257964Y0031372D02*
X0258136Y0031372D01*
X0258136Y0032970D02*
X0257964Y0032970D01*
X0254846Y0032970D02*
X0246075Y0032970D01*
X0246052Y0032993D02*
X0244104Y0033800D01*
X0241996Y0033800D01*
X0240048Y0032993D01*
X0238557Y0031502D01*
X0237750Y0029554D01*
X0237750Y0027446D01*
X0238557Y0025498D01*
X0240048Y0024007D01*
X0240650Y0023757D01*
X0240650Y0019494D01*
X0237056Y0015900D01*
X0235714Y0015900D01*
X0235079Y0016536D01*
X0233762Y0017081D01*
X0232338Y0017081D01*
X0231021Y0016536D01*
X0230014Y0015529D01*
X0229469Y0014212D01*
X0229469Y0012788D01*
X0230014Y0011471D01*
X0231021Y0010464D01*
X0232338Y0009919D01*
X0233762Y0009919D01*
X0235079Y0010464D01*
X0235714Y0011100D01*
X0238527Y0011100D01*
X0239409Y0011465D01*
X0244409Y0016465D01*
X0245085Y0017141D01*
X0245450Y0018023D01*
X0245450Y0023757D01*
X0246052Y0024007D01*
X0247543Y0025498D01*
X0248350Y0027446D01*
X0248350Y0029554D01*
X0247543Y0031502D01*
X0246052Y0032993D01*
X0247597Y0031372D02*
X0253340Y0031372D01*
X0252683Y0029773D02*
X0248259Y0029773D01*
X0248350Y0028175D02*
X0252550Y0028175D01*
X0252892Y0026576D02*
X0247990Y0026576D01*
X0247023Y0024978D02*
X0253811Y0024978D01*
X0256012Y0023379D02*
X0245450Y0023379D01*
X0245450Y0021781D02*
X0303134Y0021781D01*
X0301592Y0020182D02*
X0245450Y0020182D01*
X0245450Y0018584D02*
X0300669Y0018584D01*
X0299993Y0016985D02*
X0244929Y0016985D01*
X0244409Y0016465D02*
X0244409Y0016465D01*
X0243331Y0015387D02*
X0299565Y0015387D01*
X0299451Y0013788D02*
X0241732Y0013788D01*
X0240134Y0012190D02*
X0299451Y0012190D01*
X0299839Y0010591D02*
X0235205Y0010591D01*
X0230894Y0010591D02*
X0218535Y0010591D01*
X0216937Y0008993D02*
X0300336Y0008993D01*
X0301259Y0007394D02*
X0216468Y0007394D01*
X0213050Y0008500D02*
X0223050Y0018500D01*
X0223050Y0028500D01*
X0218110Y0026576D02*
X0213208Y0026576D01*
X0213147Y0026389D02*
X0213415Y0027212D01*
X0213550Y0028067D01*
X0213550Y0028414D01*
X0208136Y0028414D01*
X0208136Y0028586D01*
X0207964Y0028586D01*
X0207964Y0034000D01*
X0207617Y0034000D01*
X0206762Y0033865D01*
X0205939Y0033597D01*
X0205167Y0033204D01*
X0204467Y0032695D01*
X0203855Y0032083D01*
X0203346Y0031383D01*
X0202953Y0030611D01*
X0202935Y0030556D01*
X0202543Y0031502D01*
X0201052Y0032993D01*
X0199104Y0033800D01*
X0196996Y0033800D01*
X0195048Y0032993D01*
X0193557Y0031502D01*
X0192750Y0029554D01*
X0192750Y0027446D01*
X0193557Y0025498D01*
X0195048Y0024007D01*
X0196996Y0023200D01*
X0199104Y0023200D01*
X0201052Y0024007D01*
X0202543Y0025498D01*
X0202935Y0026444D01*
X0202953Y0026389D01*
X0203346Y0025617D01*
X0203855Y0024917D01*
X0204467Y0024305D01*
X0205167Y0023796D01*
X0205939Y0023403D01*
X0206762Y0023135D01*
X0207617Y0023000D01*
X0207964Y0023000D01*
X0207964Y0028414D01*
X0208136Y0028414D01*
X0208136Y0023000D01*
X0208483Y0023000D01*
X0209338Y0023135D01*
X0210161Y0023403D01*
X0210933Y0023796D01*
X0211633Y0024305D01*
X0212245Y0024917D01*
X0212754Y0025617D01*
X0213147Y0026389D01*
X0212289Y0024978D02*
X0219077Y0024978D01*
X0220650Y0023379D02*
X0210088Y0023379D01*
X0208136Y0023379D02*
X0207964Y0023379D01*
X0207964Y0024978D02*
X0208136Y0024978D01*
X0208136Y0026576D02*
X0207964Y0026576D01*
X0207964Y0028175D02*
X0208136Y0028175D01*
X0208136Y0028586D02*
X0213550Y0028586D01*
X0213550Y0028933D01*
X0213415Y0029788D01*
X0213147Y0030611D01*
X0212754Y0031383D01*
X0212245Y0032083D01*
X0211633Y0032695D01*
X0210933Y0033204D01*
X0210161Y0033597D01*
X0209338Y0033865D01*
X0208483Y0034000D01*
X0208136Y0034000D01*
X0208136Y0028586D01*
X0208136Y0029773D02*
X0207964Y0029773D01*
X0207964Y0031372D02*
X0208136Y0031372D01*
X0208136Y0032970D02*
X0207964Y0032970D01*
X0204846Y0032970D02*
X0201075Y0032970D01*
X0202597Y0031372D02*
X0203340Y0031372D01*
X0195025Y0032970D02*
X0171075Y0032970D01*
X0171052Y0032993D02*
X0169104Y0033800D01*
X0166996Y0033800D01*
X0165048Y0032993D01*
X0163557Y0031502D01*
X0163165Y0030556D01*
X0163147Y0030611D01*
X0162754Y0031383D01*
X0162245Y0032083D01*
X0161633Y0032695D01*
X0160933Y0033204D01*
X0160161Y0033597D01*
X0159338Y0033865D01*
X0158483Y0034000D01*
X0158136Y0034000D01*
X0158136Y0028586D01*
X0157964Y0028586D01*
X0157964Y0034000D01*
X0157617Y0034000D01*
X0156762Y0033865D01*
X0155939Y0033597D01*
X0155167Y0033204D01*
X0154467Y0032695D01*
X0153855Y0032083D01*
X0153346Y0031383D01*
X0152953Y0030611D01*
X0152685Y0029788D01*
X0152550Y0028933D01*
X0152550Y0028586D01*
X0157964Y0028586D01*
X0157964Y0028414D01*
X0152550Y0028414D01*
X0152550Y0028067D01*
X0152685Y0027212D01*
X0152953Y0026389D01*
X0153346Y0025617D01*
X0153855Y0024917D01*
X0154467Y0024305D01*
X0155167Y0023796D01*
X0155939Y0023403D01*
X0156762Y0023135D01*
X0157617Y0023000D01*
X0157964Y0023000D01*
X0157964Y0028414D01*
X0158136Y0028414D01*
X0158136Y0023000D01*
X0158483Y0023000D01*
X0159338Y0023135D01*
X0160161Y0023403D01*
X0160933Y0023796D01*
X0161633Y0024305D01*
X0162245Y0024917D01*
X0162754Y0025617D01*
X0163147Y0026389D01*
X0163165Y0026444D01*
X0163557Y0025498D01*
X0165048Y0024007D01*
X0166996Y0023200D01*
X0169104Y0023200D01*
X0171052Y0024007D01*
X0172543Y0025498D01*
X0173350Y0027446D01*
X0173350Y0029554D01*
X0172543Y0031502D01*
X0171052Y0032993D01*
X0172597Y0031372D02*
X0193503Y0031372D01*
X0192841Y0029773D02*
X0173259Y0029773D01*
X0173350Y0028175D02*
X0192750Y0028175D01*
X0193110Y0026576D02*
X0172990Y0026576D01*
X0172023Y0024978D02*
X0194077Y0024978D01*
X0196563Y0023379D02*
X0169537Y0023379D01*
X0166563Y0023379D02*
X0160088Y0023379D01*
X0158136Y0023379D02*
X0157964Y0023379D01*
X0157964Y0024978D02*
X0158136Y0024978D01*
X0158136Y0026576D02*
X0157964Y0026576D01*
X0157964Y0028175D02*
X0158136Y0028175D01*
X0158136Y0029773D02*
X0157964Y0029773D01*
X0157964Y0031372D02*
X0158136Y0031372D01*
X0158136Y0032970D02*
X0157964Y0032970D01*
X0154846Y0032970D02*
X0146075Y0032970D01*
X0146052Y0032993D02*
X0144104Y0033800D01*
X0141996Y0033800D01*
X0140048Y0032993D01*
X0138557Y0031502D01*
X0137750Y0029554D01*
X0137750Y0027446D01*
X0138557Y0025498D01*
X0140048Y0024007D01*
X0141996Y0023200D01*
X0144104Y0023200D01*
X0146052Y0024007D01*
X0147543Y0025498D01*
X0148350Y0027446D01*
X0148350Y0029554D01*
X0147543Y0031502D01*
X0146052Y0032993D01*
X0147597Y0031372D02*
X0153340Y0031372D01*
X0152683Y0029773D02*
X0148259Y0029773D01*
X0148350Y0028175D02*
X0152550Y0028175D01*
X0152892Y0026576D02*
X0147990Y0026576D01*
X0147023Y0024978D02*
X0153811Y0024978D01*
X0156012Y0023379D02*
X0144537Y0023379D01*
X0141563Y0023379D02*
X0124537Y0023379D01*
X0124104Y0023200D02*
X0126052Y0024007D01*
X0127543Y0025498D01*
X0128350Y0027446D01*
X0128350Y0029554D01*
X0127543Y0031502D01*
X0126052Y0032993D01*
X0124104Y0033800D01*
X0121996Y0033800D01*
X0120048Y0032993D01*
X0118557Y0031502D01*
X0117750Y0029554D01*
X0117750Y0027446D01*
X0118557Y0025498D01*
X0120048Y0024007D01*
X0121996Y0023200D01*
X0124104Y0023200D01*
X0121563Y0023379D02*
X0110088Y0023379D01*
X0110161Y0023403D02*
X0110933Y0023796D01*
X0111633Y0024305D01*
X0112245Y0024917D01*
X0112754Y0025617D01*
X0113147Y0026389D01*
X0113415Y0027212D01*
X0113550Y0028067D01*
X0113550Y0028414D01*
X0108136Y0028414D01*
X0108136Y0028586D01*
X0107964Y0028586D01*
X0107964Y0034000D01*
X0107617Y0034000D01*
X0106762Y0033865D01*
X0105939Y0033597D01*
X0105167Y0033204D01*
X0104467Y0032695D01*
X0103855Y0032083D01*
X0103346Y0031383D01*
X0102953Y0030611D01*
X0102935Y0030556D01*
X0102543Y0031502D01*
X0101052Y0032993D01*
X0099104Y0033800D01*
X0096996Y0033800D01*
X0095048Y0032993D01*
X0093557Y0031502D01*
X0092750Y0029554D01*
X0092750Y0027446D01*
X0093557Y0025498D01*
X0095048Y0024007D01*
X0096996Y0023200D01*
X0099104Y0023200D01*
X0101052Y0024007D01*
X0102543Y0025498D01*
X0102935Y0026444D01*
X0102953Y0026389D01*
X0103346Y0025617D01*
X0103855Y0024917D01*
X0104467Y0024305D01*
X0105167Y0023796D01*
X0105939Y0023403D01*
X0106762Y0023135D01*
X0107617Y0023000D01*
X0107964Y0023000D01*
X0107964Y0028414D01*
X0108136Y0028414D01*
X0108136Y0023000D01*
X0108483Y0023000D01*
X0109338Y0023135D01*
X0110161Y0023403D01*
X0108136Y0023379D02*
X0107964Y0023379D01*
X0107964Y0024978D02*
X0108136Y0024978D01*
X0108136Y0026576D02*
X0107964Y0026576D01*
X0107964Y0028175D02*
X0108136Y0028175D01*
X0108136Y0028586D02*
X0113550Y0028586D01*
X0113550Y0028933D01*
X0113415Y0029788D01*
X0113147Y0030611D01*
X0112754Y0031383D01*
X0112245Y0032083D01*
X0111633Y0032695D01*
X0110933Y0033204D01*
X0110161Y0033597D01*
X0109338Y0033865D01*
X0108483Y0034000D01*
X0108136Y0034000D01*
X0108136Y0028586D01*
X0108136Y0029773D02*
X0107964Y0029773D01*
X0107964Y0031372D02*
X0108136Y0031372D01*
X0108136Y0032970D02*
X0107964Y0032970D01*
X0104846Y0032970D02*
X0101075Y0032970D01*
X0102597Y0031372D02*
X0103340Y0031372D01*
X0095025Y0032970D02*
X0007850Y0032970D01*
X0007850Y0031372D02*
X0093503Y0031372D01*
X0092841Y0029773D02*
X0007850Y0029773D01*
X0007850Y0028175D02*
X0092750Y0028175D01*
X0093110Y0026576D02*
X0021463Y0026576D01*
X0024699Y0024978D02*
X0094077Y0024978D01*
X0096563Y0023379D02*
X0026367Y0023379D01*
X0027529Y0021781D02*
X0220650Y0021781D01*
X0220650Y0020182D02*
X0028420Y0020182D01*
X0028848Y0018584D02*
X0219740Y0018584D01*
X0218141Y0016985D02*
X0029149Y0016985D01*
X0029149Y0015387D02*
X0216542Y0015387D01*
X0214944Y0013788D02*
X0028948Y0013788D01*
X0028520Y0012190D02*
X0213345Y0012190D01*
X0210077Y0010591D02*
X0027743Y0010591D01*
X0026739Y0008993D02*
X0209469Y0008993D01*
X0209632Y0007394D02*
X0025141Y0007394D01*
X0008571Y0021781D02*
X0007850Y0021781D01*
X0007850Y0023379D02*
X0009733Y0023379D01*
X0011401Y0024978D02*
X0007850Y0024978D01*
X0007850Y0026576D02*
X0014637Y0026576D01*
X0007850Y0037766D02*
X0152986Y0037766D01*
X0150975Y0039364D02*
X0112938Y0039364D01*
X0112524Y0039364D02*
X0007850Y0039364D01*
X0007850Y0040963D02*
X0062289Y0040963D01*
X0060690Y0042561D02*
X0007850Y0042561D01*
X0007850Y0044160D02*
X0059092Y0044160D01*
X0057493Y0045758D02*
X0007850Y0045758D01*
X0007850Y0047357D02*
X0055895Y0047357D01*
X0054296Y0048955D02*
X0007850Y0048955D01*
X0007850Y0050554D02*
X0052698Y0050554D01*
X0051099Y0052152D02*
X0007850Y0052152D01*
X0007850Y0053751D02*
X0049501Y0053751D01*
X0047902Y0055349D02*
X0007850Y0055349D01*
X0007850Y0056948D02*
X0046304Y0056948D01*
X0044705Y0058546D02*
X0007850Y0058546D01*
X0007850Y0060145D02*
X0043107Y0060145D01*
X0041508Y0061743D02*
X0007850Y0061743D01*
X0007850Y0063342D02*
X0039910Y0063342D01*
X0038311Y0064940D02*
X0007850Y0064940D01*
X0007850Y0066539D02*
X0036713Y0066539D01*
X0035114Y0068137D02*
X0007850Y0068137D01*
X0007850Y0069736D02*
X0033516Y0069736D01*
X0031917Y0071334D02*
X0007850Y0071334D01*
X0007850Y0072933D02*
X0030319Y0072933D01*
X0033050Y0076000D02*
X0033050Y0078500D01*
X0038350Y0077729D02*
X0064783Y0077729D01*
X0064728Y0079327D02*
X0038350Y0079327D01*
X0038120Y0080926D02*
X0063380Y0080926D01*
X0062750Y0082524D02*
X0036521Y0082524D01*
X0036451Y0084123D02*
X0062750Y0084123D01*
X0063233Y0085721D02*
X0038049Y0085721D01*
X0038550Y0087320D02*
X0064374Y0087320D01*
X0065262Y0088918D02*
X0038550Y0088918D01*
X0038550Y0088700D02*
X0038550Y0090778D01*
X0035828Y0093500D01*
X0038550Y0096222D01*
X0038550Y0098300D01*
X0033250Y0098300D01*
X0033250Y0088700D01*
X0038550Y0088700D01*
X0038550Y0090517D02*
X0063549Y0090517D01*
X0062887Y0092115D02*
X0037213Y0092115D01*
X0036042Y0093714D02*
X0062750Y0093714D01*
X0063064Y0095312D02*
X0037640Y0095312D01*
X0038550Y0096911D02*
X0063965Y0096911D01*
X0066249Y0098509D02*
X0033250Y0098509D01*
X0032850Y0098509D02*
X0023250Y0098509D01*
X0022850Y0098509D02*
X0007850Y0098509D01*
X0007850Y0096911D02*
X0017550Y0096911D01*
X0018460Y0095312D02*
X0007850Y0095312D01*
X0007850Y0093714D02*
X0020058Y0093714D01*
X0018887Y0092115D02*
X0007850Y0092115D01*
X0007850Y0090517D02*
X0017550Y0090517D01*
X0017550Y0088918D02*
X0007850Y0088918D01*
X0007850Y0087320D02*
X0017550Y0087320D01*
X0018051Y0085721D02*
X0007850Y0085721D01*
X0007850Y0084123D02*
X0019649Y0084123D01*
X0019579Y0082524D02*
X0007850Y0082524D01*
X0007850Y0080926D02*
X0017980Y0080926D01*
X0017750Y0079327D02*
X0007850Y0079327D01*
X0007850Y0077729D02*
X0017750Y0077729D01*
X0017925Y0076130D02*
X0007850Y0076130D01*
X0007850Y0074532D02*
X0019523Y0074532D01*
X0038718Y0076130D02*
X0063403Y0076130D01*
X0062750Y0074532D02*
X0040317Y0074532D01*
X0041915Y0072933D02*
X0062750Y0072933D01*
X0063210Y0071334D02*
X0043514Y0071334D01*
X0045112Y0069736D02*
X0064319Y0069736D01*
X0065396Y0068137D02*
X0046711Y0068137D01*
X0048309Y0066539D02*
X0063594Y0066539D01*
X0062910Y0064940D02*
X0049908Y0064940D01*
X0051506Y0063342D02*
X0062750Y0063342D01*
X0063041Y0061743D02*
X0053105Y0061743D01*
X0054703Y0060145D02*
X0063910Y0060145D01*
X0066159Y0058546D02*
X0056302Y0058546D01*
X0057900Y0056948D02*
X0064003Y0056948D01*
X0063079Y0055349D02*
X0059499Y0055349D01*
X0061097Y0053751D02*
X0062750Y0053751D01*
X0062696Y0052152D02*
X0062872Y0052152D01*
X0066403Y0048446D02*
X0066996Y0048200D01*
X0069104Y0048200D01*
X0071052Y0049007D01*
X0072543Y0050498D01*
X0073350Y0052446D01*
X0073350Y0054554D01*
X0072543Y0056502D01*
X0071052Y0057993D01*
X0069828Y0058500D01*
X0071052Y0059007D01*
X0072543Y0060498D01*
X0073350Y0062446D01*
X0073350Y0064554D01*
X0072543Y0066502D01*
X0071052Y0067993D01*
X0069828Y0068500D01*
X0071052Y0069007D01*
X0072543Y0070498D01*
X0072793Y0071100D01*
X0083527Y0071100D01*
X0084409Y0071465D01*
X0098850Y0085906D01*
X0098850Y0080065D01*
X0099489Y0078521D01*
X0100671Y0077339D01*
X0102215Y0076700D01*
X0103885Y0076700D01*
X0105429Y0077339D01*
X0106611Y0078521D01*
X0107250Y0080065D01*
X0107250Y0086935D01*
X0106611Y0088479D01*
X0106490Y0088600D01*
X0109610Y0088600D01*
X0109489Y0088479D01*
X0108850Y0086935D01*
X0108850Y0080065D01*
X0109489Y0078521D01*
X0110671Y0077339D01*
X0112215Y0076700D01*
X0113885Y0076700D01*
X0115429Y0077339D01*
X0116611Y0078521D01*
X0117250Y0080065D01*
X0117250Y0086935D01*
X0116611Y0088479D01*
X0116490Y0088600D01*
X0119610Y0088600D01*
X0119489Y0088479D01*
X0118850Y0086935D01*
X0118850Y0080065D01*
X0119489Y0078521D01*
X0120671Y0077339D01*
X0122215Y0076700D01*
X0123885Y0076700D01*
X0125429Y0077339D01*
X0126611Y0078521D01*
X0127250Y0080065D01*
X0127250Y0086935D01*
X0126611Y0088479D01*
X0126490Y0088600D01*
X0129610Y0088600D01*
X0129489Y0088479D01*
X0128850Y0086935D01*
X0128850Y0080065D01*
X0128950Y0079823D01*
X0128950Y0062820D01*
X0128303Y0062172D01*
X0127450Y0060114D01*
X0127450Y0059906D01*
X0111174Y0047600D01*
X0067248Y0047600D01*
X0066403Y0048446D01*
X0070928Y0048955D02*
X0112967Y0048955D01*
X0115081Y0050554D02*
X0072566Y0050554D01*
X0073228Y0052152D02*
X0117195Y0052152D01*
X0119310Y0053751D02*
X0073350Y0053751D01*
X0073021Y0055349D02*
X0121424Y0055349D01*
X0123538Y0056948D02*
X0072097Y0056948D01*
X0069941Y0058546D02*
X0125652Y0058546D01*
X0127463Y0060145D02*
X0072190Y0060145D01*
X0073059Y0061743D02*
X0128125Y0061743D01*
X0128950Y0063342D02*
X0124973Y0063342D01*
X0125161Y0063403D02*
X0125933Y0063796D01*
X0126633Y0064305D01*
X0127245Y0064917D01*
X0127754Y0065617D01*
X0128147Y0066389D01*
X0128415Y0067212D01*
X0128550Y0068067D01*
X0128550Y0068414D01*
X0123136Y0068414D01*
X0123136Y0068586D01*
X0122964Y0068586D01*
X0122964Y0074000D01*
X0122617Y0074000D01*
X0121762Y0073865D01*
X0120939Y0073597D01*
X0120167Y0073204D01*
X0119467Y0072695D01*
X0118855Y0072083D01*
X0118346Y0071383D01*
X0117953Y0070611D01*
X0117685Y0069788D01*
X0117550Y0068933D01*
X0117550Y0068586D01*
X0122964Y0068586D01*
X0122964Y0068414D01*
X0117550Y0068414D01*
X0117550Y0068067D01*
X0117685Y0067212D01*
X0117953Y0066389D01*
X0118346Y0065617D01*
X0118855Y0064917D01*
X0119467Y0064305D01*
X0120167Y0063796D01*
X0120939Y0063403D01*
X0121762Y0063135D01*
X0122617Y0063000D01*
X0122964Y0063000D01*
X0122964Y0068414D01*
X0123136Y0068414D01*
X0123136Y0063000D01*
X0123483Y0063000D01*
X0124338Y0063135D01*
X0125161Y0063403D01*
X0123136Y0063342D02*
X0122964Y0063342D01*
X0122964Y0064940D02*
X0123136Y0064940D01*
X0123136Y0066539D02*
X0122964Y0066539D01*
X0122964Y0068137D02*
X0123136Y0068137D01*
X0123136Y0068586D02*
X0128550Y0068586D01*
X0128550Y0068933D01*
X0128415Y0069788D01*
X0128147Y0070611D01*
X0127754Y0071383D01*
X0127245Y0072083D01*
X0126633Y0072695D01*
X0125933Y0073204D01*
X0125161Y0073597D01*
X0124338Y0073865D01*
X0123483Y0074000D01*
X0123136Y0074000D01*
X0123136Y0068586D01*
X0123136Y0069736D02*
X0122964Y0069736D01*
X0122964Y0071334D02*
X0123136Y0071334D01*
X0123136Y0072933D02*
X0122964Y0072933D01*
X0119794Y0072933D02*
X0111112Y0072933D01*
X0111052Y0072993D02*
X0109104Y0073800D01*
X0106996Y0073800D01*
X0105048Y0072993D01*
X0103557Y0071502D01*
X0103050Y0070278D01*
X0102543Y0071502D01*
X0101052Y0072993D01*
X0099104Y0073800D01*
X0096996Y0073800D01*
X0095048Y0072993D01*
X0093557Y0071502D01*
X0092750Y0069554D01*
X0092750Y0067446D01*
X0093557Y0065498D01*
X0095048Y0064007D01*
X0096996Y0063200D01*
X0099104Y0063200D01*
X0101052Y0064007D01*
X0102543Y0065498D01*
X0103050Y0066722D01*
X0103557Y0065498D01*
X0105048Y0064007D01*
X0106996Y0063200D01*
X0109104Y0063200D01*
X0111052Y0064007D01*
X0112543Y0065498D01*
X0113350Y0067446D01*
X0113350Y0069554D01*
X0112543Y0071502D01*
X0111052Y0072993D01*
X0112613Y0071334D02*
X0118321Y0071334D01*
X0117677Y0069736D02*
X0113275Y0069736D01*
X0113350Y0068137D02*
X0117550Y0068137D01*
X0117904Y0066539D02*
X0112974Y0066539D01*
X0111986Y0064940D02*
X0118838Y0064940D01*
X0121127Y0063342D02*
X0109447Y0063342D01*
X0106653Y0063342D02*
X0099447Y0063342D01*
X0096653Y0063342D02*
X0073350Y0063342D01*
X0073190Y0064940D02*
X0094114Y0064940D01*
X0093126Y0066539D02*
X0072506Y0066539D01*
X0070704Y0068137D02*
X0092750Y0068137D01*
X0092825Y0069736D02*
X0071781Y0069736D01*
X0068050Y0073500D02*
X0083050Y0073500D01*
X0100550Y0091000D01*
X0170550Y0091000D01*
X0180550Y0101000D01*
X0238050Y0101000D01*
X0243050Y0106000D01*
X0243050Y0113500D01*
X0233050Y0113500D02*
X0233050Y0138000D01*
X0237150Y0133676D02*
X0241183Y0133676D01*
X0238851Y0132078D02*
X0237150Y0132078D01*
X0237150Y0130479D02*
X0237910Y0130479D01*
X0237550Y0128881D02*
X0237150Y0128881D01*
X0237150Y0127282D02*
X0237674Y0127282D01*
X0237150Y0125684D02*
X0238312Y0125684D01*
X0246331Y0124085D02*
X0254969Y0124085D01*
X0253480Y0125684D02*
X0247788Y0125684D01*
X0248426Y0127282D02*
X0252818Y0127282D01*
X0252750Y0128881D02*
X0248550Y0128881D01*
X0248190Y0130479D02*
X0253133Y0130479D01*
X0254133Y0132078D02*
X0247249Y0132078D01*
X0261967Y0132078D02*
X0264133Y0132078D01*
X0263133Y0130479D02*
X0262967Y0130479D01*
X0262620Y0125684D02*
X0263480Y0125684D01*
X0264969Y0124085D02*
X0261131Y0124085D01*
X0258850Y0111297D02*
X0257250Y0111297D01*
X0257098Y0109699D02*
X0259002Y0109699D01*
X0259910Y0108100D02*
X0256190Y0108100D01*
X0238559Y0104903D02*
X0222847Y0104903D01*
X0220550Y0106000D02*
X0223050Y0108500D01*
X0223050Y0113500D01*
X0218850Y0112896D02*
X0217250Y0112896D01*
X0217250Y0114494D02*
X0218850Y0114494D01*
X0218850Y0116093D02*
X0217250Y0116093D01*
X0216937Y0117691D02*
X0219163Y0117691D01*
X0220300Y0119290D02*
X0215800Y0119290D01*
X0222964Y0124085D02*
X0223136Y0124085D01*
X0223136Y0125684D02*
X0222964Y0125684D01*
X0222964Y0127282D02*
X0223136Y0127282D01*
X0223136Y0128881D02*
X0222964Y0128881D01*
X0222964Y0130479D02*
X0223136Y0130479D01*
X0223136Y0132078D02*
X0222964Y0132078D01*
X0218850Y0111297D02*
X0217250Y0111297D01*
X0217098Y0109699D02*
X0219002Y0109699D01*
X0220550Y0106000D02*
X0178050Y0106000D01*
X0168050Y0096000D01*
X0095550Y0096000D01*
X0083050Y0083500D01*
X0068050Y0083500D01*
X0071726Y0087320D02*
X0083476Y0087320D01*
X0085074Y0088918D02*
X0070838Y0088918D01*
X0072551Y0090517D02*
X0086673Y0090517D01*
X0088271Y0092115D02*
X0073213Y0092115D01*
X0073350Y0093714D02*
X0089870Y0093714D01*
X0091468Y0095312D02*
X0073036Y0095312D01*
X0072135Y0096911D02*
X0093067Y0096911D01*
X0093048Y0100108D02*
X0072153Y0100108D01*
X0073044Y0101706D02*
X0091450Y0101706D01*
X0089851Y0103305D02*
X0073350Y0103305D01*
X0073205Y0104903D02*
X0088407Y0104903D01*
X0088150Y0106502D02*
X0072543Y0106502D01*
X0070794Y0108100D02*
X0088150Y0108100D01*
X0088150Y0109699D02*
X0071744Y0109699D01*
X0068050Y0113500D02*
X0088050Y0113500D01*
X0090550Y0111000D01*
X0090550Y0106000D01*
X0095550Y0101000D01*
X0138050Y0101000D01*
X0143050Y0106000D01*
X0143050Y0113500D01*
X0147250Y0112896D02*
X0148850Y0112896D01*
X0148850Y0114494D02*
X0147250Y0114494D01*
X0147250Y0116093D02*
X0148850Y0116093D01*
X0148850Y0116935D02*
X0149489Y0118479D01*
X0150671Y0119661D01*
X0152215Y0120300D01*
X0153885Y0120300D01*
X0155429Y0119661D01*
X0156611Y0118479D01*
X0157250Y0116935D01*
X0157250Y0110065D01*
X0156611Y0108521D01*
X0155429Y0107339D01*
X0153885Y0106700D01*
X0152215Y0106700D01*
X0150671Y0107339D01*
X0149489Y0108521D01*
X0148850Y0110065D01*
X0148850Y0116935D01*
X0149163Y0117691D02*
X0146937Y0117691D01*
X0145800Y0119290D02*
X0150300Y0119290D01*
X0155800Y0119290D02*
X0160300Y0119290D01*
X0159163Y0117691D02*
X0156937Y0117691D01*
X0157250Y0116093D02*
X0158850Y0116093D01*
X0158850Y0114494D02*
X0157250Y0114494D01*
X0157250Y0112896D02*
X0158850Y0112896D01*
X0158850Y0111297D02*
X0157250Y0111297D01*
X0157098Y0109699D02*
X0159002Y0109699D01*
X0159910Y0108100D02*
X0156190Y0108100D01*
X0149910Y0108100D02*
X0146190Y0108100D01*
X0145450Y0106502D02*
X0175158Y0106502D01*
X0173559Y0104903D02*
X0145193Y0104903D01*
X0143749Y0103305D02*
X0171961Y0103305D01*
X0170362Y0101706D02*
X0142150Y0101706D01*
X0140552Y0100108D02*
X0168764Y0100108D01*
X0167165Y0098509D02*
X0069851Y0098509D01*
X0063947Y0100108D02*
X0038550Y0100108D01*
X0037622Y0101706D02*
X0063056Y0101706D01*
X0062750Y0103305D02*
X0036023Y0103305D01*
X0037231Y0104903D02*
X0062895Y0104903D01*
X0063557Y0106502D02*
X0038550Y0106502D01*
X0038550Y0108100D02*
X0065306Y0108100D01*
X0064356Y0109699D02*
X0038550Y0109699D01*
X0038031Y0111297D02*
X0063226Y0111297D01*
X0062750Y0112896D02*
X0036432Y0112896D01*
X0036540Y0114494D02*
X0062750Y0114494D01*
X0063387Y0116093D02*
X0038138Y0116093D01*
X0038350Y0117691D02*
X0064746Y0117691D01*
X0064765Y0119290D02*
X0038350Y0119290D01*
X0038737Y0120888D02*
X0063395Y0120888D01*
X0062750Y0122487D02*
X0040335Y0122487D01*
X0041934Y0124085D02*
X0062750Y0124085D01*
X0063218Y0125684D02*
X0043532Y0125684D01*
X0045131Y0127282D02*
X0064337Y0127282D01*
X0065050Y0128881D02*
X0046729Y0128881D01*
X0048328Y0130479D02*
X0063446Y0130479D01*
X0062729Y0132078D02*
X0049926Y0132078D01*
X0051525Y0133676D02*
X0067850Y0133676D01*
X0068250Y0133676D02*
X0096697Y0133676D01*
X0096996Y0133800D02*
X0095048Y0132993D01*
X0093557Y0131502D01*
X0092750Y0129554D01*
X0092750Y0127446D01*
X0093557Y0125498D01*
X0095048Y0124007D01*
X0096996Y0123200D01*
X0099104Y0123200D01*
X0101052Y0124007D01*
X0102543Y0125498D01*
X0103050Y0126722D01*
X0103557Y0125498D01*
X0105048Y0124007D01*
X0106996Y0123200D01*
X0109104Y0123200D01*
X0111052Y0124007D01*
X0112543Y0125498D01*
X0113350Y0127446D01*
X0113350Y0129554D01*
X0112543Y0131502D01*
X0111052Y0132993D01*
X0109104Y0133800D01*
X0106996Y0133800D01*
X0105048Y0132993D01*
X0103557Y0131502D01*
X0103050Y0130278D01*
X0102543Y0131502D01*
X0101052Y0132993D01*
X0099104Y0133800D01*
X0096996Y0133800D01*
X0099403Y0133676D02*
X0106697Y0133676D01*
X0109403Y0133676D02*
X0121183Y0133676D01*
X0120939Y0133597D02*
X0120167Y0133204D01*
X0119467Y0132695D01*
X0118855Y0132083D01*
X0118346Y0131383D01*
X0117953Y0130611D01*
X0117685Y0129788D01*
X0117550Y0128933D01*
X0117550Y0128586D01*
X0122964Y0128586D01*
X0122964Y0134000D01*
X0122617Y0134000D01*
X0121762Y0133865D01*
X0120939Y0133597D01*
X0122964Y0133676D02*
X0123136Y0133676D01*
X0123136Y0134000D02*
X0123136Y0128586D01*
X0122964Y0128586D01*
X0122964Y0128414D01*
X0117550Y0128414D01*
X0117550Y0128067D01*
X0117685Y0127212D01*
X0117953Y0126389D01*
X0118346Y0125617D01*
X0118855Y0124917D01*
X0119467Y0124305D01*
X0120167Y0123796D01*
X0120939Y0123403D01*
X0121762Y0123135D01*
X0122617Y0123000D01*
X0122964Y0123000D01*
X0122964Y0128414D01*
X0123136Y0128414D01*
X0123136Y0128586D01*
X0128550Y0128586D01*
X0128550Y0128933D01*
X0128415Y0129788D01*
X0128147Y0130611D01*
X0127754Y0131383D01*
X0127245Y0132083D01*
X0126633Y0132695D01*
X0125933Y0133204D01*
X0125161Y0133597D01*
X0124338Y0133865D01*
X0123483Y0134000D01*
X0123136Y0134000D01*
X0124917Y0133676D02*
X0128950Y0133676D01*
X0128950Y0132078D02*
X0127249Y0132078D01*
X0128190Y0130479D02*
X0128950Y0130479D01*
X0128950Y0128881D02*
X0128550Y0128881D01*
X0128550Y0128414D02*
X0123136Y0128414D01*
X0123136Y0123000D01*
X0123483Y0123000D01*
X0124338Y0123135D01*
X0125161Y0123403D01*
X0125933Y0123796D01*
X0126633Y0124305D01*
X0127245Y0124917D01*
X0127754Y0125617D01*
X0128147Y0126389D01*
X0128415Y0127212D01*
X0128550Y0128067D01*
X0128550Y0128414D01*
X0128426Y0127282D02*
X0128950Y0127282D01*
X0128950Y0125684D02*
X0127788Y0125684D01*
X0128950Y0124085D02*
X0126331Y0124085D01*
X0128950Y0122487D02*
X0092457Y0122487D01*
X0090859Y0124085D02*
X0094969Y0124085D01*
X0093480Y0125684D02*
X0089049Y0125684D01*
X0088050Y0123500D02*
X0095550Y0116000D01*
X0095550Y0108500D01*
X0098050Y0106000D01*
X0120550Y0106000D01*
X0123050Y0108500D01*
X0123050Y0113500D01*
X0118850Y0112896D02*
X0117250Y0112896D01*
X0117250Y0114494D02*
X0118850Y0114494D01*
X0118850Y0116093D02*
X0117250Y0116093D01*
X0116937Y0117691D02*
X0119163Y0117691D01*
X0120300Y0119290D02*
X0115800Y0119290D01*
X0110300Y0119290D02*
X0105800Y0119290D01*
X0106937Y0117691D02*
X0109163Y0117691D01*
X0108850Y0116093D02*
X0107250Y0116093D01*
X0107250Y0114494D02*
X0108850Y0114494D01*
X0108850Y0112896D02*
X0107250Y0112896D01*
X0107250Y0111297D02*
X0108850Y0111297D01*
X0109002Y0109699D02*
X0107098Y0109699D01*
X0099002Y0109699D02*
X0097950Y0109699D01*
X0097950Y0111297D02*
X0098850Y0111297D01*
X0098850Y0112896D02*
X0097950Y0112896D01*
X0097950Y0114494D02*
X0098850Y0114494D01*
X0098850Y0116093D02*
X0097950Y0116093D01*
X0097253Y0117691D02*
X0099163Y0117691D01*
X0100300Y0119290D02*
X0095654Y0119290D01*
X0094056Y0120888D02*
X0128950Y0120888D01*
X0128950Y0119290D02*
X0125800Y0119290D01*
X0126937Y0117691D02*
X0128950Y0117691D01*
X0128850Y0116093D02*
X0127250Y0116093D01*
X0127250Y0114494D02*
X0128850Y0114494D01*
X0128850Y0112896D02*
X0127250Y0112896D01*
X0127250Y0111297D02*
X0128850Y0111297D01*
X0129002Y0109699D02*
X0127098Y0109699D01*
X0126190Y0108100D02*
X0129910Y0108100D01*
X0124446Y0106502D02*
X0140158Y0106502D01*
X0139910Y0108100D02*
X0136190Y0108100D01*
X0137098Y0109699D02*
X0139002Y0109699D01*
X0138850Y0111297D02*
X0137250Y0111297D01*
X0137250Y0112896D02*
X0138850Y0112896D01*
X0138850Y0114494D02*
X0137250Y0114494D01*
X0137250Y0116093D02*
X0138850Y0116093D01*
X0139163Y0117691D02*
X0137150Y0117691D01*
X0137150Y0119290D02*
X0140300Y0119290D01*
X0137150Y0120888D02*
X0180374Y0120888D01*
X0176849Y0108100D02*
X0166190Y0108100D01*
X0177150Y0101706D02*
X0177862Y0101706D01*
X0178749Y0103305D02*
X0179843Y0103305D01*
X0176264Y0100108D02*
X0175552Y0100108D01*
X0174665Y0098509D02*
X0173953Y0098509D01*
X0173067Y0096911D02*
X0172355Y0096911D01*
X0171468Y0095312D02*
X0170756Y0095312D01*
X0169870Y0093714D02*
X0168802Y0093714D01*
X0159009Y0087320D02*
X0157091Y0087320D01*
X0157250Y0085721D02*
X0158850Y0085721D01*
X0158850Y0084123D02*
X0157250Y0084123D01*
X0157250Y0082524D02*
X0158850Y0082524D01*
X0158850Y0080926D02*
X0157250Y0080926D01*
X0156945Y0079327D02*
X0159155Y0079327D01*
X0160282Y0077729D02*
X0155818Y0077729D01*
X0150282Y0077729D02*
X0145818Y0077729D01*
X0146945Y0079327D02*
X0149155Y0079327D01*
X0148850Y0080926D02*
X0147250Y0080926D01*
X0147250Y0082524D02*
X0148850Y0082524D01*
X0148850Y0084123D02*
X0147250Y0084123D01*
X0147250Y0085721D02*
X0148850Y0085721D01*
X0149009Y0087320D02*
X0147091Y0087320D01*
X0139009Y0087320D02*
X0137091Y0087320D01*
X0137250Y0085721D02*
X0138850Y0085721D01*
X0138850Y0084123D02*
X0137250Y0084123D01*
X0137250Y0082524D02*
X0138850Y0082524D01*
X0138850Y0080926D02*
X0137250Y0080926D01*
X0137150Y0079327D02*
X0139155Y0079327D01*
X0140282Y0077729D02*
X0137150Y0077729D01*
X0137150Y0072933D02*
X0139794Y0072933D01*
X0138321Y0071334D02*
X0137150Y0071334D01*
X0137150Y0069736D02*
X0137677Y0069736D01*
X0137550Y0068137D02*
X0137150Y0068137D01*
X0137150Y0066539D02*
X0137904Y0066539D01*
X0137150Y0064940D02*
X0138838Y0064940D01*
X0142964Y0064940D02*
X0143136Y0064940D01*
X0143136Y0066539D02*
X0142964Y0066539D01*
X0142964Y0068137D02*
X0143136Y0068137D01*
X0143136Y0068586D02*
X0148550Y0068586D01*
X0148550Y0068933D01*
X0148415Y0069788D01*
X0148147Y0070611D01*
X0147754Y0071383D01*
X0147245Y0072083D01*
X0146633Y0072695D01*
X0145933Y0073204D01*
X0145161Y0073597D01*
X0144338Y0073865D01*
X0143483Y0074000D01*
X0143136Y0074000D01*
X0143136Y0068586D01*
X0143136Y0069736D02*
X0142964Y0069736D01*
X0142964Y0071334D02*
X0143136Y0071334D01*
X0143136Y0072933D02*
X0142964Y0072933D01*
X0146306Y0072933D02*
X0154988Y0072933D01*
X0153487Y0071334D02*
X0147779Y0071334D01*
X0148423Y0069736D02*
X0152825Y0069736D01*
X0152750Y0068137D02*
X0148550Y0068137D01*
X0148196Y0066539D02*
X0153126Y0066539D01*
X0154114Y0064940D02*
X0147262Y0064940D01*
X0161986Y0064940D02*
X0164114Y0064940D01*
X0163126Y0066539D02*
X0162974Y0066539D01*
X0171986Y0064940D02*
X0194114Y0064940D01*
X0193126Y0066539D02*
X0172974Y0066539D01*
X0173350Y0068137D02*
X0192750Y0068137D01*
X0192825Y0069736D02*
X0173275Y0069736D01*
X0172613Y0071334D02*
X0193487Y0071334D01*
X0194988Y0072933D02*
X0171112Y0072933D01*
X0164988Y0072933D02*
X0161112Y0072933D01*
X0162613Y0071334D02*
X0163487Y0071334D01*
X0149945Y0050554D02*
X0217217Y0050554D01*
X0215396Y0048955D02*
X0152000Y0048955D01*
X0154055Y0047357D02*
X0213576Y0047357D01*
X0211755Y0045758D02*
X0156110Y0045758D01*
X0148920Y0040963D02*
X0115992Y0040963D01*
X0118107Y0042561D02*
X0131019Y0042561D01*
X0130824Y0042625D02*
X0131692Y0042343D01*
X0132594Y0042200D01*
X0132850Y0042200D01*
X0132850Y0047800D01*
X0127250Y0047800D01*
X0127250Y0047544D01*
X0127393Y0046642D01*
X0127675Y0045774D01*
X0128089Y0044960D01*
X0128626Y0044222D01*
X0129272Y0043576D01*
X0130010Y0043039D01*
X0130824Y0042625D01*
X0132850Y0042561D02*
X0133250Y0042561D01*
X0133250Y0042200D02*
X0133506Y0042200D01*
X0134408Y0042343D01*
X0135276Y0042625D01*
X0136090Y0043039D01*
X0136828Y0043576D01*
X0137474Y0044222D01*
X0138011Y0044960D01*
X0138425Y0045774D01*
X0138707Y0046642D01*
X0138850Y0047544D01*
X0138850Y0047800D01*
X0133250Y0047800D01*
X0133250Y0042200D01*
X0135081Y0042561D02*
X0146864Y0042561D01*
X0144809Y0044160D02*
X0137412Y0044160D01*
X0138417Y0045758D02*
X0142754Y0045758D01*
X0140699Y0047357D02*
X0138820Y0047357D01*
X0133250Y0047357D02*
X0132850Y0047357D01*
X0132850Y0045758D02*
X0133250Y0045758D01*
X0133250Y0044160D02*
X0132850Y0044160D01*
X0128688Y0044160D02*
X0120221Y0044160D01*
X0122335Y0045758D02*
X0127683Y0045758D01*
X0127280Y0047357D02*
X0124449Y0047357D01*
X0126563Y0048955D02*
X0127329Y0048955D01*
X0127262Y0064940D02*
X0128950Y0064940D01*
X0128950Y0066539D02*
X0128196Y0066539D01*
X0128550Y0068137D02*
X0128950Y0068137D01*
X0128950Y0069736D02*
X0128423Y0069736D01*
X0128950Y0071334D02*
X0127779Y0071334D01*
X0128950Y0072933D02*
X0126306Y0072933D01*
X0128950Y0074532D02*
X0087476Y0074532D01*
X0089074Y0076130D02*
X0128950Y0076130D01*
X0128950Y0077729D02*
X0125818Y0077729D01*
X0126945Y0079327D02*
X0128950Y0079327D01*
X0128850Y0080926D02*
X0127250Y0080926D01*
X0127250Y0082524D02*
X0128850Y0082524D01*
X0128850Y0084123D02*
X0127250Y0084123D01*
X0127250Y0085721D02*
X0128850Y0085721D01*
X0129009Y0087320D02*
X0127091Y0087320D01*
X0119009Y0087320D02*
X0117091Y0087320D01*
X0117250Y0085721D02*
X0118850Y0085721D01*
X0118850Y0084123D02*
X0117250Y0084123D01*
X0117250Y0082524D02*
X0118850Y0082524D01*
X0118850Y0080926D02*
X0117250Y0080926D01*
X0116945Y0079327D02*
X0119155Y0079327D01*
X0120282Y0077729D02*
X0115818Y0077729D01*
X0110282Y0077729D02*
X0105818Y0077729D01*
X0106945Y0079327D02*
X0109155Y0079327D01*
X0108850Y0080926D02*
X0107250Y0080926D01*
X0107250Y0082524D02*
X0108850Y0082524D01*
X0108850Y0084123D02*
X0107250Y0084123D01*
X0107250Y0085721D02*
X0108850Y0085721D01*
X0109009Y0087320D02*
X0107091Y0087320D01*
X0098850Y0085721D02*
X0098665Y0085721D01*
X0098850Y0084123D02*
X0097067Y0084123D01*
X0095468Y0082524D02*
X0098850Y0082524D01*
X0098850Y0080926D02*
X0093870Y0080926D01*
X0092271Y0079327D02*
X0099155Y0079327D01*
X0100282Y0077729D02*
X0090673Y0077729D01*
X0085483Y0079327D02*
X0071372Y0079327D01*
X0071317Y0077729D02*
X0083884Y0077729D01*
X0082286Y0076130D02*
X0072697Y0076130D01*
X0072720Y0080926D02*
X0087081Y0080926D01*
X0088680Y0082524D02*
X0085468Y0082524D01*
X0087067Y0084123D02*
X0090278Y0084123D01*
X0091877Y0085721D02*
X0088665Y0085721D01*
X0090264Y0087320D02*
X0093476Y0087320D01*
X0095074Y0088918D02*
X0091862Y0088918D01*
X0093461Y0090517D02*
X0096673Y0090517D01*
X0098271Y0092115D02*
X0095059Y0092115D01*
X0095041Y0104903D02*
X0095753Y0104903D01*
X0094154Y0106502D02*
X0093442Y0106502D01*
X0093150Y0108100D02*
X0092950Y0108100D01*
X0092950Y0109699D02*
X0093150Y0109699D01*
X0093150Y0111297D02*
X0092950Y0111297D01*
X0093150Y0112896D02*
X0092048Y0112896D01*
X0093150Y0114494D02*
X0090450Y0114494D01*
X0092063Y0116093D02*
X0072713Y0116093D01*
X0071354Y0117691D02*
X0090465Y0117691D01*
X0088866Y0119290D02*
X0071335Y0119290D01*
X0072705Y0120888D02*
X0087268Y0120888D01*
X0088050Y0123500D02*
X0068050Y0123500D01*
X0071763Y0127282D02*
X0092818Y0127282D01*
X0092750Y0128881D02*
X0071050Y0128881D01*
X0072654Y0130479D02*
X0093133Y0130479D01*
X0094133Y0132078D02*
X0073371Y0132078D01*
X0073256Y0135275D02*
X0128117Y0135275D01*
X0127455Y0136873D02*
X0072397Y0136873D01*
X0070407Y0138472D02*
X0125628Y0138472D01*
X0123513Y0140070D02*
X0072357Y0140070D01*
X0073238Y0141669D02*
X0121399Y0141669D01*
X0119285Y0143268D02*
X0073550Y0143268D01*
X0073550Y0143700D02*
X0068250Y0143700D01*
X0068250Y0149000D01*
X0068483Y0149000D01*
X0069338Y0148865D01*
X0070161Y0148597D01*
X0070933Y0148204D01*
X0071633Y0147695D01*
X0072245Y0147083D01*
X0072754Y0146383D01*
X0073147Y0145611D01*
X0073415Y0144788D01*
X0073550Y0143933D01*
X0073550Y0143700D01*
X0073389Y0144866D02*
X0117171Y0144866D01*
X0115057Y0146465D02*
X0072695Y0146465D01*
X0071127Y0148063D02*
X0112943Y0148063D01*
X0118082Y0154457D02*
X0131076Y0154457D01*
X0132850Y0154457D02*
X0133250Y0154457D01*
X0133250Y0154800D02*
X0133250Y0149200D01*
X0138850Y0149200D01*
X0138850Y0149456D01*
X0138707Y0150358D01*
X0138425Y0151226D01*
X0138011Y0152040D01*
X0137474Y0152778D01*
X0136828Y0153424D01*
X0136090Y0153961D01*
X0135276Y0154375D01*
X0134408Y0154657D01*
X0133506Y0154800D01*
X0133250Y0154800D01*
X0135024Y0154457D02*
X0148018Y0154457D01*
X0150132Y0156056D02*
X0115968Y0156056D01*
X0120196Y0152859D02*
X0128706Y0152859D01*
X0127692Y0151260D02*
X0122311Y0151260D01*
X0124425Y0149662D02*
X0127282Y0149662D01*
X0127326Y0148063D02*
X0126539Y0148063D01*
X0132850Y0149662D02*
X0133250Y0149662D01*
X0133250Y0151260D02*
X0132850Y0151260D01*
X0132850Y0152859D02*
X0133250Y0152859D01*
X0137394Y0152859D02*
X0145904Y0152859D01*
X0143789Y0151260D02*
X0138408Y0151260D01*
X0138818Y0149662D02*
X0141675Y0149662D01*
X0139561Y0148063D02*
X0138774Y0148063D01*
X0140007Y0164048D02*
X0126093Y0164048D01*
X0127605Y0165647D02*
X0138495Y0165647D01*
X0137833Y0167245D02*
X0128267Y0167245D01*
X0128350Y0168844D02*
X0137750Y0168844D01*
X0138118Y0170442D02*
X0127982Y0170442D01*
X0127005Y0172041D02*
X0139095Y0172041D01*
X0119095Y0172041D02*
X0112276Y0172041D01*
X0113202Y0170442D02*
X0118118Y0170442D01*
X0117750Y0168844D02*
X0113550Y0168844D01*
X0113550Y0168414D02*
X0108136Y0168414D01*
X0108136Y0163000D01*
X0108483Y0163000D01*
X0109338Y0163135D01*
X0110161Y0163403D01*
X0110933Y0163796D01*
X0111633Y0164305D01*
X0112245Y0164917D01*
X0112754Y0165617D01*
X0113147Y0166389D01*
X0113415Y0167212D01*
X0113550Y0168067D01*
X0113550Y0168414D01*
X0113420Y0167245D02*
X0117833Y0167245D01*
X0118495Y0165647D02*
X0112769Y0165647D01*
X0111280Y0164048D02*
X0120007Y0164048D01*
X0108136Y0164048D02*
X0107964Y0164048D01*
X0107964Y0165647D02*
X0108136Y0165647D01*
X0108136Y0167245D02*
X0107964Y0167245D01*
X0107964Y0168844D02*
X0108136Y0168844D01*
X0108136Y0170442D02*
X0107964Y0170442D01*
X0107964Y0172041D02*
X0108136Y0172041D01*
X0097992Y0176836D02*
X0028647Y0176836D01*
X0029075Y0175238D02*
X0096394Y0175238D01*
X0095650Y0173639D02*
X0029149Y0173639D01*
X0028017Y0178435D02*
X0099591Y0178435D01*
X0101189Y0180033D02*
X0027094Y0180033D01*
X0025615Y0181632D02*
X0102788Y0181632D01*
X0104386Y0183230D02*
X0023395Y0183230D01*
X0007850Y0156056D02*
X0062307Y0156056D01*
X0060709Y0154457D02*
X0007850Y0154457D01*
X0007850Y0152859D02*
X0059110Y0152859D01*
X0057512Y0151260D02*
X0007850Y0151260D01*
X0007850Y0149662D02*
X0055913Y0149662D01*
X0054315Y0148063D02*
X0007850Y0148063D01*
X0007850Y0146465D02*
X0052716Y0146465D01*
X0051118Y0144866D02*
X0007850Y0144866D01*
X0007850Y0143268D02*
X0049519Y0143268D01*
X0047921Y0141669D02*
X0007850Y0141669D01*
X0007850Y0140070D02*
X0046322Y0140070D01*
X0044724Y0138472D02*
X0007850Y0138472D01*
X0007850Y0136873D02*
X0043125Y0136873D01*
X0041527Y0135275D02*
X0007850Y0135275D01*
X0007850Y0133676D02*
X0039928Y0133676D01*
X0038330Y0132078D02*
X0007850Y0132078D01*
X0007850Y0130479D02*
X0036731Y0130479D01*
X0035133Y0128881D02*
X0007850Y0128881D01*
X0007850Y0127282D02*
X0033534Y0127282D01*
X0031936Y0125684D02*
X0007850Y0125684D01*
X0007850Y0124085D02*
X0030337Y0124085D01*
X0033050Y0121000D02*
X0033050Y0118500D01*
X0019560Y0114494D02*
X0007850Y0114494D01*
X0007850Y0112896D02*
X0019668Y0112896D01*
X0018069Y0111297D02*
X0007850Y0111297D01*
X0007850Y0109699D02*
X0017550Y0109699D01*
X0017550Y0108100D02*
X0007850Y0108100D01*
X0007850Y0106502D02*
X0017550Y0106502D01*
X0018869Y0104903D02*
X0007850Y0104903D01*
X0007850Y0103305D02*
X0020077Y0103305D01*
X0018478Y0101706D02*
X0007850Y0101706D01*
X0007850Y0100108D02*
X0017550Y0100108D01*
X0022850Y0100108D02*
X0023250Y0100108D01*
X0023250Y0101706D02*
X0022850Y0101706D01*
X0022850Y0103305D02*
X0023250Y0103305D01*
X0023250Y0104903D02*
X0022850Y0104903D01*
X0022850Y0106502D02*
X0023250Y0106502D01*
X0023250Y0108100D02*
X0022850Y0108100D01*
X0032850Y0108100D02*
X0033250Y0108100D01*
X0033250Y0106502D02*
X0032850Y0106502D01*
X0032850Y0104903D02*
X0033250Y0104903D01*
X0033250Y0103305D02*
X0032850Y0103305D01*
X0032850Y0101706D02*
X0033250Y0101706D01*
X0033250Y0100108D02*
X0032850Y0100108D01*
X0032850Y0096911D02*
X0033250Y0096911D01*
X0033250Y0095312D02*
X0032850Y0095312D01*
X0032850Y0093714D02*
X0033250Y0093714D01*
X0033250Y0092115D02*
X0032850Y0092115D01*
X0032850Y0090517D02*
X0033250Y0090517D01*
X0033250Y0088918D02*
X0032850Y0088918D01*
X0023250Y0088918D02*
X0022850Y0088918D01*
X0022850Y0090517D02*
X0023250Y0090517D01*
X0023250Y0092115D02*
X0022850Y0092115D01*
X0022850Y0093714D02*
X0023250Y0093714D01*
X0023250Y0095312D02*
X0022850Y0095312D01*
X0022850Y0096911D02*
X0023250Y0096911D01*
X0017962Y0116093D02*
X0007850Y0116093D01*
X0007850Y0117691D02*
X0017750Y0117691D01*
X0017750Y0119290D02*
X0007850Y0119290D01*
X0007850Y0120888D02*
X0017943Y0120888D01*
X0019542Y0122487D02*
X0007850Y0122487D01*
X0053123Y0135275D02*
X0062844Y0135275D01*
X0063703Y0136873D02*
X0054722Y0136873D01*
X0056320Y0138472D02*
X0065693Y0138472D01*
X0067850Y0138472D02*
X0068250Y0138472D01*
X0068250Y0140070D02*
X0067850Y0140070D01*
X0067850Y0141669D02*
X0068250Y0141669D01*
X0068250Y0143268D02*
X0067850Y0143268D01*
X0067850Y0144866D02*
X0068250Y0144866D01*
X0068250Y0146465D02*
X0067850Y0146465D01*
X0067850Y0148063D02*
X0068250Y0148063D01*
X0062550Y0143268D02*
X0061116Y0143268D01*
X0059517Y0141669D02*
X0062862Y0141669D01*
X0063743Y0140070D02*
X0057919Y0140070D01*
X0067850Y0136873D02*
X0068250Y0136873D01*
X0068250Y0135275D02*
X0067850Y0135275D01*
X0101967Y0132078D02*
X0104133Y0132078D01*
X0103133Y0130479D02*
X0102967Y0130479D01*
X0102620Y0125684D02*
X0103480Y0125684D01*
X0104969Y0124085D02*
X0101131Y0124085D01*
X0111131Y0124085D02*
X0119769Y0124085D01*
X0118312Y0125684D02*
X0112620Y0125684D01*
X0113282Y0127282D02*
X0117674Y0127282D01*
X0117550Y0128881D02*
X0113350Y0128881D01*
X0112967Y0130479D02*
X0117910Y0130479D01*
X0118851Y0132078D02*
X0111967Y0132078D01*
X0122964Y0132078D02*
X0123136Y0132078D01*
X0123136Y0130479D02*
X0122964Y0130479D01*
X0122964Y0128881D02*
X0123136Y0128881D01*
X0123136Y0127282D02*
X0122964Y0127282D01*
X0122964Y0125684D02*
X0123136Y0125684D01*
X0123136Y0124085D02*
X0122964Y0124085D01*
X0118850Y0111297D02*
X0117250Y0111297D01*
X0117098Y0109699D02*
X0119002Y0109699D01*
X0122847Y0104903D02*
X0138559Y0104903D01*
X0147098Y0109699D02*
X0149002Y0109699D01*
X0148850Y0111297D02*
X0147250Y0111297D01*
X0104988Y0072933D02*
X0101112Y0072933D01*
X0102613Y0071334D02*
X0103487Y0071334D01*
X0094988Y0072933D02*
X0085877Y0072933D01*
X0084094Y0071334D02*
X0093487Y0071334D01*
X0102974Y0066539D02*
X0103126Y0066539D01*
X0104114Y0064940D02*
X0101986Y0064940D01*
X0111254Y0032970D02*
X0120025Y0032970D01*
X0118503Y0031372D02*
X0112760Y0031372D01*
X0113417Y0029773D02*
X0117841Y0029773D01*
X0117750Y0028175D02*
X0113550Y0028175D01*
X0113208Y0026576D02*
X0118110Y0026576D01*
X0119077Y0024978D02*
X0112289Y0024978D01*
X0106012Y0023379D02*
X0099537Y0023379D01*
X0102023Y0024978D02*
X0103811Y0024978D01*
X0126075Y0032970D02*
X0140025Y0032970D01*
X0138503Y0031372D02*
X0127597Y0031372D01*
X0128259Y0029773D02*
X0137841Y0029773D01*
X0137750Y0028175D02*
X0128350Y0028175D01*
X0127990Y0026576D02*
X0138110Y0026576D01*
X0139077Y0024978D02*
X0127023Y0024978D01*
X0161254Y0032970D02*
X0165025Y0032970D01*
X0163503Y0031372D02*
X0162760Y0031372D01*
X0162289Y0024978D02*
X0164077Y0024978D01*
X0199537Y0023379D02*
X0206012Y0023379D01*
X0203811Y0024978D02*
X0202023Y0024978D01*
X0213550Y0028175D02*
X0217750Y0028175D01*
X0217841Y0029773D02*
X0213417Y0029773D01*
X0212760Y0031372D02*
X0218503Y0031372D01*
X0220025Y0032970D02*
X0211254Y0032970D01*
X0226075Y0032970D02*
X0240025Y0032970D01*
X0238503Y0031372D02*
X0227597Y0031372D01*
X0228259Y0029773D02*
X0237841Y0029773D01*
X0237750Y0028175D02*
X0228350Y0028175D01*
X0227990Y0026576D02*
X0238110Y0026576D01*
X0239077Y0024978D02*
X0227023Y0024978D01*
X0225450Y0023379D02*
X0240650Y0023379D01*
X0240650Y0021781D02*
X0225450Y0021781D01*
X0225450Y0020182D02*
X0240650Y0020182D01*
X0239740Y0018584D02*
X0225450Y0018584D01*
X0224929Y0016985D02*
X0232106Y0016985D01*
X0233994Y0016985D02*
X0238141Y0016985D01*
X0238050Y0013500D02*
X0243050Y0018500D01*
X0243050Y0028500D01*
X0229955Y0015387D02*
X0223331Y0015387D01*
X0221732Y0013788D02*
X0229469Y0013788D01*
X0229717Y0012190D02*
X0220134Y0012190D01*
X0233050Y0013500D02*
X0238050Y0013500D01*
X0262289Y0024978D02*
X0264077Y0024978D01*
X0263503Y0031372D02*
X0262760Y0031372D01*
X0261254Y0032970D02*
X0265025Y0032970D01*
X0223136Y0064940D02*
X0222964Y0064940D01*
X0222964Y0066539D02*
X0223136Y0066539D01*
X0223136Y0068137D02*
X0222964Y0068137D01*
X0222964Y0069736D02*
X0223136Y0069736D01*
X0223136Y0071334D02*
X0222964Y0071334D01*
X0222964Y0072933D02*
X0223136Y0072933D01*
X0219794Y0072933D02*
X0211112Y0072933D01*
X0212613Y0071334D02*
X0218321Y0071334D01*
X0217677Y0069736D02*
X0213275Y0069736D01*
X0213350Y0068137D02*
X0217550Y0068137D01*
X0217904Y0066539D02*
X0212974Y0066539D01*
X0211986Y0064940D02*
X0218838Y0064940D01*
X0204114Y0064940D02*
X0201986Y0064940D01*
X0202974Y0066539D02*
X0203126Y0066539D01*
X0203487Y0071334D02*
X0202613Y0071334D01*
X0201112Y0072933D02*
X0204988Y0072933D01*
X0288050Y0078500D02*
X0298050Y0073500D01*
X0220007Y0164048D02*
X0211280Y0164048D01*
X0210933Y0163796D02*
X0211633Y0164305D01*
X0212245Y0164917D01*
X0212754Y0165617D01*
X0213147Y0166389D01*
X0213415Y0167212D01*
X0213550Y0168067D01*
X0213550Y0168414D01*
X0208136Y0168414D01*
X0208136Y0163000D01*
X0208483Y0163000D01*
X0209338Y0163135D01*
X0210161Y0163403D01*
X0210933Y0163796D01*
X0212769Y0165647D02*
X0218495Y0165647D01*
X0217833Y0167245D02*
X0213420Y0167245D01*
X0213550Y0168844D02*
X0217750Y0168844D01*
X0218118Y0170442D02*
X0213202Y0170442D01*
X0212276Y0172041D02*
X0219095Y0172041D01*
X0208136Y0172041D02*
X0207964Y0172041D01*
X0207964Y0170442D02*
X0208136Y0170442D01*
X0208136Y0168844D02*
X0207964Y0168844D01*
X0207964Y0167245D02*
X0208136Y0167245D01*
X0208136Y0165647D02*
X0207964Y0165647D01*
X0207964Y0164048D02*
X0208136Y0164048D01*
X0204820Y0164048D02*
X0201093Y0164048D01*
X0202605Y0165647D02*
X0203331Y0165647D01*
X0203824Y0172041D02*
X0202005Y0172041D01*
X0164095Y0172041D02*
X0162276Y0172041D01*
D17*
X0153550Y0153500D02*
X0133050Y0138000D01*
X0133050Y0113500D01*
X0133050Y0138000D02*
X0112550Y0153500D01*
X0065550Y0153500D01*
X0033050Y0121000D01*
X0033050Y0118500D02*
X0023050Y0118500D01*
X0023050Y0078500D02*
X0033050Y0078500D01*
X0033050Y0076000D02*
X0065550Y0043500D01*
X0112550Y0043500D01*
X0133050Y0059000D01*
X0133050Y0058500D01*
X0155550Y0041000D01*
X0212550Y0041000D01*
X0233050Y0059000D01*
X0233050Y0083500D01*
X0233050Y0113500D02*
X0233050Y0138500D01*
X0213050Y0153500D01*
X0153550Y0153500D01*
X0133050Y0083500D02*
X0133050Y0059000D01*
M02*
