%
M48
M72
T01C0.02362
T02C0.03200
T03C0.03543
T04C0.04000
T05C0.12598
%
T01
X68050Y168500
X183050Y118500
X183050Y78500
X283050Y43500
X233050Y13500
X213050Y8500
X295550Y176000
T02
X103050Y113500
X113050Y113500
X123050Y113500
X133050Y113500
X143050Y113500
X153050Y113500
X163050Y113500
X203050Y113500
X213050Y113500
X223050Y113500
X233050Y113500
X243050Y113500
X253050Y113500
X263050Y113500
X263050Y83500
X253050Y83500
X243050Y83500
X233050Y83500
X223050Y83500
X213050Y83500
X203050Y83500
X163050Y83500
X153050Y83500
X143050Y83500
X133050Y83500
X123050Y83500
X113050Y83500
X103050Y83500
T03
X98050Y168500
X108050Y168500
X123050Y168500
X143050Y168500
X158050Y168500
X168050Y168500
X198050Y168500
X208050Y168500
X223050Y168500
X243050Y168500
X258050Y168500
X268050Y168500
X268050Y128500
X258050Y128500
X243050Y128500
X223050Y128500
X208050Y128500
X198050Y128500
X168050Y128500
X158050Y128500
X143050Y128500
X123050Y128500
X108050Y128500
X98050Y128500
X98050Y68500
X108050Y68500
X123050Y68500
X143050Y68500
X158050Y68500
X168050Y68500
X198050Y68500
X208050Y68500
X223050Y68500
X243050Y68500
X258050Y68500
X268050Y68500
X268050Y28500
X258050Y28500
X243050Y28500
X223050Y28500
X208050Y28500
X198050Y28500
X168050Y28500
X158050Y28500
X143050Y28500
X123050Y28500
X108050Y28500
X98050Y28500
T04
X68050Y53500
X68050Y63500
X68050Y73500
X68050Y83500
X68050Y93500
X68050Y103500
X68050Y113500
X68050Y123500
X68050Y133500
X68050Y143500
X33050Y118500
X23050Y118500
X23050Y108500
X33050Y108500
X33050Y98500
X23050Y98500
X23050Y88500
X33050Y88500
X33050Y78500
X23050Y78500
X133050Y59000
X133050Y48000
X233050Y48000
X233050Y59000
X298050Y63500
X298050Y73500
X298050Y83500
X298050Y93500
X298050Y103500
X298050Y113500
X298050Y123500
X298050Y133500
X298050Y143500
X233050Y149000
X233050Y138000
X133050Y138000
X133050Y149000
X298050Y53500
T05
X18050Y16000
X18050Y173500
X310550Y178500
X310550Y13500
M30
