G75*
%MOIN*%
%OFA0B0*%
%FSLAX25Y25*%
%IPPOS*%
%LPD*%
%AMOC8*
5,1,8,0,0,1.08239X$1,22.5*
%
%ADD10C,0.00000*%
%ADD11C,0.13398*%
%ADD12C,0.06000*%
%ADD13C,0.07400*%
%ADD14C,0.08200*%
%ADD15C,0.00500*%
%ADD16OC8,0.08200*%
%ADD17C,0.04762*%
D10*
X0003050Y0001000D02*
X0003050Y0188461D01*
X0321751Y0188461D01*
X0321751Y0001000D01*
X0003050Y0001000D01*
X0011751Y0016000D02*
X0011753Y0016158D01*
X0011759Y0016316D01*
X0011769Y0016474D01*
X0011783Y0016632D01*
X0011801Y0016789D01*
X0011822Y0016946D01*
X0011848Y0017102D01*
X0011878Y0017258D01*
X0011911Y0017413D01*
X0011949Y0017566D01*
X0011990Y0017719D01*
X0012035Y0017871D01*
X0012084Y0018022D01*
X0012137Y0018171D01*
X0012193Y0018319D01*
X0012253Y0018465D01*
X0012317Y0018610D01*
X0012385Y0018753D01*
X0012456Y0018895D01*
X0012530Y0019035D01*
X0012608Y0019172D01*
X0012690Y0019308D01*
X0012774Y0019442D01*
X0012863Y0019573D01*
X0012954Y0019702D01*
X0013049Y0019829D01*
X0013146Y0019954D01*
X0013247Y0020076D01*
X0013351Y0020195D01*
X0013458Y0020312D01*
X0013568Y0020426D01*
X0013681Y0020537D01*
X0013796Y0020646D01*
X0013914Y0020751D01*
X0014035Y0020853D01*
X0014158Y0020953D01*
X0014284Y0021049D01*
X0014412Y0021142D01*
X0014542Y0021232D01*
X0014675Y0021318D01*
X0014810Y0021402D01*
X0014946Y0021481D01*
X0015085Y0021558D01*
X0015226Y0021630D01*
X0015368Y0021700D01*
X0015512Y0021765D01*
X0015658Y0021827D01*
X0015805Y0021885D01*
X0015954Y0021940D01*
X0016104Y0021991D01*
X0016255Y0022038D01*
X0016407Y0022081D01*
X0016560Y0022120D01*
X0016715Y0022156D01*
X0016870Y0022187D01*
X0017026Y0022215D01*
X0017182Y0022239D01*
X0017339Y0022259D01*
X0017497Y0022275D01*
X0017654Y0022287D01*
X0017813Y0022295D01*
X0017971Y0022299D01*
X0018129Y0022299D01*
X0018287Y0022295D01*
X0018446Y0022287D01*
X0018603Y0022275D01*
X0018761Y0022259D01*
X0018918Y0022239D01*
X0019074Y0022215D01*
X0019230Y0022187D01*
X0019385Y0022156D01*
X0019540Y0022120D01*
X0019693Y0022081D01*
X0019845Y0022038D01*
X0019996Y0021991D01*
X0020146Y0021940D01*
X0020295Y0021885D01*
X0020442Y0021827D01*
X0020588Y0021765D01*
X0020732Y0021700D01*
X0020874Y0021630D01*
X0021015Y0021558D01*
X0021154Y0021481D01*
X0021290Y0021402D01*
X0021425Y0021318D01*
X0021558Y0021232D01*
X0021688Y0021142D01*
X0021816Y0021049D01*
X0021942Y0020953D01*
X0022065Y0020853D01*
X0022186Y0020751D01*
X0022304Y0020646D01*
X0022419Y0020537D01*
X0022532Y0020426D01*
X0022642Y0020312D01*
X0022749Y0020195D01*
X0022853Y0020076D01*
X0022954Y0019954D01*
X0023051Y0019829D01*
X0023146Y0019702D01*
X0023237Y0019573D01*
X0023326Y0019442D01*
X0023410Y0019308D01*
X0023492Y0019172D01*
X0023570Y0019035D01*
X0023644Y0018895D01*
X0023715Y0018753D01*
X0023783Y0018610D01*
X0023847Y0018465D01*
X0023907Y0018319D01*
X0023963Y0018171D01*
X0024016Y0018022D01*
X0024065Y0017871D01*
X0024110Y0017719D01*
X0024151Y0017566D01*
X0024189Y0017413D01*
X0024222Y0017258D01*
X0024252Y0017102D01*
X0024278Y0016946D01*
X0024299Y0016789D01*
X0024317Y0016632D01*
X0024331Y0016474D01*
X0024341Y0016316D01*
X0024347Y0016158D01*
X0024349Y0016000D01*
X0024347Y0015842D01*
X0024341Y0015684D01*
X0024331Y0015526D01*
X0024317Y0015368D01*
X0024299Y0015211D01*
X0024278Y0015054D01*
X0024252Y0014898D01*
X0024222Y0014742D01*
X0024189Y0014587D01*
X0024151Y0014434D01*
X0024110Y0014281D01*
X0024065Y0014129D01*
X0024016Y0013978D01*
X0023963Y0013829D01*
X0023907Y0013681D01*
X0023847Y0013535D01*
X0023783Y0013390D01*
X0023715Y0013247D01*
X0023644Y0013105D01*
X0023570Y0012965D01*
X0023492Y0012828D01*
X0023410Y0012692D01*
X0023326Y0012558D01*
X0023237Y0012427D01*
X0023146Y0012298D01*
X0023051Y0012171D01*
X0022954Y0012046D01*
X0022853Y0011924D01*
X0022749Y0011805D01*
X0022642Y0011688D01*
X0022532Y0011574D01*
X0022419Y0011463D01*
X0022304Y0011354D01*
X0022186Y0011249D01*
X0022065Y0011147D01*
X0021942Y0011047D01*
X0021816Y0010951D01*
X0021688Y0010858D01*
X0021558Y0010768D01*
X0021425Y0010682D01*
X0021290Y0010598D01*
X0021154Y0010519D01*
X0021015Y0010442D01*
X0020874Y0010370D01*
X0020732Y0010300D01*
X0020588Y0010235D01*
X0020442Y0010173D01*
X0020295Y0010115D01*
X0020146Y0010060D01*
X0019996Y0010009D01*
X0019845Y0009962D01*
X0019693Y0009919D01*
X0019540Y0009880D01*
X0019385Y0009844D01*
X0019230Y0009813D01*
X0019074Y0009785D01*
X0018918Y0009761D01*
X0018761Y0009741D01*
X0018603Y0009725D01*
X0018446Y0009713D01*
X0018287Y0009705D01*
X0018129Y0009701D01*
X0017971Y0009701D01*
X0017813Y0009705D01*
X0017654Y0009713D01*
X0017497Y0009725D01*
X0017339Y0009741D01*
X0017182Y0009761D01*
X0017026Y0009785D01*
X0016870Y0009813D01*
X0016715Y0009844D01*
X0016560Y0009880D01*
X0016407Y0009919D01*
X0016255Y0009962D01*
X0016104Y0010009D01*
X0015954Y0010060D01*
X0015805Y0010115D01*
X0015658Y0010173D01*
X0015512Y0010235D01*
X0015368Y0010300D01*
X0015226Y0010370D01*
X0015085Y0010442D01*
X0014946Y0010519D01*
X0014810Y0010598D01*
X0014675Y0010682D01*
X0014542Y0010768D01*
X0014412Y0010858D01*
X0014284Y0010951D01*
X0014158Y0011047D01*
X0014035Y0011147D01*
X0013914Y0011249D01*
X0013796Y0011354D01*
X0013681Y0011463D01*
X0013568Y0011574D01*
X0013458Y0011688D01*
X0013351Y0011805D01*
X0013247Y0011924D01*
X0013146Y0012046D01*
X0013049Y0012171D01*
X0012954Y0012298D01*
X0012863Y0012427D01*
X0012774Y0012558D01*
X0012690Y0012692D01*
X0012608Y0012828D01*
X0012530Y0012965D01*
X0012456Y0013105D01*
X0012385Y0013247D01*
X0012317Y0013390D01*
X0012253Y0013535D01*
X0012193Y0013681D01*
X0012137Y0013829D01*
X0012084Y0013978D01*
X0012035Y0014129D01*
X0011990Y0014281D01*
X0011949Y0014434D01*
X0011911Y0014587D01*
X0011878Y0014742D01*
X0011848Y0014898D01*
X0011822Y0015054D01*
X0011801Y0015211D01*
X0011783Y0015368D01*
X0011769Y0015526D01*
X0011759Y0015684D01*
X0011753Y0015842D01*
X0011751Y0016000D01*
X0011751Y0173500D02*
X0011753Y0173658D01*
X0011759Y0173816D01*
X0011769Y0173974D01*
X0011783Y0174132D01*
X0011801Y0174289D01*
X0011822Y0174446D01*
X0011848Y0174602D01*
X0011878Y0174758D01*
X0011911Y0174913D01*
X0011949Y0175066D01*
X0011990Y0175219D01*
X0012035Y0175371D01*
X0012084Y0175522D01*
X0012137Y0175671D01*
X0012193Y0175819D01*
X0012253Y0175965D01*
X0012317Y0176110D01*
X0012385Y0176253D01*
X0012456Y0176395D01*
X0012530Y0176535D01*
X0012608Y0176672D01*
X0012690Y0176808D01*
X0012774Y0176942D01*
X0012863Y0177073D01*
X0012954Y0177202D01*
X0013049Y0177329D01*
X0013146Y0177454D01*
X0013247Y0177576D01*
X0013351Y0177695D01*
X0013458Y0177812D01*
X0013568Y0177926D01*
X0013681Y0178037D01*
X0013796Y0178146D01*
X0013914Y0178251D01*
X0014035Y0178353D01*
X0014158Y0178453D01*
X0014284Y0178549D01*
X0014412Y0178642D01*
X0014542Y0178732D01*
X0014675Y0178818D01*
X0014810Y0178902D01*
X0014946Y0178981D01*
X0015085Y0179058D01*
X0015226Y0179130D01*
X0015368Y0179200D01*
X0015512Y0179265D01*
X0015658Y0179327D01*
X0015805Y0179385D01*
X0015954Y0179440D01*
X0016104Y0179491D01*
X0016255Y0179538D01*
X0016407Y0179581D01*
X0016560Y0179620D01*
X0016715Y0179656D01*
X0016870Y0179687D01*
X0017026Y0179715D01*
X0017182Y0179739D01*
X0017339Y0179759D01*
X0017497Y0179775D01*
X0017654Y0179787D01*
X0017813Y0179795D01*
X0017971Y0179799D01*
X0018129Y0179799D01*
X0018287Y0179795D01*
X0018446Y0179787D01*
X0018603Y0179775D01*
X0018761Y0179759D01*
X0018918Y0179739D01*
X0019074Y0179715D01*
X0019230Y0179687D01*
X0019385Y0179656D01*
X0019540Y0179620D01*
X0019693Y0179581D01*
X0019845Y0179538D01*
X0019996Y0179491D01*
X0020146Y0179440D01*
X0020295Y0179385D01*
X0020442Y0179327D01*
X0020588Y0179265D01*
X0020732Y0179200D01*
X0020874Y0179130D01*
X0021015Y0179058D01*
X0021154Y0178981D01*
X0021290Y0178902D01*
X0021425Y0178818D01*
X0021558Y0178732D01*
X0021688Y0178642D01*
X0021816Y0178549D01*
X0021942Y0178453D01*
X0022065Y0178353D01*
X0022186Y0178251D01*
X0022304Y0178146D01*
X0022419Y0178037D01*
X0022532Y0177926D01*
X0022642Y0177812D01*
X0022749Y0177695D01*
X0022853Y0177576D01*
X0022954Y0177454D01*
X0023051Y0177329D01*
X0023146Y0177202D01*
X0023237Y0177073D01*
X0023326Y0176942D01*
X0023410Y0176808D01*
X0023492Y0176672D01*
X0023570Y0176535D01*
X0023644Y0176395D01*
X0023715Y0176253D01*
X0023783Y0176110D01*
X0023847Y0175965D01*
X0023907Y0175819D01*
X0023963Y0175671D01*
X0024016Y0175522D01*
X0024065Y0175371D01*
X0024110Y0175219D01*
X0024151Y0175066D01*
X0024189Y0174913D01*
X0024222Y0174758D01*
X0024252Y0174602D01*
X0024278Y0174446D01*
X0024299Y0174289D01*
X0024317Y0174132D01*
X0024331Y0173974D01*
X0024341Y0173816D01*
X0024347Y0173658D01*
X0024349Y0173500D01*
X0024347Y0173342D01*
X0024341Y0173184D01*
X0024331Y0173026D01*
X0024317Y0172868D01*
X0024299Y0172711D01*
X0024278Y0172554D01*
X0024252Y0172398D01*
X0024222Y0172242D01*
X0024189Y0172087D01*
X0024151Y0171934D01*
X0024110Y0171781D01*
X0024065Y0171629D01*
X0024016Y0171478D01*
X0023963Y0171329D01*
X0023907Y0171181D01*
X0023847Y0171035D01*
X0023783Y0170890D01*
X0023715Y0170747D01*
X0023644Y0170605D01*
X0023570Y0170465D01*
X0023492Y0170328D01*
X0023410Y0170192D01*
X0023326Y0170058D01*
X0023237Y0169927D01*
X0023146Y0169798D01*
X0023051Y0169671D01*
X0022954Y0169546D01*
X0022853Y0169424D01*
X0022749Y0169305D01*
X0022642Y0169188D01*
X0022532Y0169074D01*
X0022419Y0168963D01*
X0022304Y0168854D01*
X0022186Y0168749D01*
X0022065Y0168647D01*
X0021942Y0168547D01*
X0021816Y0168451D01*
X0021688Y0168358D01*
X0021558Y0168268D01*
X0021425Y0168182D01*
X0021290Y0168098D01*
X0021154Y0168019D01*
X0021015Y0167942D01*
X0020874Y0167870D01*
X0020732Y0167800D01*
X0020588Y0167735D01*
X0020442Y0167673D01*
X0020295Y0167615D01*
X0020146Y0167560D01*
X0019996Y0167509D01*
X0019845Y0167462D01*
X0019693Y0167419D01*
X0019540Y0167380D01*
X0019385Y0167344D01*
X0019230Y0167313D01*
X0019074Y0167285D01*
X0018918Y0167261D01*
X0018761Y0167241D01*
X0018603Y0167225D01*
X0018446Y0167213D01*
X0018287Y0167205D01*
X0018129Y0167201D01*
X0017971Y0167201D01*
X0017813Y0167205D01*
X0017654Y0167213D01*
X0017497Y0167225D01*
X0017339Y0167241D01*
X0017182Y0167261D01*
X0017026Y0167285D01*
X0016870Y0167313D01*
X0016715Y0167344D01*
X0016560Y0167380D01*
X0016407Y0167419D01*
X0016255Y0167462D01*
X0016104Y0167509D01*
X0015954Y0167560D01*
X0015805Y0167615D01*
X0015658Y0167673D01*
X0015512Y0167735D01*
X0015368Y0167800D01*
X0015226Y0167870D01*
X0015085Y0167942D01*
X0014946Y0168019D01*
X0014810Y0168098D01*
X0014675Y0168182D01*
X0014542Y0168268D01*
X0014412Y0168358D01*
X0014284Y0168451D01*
X0014158Y0168547D01*
X0014035Y0168647D01*
X0013914Y0168749D01*
X0013796Y0168854D01*
X0013681Y0168963D01*
X0013568Y0169074D01*
X0013458Y0169188D01*
X0013351Y0169305D01*
X0013247Y0169424D01*
X0013146Y0169546D01*
X0013049Y0169671D01*
X0012954Y0169798D01*
X0012863Y0169927D01*
X0012774Y0170058D01*
X0012690Y0170192D01*
X0012608Y0170328D01*
X0012530Y0170465D01*
X0012456Y0170605D01*
X0012385Y0170747D01*
X0012317Y0170890D01*
X0012253Y0171035D01*
X0012193Y0171181D01*
X0012137Y0171329D01*
X0012084Y0171478D01*
X0012035Y0171629D01*
X0011990Y0171781D01*
X0011949Y0171934D01*
X0011911Y0172087D01*
X0011878Y0172242D01*
X0011848Y0172398D01*
X0011822Y0172554D01*
X0011801Y0172711D01*
X0011783Y0172868D01*
X0011769Y0173026D01*
X0011759Y0173184D01*
X0011753Y0173342D01*
X0011751Y0173500D01*
X0304251Y0178500D02*
X0304253Y0178658D01*
X0304259Y0178816D01*
X0304269Y0178974D01*
X0304283Y0179132D01*
X0304301Y0179289D01*
X0304322Y0179446D01*
X0304348Y0179602D01*
X0304378Y0179758D01*
X0304411Y0179913D01*
X0304449Y0180066D01*
X0304490Y0180219D01*
X0304535Y0180371D01*
X0304584Y0180522D01*
X0304637Y0180671D01*
X0304693Y0180819D01*
X0304753Y0180965D01*
X0304817Y0181110D01*
X0304885Y0181253D01*
X0304956Y0181395D01*
X0305030Y0181535D01*
X0305108Y0181672D01*
X0305190Y0181808D01*
X0305274Y0181942D01*
X0305363Y0182073D01*
X0305454Y0182202D01*
X0305549Y0182329D01*
X0305646Y0182454D01*
X0305747Y0182576D01*
X0305851Y0182695D01*
X0305958Y0182812D01*
X0306068Y0182926D01*
X0306181Y0183037D01*
X0306296Y0183146D01*
X0306414Y0183251D01*
X0306535Y0183353D01*
X0306658Y0183453D01*
X0306784Y0183549D01*
X0306912Y0183642D01*
X0307042Y0183732D01*
X0307175Y0183818D01*
X0307310Y0183902D01*
X0307446Y0183981D01*
X0307585Y0184058D01*
X0307726Y0184130D01*
X0307868Y0184200D01*
X0308012Y0184265D01*
X0308158Y0184327D01*
X0308305Y0184385D01*
X0308454Y0184440D01*
X0308604Y0184491D01*
X0308755Y0184538D01*
X0308907Y0184581D01*
X0309060Y0184620D01*
X0309215Y0184656D01*
X0309370Y0184687D01*
X0309526Y0184715D01*
X0309682Y0184739D01*
X0309839Y0184759D01*
X0309997Y0184775D01*
X0310154Y0184787D01*
X0310313Y0184795D01*
X0310471Y0184799D01*
X0310629Y0184799D01*
X0310787Y0184795D01*
X0310946Y0184787D01*
X0311103Y0184775D01*
X0311261Y0184759D01*
X0311418Y0184739D01*
X0311574Y0184715D01*
X0311730Y0184687D01*
X0311885Y0184656D01*
X0312040Y0184620D01*
X0312193Y0184581D01*
X0312345Y0184538D01*
X0312496Y0184491D01*
X0312646Y0184440D01*
X0312795Y0184385D01*
X0312942Y0184327D01*
X0313088Y0184265D01*
X0313232Y0184200D01*
X0313374Y0184130D01*
X0313515Y0184058D01*
X0313654Y0183981D01*
X0313790Y0183902D01*
X0313925Y0183818D01*
X0314058Y0183732D01*
X0314188Y0183642D01*
X0314316Y0183549D01*
X0314442Y0183453D01*
X0314565Y0183353D01*
X0314686Y0183251D01*
X0314804Y0183146D01*
X0314919Y0183037D01*
X0315032Y0182926D01*
X0315142Y0182812D01*
X0315249Y0182695D01*
X0315353Y0182576D01*
X0315454Y0182454D01*
X0315551Y0182329D01*
X0315646Y0182202D01*
X0315737Y0182073D01*
X0315826Y0181942D01*
X0315910Y0181808D01*
X0315992Y0181672D01*
X0316070Y0181535D01*
X0316144Y0181395D01*
X0316215Y0181253D01*
X0316283Y0181110D01*
X0316347Y0180965D01*
X0316407Y0180819D01*
X0316463Y0180671D01*
X0316516Y0180522D01*
X0316565Y0180371D01*
X0316610Y0180219D01*
X0316651Y0180066D01*
X0316689Y0179913D01*
X0316722Y0179758D01*
X0316752Y0179602D01*
X0316778Y0179446D01*
X0316799Y0179289D01*
X0316817Y0179132D01*
X0316831Y0178974D01*
X0316841Y0178816D01*
X0316847Y0178658D01*
X0316849Y0178500D01*
X0316847Y0178342D01*
X0316841Y0178184D01*
X0316831Y0178026D01*
X0316817Y0177868D01*
X0316799Y0177711D01*
X0316778Y0177554D01*
X0316752Y0177398D01*
X0316722Y0177242D01*
X0316689Y0177087D01*
X0316651Y0176934D01*
X0316610Y0176781D01*
X0316565Y0176629D01*
X0316516Y0176478D01*
X0316463Y0176329D01*
X0316407Y0176181D01*
X0316347Y0176035D01*
X0316283Y0175890D01*
X0316215Y0175747D01*
X0316144Y0175605D01*
X0316070Y0175465D01*
X0315992Y0175328D01*
X0315910Y0175192D01*
X0315826Y0175058D01*
X0315737Y0174927D01*
X0315646Y0174798D01*
X0315551Y0174671D01*
X0315454Y0174546D01*
X0315353Y0174424D01*
X0315249Y0174305D01*
X0315142Y0174188D01*
X0315032Y0174074D01*
X0314919Y0173963D01*
X0314804Y0173854D01*
X0314686Y0173749D01*
X0314565Y0173647D01*
X0314442Y0173547D01*
X0314316Y0173451D01*
X0314188Y0173358D01*
X0314058Y0173268D01*
X0313925Y0173182D01*
X0313790Y0173098D01*
X0313654Y0173019D01*
X0313515Y0172942D01*
X0313374Y0172870D01*
X0313232Y0172800D01*
X0313088Y0172735D01*
X0312942Y0172673D01*
X0312795Y0172615D01*
X0312646Y0172560D01*
X0312496Y0172509D01*
X0312345Y0172462D01*
X0312193Y0172419D01*
X0312040Y0172380D01*
X0311885Y0172344D01*
X0311730Y0172313D01*
X0311574Y0172285D01*
X0311418Y0172261D01*
X0311261Y0172241D01*
X0311103Y0172225D01*
X0310946Y0172213D01*
X0310787Y0172205D01*
X0310629Y0172201D01*
X0310471Y0172201D01*
X0310313Y0172205D01*
X0310154Y0172213D01*
X0309997Y0172225D01*
X0309839Y0172241D01*
X0309682Y0172261D01*
X0309526Y0172285D01*
X0309370Y0172313D01*
X0309215Y0172344D01*
X0309060Y0172380D01*
X0308907Y0172419D01*
X0308755Y0172462D01*
X0308604Y0172509D01*
X0308454Y0172560D01*
X0308305Y0172615D01*
X0308158Y0172673D01*
X0308012Y0172735D01*
X0307868Y0172800D01*
X0307726Y0172870D01*
X0307585Y0172942D01*
X0307446Y0173019D01*
X0307310Y0173098D01*
X0307175Y0173182D01*
X0307042Y0173268D01*
X0306912Y0173358D01*
X0306784Y0173451D01*
X0306658Y0173547D01*
X0306535Y0173647D01*
X0306414Y0173749D01*
X0306296Y0173854D01*
X0306181Y0173963D01*
X0306068Y0174074D01*
X0305958Y0174188D01*
X0305851Y0174305D01*
X0305747Y0174424D01*
X0305646Y0174546D01*
X0305549Y0174671D01*
X0305454Y0174798D01*
X0305363Y0174927D01*
X0305274Y0175058D01*
X0305190Y0175192D01*
X0305108Y0175328D01*
X0305030Y0175465D01*
X0304956Y0175605D01*
X0304885Y0175747D01*
X0304817Y0175890D01*
X0304753Y0176035D01*
X0304693Y0176181D01*
X0304637Y0176329D01*
X0304584Y0176478D01*
X0304535Y0176629D01*
X0304490Y0176781D01*
X0304449Y0176934D01*
X0304411Y0177087D01*
X0304378Y0177242D01*
X0304348Y0177398D01*
X0304322Y0177554D01*
X0304301Y0177711D01*
X0304283Y0177868D01*
X0304269Y0178026D01*
X0304259Y0178184D01*
X0304253Y0178342D01*
X0304251Y0178500D01*
X0304251Y0013500D02*
X0304253Y0013658D01*
X0304259Y0013816D01*
X0304269Y0013974D01*
X0304283Y0014132D01*
X0304301Y0014289D01*
X0304322Y0014446D01*
X0304348Y0014602D01*
X0304378Y0014758D01*
X0304411Y0014913D01*
X0304449Y0015066D01*
X0304490Y0015219D01*
X0304535Y0015371D01*
X0304584Y0015522D01*
X0304637Y0015671D01*
X0304693Y0015819D01*
X0304753Y0015965D01*
X0304817Y0016110D01*
X0304885Y0016253D01*
X0304956Y0016395D01*
X0305030Y0016535D01*
X0305108Y0016672D01*
X0305190Y0016808D01*
X0305274Y0016942D01*
X0305363Y0017073D01*
X0305454Y0017202D01*
X0305549Y0017329D01*
X0305646Y0017454D01*
X0305747Y0017576D01*
X0305851Y0017695D01*
X0305958Y0017812D01*
X0306068Y0017926D01*
X0306181Y0018037D01*
X0306296Y0018146D01*
X0306414Y0018251D01*
X0306535Y0018353D01*
X0306658Y0018453D01*
X0306784Y0018549D01*
X0306912Y0018642D01*
X0307042Y0018732D01*
X0307175Y0018818D01*
X0307310Y0018902D01*
X0307446Y0018981D01*
X0307585Y0019058D01*
X0307726Y0019130D01*
X0307868Y0019200D01*
X0308012Y0019265D01*
X0308158Y0019327D01*
X0308305Y0019385D01*
X0308454Y0019440D01*
X0308604Y0019491D01*
X0308755Y0019538D01*
X0308907Y0019581D01*
X0309060Y0019620D01*
X0309215Y0019656D01*
X0309370Y0019687D01*
X0309526Y0019715D01*
X0309682Y0019739D01*
X0309839Y0019759D01*
X0309997Y0019775D01*
X0310154Y0019787D01*
X0310313Y0019795D01*
X0310471Y0019799D01*
X0310629Y0019799D01*
X0310787Y0019795D01*
X0310946Y0019787D01*
X0311103Y0019775D01*
X0311261Y0019759D01*
X0311418Y0019739D01*
X0311574Y0019715D01*
X0311730Y0019687D01*
X0311885Y0019656D01*
X0312040Y0019620D01*
X0312193Y0019581D01*
X0312345Y0019538D01*
X0312496Y0019491D01*
X0312646Y0019440D01*
X0312795Y0019385D01*
X0312942Y0019327D01*
X0313088Y0019265D01*
X0313232Y0019200D01*
X0313374Y0019130D01*
X0313515Y0019058D01*
X0313654Y0018981D01*
X0313790Y0018902D01*
X0313925Y0018818D01*
X0314058Y0018732D01*
X0314188Y0018642D01*
X0314316Y0018549D01*
X0314442Y0018453D01*
X0314565Y0018353D01*
X0314686Y0018251D01*
X0314804Y0018146D01*
X0314919Y0018037D01*
X0315032Y0017926D01*
X0315142Y0017812D01*
X0315249Y0017695D01*
X0315353Y0017576D01*
X0315454Y0017454D01*
X0315551Y0017329D01*
X0315646Y0017202D01*
X0315737Y0017073D01*
X0315826Y0016942D01*
X0315910Y0016808D01*
X0315992Y0016672D01*
X0316070Y0016535D01*
X0316144Y0016395D01*
X0316215Y0016253D01*
X0316283Y0016110D01*
X0316347Y0015965D01*
X0316407Y0015819D01*
X0316463Y0015671D01*
X0316516Y0015522D01*
X0316565Y0015371D01*
X0316610Y0015219D01*
X0316651Y0015066D01*
X0316689Y0014913D01*
X0316722Y0014758D01*
X0316752Y0014602D01*
X0316778Y0014446D01*
X0316799Y0014289D01*
X0316817Y0014132D01*
X0316831Y0013974D01*
X0316841Y0013816D01*
X0316847Y0013658D01*
X0316849Y0013500D01*
X0316847Y0013342D01*
X0316841Y0013184D01*
X0316831Y0013026D01*
X0316817Y0012868D01*
X0316799Y0012711D01*
X0316778Y0012554D01*
X0316752Y0012398D01*
X0316722Y0012242D01*
X0316689Y0012087D01*
X0316651Y0011934D01*
X0316610Y0011781D01*
X0316565Y0011629D01*
X0316516Y0011478D01*
X0316463Y0011329D01*
X0316407Y0011181D01*
X0316347Y0011035D01*
X0316283Y0010890D01*
X0316215Y0010747D01*
X0316144Y0010605D01*
X0316070Y0010465D01*
X0315992Y0010328D01*
X0315910Y0010192D01*
X0315826Y0010058D01*
X0315737Y0009927D01*
X0315646Y0009798D01*
X0315551Y0009671D01*
X0315454Y0009546D01*
X0315353Y0009424D01*
X0315249Y0009305D01*
X0315142Y0009188D01*
X0315032Y0009074D01*
X0314919Y0008963D01*
X0314804Y0008854D01*
X0314686Y0008749D01*
X0314565Y0008647D01*
X0314442Y0008547D01*
X0314316Y0008451D01*
X0314188Y0008358D01*
X0314058Y0008268D01*
X0313925Y0008182D01*
X0313790Y0008098D01*
X0313654Y0008019D01*
X0313515Y0007942D01*
X0313374Y0007870D01*
X0313232Y0007800D01*
X0313088Y0007735D01*
X0312942Y0007673D01*
X0312795Y0007615D01*
X0312646Y0007560D01*
X0312496Y0007509D01*
X0312345Y0007462D01*
X0312193Y0007419D01*
X0312040Y0007380D01*
X0311885Y0007344D01*
X0311730Y0007313D01*
X0311574Y0007285D01*
X0311418Y0007261D01*
X0311261Y0007241D01*
X0311103Y0007225D01*
X0310946Y0007213D01*
X0310787Y0007205D01*
X0310629Y0007201D01*
X0310471Y0007201D01*
X0310313Y0007205D01*
X0310154Y0007213D01*
X0309997Y0007225D01*
X0309839Y0007241D01*
X0309682Y0007261D01*
X0309526Y0007285D01*
X0309370Y0007313D01*
X0309215Y0007344D01*
X0309060Y0007380D01*
X0308907Y0007419D01*
X0308755Y0007462D01*
X0308604Y0007509D01*
X0308454Y0007560D01*
X0308305Y0007615D01*
X0308158Y0007673D01*
X0308012Y0007735D01*
X0307868Y0007800D01*
X0307726Y0007870D01*
X0307585Y0007942D01*
X0307446Y0008019D01*
X0307310Y0008098D01*
X0307175Y0008182D01*
X0307042Y0008268D01*
X0306912Y0008358D01*
X0306784Y0008451D01*
X0306658Y0008547D01*
X0306535Y0008647D01*
X0306414Y0008749D01*
X0306296Y0008854D01*
X0306181Y0008963D01*
X0306068Y0009074D01*
X0305958Y0009188D01*
X0305851Y0009305D01*
X0305747Y0009424D01*
X0305646Y0009546D01*
X0305549Y0009671D01*
X0305454Y0009798D01*
X0305363Y0009927D01*
X0305274Y0010058D01*
X0305190Y0010192D01*
X0305108Y0010328D01*
X0305030Y0010465D01*
X0304956Y0010605D01*
X0304885Y0010747D01*
X0304817Y0010890D01*
X0304753Y0011035D01*
X0304693Y0011181D01*
X0304637Y0011329D01*
X0304584Y0011478D01*
X0304535Y0011629D01*
X0304490Y0011781D01*
X0304449Y0011934D01*
X0304411Y0012087D01*
X0304378Y0012242D01*
X0304348Y0012398D01*
X0304322Y0012554D01*
X0304301Y0012711D01*
X0304283Y0012868D01*
X0304269Y0013026D01*
X0304259Y0013184D01*
X0304253Y0013342D01*
X0304251Y0013500D01*
D11*
X0310550Y0013500D03*
X0310550Y0178500D03*
X0018050Y0173500D03*
X0018050Y0016000D03*
D12*
X0103050Y0080900D02*
X0103050Y0086100D01*
X0113050Y0086100D02*
X0113050Y0080900D01*
X0123050Y0080900D02*
X0123050Y0086100D01*
X0133050Y0086100D02*
X0133050Y0080900D01*
X0143050Y0080900D02*
X0143050Y0086100D01*
X0153050Y0086100D02*
X0153050Y0080900D01*
X0163050Y0080900D02*
X0163050Y0086100D01*
X0203050Y0086100D02*
X0203050Y0080900D01*
X0213050Y0080900D02*
X0213050Y0086100D01*
X0223050Y0086100D02*
X0223050Y0080900D01*
X0233050Y0080900D02*
X0233050Y0086100D01*
X0243050Y0086100D02*
X0243050Y0080900D01*
X0253050Y0080900D02*
X0253050Y0086100D01*
X0263050Y0086100D02*
X0263050Y0080900D01*
X0263050Y0110900D02*
X0263050Y0116100D01*
X0253050Y0116100D02*
X0253050Y0110900D01*
X0243050Y0110900D02*
X0243050Y0116100D01*
X0233050Y0116100D02*
X0233050Y0110900D01*
X0223050Y0110900D02*
X0223050Y0116100D01*
X0213050Y0116100D02*
X0213050Y0110900D01*
X0203050Y0110900D02*
X0203050Y0116100D01*
X0163050Y0116100D02*
X0163050Y0110900D01*
X0153050Y0110900D02*
X0153050Y0116100D01*
X0143050Y0116100D02*
X0143050Y0110900D01*
X0133050Y0110900D02*
X0133050Y0116100D01*
X0123050Y0116100D02*
X0123050Y0110900D01*
X0113050Y0110900D02*
X0113050Y0116100D01*
X0103050Y0116100D02*
X0103050Y0110900D01*
D13*
X0068050Y0113500D03*
X0068050Y0103500D03*
X0068050Y0093500D03*
X0068050Y0083500D03*
X0068050Y0073500D03*
X0068050Y0063500D03*
X0068050Y0053500D03*
X0068050Y0123500D03*
X0068050Y0133500D03*
X0068050Y0143500D03*
X0298050Y0143500D03*
X0298050Y0133500D03*
X0298050Y0123500D03*
X0298050Y0113500D03*
X0298050Y0103500D03*
X0298050Y0093500D03*
X0298050Y0083500D03*
X0298050Y0073500D03*
X0298050Y0063500D03*
X0298050Y0053500D03*
D14*
X0268050Y0068500D03*
X0258050Y0068500D03*
X0243050Y0068500D03*
X0223050Y0068500D03*
X0208050Y0068500D03*
X0198050Y0068500D03*
X0168050Y0068500D03*
X0158050Y0068500D03*
X0143050Y0068500D03*
X0123050Y0068500D03*
X0108050Y0068500D03*
X0098050Y0068500D03*
X0098050Y0028500D03*
X0108050Y0028500D03*
X0123050Y0028500D03*
X0143050Y0028500D03*
X0158050Y0028500D03*
X0168050Y0028500D03*
X0198050Y0028500D03*
X0208050Y0028500D03*
X0223050Y0028500D03*
X0243050Y0028500D03*
X0258050Y0028500D03*
X0268050Y0028500D03*
X0268050Y0128500D03*
X0258050Y0128500D03*
X0243050Y0128500D03*
X0223050Y0128500D03*
X0208050Y0128500D03*
X0198050Y0128500D03*
X0168050Y0128500D03*
X0158050Y0128500D03*
X0143050Y0128500D03*
X0123050Y0128500D03*
X0108050Y0128500D03*
X0098050Y0128500D03*
X0098050Y0168500D03*
X0108050Y0168500D03*
X0123050Y0168500D03*
X0143050Y0168500D03*
X0158050Y0168500D03*
X0168050Y0168500D03*
X0198050Y0168500D03*
X0208050Y0168500D03*
X0223050Y0168500D03*
X0243050Y0168500D03*
X0258050Y0168500D03*
X0268050Y0168500D03*
D15*
X0236181Y0151057D02*
X0236515Y0150415D01*
X0236717Y0149721D01*
X0236780Y0149000D01*
X0236719Y0148275D01*
X0236517Y0147577D01*
X0236183Y0146931D01*
X0235729Y0146362D01*
X0235173Y0145893D01*
X0234536Y0145542D01*
X0233843Y0145322D01*
X0233120Y0145241D01*
X0232460Y0145290D01*
X0231819Y0145454D01*
X0231216Y0145726D01*
X0230670Y0146099D01*
X0230197Y0146561D01*
X0229811Y0147099D01*
X0229524Y0147695D01*
X0229345Y0148332D01*
X0229280Y0148990D01*
X0229347Y0149648D01*
X0229528Y0150285D01*
X0229816Y0150880D01*
X0230203Y0151417D01*
X0230678Y0151878D01*
X0231225Y0152249D01*
X0231829Y0152520D01*
X0232470Y0152682D01*
X0233130Y0152730D01*
X0233850Y0152652D01*
X0234540Y0152434D01*
X0235174Y0152086D01*
X0235728Y0151621D01*
X0236181Y0151057D01*
X0236184Y0151052D02*
X0229940Y0151052D01*
X0229658Y0150553D02*
X0236443Y0150553D01*
X0236620Y0150055D02*
X0229462Y0150055D01*
X0229338Y0149556D02*
X0236732Y0149556D01*
X0236775Y0149058D02*
X0229287Y0149058D01*
X0229323Y0148559D02*
X0236743Y0148559D01*
X0236657Y0148061D02*
X0229421Y0148061D01*
X0229588Y0147562D02*
X0236510Y0147562D01*
X0236252Y0147064D02*
X0229836Y0147064D01*
X0230194Y0146565D02*
X0235891Y0146565D01*
X0235378Y0146067D02*
X0230718Y0146067D01*
X0231566Y0145568D02*
X0234584Y0145568D01*
X0233850Y0141632D02*
X0234540Y0141414D01*
X0235174Y0141066D01*
X0235728Y0140601D01*
X0236181Y0140037D01*
X0236515Y0139395D01*
X0236717Y0138701D01*
X0236780Y0137980D01*
X0236719Y0137255D01*
X0236517Y0136556D01*
X0236183Y0135910D01*
X0235729Y0135342D01*
X0235173Y0134873D01*
X0234536Y0134522D01*
X0233843Y0134301D01*
X0233120Y0134220D01*
X0232460Y0134270D01*
X0231819Y0134434D01*
X0231216Y0134706D01*
X0230670Y0135079D01*
X0230197Y0135541D01*
X0229811Y0136079D01*
X0229524Y0136675D01*
X0229345Y0137312D01*
X0229280Y0137970D01*
X0229347Y0138628D01*
X0229528Y0139265D01*
X0229816Y0139860D01*
X0230203Y0140397D01*
X0230678Y0140858D01*
X0231225Y0141229D01*
X0231829Y0141500D01*
X0232470Y0141662D01*
X0233130Y0141710D01*
X0233850Y0141632D01*
X0234013Y0141580D02*
X0232146Y0141580D01*
X0231008Y0141082D02*
X0235146Y0141082D01*
X0235743Y0140583D02*
X0230395Y0140583D01*
X0229978Y0140085D02*
X0236143Y0140085D01*
X0236416Y0139586D02*
X0229683Y0139586D01*
X0229477Y0139088D02*
X0236605Y0139088D01*
X0236727Y0138589D02*
X0229343Y0138589D01*
X0229292Y0138091D02*
X0236771Y0138091D01*
X0236747Y0137592D02*
X0229318Y0137592D01*
X0229407Y0137094D02*
X0236672Y0137094D01*
X0236528Y0136595D02*
X0229563Y0136595D01*
X0229802Y0136097D02*
X0236279Y0136097D01*
X0235933Y0135598D02*
X0230156Y0135598D01*
X0230649Y0135100D02*
X0235441Y0135100D01*
X0234680Y0134601D02*
X0231449Y0134601D01*
X0230341Y0151550D02*
X0235785Y0151550D01*
X0235218Y0152049D02*
X0230930Y0152049D01*
X0231936Y0152547D02*
X0234180Y0152547D01*
X0136780Y0149000D02*
X0136717Y0149721D01*
X0136515Y0150415D01*
X0136181Y0151057D01*
X0135728Y0151621D01*
X0135174Y0152086D01*
X0134540Y0152434D01*
X0133850Y0152652D01*
X0133130Y0152730D01*
X0132470Y0152682D01*
X0131829Y0152520D01*
X0131225Y0152249D01*
X0130678Y0151878D01*
X0130203Y0151417D01*
X0129816Y0150880D01*
X0129528Y0150285D01*
X0129347Y0149648D01*
X0129280Y0148990D01*
X0129345Y0148332D01*
X0129524Y0147695D01*
X0129811Y0147099D01*
X0130197Y0146561D01*
X0130670Y0146099D01*
X0131216Y0145726D01*
X0131819Y0145454D01*
X0132460Y0145290D01*
X0133120Y0145241D01*
X0133843Y0145322D01*
X0134536Y0145542D01*
X0135173Y0145893D01*
X0135729Y0146362D01*
X0136183Y0146931D01*
X0136517Y0147577D01*
X0136719Y0148275D01*
X0136780Y0149000D01*
X0136775Y0149058D02*
X0129287Y0149058D01*
X0129323Y0148559D02*
X0136743Y0148559D01*
X0136657Y0148061D02*
X0129421Y0148061D01*
X0129588Y0147562D02*
X0136510Y0147562D01*
X0136252Y0147064D02*
X0129836Y0147064D01*
X0130194Y0146565D02*
X0135891Y0146565D01*
X0135378Y0146067D02*
X0130718Y0146067D01*
X0131566Y0145568D02*
X0134584Y0145568D01*
X0133850Y0141632D02*
X0133130Y0141710D01*
X0132470Y0141662D01*
X0131829Y0141500D01*
X0131225Y0141229D01*
X0130678Y0140858D01*
X0130203Y0140397D01*
X0129816Y0139860D01*
X0129528Y0139265D01*
X0129347Y0138628D01*
X0129280Y0137970D01*
X0129345Y0137312D01*
X0129524Y0136675D01*
X0129811Y0136079D01*
X0130197Y0135541D01*
X0130670Y0135079D01*
X0131216Y0134706D01*
X0131819Y0134434D01*
X0132460Y0134270D01*
X0133120Y0134220D01*
X0133843Y0134301D01*
X0134536Y0134522D01*
X0135173Y0134873D01*
X0135729Y0135342D01*
X0136183Y0135910D01*
X0136517Y0136556D01*
X0136719Y0137255D01*
X0136780Y0137980D01*
X0136717Y0138701D01*
X0136515Y0139395D01*
X0136181Y0140037D01*
X0135728Y0140601D01*
X0135174Y0141066D01*
X0134540Y0141414D01*
X0133850Y0141632D01*
X0134013Y0141580D02*
X0132146Y0141580D01*
X0131008Y0141082D02*
X0135146Y0141082D01*
X0135743Y0140583D02*
X0130395Y0140583D01*
X0129978Y0140085D02*
X0136143Y0140085D01*
X0136416Y0139586D02*
X0129683Y0139586D01*
X0129477Y0139088D02*
X0136605Y0139088D01*
X0136727Y0138589D02*
X0129343Y0138589D01*
X0129292Y0138091D02*
X0136771Y0138091D01*
X0136747Y0137592D02*
X0129318Y0137592D01*
X0129407Y0137094D02*
X0136672Y0137094D01*
X0136528Y0136595D02*
X0129563Y0136595D01*
X0129802Y0136097D02*
X0136279Y0136097D01*
X0135933Y0135598D02*
X0130156Y0135598D01*
X0130649Y0135100D02*
X0135441Y0135100D01*
X0134680Y0134601D02*
X0131449Y0134601D01*
X0129338Y0149556D02*
X0136732Y0149556D01*
X0136620Y0150055D02*
X0129462Y0150055D01*
X0129658Y0150553D02*
X0136443Y0150553D01*
X0136184Y0151052D02*
X0129940Y0151052D01*
X0130341Y0151550D02*
X0135785Y0151550D01*
X0135218Y0152049D02*
X0130930Y0152049D01*
X0131936Y0152547D02*
X0134180Y0152547D01*
X0132980Y0062780D02*
X0133640Y0062730D01*
X0134281Y0062566D01*
X0134884Y0062294D01*
X0135430Y0061921D01*
X0135903Y0061459D01*
X0136289Y0060921D01*
X0136576Y0060325D01*
X0136755Y0059688D01*
X0136820Y0059030D01*
X0136753Y0058372D01*
X0136572Y0057735D01*
X0136284Y0057140D01*
X0135897Y0056603D01*
X0135422Y0056142D01*
X0134875Y0055771D01*
X0134271Y0055500D01*
X0133630Y0055338D01*
X0132970Y0055290D01*
X0132250Y0055368D01*
X0131560Y0055586D01*
X0130926Y0055934D01*
X0130372Y0056399D01*
X0129919Y0056963D01*
X0129585Y0057605D01*
X0129383Y0058299D01*
X0129320Y0059020D01*
X0129381Y0059745D01*
X0129583Y0060444D01*
X0129917Y0061090D01*
X0130371Y0061658D01*
X0130927Y0062127D01*
X0131564Y0062478D01*
X0132257Y0062699D01*
X0132980Y0062780D01*
X0131272Y0062317D02*
X0134833Y0062317D01*
X0135535Y0061818D02*
X0130562Y0061818D01*
X0130101Y0061320D02*
X0136003Y0061320D01*
X0136337Y0060821D02*
X0129779Y0060821D01*
X0129548Y0060323D02*
X0136576Y0060323D01*
X0136716Y0059824D02*
X0129404Y0059824D01*
X0129346Y0059326D02*
X0136791Y0059326D01*
X0136799Y0058827D02*
X0129337Y0058827D01*
X0129380Y0058329D02*
X0136741Y0058329D01*
X0136599Y0057830D02*
X0129519Y0057830D01*
X0129727Y0057332D02*
X0136377Y0057332D01*
X0136063Y0056833D02*
X0130023Y0056833D01*
X0130448Y0056335D02*
X0135620Y0056335D01*
X0134971Y0055836D02*
X0131104Y0055836D01*
X0132531Y0055338D02*
X0133628Y0055338D01*
X0133640Y0051710D02*
X0132980Y0051759D01*
X0132257Y0051678D01*
X0131564Y0051458D01*
X0130927Y0051107D01*
X0130371Y0050638D01*
X0129917Y0050069D01*
X0129583Y0049423D01*
X0129381Y0048725D01*
X0129320Y0048000D01*
X0129383Y0047279D01*
X0129585Y0046585D01*
X0129919Y0045943D01*
X0130372Y0045379D01*
X0130926Y0044914D01*
X0131560Y0044566D01*
X0132250Y0044348D01*
X0132970Y0044270D01*
X0133630Y0044318D01*
X0134271Y0044480D01*
X0134875Y0044751D01*
X0135422Y0045122D01*
X0135897Y0045583D01*
X0136284Y0046120D01*
X0136572Y0046715D01*
X0136753Y0047352D01*
X0136820Y0048010D01*
X0136755Y0048668D01*
X0136576Y0049305D01*
X0136289Y0049901D01*
X0135903Y0050439D01*
X0135430Y0050901D01*
X0134884Y0051274D01*
X0134281Y0051546D01*
X0133640Y0051710D01*
X0134716Y0051350D02*
X0131368Y0051350D01*
X0130624Y0050851D02*
X0135481Y0050851D01*
X0135965Y0050353D02*
X0130143Y0050353D01*
X0129806Y0049854D02*
X0136312Y0049854D01*
X0136552Y0049356D02*
X0129563Y0049356D01*
X0129420Y0048857D02*
X0136702Y0048857D01*
X0136785Y0048359D02*
X0129350Y0048359D01*
X0129332Y0047860D02*
X0136805Y0047860D01*
X0136754Y0047362D02*
X0129375Y0047362D01*
X0129504Y0046863D02*
X0136614Y0046863D01*
X0136403Y0046365D02*
X0129700Y0046365D01*
X0129981Y0045866D02*
X0136101Y0045866D01*
X0135675Y0045368D02*
X0130385Y0045368D01*
X0131008Y0044869D02*
X0135049Y0044869D01*
X0133838Y0044370D02*
X0132180Y0044370D01*
X0229320Y0048000D02*
X0229383Y0047279D01*
X0229585Y0046585D01*
X0229919Y0045943D01*
X0230372Y0045379D01*
X0230926Y0044914D01*
X0231560Y0044566D01*
X0232250Y0044348D01*
X0232970Y0044270D01*
X0233630Y0044318D01*
X0234271Y0044480D01*
X0234875Y0044751D01*
X0235422Y0045122D01*
X0235897Y0045583D01*
X0236284Y0046120D01*
X0236572Y0046715D01*
X0236753Y0047352D01*
X0236820Y0048010D01*
X0236755Y0048668D01*
X0236576Y0049305D01*
X0236289Y0049901D01*
X0235903Y0050439D01*
X0235430Y0050901D01*
X0234884Y0051274D01*
X0234281Y0051546D01*
X0233640Y0051710D01*
X0232980Y0051759D01*
X0232257Y0051678D01*
X0231564Y0051458D01*
X0230927Y0051107D01*
X0230371Y0050638D01*
X0229917Y0050069D01*
X0229583Y0049423D01*
X0229381Y0048725D01*
X0229320Y0048000D01*
X0229332Y0047860D02*
X0236805Y0047860D01*
X0236785Y0048359D02*
X0229350Y0048359D01*
X0229420Y0048857D02*
X0236702Y0048857D01*
X0236552Y0049356D02*
X0229563Y0049356D01*
X0229806Y0049854D02*
X0236312Y0049854D01*
X0235965Y0050353D02*
X0230143Y0050353D01*
X0230624Y0050851D02*
X0235481Y0050851D01*
X0234716Y0051350D02*
X0231368Y0051350D01*
X0232250Y0055368D02*
X0231560Y0055586D01*
X0230926Y0055934D01*
X0230372Y0056399D01*
X0229919Y0056963D01*
X0229585Y0057605D01*
X0229383Y0058299D01*
X0229320Y0059020D01*
X0229381Y0059745D01*
X0229583Y0060444D01*
X0229917Y0061090D01*
X0230371Y0061658D01*
X0230927Y0062127D01*
X0231564Y0062478D01*
X0232257Y0062699D01*
X0232980Y0062780D01*
X0233640Y0062730D01*
X0234281Y0062566D01*
X0234884Y0062294D01*
X0235430Y0061921D01*
X0235903Y0061459D01*
X0236289Y0060921D01*
X0236576Y0060325D01*
X0236755Y0059688D01*
X0236820Y0059030D01*
X0236753Y0058372D01*
X0236572Y0057735D01*
X0236284Y0057140D01*
X0235897Y0056603D01*
X0235422Y0056142D01*
X0234875Y0055771D01*
X0234271Y0055500D01*
X0233630Y0055338D01*
X0232970Y0055290D01*
X0232250Y0055368D01*
X0232531Y0055338D02*
X0233628Y0055338D01*
X0234971Y0055836D02*
X0231104Y0055836D01*
X0230448Y0056335D02*
X0235620Y0056335D01*
X0236063Y0056833D02*
X0230023Y0056833D01*
X0229727Y0057332D02*
X0236377Y0057332D01*
X0236599Y0057830D02*
X0229519Y0057830D01*
X0229380Y0058329D02*
X0236741Y0058329D01*
X0236799Y0058827D02*
X0229337Y0058827D01*
X0229346Y0059326D02*
X0236791Y0059326D01*
X0236716Y0059824D02*
X0229404Y0059824D01*
X0229548Y0060323D02*
X0236576Y0060323D01*
X0236337Y0060821D02*
X0229779Y0060821D01*
X0230101Y0061320D02*
X0236003Y0061320D01*
X0235535Y0061818D02*
X0230562Y0061818D01*
X0231272Y0062317D02*
X0234833Y0062317D01*
X0236754Y0047362D02*
X0229375Y0047362D01*
X0229504Y0046863D02*
X0236614Y0046863D01*
X0236403Y0046365D02*
X0229700Y0046365D01*
X0229981Y0045866D02*
X0236101Y0045866D01*
X0235675Y0045368D02*
X0230385Y0045368D01*
X0231008Y0044869D02*
X0235049Y0044869D01*
X0233838Y0044370D02*
X0232180Y0044370D01*
D16*
X0033050Y0078500D03*
X0023050Y0078500D03*
X0023050Y0088500D03*
X0033050Y0088500D03*
X0033050Y0098500D03*
X0023050Y0098500D03*
X0023050Y0108500D03*
X0033050Y0108500D03*
X0033050Y0118500D03*
X0023050Y0118500D03*
D17*
X0068050Y0168500D03*
X0183050Y0118500D03*
X0183050Y0078500D03*
X0283050Y0043500D03*
X0233050Y0013500D03*
X0213050Y0008500D03*
X0295550Y0176000D03*
M02*
