G75*
%MOIN*%
%OFA0B0*%
%FSLAX25Y25*%
%IPPOS*%
%LPD*%
%AMOC8*
5,1,8,0,0,1.08239X$1,22.5*
%
%ADD10C,0.01600*%
%ADD11C,0.02400*%
%ADD12R,0.00100X0.00100*%
%ADD13R,0.00600X0.00100*%
%ADD14R,0.00800X0.00100*%
%ADD15R,0.00700X0.00100*%
%ADD16R,0.00900X0.00100*%
%ADD17R,0.01300X0.00100*%
%ADD18R,0.01700X0.00100*%
%ADD19R,0.01900X0.00100*%
%ADD20R,0.02200X0.00100*%
%ADD21R,0.00400X0.00100*%
%ADD22R,0.02300X0.00100*%
%ADD23R,0.02400X0.00100*%
%ADD24R,0.01600X0.00100*%
%ADD25R,0.02500X0.00100*%
%ADD26R,0.01800X0.00100*%
%ADD27R,0.02000X0.00100*%
%ADD28R,0.02100X0.00100*%
%ADD29R,0.02600X0.00100*%
%ADD30R,0.01500X0.00100*%
%ADD31R,0.01400X0.00100*%
%ADD32R,0.02700X0.00100*%
%ADD33R,0.01200X0.00100*%
%ADD34R,0.01100X0.00100*%
%ADD35R,0.01000X0.00100*%
%ADD36R,0.02800X0.00100*%
%ADD37R,0.00500X0.00100*%
%ADD38R,0.02900X0.00100*%
%ADD39R,0.03000X0.00100*%
%ADD40R,0.03100X0.00100*%
%ADD41R,0.03200X0.00100*%
%ADD42R,0.00200X0.00100*%
%ADD43R,0.00300X0.00100*%
%ADD44R,0.03600X0.00100*%
%ADD45R,0.03500X0.00100*%
%ADD46R,0.03400X0.00100*%
%ADD47R,0.03300X0.00100*%
%ADD48R,0.04100X0.00100*%
%ADD49R,0.03800X0.00100*%
%ADD50R,0.03700X0.00100*%
%ADD51R,0.08200X0.00100*%
%ADD52R,0.11800X0.00100*%
%ADD53R,0.15100X0.00100*%
%ADD54R,0.16100X0.00100*%
%ADD55R,0.05200X0.00100*%
%ADD56R,0.05800X0.00100*%
%ADD57R,0.04300X0.00100*%
%ADD58R,0.04200X0.00100*%
%ADD59R,0.04500X0.00100*%
%ADD60R,0.04900X0.00100*%
%ADD61R,0.06000X0.00100*%
%ADD62R,0.07300X0.00100*%
%ADD63R,0.07500X0.00100*%
%ADD64R,0.14400X0.00100*%
%ADD65R,0.11600X0.00100*%
%ADD66R,0.09600X0.00100*%
%ADD67R,0.06300X0.00100*%
%ADD68R,0.04600X0.00100*%
%ADD69R,0.05400X0.00100*%
%ADD70R,0.06100X0.00100*%
%ADD71R,0.06400X0.00100*%
%ADD72R,0.08100X0.00100*%
%ADD73R,0.08000X0.00100*%
%ADD74R,0.08300X0.00100*%
%ADD75R,0.07000X0.00100*%
%ADD76R,0.06800X0.00100*%
%ADD77R,0.07200X0.00100*%
%ADD78R,0.11300X0.00100*%
%ADD79R,0.05500X0.00100*%
%ADD80R,0.05300X0.00100*%
%ADD81R,0.06600X0.00100*%
%ADD82R,0.11200X0.00100*%
%ADD83R,0.10200X0.00100*%
%ADD84R,0.04700X0.00100*%
%ADD85R,0.09100X0.00100*%
%ADD86R,0.04800X0.00100*%
%ADD87R,0.08700X0.00100*%
%ADD88R,0.07900X0.00100*%
%ADD89R,0.07700X0.00100*%
%ADD90R,0.06900X0.00100*%
%ADD91R,0.06500X0.00100*%
%ADD92R,0.05000X0.00100*%
%ADD93R,0.04000X0.00100*%
%ADD94R,0.03900X0.00100*%
%ADD95R,0.05100X0.00100*%
%ADD96R,0.05700X0.00100*%
%ADD97R,0.07600X0.00100*%
%ADD98R,0.14600X0.00100*%
%ADD99R,0.15000X0.00100*%
%ADD100R,0.08900X0.00100*%
%ADD101R,0.07800X0.00100*%
%ADD102R,0.07100X0.00100*%
%ADD103R,0.07400X0.00100*%
%ADD104R,0.11100X0.00100*%
%ADD105R,0.09200X0.00100*%
%ADD106R,0.09000X0.00100*%
%ADD107R,0.08400X0.00100*%
%ADD108R,0.09700X0.00100*%
%ADD109R,0.09800X0.00100*%
%ADD110R,0.09900X0.00100*%
%ADD111R,0.10000X0.00100*%
%ADD112R,0.10100X0.00100*%
%ADD113R,0.04400X0.00100*%
%ADD114R,0.10300X0.00100*%
%ADD115R,0.10400X0.00100*%
%ADD116R,0.10500X0.00100*%
%ADD117R,0.10600X0.00100*%
%ADD118R,0.10800X0.00100*%
%ADD119R,0.10900X0.00100*%
%ADD120R,0.05900X0.00100*%
%ADD121R,0.06200X0.00100*%
%ADD122R,0.14900X0.00100*%
%ADD123R,0.06700X0.00100*%
%ADD124R,0.08800X0.00100*%
%ADD125R,0.15700X0.00100*%
%ADD126R,0.15900X0.00100*%
%ADD127R,0.23000X0.00100*%
%ADD128R,0.23200X0.00100*%
%ADD129R,0.14300X0.00100*%
%ADD130R,0.13800X0.00100*%
%ADD131R,0.13400X0.00100*%
%ADD132R,0.13200X0.00100*%
%ADD133R,0.24700X0.00100*%
%ADD134R,0.27500X0.00100*%
%ADD135R,0.29100X0.00100*%
%ADD136R,0.29300X0.00100*%
%ADD137R,0.29400X0.00100*%
%ADD138R,0.20800X0.00100*%
%ADD139R,0.08600X0.00100*%
%ADD140R,0.20900X0.00100*%
%ADD141R,0.08500X0.00100*%
%ADD142R,0.21000X0.00100*%
%ADD143R,0.21100X0.00100*%
%ADD144R,0.21200X0.00100*%
%ADD145R,0.21300X0.00100*%
%ADD146R,0.21400X0.00100*%
%ADD147R,0.17300X0.00100*%
%ADD148R,0.17200X0.00100*%
%ADD149R,0.17400X0.00100*%
%ADD150R,0.17500X0.00100*%
%ADD151R,0.17600X0.00100*%
%ADD152R,0.17700X0.00100*%
%ADD153R,0.17900X0.00100*%
%ADD154R,0.09300X0.00100*%
%ADD155R,0.18000X0.00100*%
%ADD156R,0.17800X0.00100*%
%ADD157R,0.17100X0.00100*%
%ADD158R,0.16800X0.00100*%
%ADD159R,0.16600X0.00100*%
%ADD160R,0.16500X0.00100*%
%ADD161R,0.16400X0.00100*%
%ADD162R,0.16300X0.00100*%
%ADD163R,0.05600X0.00100*%
%ADD164R,0.16000X0.00100*%
%ADD165R,0.15800X0.00100*%
%ADD166R,0.17000X0.00100*%
%ADD167R,0.16900X0.00100*%
%ADD168R,0.16700X0.00100*%
%ADD169R,0.11500X0.00100*%
%ADD170R,0.10700X0.00100*%
%ADD171R,0.13600X0.00100*%
%ADD172R,0.13500X0.00100*%
%ADD173R,0.15600X0.00100*%
%ADD174R,0.15500X0.00100*%
%ADD175R,0.15400X0.00100*%
%ADD176R,0.15300X0.00100*%
%ADD177R,0.15200X0.00100*%
%ADD178R,0.12200X0.00100*%
%ADD179R,0.12100X0.00100*%
%ADD180R,0.12000X0.00100*%
%ADD181R,0.11900X0.00100*%
%ADD182R,0.11400X0.00100*%
%ADD183R,0.14100X0.00100*%
%ADD184R,0.13900X0.00100*%
%ADD185R,0.12900X0.00100*%
%ADD186R,0.12600X0.00100*%
%ADD187R,0.12400X0.00100*%
%ADD188R,0.12300X0.00100*%
%ADD189R,0.14500X0.00100*%
%ADD190R,0.13300X0.00100*%
%ADD191R,0.12500X0.00100*%
D10*
X0004700Y0004700D02*
X0004700Y0510606D01*
X0203519Y0510606D01*
X0203519Y0004700D01*
X0004700Y0004700D01*
D11*
X0079700Y0059700D02*
X0079700Y0104818D01*
X0127062Y0104818D01*
X0127062Y0059700D01*
X0079700Y0059700D01*
D12*
X0075100Y0143700D03*
X0078700Y0175300D03*
X0076400Y0241200D03*
X0078700Y0242500D03*
X0082700Y0241200D03*
X0086800Y0248600D03*
X0084200Y0250000D03*
X0088800Y0256000D03*
X0087100Y0257900D03*
X0086400Y0262200D03*
X0078700Y0259900D03*
X0078700Y0259800D03*
X0075600Y0268400D03*
X0073100Y0262300D03*
X0068600Y0249500D03*
X0061300Y0248600D03*
X0058200Y0250300D03*
D13*
X0058450Y0249900D03*
X0058550Y0249800D03*
X0060250Y0247900D03*
X0062650Y0249600D03*
X0063650Y0247300D03*
X0065350Y0248900D03*
X0067450Y0250700D03*
X0071750Y0261000D03*
X0071750Y0261100D03*
X0073850Y0261600D03*
X0073950Y0261500D03*
X0075550Y0261500D03*
X0082450Y0256600D03*
X0082450Y0256500D03*
X0086550Y0261200D03*
X0086550Y0261300D03*
X0087250Y0258300D03*
X0088650Y0257500D03*
X0090050Y0257400D03*
X0091350Y0255600D03*
X0089450Y0251400D03*
X0089350Y0251300D03*
X0089250Y0251200D03*
X0088750Y0249600D03*
X0089150Y0246600D03*
X0086950Y0246300D03*
X0085950Y0241300D03*
X0083750Y0247300D03*
X0087750Y0253400D03*
X0084550Y0264600D03*
X0081550Y0267700D03*
X0081450Y0267800D03*
X0081350Y0268000D03*
X0081350Y0268100D03*
X0081250Y0268200D03*
X0080850Y0268800D03*
X0075150Y0246500D03*
X0076450Y0241400D03*
X0077950Y0241500D03*
X0078050Y0240500D03*
X0075550Y0201300D03*
X0075450Y0201100D03*
X0075450Y0201000D03*
X0075450Y0200900D03*
X0075350Y0200700D03*
X0075350Y0200600D03*
X0075250Y0200400D03*
X0075250Y0200300D03*
X0075250Y0200200D03*
X0075150Y0200000D03*
X0075150Y0199900D03*
X0076350Y0191600D03*
X0080750Y0181900D03*
X0080750Y0181800D03*
X0080750Y0181700D03*
X0080750Y0181600D03*
X0079150Y0177100D03*
X0079150Y0177000D03*
X0079150Y0176900D03*
X0078350Y0171300D03*
X0078350Y0171200D03*
X0078450Y0170800D03*
X0078450Y0170700D03*
X0078650Y0169100D03*
X0078650Y0169000D03*
X0078650Y0168900D03*
X0080150Y0162000D03*
X0082750Y0147600D03*
X0075250Y0143800D03*
X0050250Y0215600D03*
X0050050Y0215900D03*
X0049950Y0216000D03*
X0049950Y0216100D03*
X0049850Y0216200D03*
X0049850Y0216300D03*
X0056250Y0252600D03*
D14*
X0056550Y0252400D03*
X0058350Y0250500D03*
X0058650Y0249700D03*
X0059950Y0248100D03*
X0065250Y0247600D03*
X0069550Y0249400D03*
X0073850Y0241400D03*
X0076450Y0241500D03*
X0077850Y0241600D03*
X0079050Y0241700D03*
X0079050Y0241800D03*
X0079050Y0241500D03*
X0077950Y0240300D03*
X0075650Y0244100D03*
X0082350Y0256800D03*
X0084550Y0250100D03*
X0084750Y0248000D03*
X0082950Y0247800D03*
X0086950Y0246600D03*
X0086950Y0246500D03*
X0088750Y0249800D03*
X0089750Y0251600D03*
X0089850Y0251700D03*
X0089950Y0251800D03*
X0090050Y0251900D03*
X0090150Y0252000D03*
X0090150Y0252100D03*
X0090250Y0252200D03*
X0090350Y0252400D03*
X0090450Y0252600D03*
X0090550Y0252800D03*
X0090650Y0253100D03*
X0090650Y0253200D03*
X0090650Y0253300D03*
X0090650Y0253400D03*
X0091150Y0256000D03*
X0091150Y0256100D03*
X0090050Y0257600D03*
X0090050Y0257700D03*
X0090050Y0257800D03*
X0088550Y0257300D03*
X0087350Y0258500D03*
X0087150Y0259500D03*
X0087050Y0259600D03*
X0086650Y0261000D03*
X0088550Y0259800D03*
X0086850Y0254100D03*
X0081150Y0268400D03*
X0081050Y0268600D03*
X0075250Y0268600D03*
X0074650Y0263700D03*
X0074650Y0263600D03*
X0074050Y0261400D03*
X0071650Y0261200D03*
X0071650Y0260900D03*
X0069750Y0268400D03*
X0071850Y0269400D03*
X0093950Y0219500D03*
X0094150Y0219400D03*
X0094250Y0219300D03*
X0096050Y0216400D03*
X0096050Y0216300D03*
X0095950Y0216100D03*
X0095850Y0215900D03*
X0095750Y0215800D03*
X0095650Y0215600D03*
X0095550Y0215500D03*
X0095450Y0215400D03*
X0095350Y0215300D03*
X0095250Y0215200D03*
X0095150Y0215100D03*
X0094750Y0214800D03*
X0080750Y0181200D03*
X0080750Y0181100D03*
X0079250Y0179400D03*
X0079250Y0179300D03*
X0079250Y0179200D03*
X0079250Y0179100D03*
X0079250Y0179000D03*
X0079250Y0178900D03*
X0079250Y0178800D03*
X0078350Y0171500D03*
X0078350Y0171400D03*
X0073150Y0169000D03*
X0072850Y0167800D03*
X0072750Y0167500D03*
X0072750Y0167400D03*
X0079450Y0163400D03*
X0079550Y0163200D03*
X0079650Y0163000D03*
X0079750Y0162800D03*
X0079850Y0162700D03*
X0079850Y0162600D03*
X0079950Y0162500D03*
X0079950Y0162400D03*
X0080050Y0162200D03*
X0082150Y0148900D03*
X0082250Y0148700D03*
X0074950Y0146400D03*
X0074950Y0146300D03*
X0074950Y0146200D03*
X0074950Y0146100D03*
X0074950Y0146000D03*
X0075050Y0145900D03*
X0075050Y0145800D03*
X0075050Y0145700D03*
X0075050Y0145600D03*
X0075050Y0145500D03*
X0075050Y0145400D03*
X0075150Y0145300D03*
X0075150Y0145200D03*
X0075150Y0145100D03*
X0075150Y0145000D03*
X0075150Y0144900D03*
X0075250Y0144700D03*
X0075250Y0144600D03*
X0075250Y0144500D03*
X0075250Y0144400D03*
X0075250Y0144300D03*
X0075350Y0144100D03*
X0075350Y0144000D03*
X0075350Y0143900D03*
X0079850Y0192100D03*
X0079850Y0192200D03*
X0079850Y0192300D03*
X0079850Y0192400D03*
X0075650Y0201700D03*
X0075750Y0201900D03*
X0075750Y0202000D03*
X0078350Y0210500D03*
X0050750Y0215100D03*
X0050650Y0215200D03*
X0050550Y0215300D03*
D15*
X0050400Y0215400D03*
X0050300Y0215500D03*
X0050200Y0215700D03*
X0050100Y0215800D03*
X0061200Y0247700D03*
X0060100Y0248000D03*
X0056400Y0252500D03*
X0056200Y0252700D03*
X0068300Y0250700D03*
X0068600Y0249300D03*
X0073800Y0241500D03*
X0078000Y0240400D03*
X0079000Y0241600D03*
X0082000Y0241300D03*
X0077700Y0237900D03*
X0082400Y0256700D03*
X0083700Y0257000D03*
X0086600Y0261100D03*
X0087300Y0258400D03*
X0088600Y0257400D03*
X0090000Y0257500D03*
X0091100Y0256300D03*
X0091100Y0256200D03*
X0090700Y0253700D03*
X0090700Y0253600D03*
X0090700Y0253500D03*
X0089600Y0251500D03*
X0089100Y0251100D03*
X0089000Y0251000D03*
X0088800Y0249700D03*
X0087000Y0248800D03*
X0086900Y0246400D03*
X0086100Y0246200D03*
X0085900Y0252300D03*
X0087000Y0254000D03*
X0081600Y0267600D03*
X0081200Y0268300D03*
X0081100Y0268500D03*
X0081000Y0268700D03*
X0075400Y0261600D03*
X0096000Y0216200D03*
X0095900Y0216000D03*
X0095700Y0215700D03*
X0080800Y0181500D03*
X0080800Y0181400D03*
X0080800Y0181300D03*
X0079200Y0178700D03*
X0079200Y0178600D03*
X0079200Y0178500D03*
X0079200Y0178400D03*
X0079200Y0178300D03*
X0079200Y0178200D03*
X0079200Y0178100D03*
X0079200Y0178000D03*
X0079200Y0177900D03*
X0079200Y0177800D03*
X0079200Y0177700D03*
X0079200Y0177600D03*
X0079200Y0177500D03*
X0079200Y0177400D03*
X0079200Y0177300D03*
X0079200Y0177200D03*
X0078400Y0171100D03*
X0078400Y0171000D03*
X0078400Y0170900D03*
X0072700Y0167300D03*
X0072700Y0167200D03*
X0072700Y0167100D03*
X0080000Y0162300D03*
X0080100Y0162100D03*
X0081800Y0149700D03*
X0081800Y0149600D03*
X0081900Y0149500D03*
X0081900Y0149400D03*
X0082000Y0149300D03*
X0082000Y0149200D03*
X0082100Y0149100D03*
X0082100Y0149000D03*
X0082200Y0148800D03*
X0082300Y0148600D03*
X0082300Y0148500D03*
X0082400Y0148400D03*
X0082400Y0148300D03*
X0082500Y0148200D03*
X0082500Y0148100D03*
X0082600Y0148000D03*
X0082600Y0147900D03*
X0082700Y0147800D03*
X0082700Y0147700D03*
X0075200Y0144800D03*
X0075300Y0144200D03*
X0076400Y0191500D03*
X0075200Y0200100D03*
X0075300Y0200500D03*
X0075400Y0200800D03*
X0075500Y0201200D03*
X0075600Y0201400D03*
X0075600Y0201500D03*
X0075600Y0201600D03*
X0075700Y0201800D03*
D16*
X0075800Y0202100D03*
X0075800Y0202200D03*
X0079900Y0193700D03*
X0079900Y0193600D03*
X0079900Y0193500D03*
X0079900Y0193400D03*
X0079900Y0193300D03*
X0079900Y0193200D03*
X0079900Y0193100D03*
X0079900Y0193000D03*
X0079900Y0192900D03*
X0079900Y0192800D03*
X0079900Y0192700D03*
X0079900Y0192600D03*
X0079900Y0192500D03*
X0079800Y0192000D03*
X0079800Y0191900D03*
X0079800Y0191800D03*
X0079800Y0191700D03*
X0079800Y0191600D03*
X0079800Y0191500D03*
X0079800Y0191400D03*
X0079800Y0191300D03*
X0079800Y0191200D03*
X0079800Y0191100D03*
X0079800Y0191000D03*
X0079800Y0190900D03*
X0079800Y0190800D03*
X0079800Y0190700D03*
X0079800Y0190600D03*
X0079800Y0190500D03*
X0079800Y0190400D03*
X0079800Y0190300D03*
X0079800Y0190200D03*
X0079800Y0190100D03*
X0079800Y0190000D03*
X0079800Y0189900D03*
X0079800Y0189800D03*
X0079800Y0189700D03*
X0079800Y0189600D03*
X0079800Y0189500D03*
X0079800Y0189400D03*
X0079800Y0189300D03*
X0079700Y0188700D03*
X0079700Y0188600D03*
X0079700Y0188500D03*
X0079700Y0188400D03*
X0079700Y0188300D03*
X0079700Y0188200D03*
X0079700Y0188100D03*
X0079700Y0188000D03*
X0079700Y0187900D03*
X0080800Y0181000D03*
X0080800Y0180900D03*
X0080800Y0180800D03*
X0080800Y0180700D03*
X0080800Y0180600D03*
X0080800Y0180500D03*
X0079300Y0179600D03*
X0079300Y0179500D03*
X0073100Y0168900D03*
X0073100Y0168800D03*
X0073100Y0168700D03*
X0073100Y0168600D03*
X0073000Y0168400D03*
X0073000Y0168300D03*
X0073000Y0168200D03*
X0072900Y0168000D03*
X0072900Y0167900D03*
X0072800Y0167700D03*
X0072800Y0167600D03*
X0079300Y0163700D03*
X0079400Y0163600D03*
X0079400Y0163500D03*
X0079500Y0163300D03*
X0079600Y0163100D03*
X0079700Y0162900D03*
X0074900Y0146600D03*
X0074900Y0146500D03*
X0079900Y0216600D03*
X0079900Y0216700D03*
X0079900Y0216800D03*
X0079900Y0216900D03*
X0079900Y0217000D03*
X0079900Y0217100D03*
X0079900Y0217200D03*
X0079900Y0217300D03*
X0079900Y0217400D03*
X0079900Y0217500D03*
X0079900Y0217600D03*
X0079900Y0217700D03*
X0079800Y0219400D03*
X0079800Y0219500D03*
X0079800Y0219600D03*
X0079800Y0219700D03*
X0079800Y0219800D03*
X0079800Y0219900D03*
X0079800Y0220000D03*
X0079800Y0220100D03*
X0079800Y0220200D03*
X0079800Y0220300D03*
X0079800Y0220400D03*
X0079800Y0220500D03*
X0079700Y0222400D03*
X0079700Y0222500D03*
X0079700Y0222600D03*
X0079700Y0223200D03*
X0079700Y0223300D03*
X0079700Y0223400D03*
X0079600Y0225400D03*
X0079600Y0225500D03*
X0079600Y0225600D03*
X0079600Y0225700D03*
X0079600Y0225800D03*
X0079600Y0225900D03*
X0079600Y0226000D03*
X0079600Y0226100D03*
X0079600Y0226200D03*
X0077700Y0237700D03*
X0077700Y0237800D03*
X0078000Y0238100D03*
X0077900Y0240200D03*
X0079100Y0241400D03*
X0079100Y0241900D03*
X0083900Y0246300D03*
X0084100Y0246400D03*
X0084600Y0250200D03*
X0081300Y0249100D03*
X0082300Y0256900D03*
X0086700Y0260800D03*
X0086700Y0260900D03*
X0087400Y0258700D03*
X0087400Y0258600D03*
X0088500Y0257200D03*
X0087800Y0253500D03*
X0090300Y0252300D03*
X0090400Y0252500D03*
X0090500Y0252700D03*
X0090600Y0252900D03*
X0090600Y0253000D03*
X0088900Y0250900D03*
X0088800Y0250800D03*
X0088800Y0249900D03*
X0088000Y0247700D03*
X0086900Y0246700D03*
X0089000Y0246500D03*
X0091200Y0255900D03*
X0081600Y0267500D03*
X0075300Y0261700D03*
X0073900Y0241300D03*
X0059900Y0248200D03*
X0058800Y0249500D03*
X0058700Y0249600D03*
X0058500Y0252300D03*
X0049900Y0216500D03*
X0049900Y0216400D03*
X0050900Y0215000D03*
X0051000Y0214900D03*
X0052100Y0214100D03*
X0052300Y0214000D03*
X0052500Y0213900D03*
X0093800Y0214200D03*
X0094300Y0214500D03*
X0094400Y0214600D03*
X0094600Y0214700D03*
X0094900Y0214900D03*
X0095000Y0215000D03*
X0094600Y0219000D03*
X0094500Y0219100D03*
X0094400Y0219200D03*
X0093800Y0219600D03*
X0093600Y0219700D03*
D17*
X0092700Y0220200D03*
X0091300Y0213100D03*
X0091000Y0213000D03*
X0095900Y0217500D03*
X0095900Y0217600D03*
X0095900Y0217700D03*
X0095900Y0220300D03*
X0095900Y0220400D03*
X0095900Y0220500D03*
X0095900Y0220600D03*
X0095900Y0220700D03*
X0095900Y0220800D03*
X0095900Y0220900D03*
X0095900Y0221000D03*
X0095900Y0221100D03*
X0096000Y0227600D03*
X0096000Y0227700D03*
X0096000Y0227800D03*
X0096000Y0227900D03*
X0096000Y0228000D03*
X0096000Y0228100D03*
X0096000Y0228200D03*
X0096000Y0228300D03*
X0096000Y0228400D03*
X0096000Y0228500D03*
X0096000Y0228600D03*
X0096000Y0228700D03*
X0096000Y0228800D03*
X0096000Y0228900D03*
X0096000Y0229000D03*
X0096000Y0229100D03*
X0096000Y0229200D03*
X0096000Y0229300D03*
X0096000Y0229400D03*
X0096000Y0229500D03*
X0096000Y0229600D03*
X0096000Y0229700D03*
X0096000Y0229800D03*
X0096000Y0229900D03*
X0096000Y0230000D03*
X0096000Y0230100D03*
X0096000Y0230200D03*
X0096000Y0230300D03*
X0096000Y0230400D03*
X0096000Y0230500D03*
X0096000Y0230600D03*
X0096000Y0230700D03*
X0096000Y0230800D03*
X0096000Y0230900D03*
X0096000Y0231000D03*
X0096000Y0231100D03*
X0096000Y0231200D03*
X0096000Y0231300D03*
X0096000Y0231400D03*
X0096000Y0231500D03*
X0096000Y0231600D03*
X0096000Y0231700D03*
X0096000Y0231800D03*
X0096000Y0231900D03*
X0096000Y0232000D03*
X0096000Y0232100D03*
X0096000Y0232200D03*
X0096000Y0232300D03*
X0096000Y0232400D03*
X0096000Y0232500D03*
X0096000Y0232600D03*
X0096000Y0232700D03*
X0096000Y0232800D03*
X0096000Y0232900D03*
X0096000Y0233000D03*
X0096000Y0233100D03*
X0096000Y0233200D03*
X0096000Y0233300D03*
X0096000Y0233400D03*
X0096000Y0233500D03*
X0096000Y0233600D03*
X0096000Y0233700D03*
X0096000Y0233800D03*
X0096000Y0233900D03*
X0096000Y0234000D03*
X0096000Y0234100D03*
X0096000Y0234200D03*
X0096000Y0234300D03*
X0096000Y0234400D03*
X0096000Y0234500D03*
X0096000Y0234600D03*
X0096000Y0234700D03*
X0096000Y0234800D03*
X0096000Y0234900D03*
X0096000Y0235000D03*
X0096000Y0235100D03*
X0096000Y0235200D03*
X0096000Y0235300D03*
X0096000Y0235400D03*
X0096000Y0235500D03*
X0096000Y0235600D03*
X0096000Y0235700D03*
X0096000Y0235800D03*
X0096000Y0235900D03*
X0096000Y0236000D03*
X0096000Y0236100D03*
X0096000Y0236200D03*
X0096000Y0236300D03*
X0096000Y0236400D03*
X0096000Y0236500D03*
X0096000Y0236600D03*
X0096000Y0236700D03*
X0096000Y0236800D03*
X0096000Y0236900D03*
X0096000Y0237000D03*
X0096000Y0237100D03*
X0096000Y0237200D03*
X0096000Y0237300D03*
X0096000Y0237400D03*
X0096000Y0237500D03*
X0096000Y0237600D03*
X0096000Y0237700D03*
X0096000Y0237800D03*
X0096000Y0237900D03*
X0096000Y0238000D03*
X0096000Y0238100D03*
X0096000Y0238200D03*
X0096000Y0238300D03*
X0096000Y0238400D03*
X0096000Y0238500D03*
X0096000Y0238600D03*
X0096000Y0238700D03*
X0096000Y0238800D03*
X0096000Y0238900D03*
X0096000Y0239000D03*
X0096000Y0239100D03*
X0096000Y0239200D03*
X0096000Y0239300D03*
X0096000Y0239400D03*
X0096000Y0239500D03*
X0096000Y0239600D03*
X0096000Y0239700D03*
X0096000Y0239800D03*
X0096000Y0239900D03*
X0096000Y0240000D03*
X0096000Y0240100D03*
X0096000Y0240200D03*
X0096000Y0240300D03*
X0096000Y0240400D03*
X0096000Y0240500D03*
X0096000Y0240600D03*
X0096000Y0240700D03*
X0096000Y0240800D03*
X0096000Y0240900D03*
X0096000Y0241000D03*
X0096000Y0241100D03*
X0096000Y0241200D03*
X0096000Y0241300D03*
X0096000Y0241400D03*
X0096000Y0241500D03*
X0096000Y0241600D03*
X0096000Y0241700D03*
X0096000Y0241800D03*
X0096000Y0241900D03*
X0096000Y0242000D03*
X0096000Y0242100D03*
X0096000Y0242200D03*
X0096000Y0242300D03*
X0096000Y0242400D03*
X0096000Y0242500D03*
X0096000Y0242600D03*
X0096000Y0242700D03*
X0096000Y0242800D03*
X0096000Y0242900D03*
X0096000Y0243000D03*
X0096000Y0243100D03*
X0096000Y0243200D03*
X0096000Y0243300D03*
X0096000Y0243400D03*
X0096000Y0243500D03*
X0096000Y0243600D03*
X0096000Y0243700D03*
X0096000Y0243800D03*
X0096000Y0243900D03*
X0096000Y0244000D03*
X0096000Y0244100D03*
X0096000Y0244200D03*
X0096000Y0244300D03*
X0096000Y0244400D03*
X0096000Y0244500D03*
X0096000Y0244600D03*
X0096000Y0244700D03*
X0096000Y0244800D03*
X0096000Y0244900D03*
X0096000Y0245000D03*
X0096000Y0245100D03*
X0096000Y0245200D03*
X0096000Y0245300D03*
X0096000Y0245400D03*
X0096000Y0245500D03*
X0096000Y0245600D03*
X0096000Y0245700D03*
X0096000Y0245800D03*
X0096000Y0245900D03*
X0096000Y0246000D03*
X0096000Y0246100D03*
X0096000Y0246200D03*
X0096000Y0246300D03*
X0096000Y0246400D03*
X0096000Y0246500D03*
X0096000Y0246600D03*
X0096000Y0246700D03*
X0096000Y0246800D03*
X0096000Y0246900D03*
X0096000Y0247000D03*
X0096000Y0247100D03*
X0096000Y0247200D03*
X0096000Y0247300D03*
X0096000Y0247400D03*
X0096000Y0247500D03*
X0096000Y0247600D03*
X0096000Y0247700D03*
X0096000Y0247800D03*
X0096000Y0247900D03*
X0096000Y0248000D03*
X0096000Y0248100D03*
X0096000Y0248200D03*
X0096000Y0248300D03*
X0096000Y0248400D03*
X0096000Y0248500D03*
X0096000Y0248600D03*
X0096000Y0248700D03*
X0096000Y0248800D03*
X0096000Y0248900D03*
X0096000Y0249000D03*
X0096000Y0249100D03*
X0096000Y0249200D03*
X0096000Y0249300D03*
X0096000Y0249400D03*
X0096000Y0249500D03*
X0096000Y0249600D03*
X0096000Y0249700D03*
X0096000Y0249800D03*
X0096000Y0249900D03*
X0096000Y0250000D03*
X0096000Y0250100D03*
X0096000Y0250200D03*
X0096000Y0250300D03*
X0096000Y0250400D03*
X0096000Y0250500D03*
X0096000Y0250600D03*
X0096000Y0250700D03*
X0096000Y0250800D03*
X0096000Y0250900D03*
X0096000Y0251000D03*
X0096000Y0251100D03*
X0096000Y0251200D03*
X0096000Y0251300D03*
X0096000Y0251400D03*
X0096000Y0251500D03*
X0096000Y0251600D03*
X0096000Y0251700D03*
X0096000Y0251800D03*
X0096000Y0251900D03*
X0096000Y0252000D03*
X0096000Y0252100D03*
X0096000Y0252200D03*
X0096000Y0252300D03*
X0096000Y0252400D03*
X0096000Y0252500D03*
X0096000Y0252600D03*
X0096000Y0252700D03*
X0096000Y0252800D03*
X0096000Y0252900D03*
X0096000Y0253000D03*
X0096000Y0253100D03*
X0096000Y0253200D03*
X0096000Y0253300D03*
X0096000Y0253400D03*
X0096000Y0253500D03*
X0096000Y0253600D03*
X0095900Y0254800D03*
X0095900Y0254900D03*
X0095900Y0255000D03*
X0095900Y0255100D03*
X0095900Y0255200D03*
X0095900Y0255300D03*
X0095900Y0255400D03*
X0095900Y0255500D03*
X0095900Y0255600D03*
X0095800Y0256000D03*
X0095800Y0256100D03*
X0095800Y0256200D03*
X0095800Y0256300D03*
X0095800Y0256400D03*
X0095800Y0256500D03*
X0095800Y0256600D03*
X0095700Y0256800D03*
X0095700Y0256900D03*
X0095700Y0257000D03*
X0095700Y0257100D03*
X0095700Y0257200D03*
X0095600Y0257400D03*
X0095600Y0257500D03*
X0095600Y0257600D03*
X0095600Y0257700D03*
X0095500Y0258000D03*
X0095500Y0258100D03*
X0095500Y0258200D03*
X0095400Y0258500D03*
X0095400Y0258600D03*
X0095400Y0258700D03*
X0095300Y0258900D03*
X0095300Y0259000D03*
X0095300Y0259100D03*
X0095300Y0259200D03*
X0095200Y0259300D03*
X0095200Y0259400D03*
X0095200Y0259500D03*
X0095200Y0259600D03*
X0095100Y0259700D03*
X0095100Y0259800D03*
X0095100Y0259900D03*
X0095000Y0260000D03*
X0095000Y0260100D03*
X0095000Y0260200D03*
X0094900Y0260300D03*
X0094900Y0260400D03*
X0094900Y0260500D03*
X0094800Y0260600D03*
X0094800Y0260700D03*
X0094800Y0260800D03*
X0094700Y0260900D03*
X0094700Y0261000D03*
X0094600Y0261200D03*
X0094600Y0261300D03*
X0094500Y0261500D03*
X0094500Y0261600D03*
X0094400Y0261800D03*
X0094300Y0262000D03*
X0094300Y0262100D03*
X0094200Y0262300D03*
X0094200Y0262400D03*
X0094100Y0262500D03*
X0094100Y0262600D03*
X0094000Y0262800D03*
X0094000Y0262900D03*
X0093900Y0263000D03*
X0093900Y0263100D03*
X0093800Y0263300D03*
X0093700Y0263500D03*
X0089700Y0259100D03*
X0089800Y0258900D03*
X0089900Y0258700D03*
X0090000Y0258500D03*
X0088300Y0256900D03*
X0085500Y0256600D03*
X0085200Y0257200D03*
X0085200Y0257300D03*
X0086000Y0252000D03*
X0087200Y0249000D03*
X0087800Y0247600D03*
X0088600Y0246300D03*
X0086500Y0246100D03*
X0084800Y0248200D03*
X0083700Y0246100D03*
X0079100Y0237900D03*
X0077800Y0237200D03*
X0077800Y0237100D03*
X0077900Y0237000D03*
X0077900Y0236900D03*
X0077900Y0239300D03*
X0077800Y0240000D03*
X0080500Y0233800D03*
X0075400Y0232700D03*
X0075300Y0233100D03*
X0075200Y0233500D03*
X0075500Y0232300D03*
X0075600Y0231900D03*
X0075700Y0231500D03*
X0075700Y0231400D03*
X0075800Y0231000D03*
X0075800Y0230900D03*
X0075900Y0230400D03*
X0075900Y0230300D03*
X0073900Y0225400D03*
X0074000Y0224700D03*
X0074000Y0224600D03*
X0074000Y0224500D03*
X0074000Y0224400D03*
X0074100Y0224000D03*
X0074100Y0223900D03*
X0074100Y0223800D03*
X0074100Y0223700D03*
X0074400Y0220700D03*
X0074400Y0220600D03*
X0074400Y0220500D03*
X0074300Y0219600D03*
X0076100Y0220200D03*
X0076100Y0220300D03*
X0079800Y0213400D03*
X0079800Y0213300D03*
X0079800Y0213200D03*
X0079900Y0213100D03*
X0079900Y0213000D03*
X0079900Y0212900D03*
X0080000Y0212700D03*
X0080000Y0212600D03*
X0080000Y0212500D03*
X0080100Y0212300D03*
X0080100Y0211400D03*
X0080000Y0211300D03*
X0080200Y0203200D03*
X0080200Y0203100D03*
X0080200Y0203000D03*
X0080100Y0202700D03*
X0079900Y0201900D03*
X0079900Y0201800D03*
X0079900Y0201700D03*
X0079800Y0201400D03*
X0078000Y0201500D03*
X0077900Y0201800D03*
X0077900Y0201900D03*
X0077900Y0202000D03*
X0077800Y0202200D03*
X0077800Y0202300D03*
X0076100Y0205800D03*
X0076100Y0205900D03*
X0076100Y0206000D03*
X0075700Y0207100D03*
X0075700Y0207200D03*
X0075600Y0207400D03*
X0075600Y0207500D03*
X0075600Y0207600D03*
X0075500Y0207700D03*
X0075500Y0207800D03*
X0075500Y0207900D03*
X0075400Y0208100D03*
X0075400Y0208200D03*
X0075300Y0208500D03*
X0074100Y0200400D03*
X0074100Y0200300D03*
X0074100Y0200200D03*
X0074400Y0196900D03*
X0074400Y0196800D03*
X0074400Y0196300D03*
X0074400Y0196200D03*
X0074400Y0196100D03*
X0074400Y0196000D03*
X0074400Y0195900D03*
X0074300Y0195300D03*
X0074300Y0195200D03*
X0074200Y0191400D03*
X0074200Y0191300D03*
X0074200Y0191200D03*
X0074200Y0191100D03*
X0074200Y0191000D03*
X0074200Y0190900D03*
X0074200Y0190800D03*
X0074200Y0190100D03*
X0074200Y0190000D03*
X0074200Y0189900D03*
X0074200Y0189800D03*
X0074200Y0189700D03*
X0077800Y0189700D03*
X0077800Y0189600D03*
X0079300Y0179800D03*
X0080500Y0174600D03*
X0080100Y0173000D03*
X0080000Y0172700D03*
X0079900Y0172400D03*
X0079900Y0172300D03*
X0079800Y0172100D03*
X0079800Y0172000D03*
X0079700Y0171700D03*
X0079600Y0171500D03*
X0079600Y0171400D03*
X0079600Y0171300D03*
X0079500Y0171000D03*
X0079000Y0169600D03*
X0076600Y0169600D03*
X0076500Y0169700D03*
X0075800Y0171200D03*
X0078200Y0159200D03*
X0078300Y0158800D03*
X0078400Y0158400D03*
X0078500Y0158100D03*
X0078700Y0157400D03*
X0078800Y0157100D03*
X0078900Y0156800D03*
X0079000Y0156500D03*
X0079100Y0156300D03*
X0074800Y0146700D03*
X0055000Y0212900D03*
X0054700Y0213000D03*
X0054400Y0213100D03*
X0053800Y0220500D03*
X0054000Y0220600D03*
X0054300Y0220700D03*
X0054600Y0220800D03*
X0050000Y0222500D03*
X0050000Y0222600D03*
X0050000Y0222700D03*
X0050000Y0222800D03*
X0050000Y0222900D03*
X0050000Y0223000D03*
X0050000Y0223100D03*
X0050000Y0223200D03*
X0050000Y0223300D03*
X0050000Y0223400D03*
X0050000Y0223500D03*
X0050000Y0223600D03*
X0050000Y0223700D03*
X0050000Y0223800D03*
X0050000Y0223900D03*
X0050000Y0224000D03*
X0050000Y0224100D03*
X0050000Y0224200D03*
X0050000Y0224300D03*
X0050000Y0224400D03*
X0050000Y0224500D03*
X0050000Y0224600D03*
X0050000Y0224700D03*
X0050000Y0224800D03*
X0050000Y0224900D03*
X0050000Y0225000D03*
X0050000Y0225100D03*
X0050000Y0225200D03*
X0050000Y0225300D03*
X0050000Y0225400D03*
X0050000Y0225500D03*
X0050000Y0225600D03*
X0050000Y0225700D03*
X0050000Y0225800D03*
X0050000Y0225900D03*
X0050000Y0226000D03*
X0050000Y0226100D03*
X0050000Y0226200D03*
X0050000Y0226300D03*
X0050000Y0226400D03*
X0050000Y0226500D03*
X0050000Y0226600D03*
X0050000Y0226700D03*
X0050000Y0226800D03*
X0050000Y0226900D03*
X0050000Y0227000D03*
X0050000Y0227100D03*
X0050000Y0227200D03*
X0050000Y0227300D03*
X0050000Y0227400D03*
X0050000Y0227500D03*
X0050000Y0227600D03*
X0050000Y0227700D03*
X0050000Y0227800D03*
X0050000Y0227900D03*
X0050000Y0228000D03*
X0050000Y0228100D03*
X0050000Y0228200D03*
X0050000Y0228300D03*
X0050000Y0228400D03*
X0050000Y0228500D03*
X0050000Y0228600D03*
X0050000Y0228700D03*
X0050000Y0228800D03*
X0050000Y0228900D03*
X0050000Y0229000D03*
X0050000Y0229100D03*
X0050000Y0229200D03*
X0050000Y0229300D03*
X0050000Y0229400D03*
X0050000Y0229500D03*
X0050000Y0229600D03*
X0050000Y0229700D03*
X0050000Y0229800D03*
X0050000Y0229900D03*
X0050000Y0230000D03*
X0050000Y0230100D03*
X0050000Y0230200D03*
X0050000Y0230300D03*
X0050000Y0230400D03*
X0050000Y0230500D03*
X0050000Y0230600D03*
X0050000Y0230700D03*
X0050000Y0230800D03*
X0050000Y0230900D03*
X0050000Y0231000D03*
X0050000Y0231100D03*
X0050000Y0231200D03*
X0050000Y0231300D03*
X0050000Y0231400D03*
X0050000Y0231500D03*
X0050000Y0231600D03*
X0050000Y0231700D03*
X0050000Y0231800D03*
X0050000Y0231900D03*
X0050000Y0232000D03*
X0050000Y0232100D03*
X0050000Y0232200D03*
X0050000Y0232300D03*
X0050000Y0232400D03*
X0050000Y0232500D03*
X0050000Y0232600D03*
X0050000Y0232700D03*
X0050000Y0232800D03*
X0050000Y0232900D03*
X0050000Y0233000D03*
X0050000Y0233100D03*
X0050000Y0217300D03*
X0050000Y0217200D03*
X0059400Y0248800D03*
X0059300Y0249000D03*
X0060600Y0249300D03*
X0057000Y0252200D03*
X0051800Y0262500D03*
X0051800Y0262600D03*
X0051900Y0262700D03*
X0051900Y0262800D03*
X0052000Y0262900D03*
X0052000Y0263000D03*
X0052000Y0263100D03*
X0052100Y0263200D03*
X0052100Y0263300D03*
X0052200Y0263400D03*
X0052200Y0263500D03*
X0052300Y0263600D03*
X0052300Y0263700D03*
X0052400Y0263800D03*
X0052400Y0263900D03*
X0052500Y0264100D03*
X0051700Y0262400D03*
X0051700Y0262300D03*
X0051600Y0262100D03*
X0051600Y0262000D03*
X0051500Y0261900D03*
X0051500Y0261800D03*
X0051400Y0261600D03*
X0051400Y0261500D03*
X0051300Y0261400D03*
X0051300Y0261300D03*
X0051200Y0261100D03*
X0051200Y0261000D03*
X0051100Y0260800D03*
X0051100Y0260700D03*
X0051000Y0260500D03*
X0051000Y0260400D03*
X0050900Y0260200D03*
X0050900Y0260100D03*
X0050800Y0259800D03*
X0050800Y0259700D03*
X0050700Y0259500D03*
X0050700Y0259400D03*
X0050600Y0259100D03*
X0050600Y0259000D03*
X0050500Y0258600D03*
X0050400Y0258100D03*
X0050100Y0256300D03*
X0050100Y0256200D03*
X0069500Y0249600D03*
X0072700Y0243900D03*
X0074100Y0240700D03*
X0074100Y0240600D03*
X0074200Y0238700D03*
X0074200Y0238600D03*
X0074200Y0238500D03*
X0074200Y0238400D03*
X0074200Y0238300D03*
X0074200Y0238200D03*
X0074200Y0238100D03*
X0074200Y0238000D03*
X0074200Y0237900D03*
X0074200Y0237800D03*
X0074200Y0237700D03*
X0074200Y0237600D03*
X0074200Y0237500D03*
X0074200Y0237400D03*
X0074200Y0237300D03*
X0071700Y0258900D03*
X0071700Y0259000D03*
X0074300Y0261000D03*
X0074900Y0262000D03*
X0074500Y0263500D03*
X0074600Y0268900D03*
X0074800Y0270700D03*
X0077100Y0269900D03*
X0081600Y0267300D03*
X0072200Y0270600D03*
D18*
X0073100Y0270200D03*
X0073400Y0270100D03*
X0074300Y0269100D03*
X0075500Y0270300D03*
X0077200Y0268600D03*
X0077100Y0268300D03*
X0077100Y0268200D03*
X0077100Y0263200D03*
X0077100Y0263100D03*
X0077100Y0263000D03*
X0077100Y0262900D03*
X0077100Y0262800D03*
X0077100Y0262700D03*
X0077100Y0262600D03*
X0077100Y0262500D03*
X0077100Y0262400D03*
X0077100Y0262300D03*
X0077100Y0262200D03*
X0077000Y0261900D03*
X0077000Y0261800D03*
X0077000Y0261700D03*
X0077000Y0261600D03*
X0077000Y0261500D03*
X0077000Y0261000D03*
X0077000Y0260900D03*
X0077100Y0260800D03*
X0077300Y0260200D03*
X0077300Y0260100D03*
X0077300Y0260000D03*
X0074500Y0260500D03*
X0074700Y0262200D03*
X0076800Y0256300D03*
X0076900Y0256200D03*
X0077000Y0256000D03*
X0077100Y0255800D03*
X0082200Y0266200D03*
X0082000Y0266500D03*
X0081900Y0266600D03*
X0081800Y0266800D03*
X0081700Y0266900D03*
X0081600Y0267000D03*
X0082800Y0265000D03*
X0082800Y0264900D03*
X0083800Y0263500D03*
X0083800Y0263400D03*
X0083800Y0263300D03*
X0084900Y0258700D03*
X0085000Y0258400D03*
X0085000Y0258300D03*
X0088100Y0256600D03*
X0085900Y0251500D03*
X0088700Y0250400D03*
X0085600Y0241400D03*
X0079500Y0241100D03*
X0078900Y0238700D03*
X0079200Y0230000D03*
X0079200Y0229900D03*
X0079200Y0229800D03*
X0079100Y0229400D03*
X0079100Y0229300D03*
X0079100Y0229200D03*
X0074500Y0221800D03*
X0074500Y0221700D03*
X0074500Y0221600D03*
X0074500Y0221500D03*
X0075900Y0219400D03*
X0075900Y0219300D03*
X0074400Y0215100D03*
X0074400Y0215000D03*
X0074400Y0214900D03*
X0074300Y0212900D03*
X0074300Y0212800D03*
X0074300Y0212700D03*
X0074300Y0212600D03*
X0074300Y0212500D03*
X0074300Y0212400D03*
X0074300Y0212300D03*
X0074300Y0211000D03*
X0074300Y0210900D03*
X0077600Y0203100D03*
X0077600Y0203000D03*
X0080400Y0204700D03*
X0080400Y0204800D03*
X0080400Y0204900D03*
X0080400Y0205000D03*
X0080400Y0205100D03*
X0080400Y0205200D03*
X0080400Y0210200D03*
X0080400Y0210300D03*
X0080400Y0210400D03*
X0080400Y0210500D03*
X0080400Y0210600D03*
X0079600Y0214300D03*
X0079600Y0214400D03*
X0079600Y0214500D03*
X0074600Y0197800D03*
X0078100Y0192800D03*
X0078100Y0192700D03*
X0078100Y0192600D03*
X0078100Y0192500D03*
X0074300Y0189000D03*
X0074300Y0188900D03*
X0074300Y0188800D03*
X0074300Y0188700D03*
X0075900Y0185200D03*
X0075900Y0185100D03*
X0075900Y0185000D03*
X0075900Y0184900D03*
X0076000Y0184200D03*
X0076000Y0184100D03*
X0076000Y0184000D03*
X0076000Y0183900D03*
X0076000Y0183800D03*
X0076000Y0183700D03*
X0076400Y0179700D03*
X0076400Y0179600D03*
X0076400Y0179500D03*
X0076400Y0179400D03*
X0077200Y0177300D03*
X0077300Y0177200D03*
X0079400Y0185300D03*
X0079500Y0185400D03*
X0079500Y0185500D03*
X0074200Y0178500D03*
X0074200Y0178400D03*
X0074200Y0178300D03*
X0074200Y0178200D03*
X0074200Y0178100D03*
X0074200Y0178000D03*
X0074200Y0177900D03*
X0074200Y0177800D03*
X0074200Y0177700D03*
X0074200Y0177600D03*
X0074200Y0177500D03*
X0076800Y0169100D03*
X0079400Y0155800D03*
X0081100Y0150000D03*
X0081200Y0149900D03*
X0074700Y0146800D03*
X0074100Y0152700D03*
X0074100Y0152800D03*
X0074100Y0152900D03*
X0074100Y0153000D03*
X0088600Y0212300D03*
X0089000Y0212400D03*
X0089100Y0221400D03*
X0088700Y0221500D03*
X0095700Y0218300D03*
X0095700Y0218200D03*
X0091000Y0267900D03*
X0090600Y0268400D03*
X0090500Y0268500D03*
X0090400Y0268600D03*
X0090300Y0268700D03*
X0090200Y0268800D03*
X0090100Y0268900D03*
X0090100Y0269000D03*
X0090000Y0269100D03*
X0089900Y0269200D03*
X0089800Y0269300D03*
X0089700Y0269400D03*
X0089600Y0269500D03*
X0089500Y0269600D03*
X0089400Y0269700D03*
X0074300Y0236200D03*
X0074300Y0236100D03*
X0074300Y0236000D03*
X0074300Y0235900D03*
X0069000Y0248800D03*
X0068800Y0248900D03*
X0069600Y0249700D03*
X0071200Y0261600D03*
X0072100Y0267200D03*
X0072000Y0267300D03*
X0071900Y0267400D03*
X0056200Y0269300D03*
X0056100Y0269200D03*
X0056000Y0269100D03*
X0055900Y0269000D03*
X0055800Y0268900D03*
X0055700Y0268800D03*
X0054600Y0267500D03*
X0057000Y0221500D03*
X0056600Y0221400D03*
X0056700Y0212400D03*
X0057100Y0212300D03*
X0050100Y0217900D03*
D19*
X0050200Y0218200D03*
X0057400Y0221600D03*
X0057800Y0221700D03*
X0057500Y0212200D03*
X0057900Y0212100D03*
X0060800Y0249500D03*
X0066600Y0249400D03*
X0068600Y0249000D03*
X0069400Y0248600D03*
X0074300Y0258300D03*
X0074600Y0260300D03*
X0076900Y0261100D03*
X0077400Y0259600D03*
X0077100Y0263500D03*
X0075600Y0265600D03*
X0075500Y0265700D03*
X0075100Y0266500D03*
X0075100Y0266600D03*
X0077400Y0267600D03*
X0077500Y0267500D03*
X0077600Y0267400D03*
X0077700Y0267300D03*
X0077800Y0267200D03*
X0077600Y0269300D03*
X0074000Y0269600D03*
X0074000Y0269800D03*
X0072200Y0270500D03*
X0072200Y0267100D03*
X0077300Y0255300D03*
X0077400Y0255100D03*
X0075400Y0244700D03*
X0077500Y0239800D03*
X0079600Y0244600D03*
X0083500Y0245900D03*
X0086800Y0250100D03*
X0085700Y0251000D03*
X0085700Y0251100D03*
X0084600Y0259300D03*
X0084500Y0259500D03*
X0084400Y0259700D03*
X0084300Y0259800D03*
X0084300Y0259900D03*
X0084200Y0260000D03*
X0083900Y0262500D03*
X0083700Y0263800D03*
X0082900Y0264600D03*
X0088700Y0270400D03*
X0088600Y0270500D03*
X0088500Y0270600D03*
X0088800Y0270300D03*
X0088900Y0270200D03*
X0089000Y0270100D03*
X0089100Y0270000D03*
X0074300Y0235700D03*
X0074300Y0235600D03*
X0074300Y0235500D03*
X0074600Y0222200D03*
X0074400Y0216000D03*
X0074400Y0215900D03*
X0074400Y0215800D03*
X0074400Y0215700D03*
X0074400Y0215600D03*
X0074300Y0212100D03*
X0074300Y0212000D03*
X0074300Y0211900D03*
X0079500Y0214900D03*
X0079500Y0215000D03*
X0079500Y0215100D03*
X0080500Y0209400D03*
X0080500Y0209300D03*
X0080500Y0209200D03*
X0080500Y0209100D03*
X0080500Y0209000D03*
X0080500Y0208900D03*
X0080500Y0208800D03*
X0080500Y0208700D03*
X0080500Y0208600D03*
X0080500Y0208500D03*
X0080500Y0208400D03*
X0080500Y0208300D03*
X0080500Y0208200D03*
X0080500Y0208100D03*
X0080500Y0208000D03*
X0080500Y0207900D03*
X0080500Y0207800D03*
X0080500Y0207700D03*
X0080500Y0207600D03*
X0080500Y0207500D03*
X0080500Y0207400D03*
X0080500Y0207300D03*
X0080500Y0207200D03*
X0080500Y0207100D03*
X0080500Y0207000D03*
X0080500Y0206900D03*
X0080500Y0206800D03*
X0080500Y0206700D03*
X0080500Y0206600D03*
X0080500Y0206500D03*
X0080500Y0206400D03*
X0080500Y0206300D03*
X0080500Y0206200D03*
X0080500Y0206100D03*
X0080500Y0206000D03*
X0074500Y0199800D03*
X0074500Y0199700D03*
X0074500Y0199500D03*
X0074600Y0198400D03*
X0074600Y0198300D03*
X0074600Y0198200D03*
X0074600Y0198100D03*
X0078200Y0193500D03*
X0078200Y0193400D03*
X0076600Y0187700D03*
X0076600Y0187600D03*
X0076600Y0187500D03*
X0075900Y0185600D03*
X0075900Y0185500D03*
X0075900Y0185400D03*
X0075900Y0183200D03*
X0075900Y0183100D03*
X0075900Y0183000D03*
X0074200Y0179500D03*
X0076500Y0178700D03*
X0077400Y0177000D03*
X0077800Y0173800D03*
X0077800Y0173700D03*
X0077900Y0173300D03*
X0077900Y0173200D03*
X0078000Y0172900D03*
X0078000Y0172800D03*
X0078000Y0172700D03*
X0078100Y0172500D03*
X0078100Y0172400D03*
X0078100Y0172300D03*
X0078100Y0172200D03*
X0078100Y0172100D03*
X0076900Y0169000D03*
X0079500Y0155500D03*
X0079500Y0155400D03*
X0074800Y0146900D03*
X0074200Y0152400D03*
X0079200Y0180800D03*
X0079200Y0180900D03*
X0079200Y0181000D03*
X0079200Y0181100D03*
X0079200Y0181200D03*
X0079200Y0181300D03*
X0079200Y0181400D03*
X0079200Y0181500D03*
X0079200Y0181600D03*
X0079200Y0181700D03*
X0079200Y0181800D03*
X0079200Y0181900D03*
X0079300Y0182300D03*
X0079300Y0182400D03*
X0079300Y0182500D03*
X0079300Y0182600D03*
X0079300Y0182700D03*
X0079300Y0182800D03*
X0079300Y0182900D03*
X0079300Y0183000D03*
X0079300Y0183100D03*
X0079300Y0183200D03*
X0079300Y0183300D03*
X0079300Y0183400D03*
X0079300Y0183500D03*
X0079300Y0183600D03*
X0079300Y0183700D03*
X0079300Y0183800D03*
X0079300Y0184500D03*
X0079300Y0184600D03*
X0079300Y0184700D03*
X0079300Y0184800D03*
X0079300Y0184900D03*
X0079300Y0186200D03*
X0079300Y0186300D03*
X0079200Y0186500D03*
X0079200Y0186600D03*
X0079200Y0186700D03*
X0087900Y0221700D03*
X0095600Y0218500D03*
X0079000Y0228400D03*
X0079000Y0228500D03*
X0079000Y0228600D03*
X0079300Y0230500D03*
X0079300Y0230600D03*
X0079300Y0230700D03*
X0079400Y0230900D03*
X0079400Y0231000D03*
X0058100Y0271100D03*
X0058200Y0271200D03*
X0058300Y0271300D03*
X0057900Y0271000D03*
X0057800Y0270900D03*
X0057700Y0270800D03*
X0057600Y0270700D03*
X0057500Y0270600D03*
D20*
X0059650Y0272300D03*
X0059750Y0272400D03*
X0060050Y0272600D03*
X0064950Y0247900D03*
X0069150Y0246300D03*
X0074350Y0234900D03*
X0074350Y0234800D03*
X0075650Y0244900D03*
X0078650Y0238400D03*
X0079550Y0232100D03*
X0079550Y0232000D03*
X0079550Y0231900D03*
X0079550Y0231800D03*
X0074650Y0222900D03*
X0079250Y0216300D03*
X0079250Y0216200D03*
X0079350Y0216000D03*
X0079350Y0215900D03*
X0079350Y0215800D03*
X0086350Y0211800D03*
X0086450Y0222000D03*
X0095450Y0218800D03*
X0085850Y0245400D03*
X0086050Y0245500D03*
X0086950Y0245800D03*
X0087350Y0247400D03*
X0084950Y0246500D03*
X0083250Y0245800D03*
X0078950Y0257200D03*
X0077550Y0254900D03*
X0074750Y0260100D03*
X0076750Y0261300D03*
X0075750Y0265300D03*
X0074950Y0266900D03*
X0074850Y0267000D03*
X0073850Y0269400D03*
X0077650Y0269100D03*
X0083650Y0263900D03*
X0084050Y0262900D03*
X0084050Y0262800D03*
X0084050Y0262700D03*
X0084050Y0262100D03*
X0084050Y0260400D03*
X0087450Y0260300D03*
X0086750Y0272000D03*
X0086450Y0272200D03*
X0086350Y0272300D03*
X0086050Y0272500D03*
X0059250Y0222000D03*
X0059350Y0211800D03*
X0050350Y0218600D03*
X0050350Y0218700D03*
X0074450Y0187400D03*
X0075850Y0186000D03*
X0075850Y0182600D03*
X0075850Y0182500D03*
X0075850Y0182400D03*
X0074250Y0180700D03*
X0074250Y0180600D03*
X0074650Y0174400D03*
X0074550Y0174000D03*
X0074550Y0173900D03*
X0077450Y0176600D03*
X0077450Y0176700D03*
X0073850Y0169400D03*
X0073850Y0169300D03*
X0073850Y0169200D03*
X0073850Y0169100D03*
X0079750Y0155100D03*
X0081250Y0150400D03*
X0074850Y0147500D03*
X0074850Y0147400D03*
X0074850Y0147300D03*
X0074850Y0147200D03*
X0074850Y0147100D03*
X0074850Y0147000D03*
X0079050Y0187400D03*
X0079050Y0187500D03*
X0074650Y0199100D03*
X0074650Y0199300D03*
D21*
X0076750Y0194400D03*
X0076650Y0194000D03*
X0076650Y0193900D03*
X0076650Y0193800D03*
X0076550Y0193600D03*
X0076550Y0193500D03*
X0076550Y0193400D03*
X0076550Y0193300D03*
X0076550Y0193200D03*
X0076450Y0193100D03*
X0076450Y0193000D03*
X0076450Y0192900D03*
X0076450Y0192800D03*
X0076450Y0192700D03*
X0076450Y0192600D03*
X0076350Y0192500D03*
X0076350Y0192400D03*
X0076350Y0192300D03*
X0076350Y0192200D03*
X0076350Y0192100D03*
X0076350Y0192000D03*
X0076350Y0191900D03*
X0080650Y0182400D03*
X0075550Y0175700D03*
X0075550Y0175200D03*
X0080150Y0161900D03*
X0082650Y0147500D03*
X0076550Y0240000D03*
X0076450Y0240100D03*
X0076450Y0241300D03*
X0078050Y0241300D03*
X0076350Y0247700D03*
X0073750Y0241600D03*
X0068650Y0249400D03*
X0067650Y0250500D03*
X0061150Y0248800D03*
X0058350Y0250100D03*
X0072150Y0270700D03*
X0075450Y0268500D03*
X0077450Y0270100D03*
X0073450Y0261900D03*
X0078750Y0259400D03*
X0078750Y0259300D03*
X0082450Y0256400D03*
X0082450Y0256300D03*
X0086450Y0261600D03*
X0086450Y0261700D03*
X0088650Y0259700D03*
X0088750Y0257700D03*
X0089950Y0257000D03*
X0091050Y0256500D03*
X0090650Y0254000D03*
X0088750Y0249400D03*
X0086950Y0248700D03*
X0087250Y0258200D03*
X0084650Y0247800D03*
X0083650Y0247200D03*
X0083450Y0247100D03*
X0083650Y0241400D03*
D22*
X0085500Y0245200D03*
X0085700Y0245300D03*
X0086300Y0245600D03*
X0086600Y0245700D03*
X0084000Y0249000D03*
X0079200Y0256900D03*
X0079100Y0257000D03*
X0079000Y0257100D03*
X0078900Y0257300D03*
X0078800Y0257400D03*
X0078700Y0257500D03*
X0078600Y0257600D03*
X0077100Y0263800D03*
X0077000Y0263900D03*
X0075800Y0265200D03*
X0074800Y0267100D03*
X0077700Y0269000D03*
X0083600Y0264000D03*
X0084100Y0262000D03*
X0084000Y0260500D03*
X0086200Y0272400D03*
X0085900Y0272600D03*
X0085600Y0272800D03*
X0074400Y0234700D03*
X0074400Y0234600D03*
X0074400Y0234500D03*
X0074400Y0234400D03*
X0077100Y0222800D03*
X0077100Y0222700D03*
X0077100Y0222600D03*
X0077100Y0222500D03*
X0077100Y0222400D03*
X0077100Y0222300D03*
X0077100Y0222200D03*
X0079600Y0232200D03*
X0079600Y0232300D03*
X0079600Y0232400D03*
X0079600Y0232500D03*
X0085900Y0222100D03*
X0079200Y0216500D03*
X0079200Y0216400D03*
X0079300Y0216100D03*
X0074400Y0210300D03*
X0074400Y0210200D03*
X0074700Y0199200D03*
X0074400Y0187300D03*
X0074400Y0187200D03*
X0075900Y0186300D03*
X0075900Y0186200D03*
X0075900Y0186100D03*
X0075800Y0182300D03*
X0075800Y0182200D03*
X0075800Y0182100D03*
X0075800Y0182000D03*
X0076600Y0178200D03*
X0077500Y0176000D03*
X0077500Y0175900D03*
X0077500Y0175800D03*
X0074700Y0175900D03*
X0074700Y0176000D03*
X0074700Y0176100D03*
X0074600Y0173800D03*
X0073800Y0171000D03*
X0073800Y0169500D03*
X0079800Y0155000D03*
X0079800Y0154900D03*
X0081200Y0150500D03*
X0074600Y0149300D03*
X0074700Y0148600D03*
X0074700Y0148500D03*
X0074800Y0148100D03*
X0074800Y0148000D03*
X0074800Y0147900D03*
X0074800Y0147800D03*
X0074800Y0147700D03*
X0074800Y0147600D03*
X0074300Y0152000D03*
X0074300Y0152100D03*
X0085800Y0211700D03*
X0095400Y0218900D03*
X0066700Y0249300D03*
X0060900Y0249600D03*
X0059900Y0272500D03*
X0060200Y0272700D03*
X0060500Y0272900D03*
X0059800Y0222100D03*
X0059900Y0211700D03*
X0050400Y0218800D03*
D23*
X0050450Y0218900D03*
X0060350Y0222200D03*
X0061950Y0247900D03*
X0068950Y0269700D03*
X0072250Y0270400D03*
X0073850Y0269300D03*
X0073850Y0269200D03*
X0075850Y0265100D03*
X0076650Y0261400D03*
X0074850Y0260000D03*
X0074850Y0259500D03*
X0078350Y0257900D03*
X0078450Y0257800D03*
X0078550Y0257700D03*
X0079250Y0256800D03*
X0079350Y0256700D03*
X0082850Y0257100D03*
X0084050Y0260600D03*
X0084150Y0261900D03*
X0085750Y0272700D03*
X0085450Y0272900D03*
X0085150Y0273100D03*
X0077750Y0268900D03*
X0086650Y0250000D03*
X0086550Y0247200D03*
X0086050Y0247100D03*
X0085350Y0245100D03*
X0082650Y0241500D03*
X0079850Y0241000D03*
X0079850Y0240900D03*
X0079850Y0240800D03*
X0077050Y0241800D03*
X0077050Y0241900D03*
X0074450Y0234300D03*
X0074450Y0234200D03*
X0074450Y0234100D03*
X0076650Y0228300D03*
X0076650Y0228200D03*
X0076650Y0228100D03*
X0077050Y0222100D03*
X0077050Y0222000D03*
X0077050Y0221900D03*
X0077050Y0221800D03*
X0077050Y0221700D03*
X0074450Y0210100D03*
X0075750Y0181900D03*
X0076550Y0178000D03*
X0076550Y0177900D03*
X0077450Y0176500D03*
X0077450Y0176400D03*
X0077450Y0176300D03*
X0077450Y0176200D03*
X0077450Y0176100D03*
X0077550Y0175700D03*
X0077550Y0175600D03*
X0074750Y0176200D03*
X0074750Y0176300D03*
X0074750Y0176400D03*
X0074550Y0173700D03*
X0074550Y0173600D03*
X0074550Y0173500D03*
X0073850Y0171300D03*
X0073850Y0171200D03*
X0073850Y0171100D03*
X0073750Y0170900D03*
X0073750Y0170800D03*
X0073750Y0170700D03*
X0073750Y0169600D03*
X0079850Y0154800D03*
X0079850Y0154700D03*
X0081150Y0150900D03*
X0081250Y0150600D03*
X0074550Y0149900D03*
X0074550Y0149800D03*
X0074550Y0149700D03*
X0074550Y0149600D03*
X0074550Y0149500D03*
X0074550Y0149400D03*
X0074650Y0149200D03*
X0074650Y0149100D03*
X0074650Y0149000D03*
X0074650Y0148900D03*
X0074650Y0148800D03*
X0074650Y0148700D03*
X0074750Y0148400D03*
X0074750Y0148300D03*
X0074750Y0148200D03*
X0074450Y0150100D03*
X0074450Y0150200D03*
X0074450Y0150300D03*
X0074450Y0150400D03*
X0074450Y0150500D03*
X0074350Y0150900D03*
X0074350Y0151000D03*
X0074350Y0151100D03*
X0074250Y0151600D03*
X0074250Y0151700D03*
X0074250Y0151800D03*
X0074250Y0151900D03*
X0085350Y0222200D03*
X0060350Y0272800D03*
X0060650Y0273000D03*
X0060850Y0273100D03*
D24*
X0055650Y0268700D03*
X0055550Y0268600D03*
X0055450Y0268500D03*
X0055350Y0268400D03*
X0055250Y0268300D03*
X0055150Y0268200D03*
X0055050Y0268100D03*
X0055050Y0268000D03*
X0054950Y0267900D03*
X0054850Y0267800D03*
X0054750Y0267700D03*
X0054650Y0267600D03*
X0054550Y0267400D03*
X0054450Y0267300D03*
X0054350Y0267200D03*
X0054250Y0267000D03*
X0054050Y0266700D03*
X0060750Y0249400D03*
X0061350Y0248200D03*
X0071250Y0268200D03*
X0074450Y0260600D03*
X0077150Y0260600D03*
X0077150Y0260700D03*
X0077250Y0260500D03*
X0077250Y0260400D03*
X0077250Y0260300D03*
X0077050Y0262000D03*
X0077050Y0262100D03*
X0076650Y0256500D03*
X0076750Y0256400D03*
X0082750Y0265100D03*
X0082650Y0265200D03*
X0082650Y0265300D03*
X0082550Y0265500D03*
X0082450Y0265700D03*
X0082450Y0265800D03*
X0082350Y0265900D03*
X0082350Y0266000D03*
X0082250Y0266100D03*
X0082150Y0266300D03*
X0082050Y0266400D03*
X0081850Y0266700D03*
X0081550Y0267100D03*
X0081550Y0267200D03*
X0085050Y0258200D03*
X0085050Y0258100D03*
X0085050Y0258000D03*
X0088750Y0250500D03*
X0084650Y0248500D03*
X0084550Y0248600D03*
X0083650Y0246000D03*
X0082350Y0241400D03*
X0079450Y0244700D03*
X0077750Y0239500D03*
X0075550Y0244000D03*
X0074250Y0239700D03*
X0074250Y0239600D03*
X0074250Y0239500D03*
X0074250Y0236600D03*
X0074250Y0236500D03*
X0074250Y0236400D03*
X0074250Y0236300D03*
X0074450Y0221400D03*
X0074450Y0221300D03*
X0075950Y0219600D03*
X0075950Y0219500D03*
X0074350Y0214800D03*
X0074350Y0214700D03*
X0074350Y0214600D03*
X0074350Y0214500D03*
X0074350Y0214400D03*
X0074350Y0214300D03*
X0074350Y0214200D03*
X0074350Y0214100D03*
X0074350Y0214000D03*
X0074350Y0213000D03*
X0076350Y0205100D03*
X0077650Y0202900D03*
X0077650Y0202800D03*
X0080350Y0204200D03*
X0080350Y0204300D03*
X0080350Y0204400D03*
X0080350Y0204500D03*
X0080350Y0204600D03*
X0074550Y0197700D03*
X0074550Y0197600D03*
X0078050Y0192400D03*
X0078050Y0192300D03*
X0078050Y0192200D03*
X0078050Y0192100D03*
X0074250Y0189100D03*
X0075950Y0184800D03*
X0075950Y0184700D03*
X0075950Y0184600D03*
X0075950Y0184500D03*
X0075950Y0184400D03*
X0075950Y0184300D03*
X0076350Y0180800D03*
X0076350Y0180700D03*
X0076350Y0180600D03*
X0076350Y0180500D03*
X0076350Y0180400D03*
X0076450Y0180000D03*
X0076450Y0179900D03*
X0076450Y0179800D03*
X0074250Y0177400D03*
X0074250Y0177300D03*
X0074250Y0177200D03*
X0074350Y0175800D03*
X0074350Y0175700D03*
X0074350Y0175600D03*
X0074450Y0175300D03*
X0074450Y0175200D03*
X0078150Y0171700D03*
X0079050Y0170300D03*
X0079050Y0170200D03*
X0079050Y0170100D03*
X0076750Y0169300D03*
X0076750Y0169200D03*
X0079150Y0180000D03*
X0079350Y0156000D03*
X0079350Y0155900D03*
X0081250Y0149800D03*
X0074050Y0153100D03*
X0074050Y0153200D03*
X0079650Y0214000D03*
X0079650Y0214100D03*
X0079650Y0214200D03*
X0089350Y0212500D03*
X0089450Y0221300D03*
X0095750Y0218100D03*
X0091950Y0266600D03*
X0091750Y0266900D03*
X0091550Y0267200D03*
X0091450Y0267300D03*
X0091350Y0267400D03*
X0091350Y0267500D03*
X0091250Y0267600D03*
X0091150Y0267700D03*
X0091050Y0267800D03*
X0090950Y0268000D03*
X0090850Y0268100D03*
X0090750Y0268200D03*
X0090650Y0268300D03*
X0074950Y0270600D03*
X0056250Y0221300D03*
X0055950Y0212600D03*
X0056350Y0212500D03*
X0050050Y0217700D03*
X0050050Y0217800D03*
D25*
X0050500Y0219000D03*
X0060500Y0211600D03*
X0074400Y0210000D03*
X0074400Y0209900D03*
X0074400Y0209800D03*
X0074600Y0210400D03*
X0075900Y0186600D03*
X0075900Y0186500D03*
X0075900Y0186400D03*
X0075800Y0181800D03*
X0075800Y0181700D03*
X0075800Y0181600D03*
X0075800Y0181500D03*
X0076600Y0178100D03*
X0076600Y0177800D03*
X0074700Y0176500D03*
X0074500Y0173400D03*
X0074500Y0173300D03*
X0074500Y0173200D03*
X0073700Y0170600D03*
X0073700Y0170500D03*
X0073700Y0170400D03*
X0073700Y0170300D03*
X0073700Y0170200D03*
X0073700Y0170100D03*
X0073700Y0170000D03*
X0073700Y0169900D03*
X0073700Y0169800D03*
X0073700Y0169700D03*
X0078500Y0164100D03*
X0078400Y0164000D03*
X0078400Y0163900D03*
X0079900Y0154600D03*
X0079900Y0154500D03*
X0080600Y0152400D03*
X0080700Y0152100D03*
X0080800Y0151900D03*
X0080800Y0151800D03*
X0080900Y0151600D03*
X0080900Y0151500D03*
X0081000Y0151400D03*
X0081000Y0151300D03*
X0081000Y0151200D03*
X0081100Y0151100D03*
X0081100Y0151000D03*
X0081200Y0150800D03*
X0081200Y0150700D03*
X0074500Y0150000D03*
X0074400Y0150600D03*
X0074400Y0150700D03*
X0074400Y0150800D03*
X0074300Y0151200D03*
X0074300Y0151300D03*
X0074300Y0151400D03*
X0074300Y0151500D03*
X0085200Y0211600D03*
X0078500Y0233600D03*
X0078500Y0233700D03*
X0078500Y0233800D03*
X0078500Y0233900D03*
X0078500Y0234000D03*
X0078500Y0234100D03*
X0078500Y0234200D03*
X0078500Y0234300D03*
X0078500Y0234400D03*
X0078500Y0234500D03*
X0078500Y0234600D03*
X0078500Y0234700D03*
X0078500Y0234800D03*
X0078500Y0234900D03*
X0078500Y0235000D03*
X0078500Y0235100D03*
X0078500Y0235200D03*
X0078500Y0235300D03*
X0078500Y0235400D03*
X0078500Y0235500D03*
X0078500Y0235600D03*
X0078500Y0235700D03*
X0078500Y0235800D03*
X0078500Y0235900D03*
X0078500Y0236000D03*
X0078500Y0236100D03*
X0078500Y0236200D03*
X0078500Y0236300D03*
X0078500Y0236400D03*
X0078500Y0236500D03*
X0078500Y0236600D03*
X0078500Y0236700D03*
X0077000Y0242000D03*
X0077000Y0242100D03*
X0077000Y0242200D03*
X0075300Y0243900D03*
X0077400Y0247900D03*
X0079500Y0256500D03*
X0079400Y0256600D03*
X0082000Y0258300D03*
X0082200Y0258000D03*
X0082400Y0257700D03*
X0082700Y0257300D03*
X0082800Y0257200D03*
X0084200Y0261700D03*
X0084200Y0261800D03*
X0083500Y0264100D03*
X0085300Y0273000D03*
X0085000Y0273200D03*
X0084800Y0273300D03*
X0080400Y0263800D03*
X0076800Y0264000D03*
X0075900Y0265000D03*
X0074700Y0267200D03*
X0074600Y0267300D03*
X0074500Y0267400D03*
X0074200Y0267600D03*
X0074000Y0270000D03*
X0077700Y0268800D03*
X0074100Y0262700D03*
X0074200Y0262500D03*
X0074900Y0259900D03*
X0074900Y0259800D03*
X0074900Y0259700D03*
X0074900Y0259600D03*
X0068800Y0269600D03*
X0061200Y0273300D03*
X0061000Y0273200D03*
X0069400Y0246200D03*
X0074400Y0234000D03*
X0083900Y0248900D03*
X0087000Y0247300D03*
X0087200Y0245900D03*
D26*
X0088150Y0246100D03*
X0087550Y0247500D03*
X0085750Y0251200D03*
X0085750Y0251300D03*
X0085850Y0251400D03*
X0084950Y0258500D03*
X0084950Y0258600D03*
X0084850Y0258800D03*
X0084850Y0258900D03*
X0084750Y0259000D03*
X0084750Y0259100D03*
X0084650Y0259200D03*
X0084550Y0259400D03*
X0084450Y0259600D03*
X0083850Y0262600D03*
X0083850Y0263200D03*
X0083750Y0263600D03*
X0083750Y0263700D03*
X0082850Y0264700D03*
X0082850Y0264800D03*
X0087250Y0260400D03*
X0089250Y0269800D03*
X0089150Y0269900D03*
X0077550Y0269400D03*
X0077150Y0268100D03*
X0075650Y0270200D03*
X0075250Y0270400D03*
X0075050Y0270500D03*
X0074050Y0269700D03*
X0071250Y0270100D03*
X0071550Y0263700D03*
X0074550Y0262300D03*
X0074550Y0260400D03*
X0077350Y0259900D03*
X0077350Y0259800D03*
X0077350Y0259700D03*
X0077150Y0263300D03*
X0077150Y0263400D03*
X0075450Y0265800D03*
X0075450Y0265900D03*
X0075350Y0266000D03*
X0075350Y0266100D03*
X0075250Y0266200D03*
X0075250Y0266300D03*
X0075150Y0266400D03*
X0076950Y0256100D03*
X0077050Y0255900D03*
X0077150Y0255700D03*
X0077150Y0255600D03*
X0077250Y0255500D03*
X0077250Y0255400D03*
X0077350Y0255200D03*
X0071250Y0244800D03*
X0069150Y0248700D03*
X0065250Y0248000D03*
X0063650Y0247600D03*
X0061450Y0248100D03*
X0058450Y0252600D03*
X0056250Y0269400D03*
X0056350Y0269500D03*
X0056450Y0269600D03*
X0056550Y0269700D03*
X0056650Y0269800D03*
X0056750Y0269900D03*
X0056850Y0270000D03*
X0056950Y0270100D03*
X0057050Y0270200D03*
X0057150Y0270300D03*
X0057250Y0270400D03*
X0057350Y0270500D03*
X0074350Y0235800D03*
X0077650Y0239600D03*
X0077550Y0239700D03*
X0078850Y0239000D03*
X0079250Y0230400D03*
X0079250Y0230300D03*
X0079250Y0230200D03*
X0079250Y0230100D03*
X0079150Y0229700D03*
X0079150Y0229600D03*
X0079150Y0229500D03*
X0079050Y0229100D03*
X0079050Y0229000D03*
X0079050Y0228900D03*
X0079050Y0228800D03*
X0079050Y0228700D03*
X0074550Y0222100D03*
X0074550Y0222000D03*
X0074550Y0221900D03*
X0074350Y0215500D03*
X0074350Y0215400D03*
X0074350Y0215300D03*
X0074350Y0215200D03*
X0074350Y0212200D03*
X0074350Y0211200D03*
X0074350Y0211100D03*
X0074450Y0199600D03*
X0074550Y0198000D03*
X0074550Y0197900D03*
X0078150Y0193300D03*
X0078150Y0193200D03*
X0078150Y0193100D03*
X0078150Y0193000D03*
X0078150Y0192900D03*
X0076550Y0187400D03*
X0076550Y0187300D03*
X0076550Y0187200D03*
X0075950Y0185300D03*
X0075950Y0183600D03*
X0075950Y0183500D03*
X0075950Y0183400D03*
X0075950Y0183300D03*
X0076450Y0179300D03*
X0076450Y0179200D03*
X0076450Y0179100D03*
X0076450Y0179000D03*
X0076450Y0178900D03*
X0076450Y0178800D03*
X0077350Y0177100D03*
X0079150Y0180100D03*
X0079150Y0180200D03*
X0079150Y0180300D03*
X0079150Y0180400D03*
X0079150Y0180500D03*
X0079150Y0180600D03*
X0079150Y0180700D03*
X0079250Y0182000D03*
X0079250Y0182100D03*
X0079250Y0182200D03*
X0079350Y0185000D03*
X0079350Y0185100D03*
X0079350Y0185200D03*
X0079450Y0185600D03*
X0079450Y0185700D03*
X0079450Y0185800D03*
X0079350Y0185900D03*
X0079350Y0186000D03*
X0079350Y0186100D03*
X0079250Y0186400D03*
X0074350Y0188300D03*
X0074350Y0188400D03*
X0074350Y0188500D03*
X0074350Y0188600D03*
X0074150Y0179400D03*
X0074150Y0179300D03*
X0074150Y0179200D03*
X0074150Y0179100D03*
X0074150Y0179000D03*
X0074150Y0178900D03*
X0074150Y0178800D03*
X0074150Y0178700D03*
X0074150Y0178600D03*
X0078150Y0172000D03*
X0078150Y0171900D03*
X0079050Y0170600D03*
X0079050Y0170500D03*
X0079050Y0170400D03*
X0079450Y0155700D03*
X0079450Y0155600D03*
X0081150Y0150100D03*
X0074150Y0152500D03*
X0074150Y0152600D03*
X0080450Y0205300D03*
X0080450Y0205400D03*
X0080450Y0205500D03*
X0080450Y0205600D03*
X0080450Y0205700D03*
X0080450Y0205800D03*
X0080450Y0205900D03*
X0080450Y0209500D03*
X0080450Y0209600D03*
X0080450Y0209700D03*
X0080450Y0209800D03*
X0080450Y0209900D03*
X0080450Y0210000D03*
X0080450Y0210100D03*
X0079550Y0214600D03*
X0079550Y0214700D03*
X0079550Y0214800D03*
X0088150Y0212200D03*
X0088250Y0221600D03*
X0095650Y0218400D03*
X0050150Y0218100D03*
X0050150Y0218000D03*
D27*
X0050250Y0218300D03*
X0050250Y0218400D03*
X0058250Y0221800D03*
X0058750Y0221900D03*
X0058350Y0212000D03*
X0074350Y0211800D03*
X0074350Y0211700D03*
X0074350Y0211600D03*
X0074350Y0211500D03*
X0074350Y0211400D03*
X0074350Y0211300D03*
X0074450Y0216100D03*
X0074450Y0216200D03*
X0074450Y0216300D03*
X0074450Y0216400D03*
X0074450Y0216500D03*
X0074550Y0222300D03*
X0074550Y0222400D03*
X0079050Y0228300D03*
X0079350Y0230800D03*
X0079450Y0231100D03*
X0079450Y0231200D03*
X0079450Y0231300D03*
X0079450Y0231400D03*
X0078750Y0238600D03*
X0079550Y0244500D03*
X0075850Y0243400D03*
X0074350Y0235400D03*
X0074350Y0235300D03*
X0074350Y0235200D03*
X0074350Y0235100D03*
X0067850Y0250800D03*
X0070950Y0261700D03*
X0071450Y0263600D03*
X0074450Y0262400D03*
X0075650Y0265500D03*
X0075050Y0266700D03*
X0077150Y0267900D03*
X0077150Y0268000D03*
X0077250Y0267800D03*
X0077350Y0267700D03*
X0077950Y0267100D03*
X0077450Y0268700D03*
X0077650Y0269200D03*
X0075850Y0270100D03*
X0073950Y0269900D03*
X0072250Y0267000D03*
X0072250Y0266900D03*
X0074350Y0258400D03*
X0074250Y0258200D03*
X0077350Y0259500D03*
X0076850Y0261200D03*
X0077150Y0263600D03*
X0077450Y0255000D03*
X0084050Y0260200D03*
X0084150Y0260100D03*
X0083950Y0262300D03*
X0083950Y0262400D03*
X0083950Y0263100D03*
X0088350Y0270700D03*
X0088250Y0270800D03*
X0088150Y0270900D03*
X0088050Y0271000D03*
X0087850Y0271100D03*
X0087750Y0271200D03*
X0087650Y0271300D03*
X0087550Y0271400D03*
X0087150Y0271700D03*
X0085650Y0250900D03*
X0085550Y0250800D03*
X0085550Y0250700D03*
X0085450Y0250600D03*
X0085350Y0250500D03*
X0084250Y0249300D03*
X0084150Y0249200D03*
X0085050Y0246700D03*
X0084950Y0246600D03*
X0086950Y0221900D03*
X0087450Y0221800D03*
X0087750Y0212100D03*
X0087250Y0212000D03*
X0079450Y0215200D03*
X0079450Y0215300D03*
X0079450Y0215400D03*
X0074550Y0199400D03*
X0074650Y0198700D03*
X0074650Y0198600D03*
X0074650Y0198500D03*
X0078150Y0193800D03*
X0078150Y0193700D03*
X0078150Y0193600D03*
X0076650Y0187900D03*
X0076650Y0187800D03*
X0075850Y0185700D03*
X0074350Y0187900D03*
X0074350Y0188000D03*
X0074350Y0188100D03*
X0074350Y0188200D03*
X0075950Y0182900D03*
X0074150Y0180000D03*
X0074150Y0179900D03*
X0074150Y0179800D03*
X0074150Y0179700D03*
X0074150Y0179600D03*
X0076450Y0178600D03*
X0076450Y0178500D03*
X0076450Y0178400D03*
X0077450Y0176900D03*
X0077450Y0175500D03*
X0077450Y0175400D03*
X0077550Y0175100D03*
X0077550Y0175000D03*
X0077550Y0174900D03*
X0077550Y0174800D03*
X0077650Y0174600D03*
X0077650Y0174500D03*
X0077650Y0174400D03*
X0077650Y0174300D03*
X0077750Y0174200D03*
X0077750Y0174100D03*
X0077750Y0174000D03*
X0077750Y0173900D03*
X0077850Y0173600D03*
X0077850Y0173500D03*
X0077850Y0173400D03*
X0077950Y0173100D03*
X0077950Y0173000D03*
X0078050Y0172600D03*
X0079350Y0183900D03*
X0079350Y0184000D03*
X0079350Y0184100D03*
X0079350Y0184200D03*
X0079350Y0184300D03*
X0079350Y0184400D03*
X0079150Y0186800D03*
X0079150Y0186900D03*
X0079150Y0187000D03*
X0079550Y0155300D03*
X0081250Y0150200D03*
X0074250Y0152300D03*
X0095550Y0218600D03*
X0061650Y0248000D03*
X0058450Y0271400D03*
X0058550Y0271500D03*
X0058650Y0271600D03*
X0058850Y0271700D03*
X0058950Y0271800D03*
D28*
X0059100Y0271900D03*
X0059200Y0272000D03*
X0059300Y0272100D03*
X0059500Y0272200D03*
X0072300Y0266800D03*
X0073900Y0269500D03*
X0075000Y0266800D03*
X0075700Y0265400D03*
X0077100Y0263700D03*
X0074700Y0260200D03*
X0075500Y0244800D03*
X0078700Y0239100D03*
X0078700Y0238500D03*
X0079500Y0231700D03*
X0079500Y0231600D03*
X0079500Y0231500D03*
X0079000Y0228200D03*
X0079000Y0228100D03*
X0074600Y0222800D03*
X0074600Y0222700D03*
X0074600Y0222600D03*
X0074600Y0222500D03*
X0074500Y0216900D03*
X0074500Y0216800D03*
X0074500Y0216700D03*
X0074500Y0216600D03*
X0079400Y0215700D03*
X0079400Y0215600D03*
X0079400Y0215500D03*
X0086800Y0211900D03*
X0078200Y0194100D03*
X0078200Y0194000D03*
X0078200Y0193900D03*
X0074700Y0198800D03*
X0074700Y0198900D03*
X0074700Y0199000D03*
X0074400Y0187800D03*
X0074400Y0187700D03*
X0074400Y0187600D03*
X0074400Y0187500D03*
X0075900Y0185900D03*
X0075900Y0185800D03*
X0075900Y0182800D03*
X0075900Y0182700D03*
X0074200Y0180500D03*
X0074200Y0180400D03*
X0074200Y0180300D03*
X0074200Y0180200D03*
X0074200Y0180100D03*
X0076500Y0178300D03*
X0077500Y0176800D03*
X0077500Y0175300D03*
X0077500Y0175200D03*
X0077600Y0174700D03*
X0074700Y0174700D03*
X0074700Y0174800D03*
X0074700Y0174900D03*
X0074700Y0175000D03*
X0074700Y0175100D03*
X0074700Y0174600D03*
X0074700Y0174500D03*
X0074600Y0174300D03*
X0074600Y0174200D03*
X0074600Y0174100D03*
X0077000Y0168900D03*
X0079700Y0155200D03*
X0081200Y0150300D03*
X0074300Y0152200D03*
X0079100Y0187100D03*
X0079100Y0187200D03*
X0079100Y0187300D03*
X0095500Y0218700D03*
X0085400Y0241500D03*
X0084100Y0249100D03*
X0087900Y0256500D03*
X0084000Y0260300D03*
X0084000Y0262200D03*
X0084000Y0263000D03*
X0087400Y0271500D03*
X0087300Y0271600D03*
X0087000Y0271800D03*
X0086900Y0271900D03*
X0086600Y0272100D03*
X0074400Y0235000D03*
X0058900Y0211900D03*
X0050300Y0218500D03*
D29*
X0050550Y0219100D03*
X0060950Y0222300D03*
X0071050Y0244900D03*
X0074450Y0233900D03*
X0076950Y0242300D03*
X0076950Y0242400D03*
X0082550Y0241600D03*
X0085150Y0245000D03*
X0082650Y0257400D03*
X0082550Y0257500D03*
X0082450Y0257600D03*
X0082350Y0257800D03*
X0082250Y0257900D03*
X0082150Y0258100D03*
X0082050Y0258200D03*
X0081950Y0258400D03*
X0081850Y0258500D03*
X0081850Y0258600D03*
X0080750Y0261100D03*
X0080750Y0261200D03*
X0080750Y0261300D03*
X0080550Y0263600D03*
X0080450Y0263700D03*
X0080350Y0263900D03*
X0080350Y0264000D03*
X0080250Y0264200D03*
X0083450Y0264200D03*
X0084250Y0261600D03*
X0084050Y0260700D03*
X0087650Y0260200D03*
X0087750Y0260000D03*
X0084650Y0273400D03*
X0084450Y0273500D03*
X0078150Y0258100D03*
X0078250Y0258000D03*
X0079550Y0256400D03*
X0079650Y0256300D03*
X0074150Y0262600D03*
X0074050Y0262800D03*
X0073950Y0263000D03*
X0074350Y0267500D03*
X0074050Y0267700D03*
X0073950Y0267800D03*
X0073850Y0267900D03*
X0073750Y0268000D03*
X0073650Y0268100D03*
X0073550Y0268200D03*
X0065050Y0268100D03*
X0061550Y0273500D03*
X0061350Y0273400D03*
X0084750Y0222300D03*
X0074450Y0209700D03*
X0074450Y0209600D03*
X0074450Y0209500D03*
X0074450Y0209400D03*
X0075950Y0186700D03*
X0075750Y0181400D03*
X0075750Y0181300D03*
X0075750Y0181200D03*
X0074750Y0176900D03*
X0074750Y0176800D03*
X0074750Y0176700D03*
X0074750Y0176600D03*
X0074450Y0173100D03*
X0074450Y0173000D03*
X0074450Y0172900D03*
X0078250Y0166000D03*
X0078350Y0165800D03*
X0078450Y0165600D03*
X0078550Y0165400D03*
X0078550Y0164300D03*
X0078550Y0164200D03*
X0078450Y0163800D03*
X0079850Y0154400D03*
X0079950Y0154100D03*
X0080050Y0153800D03*
X0080150Y0153600D03*
X0080150Y0153500D03*
X0080250Y0153300D03*
X0080250Y0153200D03*
X0080350Y0153100D03*
X0080350Y0153000D03*
X0080350Y0152900D03*
X0080450Y0152800D03*
X0080450Y0152700D03*
X0080550Y0152600D03*
X0080550Y0152500D03*
X0080650Y0152300D03*
X0080650Y0152200D03*
X0080750Y0152000D03*
X0080850Y0151700D03*
D30*
X0079300Y0156100D03*
X0076700Y0169400D03*
X0079000Y0170000D03*
X0078100Y0171600D03*
X0079200Y0179900D03*
X0076400Y0180100D03*
X0076400Y0180200D03*
X0076400Y0180300D03*
X0076300Y0180900D03*
X0076300Y0181000D03*
X0076300Y0181100D03*
X0074300Y0189200D03*
X0074300Y0189300D03*
X0074300Y0189400D03*
X0074200Y0192100D03*
X0074200Y0192200D03*
X0074200Y0192300D03*
X0074200Y0192400D03*
X0074200Y0192500D03*
X0074200Y0192600D03*
X0074200Y0192700D03*
X0074200Y0192800D03*
X0074200Y0192900D03*
X0074200Y0193000D03*
X0074200Y0193100D03*
X0074200Y0193200D03*
X0074200Y0193300D03*
X0074200Y0193400D03*
X0074200Y0193500D03*
X0074200Y0193600D03*
X0074200Y0193700D03*
X0074200Y0193800D03*
X0074200Y0193900D03*
X0074200Y0194000D03*
X0074200Y0194100D03*
X0074500Y0197300D03*
X0074500Y0197400D03*
X0074500Y0197500D03*
X0078100Y0200900D03*
X0078100Y0201000D03*
X0078100Y0201100D03*
X0077700Y0202600D03*
X0077700Y0202700D03*
X0079700Y0201000D03*
X0079700Y0200900D03*
X0080300Y0203700D03*
X0080300Y0203800D03*
X0080300Y0203900D03*
X0080300Y0204000D03*
X0080300Y0204100D03*
X0079900Y0211200D03*
X0079700Y0213800D03*
X0079700Y0213900D03*
X0075200Y0208900D03*
X0076200Y0205500D03*
X0076200Y0205400D03*
X0076300Y0205300D03*
X0076300Y0205200D03*
X0074300Y0213100D03*
X0074300Y0213200D03*
X0074300Y0213300D03*
X0074300Y0213400D03*
X0074300Y0213500D03*
X0074300Y0213600D03*
X0074300Y0213700D03*
X0074300Y0213800D03*
X0074300Y0213900D03*
X0076000Y0219700D03*
X0076000Y0219800D03*
X0074500Y0221200D03*
X0074300Y0236700D03*
X0074200Y0238900D03*
X0074200Y0239000D03*
X0074200Y0239100D03*
X0074200Y0239200D03*
X0074200Y0239300D03*
X0074200Y0239400D03*
X0074200Y0239800D03*
X0074200Y0239900D03*
X0074200Y0240000D03*
X0074200Y0240100D03*
X0074200Y0240200D03*
X0077800Y0239400D03*
X0077700Y0247800D03*
X0076600Y0256600D03*
X0074800Y0262100D03*
X0074400Y0260800D03*
X0074400Y0260700D03*
X0071300Y0261500D03*
X0071800Y0267500D03*
X0071700Y0267600D03*
X0071300Y0268100D03*
X0071400Y0270200D03*
X0074500Y0269000D03*
X0076900Y0270000D03*
X0077500Y0269500D03*
X0077100Y0268400D03*
X0082500Y0265600D03*
X0082600Y0265400D03*
X0085100Y0257900D03*
X0085100Y0257800D03*
X0085100Y0257700D03*
X0088200Y0256700D03*
X0087000Y0260500D03*
X0093000Y0264900D03*
X0092900Y0265100D03*
X0092800Y0265300D03*
X0092700Y0265400D03*
X0092700Y0265500D03*
X0092600Y0265600D03*
X0092500Y0265800D03*
X0092400Y0265900D03*
X0092400Y0266000D03*
X0092300Y0266100D03*
X0092200Y0266200D03*
X0092200Y0266300D03*
X0092100Y0266400D03*
X0092000Y0266500D03*
X0091900Y0266700D03*
X0091800Y0266800D03*
X0091700Y0267000D03*
X0091600Y0267100D03*
X0088900Y0250600D03*
X0088700Y0250300D03*
X0086800Y0250200D03*
X0084700Y0248400D03*
X0088400Y0246200D03*
X0089800Y0221200D03*
X0090100Y0221100D03*
X0092000Y0220500D03*
X0090000Y0212700D03*
X0089700Y0212600D03*
X0095800Y0217900D03*
X0095800Y0218000D03*
X0078000Y0192000D03*
X0078000Y0191900D03*
X0078000Y0191800D03*
X0078000Y0191700D03*
X0077800Y0189500D03*
X0077800Y0189400D03*
X0074400Y0175500D03*
X0074400Y0175400D03*
X0074100Y0153300D03*
X0055600Y0212700D03*
X0055300Y0212800D03*
X0055900Y0221200D03*
X0050100Y0219700D03*
X0050100Y0219600D03*
X0050100Y0219500D03*
X0050100Y0219400D03*
X0050100Y0219300D03*
X0050000Y0217600D03*
X0050000Y0217500D03*
X0050000Y0217400D03*
X0061200Y0248300D03*
X0064000Y0250800D03*
X0066600Y0249500D03*
X0058500Y0252500D03*
X0053400Y0265700D03*
X0053600Y0266000D03*
X0053700Y0266200D03*
X0053800Y0266300D03*
X0053900Y0266500D03*
X0054000Y0266600D03*
X0054100Y0266800D03*
X0054200Y0266900D03*
X0054300Y0267100D03*
D31*
X0053850Y0266400D03*
X0053650Y0266100D03*
X0053550Y0265900D03*
X0053450Y0265800D03*
X0053350Y0265600D03*
X0053250Y0265500D03*
X0053250Y0265400D03*
X0053150Y0265300D03*
X0053150Y0265200D03*
X0053050Y0265100D03*
X0052950Y0265000D03*
X0052950Y0264900D03*
X0052850Y0264800D03*
X0052850Y0264700D03*
X0052750Y0264600D03*
X0052750Y0264500D03*
X0052650Y0264400D03*
X0052650Y0264300D03*
X0052550Y0264200D03*
X0052450Y0264000D03*
X0059350Y0248900D03*
X0063650Y0247500D03*
X0065550Y0248100D03*
X0064050Y0250900D03*
X0064150Y0251000D03*
X0071650Y0259100D03*
X0071650Y0259200D03*
X0074350Y0260900D03*
X0076350Y0256800D03*
X0076450Y0256700D03*
X0075150Y0246700D03*
X0074150Y0240500D03*
X0074150Y0240400D03*
X0074150Y0240300D03*
X0074150Y0238800D03*
X0074250Y0237200D03*
X0074250Y0237100D03*
X0074250Y0237000D03*
X0074250Y0236900D03*
X0074250Y0236800D03*
X0077950Y0236800D03*
X0077750Y0239900D03*
X0079450Y0244800D03*
X0084750Y0241600D03*
X0084750Y0248300D03*
X0085950Y0251800D03*
X0087450Y0253900D03*
X0088250Y0256800D03*
X0085650Y0256500D03*
X0085150Y0257400D03*
X0085150Y0257500D03*
X0085150Y0257600D03*
X0093050Y0264800D03*
X0093150Y0264700D03*
X0093150Y0264600D03*
X0093250Y0264500D03*
X0093250Y0264400D03*
X0093350Y0264300D03*
X0093350Y0264200D03*
X0093450Y0264100D03*
X0093450Y0264000D03*
X0093550Y0263900D03*
X0093550Y0263800D03*
X0093650Y0263700D03*
X0093650Y0263600D03*
X0093750Y0263400D03*
X0093850Y0263200D03*
X0094050Y0262700D03*
X0092950Y0265000D03*
X0092850Y0265200D03*
X0092550Y0265700D03*
X0095750Y0256700D03*
X0095850Y0255900D03*
X0095850Y0255800D03*
X0095850Y0255700D03*
X0095950Y0254700D03*
X0095950Y0254600D03*
X0095950Y0254500D03*
X0095950Y0254400D03*
X0095950Y0254300D03*
X0095950Y0254200D03*
X0095950Y0254100D03*
X0095950Y0254000D03*
X0095950Y0253900D03*
X0095950Y0253800D03*
X0095950Y0253700D03*
X0090450Y0221000D03*
X0090750Y0220900D03*
X0091050Y0220800D03*
X0092250Y0220400D03*
X0092550Y0220300D03*
X0090650Y0212900D03*
X0090350Y0212800D03*
X0095850Y0217800D03*
X0095850Y0219000D03*
X0095850Y0219100D03*
X0095850Y0219200D03*
X0095850Y0219300D03*
X0095850Y0219400D03*
X0095850Y0219500D03*
X0095850Y0219600D03*
X0095850Y0219700D03*
X0095850Y0219800D03*
X0095850Y0219900D03*
X0095850Y0220000D03*
X0095850Y0220100D03*
X0095850Y0220200D03*
X0079750Y0213700D03*
X0079750Y0213600D03*
X0079750Y0213500D03*
X0080050Y0212400D03*
X0080150Y0212200D03*
X0080150Y0212100D03*
X0080150Y0212000D03*
X0080150Y0211900D03*
X0080150Y0211800D03*
X0080150Y0211700D03*
X0080150Y0211600D03*
X0080150Y0211500D03*
X0080250Y0203600D03*
X0080250Y0203500D03*
X0080250Y0203400D03*
X0080250Y0203300D03*
X0079850Y0201600D03*
X0079850Y0201500D03*
X0079750Y0201300D03*
X0079750Y0201200D03*
X0079750Y0201100D03*
X0078050Y0201200D03*
X0078050Y0201300D03*
X0078050Y0201400D03*
X0077950Y0201600D03*
X0077950Y0201700D03*
X0077850Y0202100D03*
X0077750Y0202400D03*
X0077750Y0202500D03*
X0076150Y0205600D03*
X0076150Y0205700D03*
X0075450Y0208000D03*
X0075350Y0208300D03*
X0075350Y0208400D03*
X0075250Y0208600D03*
X0075250Y0208700D03*
X0075250Y0208800D03*
X0075150Y0209000D03*
X0075150Y0209100D03*
X0075150Y0209200D03*
X0076050Y0219900D03*
X0076050Y0220000D03*
X0076050Y0220100D03*
X0074450Y0220800D03*
X0074450Y0220900D03*
X0074450Y0221000D03*
X0074450Y0221100D03*
X0074450Y0197200D03*
X0074450Y0197100D03*
X0074450Y0197000D03*
X0074350Y0195800D03*
X0074350Y0195700D03*
X0074350Y0195600D03*
X0074350Y0195500D03*
X0074350Y0195400D03*
X0074250Y0195100D03*
X0074250Y0195000D03*
X0074250Y0194900D03*
X0074250Y0194800D03*
X0074250Y0194700D03*
X0074250Y0194600D03*
X0074250Y0194500D03*
X0074250Y0194400D03*
X0074250Y0194300D03*
X0074250Y0194200D03*
X0074250Y0192000D03*
X0074250Y0191900D03*
X0074250Y0191800D03*
X0074250Y0191700D03*
X0074250Y0191600D03*
X0074250Y0191500D03*
X0074250Y0189600D03*
X0074250Y0189500D03*
X0077950Y0191300D03*
X0077950Y0191400D03*
X0077950Y0191500D03*
X0077950Y0191600D03*
X0079050Y0169900D03*
X0079050Y0169800D03*
X0079050Y0169700D03*
X0076650Y0169500D03*
X0079250Y0156200D03*
X0074050Y0153500D03*
X0074050Y0153400D03*
X0054950Y0220900D03*
X0055250Y0221000D03*
X0055550Y0221100D03*
X0050050Y0221100D03*
X0050050Y0221200D03*
X0050050Y0221300D03*
X0050050Y0221400D03*
X0050050Y0221500D03*
X0050050Y0221600D03*
X0050050Y0221700D03*
X0050050Y0221800D03*
X0050050Y0221900D03*
X0050050Y0222000D03*
X0050050Y0222100D03*
X0050050Y0222200D03*
X0050050Y0222300D03*
X0050050Y0222400D03*
X0050050Y0221000D03*
X0050050Y0220900D03*
X0050050Y0220800D03*
X0050050Y0220700D03*
X0050050Y0220600D03*
X0050050Y0220500D03*
X0050050Y0220400D03*
X0050050Y0220300D03*
X0050050Y0220200D03*
X0050050Y0220100D03*
X0050050Y0220000D03*
X0050050Y0219900D03*
X0050050Y0219800D03*
X0071550Y0267700D03*
X0071450Y0267800D03*
X0071450Y0267900D03*
X0071350Y0268000D03*
X0077050Y0268500D03*
D32*
X0080100Y0264700D03*
X0080200Y0264400D03*
X0080200Y0264300D03*
X0080300Y0264100D03*
X0080800Y0262000D03*
X0080800Y0261900D03*
X0080800Y0261800D03*
X0080800Y0261700D03*
X0080800Y0261600D03*
X0080800Y0261500D03*
X0080800Y0261400D03*
X0080800Y0261000D03*
X0080800Y0260900D03*
X0081800Y0258700D03*
X0084100Y0260800D03*
X0084300Y0261400D03*
X0084300Y0261500D03*
X0083400Y0264300D03*
X0084300Y0273600D03*
X0084100Y0273700D03*
X0083900Y0273800D03*
X0087700Y0260100D03*
X0085900Y0247000D03*
X0085000Y0244900D03*
X0079700Y0256200D03*
X0077500Y0248000D03*
X0075900Y0245000D03*
X0076900Y0242600D03*
X0076900Y0242500D03*
X0084100Y0222400D03*
X0084600Y0211500D03*
X0074500Y0209300D03*
X0075900Y0186900D03*
X0075900Y0186800D03*
X0076600Y0177700D03*
X0076600Y0177600D03*
X0076600Y0177500D03*
X0074800Y0177100D03*
X0074800Y0177000D03*
X0074500Y0172800D03*
X0077400Y0168500D03*
X0077400Y0168400D03*
X0077700Y0167100D03*
X0077800Y0166900D03*
X0077900Y0166700D03*
X0078000Y0166600D03*
X0078000Y0166500D03*
X0078100Y0166400D03*
X0078100Y0166300D03*
X0078200Y0166200D03*
X0078200Y0166100D03*
X0078300Y0165900D03*
X0078400Y0165700D03*
X0078500Y0165500D03*
X0078600Y0165300D03*
X0078600Y0165200D03*
X0078600Y0165100D03*
X0078600Y0164500D03*
X0078600Y0164400D03*
X0079900Y0154300D03*
X0079900Y0154200D03*
X0080000Y0154000D03*
X0080000Y0153900D03*
X0080100Y0153700D03*
X0080200Y0153400D03*
X0061100Y0211500D03*
X0061600Y0222400D03*
X0074000Y0262900D03*
X0068700Y0269500D03*
X0065000Y0268000D03*
X0062100Y0273800D03*
X0061900Y0273700D03*
X0061700Y0273600D03*
D33*
X0058550Y0252400D03*
X0059050Y0249200D03*
X0059150Y0249100D03*
X0059450Y0248700D03*
X0060650Y0249200D03*
X0060950Y0248400D03*
X0065950Y0250800D03*
X0072250Y0258200D03*
X0071750Y0258800D03*
X0071450Y0261400D03*
X0074250Y0261100D03*
X0075050Y0261900D03*
X0076250Y0256900D03*
X0077350Y0269600D03*
X0077150Y0269800D03*
X0086850Y0260600D03*
X0088350Y0259900D03*
X0089150Y0259600D03*
X0089550Y0259300D03*
X0089650Y0259200D03*
X0089750Y0259000D03*
X0089850Y0258800D03*
X0089950Y0258600D03*
X0090050Y0258400D03*
X0090050Y0258300D03*
X0088350Y0257000D03*
X0085450Y0256700D03*
X0085350Y0256800D03*
X0085350Y0256900D03*
X0085250Y0257000D03*
X0085250Y0257100D03*
X0086450Y0254300D03*
X0087550Y0253800D03*
X0086050Y0252100D03*
X0084950Y0250400D03*
X0087050Y0249200D03*
X0087150Y0249100D03*
X0088750Y0250200D03*
X0094650Y0261100D03*
X0094550Y0261400D03*
X0094450Y0261700D03*
X0094350Y0261900D03*
X0094250Y0262200D03*
X0095350Y0258800D03*
X0095450Y0258400D03*
X0095450Y0258300D03*
X0095550Y0257900D03*
X0095550Y0257800D03*
X0095650Y0257300D03*
X0095950Y0227500D03*
X0095950Y0227400D03*
X0095950Y0227300D03*
X0095950Y0227200D03*
X0095950Y0227100D03*
X0095950Y0227000D03*
X0095950Y0226900D03*
X0095950Y0226800D03*
X0095950Y0226700D03*
X0095950Y0226600D03*
X0095950Y0226500D03*
X0095950Y0226400D03*
X0095950Y0226300D03*
X0095950Y0226200D03*
X0095950Y0226100D03*
X0095950Y0226000D03*
X0095950Y0225900D03*
X0095950Y0225800D03*
X0095950Y0225700D03*
X0095950Y0225600D03*
X0095950Y0225500D03*
X0095950Y0225400D03*
X0095950Y0225300D03*
X0095950Y0225200D03*
X0095950Y0225100D03*
X0095950Y0225000D03*
X0095950Y0224900D03*
X0095950Y0224800D03*
X0095950Y0224700D03*
X0095950Y0224600D03*
X0095950Y0224500D03*
X0095950Y0224400D03*
X0095950Y0224300D03*
X0095950Y0224200D03*
X0095950Y0224100D03*
X0095950Y0224000D03*
X0095950Y0223900D03*
X0095950Y0223800D03*
X0095950Y0223700D03*
X0095950Y0223600D03*
X0095950Y0223500D03*
X0095950Y0223400D03*
X0095950Y0223300D03*
X0095950Y0223200D03*
X0095950Y0223100D03*
X0095950Y0223000D03*
X0095950Y0222900D03*
X0095950Y0222800D03*
X0095950Y0222700D03*
X0095950Y0222600D03*
X0095950Y0222500D03*
X0095950Y0222400D03*
X0095950Y0222300D03*
X0095950Y0222200D03*
X0095950Y0222100D03*
X0095950Y0222000D03*
X0095950Y0221900D03*
X0095950Y0221800D03*
X0095950Y0221700D03*
X0095950Y0221600D03*
X0095950Y0221500D03*
X0095950Y0221400D03*
X0095950Y0221300D03*
X0095950Y0221200D03*
X0095950Y0217400D03*
X0095950Y0217300D03*
X0092950Y0220100D03*
X0091650Y0220600D03*
X0091350Y0220700D03*
X0092050Y0213400D03*
X0091850Y0213300D03*
X0091550Y0213200D03*
X0080750Y0234700D03*
X0080750Y0234800D03*
X0080750Y0234900D03*
X0080750Y0235000D03*
X0080850Y0235300D03*
X0080850Y0235400D03*
X0080850Y0235500D03*
X0080850Y0235600D03*
X0080850Y0235700D03*
X0080850Y0235800D03*
X0080950Y0236400D03*
X0080950Y0236500D03*
X0080950Y0236600D03*
X0080950Y0236700D03*
X0080950Y0236800D03*
X0080950Y0236900D03*
X0080950Y0237000D03*
X0080950Y0237100D03*
X0080950Y0237200D03*
X0080950Y0237300D03*
X0080950Y0237400D03*
X0080950Y0237500D03*
X0080950Y0237600D03*
X0080950Y0237700D03*
X0080950Y0237800D03*
X0080950Y0237900D03*
X0080850Y0238800D03*
X0080850Y0238900D03*
X0080850Y0239000D03*
X0080750Y0239600D03*
X0080750Y0239700D03*
X0080650Y0240100D03*
X0080650Y0240200D03*
X0080550Y0240400D03*
X0080550Y0240500D03*
X0080550Y0240600D03*
X0080450Y0240700D03*
X0079250Y0241200D03*
X0077750Y0237400D03*
X0077750Y0237300D03*
X0080650Y0234500D03*
X0080650Y0234400D03*
X0080650Y0234300D03*
X0080650Y0234200D03*
X0080550Y0234100D03*
X0080550Y0234000D03*
X0080550Y0233900D03*
X0080450Y0233700D03*
X0080450Y0233600D03*
X0077350Y0228900D03*
X0076050Y0228900D03*
X0076050Y0229000D03*
X0076050Y0229100D03*
X0076050Y0229200D03*
X0076050Y0229300D03*
X0075950Y0229600D03*
X0075950Y0229700D03*
X0075950Y0229800D03*
X0075950Y0229900D03*
X0075950Y0230000D03*
X0075950Y0230100D03*
X0075950Y0230200D03*
X0075850Y0230500D03*
X0075850Y0230600D03*
X0075850Y0230700D03*
X0075850Y0230800D03*
X0075750Y0231100D03*
X0075750Y0231200D03*
X0075750Y0231300D03*
X0075650Y0231600D03*
X0075650Y0231700D03*
X0075650Y0231800D03*
X0075550Y0232000D03*
X0075550Y0232100D03*
X0075550Y0232200D03*
X0075450Y0232400D03*
X0075450Y0232500D03*
X0075450Y0232600D03*
X0075350Y0232800D03*
X0075350Y0232900D03*
X0075350Y0233000D03*
X0075250Y0233200D03*
X0075250Y0233300D03*
X0075250Y0233400D03*
X0075150Y0233600D03*
X0075150Y0233700D03*
X0075150Y0233800D03*
X0073750Y0233800D03*
X0073750Y0233700D03*
X0073750Y0233600D03*
X0073750Y0233500D03*
X0073750Y0233400D03*
X0073750Y0233300D03*
X0073750Y0233200D03*
X0073750Y0233100D03*
X0073750Y0233000D03*
X0073650Y0232800D03*
X0073650Y0232700D03*
X0073650Y0232600D03*
X0073650Y0232500D03*
X0073650Y0232400D03*
X0073650Y0232300D03*
X0073650Y0232200D03*
X0073650Y0232100D03*
X0073650Y0232000D03*
X0073650Y0231900D03*
X0073650Y0231800D03*
X0073650Y0231700D03*
X0073650Y0231600D03*
X0073650Y0231500D03*
X0073650Y0231400D03*
X0073650Y0231300D03*
X0073650Y0231200D03*
X0073650Y0231100D03*
X0073650Y0229300D03*
X0073650Y0229200D03*
X0073650Y0229100D03*
X0073650Y0229000D03*
X0073650Y0228900D03*
X0073650Y0228800D03*
X0073650Y0228700D03*
X0073650Y0228600D03*
X0073650Y0228500D03*
X0073650Y0228400D03*
X0073650Y0228300D03*
X0073650Y0228200D03*
X0073650Y0228100D03*
X0073650Y0228000D03*
X0073650Y0227900D03*
X0073650Y0227800D03*
X0073650Y0227700D03*
X0073650Y0227600D03*
X0073750Y0227400D03*
X0073750Y0227300D03*
X0073750Y0227200D03*
X0073750Y0227100D03*
X0073750Y0227000D03*
X0073750Y0226900D03*
X0073750Y0226800D03*
X0073750Y0226700D03*
X0073750Y0226600D03*
X0073750Y0226500D03*
X0073850Y0226300D03*
X0073850Y0226200D03*
X0073850Y0226100D03*
X0073850Y0226000D03*
X0073850Y0225900D03*
X0073850Y0225800D03*
X0073850Y0225700D03*
X0073850Y0225600D03*
X0073850Y0225500D03*
X0073950Y0225300D03*
X0073950Y0225200D03*
X0073950Y0225100D03*
X0073950Y0225000D03*
X0073950Y0224900D03*
X0073950Y0224800D03*
X0074050Y0224300D03*
X0074050Y0224200D03*
X0074050Y0224100D03*
X0076450Y0221600D03*
X0076450Y0221500D03*
X0076350Y0221400D03*
X0076350Y0221300D03*
X0076350Y0221200D03*
X0076250Y0221000D03*
X0076250Y0220900D03*
X0076250Y0220800D03*
X0076150Y0220600D03*
X0076150Y0220500D03*
X0076150Y0220400D03*
X0077750Y0220400D03*
X0077750Y0220500D03*
X0077750Y0220300D03*
X0077750Y0220200D03*
X0077850Y0219700D03*
X0077850Y0219600D03*
X0077850Y0219500D03*
X0077950Y0219100D03*
X0077950Y0219000D03*
X0077950Y0218900D03*
X0078050Y0218600D03*
X0078050Y0218500D03*
X0078150Y0218200D03*
X0078150Y0218100D03*
X0078250Y0217800D03*
X0078250Y0217700D03*
X0078350Y0217400D03*
X0078450Y0217100D03*
X0078550Y0216800D03*
X0078550Y0216700D03*
X0076250Y0216700D03*
X0076250Y0216800D03*
X0076250Y0216600D03*
X0076250Y0216500D03*
X0076350Y0215700D03*
X0076350Y0215600D03*
X0076450Y0214700D03*
X0076450Y0214600D03*
X0076550Y0213800D03*
X0076550Y0213700D03*
X0076650Y0212900D03*
X0076750Y0211300D03*
X0076650Y0211100D03*
X0076650Y0211000D03*
X0079950Y0212800D03*
X0075650Y0207300D03*
X0075750Y0207000D03*
X0075750Y0206900D03*
X0075850Y0206800D03*
X0075850Y0206700D03*
X0075850Y0206600D03*
X0075950Y0206500D03*
X0075950Y0206400D03*
X0075950Y0206300D03*
X0076050Y0206200D03*
X0076050Y0206100D03*
X0073650Y0204900D03*
X0073650Y0204800D03*
X0073650Y0204700D03*
X0073750Y0203500D03*
X0073750Y0203400D03*
X0073750Y0203300D03*
X0073750Y0203200D03*
X0073850Y0202500D03*
X0073850Y0202400D03*
X0073850Y0202300D03*
X0073850Y0202200D03*
X0073850Y0202100D03*
X0073950Y0201700D03*
X0073950Y0201600D03*
X0073950Y0201500D03*
X0073950Y0201400D03*
X0073950Y0201300D03*
X0073950Y0201200D03*
X0074050Y0201000D03*
X0074050Y0200900D03*
X0074050Y0200800D03*
X0074050Y0200700D03*
X0074050Y0200600D03*
X0074050Y0200500D03*
X0074150Y0200100D03*
X0074150Y0200000D03*
X0074150Y0199900D03*
X0074450Y0196700D03*
X0074450Y0196600D03*
X0074450Y0196500D03*
X0074450Y0196400D03*
X0076050Y0202900D03*
X0076050Y0203000D03*
X0076050Y0203100D03*
X0073650Y0208000D03*
X0073650Y0208100D03*
X0073650Y0208200D03*
X0073650Y0208300D03*
X0073650Y0208400D03*
X0073650Y0208500D03*
X0073650Y0208600D03*
X0073650Y0208700D03*
X0074250Y0219300D03*
X0074250Y0219400D03*
X0074250Y0219500D03*
X0074350Y0219700D03*
X0074350Y0219800D03*
X0074350Y0219900D03*
X0074350Y0220000D03*
X0074350Y0220100D03*
X0074350Y0220200D03*
X0074350Y0220300D03*
X0074350Y0220400D03*
X0076050Y0228400D03*
X0076050Y0228500D03*
X0076050Y0228600D03*
X0076050Y0228700D03*
X0076050Y0228800D03*
X0074050Y0240800D03*
X0074050Y0240900D03*
X0076550Y0241700D03*
X0080150Y0202900D03*
X0080150Y0202800D03*
X0079950Y0202300D03*
X0079950Y0202200D03*
X0079950Y0202100D03*
X0079950Y0202000D03*
X0077950Y0191200D03*
X0077950Y0191100D03*
X0077950Y0191000D03*
X0077950Y0190900D03*
X0077850Y0190000D03*
X0077850Y0189900D03*
X0077850Y0189800D03*
X0076350Y0189400D03*
X0074250Y0190200D03*
X0074250Y0190300D03*
X0074250Y0190400D03*
X0074250Y0190500D03*
X0074250Y0190600D03*
X0074250Y0190700D03*
X0073850Y0187000D03*
X0073850Y0186900D03*
X0080650Y0175600D03*
X0080650Y0175500D03*
X0080650Y0175400D03*
X0080650Y0175300D03*
X0080650Y0175200D03*
X0080650Y0175100D03*
X0080550Y0175000D03*
X0080550Y0174900D03*
X0080550Y0174800D03*
X0080550Y0174700D03*
X0080450Y0174500D03*
X0080450Y0174400D03*
X0080450Y0174300D03*
X0080450Y0174200D03*
X0080350Y0174100D03*
X0080350Y0174000D03*
X0080350Y0173900D03*
X0080350Y0173800D03*
X0080250Y0173700D03*
X0080250Y0173600D03*
X0080250Y0173500D03*
X0080250Y0173400D03*
X0080150Y0173300D03*
X0080150Y0173200D03*
X0080150Y0173100D03*
X0080050Y0172900D03*
X0080050Y0172800D03*
X0079950Y0172600D03*
X0079950Y0172500D03*
X0079850Y0172200D03*
X0079750Y0171900D03*
X0079650Y0171600D03*
X0079550Y0171200D03*
X0079550Y0171100D03*
X0079450Y0170900D03*
X0079450Y0170800D03*
X0079450Y0170700D03*
X0079050Y0169500D03*
X0079050Y0169400D03*
X0077750Y0163700D03*
X0077750Y0163600D03*
X0077750Y0163500D03*
X0077750Y0163400D03*
X0077750Y0163300D03*
X0077750Y0163200D03*
X0077750Y0163100D03*
X0077750Y0163000D03*
X0077750Y0162900D03*
X0077750Y0162800D03*
X0077750Y0162700D03*
X0077750Y0162600D03*
X0077750Y0162500D03*
X0077750Y0162400D03*
X0077750Y0162300D03*
X0077750Y0162200D03*
X0077750Y0162100D03*
X0077750Y0162000D03*
X0077750Y0161900D03*
X0077750Y0161800D03*
X0077750Y0161700D03*
X0077750Y0161600D03*
X0077850Y0161400D03*
X0077850Y0161300D03*
X0077850Y0161200D03*
X0077850Y0161100D03*
X0077850Y0161000D03*
X0077850Y0160900D03*
X0077850Y0160800D03*
X0077950Y0160600D03*
X0077950Y0160500D03*
X0077950Y0160400D03*
X0077950Y0160300D03*
X0077950Y0160200D03*
X0078050Y0160100D03*
X0078050Y0160000D03*
X0078050Y0159900D03*
X0078050Y0159800D03*
X0078050Y0159700D03*
X0078150Y0159600D03*
X0078150Y0159500D03*
X0078150Y0159400D03*
X0078150Y0159300D03*
X0078250Y0159100D03*
X0078250Y0159000D03*
X0078250Y0158900D03*
X0078350Y0158700D03*
X0078350Y0158600D03*
X0078350Y0158500D03*
X0078450Y0158300D03*
X0078450Y0158200D03*
X0078550Y0158000D03*
X0078550Y0157900D03*
X0078550Y0157800D03*
X0078650Y0157700D03*
X0078650Y0157600D03*
X0078650Y0157500D03*
X0078750Y0157300D03*
X0078750Y0157200D03*
X0078850Y0157000D03*
X0078850Y0156900D03*
X0078950Y0156700D03*
X0078950Y0156600D03*
X0079050Y0156400D03*
X0076450Y0169800D03*
X0076350Y0169900D03*
X0076250Y0170100D03*
X0076150Y0170300D03*
X0076150Y0170400D03*
X0076050Y0170600D03*
X0076050Y0170700D03*
X0075950Y0170800D03*
X0075950Y0170900D03*
X0075850Y0171000D03*
X0075850Y0171100D03*
X0075750Y0171300D03*
X0074350Y0168600D03*
X0074350Y0168500D03*
X0074350Y0168400D03*
X0074350Y0168300D03*
X0074250Y0167600D03*
X0074250Y0167500D03*
X0074250Y0167400D03*
X0074250Y0167300D03*
X0074250Y0167200D03*
X0074250Y0167100D03*
X0074250Y0167000D03*
X0074150Y0166600D03*
X0074150Y0166500D03*
X0074150Y0166400D03*
X0074150Y0166300D03*
X0074150Y0166200D03*
X0074150Y0166100D03*
X0074150Y0166000D03*
X0074150Y0165900D03*
X0074050Y0165500D03*
X0074050Y0165400D03*
X0074050Y0165300D03*
X0074050Y0165200D03*
X0074050Y0165100D03*
X0074050Y0165000D03*
X0073950Y0164600D03*
X0073950Y0164500D03*
X0073950Y0164400D03*
X0073950Y0164300D03*
X0073950Y0164200D03*
X0073950Y0164100D03*
X0073850Y0163700D03*
X0073850Y0163600D03*
X0073850Y0163500D03*
X0073850Y0163400D03*
X0073850Y0163300D03*
X0073750Y0162700D03*
X0073750Y0162600D03*
X0073750Y0162500D03*
X0073750Y0162400D03*
X0073650Y0161400D03*
X0073650Y0158400D03*
X0073650Y0158300D03*
X0073650Y0158200D03*
X0073650Y0158100D03*
X0073650Y0158000D03*
X0073650Y0157900D03*
X0073650Y0157800D03*
X0073650Y0157700D03*
X0073750Y0156500D03*
X0073750Y0156400D03*
X0073750Y0156300D03*
X0074050Y0153600D03*
X0080750Y0175700D03*
X0080750Y0175800D03*
X0080750Y0175900D03*
X0080750Y0176000D03*
X0080750Y0176100D03*
X0080750Y0176200D03*
X0080850Y0176500D03*
X0080850Y0176600D03*
X0080850Y0176700D03*
X0080850Y0176800D03*
X0080850Y0176900D03*
X0080850Y0177000D03*
X0080850Y0177100D03*
X0080850Y0177200D03*
X0080850Y0177300D03*
X0080850Y0178600D03*
X0080850Y0178700D03*
X0080850Y0178800D03*
X0080850Y0178900D03*
X0080850Y0179000D03*
X0080850Y0179100D03*
X0080850Y0179200D03*
X0080850Y0179300D03*
X0080850Y0179400D03*
X0080850Y0179500D03*
X0080850Y0179600D03*
X0080850Y0179700D03*
X0054150Y0213200D03*
X0053850Y0213300D03*
X0053650Y0213400D03*
X0049950Y0216900D03*
X0049950Y0217000D03*
X0049950Y0217100D03*
X0053550Y0220400D03*
X0049950Y0233200D03*
X0049950Y0233300D03*
X0049950Y0233400D03*
X0049950Y0233500D03*
X0049950Y0233600D03*
X0049950Y0233700D03*
X0049950Y0233800D03*
X0049950Y0233900D03*
X0049950Y0234000D03*
X0049950Y0234100D03*
X0049950Y0234200D03*
X0049950Y0234300D03*
X0049950Y0234400D03*
X0049950Y0234500D03*
X0049950Y0234600D03*
X0049950Y0234700D03*
X0049950Y0234800D03*
X0049950Y0234900D03*
X0049950Y0235000D03*
X0049950Y0235100D03*
X0049950Y0235200D03*
X0049950Y0235300D03*
X0049950Y0235400D03*
X0049950Y0235500D03*
X0049950Y0235600D03*
X0049950Y0235700D03*
X0049950Y0235800D03*
X0049950Y0235900D03*
X0049950Y0236000D03*
X0049950Y0236100D03*
X0049950Y0236200D03*
X0049950Y0236300D03*
X0049950Y0236400D03*
X0049950Y0236500D03*
X0049950Y0236600D03*
X0049950Y0236700D03*
X0049950Y0236800D03*
X0049950Y0236900D03*
X0049950Y0237000D03*
X0049950Y0237100D03*
X0049950Y0237200D03*
X0049950Y0237300D03*
X0049950Y0237400D03*
X0049950Y0237500D03*
X0049950Y0237600D03*
X0049950Y0237700D03*
X0049950Y0237800D03*
X0049950Y0237900D03*
X0049950Y0238000D03*
X0049950Y0238100D03*
X0049950Y0238200D03*
X0049950Y0238300D03*
X0049950Y0238400D03*
X0049950Y0238500D03*
X0049950Y0238600D03*
X0049950Y0238700D03*
X0049950Y0238800D03*
X0049950Y0238900D03*
X0049950Y0239000D03*
X0049950Y0239100D03*
X0049950Y0239200D03*
X0049950Y0239300D03*
X0049950Y0239400D03*
X0049950Y0239500D03*
X0049950Y0239600D03*
X0049950Y0239700D03*
X0049950Y0239800D03*
X0049950Y0239900D03*
X0049950Y0240000D03*
X0049950Y0240100D03*
X0049950Y0240200D03*
X0049950Y0240300D03*
X0049950Y0240400D03*
X0049950Y0240500D03*
X0049950Y0240600D03*
X0049950Y0240700D03*
X0049950Y0240800D03*
X0049950Y0240900D03*
X0049950Y0241000D03*
X0049950Y0241100D03*
X0049950Y0241200D03*
X0049950Y0241300D03*
X0049950Y0241400D03*
X0049950Y0241500D03*
X0049950Y0241600D03*
X0049950Y0241700D03*
X0049950Y0241800D03*
X0049950Y0241900D03*
X0049950Y0242000D03*
X0049950Y0242100D03*
X0049950Y0242200D03*
X0049950Y0242300D03*
X0049950Y0242400D03*
X0049950Y0242500D03*
X0049950Y0242600D03*
X0049950Y0242700D03*
X0049950Y0242800D03*
X0049950Y0242900D03*
X0049950Y0243000D03*
X0049950Y0243100D03*
X0049950Y0243200D03*
X0049950Y0243300D03*
X0049950Y0243400D03*
X0049950Y0243500D03*
X0049950Y0243600D03*
X0049950Y0243700D03*
X0049950Y0243800D03*
X0049950Y0243900D03*
X0049950Y0244000D03*
X0049950Y0244100D03*
X0049950Y0244200D03*
X0049950Y0244300D03*
X0049950Y0244400D03*
X0049950Y0244500D03*
X0049950Y0244600D03*
X0049950Y0244700D03*
X0049950Y0244800D03*
X0049950Y0244900D03*
X0049950Y0245000D03*
X0049950Y0245100D03*
X0049950Y0245200D03*
X0049950Y0245300D03*
X0049950Y0245400D03*
X0049950Y0245500D03*
X0049950Y0245600D03*
X0049950Y0245700D03*
X0049950Y0245800D03*
X0049950Y0245900D03*
X0049950Y0246000D03*
X0049950Y0246100D03*
X0049950Y0246200D03*
X0049950Y0246300D03*
X0049950Y0246400D03*
X0049950Y0246500D03*
X0049950Y0246600D03*
X0049950Y0246700D03*
X0049950Y0246800D03*
X0049950Y0246900D03*
X0049950Y0247000D03*
X0049950Y0247100D03*
X0049950Y0247200D03*
X0049950Y0247300D03*
X0049950Y0247400D03*
X0049950Y0247500D03*
X0049950Y0247600D03*
X0049950Y0247700D03*
X0049950Y0247800D03*
X0049950Y0247900D03*
X0049950Y0248000D03*
X0049950Y0248100D03*
X0049950Y0248200D03*
X0049950Y0248300D03*
X0049950Y0248400D03*
X0049950Y0248500D03*
X0049950Y0248600D03*
X0049950Y0248700D03*
X0049950Y0248800D03*
X0049950Y0248900D03*
X0049950Y0249000D03*
X0049950Y0249100D03*
X0049950Y0249200D03*
X0049950Y0249300D03*
X0049950Y0249400D03*
X0049950Y0249500D03*
X0049950Y0249600D03*
X0049950Y0249700D03*
X0049950Y0249800D03*
X0049950Y0249900D03*
X0049950Y0250000D03*
X0049950Y0250100D03*
X0049950Y0250200D03*
X0049950Y0250300D03*
X0049950Y0250400D03*
X0049950Y0250500D03*
X0049950Y0250600D03*
X0049950Y0250700D03*
X0049950Y0250800D03*
X0049950Y0250900D03*
X0049950Y0251000D03*
X0049950Y0251100D03*
X0050050Y0255200D03*
X0050050Y0255300D03*
X0050050Y0255400D03*
X0050050Y0255500D03*
X0050050Y0255600D03*
X0050050Y0255700D03*
X0050050Y0255800D03*
X0050050Y0255900D03*
X0050050Y0256000D03*
X0050050Y0256100D03*
X0050150Y0256400D03*
X0050150Y0256500D03*
X0050150Y0256600D03*
X0050150Y0256700D03*
X0050150Y0256800D03*
X0050150Y0256900D03*
X0050250Y0257000D03*
X0050250Y0257100D03*
X0050250Y0257200D03*
X0050250Y0257300D03*
X0050250Y0257400D03*
X0050350Y0257600D03*
X0050350Y0257700D03*
X0050350Y0257800D03*
X0050350Y0257900D03*
X0050350Y0258000D03*
X0050450Y0258200D03*
X0050450Y0258300D03*
X0050450Y0258400D03*
X0050450Y0258500D03*
X0050550Y0258700D03*
X0050550Y0258800D03*
X0050550Y0258900D03*
X0050650Y0259200D03*
X0050650Y0259300D03*
X0050750Y0259600D03*
X0050850Y0259900D03*
X0050850Y0260000D03*
X0050950Y0260300D03*
X0051050Y0260600D03*
X0051150Y0260900D03*
X0051250Y0261200D03*
X0051450Y0261700D03*
X0051650Y0262200D03*
D34*
X0050300Y0257500D03*
X0050000Y0255100D03*
X0050000Y0255000D03*
X0050000Y0254900D03*
X0050000Y0254800D03*
X0050000Y0254700D03*
X0050000Y0254600D03*
X0050000Y0254500D03*
X0050000Y0254400D03*
X0050000Y0254300D03*
X0050000Y0254200D03*
X0050000Y0254100D03*
X0050000Y0254000D03*
X0050000Y0253900D03*
X0050000Y0253800D03*
X0050000Y0253700D03*
X0050000Y0253600D03*
X0050000Y0253500D03*
X0050000Y0253400D03*
X0050000Y0253300D03*
X0050000Y0253200D03*
X0050000Y0253100D03*
X0050000Y0253000D03*
X0050000Y0252900D03*
X0050000Y0252800D03*
X0050000Y0252700D03*
X0050000Y0252600D03*
X0050000Y0252500D03*
X0050000Y0252400D03*
X0050000Y0252300D03*
X0050000Y0252200D03*
X0050000Y0252100D03*
X0050000Y0252000D03*
X0050000Y0251900D03*
X0050000Y0251800D03*
X0050000Y0251700D03*
X0050000Y0251600D03*
X0050000Y0251500D03*
X0050000Y0251400D03*
X0050000Y0251300D03*
X0050000Y0251200D03*
X0059000Y0249300D03*
X0059500Y0248600D03*
X0059600Y0248500D03*
X0059700Y0248400D03*
X0060700Y0249100D03*
X0060800Y0249000D03*
X0069500Y0249500D03*
X0072100Y0258300D03*
X0071800Y0258600D03*
X0071800Y0258700D03*
X0074200Y0261200D03*
X0076100Y0257000D03*
X0075200Y0246600D03*
X0075400Y0244600D03*
X0074000Y0241000D03*
X0073700Y0232900D03*
X0073600Y0231000D03*
X0073600Y0230900D03*
X0073600Y0230800D03*
X0073600Y0230700D03*
X0073600Y0230600D03*
X0073600Y0230500D03*
X0073600Y0230400D03*
X0073600Y0230300D03*
X0073600Y0230200D03*
X0073600Y0230100D03*
X0073600Y0230000D03*
X0073600Y0229900D03*
X0073600Y0229800D03*
X0073600Y0229700D03*
X0073600Y0229600D03*
X0073600Y0229500D03*
X0073600Y0229400D03*
X0073700Y0227500D03*
X0073800Y0226400D03*
X0076000Y0229400D03*
X0076000Y0229500D03*
X0077400Y0229500D03*
X0077400Y0229400D03*
X0077400Y0229300D03*
X0077400Y0229200D03*
X0077400Y0229100D03*
X0077400Y0229000D03*
X0077300Y0228800D03*
X0077300Y0228700D03*
X0077300Y0228600D03*
X0077300Y0228500D03*
X0077300Y0228400D03*
X0077500Y0229800D03*
X0077500Y0229900D03*
X0077500Y0230000D03*
X0077500Y0230100D03*
X0077500Y0230200D03*
X0077600Y0230700D03*
X0077600Y0230800D03*
X0077600Y0230900D03*
X0077600Y0231000D03*
X0077700Y0231600D03*
X0077700Y0231700D03*
X0077700Y0231800D03*
X0077700Y0231900D03*
X0077700Y0232000D03*
X0077700Y0237500D03*
X0078000Y0238000D03*
X0078000Y0239200D03*
X0077800Y0240100D03*
X0079200Y0240100D03*
X0079200Y0240200D03*
X0079200Y0240300D03*
X0079200Y0240400D03*
X0079200Y0240500D03*
X0079200Y0240600D03*
X0079200Y0240700D03*
X0079200Y0240000D03*
X0079200Y0239900D03*
X0079200Y0239800D03*
X0079200Y0239700D03*
X0079200Y0239600D03*
X0079200Y0239500D03*
X0079200Y0239400D03*
X0079200Y0239300D03*
X0079200Y0239200D03*
X0079200Y0238900D03*
X0079200Y0238800D03*
X0079200Y0238300D03*
X0079200Y0237800D03*
X0080900Y0238000D03*
X0080900Y0238100D03*
X0080900Y0238200D03*
X0080900Y0238300D03*
X0080900Y0238400D03*
X0080900Y0238500D03*
X0080900Y0238600D03*
X0080900Y0238700D03*
X0080800Y0239100D03*
X0080800Y0239200D03*
X0080800Y0239300D03*
X0080800Y0239400D03*
X0080800Y0239500D03*
X0080700Y0239800D03*
X0080700Y0239900D03*
X0080700Y0240000D03*
X0080600Y0240300D03*
X0080900Y0236300D03*
X0080900Y0236200D03*
X0080900Y0236100D03*
X0080900Y0236000D03*
X0080900Y0235900D03*
X0080800Y0235200D03*
X0080800Y0235100D03*
X0080700Y0234600D03*
X0083800Y0246200D03*
X0086000Y0252200D03*
X0087600Y0253700D03*
X0088800Y0250700D03*
X0088800Y0250100D03*
X0087000Y0249300D03*
X0088800Y0246400D03*
X0088400Y0257100D03*
X0087400Y0258800D03*
X0087400Y0258900D03*
X0087400Y0259000D03*
X0087400Y0259100D03*
X0087300Y0259200D03*
X0087300Y0259300D03*
X0086800Y0260700D03*
X0089400Y0259500D03*
X0089500Y0259400D03*
X0090100Y0258200D03*
X0090100Y0258100D03*
X0082300Y0257000D03*
X0081600Y0267400D03*
X0077200Y0269700D03*
X0074800Y0268800D03*
X0071900Y0269500D03*
X0071800Y0269700D03*
X0071700Y0269800D03*
X0077700Y0221600D03*
X0077700Y0221500D03*
X0077700Y0221400D03*
X0077700Y0221300D03*
X0077700Y0221200D03*
X0077700Y0221100D03*
X0077700Y0221000D03*
X0077700Y0220900D03*
X0077700Y0220800D03*
X0077700Y0220700D03*
X0077700Y0220600D03*
X0077800Y0220100D03*
X0077800Y0220000D03*
X0077800Y0219900D03*
X0077800Y0219800D03*
X0077900Y0219400D03*
X0077900Y0219300D03*
X0077900Y0219200D03*
X0078000Y0218800D03*
X0078000Y0218700D03*
X0078100Y0218400D03*
X0078100Y0218300D03*
X0078200Y0218000D03*
X0078200Y0217900D03*
X0078300Y0217600D03*
X0078300Y0217500D03*
X0078400Y0217300D03*
X0078400Y0217200D03*
X0078500Y0217000D03*
X0078500Y0216900D03*
X0078600Y0216600D03*
X0076300Y0216400D03*
X0076300Y0216300D03*
X0076300Y0216200D03*
X0076300Y0216100D03*
X0076300Y0216000D03*
X0076300Y0215900D03*
X0076300Y0215800D03*
X0076400Y0215500D03*
X0076400Y0215400D03*
X0076400Y0215300D03*
X0076400Y0215200D03*
X0076400Y0215100D03*
X0076400Y0215000D03*
X0076400Y0214900D03*
X0076400Y0214800D03*
X0076500Y0214500D03*
X0076500Y0214400D03*
X0076500Y0214300D03*
X0076500Y0214200D03*
X0076500Y0214100D03*
X0076500Y0214000D03*
X0076500Y0213900D03*
X0076600Y0213600D03*
X0076600Y0213500D03*
X0076600Y0213400D03*
X0076600Y0213300D03*
X0076600Y0213200D03*
X0076600Y0213100D03*
X0076600Y0213000D03*
X0076700Y0212800D03*
X0076700Y0212700D03*
X0076700Y0212600D03*
X0076700Y0212500D03*
X0076700Y0212400D03*
X0076700Y0212300D03*
X0076700Y0212200D03*
X0076800Y0212100D03*
X0076800Y0212000D03*
X0076800Y0211900D03*
X0076800Y0211800D03*
X0076800Y0211700D03*
X0076800Y0211600D03*
X0076800Y0211500D03*
X0076800Y0211400D03*
X0076700Y0211200D03*
X0077100Y0210300D03*
X0077100Y0210200D03*
X0077200Y0210000D03*
X0077200Y0209900D03*
X0077200Y0209800D03*
X0077200Y0209700D03*
X0077300Y0209400D03*
X0077300Y0209300D03*
X0077300Y0209200D03*
X0077300Y0209100D03*
X0077400Y0208800D03*
X0077400Y0208700D03*
X0077400Y0208600D03*
X0077400Y0208500D03*
X0077500Y0208100D03*
X0077500Y0208000D03*
X0077500Y0207900D03*
X0077500Y0207800D03*
X0077600Y0207400D03*
X0077600Y0207300D03*
X0077600Y0207200D03*
X0077600Y0207100D03*
X0077700Y0206700D03*
X0077700Y0206600D03*
X0077700Y0206500D03*
X0077700Y0206400D03*
X0077700Y0206300D03*
X0077700Y0206200D03*
X0077700Y0206100D03*
X0077800Y0205700D03*
X0077800Y0205600D03*
X0077800Y0205500D03*
X0077800Y0205400D03*
X0077800Y0205300D03*
X0077800Y0205200D03*
X0077800Y0205100D03*
X0076000Y0202800D03*
X0076000Y0202700D03*
X0073800Y0202700D03*
X0073800Y0202800D03*
X0073800Y0202900D03*
X0073800Y0203000D03*
X0073800Y0203100D03*
X0073800Y0202600D03*
X0073900Y0202000D03*
X0073900Y0201900D03*
X0073900Y0201800D03*
X0074000Y0201100D03*
X0073700Y0203600D03*
X0073700Y0203700D03*
X0073700Y0203800D03*
X0073700Y0203900D03*
X0073700Y0204000D03*
X0073700Y0204100D03*
X0073700Y0204200D03*
X0073700Y0204300D03*
X0073700Y0204400D03*
X0073700Y0204500D03*
X0073700Y0204600D03*
X0073600Y0205000D03*
X0073600Y0205100D03*
X0073600Y0205200D03*
X0073600Y0205300D03*
X0073600Y0205400D03*
X0073600Y0205500D03*
X0073600Y0205600D03*
X0073600Y0205700D03*
X0073600Y0205800D03*
X0073600Y0205900D03*
X0073600Y0206000D03*
X0073600Y0206100D03*
X0073600Y0206200D03*
X0073600Y0206300D03*
X0073600Y0206400D03*
X0073600Y0206500D03*
X0073600Y0206600D03*
X0073600Y0206700D03*
X0073600Y0206800D03*
X0073600Y0206900D03*
X0073600Y0207000D03*
X0073600Y0207100D03*
X0073600Y0207200D03*
X0073600Y0207300D03*
X0073600Y0207400D03*
X0073600Y0207500D03*
X0073600Y0207600D03*
X0073600Y0207700D03*
X0073600Y0207800D03*
X0073600Y0207900D03*
X0073700Y0208800D03*
X0073700Y0208900D03*
X0073700Y0209000D03*
X0073700Y0209100D03*
X0073700Y0209200D03*
X0076200Y0216900D03*
X0076200Y0220700D03*
X0076300Y0221100D03*
X0080000Y0202600D03*
X0080000Y0202500D03*
X0080000Y0202400D03*
X0077900Y0190800D03*
X0077900Y0190700D03*
X0077900Y0190600D03*
X0077900Y0190500D03*
X0076500Y0190900D03*
X0076500Y0191000D03*
X0076500Y0191100D03*
X0076400Y0190400D03*
X0076400Y0190300D03*
X0076400Y0190200D03*
X0076400Y0190100D03*
X0076400Y0190000D03*
X0076400Y0189900D03*
X0076400Y0189800D03*
X0076400Y0189700D03*
X0076400Y0189600D03*
X0076400Y0189500D03*
X0078400Y0187900D03*
X0078400Y0187800D03*
X0078400Y0187700D03*
X0078500Y0187600D03*
X0073800Y0186800D03*
X0073800Y0186700D03*
X0073800Y0186600D03*
X0073800Y0186500D03*
X0073800Y0186400D03*
X0073700Y0186300D03*
X0073700Y0186200D03*
X0073700Y0186100D03*
X0073700Y0186000D03*
X0073700Y0185900D03*
X0073700Y0185800D03*
X0073700Y0185700D03*
X0073700Y0185600D03*
X0073600Y0185000D03*
X0073600Y0184900D03*
X0073600Y0184800D03*
X0073600Y0184700D03*
X0073600Y0184600D03*
X0073600Y0184500D03*
X0073600Y0184400D03*
X0073600Y0184300D03*
X0073600Y0181400D03*
X0073600Y0181300D03*
X0073600Y0181200D03*
X0073600Y0181100D03*
X0073600Y0181000D03*
X0073600Y0180900D03*
X0076100Y0170500D03*
X0076200Y0170200D03*
X0076300Y0170000D03*
X0074400Y0169000D03*
X0074400Y0168900D03*
X0074400Y0168800D03*
X0074400Y0168700D03*
X0074300Y0168200D03*
X0074300Y0168100D03*
X0074300Y0168000D03*
X0074300Y0167900D03*
X0074300Y0167800D03*
X0074300Y0167700D03*
X0074200Y0166900D03*
X0074200Y0166800D03*
X0074200Y0166700D03*
X0074100Y0165800D03*
X0074100Y0165700D03*
X0074100Y0165600D03*
X0074000Y0164900D03*
X0074000Y0164800D03*
X0074000Y0164700D03*
X0073900Y0164000D03*
X0073900Y0163900D03*
X0073900Y0163800D03*
X0073800Y0163200D03*
X0073800Y0163100D03*
X0073800Y0163000D03*
X0073800Y0162900D03*
X0073800Y0162800D03*
X0073700Y0162300D03*
X0073700Y0162200D03*
X0073700Y0162100D03*
X0073700Y0162000D03*
X0073700Y0161900D03*
X0073700Y0161800D03*
X0073700Y0161700D03*
X0073700Y0161600D03*
X0073700Y0161500D03*
X0073600Y0161300D03*
X0073600Y0161200D03*
X0073600Y0161100D03*
X0073600Y0161000D03*
X0073600Y0160900D03*
X0073600Y0160800D03*
X0073600Y0160700D03*
X0073600Y0160600D03*
X0073600Y0160500D03*
X0073600Y0160400D03*
X0073600Y0160300D03*
X0073600Y0160200D03*
X0073600Y0160100D03*
X0073600Y0160000D03*
X0073600Y0159900D03*
X0073600Y0159800D03*
X0073600Y0159700D03*
X0073600Y0159600D03*
X0073600Y0159500D03*
X0073600Y0159400D03*
X0073600Y0159300D03*
X0073600Y0159200D03*
X0073600Y0159100D03*
X0073600Y0159000D03*
X0073600Y0158900D03*
X0073600Y0158800D03*
X0073600Y0158700D03*
X0073600Y0158600D03*
X0073600Y0158500D03*
X0073700Y0157600D03*
X0073700Y0157500D03*
X0073700Y0157400D03*
X0073700Y0157300D03*
X0073700Y0157200D03*
X0073700Y0157100D03*
X0073700Y0157000D03*
X0073700Y0156900D03*
X0073700Y0156800D03*
X0073700Y0156700D03*
X0073700Y0156600D03*
X0073800Y0156200D03*
X0073800Y0156100D03*
X0073800Y0156000D03*
X0073800Y0155900D03*
X0073800Y0155800D03*
X0073800Y0155700D03*
X0073800Y0155600D03*
X0073800Y0155500D03*
X0073800Y0155400D03*
X0073800Y0155300D03*
X0073800Y0155200D03*
X0073800Y0155100D03*
X0073800Y0155000D03*
X0073900Y0154800D03*
X0073900Y0154700D03*
X0073900Y0154600D03*
X0073900Y0154500D03*
X0073900Y0154400D03*
X0073900Y0154300D03*
X0073900Y0154200D03*
X0073900Y0154100D03*
X0073900Y0154000D03*
X0073900Y0153900D03*
X0074000Y0153800D03*
X0074000Y0153700D03*
X0077900Y0160700D03*
X0077800Y0161500D03*
X0079000Y0169200D03*
X0079000Y0169300D03*
X0080800Y0176300D03*
X0080800Y0176400D03*
X0080900Y0177400D03*
X0080900Y0177500D03*
X0080900Y0177600D03*
X0080900Y0177700D03*
X0080900Y0177800D03*
X0080900Y0177900D03*
X0080900Y0178000D03*
X0080900Y0178100D03*
X0080900Y0178200D03*
X0080900Y0178300D03*
X0080900Y0178400D03*
X0080900Y0178500D03*
X0080800Y0179800D03*
X0080800Y0179900D03*
X0080800Y0180000D03*
X0080800Y0180100D03*
X0080800Y0180200D03*
X0080800Y0180300D03*
X0092300Y0213500D03*
X0092500Y0213600D03*
X0093000Y0213800D03*
X0093200Y0213900D03*
X0096000Y0216800D03*
X0096000Y0216900D03*
X0096000Y0217000D03*
X0096000Y0217100D03*
X0096000Y0217200D03*
X0093300Y0219900D03*
X0093100Y0220000D03*
X0053300Y0220300D03*
X0053100Y0220200D03*
X0051700Y0219400D03*
X0051600Y0219300D03*
X0049900Y0216800D03*
X0052900Y0213700D03*
X0053400Y0213500D03*
D35*
X0053150Y0213600D03*
X0052750Y0213800D03*
X0051950Y0214200D03*
X0051850Y0214300D03*
X0051650Y0214400D03*
X0051550Y0214500D03*
X0051450Y0214600D03*
X0051250Y0214700D03*
X0051150Y0214800D03*
X0049950Y0216600D03*
X0049950Y0216700D03*
X0051850Y0219500D03*
X0051950Y0219600D03*
X0052150Y0219700D03*
X0052250Y0219800D03*
X0052450Y0219900D03*
X0052650Y0220000D03*
X0052850Y0220100D03*
X0063650Y0247400D03*
X0065650Y0249000D03*
X0066550Y0249600D03*
X0071950Y0258400D03*
X0071850Y0258500D03*
X0071550Y0261300D03*
X0074150Y0261300D03*
X0075150Y0261800D03*
X0075050Y0268700D03*
X0071850Y0269600D03*
X0061950Y0251300D03*
X0060850Y0248900D03*
X0059750Y0248300D03*
X0058850Y0249400D03*
X0058350Y0250600D03*
X0056750Y0252300D03*
X0073950Y0241200D03*
X0073950Y0241100D03*
X0076450Y0241600D03*
X0077750Y0241700D03*
X0079150Y0241300D03*
X0079250Y0238200D03*
X0079250Y0238100D03*
X0079250Y0238000D03*
X0079250Y0237700D03*
X0079250Y0237600D03*
X0079250Y0237500D03*
X0079250Y0237400D03*
X0079250Y0237300D03*
X0079250Y0237200D03*
X0079250Y0237100D03*
X0079250Y0237000D03*
X0079250Y0236900D03*
X0079250Y0236800D03*
X0077750Y0237600D03*
X0077950Y0238200D03*
X0077950Y0238300D03*
X0077750Y0232500D03*
X0077750Y0232400D03*
X0077750Y0232300D03*
X0077750Y0232200D03*
X0077750Y0232100D03*
X0077650Y0231500D03*
X0077650Y0231400D03*
X0077650Y0231300D03*
X0077650Y0231200D03*
X0077650Y0231100D03*
X0077550Y0230600D03*
X0077550Y0230500D03*
X0077550Y0230400D03*
X0077550Y0230300D03*
X0077450Y0229700D03*
X0077450Y0229600D03*
X0079550Y0226400D03*
X0079550Y0226300D03*
X0079650Y0225300D03*
X0079650Y0225200D03*
X0079650Y0225100D03*
X0079650Y0225000D03*
X0079650Y0224900D03*
X0079650Y0224800D03*
X0079650Y0224700D03*
X0079650Y0224600D03*
X0079650Y0224500D03*
X0079650Y0224400D03*
X0079650Y0224300D03*
X0079650Y0224200D03*
X0079650Y0224100D03*
X0079650Y0224000D03*
X0079650Y0223900D03*
X0079650Y0223800D03*
X0079650Y0223700D03*
X0079650Y0223600D03*
X0079650Y0223500D03*
X0079750Y0222300D03*
X0079750Y0222200D03*
X0079750Y0222100D03*
X0079750Y0222000D03*
X0079750Y0221900D03*
X0079750Y0221800D03*
X0079750Y0221700D03*
X0079750Y0221600D03*
X0079750Y0221500D03*
X0079750Y0221400D03*
X0079750Y0221300D03*
X0079750Y0221200D03*
X0079750Y0221100D03*
X0079750Y0221000D03*
X0079750Y0220900D03*
X0079750Y0220800D03*
X0079750Y0220700D03*
X0079750Y0220600D03*
X0079850Y0219300D03*
X0079850Y0219200D03*
X0079850Y0219100D03*
X0079850Y0219000D03*
X0079850Y0218900D03*
X0079850Y0218800D03*
X0079850Y0218700D03*
X0079850Y0218600D03*
X0079850Y0218500D03*
X0079850Y0218400D03*
X0079850Y0218300D03*
X0079850Y0218200D03*
X0079850Y0218100D03*
X0079850Y0218000D03*
X0079850Y0217900D03*
X0079850Y0217800D03*
X0077050Y0210400D03*
X0077150Y0210100D03*
X0077250Y0209600D03*
X0077250Y0209500D03*
X0077350Y0209000D03*
X0077350Y0208900D03*
X0077450Y0208400D03*
X0077450Y0208300D03*
X0077450Y0208200D03*
X0077550Y0207700D03*
X0077550Y0207600D03*
X0077550Y0207500D03*
X0077650Y0207000D03*
X0077650Y0206900D03*
X0077650Y0206800D03*
X0077750Y0206000D03*
X0077750Y0205900D03*
X0077750Y0205800D03*
X0075950Y0202600D03*
X0075950Y0202500D03*
X0075850Y0202400D03*
X0075850Y0202300D03*
X0079850Y0194100D03*
X0079850Y0194000D03*
X0079850Y0193900D03*
X0079850Y0193800D03*
X0077850Y0190400D03*
X0077850Y0190300D03*
X0077850Y0190200D03*
X0077850Y0190100D03*
X0076450Y0190500D03*
X0076450Y0190600D03*
X0076450Y0190700D03*
X0076450Y0190800D03*
X0076550Y0191200D03*
X0076550Y0191300D03*
X0076550Y0191400D03*
X0079750Y0189200D03*
X0079750Y0189100D03*
X0079750Y0189000D03*
X0079750Y0188900D03*
X0079750Y0188800D03*
X0079650Y0187800D03*
X0079650Y0187700D03*
X0079650Y0187600D03*
X0080850Y0180400D03*
X0079350Y0179700D03*
X0075650Y0177300D03*
X0075650Y0177200D03*
X0074850Y0180800D03*
X0074850Y0180900D03*
X0074950Y0181000D03*
X0074950Y0181100D03*
X0073650Y0180800D03*
X0073550Y0181500D03*
X0073550Y0181600D03*
X0073550Y0181700D03*
X0073550Y0181800D03*
X0073550Y0181900D03*
X0073550Y0182000D03*
X0073550Y0182100D03*
X0073550Y0182200D03*
X0073550Y0182300D03*
X0073550Y0182400D03*
X0073550Y0182500D03*
X0073550Y0182600D03*
X0073550Y0182700D03*
X0073550Y0182800D03*
X0073550Y0182900D03*
X0073550Y0183000D03*
X0073550Y0183100D03*
X0073550Y0183200D03*
X0073550Y0183300D03*
X0073550Y0183400D03*
X0073550Y0183500D03*
X0073550Y0183600D03*
X0073550Y0183700D03*
X0073550Y0183800D03*
X0073550Y0183900D03*
X0073550Y0184000D03*
X0073550Y0184100D03*
X0073550Y0184200D03*
X0073650Y0185100D03*
X0073650Y0185200D03*
X0073650Y0185300D03*
X0073650Y0185400D03*
X0073650Y0185500D03*
X0073050Y0168500D03*
X0072950Y0168100D03*
X0073850Y0154900D03*
X0092750Y0213700D03*
X0093450Y0214000D03*
X0093650Y0214100D03*
X0093950Y0214300D03*
X0094150Y0214400D03*
X0096050Y0216500D03*
X0096050Y0216600D03*
X0096050Y0216700D03*
X0093450Y0219800D03*
X0084750Y0248100D03*
X0084750Y0250300D03*
X0086750Y0250300D03*
X0087150Y0248900D03*
X0088750Y0250000D03*
X0087650Y0253600D03*
X0086650Y0254200D03*
X0087250Y0259400D03*
X0090050Y0258000D03*
X0090050Y0257900D03*
X0091150Y0255800D03*
X0091150Y0255700D03*
X0077650Y0247700D03*
D36*
X0076050Y0245100D03*
X0076850Y0242800D03*
X0076850Y0242700D03*
X0081950Y0248600D03*
X0083850Y0248800D03*
X0087350Y0246000D03*
X0081750Y0258800D03*
X0080850Y0260700D03*
X0080850Y0260800D03*
X0080850Y0262100D03*
X0080850Y0262200D03*
X0080850Y0262300D03*
X0080850Y0262400D03*
X0080850Y0262500D03*
X0080750Y0263400D03*
X0080650Y0263500D03*
X0080150Y0264500D03*
X0080150Y0264600D03*
X0080050Y0264800D03*
X0080050Y0264900D03*
X0083450Y0264500D03*
X0083450Y0264400D03*
X0084250Y0261000D03*
X0084150Y0260900D03*
X0078050Y0258200D03*
X0074050Y0257000D03*
X0074050Y0256900D03*
X0074050Y0256800D03*
X0074050Y0256700D03*
X0074050Y0256600D03*
X0074150Y0256400D03*
X0074150Y0256300D03*
X0074150Y0256200D03*
X0071650Y0251300D03*
X0071650Y0251200D03*
X0072250Y0270300D03*
X0062650Y0274100D03*
X0062450Y0274000D03*
X0062250Y0273900D03*
X0083350Y0274100D03*
X0083550Y0274000D03*
X0083750Y0273900D03*
X0083950Y0211400D03*
X0076950Y0205000D03*
X0076950Y0204900D03*
X0076950Y0204800D03*
X0076950Y0204700D03*
X0076950Y0204600D03*
X0076950Y0204500D03*
X0077150Y0189300D03*
X0077150Y0189200D03*
X0075950Y0187000D03*
X0076650Y0177400D03*
X0074450Y0172700D03*
X0074450Y0172600D03*
X0077650Y0167300D03*
X0077650Y0167200D03*
X0077750Y0167000D03*
X0077850Y0166800D03*
X0078650Y0165000D03*
X0078650Y0164900D03*
X0078650Y0164800D03*
X0078650Y0164700D03*
X0078650Y0164600D03*
X0061750Y0211400D03*
X0050650Y0219200D03*
D37*
X0060600Y0248500D03*
X0058400Y0250000D03*
X0065200Y0250500D03*
X0067600Y0250600D03*
X0073300Y0246000D03*
X0076400Y0247800D03*
X0078000Y0241400D03*
X0078100Y0240600D03*
X0076700Y0239900D03*
X0084300Y0247600D03*
X0084700Y0247900D03*
X0085900Y0246400D03*
X0086000Y0246300D03*
X0086900Y0246200D03*
X0088700Y0249500D03*
X0090700Y0253800D03*
X0090700Y0253900D03*
X0091100Y0256400D03*
X0090000Y0257100D03*
X0090000Y0257200D03*
X0090000Y0257300D03*
X0088700Y0257600D03*
X0086900Y0259700D03*
X0086500Y0261400D03*
X0086500Y0261500D03*
X0081400Y0267900D03*
X0073700Y0261700D03*
X0073600Y0261800D03*
X0071300Y0269200D03*
X0071500Y0269300D03*
X0076700Y0194300D03*
X0076700Y0194200D03*
X0076700Y0194100D03*
X0076600Y0193700D03*
X0076300Y0191800D03*
X0076300Y0191700D03*
X0080700Y0182300D03*
X0080700Y0182200D03*
X0080700Y0182100D03*
X0080700Y0182000D03*
X0075500Y0175800D03*
X0079300Y0169100D03*
X0072700Y0167000D03*
D38*
X0074500Y0172500D03*
X0077500Y0168600D03*
X0077600Y0167500D03*
X0077600Y0167400D03*
X0077200Y0188800D03*
X0077200Y0188900D03*
X0077200Y0189000D03*
X0077200Y0189100D03*
X0077000Y0203500D03*
X0077000Y0203600D03*
X0077000Y0203700D03*
X0077000Y0203800D03*
X0077000Y0203900D03*
X0077000Y0204000D03*
X0077000Y0204100D03*
X0077000Y0204200D03*
X0077000Y0204300D03*
X0077000Y0204400D03*
X0076200Y0245200D03*
X0076300Y0245300D03*
X0077600Y0248100D03*
X0079800Y0256100D03*
X0081800Y0258900D03*
X0080900Y0260600D03*
X0080900Y0262600D03*
X0080900Y0262700D03*
X0080900Y0262800D03*
X0080900Y0262900D03*
X0080900Y0263000D03*
X0080900Y0263100D03*
X0080800Y0263200D03*
X0080800Y0263300D03*
X0080000Y0265000D03*
X0080000Y0265100D03*
X0084300Y0261300D03*
X0084300Y0261200D03*
X0084300Y0261100D03*
X0083100Y0274200D03*
X0074100Y0256500D03*
X0074200Y0256100D03*
X0074200Y0256000D03*
X0074200Y0255900D03*
X0068500Y0261300D03*
X0068400Y0261400D03*
X0064900Y0267900D03*
X0069500Y0269800D03*
X0063100Y0274300D03*
X0062900Y0274200D03*
X0069600Y0246100D03*
X0082900Y0245700D03*
X0085800Y0246900D03*
D39*
X0085750Y0246800D03*
X0084850Y0244800D03*
X0081750Y0259000D03*
X0080950Y0260500D03*
X0079950Y0265200D03*
X0077850Y0258300D03*
X0074250Y0255800D03*
X0071650Y0251100D03*
X0076550Y0245600D03*
X0076450Y0245500D03*
X0076350Y0245400D03*
X0068350Y0261500D03*
X0064850Y0267800D03*
X0063350Y0274400D03*
X0063550Y0274500D03*
X0064550Y0250700D03*
X0062250Y0222500D03*
X0076950Y0203400D03*
X0076950Y0203300D03*
X0076950Y0203200D03*
X0077250Y0188700D03*
X0077250Y0188600D03*
X0077250Y0188500D03*
X0077250Y0188400D03*
X0074450Y0172400D03*
X0074450Y0172300D03*
X0077550Y0167700D03*
X0077550Y0167600D03*
X0083350Y0222500D03*
X0082950Y0274300D03*
D40*
X0082700Y0274400D03*
X0082500Y0274500D03*
X0078600Y0267000D03*
X0079900Y0265400D03*
X0079900Y0265300D03*
X0081000Y0260400D03*
X0081100Y0260300D03*
X0081100Y0260200D03*
X0081800Y0259100D03*
X0081300Y0248400D03*
X0081100Y0248300D03*
X0080900Y0248200D03*
X0080700Y0248100D03*
X0080500Y0248000D03*
X0080300Y0247900D03*
X0076700Y0245700D03*
X0074200Y0255600D03*
X0074200Y0255700D03*
X0071600Y0251000D03*
X0068600Y0261200D03*
X0064800Y0267700D03*
X0068600Y0269400D03*
X0063800Y0274600D03*
X0075200Y0219200D03*
X0075200Y0219100D03*
X0083200Y0211300D03*
X0078900Y0200800D03*
X0078900Y0200700D03*
X0077300Y0188300D03*
X0077300Y0188200D03*
X0077300Y0188100D03*
X0074500Y0172200D03*
X0074500Y0172100D03*
X0077500Y0168800D03*
X0077500Y0168700D03*
X0077600Y0168000D03*
X0077600Y0167900D03*
X0077600Y0167800D03*
X0078800Y0171800D03*
X0062500Y0211300D03*
D41*
X0063050Y0222600D03*
X0070950Y0245000D03*
X0070350Y0249800D03*
X0071550Y0250900D03*
X0074250Y0255300D03*
X0074250Y0255400D03*
X0074250Y0255500D03*
X0068750Y0261000D03*
X0068650Y0261100D03*
X0064150Y0247700D03*
X0075150Y0219000D03*
X0075150Y0218900D03*
X0075150Y0218800D03*
X0075150Y0218700D03*
X0075150Y0218600D03*
X0075150Y0218500D03*
X0075150Y0218400D03*
X0075150Y0218300D03*
X0078850Y0200600D03*
X0078850Y0200500D03*
X0078850Y0200400D03*
X0078850Y0200300D03*
X0078850Y0200200D03*
X0078850Y0200100D03*
X0078850Y0200000D03*
X0078850Y0199900D03*
X0078850Y0199800D03*
X0078850Y0199700D03*
X0078850Y0199600D03*
X0078850Y0199500D03*
X0078850Y0199400D03*
X0078850Y0199300D03*
X0078750Y0194400D03*
X0078750Y0194300D03*
X0078750Y0194200D03*
X0077250Y0188000D03*
X0077650Y0168300D03*
X0077650Y0168200D03*
X0077650Y0168100D03*
X0076850Y0245800D03*
X0081550Y0248500D03*
X0081750Y0259200D03*
X0081650Y0259400D03*
X0081450Y0259700D03*
X0081350Y0259800D03*
X0081250Y0260000D03*
X0081150Y0260100D03*
X0079850Y0265500D03*
X0079750Y0265700D03*
X0079450Y0266100D03*
X0079050Y0266600D03*
X0078950Y0266700D03*
X0078850Y0266800D03*
X0078750Y0266900D03*
X0081950Y0274700D03*
X0082250Y0274600D03*
D42*
X0080650Y0268900D03*
X0084750Y0264700D03*
X0086350Y0262100D03*
X0087150Y0258000D03*
X0088850Y0256100D03*
X0089950Y0256700D03*
X0090950Y0256700D03*
X0090950Y0256800D03*
X0091550Y0255500D03*
X0090650Y0254200D03*
X0087650Y0253300D03*
X0085750Y0252400D03*
X0088750Y0249200D03*
X0078750Y0259500D03*
X0078750Y0259600D03*
X0078750Y0259700D03*
X0073250Y0262100D03*
X0073150Y0262400D03*
X0067750Y0250400D03*
X0072750Y0246600D03*
X0077550Y0247600D03*
X0060650Y0248800D03*
X0060550Y0248600D03*
X0080650Y0182700D03*
X0078650Y0175500D03*
X0078650Y0175400D03*
X0079350Y0168900D03*
X0079350Y0168800D03*
X0079350Y0168700D03*
X0079250Y0168600D03*
X0079250Y0168500D03*
X0079250Y0168400D03*
D43*
X0079300Y0169000D03*
X0075600Y0175300D03*
X0075600Y0175400D03*
X0075600Y0175500D03*
X0075600Y0175600D03*
X0080700Y0182500D03*
X0080700Y0182600D03*
X0076300Y0240200D03*
X0076200Y0240300D03*
X0076100Y0240400D03*
X0078100Y0240700D03*
X0078100Y0240800D03*
X0078100Y0240900D03*
X0078100Y0241000D03*
X0078100Y0241100D03*
X0078100Y0241200D03*
X0080800Y0241100D03*
X0082700Y0241300D03*
X0083300Y0247000D03*
X0084500Y0247700D03*
X0088700Y0249300D03*
X0090700Y0254100D03*
X0091000Y0256600D03*
X0090000Y0256800D03*
X0090000Y0256900D03*
X0087200Y0258100D03*
X0086400Y0261800D03*
X0086400Y0261900D03*
X0086400Y0262000D03*
X0085000Y0262600D03*
X0082500Y0256200D03*
X0082500Y0256100D03*
X0082500Y0256000D03*
X0073400Y0262000D03*
X0069700Y0249300D03*
X0062400Y0249500D03*
X0061200Y0248700D03*
X0060400Y0247800D03*
X0058300Y0250200D03*
D44*
X0064650Y0267400D03*
X0068850Y0267100D03*
X0072550Y0265300D03*
X0072650Y0265100D03*
X0074350Y0257300D03*
X0074250Y0254800D03*
X0074250Y0254700D03*
X0074250Y0254600D03*
X0074250Y0254500D03*
X0074250Y0254400D03*
X0074250Y0254300D03*
X0071450Y0250600D03*
X0071250Y0250500D03*
X0071150Y0250400D03*
X0079050Y0232900D03*
X0079050Y0232800D03*
X0079050Y0232700D03*
X0079050Y0232600D03*
X0077150Y0226200D03*
X0080750Y0244900D03*
X0085450Y0249700D03*
X0086750Y0256000D03*
X0064550Y0274900D03*
X0063950Y0222700D03*
X0078650Y0196800D03*
X0078650Y0196700D03*
X0078650Y0196600D03*
X0078650Y0196500D03*
X0078650Y0196400D03*
X0078650Y0196300D03*
X0078650Y0196200D03*
X0074550Y0171400D03*
D45*
X0074500Y0171500D03*
X0074500Y0171600D03*
X0078700Y0196900D03*
X0078700Y0197000D03*
X0078700Y0197100D03*
X0078700Y0197200D03*
X0078700Y0197300D03*
X0078700Y0197400D03*
X0078700Y0197500D03*
X0076600Y0223700D03*
X0076600Y0223800D03*
X0076600Y0223900D03*
X0076700Y0224000D03*
X0076700Y0224100D03*
X0076700Y0224200D03*
X0076800Y0224600D03*
X0077000Y0225500D03*
X0077000Y0225600D03*
X0077100Y0225900D03*
X0077100Y0226000D03*
X0077100Y0226100D03*
X0077200Y0226300D03*
X0077200Y0226400D03*
X0070900Y0250200D03*
X0071000Y0250300D03*
X0071500Y0250700D03*
X0074200Y0254900D03*
X0074300Y0257400D03*
X0073700Y0257900D03*
X0073600Y0258000D03*
X0073500Y0258100D03*
X0068900Y0260900D03*
X0068800Y0267200D03*
X0068700Y0267300D03*
X0068300Y0268100D03*
X0081500Y0274900D03*
X0086800Y0256100D03*
D46*
X0083050Y0254300D03*
X0083650Y0248700D03*
X0084650Y0244700D03*
X0077650Y0258400D03*
X0074150Y0257500D03*
X0073750Y0257800D03*
X0074250Y0255200D03*
X0074250Y0255100D03*
X0074250Y0255000D03*
X0071550Y0250800D03*
X0070750Y0250100D03*
X0070650Y0250000D03*
X0068650Y0267400D03*
X0068550Y0267500D03*
X0068550Y0267600D03*
X0068450Y0267700D03*
X0068350Y0267800D03*
X0068250Y0268000D03*
X0064650Y0267500D03*
X0064250Y0274800D03*
X0061450Y0249700D03*
X0077050Y0225800D03*
X0077050Y0225700D03*
X0076950Y0225400D03*
X0076950Y0225300D03*
X0076950Y0225200D03*
X0076950Y0225100D03*
X0076850Y0225000D03*
X0076850Y0224900D03*
X0076850Y0224800D03*
X0076850Y0224700D03*
X0076750Y0224500D03*
X0076750Y0224400D03*
X0076750Y0224300D03*
X0078750Y0198300D03*
X0078750Y0198200D03*
X0078750Y0198100D03*
X0078750Y0198000D03*
X0078750Y0197900D03*
X0078750Y0197800D03*
X0078750Y0197700D03*
X0078750Y0197600D03*
X0074550Y0171700D03*
X0081750Y0274800D03*
D47*
X0079100Y0266500D03*
X0079200Y0266400D03*
X0079300Y0266300D03*
X0079400Y0266200D03*
X0079500Y0266000D03*
X0079600Y0265900D03*
X0079700Y0265800D03*
X0079800Y0265600D03*
X0081300Y0259900D03*
X0081500Y0259600D03*
X0081600Y0259500D03*
X0081700Y0259300D03*
X0083000Y0254200D03*
X0083000Y0254100D03*
X0083000Y0254000D03*
X0080200Y0247800D03*
X0074000Y0257600D03*
X0073900Y0257700D03*
X0070500Y0249900D03*
X0069900Y0246000D03*
X0068300Y0267900D03*
X0070500Y0270000D03*
X0064700Y0267600D03*
X0064000Y0274700D03*
X0082600Y0222600D03*
X0075100Y0218200D03*
X0075100Y0218100D03*
X0075100Y0218000D03*
X0075100Y0217900D03*
X0075100Y0217800D03*
X0075100Y0217700D03*
X0075100Y0217600D03*
X0075100Y0217500D03*
X0075100Y0217400D03*
X0075100Y0217300D03*
X0075100Y0217200D03*
X0075100Y0217100D03*
X0075100Y0217000D03*
X0082400Y0211200D03*
X0078800Y0199200D03*
X0078800Y0199100D03*
X0078800Y0199000D03*
X0078800Y0198900D03*
X0078800Y0198800D03*
X0078800Y0198700D03*
X0078800Y0198600D03*
X0078800Y0198500D03*
X0078800Y0198400D03*
X0074500Y0172000D03*
X0074500Y0171900D03*
X0074500Y0171800D03*
X0063300Y0211200D03*
D48*
X0075300Y0187100D03*
X0070100Y0246500D03*
X0067300Y0249100D03*
X0067200Y0251000D03*
X0072400Y0268400D03*
X0080600Y0255800D03*
X0080600Y0255700D03*
X0080700Y0255600D03*
X0086400Y0255700D03*
X0085400Y0249400D03*
D49*
X0085850Y0249900D03*
X0086650Y0255900D03*
X0087050Y0256200D03*
X0081050Y0245000D03*
X0080350Y0256000D03*
X0080950Y0275100D03*
X0068450Y0269300D03*
X0064550Y0267300D03*
X0064750Y0275000D03*
X0059250Y0251200D03*
X0059250Y0251100D03*
X0067250Y0249200D03*
X0079150Y0233500D03*
X0079150Y0233400D03*
X0078450Y0194900D03*
X0078450Y0194800D03*
X0078450Y0194700D03*
X0078450Y0194600D03*
X0078450Y0194500D03*
D50*
X0078500Y0195000D03*
X0078500Y0195100D03*
X0078500Y0195200D03*
X0078500Y0195300D03*
X0078500Y0195400D03*
X0078500Y0195500D03*
X0078600Y0195600D03*
X0078600Y0195700D03*
X0078600Y0195800D03*
X0078600Y0195900D03*
X0078600Y0196000D03*
X0078600Y0196100D03*
X0064200Y0211100D03*
X0079100Y0233000D03*
X0079100Y0233100D03*
X0079100Y0233200D03*
X0079100Y0233300D03*
X0085400Y0249600D03*
X0085600Y0249800D03*
X0074500Y0257200D03*
X0074200Y0254200D03*
X0070900Y0245100D03*
X0067200Y0250900D03*
X0061500Y0249800D03*
X0068900Y0267000D03*
X0072600Y0265200D03*
X0072700Y0265000D03*
X0081200Y0275000D03*
D51*
X0076250Y0249100D03*
X0076050Y0249000D03*
X0072050Y0247500D03*
X0073350Y0210500D03*
D52*
X0073250Y0210600D03*
X0064450Y0264400D03*
X0064550Y0264500D03*
D53*
X0073600Y0210700D03*
D54*
X0073000Y0210800D03*
X0062600Y0258200D03*
X0062600Y0258300D03*
X0062600Y0258400D03*
X0062600Y0258500D03*
X0062600Y0258600D03*
X0062600Y0258700D03*
D55*
X0070550Y0247000D03*
X0078350Y0246300D03*
X0066550Y0210900D03*
D56*
X0078850Y0210900D03*
X0084550Y0244400D03*
X0081050Y0247600D03*
X0078850Y0246700D03*
X0076350Y0258500D03*
X0076350Y0258600D03*
X0066550Y0251100D03*
X0060050Y0251400D03*
D57*
X0070100Y0246600D03*
X0070900Y0245300D03*
X0072900Y0264000D03*
X0086300Y0255600D03*
X0081400Y0222700D03*
X0065200Y0211000D03*
D58*
X0064950Y0222800D03*
X0061550Y0250100D03*
X0059650Y0250900D03*
X0064550Y0267100D03*
X0065350Y0275200D03*
X0071350Y0268600D03*
X0072550Y0268300D03*
X0072850Y0263900D03*
X0080550Y0255900D03*
X0082750Y0251400D03*
X0080350Y0275300D03*
X0080750Y0222800D03*
X0080450Y0211000D03*
D59*
X0081100Y0211100D03*
X0077600Y0245900D03*
X0070900Y0245400D03*
X0064400Y0266900D03*
X0073100Y0277200D03*
X0086200Y0255500D03*
X0086100Y0255400D03*
D60*
X0078000Y0246100D03*
X0078400Y0243100D03*
X0069600Y0260600D03*
X0069600Y0260700D03*
X0069600Y0260800D03*
X0075900Y0223600D03*
X0075900Y0223500D03*
X0066200Y0222900D03*
D61*
X0066850Y0251300D03*
X0067150Y0268300D03*
X0075850Y0251600D03*
X0078950Y0222900D03*
D62*
X0084000Y0244100D03*
X0071700Y0247800D03*
X0068300Y0223000D03*
D63*
X0077300Y0223000D03*
X0082400Y0242100D03*
X0082900Y0242500D03*
X0071800Y0247700D03*
D64*
X0072950Y0223100D03*
D65*
X0072850Y0223200D03*
X0064650Y0264600D03*
X0064750Y0264700D03*
X0067050Y0266300D03*
D66*
X0072950Y0276800D03*
X0082550Y0243500D03*
X0073550Y0223300D03*
D67*
X0075200Y0223400D03*
X0076000Y0251800D03*
X0083600Y0251700D03*
X0073000Y0277100D03*
X0060200Y0251500D03*
D68*
X0060050Y0250700D03*
X0066750Y0268500D03*
X0065950Y0275400D03*
X0074650Y0243500D03*
X0078550Y0243200D03*
X0077750Y0228000D03*
X0077750Y0227900D03*
X0077750Y0227800D03*
X0077750Y0227700D03*
X0077750Y0227600D03*
X0077750Y0227500D03*
X0077750Y0227400D03*
X0077750Y0227300D03*
X0077750Y0227200D03*
X0077750Y0227100D03*
X0077750Y0227000D03*
X0077750Y0226900D03*
X0077750Y0226800D03*
X0077750Y0226700D03*
X0077750Y0226600D03*
X0077750Y0226500D03*
D69*
X0083650Y0241700D03*
X0084250Y0243100D03*
X0078450Y0246400D03*
X0077150Y0252200D03*
X0076350Y0259000D03*
X0076350Y0259100D03*
D70*
X0067000Y0251400D03*
X0067000Y0268200D03*
X0083500Y0241800D03*
D71*
X0083450Y0241900D03*
X0083450Y0251900D03*
X0074050Y0264900D03*
X0068350Y0275900D03*
D72*
X0082700Y0242000D03*
D73*
X0082650Y0242200D03*
X0068850Y0268700D03*
D74*
X0080600Y0253900D03*
X0078000Y0247000D03*
X0082800Y0242400D03*
X0082800Y0242300D03*
D75*
X0082650Y0242600D03*
X0074350Y0264300D03*
D76*
X0074250Y0264500D03*
X0082550Y0242700D03*
D77*
X0082650Y0242800D03*
D78*
X0081200Y0242900D03*
X0074000Y0248500D03*
X0073800Y0248400D03*
X0073700Y0248300D03*
X0061300Y0260700D03*
X0061300Y0260800D03*
D79*
X0076300Y0258900D03*
X0078600Y0246500D03*
X0078500Y0243000D03*
D80*
X0081000Y0247700D03*
X0084200Y0243000D03*
X0076300Y0259200D03*
X0070600Y0247100D03*
X0070900Y0245900D03*
X0067200Y0275700D03*
D81*
X0068650Y0268900D03*
X0074150Y0264700D03*
X0077650Y0275900D03*
X0084550Y0243200D03*
X0062350Y0250600D03*
D82*
X0078950Y0251100D03*
X0082250Y0243300D03*
D83*
X0082350Y0243400D03*
X0079850Y0252500D03*
X0078450Y0250300D03*
D84*
X0078800Y0254100D03*
X0078800Y0254200D03*
X0081100Y0255300D03*
X0086000Y0255300D03*
X0077800Y0246000D03*
X0074500Y0243600D03*
X0074400Y0243800D03*
X0070900Y0245500D03*
X0061600Y0250300D03*
X0066300Y0275500D03*
X0079700Y0275500D03*
D85*
X0082800Y0243600D03*
D86*
X0082750Y0251800D03*
X0081050Y0255400D03*
X0081050Y0255500D03*
X0078850Y0254300D03*
X0078850Y0254000D03*
X0076050Y0259300D03*
X0076050Y0259400D03*
X0071650Y0268500D03*
X0066650Y0268400D03*
X0061650Y0250400D03*
X0070950Y0245600D03*
X0074450Y0243700D03*
X0079350Y0275600D03*
D87*
X0080500Y0253200D03*
X0078000Y0247100D03*
X0083200Y0243700D03*
D88*
X0083600Y0243800D03*
X0083700Y0243900D03*
X0078000Y0246900D03*
D89*
X0071900Y0248100D03*
X0083800Y0244000D03*
D90*
X0084200Y0244200D03*
X0080700Y0247400D03*
X0074300Y0264400D03*
D91*
X0074100Y0264800D03*
X0076100Y0251900D03*
X0076500Y0251200D03*
X0081100Y0247500D03*
X0084400Y0244300D03*
D92*
X0084550Y0244500D03*
X0078150Y0246200D03*
X0070950Y0245700D03*
X0070450Y0246700D03*
X0066650Y0275600D03*
D93*
X0065050Y0275100D03*
X0064550Y0267200D03*
X0068850Y0266900D03*
X0061550Y0250000D03*
X0070850Y0245200D03*
X0082750Y0251300D03*
X0084650Y0244600D03*
X0086550Y0255800D03*
X0080650Y0275200D03*
D94*
X0074600Y0257100D03*
X0082700Y0251200D03*
X0082300Y0245600D03*
X0082100Y0245500D03*
X0081900Y0245400D03*
X0081700Y0245300D03*
X0081500Y0245200D03*
X0081300Y0245100D03*
X0085400Y0249500D03*
X0087000Y0256300D03*
X0087000Y0256400D03*
X0070000Y0246400D03*
X0061500Y0249900D03*
X0059400Y0251000D03*
X0059200Y0251300D03*
X0070300Y0269900D03*
D95*
X0061700Y0250500D03*
X0063400Y0247800D03*
X0070500Y0246900D03*
X0070500Y0246800D03*
X0070900Y0245800D03*
X0082700Y0252000D03*
X0082700Y0252100D03*
X0082600Y0252200D03*
X0078900Y0275700D03*
D96*
X0068700Y0269100D03*
X0067700Y0275800D03*
X0078700Y0246600D03*
D97*
X0078050Y0246800D03*
X0072950Y0277000D03*
D98*
X0075250Y0247200D03*
D99*
X0075450Y0247300D03*
D100*
X0075600Y0248800D03*
X0074600Y0251400D03*
X0072400Y0247400D03*
X0066500Y0266800D03*
D101*
X0071950Y0247600D03*
D102*
X0071600Y0247900D03*
X0074400Y0264100D03*
X0074400Y0264200D03*
D103*
X0068750Y0268800D03*
X0071750Y0248000D03*
D104*
X0073600Y0248200D03*
X0078900Y0251000D03*
X0073000Y0276600D03*
X0065000Y0264900D03*
X0061300Y0260900D03*
D105*
X0075250Y0248600D03*
D106*
X0075450Y0248700D03*
D107*
X0075950Y0248900D03*
X0080650Y0253700D03*
X0080650Y0253800D03*
X0082950Y0254900D03*
X0083050Y0255000D03*
D108*
X0077500Y0249500D03*
X0077400Y0249400D03*
X0077300Y0249300D03*
X0077100Y0249200D03*
D109*
X0077650Y0249600D03*
X0077750Y0249700D03*
D110*
X0077900Y0249800D03*
D111*
X0077950Y0249900D03*
D112*
X0078100Y0250000D03*
X0078200Y0250100D03*
X0078300Y0250200D03*
D113*
X0082750Y0251500D03*
X0072850Y0263800D03*
X0068350Y0269200D03*
X0066850Y0268600D03*
X0064450Y0267000D03*
X0065650Y0275300D03*
X0059850Y0250800D03*
X0061550Y0250200D03*
X0080050Y0275400D03*
D114*
X0079900Y0252400D03*
X0078500Y0250400D03*
X0061300Y0261500D03*
D115*
X0072950Y0276700D03*
X0078650Y0250500D03*
D116*
X0078700Y0250600D03*
X0061300Y0261400D03*
D117*
X0061250Y0261300D03*
X0065350Y0265300D03*
X0079850Y0252300D03*
X0078750Y0250700D03*
X0081750Y0254400D03*
X0081750Y0254500D03*
X0081750Y0254600D03*
X0081750Y0254700D03*
X0081750Y0254800D03*
D118*
X0078850Y0250800D03*
X0065150Y0265000D03*
X0065250Y0265100D03*
D119*
X0061300Y0261100D03*
X0061300Y0261000D03*
X0078900Y0250900D03*
D120*
X0078300Y0275800D03*
X0066700Y0251200D03*
D121*
X0075950Y0251700D03*
X0076250Y0251300D03*
X0083650Y0251600D03*
X0068650Y0269000D03*
D122*
X0071400Y0251500D03*
D123*
X0074200Y0264600D03*
X0060300Y0251600D03*
D124*
X0068350Y0251600D03*
D125*
X0064700Y0251700D03*
X0064600Y0251800D03*
D126*
X0064600Y0251900D03*
X0062700Y0259000D03*
X0062700Y0259100D03*
D127*
X0068050Y0252000D03*
D128*
X0068050Y0252100D03*
D129*
X0066500Y0252200D03*
D130*
X0066550Y0252300D03*
D131*
X0066650Y0252400D03*
D132*
X0066650Y0252500D03*
D133*
X0072500Y0252600D03*
D134*
X0071000Y0252700D03*
D135*
X0070200Y0252800D03*
X0070100Y0252900D03*
D136*
X0070100Y0253000D03*
D137*
X0070050Y0253100D03*
D138*
X0065650Y0253200D03*
X0065550Y0253300D03*
D139*
X0072950Y0276900D03*
X0080550Y0253400D03*
X0080550Y0253300D03*
D140*
X0065500Y0253400D03*
X0065400Y0253500D03*
D141*
X0080600Y0253500D03*
X0080600Y0253600D03*
X0083100Y0255100D03*
D142*
X0065350Y0253600D03*
D143*
X0065300Y0253700D03*
D144*
X0065250Y0253800D03*
D145*
X0065300Y0253900D03*
D146*
X0065250Y0254000D03*
X0065250Y0254100D03*
D147*
X0063100Y0254200D03*
X0063000Y0254400D03*
X0063000Y0254500D03*
X0063700Y0259700D03*
D148*
X0063050Y0254300D03*
D149*
X0063050Y0254600D03*
X0063050Y0257300D03*
X0063750Y0259600D03*
D150*
X0063700Y0259500D03*
X0063700Y0259400D03*
X0063100Y0257200D03*
X0063100Y0257100D03*
X0063100Y0257000D03*
X0063000Y0254700D03*
D151*
X0063050Y0254800D03*
X0063050Y0254900D03*
X0063050Y0256800D03*
X0063050Y0256900D03*
X0063650Y0259300D03*
X0066350Y0263400D03*
D152*
X0066300Y0263300D03*
X0063100Y0256700D03*
X0063100Y0256600D03*
X0063100Y0255100D03*
X0063100Y0255000D03*
D153*
X0063100Y0255200D03*
X0063100Y0255300D03*
X0063100Y0255400D03*
X0063100Y0255500D03*
X0063100Y0255600D03*
X0063100Y0255700D03*
X0063100Y0255800D03*
X0063100Y0255900D03*
X0063100Y0256000D03*
X0063100Y0256100D03*
X0063200Y0256400D03*
X0066300Y0263200D03*
D154*
X0083400Y0255200D03*
D155*
X0066250Y0263100D03*
X0063150Y0256300D03*
X0063150Y0256200D03*
D156*
X0063150Y0256500D03*
D157*
X0063000Y0257400D03*
D158*
X0062850Y0257500D03*
X0063650Y0260000D03*
X0063650Y0260100D03*
D159*
X0063750Y0260300D03*
X0063750Y0260400D03*
X0062750Y0257600D03*
D160*
X0062700Y0257700D03*
X0063800Y0260500D03*
D161*
X0062650Y0257800D03*
D162*
X0062600Y0257900D03*
X0062600Y0258000D03*
X0062600Y0258100D03*
D163*
X0076350Y0258700D03*
X0076350Y0258800D03*
D164*
X0062650Y0258800D03*
X0062650Y0258900D03*
D165*
X0062750Y0259200D03*
D166*
X0063650Y0259800D03*
D167*
X0063600Y0259900D03*
D168*
X0063700Y0260200D03*
D169*
X0061300Y0260600D03*
X0067200Y0266400D03*
X0067300Y0266500D03*
D170*
X0065300Y0265200D03*
X0061300Y0261200D03*
D171*
X0062950Y0261600D03*
X0067150Y0265600D03*
D172*
X0063000Y0261700D03*
D173*
X0064150Y0261800D03*
X0064150Y0261900D03*
D174*
X0064200Y0262000D03*
X0064300Y0262200D03*
D175*
X0064350Y0262300D03*
X0064450Y0262500D03*
X0064250Y0262100D03*
D176*
X0064400Y0262400D03*
X0064500Y0262600D03*
X0064600Y0262700D03*
X0064800Y0263000D03*
D177*
X0064750Y0262900D03*
X0064650Y0262800D03*
X0065250Y0263500D03*
X0073050Y0276000D03*
D178*
X0063850Y0263600D03*
D179*
X0063900Y0263700D03*
X0064000Y0263800D03*
X0064100Y0263900D03*
D180*
X0064150Y0264000D03*
X0064250Y0264100D03*
X0066950Y0266100D03*
D181*
X0067000Y0266200D03*
X0064400Y0264300D03*
X0064300Y0264200D03*
X0073000Y0276500D03*
D182*
X0067550Y0266700D03*
X0067450Y0266600D03*
X0064850Y0264800D03*
D183*
X0067200Y0265400D03*
D184*
X0067200Y0265500D03*
X0073000Y0276200D03*
D185*
X0066900Y0265700D03*
D186*
X0066850Y0265800D03*
D187*
X0066850Y0265900D03*
D188*
X0066900Y0266000D03*
D189*
X0073000Y0276100D03*
D190*
X0073000Y0276300D03*
D191*
X0073000Y0276400D03*
M02*
