G75*
%MOIN*%
%OFA0B0*%
%FSLAX25Y25*%
%IPPOS*%
%LPD*%
%AMOC8*
5,1,8,0,0,1.08239X$1,22.5*
%
%ADD10C,0.01600*%
%ADD11C,0.02400*%
%ADD12C,0.16205*%
%ADD13C,0.27622*%
%ADD14C,0.03962*%
%ADD15R,0.03962X0.03962*%
D10*
X0004700Y0004700D02*
X0004700Y0510606D01*
X0203519Y0510606D01*
X0203519Y0004700D01*
X0004700Y0004700D01*
D11*
X0010700Y0010700D02*
X0010700Y0504606D01*
X0023146Y0504606D01*
X0022577Y0503620D01*
X0021725Y0500440D01*
X0021725Y0497149D01*
X0022577Y0493969D01*
X0024223Y0491118D01*
X0026551Y0488790D01*
X0029402Y0487144D01*
X0032582Y0486292D01*
X0035874Y0486292D01*
X0039053Y0487144D01*
X0041904Y0488790D01*
X0044232Y0491118D01*
X0045878Y0493969D01*
X0046730Y0497149D01*
X0046730Y0500440D01*
X0045878Y0503620D01*
X0045309Y0504606D01*
X0162910Y0504606D01*
X0162341Y0503620D01*
X0161489Y0500440D01*
X0161489Y0497149D01*
X0162341Y0493969D01*
X0163987Y0491118D01*
X0166315Y0488790D01*
X0169166Y0487144D01*
X0172345Y0486292D01*
X0175637Y0486292D01*
X0178817Y0487144D01*
X0181668Y0488790D01*
X0183996Y0491118D01*
X0185642Y0493969D01*
X0186494Y0497149D01*
X0186494Y0500440D01*
X0185642Y0503620D01*
X0185073Y0504606D01*
X0197519Y0504606D01*
X0197519Y0439801D01*
X0192872Y0444447D01*
X0190814Y0445300D01*
X0188586Y0445300D01*
X0186528Y0444447D01*
X0184953Y0442872D01*
X0184100Y0440814D01*
X0184100Y0440300D01*
X0182053Y0440300D01*
X0181670Y0441729D01*
X0179272Y0445882D01*
X0175882Y0449272D01*
X0171729Y0451670D01*
X0167098Y0452911D01*
X0162302Y0452911D01*
X0157671Y0451670D01*
X0153518Y0449272D01*
X0150128Y0445882D01*
X0147730Y0441729D01*
X0146489Y0437098D01*
X0146489Y0432302D01*
X0147730Y0427671D01*
X0150128Y0423518D01*
X0153518Y0420128D01*
X0157671Y0417730D01*
X0162302Y0416489D01*
X0167098Y0416489D01*
X0171729Y0417730D01*
X0175882Y0420128D01*
X0179272Y0423518D01*
X0181670Y0427671D01*
X0182053Y0429100D01*
X0184100Y0429100D01*
X0184100Y0428586D01*
X0184953Y0426528D01*
X0186528Y0424953D01*
X0188586Y0424100D01*
X0190814Y0424100D01*
X0192872Y0424953D01*
X0197519Y0429599D01*
X0197519Y0389801D01*
X0192872Y0394447D01*
X0190814Y0395300D01*
X0188586Y0395300D01*
X0186528Y0394447D01*
X0184953Y0392872D01*
X0184100Y0390814D01*
X0184100Y0390300D01*
X0182053Y0390300D01*
X0181670Y0391729D01*
X0179272Y0395882D01*
X0175882Y0399272D01*
X0171729Y0401670D01*
X0167098Y0402911D01*
X0162302Y0402911D01*
X0157671Y0401670D01*
X0153518Y0399272D01*
X0150128Y0395882D01*
X0147730Y0391729D01*
X0146489Y0387098D01*
X0146489Y0382302D01*
X0147730Y0377671D01*
X0150128Y0373518D01*
X0153518Y0370128D01*
X0157671Y0367730D01*
X0162302Y0366489D01*
X0167098Y0366489D01*
X0171729Y0367730D01*
X0175882Y0370128D01*
X0179272Y0373518D01*
X0181670Y0377671D01*
X0182053Y0379100D01*
X0184100Y0379100D01*
X0184100Y0378586D01*
X0184953Y0376528D01*
X0186528Y0374953D01*
X0188586Y0374100D01*
X0190814Y0374100D01*
X0192872Y0374953D01*
X0197519Y0379599D01*
X0197519Y0339801D01*
X0192872Y0344447D01*
X0190814Y0345300D01*
X0188586Y0345300D01*
X0186528Y0344447D01*
X0184953Y0342872D01*
X0184100Y0340814D01*
X0184100Y0340300D01*
X0182053Y0340300D01*
X0181670Y0341729D01*
X0179272Y0345882D01*
X0175882Y0349272D01*
X0171729Y0351670D01*
X0167098Y0352911D01*
X0162302Y0352911D01*
X0157671Y0351670D01*
X0153518Y0349272D01*
X0150128Y0345882D01*
X0147730Y0341729D01*
X0146489Y0337098D01*
X0146489Y0332302D01*
X0147730Y0327671D01*
X0150128Y0323518D01*
X0153518Y0320128D01*
X0157671Y0317730D01*
X0162302Y0316489D01*
X0167098Y0316489D01*
X0171729Y0317730D01*
X0175882Y0320128D01*
X0179272Y0323518D01*
X0181670Y0327671D01*
X0182053Y0329100D01*
X0184100Y0329100D01*
X0184100Y0328586D01*
X0184953Y0326528D01*
X0186528Y0324953D01*
X0188586Y0324100D01*
X0190814Y0324100D01*
X0192872Y0324953D01*
X0197519Y0329599D01*
X0197519Y0289801D01*
X0192872Y0294447D01*
X0190814Y0295300D01*
X0188586Y0295300D01*
X0186528Y0294447D01*
X0184953Y0292872D01*
X0184100Y0290814D01*
X0184100Y0290300D01*
X0182053Y0290300D01*
X0181670Y0291729D01*
X0179272Y0295882D01*
X0175882Y0299272D01*
X0171729Y0301670D01*
X0167098Y0302911D01*
X0162302Y0302911D01*
X0157671Y0301670D01*
X0153518Y0299272D01*
X0150128Y0295882D01*
X0147730Y0291729D01*
X0146489Y0287098D01*
X0146489Y0282302D01*
X0147730Y0277671D01*
X0150128Y0273518D01*
X0153518Y0270128D01*
X0157671Y0267730D01*
X0162302Y0266489D01*
X0167098Y0266489D01*
X0171729Y0267730D01*
X0175882Y0270128D01*
X0179272Y0273518D01*
X0181670Y0277671D01*
X0182053Y0279100D01*
X0184100Y0279100D01*
X0184100Y0278586D01*
X0184953Y0276528D01*
X0186528Y0274953D01*
X0188586Y0274100D01*
X0190814Y0274100D01*
X0192872Y0274953D01*
X0197519Y0279599D01*
X0197519Y0239801D01*
X0192872Y0244447D01*
X0190814Y0245300D01*
X0188586Y0245300D01*
X0186528Y0244447D01*
X0184953Y0242872D01*
X0184100Y0240814D01*
X0184100Y0240300D01*
X0182053Y0240300D01*
X0181670Y0241729D01*
X0179272Y0245882D01*
X0175882Y0249272D01*
X0171729Y0251670D01*
X0167098Y0252911D01*
X0162302Y0252911D01*
X0157671Y0251670D01*
X0153518Y0249272D01*
X0150128Y0245882D01*
X0147730Y0241729D01*
X0146489Y0237098D01*
X0146489Y0232302D01*
X0147730Y0227671D01*
X0150128Y0223518D01*
X0153518Y0220128D01*
X0157671Y0217730D01*
X0162302Y0216489D01*
X0167098Y0216489D01*
X0171729Y0217730D01*
X0175882Y0220128D01*
X0179272Y0223518D01*
X0181670Y0227671D01*
X0182053Y0229100D01*
X0184100Y0229100D01*
X0184100Y0228586D01*
X0184953Y0226528D01*
X0186528Y0224953D01*
X0188586Y0224100D01*
X0190814Y0224100D01*
X0192872Y0224953D01*
X0197519Y0229599D01*
X0197519Y0189801D01*
X0192872Y0194447D01*
X0190814Y0195300D01*
X0188586Y0195300D01*
X0186528Y0194447D01*
X0184953Y0192872D01*
X0184100Y0190814D01*
X0184100Y0190300D01*
X0182053Y0190300D01*
X0181670Y0191729D01*
X0179272Y0195882D01*
X0175882Y0199272D01*
X0171729Y0201670D01*
X0167098Y0202911D01*
X0162302Y0202911D01*
X0157671Y0201670D01*
X0153518Y0199272D01*
X0150128Y0195882D01*
X0147730Y0191729D01*
X0146489Y0187098D01*
X0146489Y0182302D01*
X0147730Y0177671D01*
X0150128Y0173518D01*
X0153518Y0170128D01*
X0157671Y0167730D01*
X0162302Y0166489D01*
X0167098Y0166489D01*
X0171729Y0167730D01*
X0175882Y0170128D01*
X0179272Y0173518D01*
X0181670Y0177671D01*
X0182053Y0179100D01*
X0184100Y0179100D01*
X0184100Y0178586D01*
X0184953Y0176528D01*
X0186528Y0174953D01*
X0188586Y0174100D01*
X0190814Y0174100D01*
X0192872Y0174953D01*
X0197519Y0179599D01*
X0197519Y0139801D01*
X0192872Y0144447D01*
X0190814Y0145300D01*
X0188586Y0145300D01*
X0186528Y0144447D01*
X0184953Y0142872D01*
X0184100Y0140814D01*
X0184100Y0140300D01*
X0182053Y0140300D01*
X0181670Y0141729D01*
X0179272Y0145882D01*
X0175882Y0149272D01*
X0171729Y0151670D01*
X0167098Y0152911D01*
X0162302Y0152911D01*
X0157671Y0151670D01*
X0153518Y0149272D01*
X0150128Y0145882D01*
X0147730Y0141729D01*
X0146489Y0137098D01*
X0146489Y0132302D01*
X0147730Y0127671D01*
X0150128Y0123518D01*
X0153518Y0120128D01*
X0157671Y0117730D01*
X0162302Y0116489D01*
X0167098Y0116489D01*
X0171729Y0117730D01*
X0175882Y0120128D01*
X0179272Y0123518D01*
X0181670Y0127671D01*
X0182053Y0129100D01*
X0184100Y0129100D01*
X0184100Y0128586D01*
X0184953Y0126528D01*
X0186528Y0124953D01*
X0188586Y0124100D01*
X0190814Y0124100D01*
X0192872Y0124953D01*
X0197519Y0129599D01*
X0197519Y0089801D01*
X0192872Y0094447D01*
X0190814Y0095300D01*
X0188586Y0095300D01*
X0186528Y0094447D01*
X0184953Y0092872D01*
X0184100Y0090814D01*
X0184100Y0090300D01*
X0182053Y0090300D01*
X0181670Y0091729D01*
X0179272Y0095882D01*
X0175882Y0099272D01*
X0171729Y0101670D01*
X0167098Y0102911D01*
X0162302Y0102911D01*
X0157671Y0101670D01*
X0153518Y0099272D01*
X0150128Y0095882D01*
X0147730Y0091729D01*
X0146489Y0087098D01*
X0146489Y0082302D01*
X0147730Y0077671D01*
X0150128Y0073518D01*
X0153518Y0070128D01*
X0157671Y0067730D01*
X0162302Y0066489D01*
X0167098Y0066489D01*
X0171729Y0067730D01*
X0175882Y0070128D01*
X0179272Y0073518D01*
X0181670Y0077671D01*
X0182053Y0079100D01*
X0184100Y0079100D01*
X0184100Y0078586D01*
X0184953Y0076528D01*
X0186528Y0074953D01*
X0188586Y0074100D01*
X0190814Y0074100D01*
X0192872Y0074953D01*
X0197519Y0079599D01*
X0197519Y0010700D01*
X0185073Y0010700D01*
X0185642Y0011685D01*
X0186494Y0014865D01*
X0186494Y0018157D01*
X0185642Y0021337D01*
X0183996Y0024188D01*
X0181668Y0026515D01*
X0178817Y0028161D01*
X0175637Y0029013D01*
X0172345Y0029013D01*
X0169166Y0028161D01*
X0166315Y0026515D01*
X0163987Y0024188D01*
X0162341Y0021337D01*
X0161489Y0018157D01*
X0161489Y0014865D01*
X0162341Y0011685D01*
X0162910Y0010700D01*
X0045309Y0010700D01*
X0045878Y0011685D01*
X0046730Y0014865D01*
X0046730Y0018157D01*
X0045878Y0021337D01*
X0044232Y0024188D01*
X0041904Y0026515D01*
X0039053Y0028161D01*
X0035874Y0029013D01*
X0032582Y0029013D01*
X0029402Y0028161D01*
X0026551Y0026515D01*
X0024223Y0024188D01*
X0022577Y0021337D01*
X0021725Y0018157D01*
X0021725Y0014865D01*
X0022577Y0011685D01*
X0023146Y0010700D01*
X0010700Y0010700D01*
X0010700Y0011896D02*
X0022521Y0011896D01*
X0021878Y0014294D02*
X0010700Y0014294D01*
X0010700Y0016693D02*
X0021725Y0016693D01*
X0021975Y0019091D02*
X0010700Y0019091D01*
X0010700Y0021490D02*
X0022665Y0021490D01*
X0024050Y0023888D02*
X0010700Y0023888D01*
X0010700Y0026287D02*
X0026322Y0026287D01*
X0031357Y0028685D02*
X0010700Y0028685D01*
X0010700Y0031084D02*
X0197519Y0031084D01*
X0197519Y0033482D02*
X0010700Y0033482D01*
X0010700Y0035881D02*
X0197519Y0035881D01*
X0197519Y0038279D02*
X0010700Y0038279D01*
X0010700Y0040678D02*
X0197519Y0040678D01*
X0197519Y0043076D02*
X0010700Y0043076D01*
X0010700Y0045475D02*
X0197519Y0045475D01*
X0197519Y0047873D02*
X0010700Y0047873D01*
X0010700Y0050272D02*
X0197519Y0050272D01*
X0197519Y0052670D02*
X0010700Y0052670D01*
X0010700Y0055069D02*
X0075280Y0055069D01*
X0076075Y0054274D02*
X0078427Y0053300D01*
X0080973Y0053300D01*
X0125789Y0053300D01*
X0128335Y0053300D01*
X0130688Y0054274D01*
X0132488Y0056075D01*
X0133462Y0058427D01*
X0133462Y0073319D01*
X0142556Y0073319D01*
X0144173Y0073989D01*
X0145411Y0075226D01*
X0146081Y0076844D01*
X0146081Y0087556D01*
X0145411Y0089173D01*
X0144173Y0090411D01*
X0142556Y0091081D01*
X0133462Y0091081D01*
X0133462Y0106091D01*
X0132488Y0108443D01*
X0130688Y0110244D01*
X0128335Y0111218D01*
X0078427Y0111218D01*
X0076075Y0110244D01*
X0074274Y0108443D01*
X0073300Y0106091D01*
X0073300Y0058427D01*
X0074274Y0056075D01*
X0076075Y0054274D01*
X0073698Y0057467D02*
X0010700Y0057467D01*
X0010700Y0059866D02*
X0073300Y0059866D01*
X0073300Y0062264D02*
X0010700Y0062264D01*
X0010700Y0064663D02*
X0073300Y0064663D01*
X0073300Y0067061D02*
X0010700Y0067061D01*
X0010700Y0069460D02*
X0073300Y0069460D01*
X0073300Y0071858D02*
X0010700Y0071858D01*
X0010700Y0074257D02*
X0073300Y0074257D01*
X0073300Y0076655D02*
X0010700Y0076655D01*
X0010700Y0079054D02*
X0073300Y0079054D01*
X0073300Y0081452D02*
X0010700Y0081452D01*
X0010700Y0083851D02*
X0073300Y0083851D01*
X0073300Y0086249D02*
X0010700Y0086249D01*
X0010700Y0088648D02*
X0073300Y0088648D01*
X0073300Y0091046D02*
X0010700Y0091046D01*
X0010700Y0093445D02*
X0073300Y0093445D01*
X0073300Y0095843D02*
X0010700Y0095843D01*
X0010700Y0098242D02*
X0073300Y0098242D01*
X0073300Y0100640D02*
X0010700Y0100640D01*
X0010700Y0103039D02*
X0073300Y0103039D01*
X0073300Y0105437D02*
X0010700Y0105437D01*
X0010700Y0107836D02*
X0074023Y0107836D01*
X0076065Y0110234D02*
X0010700Y0110234D01*
X0010700Y0112633D02*
X0197519Y0112633D01*
X0197519Y0110234D02*
X0130697Y0110234D01*
X0132739Y0107836D02*
X0197519Y0107836D01*
X0197519Y0105437D02*
X0133462Y0105437D01*
X0133462Y0103039D02*
X0197519Y0103039D01*
X0197519Y0100640D02*
X0173512Y0100640D01*
X0176912Y0098242D02*
X0197519Y0098242D01*
X0197519Y0095843D02*
X0179295Y0095843D01*
X0180679Y0093445D02*
X0185525Y0093445D01*
X0184196Y0091046D02*
X0181853Y0091046D01*
X0180950Y0084700D02*
X0194700Y0084700D01*
X0189700Y0079700D01*
X0188207Y0074257D02*
X0179699Y0074257D01*
X0181084Y0076655D02*
X0184900Y0076655D01*
X0184100Y0079054D02*
X0182041Y0079054D01*
X0177613Y0071858D02*
X0197519Y0071858D01*
X0197519Y0069460D02*
X0174725Y0069460D01*
X0169233Y0067061D02*
X0197519Y0067061D01*
X0197519Y0064663D02*
X0133462Y0064663D01*
X0133462Y0067061D02*
X0160167Y0067061D01*
X0154675Y0069460D02*
X0133462Y0069460D01*
X0133462Y0071858D02*
X0151787Y0071858D01*
X0149701Y0074257D02*
X0144442Y0074257D01*
X0146003Y0076655D02*
X0148316Y0076655D01*
X0147359Y0079054D02*
X0146081Y0079054D01*
X0146081Y0081452D02*
X0146717Y0081452D01*
X0146489Y0083851D02*
X0146081Y0083851D01*
X0146081Y0086249D02*
X0146489Y0086249D01*
X0146904Y0088648D02*
X0145629Y0088648D01*
X0147547Y0091046D02*
X0142640Y0091046D01*
X0148721Y0093445D02*
X0133462Y0093445D01*
X0133462Y0095843D02*
X0150105Y0095843D01*
X0152488Y0098242D02*
X0133462Y0098242D01*
X0133462Y0100640D02*
X0155888Y0100640D01*
X0158790Y0117430D02*
X0010700Y0117430D01*
X0010700Y0115032D02*
X0197519Y0115032D01*
X0197519Y0117430D02*
X0170610Y0117430D01*
X0175364Y0119829D02*
X0197519Y0119829D01*
X0197519Y0122227D02*
X0177981Y0122227D01*
X0179912Y0124626D02*
X0187317Y0124626D01*
X0184747Y0127024D02*
X0181297Y0127024D01*
X0180950Y0134700D02*
X0194700Y0134700D01*
X0189700Y0129700D01*
X0192083Y0124626D02*
X0197519Y0124626D01*
X0197519Y0127024D02*
X0194944Y0127024D01*
X0197342Y0129423D02*
X0197519Y0129423D01*
X0194700Y0134700D02*
X0189700Y0139700D01*
X0185894Y0143814D02*
X0180466Y0143814D01*
X0181754Y0141415D02*
X0184349Y0141415D01*
X0178942Y0146212D02*
X0197519Y0146212D01*
X0197519Y0143814D02*
X0193506Y0143814D01*
X0195904Y0141415D02*
X0197519Y0141415D01*
X0197519Y0148611D02*
X0176544Y0148611D01*
X0172874Y0151009D02*
X0197519Y0151009D01*
X0197519Y0153408D02*
X0010700Y0153408D01*
X0010700Y0155806D02*
X0197519Y0155806D01*
X0197519Y0158205D02*
X0010700Y0158205D01*
X0010700Y0160603D02*
X0197519Y0160603D01*
X0197519Y0163002D02*
X0010700Y0163002D01*
X0010700Y0165400D02*
X0197519Y0165400D01*
X0197519Y0167799D02*
X0171848Y0167799D01*
X0175952Y0170197D02*
X0197519Y0170197D01*
X0197519Y0172596D02*
X0178350Y0172596D01*
X0180125Y0174994D02*
X0186486Y0174994D01*
X0184594Y0177393D02*
X0181509Y0177393D01*
X0180950Y0184700D02*
X0194700Y0184700D01*
X0189700Y0179700D01*
X0192914Y0174994D02*
X0197519Y0174994D01*
X0197519Y0177393D02*
X0195312Y0177393D01*
X0194700Y0184700D02*
X0189700Y0189700D01*
X0186263Y0194182D02*
X0180254Y0194182D01*
X0181638Y0191784D02*
X0184502Y0191784D01*
X0178573Y0196581D02*
X0197519Y0196581D01*
X0197519Y0198979D02*
X0176175Y0198979D01*
X0172235Y0201378D02*
X0197519Y0201378D01*
X0197519Y0203776D02*
X0010700Y0203776D01*
X0010700Y0201378D02*
X0157165Y0201378D01*
X0153225Y0198979D02*
X0010700Y0198979D01*
X0010700Y0196581D02*
X0150827Y0196581D01*
X0149146Y0194182D02*
X0010700Y0194182D01*
X0010700Y0191784D02*
X0147762Y0191784D01*
X0147102Y0189385D02*
X0145199Y0189385D01*
X0145411Y0189173D02*
X0144173Y0190411D01*
X0142556Y0191081D01*
X0136844Y0191081D01*
X0131844Y0191081D01*
X0130226Y0190411D01*
X0128989Y0189173D01*
X0128319Y0187556D01*
X0128319Y0181844D01*
X0128989Y0180226D01*
X0130226Y0178989D01*
X0131844Y0178319D01*
X0142556Y0178319D01*
X0144173Y0178989D01*
X0145411Y0180226D01*
X0146081Y0181844D01*
X0146081Y0187556D01*
X0145411Y0189173D01*
X0146081Y0186987D02*
X0146489Y0186987D01*
X0146489Y0184588D02*
X0146081Y0184588D01*
X0146081Y0182190D02*
X0146519Y0182190D01*
X0147162Y0179791D02*
X0144976Y0179791D01*
X0147891Y0177393D02*
X0010700Y0177393D01*
X0010700Y0179791D02*
X0129424Y0179791D01*
X0128319Y0182190D02*
X0010700Y0182190D01*
X0010700Y0184588D02*
X0128319Y0184588D01*
X0128319Y0186987D02*
X0010700Y0186987D01*
X0010700Y0189385D02*
X0129201Y0189385D01*
X0136844Y0228319D02*
X0135226Y0228989D01*
X0133989Y0230226D01*
X0133319Y0231844D01*
X0133319Y0237556D01*
X0133989Y0239173D01*
X0135226Y0240411D01*
X0136844Y0241081D01*
X0142556Y0241081D01*
X0144173Y0240411D01*
X0145411Y0239173D01*
X0146081Y0237556D01*
X0146081Y0231844D01*
X0145411Y0230226D01*
X0144173Y0228989D01*
X0142556Y0228319D01*
X0136844Y0228319D01*
X0134055Y0230160D02*
X0010700Y0230160D01*
X0010700Y0227762D02*
X0147706Y0227762D01*
X0147063Y0230160D02*
X0145345Y0230160D01*
X0146081Y0232559D02*
X0146489Y0232559D01*
X0146489Y0234957D02*
X0146081Y0234957D01*
X0146081Y0237356D02*
X0146558Y0237356D01*
X0147201Y0239754D02*
X0144831Y0239754D01*
X0147975Y0242153D02*
X0010700Y0242153D01*
X0010700Y0244551D02*
X0149359Y0244551D01*
X0151195Y0246950D02*
X0010700Y0246950D01*
X0010700Y0249348D02*
X0153649Y0249348D01*
X0157957Y0251747D02*
X0010700Y0251747D01*
X0010700Y0254145D02*
X0197519Y0254145D01*
X0197519Y0251747D02*
X0171443Y0251747D01*
X0175751Y0249348D02*
X0197519Y0249348D01*
X0197519Y0246950D02*
X0178205Y0246950D01*
X0180041Y0244551D02*
X0186778Y0244551D01*
X0184655Y0242153D02*
X0181425Y0242153D01*
X0180950Y0234700D02*
X0194700Y0234700D01*
X0189700Y0229700D01*
X0184442Y0227762D02*
X0181694Y0227762D01*
X0180338Y0225363D02*
X0186117Y0225363D01*
X0178719Y0222965D02*
X0197519Y0222965D01*
X0197519Y0225363D02*
X0193283Y0225363D01*
X0195681Y0227762D02*
X0197519Y0227762D01*
X0194700Y0234700D02*
X0189700Y0239700D01*
X0192622Y0244551D02*
X0197519Y0244551D01*
X0197519Y0242153D02*
X0195167Y0242153D01*
X0197519Y0256544D02*
X0010700Y0256544D01*
X0010700Y0258942D02*
X0197519Y0258942D01*
X0197519Y0261341D02*
X0010700Y0261341D01*
X0010700Y0263739D02*
X0197519Y0263739D01*
X0197519Y0266138D02*
X0010700Y0266138D01*
X0010700Y0268536D02*
X0156274Y0268536D01*
X0152711Y0270935D02*
X0010700Y0270935D01*
X0010700Y0273333D02*
X0133396Y0273333D01*
X0133431Y0273319D02*
X0135969Y0273319D01*
X0137200Y0273829D01*
X0138431Y0273319D01*
X0140969Y0273319D01*
X0143315Y0274290D01*
X0145110Y0276085D01*
X0146081Y0278431D01*
X0146081Y0280969D01*
X0145571Y0282200D01*
X0146081Y0283431D01*
X0146081Y0285969D01*
X0145110Y0288315D01*
X0143315Y0290110D01*
X0140969Y0291081D01*
X0138431Y0291081D01*
X0137200Y0290571D01*
X0135969Y0291081D01*
X0133431Y0291081D01*
X0131085Y0290110D01*
X0129290Y0288315D01*
X0128319Y0285969D01*
X0128319Y0283431D01*
X0128829Y0282200D01*
X0128319Y0280969D01*
X0128319Y0278431D01*
X0129290Y0276085D01*
X0131085Y0274290D01*
X0133431Y0273319D01*
X0136004Y0273333D02*
X0138396Y0273333D01*
X0141004Y0273333D02*
X0150312Y0273333D01*
X0148850Y0275732D02*
X0144756Y0275732D01*
X0145957Y0278130D02*
X0147607Y0278130D01*
X0146964Y0280529D02*
X0146081Y0280529D01*
X0145873Y0282927D02*
X0146489Y0282927D01*
X0146489Y0285326D02*
X0146081Y0285326D01*
X0146657Y0287724D02*
X0145354Y0287724D01*
X0147300Y0290123D02*
X0143283Y0290123D01*
X0148187Y0292521D02*
X0010700Y0292521D01*
X0010700Y0290123D02*
X0131117Y0290123D01*
X0129046Y0287724D02*
X0010700Y0287724D01*
X0010700Y0285326D02*
X0128319Y0285326D01*
X0128527Y0282927D02*
X0010700Y0282927D01*
X0010700Y0280529D02*
X0128319Y0280529D01*
X0128443Y0278130D02*
X0010700Y0278130D01*
X0010700Y0275732D02*
X0129644Y0275732D01*
X0125814Y0299100D02*
X0127872Y0299953D01*
X0129447Y0301528D01*
X0130300Y0303586D01*
X0130300Y0305814D01*
X0129447Y0307872D01*
X0127872Y0309447D01*
X0125814Y0310300D01*
X0113586Y0310300D01*
X0111528Y0309447D01*
X0109953Y0307872D01*
X0109100Y0305814D01*
X0109100Y0303586D01*
X0109953Y0301528D01*
X0111528Y0299953D01*
X0113586Y0299100D01*
X0125814Y0299100D01*
X0127303Y0299717D02*
X0154288Y0299717D01*
X0151564Y0297318D02*
X0100546Y0297318D01*
X0101788Y0297833D02*
X0098811Y0296600D01*
X0095589Y0296600D01*
X0092612Y0297833D01*
X0091189Y0299256D01*
X0090814Y0299100D01*
X0088586Y0299100D01*
X0086528Y0299953D01*
X0084953Y0301528D01*
X0084100Y0303586D01*
X0084100Y0306311D01*
X0085333Y0309288D01*
X0085333Y0309288D01*
X0087612Y0311567D01*
X0087612Y0311567D01*
X0090589Y0312800D01*
X0093811Y0312800D01*
X0096788Y0311567D01*
X0096788Y0311567D01*
X0098211Y0310144D01*
X0098586Y0310300D01*
X0100814Y0310300D01*
X0102872Y0309447D01*
X0104447Y0307872D01*
X0105300Y0305814D01*
X0105300Y0303089D01*
X0104067Y0300112D01*
X0104067Y0300112D01*
X0101788Y0297833D01*
X0101788Y0297833D01*
X0103672Y0299717D02*
X0112097Y0299717D01*
X0109709Y0302115D02*
X0104897Y0302115D01*
X0105300Y0304514D02*
X0109100Y0304514D01*
X0109555Y0306912D02*
X0104845Y0306912D01*
X0103009Y0309311D02*
X0111391Y0309311D01*
X0114700Y0304700D02*
X0124700Y0304700D01*
X0128009Y0309311D02*
X0197519Y0309311D01*
X0197519Y0311709D02*
X0096444Y0311709D01*
X0097671Y0317730D02*
X0093518Y0320128D01*
X0090128Y0323518D01*
X0087730Y0327671D01*
X0086489Y0332302D01*
X0086489Y0337098D01*
X0087730Y0341729D01*
X0090128Y0345882D01*
X0093518Y0349272D01*
X0097671Y0351670D01*
X0102302Y0352911D01*
X0107098Y0352911D01*
X0111729Y0351670D01*
X0115882Y0349272D01*
X0119272Y0345882D01*
X0121670Y0341729D01*
X0122911Y0337098D01*
X0122911Y0332302D01*
X0121670Y0327671D01*
X0119272Y0323518D01*
X0115882Y0320128D01*
X0111729Y0317730D01*
X0107098Y0316489D01*
X0102302Y0316489D01*
X0097671Y0317730D01*
X0095636Y0318905D02*
X0053764Y0318905D01*
X0051729Y0317730D02*
X0055882Y0320128D01*
X0059272Y0323518D01*
X0061670Y0327671D01*
X0062911Y0332302D01*
X0062911Y0337098D01*
X0061670Y0341729D01*
X0059272Y0345882D01*
X0055882Y0349272D01*
X0051729Y0351670D01*
X0047098Y0352911D01*
X0042302Y0352911D01*
X0037671Y0351670D01*
X0033518Y0349272D01*
X0030128Y0345882D01*
X0027730Y0341729D01*
X0026489Y0337098D01*
X0026489Y0332302D01*
X0027730Y0327671D01*
X0030128Y0323518D01*
X0033518Y0320128D01*
X0037671Y0317730D01*
X0042302Y0316489D01*
X0047098Y0316489D01*
X0051729Y0317730D01*
X0057058Y0321303D02*
X0092342Y0321303D01*
X0090021Y0323702D02*
X0059379Y0323702D01*
X0060763Y0326101D02*
X0088637Y0326101D01*
X0087508Y0328499D02*
X0061892Y0328499D01*
X0062535Y0330898D02*
X0086865Y0330898D01*
X0086489Y0333296D02*
X0062911Y0333296D01*
X0062911Y0335695D02*
X0086489Y0335695D01*
X0086756Y0338093D02*
X0062644Y0338093D01*
X0062002Y0340492D02*
X0087398Y0340492D01*
X0088400Y0342890D02*
X0061000Y0342890D01*
X0059615Y0345289D02*
X0089785Y0345289D01*
X0091933Y0347687D02*
X0057467Y0347687D01*
X0054473Y0350086D02*
X0094927Y0350086D01*
X0100709Y0352484D02*
X0048691Y0352484D01*
X0047098Y0366489D02*
X0051729Y0367730D01*
X0055882Y0370128D01*
X0059272Y0373518D01*
X0061670Y0377671D01*
X0062911Y0382302D01*
X0062911Y0387098D01*
X0061670Y0391729D01*
X0059272Y0395882D01*
X0055882Y0399272D01*
X0051729Y0401670D01*
X0050042Y0402122D01*
X0054447Y0406528D01*
X0055300Y0408586D01*
X0055300Y0410814D01*
X0054447Y0412872D01*
X0052872Y0414447D01*
X0050814Y0415300D01*
X0050300Y0415300D01*
X0050300Y0417347D01*
X0051729Y0417730D01*
X0055882Y0420128D01*
X0059272Y0423518D01*
X0061670Y0427671D01*
X0062911Y0432302D01*
X0062911Y0437098D01*
X0061670Y0441729D01*
X0059272Y0445882D01*
X0055882Y0449272D01*
X0051729Y0451670D01*
X0047098Y0452911D01*
X0042302Y0452911D01*
X0037671Y0451670D01*
X0033518Y0449272D01*
X0030128Y0445882D01*
X0027730Y0441729D01*
X0026489Y0437098D01*
X0026489Y0432302D01*
X0027730Y0427671D01*
X0030128Y0423518D01*
X0033518Y0420128D01*
X0037671Y0417730D01*
X0039100Y0417347D01*
X0039100Y0415300D01*
X0038586Y0415300D01*
X0036528Y0414447D01*
X0034953Y0412872D01*
X0034100Y0410814D01*
X0034100Y0408586D01*
X0034953Y0406528D01*
X0039358Y0402122D01*
X0037671Y0401670D01*
X0033518Y0399272D01*
X0030128Y0395882D01*
X0027730Y0391729D01*
X0026489Y0387098D01*
X0026489Y0382302D01*
X0027730Y0377671D01*
X0030128Y0373518D01*
X0033518Y0370128D01*
X0037671Y0367730D01*
X0042302Y0366489D01*
X0047098Y0366489D01*
X0048539Y0366875D02*
X0100861Y0366875D01*
X0102302Y0366489D02*
X0107098Y0366489D01*
X0111729Y0367730D01*
X0115882Y0370128D01*
X0119272Y0373518D01*
X0121670Y0377671D01*
X0122911Y0382302D01*
X0122911Y0387098D01*
X0121670Y0391729D01*
X0119272Y0395882D01*
X0115882Y0399272D01*
X0111729Y0401670D01*
X0110042Y0402122D01*
X0114447Y0406528D01*
X0115300Y0408586D01*
X0115300Y0410814D01*
X0114447Y0412872D01*
X0112872Y0414447D01*
X0110814Y0415300D01*
X0110300Y0415300D01*
X0110300Y0417347D01*
X0111729Y0417730D01*
X0115882Y0420128D01*
X0119272Y0423518D01*
X0121670Y0427671D01*
X0122911Y0432302D01*
X0122911Y0437098D01*
X0121670Y0441729D01*
X0119272Y0445882D01*
X0115882Y0449272D01*
X0111729Y0451670D01*
X0107098Y0452911D01*
X0102302Y0452911D01*
X0097671Y0451670D01*
X0093518Y0449272D01*
X0090128Y0445882D01*
X0087730Y0441729D01*
X0086489Y0437098D01*
X0086489Y0432302D01*
X0087730Y0427671D01*
X0090128Y0423518D01*
X0093518Y0420128D01*
X0097671Y0417730D01*
X0099100Y0417347D01*
X0099100Y0415300D01*
X0098586Y0415300D01*
X0096528Y0414447D01*
X0094953Y0412872D01*
X0094100Y0410814D01*
X0094100Y0408586D01*
X0094953Y0406528D01*
X0099358Y0402122D01*
X0097671Y0401670D01*
X0093518Y0399272D01*
X0090128Y0395882D01*
X0087730Y0391729D01*
X0086489Y0387098D01*
X0086489Y0382302D01*
X0087730Y0377671D01*
X0090128Y0373518D01*
X0093518Y0370128D01*
X0097671Y0367730D01*
X0102302Y0366489D01*
X0108539Y0366875D02*
X0160861Y0366875D01*
X0154997Y0369274D02*
X0114403Y0369274D01*
X0117427Y0371672D02*
X0151973Y0371672D01*
X0149809Y0374071D02*
X0119591Y0374071D01*
X0120976Y0376469D02*
X0148424Y0376469D01*
X0147409Y0378868D02*
X0142294Y0378868D01*
X0143315Y0379290D02*
X0140969Y0378319D01*
X0138431Y0378319D01*
X0137200Y0378829D01*
X0135969Y0378319D01*
X0133431Y0378319D01*
X0131085Y0379290D01*
X0129290Y0381085D01*
X0128319Y0383431D01*
X0128319Y0385969D01*
X0129290Y0388315D01*
X0131085Y0390110D01*
X0133431Y0391081D01*
X0135969Y0391081D01*
X0137200Y0390571D01*
X0138431Y0391081D01*
X0140969Y0391081D01*
X0143315Y0390110D01*
X0145110Y0388315D01*
X0146081Y0385969D01*
X0146081Y0383431D01*
X0145110Y0381085D01*
X0143315Y0379290D01*
X0145185Y0381266D02*
X0146767Y0381266D01*
X0146489Y0383665D02*
X0146081Y0383665D01*
X0146042Y0386063D02*
X0146489Y0386063D01*
X0146855Y0388462D02*
X0144962Y0388462D01*
X0147497Y0390860D02*
X0141502Y0390860D01*
X0137898Y0390860D02*
X0136502Y0390860D01*
X0132898Y0390860D02*
X0121903Y0390860D01*
X0122545Y0388462D02*
X0129438Y0388462D01*
X0128358Y0386063D02*
X0122911Y0386063D01*
X0122911Y0383665D02*
X0128319Y0383665D01*
X0129215Y0381266D02*
X0122633Y0381266D01*
X0121991Y0378868D02*
X0132106Y0378868D01*
X0120787Y0393259D02*
X0148613Y0393259D01*
X0149998Y0395657D02*
X0119402Y0395657D01*
X0117098Y0398056D02*
X0152302Y0398056D01*
X0155565Y0400454D02*
X0113835Y0400454D01*
X0113171Y0405251D02*
X0197519Y0405251D01*
X0197519Y0402853D02*
X0167314Y0402853D01*
X0162086Y0402853D02*
X0110772Y0402853D01*
X0114912Y0407650D02*
X0197519Y0407650D01*
X0197519Y0410048D02*
X0115300Y0410048D01*
X0114624Y0412447D02*
X0197519Y0412447D01*
X0197519Y0414845D02*
X0111911Y0414845D01*
X0110300Y0417244D02*
X0159485Y0417244D01*
X0154358Y0419642D02*
X0115042Y0419642D01*
X0117795Y0422041D02*
X0151605Y0422041D01*
X0149596Y0424439D02*
X0119804Y0424439D01*
X0121189Y0426838D02*
X0148211Y0426838D01*
X0147310Y0429237D02*
X0143185Y0429237D01*
X0143315Y0429290D02*
X0145110Y0431085D01*
X0146081Y0433431D01*
X0146081Y0435969D01*
X0145110Y0438315D01*
X0143315Y0440110D01*
X0140969Y0441081D01*
X0138431Y0441081D01*
X0136085Y0440110D01*
X0134290Y0438315D01*
X0133319Y0435969D01*
X0133319Y0433431D01*
X0134290Y0431085D01*
X0136085Y0429290D01*
X0138431Y0428319D01*
X0140969Y0428319D01*
X0143315Y0429290D01*
X0145337Y0431635D02*
X0146668Y0431635D01*
X0146489Y0434034D02*
X0146081Y0434034D01*
X0145889Y0436432D02*
X0146489Y0436432D01*
X0146953Y0438831D02*
X0144594Y0438831D01*
X0147596Y0441229D02*
X0121804Y0441229D01*
X0122447Y0438831D02*
X0134806Y0438831D01*
X0133511Y0436432D02*
X0122911Y0436432D01*
X0122911Y0434034D02*
X0133319Y0434034D01*
X0134063Y0431635D02*
X0122732Y0431635D01*
X0122089Y0429237D02*
X0136215Y0429237D01*
X0148826Y0443628D02*
X0120574Y0443628D01*
X0119128Y0446026D02*
X0150272Y0446026D01*
X0152670Y0448425D02*
X0116730Y0448425D01*
X0113196Y0450823D02*
X0156204Y0450823D01*
X0169915Y0417244D02*
X0197519Y0417244D01*
X0197519Y0419642D02*
X0175042Y0419642D01*
X0177795Y0422041D02*
X0197519Y0422041D01*
X0197519Y0424439D02*
X0191633Y0424439D01*
X0189700Y0429700D02*
X0194700Y0434700D01*
X0189700Y0439700D01*
X0193692Y0443628D02*
X0197519Y0443628D01*
X0197519Y0446026D02*
X0179128Y0446026D01*
X0180574Y0443628D02*
X0185708Y0443628D01*
X0184272Y0441229D02*
X0181804Y0441229D01*
X0180950Y0434700D02*
X0194700Y0434700D01*
X0197156Y0429237D02*
X0197519Y0429237D01*
X0197519Y0426838D02*
X0194758Y0426838D01*
X0196091Y0441229D02*
X0197519Y0441229D01*
X0197519Y0448425D02*
X0176730Y0448425D01*
X0173196Y0450823D02*
X0197519Y0450823D01*
X0197519Y0453222D02*
X0010700Y0453222D01*
X0010700Y0455620D02*
X0197519Y0455620D01*
X0197519Y0458019D02*
X0010700Y0458019D01*
X0010700Y0460417D02*
X0197519Y0460417D01*
X0197519Y0462816D02*
X0010700Y0462816D01*
X0010700Y0465214D02*
X0197519Y0465214D01*
X0197519Y0467613D02*
X0010700Y0467613D01*
X0010700Y0470011D02*
X0197519Y0470011D01*
X0197519Y0472410D02*
X0010700Y0472410D01*
X0010700Y0474808D02*
X0197519Y0474808D01*
X0197519Y0477207D02*
X0010700Y0477207D01*
X0010700Y0479605D02*
X0197519Y0479605D01*
X0197519Y0482004D02*
X0010700Y0482004D01*
X0010700Y0484402D02*
X0197519Y0484402D01*
X0197519Y0486801D02*
X0177536Y0486801D01*
X0182077Y0489199D02*
X0197519Y0489199D01*
X0197519Y0491598D02*
X0184273Y0491598D01*
X0185649Y0493996D02*
X0197519Y0493996D01*
X0197519Y0496395D02*
X0186292Y0496395D01*
X0186494Y0498793D02*
X0197519Y0498793D01*
X0197519Y0501192D02*
X0186292Y0501192D01*
X0185650Y0503590D02*
X0197519Y0503590D01*
X0170447Y0486801D02*
X0037772Y0486801D01*
X0042313Y0489199D02*
X0165906Y0489199D01*
X0163710Y0491598D02*
X0044509Y0491598D01*
X0045885Y0493996D02*
X0162334Y0493996D01*
X0161691Y0496395D02*
X0046528Y0496395D01*
X0046730Y0498793D02*
X0161489Y0498793D01*
X0161690Y0501192D02*
X0046529Y0501192D01*
X0045886Y0503590D02*
X0162333Y0503590D01*
X0181189Y0426838D02*
X0184824Y0426838D01*
X0187766Y0424439D02*
X0179804Y0424439D01*
X0173835Y0400454D02*
X0197519Y0400454D01*
X0197519Y0398056D02*
X0177098Y0398056D01*
X0179402Y0395657D02*
X0197519Y0395657D01*
X0197519Y0393259D02*
X0194061Y0393259D01*
X0196459Y0390860D02*
X0197519Y0390860D01*
X0194700Y0384700D02*
X0189700Y0379700D01*
X0194389Y0376469D02*
X0197519Y0376469D01*
X0197519Y0374071D02*
X0179591Y0374071D01*
X0180976Y0376469D02*
X0185011Y0376469D01*
X0184100Y0378868D02*
X0181991Y0378868D01*
X0180950Y0384700D02*
X0194700Y0384700D01*
X0189700Y0389700D01*
X0185339Y0393259D02*
X0180787Y0393259D01*
X0181903Y0390860D02*
X0184119Y0390860D01*
X0177427Y0371672D02*
X0197519Y0371672D01*
X0197519Y0369274D02*
X0174403Y0369274D01*
X0168539Y0366875D02*
X0197519Y0366875D01*
X0197519Y0364477D02*
X0010700Y0364477D01*
X0010700Y0366875D02*
X0040861Y0366875D01*
X0034997Y0369274D02*
X0010700Y0369274D01*
X0010700Y0371672D02*
X0031973Y0371672D01*
X0029809Y0374071D02*
X0010700Y0374071D01*
X0010700Y0376469D02*
X0028424Y0376469D01*
X0027409Y0378868D02*
X0010700Y0378868D01*
X0010700Y0381266D02*
X0026767Y0381266D01*
X0026489Y0383665D02*
X0010700Y0383665D01*
X0010700Y0386063D02*
X0026489Y0386063D01*
X0026855Y0388462D02*
X0010700Y0388462D01*
X0010700Y0390860D02*
X0027497Y0390860D01*
X0028613Y0393259D02*
X0010700Y0393259D01*
X0010700Y0395657D02*
X0029998Y0395657D01*
X0032302Y0398056D02*
X0010700Y0398056D01*
X0010700Y0400454D02*
X0035565Y0400454D01*
X0038628Y0402853D02*
X0010700Y0402853D01*
X0010700Y0405251D02*
X0036229Y0405251D01*
X0034488Y0407650D02*
X0010700Y0407650D01*
X0010700Y0410048D02*
X0034100Y0410048D01*
X0034776Y0412447D02*
X0010700Y0412447D01*
X0010700Y0414845D02*
X0037489Y0414845D01*
X0039100Y0417244D02*
X0010700Y0417244D01*
X0010700Y0419642D02*
X0034358Y0419642D01*
X0031605Y0422041D02*
X0010700Y0422041D01*
X0010700Y0424439D02*
X0029596Y0424439D01*
X0028211Y0426838D02*
X0010700Y0426838D01*
X0010700Y0429237D02*
X0027310Y0429237D01*
X0026668Y0431635D02*
X0010700Y0431635D01*
X0010700Y0434034D02*
X0026489Y0434034D01*
X0026489Y0436432D02*
X0010700Y0436432D01*
X0010700Y0438831D02*
X0026953Y0438831D01*
X0027596Y0441229D02*
X0010700Y0441229D01*
X0010700Y0443628D02*
X0028826Y0443628D01*
X0030272Y0446026D02*
X0010700Y0446026D01*
X0010700Y0448425D02*
X0032670Y0448425D01*
X0036204Y0450823D02*
X0010700Y0450823D01*
X0010700Y0486801D02*
X0030683Y0486801D01*
X0026142Y0489199D02*
X0010700Y0489199D01*
X0010700Y0491598D02*
X0023946Y0491598D01*
X0022570Y0493996D02*
X0010700Y0493996D01*
X0010700Y0496395D02*
X0021927Y0496395D01*
X0021725Y0498793D02*
X0010700Y0498793D01*
X0010700Y0501192D02*
X0021927Y0501192D01*
X0022569Y0503590D02*
X0010700Y0503590D01*
X0044700Y0418450D02*
X0044700Y0404700D01*
X0049700Y0409700D01*
X0051911Y0414845D02*
X0097489Y0414845D01*
X0099100Y0417244D02*
X0050300Y0417244D01*
X0055042Y0419642D02*
X0094358Y0419642D01*
X0091605Y0422041D02*
X0057795Y0422041D01*
X0059804Y0424439D02*
X0089596Y0424439D01*
X0088211Y0426838D02*
X0061189Y0426838D01*
X0062089Y0429237D02*
X0087310Y0429237D01*
X0086668Y0431635D02*
X0062732Y0431635D01*
X0062911Y0434034D02*
X0086489Y0434034D01*
X0086489Y0436432D02*
X0062911Y0436432D01*
X0062447Y0438831D02*
X0086953Y0438831D01*
X0087596Y0441229D02*
X0061804Y0441229D01*
X0060574Y0443628D02*
X0088826Y0443628D01*
X0090272Y0446026D02*
X0059128Y0446026D01*
X0056730Y0448425D02*
X0092670Y0448425D01*
X0096204Y0450823D02*
X0053196Y0450823D01*
X0054624Y0412447D02*
X0094776Y0412447D01*
X0094100Y0410048D02*
X0055300Y0410048D01*
X0054912Y0407650D02*
X0094488Y0407650D01*
X0096229Y0405251D02*
X0053171Y0405251D01*
X0050772Y0402853D02*
X0098628Y0402853D01*
X0095565Y0400454D02*
X0053835Y0400454D01*
X0057098Y0398056D02*
X0092302Y0398056D01*
X0089998Y0395657D02*
X0059402Y0395657D01*
X0060787Y0393259D02*
X0088613Y0393259D01*
X0087497Y0390860D02*
X0061903Y0390860D01*
X0062545Y0388462D02*
X0086855Y0388462D01*
X0086489Y0386063D02*
X0062911Y0386063D01*
X0062911Y0383665D02*
X0086489Y0383665D01*
X0086767Y0381266D02*
X0062633Y0381266D01*
X0061991Y0378868D02*
X0087409Y0378868D01*
X0088424Y0376469D02*
X0060976Y0376469D01*
X0059591Y0374071D02*
X0089809Y0374071D01*
X0091973Y0371672D02*
X0057427Y0371672D01*
X0054403Y0369274D02*
X0094997Y0369274D01*
X0108691Y0352484D02*
X0160709Y0352484D01*
X0154927Y0350086D02*
X0114473Y0350086D01*
X0117467Y0347687D02*
X0151933Y0347687D01*
X0149785Y0345289D02*
X0119615Y0345289D01*
X0121000Y0342890D02*
X0148400Y0342890D01*
X0147398Y0340492D02*
X0142392Y0340492D01*
X0143315Y0340110D02*
X0140969Y0341081D01*
X0138431Y0341081D01*
X0137200Y0340571D01*
X0135969Y0341081D01*
X0133431Y0341081D01*
X0131085Y0340110D01*
X0129290Y0338315D01*
X0128319Y0335969D01*
X0128319Y0333431D01*
X0128829Y0332200D01*
X0128319Y0330969D01*
X0128319Y0328431D01*
X0129290Y0326085D01*
X0131085Y0324290D01*
X0133431Y0323319D01*
X0135969Y0323319D01*
X0138315Y0324290D01*
X0140110Y0326085D01*
X0141048Y0328352D01*
X0143315Y0329290D01*
X0145110Y0331085D01*
X0146081Y0333431D01*
X0146081Y0335969D01*
X0145110Y0338315D01*
X0143315Y0340110D01*
X0145201Y0338093D02*
X0146756Y0338093D01*
X0146489Y0335695D02*
X0146081Y0335695D01*
X0146025Y0333296D02*
X0146489Y0333296D01*
X0146865Y0330898D02*
X0144922Y0330898D01*
X0147508Y0328499D02*
X0141404Y0328499D01*
X0140116Y0326101D02*
X0148637Y0326101D01*
X0150021Y0323702D02*
X0136894Y0323702D01*
X0132506Y0323702D02*
X0119379Y0323702D01*
X0120763Y0326101D02*
X0129284Y0326101D01*
X0128319Y0328499D02*
X0121892Y0328499D01*
X0122535Y0330898D02*
X0128319Y0330898D01*
X0128375Y0333296D02*
X0122911Y0333296D01*
X0122911Y0335695D02*
X0128319Y0335695D01*
X0129199Y0338093D02*
X0122644Y0338093D01*
X0122002Y0340492D02*
X0132008Y0340492D01*
X0129845Y0306912D02*
X0197519Y0306912D01*
X0197519Y0304514D02*
X0130300Y0304514D01*
X0129691Y0302115D02*
X0159333Y0302115D01*
X0162237Y0316506D02*
X0107163Y0316506D01*
X0102237Y0316506D02*
X0047163Y0316506D01*
X0048586Y0310300D02*
X0046528Y0309447D01*
X0044953Y0307872D01*
X0044100Y0305814D01*
X0044100Y0303586D01*
X0044953Y0301528D01*
X0046528Y0299953D01*
X0048586Y0299100D01*
X0060814Y0299100D01*
X0062872Y0299953D01*
X0064447Y0301528D01*
X0065300Y0303586D01*
X0065300Y0305814D01*
X0064447Y0307872D01*
X0062872Y0309447D01*
X0060814Y0310300D01*
X0048586Y0310300D01*
X0046391Y0309311D02*
X0038009Y0309311D01*
X0037872Y0309447D02*
X0035814Y0310300D01*
X0033586Y0310300D01*
X0033211Y0310144D01*
X0031788Y0311567D01*
X0028811Y0312800D01*
X0025589Y0312800D01*
X0022612Y0311567D01*
X0022612Y0311567D01*
X0020333Y0309288D01*
X0019100Y0306311D01*
X0019100Y0303586D01*
X0019953Y0301528D01*
X0021528Y0299953D01*
X0023586Y0299100D01*
X0025814Y0299100D01*
X0026189Y0299256D01*
X0027612Y0297833D01*
X0030589Y0296600D01*
X0033811Y0296600D01*
X0036788Y0297833D01*
X0036788Y0297833D01*
X0039067Y0300112D01*
X0040300Y0303089D01*
X0040300Y0305814D01*
X0039447Y0307872D01*
X0037872Y0309447D01*
X0039845Y0306912D02*
X0044555Y0306912D01*
X0044100Y0304514D02*
X0040300Y0304514D01*
X0039897Y0302115D02*
X0044709Y0302115D01*
X0047097Y0299717D02*
X0038672Y0299717D01*
X0039067Y0300112D02*
X0039067Y0300112D01*
X0035546Y0297318D02*
X0093854Y0297318D01*
X0092612Y0297833D02*
X0092612Y0297833D01*
X0094700Y0304700D02*
X0094698Y0304798D01*
X0094692Y0304896D01*
X0094683Y0304994D01*
X0094669Y0305091D01*
X0094652Y0305188D01*
X0094631Y0305284D01*
X0094606Y0305379D01*
X0094578Y0305473D01*
X0094545Y0305565D01*
X0094510Y0305657D01*
X0094470Y0305747D01*
X0094428Y0305835D01*
X0094381Y0305922D01*
X0094332Y0306006D01*
X0094279Y0306089D01*
X0094223Y0306169D01*
X0094163Y0306248D01*
X0094101Y0306324D01*
X0094036Y0306397D01*
X0093968Y0306468D01*
X0093897Y0306536D01*
X0093824Y0306601D01*
X0093748Y0306663D01*
X0093669Y0306723D01*
X0093589Y0306779D01*
X0093506Y0306832D01*
X0093422Y0306881D01*
X0093335Y0306928D01*
X0093247Y0306970D01*
X0093157Y0307010D01*
X0093065Y0307045D01*
X0092973Y0307078D01*
X0092879Y0307106D01*
X0092784Y0307131D01*
X0092688Y0307152D01*
X0092591Y0307169D01*
X0092494Y0307183D01*
X0092396Y0307192D01*
X0092298Y0307198D01*
X0092200Y0307200D01*
X0092102Y0307198D01*
X0092004Y0307192D01*
X0091906Y0307183D01*
X0091809Y0307169D01*
X0091712Y0307152D01*
X0091616Y0307131D01*
X0091521Y0307106D01*
X0091427Y0307078D01*
X0091335Y0307045D01*
X0091243Y0307010D01*
X0091153Y0306970D01*
X0091065Y0306928D01*
X0090978Y0306881D01*
X0090894Y0306832D01*
X0090811Y0306779D01*
X0090731Y0306723D01*
X0090652Y0306663D01*
X0090576Y0306601D01*
X0090503Y0306536D01*
X0090432Y0306468D01*
X0090364Y0306397D01*
X0090299Y0306324D01*
X0090237Y0306248D01*
X0090177Y0306169D01*
X0090121Y0306089D01*
X0090068Y0306006D01*
X0090019Y0305922D01*
X0089972Y0305835D01*
X0089930Y0305747D01*
X0089890Y0305657D01*
X0089855Y0305565D01*
X0089822Y0305473D01*
X0089794Y0305379D01*
X0089769Y0305284D01*
X0089748Y0305188D01*
X0089731Y0305091D01*
X0089717Y0304994D01*
X0089708Y0304896D01*
X0089702Y0304798D01*
X0089700Y0304700D01*
X0087097Y0299717D02*
X0062303Y0299717D01*
X0064691Y0302115D02*
X0084709Y0302115D01*
X0084100Y0304514D02*
X0065300Y0304514D01*
X0064845Y0306912D02*
X0084349Y0306912D01*
X0085356Y0309311D02*
X0063009Y0309311D01*
X0059700Y0304700D02*
X0049700Y0304700D01*
X0042237Y0316506D02*
X0010700Y0316506D01*
X0010700Y0314108D02*
X0197519Y0314108D01*
X0197519Y0316506D02*
X0167163Y0316506D01*
X0173764Y0318905D02*
X0197519Y0318905D01*
X0197519Y0321303D02*
X0177058Y0321303D01*
X0179379Y0323702D02*
X0197519Y0323702D01*
X0197519Y0326101D02*
X0194020Y0326101D01*
X0196419Y0328499D02*
X0197519Y0328499D01*
X0194700Y0334700D02*
X0189700Y0329700D01*
X0185380Y0326101D02*
X0180763Y0326101D01*
X0181892Y0328499D02*
X0184136Y0328499D01*
X0180950Y0334700D02*
X0194700Y0334700D01*
X0189700Y0339700D01*
X0188559Y0345289D02*
X0179615Y0345289D01*
X0181000Y0342890D02*
X0184971Y0342890D01*
X0184100Y0340492D02*
X0182002Y0340492D01*
X0177467Y0347687D02*
X0197519Y0347687D01*
X0197519Y0345289D02*
X0190841Y0345289D01*
X0194429Y0342890D02*
X0197519Y0342890D01*
X0197519Y0340492D02*
X0196828Y0340492D01*
X0197519Y0350086D02*
X0174473Y0350086D01*
X0168691Y0352484D02*
X0197519Y0352484D01*
X0197519Y0354883D02*
X0010700Y0354883D01*
X0010700Y0357281D02*
X0197519Y0357281D01*
X0197519Y0359680D02*
X0010700Y0359680D01*
X0010700Y0362078D02*
X0197519Y0362078D01*
X0197519Y0378868D02*
X0196787Y0378868D01*
X0197519Y0302115D02*
X0170067Y0302115D01*
X0175112Y0299717D02*
X0197519Y0299717D01*
X0197519Y0297318D02*
X0177836Y0297318D01*
X0179828Y0294920D02*
X0187668Y0294920D01*
X0184807Y0292521D02*
X0181213Y0292521D01*
X0180950Y0284700D02*
X0194700Y0284700D01*
X0189700Y0279700D01*
X0193651Y0275732D02*
X0197519Y0275732D01*
X0197519Y0278130D02*
X0196050Y0278130D01*
X0197519Y0273333D02*
X0179088Y0273333D01*
X0180550Y0275732D02*
X0185749Y0275732D01*
X0184289Y0278130D02*
X0181793Y0278130D01*
X0176689Y0270935D02*
X0197519Y0270935D01*
X0197519Y0268536D02*
X0173126Y0268536D01*
X0189700Y0289700D02*
X0194700Y0284700D01*
X0197197Y0290123D02*
X0197519Y0290123D01*
X0197519Y0292521D02*
X0194798Y0292521D01*
X0197519Y0294920D02*
X0191732Y0294920D01*
X0197519Y0220566D02*
X0176320Y0220566D01*
X0172487Y0218168D02*
X0197519Y0218168D01*
X0197519Y0215769D02*
X0010700Y0215769D01*
X0010700Y0213370D02*
X0197519Y0213370D01*
X0197519Y0210972D02*
X0010700Y0210972D01*
X0010700Y0208573D02*
X0197519Y0208573D01*
X0197519Y0206175D02*
X0010700Y0206175D01*
X0010700Y0218168D02*
X0156913Y0218168D01*
X0153080Y0220566D02*
X0010700Y0220566D01*
X0010700Y0222965D02*
X0150681Y0222965D01*
X0149062Y0225363D02*
X0010700Y0225363D01*
X0010700Y0232559D02*
X0133319Y0232559D01*
X0133319Y0234957D02*
X0010700Y0234957D01*
X0010700Y0237356D02*
X0133319Y0237356D01*
X0134569Y0239754D02*
X0010700Y0239754D01*
X0010700Y0294920D02*
X0149572Y0294920D01*
X0155636Y0318905D02*
X0113764Y0318905D01*
X0117058Y0321303D02*
X0152342Y0321303D01*
X0104700Y0404700D02*
X0109700Y0409700D01*
X0104700Y0404700D02*
X0099700Y0409700D01*
X0104700Y0404700D02*
X0104700Y0418450D01*
X0087956Y0311709D02*
X0031444Y0311709D01*
X0031788Y0311567D02*
X0031788Y0311567D01*
X0029700Y0304700D02*
X0029702Y0304602D01*
X0029708Y0304504D01*
X0029717Y0304406D01*
X0029731Y0304309D01*
X0029748Y0304212D01*
X0029769Y0304116D01*
X0029794Y0304021D01*
X0029822Y0303927D01*
X0029855Y0303835D01*
X0029890Y0303743D01*
X0029930Y0303653D01*
X0029972Y0303565D01*
X0030019Y0303478D01*
X0030068Y0303394D01*
X0030121Y0303311D01*
X0030177Y0303231D01*
X0030237Y0303152D01*
X0030299Y0303076D01*
X0030364Y0303003D01*
X0030432Y0302932D01*
X0030503Y0302864D01*
X0030576Y0302799D01*
X0030652Y0302737D01*
X0030731Y0302677D01*
X0030811Y0302621D01*
X0030894Y0302568D01*
X0030978Y0302519D01*
X0031065Y0302472D01*
X0031153Y0302430D01*
X0031243Y0302390D01*
X0031335Y0302355D01*
X0031427Y0302322D01*
X0031521Y0302294D01*
X0031616Y0302269D01*
X0031712Y0302248D01*
X0031809Y0302231D01*
X0031906Y0302217D01*
X0032004Y0302208D01*
X0032102Y0302202D01*
X0032200Y0302200D01*
X0032298Y0302202D01*
X0032396Y0302208D01*
X0032494Y0302217D01*
X0032591Y0302231D01*
X0032688Y0302248D01*
X0032784Y0302269D01*
X0032879Y0302294D01*
X0032973Y0302322D01*
X0033065Y0302355D01*
X0033157Y0302390D01*
X0033247Y0302430D01*
X0033335Y0302472D01*
X0033422Y0302519D01*
X0033506Y0302568D01*
X0033589Y0302621D01*
X0033669Y0302677D01*
X0033748Y0302737D01*
X0033824Y0302799D01*
X0033897Y0302864D01*
X0033968Y0302932D01*
X0034036Y0303003D01*
X0034101Y0303076D01*
X0034163Y0303152D01*
X0034223Y0303231D01*
X0034279Y0303311D01*
X0034332Y0303394D01*
X0034381Y0303478D01*
X0034428Y0303565D01*
X0034470Y0303653D01*
X0034510Y0303743D01*
X0034545Y0303835D01*
X0034578Y0303927D01*
X0034606Y0304021D01*
X0034631Y0304116D01*
X0034652Y0304212D01*
X0034669Y0304309D01*
X0034683Y0304406D01*
X0034692Y0304504D01*
X0034698Y0304602D01*
X0034700Y0304700D01*
X0029700Y0304700D02*
X0029698Y0304798D01*
X0029692Y0304896D01*
X0029683Y0304994D01*
X0029669Y0305091D01*
X0029652Y0305188D01*
X0029631Y0305284D01*
X0029606Y0305379D01*
X0029578Y0305473D01*
X0029545Y0305565D01*
X0029510Y0305657D01*
X0029470Y0305747D01*
X0029428Y0305835D01*
X0029381Y0305922D01*
X0029332Y0306006D01*
X0029279Y0306089D01*
X0029223Y0306169D01*
X0029163Y0306248D01*
X0029101Y0306324D01*
X0029036Y0306397D01*
X0028968Y0306468D01*
X0028897Y0306536D01*
X0028824Y0306601D01*
X0028748Y0306663D01*
X0028669Y0306723D01*
X0028589Y0306779D01*
X0028506Y0306832D01*
X0028422Y0306881D01*
X0028335Y0306928D01*
X0028247Y0306970D01*
X0028157Y0307010D01*
X0028065Y0307045D01*
X0027973Y0307078D01*
X0027879Y0307106D01*
X0027784Y0307131D01*
X0027688Y0307152D01*
X0027591Y0307169D01*
X0027494Y0307183D01*
X0027396Y0307192D01*
X0027298Y0307198D01*
X0027200Y0307200D01*
X0027102Y0307198D01*
X0027004Y0307192D01*
X0026906Y0307183D01*
X0026809Y0307169D01*
X0026712Y0307152D01*
X0026616Y0307131D01*
X0026521Y0307106D01*
X0026427Y0307078D01*
X0026335Y0307045D01*
X0026243Y0307010D01*
X0026153Y0306970D01*
X0026065Y0306928D01*
X0025978Y0306881D01*
X0025894Y0306832D01*
X0025811Y0306779D01*
X0025731Y0306723D01*
X0025652Y0306663D01*
X0025576Y0306601D01*
X0025503Y0306536D01*
X0025432Y0306468D01*
X0025364Y0306397D01*
X0025299Y0306324D01*
X0025237Y0306248D01*
X0025177Y0306169D01*
X0025121Y0306089D01*
X0025068Y0306006D01*
X0025019Y0305922D01*
X0024972Y0305835D01*
X0024930Y0305747D01*
X0024890Y0305657D01*
X0024855Y0305565D01*
X0024822Y0305473D01*
X0024794Y0305379D01*
X0024769Y0305284D01*
X0024748Y0305188D01*
X0024731Y0305091D01*
X0024717Y0304994D01*
X0024708Y0304896D01*
X0024702Y0304798D01*
X0024700Y0304700D01*
X0022097Y0299717D02*
X0010700Y0299717D01*
X0010700Y0302115D02*
X0019709Y0302115D01*
X0019100Y0304514D02*
X0010700Y0304514D01*
X0010700Y0306912D02*
X0019349Y0306912D01*
X0020333Y0309288D02*
X0020333Y0309288D01*
X0020356Y0309311D02*
X0010700Y0309311D01*
X0010700Y0311709D02*
X0022956Y0311709D01*
X0030021Y0323702D02*
X0010700Y0323702D01*
X0010700Y0321303D02*
X0032342Y0321303D01*
X0035636Y0318905D02*
X0010700Y0318905D01*
X0010700Y0326101D02*
X0028637Y0326101D01*
X0027508Y0328499D02*
X0010700Y0328499D01*
X0010700Y0330898D02*
X0026865Y0330898D01*
X0026489Y0333296D02*
X0010700Y0333296D01*
X0010700Y0335695D02*
X0026489Y0335695D01*
X0026756Y0338093D02*
X0010700Y0338093D01*
X0010700Y0340492D02*
X0027398Y0340492D01*
X0028400Y0342890D02*
X0010700Y0342890D01*
X0010700Y0345289D02*
X0029785Y0345289D01*
X0031933Y0347687D02*
X0010700Y0347687D01*
X0010700Y0350086D02*
X0034927Y0350086D01*
X0040709Y0352484D02*
X0010700Y0352484D01*
X0010700Y0297318D02*
X0028854Y0297318D01*
X0027612Y0297833D02*
X0027612Y0297833D01*
X0044700Y0404700D02*
X0039700Y0409700D01*
X0094700Y0304700D02*
X0094702Y0304602D01*
X0094708Y0304504D01*
X0094717Y0304406D01*
X0094731Y0304309D01*
X0094748Y0304212D01*
X0094769Y0304116D01*
X0094794Y0304021D01*
X0094822Y0303927D01*
X0094855Y0303835D01*
X0094890Y0303743D01*
X0094930Y0303653D01*
X0094972Y0303565D01*
X0095019Y0303478D01*
X0095068Y0303394D01*
X0095121Y0303311D01*
X0095177Y0303231D01*
X0095237Y0303152D01*
X0095299Y0303076D01*
X0095364Y0303003D01*
X0095432Y0302932D01*
X0095503Y0302864D01*
X0095576Y0302799D01*
X0095652Y0302737D01*
X0095731Y0302677D01*
X0095811Y0302621D01*
X0095894Y0302568D01*
X0095978Y0302519D01*
X0096065Y0302472D01*
X0096153Y0302430D01*
X0096243Y0302390D01*
X0096335Y0302355D01*
X0096427Y0302322D01*
X0096521Y0302294D01*
X0096616Y0302269D01*
X0096712Y0302248D01*
X0096809Y0302231D01*
X0096906Y0302217D01*
X0097004Y0302208D01*
X0097102Y0302202D01*
X0097200Y0302200D01*
X0097298Y0302202D01*
X0097396Y0302208D01*
X0097494Y0302217D01*
X0097591Y0302231D01*
X0097688Y0302248D01*
X0097784Y0302269D01*
X0097879Y0302294D01*
X0097973Y0302322D01*
X0098065Y0302355D01*
X0098157Y0302390D01*
X0098247Y0302430D01*
X0098335Y0302472D01*
X0098422Y0302519D01*
X0098506Y0302568D01*
X0098589Y0302621D01*
X0098669Y0302677D01*
X0098748Y0302737D01*
X0098824Y0302799D01*
X0098897Y0302864D01*
X0098968Y0302932D01*
X0099036Y0303003D01*
X0099101Y0303076D01*
X0099163Y0303152D01*
X0099223Y0303231D01*
X0099279Y0303311D01*
X0099332Y0303394D01*
X0099381Y0303478D01*
X0099428Y0303565D01*
X0099470Y0303653D01*
X0099510Y0303743D01*
X0099545Y0303835D01*
X0099578Y0303927D01*
X0099606Y0304021D01*
X0099631Y0304116D01*
X0099652Y0304212D01*
X0099669Y0304309D01*
X0099683Y0304406D01*
X0099692Y0304504D01*
X0099698Y0304602D01*
X0099700Y0304700D01*
X0149275Y0174994D02*
X0010700Y0174994D01*
X0010700Y0172596D02*
X0151050Y0172596D01*
X0153448Y0170197D02*
X0010700Y0170197D01*
X0010700Y0167799D02*
X0157552Y0167799D01*
X0156526Y0151009D02*
X0010700Y0151009D01*
X0010700Y0148611D02*
X0152856Y0148611D01*
X0150458Y0146212D02*
X0010700Y0146212D01*
X0010700Y0143814D02*
X0148934Y0143814D01*
X0147646Y0141415D02*
X0010700Y0141415D01*
X0010700Y0139017D02*
X0128924Y0139017D01*
X0128989Y0139173D02*
X0128319Y0137556D01*
X0128319Y0131844D01*
X0128989Y0130226D01*
X0130226Y0128989D01*
X0131844Y0128319D01*
X0133319Y0128319D01*
X0133319Y0126844D01*
X0133989Y0125226D01*
X0135226Y0123989D01*
X0136844Y0123319D01*
X0142556Y0123319D01*
X0144173Y0123989D01*
X0145411Y0125226D01*
X0146081Y0126844D01*
X0146081Y0137556D01*
X0145411Y0139173D01*
X0144173Y0140411D01*
X0142556Y0141081D01*
X0136844Y0141081D01*
X0131844Y0141081D01*
X0130226Y0140411D01*
X0128989Y0139173D01*
X0128319Y0136618D02*
X0010700Y0136618D01*
X0010700Y0134220D02*
X0128319Y0134220D01*
X0128328Y0131821D02*
X0010700Y0131821D01*
X0010700Y0129423D02*
X0129793Y0129423D01*
X0133319Y0127024D02*
X0010700Y0127024D01*
X0010700Y0124626D02*
X0134590Y0124626D01*
X0144810Y0124626D02*
X0149488Y0124626D01*
X0148103Y0127024D02*
X0146081Y0127024D01*
X0146081Y0129423D02*
X0147261Y0129423D01*
X0146618Y0131821D02*
X0146081Y0131821D01*
X0146081Y0134220D02*
X0146489Y0134220D01*
X0146489Y0136618D02*
X0146081Y0136618D01*
X0145476Y0139017D02*
X0147003Y0139017D01*
X0151419Y0122227D02*
X0010700Y0122227D01*
X0010700Y0119829D02*
X0154036Y0119829D01*
X0133462Y0062264D02*
X0197519Y0062264D01*
X0197519Y0059866D02*
X0133462Y0059866D01*
X0133065Y0057467D02*
X0197519Y0057467D01*
X0197519Y0055069D02*
X0131482Y0055069D01*
X0127062Y0059700D02*
X0127062Y0104818D01*
X0079700Y0104818D01*
X0079700Y0059700D01*
X0127062Y0059700D01*
X0120662Y0066100D02*
X0086100Y0066100D01*
X0086100Y0098418D01*
X0120662Y0098418D01*
X0120662Y0066100D01*
X0120662Y0067061D02*
X0086100Y0067061D01*
X0086100Y0069460D02*
X0120662Y0069460D01*
X0120662Y0071858D02*
X0086100Y0071858D01*
X0086100Y0074257D02*
X0120662Y0074257D01*
X0120662Y0076655D02*
X0086100Y0076655D01*
X0086100Y0079054D02*
X0120662Y0079054D01*
X0120662Y0081452D02*
X0086100Y0081452D01*
X0086100Y0083851D02*
X0120662Y0083851D01*
X0120662Y0086249D02*
X0086100Y0086249D01*
X0086100Y0088648D02*
X0120662Y0088648D01*
X0120662Y0091046D02*
X0086100Y0091046D01*
X0086100Y0093445D02*
X0120662Y0093445D01*
X0120662Y0095843D02*
X0086100Y0095843D01*
X0086100Y0098242D02*
X0120662Y0098242D01*
X0162429Y0021490D02*
X0045790Y0021490D01*
X0046480Y0019091D02*
X0161739Y0019091D01*
X0161489Y0016693D02*
X0046730Y0016693D01*
X0046577Y0014294D02*
X0161642Y0014294D01*
X0162285Y0011896D02*
X0045934Y0011896D01*
X0044405Y0023888D02*
X0163814Y0023888D01*
X0166086Y0026287D02*
X0042133Y0026287D01*
X0037099Y0028685D02*
X0171120Y0028685D01*
X0176862Y0028685D02*
X0197519Y0028685D01*
X0197519Y0026287D02*
X0181897Y0026287D01*
X0184169Y0023888D02*
X0197519Y0023888D01*
X0197519Y0021490D02*
X0185553Y0021490D01*
X0186243Y0019091D02*
X0197519Y0019091D01*
X0197519Y0016693D02*
X0186494Y0016693D01*
X0186341Y0014294D02*
X0197519Y0014294D01*
X0197519Y0011896D02*
X0185698Y0011896D01*
X0191193Y0074257D02*
X0197519Y0074257D01*
X0197519Y0076655D02*
X0194575Y0076655D01*
X0196973Y0079054D02*
X0197519Y0079054D01*
X0194700Y0084700D02*
X0189700Y0089700D01*
X0193875Y0093445D02*
X0197519Y0093445D01*
X0197519Y0091046D02*
X0196273Y0091046D01*
X0195536Y0191784D02*
X0197519Y0191784D01*
X0197519Y0194182D02*
X0193137Y0194182D01*
D12*
X0173991Y0016511D03*
X0034228Y0016511D03*
X0034228Y0498794D03*
X0173991Y0498794D03*
D13*
X0164700Y0434700D03*
X0164700Y0384700D03*
X0164700Y0334700D03*
X0164700Y0284700D03*
X0164700Y0234700D03*
X0164700Y0184700D03*
X0164700Y0134700D03*
X0164700Y0084700D03*
X0104700Y0334700D03*
X0104700Y0384700D03*
X0104700Y0434700D03*
X0044700Y0434700D03*
X0044700Y0384700D03*
X0044700Y0334700D03*
D14*
X0134700Y0334700D03*
X0134700Y0329700D03*
X0139700Y0334700D03*
X0139700Y0284700D03*
X0139700Y0279700D03*
X0134700Y0279700D03*
X0134700Y0284700D03*
X0134700Y0384700D03*
X0139700Y0384700D03*
X0139700Y0434700D03*
D15*
X0139700Y0234700D03*
X0139700Y0184700D03*
X0134700Y0184700D03*
X0134700Y0134700D03*
X0139700Y0134700D03*
X0139700Y0129700D03*
X0139700Y0084700D03*
X0139700Y0079700D03*
X0134700Y0079700D03*
X0134700Y0084700D03*
M02*
