G75*
%MOIN*%
%OFA0B0*%
%FSLAX25Y25*%
%IPPOS*%
%LPD*%
%AMOC8*
5,1,8,0,0,1.08239X$1,22.5*
%
%ADD10C,0.01600*%
%ADD11C,0.02400*%
%ADD12C,0.17005*%
%ADD13C,0.28422*%
%ADD14C,0.04762*%
%ADD15R,0.04762X0.04762*%
D10*
X0004700Y0004700D02*
X0004700Y0510606D01*
X0203519Y0510606D01*
X0203519Y0004700D01*
X0004700Y0004700D01*
D11*
X0079700Y0059700D02*
X0079700Y0104818D01*
X0127062Y0104818D01*
X0127062Y0059700D01*
X0079700Y0059700D01*
D12*
X0034228Y0016511D03*
X0173991Y0016511D03*
X0173991Y0498794D03*
X0034228Y0498794D03*
D13*
X0044700Y0434700D03*
X0044700Y0384700D03*
X0044700Y0334700D03*
X0104700Y0334700D03*
X0104700Y0384700D03*
X0104700Y0434700D03*
X0164700Y0434700D03*
X0164700Y0384700D03*
X0164700Y0334700D03*
X0164700Y0284700D03*
X0164700Y0234700D03*
X0164700Y0184700D03*
X0164700Y0134700D03*
X0164700Y0084700D03*
D14*
X0139700Y0279700D03*
X0139700Y0284700D03*
X0134700Y0284700D03*
X0134700Y0279700D03*
X0134700Y0329700D03*
X0134700Y0334700D03*
X0139700Y0334700D03*
X0139700Y0384700D03*
X0134700Y0384700D03*
X0139700Y0434700D03*
D15*
X0139700Y0234700D03*
X0139700Y0184700D03*
X0134700Y0184700D03*
X0134700Y0134700D03*
X0139700Y0134700D03*
X0139700Y0129700D03*
X0139700Y0084700D03*
X0139700Y0079700D03*
X0134700Y0079700D03*
X0134700Y0084700D03*
M02*
