%
M48
M72
T01C0.02362
T02C0.12205
T03C0.23622
%
T01
X134700Y79700
X134700Y84700
X139700Y84700
X139700Y79700
X139700Y129700
X139700Y134700
X134700Y134700
X134700Y184700
X139700Y184700
X139700Y234700
X139700Y279700
X139700Y284700
X134700Y284700
X134700Y279700
X134700Y329700
X134700Y334700
X139700Y334700
X139700Y384700
X134700Y384700
X139700Y434700
T02
X34228Y16511
X173991Y16511
X173991Y498794
X34228Y498794
T03
X164700Y84700
X164700Y134700
X164700Y184700
X164700Y234700
X164700Y284700
X164700Y334700
X164700Y384700
X164700Y434700
X104700Y434700
X104700Y384700
X104700Y334700
X44700Y334700
X44700Y384700
X44700Y434700
M30
