<?xml version="1.0" encoding="utf-8"?>
<!-- Generator: Adobe Illustrator 16.0.0, SVG Export Plug-In . SVG Version: 6.00 Build 0)  -->
<!DOCTYPE svg PUBLIC "-//W3C//DTD SVG 1.1//EN" "http://www.w3.org/Graphics/SVG/1.1/DTD/svg11.dtd">
<svg version="1.1" id="Layer_1" xmlns="http://www.w3.org/2000/svg" xmlns:xlink="http://www.w3.org/1999/xlink" x="0px" y="0px"
	 width="720.001px" height="960.002px" viewBox="0 0 720.001 960.002" enable-background="new 0 0 720.001 960.002"
	 xml:space="preserve">
<path fill="none" d="M1.481,960.961c0-320.16,0-640.32,0-960.48c240,0,480,0,720,0c0,320.16,0,640.321,0.001,960.481
	C481.481,960.961,241.481,960.961,1.481,960.961z M423.271,282.955l0.022,0.06c0.093-1.225,0.74-2.526-0.566-3.541
	c-1.802-1.4-2.085-2.021-1.166-3.933c0.61-1.271,0.446-2.165-0.266-3.303c-0.853-1.362-0.267-2.383,1.314-2.438
	c3.002-0.104,5.926,0.314,8.497,2.014c1.52,1.005,2.953,2.14,4.326,3.144c0.848-0.271,1.562-0.5,2.29-0.734
	c0.202-1.701-0.797-1.69-2.088-1.619c-2.166,0.119-3.485-1.178-3.561-3.271c-0.074-2.075,1.165-3.351,3.393-3.473
	c0.479-0.026,0.961-0.024,1.438,0.006c1.237,0.078,2.062-0.489,2.223-1.688c0.196-1.457,1.06-1.968,2.497-1.849
	c-0.062-3.02,0.365-5.866-0.523-8.666c-4.253,0.357-7.925,1.544-11.67,3.068c0.401,1.195,0.712,2.121,1.031,3.075
	c-2.734,0.255-3.873-1.169-3.99-3.775c-0.063-1.428,0.187-2.871,0.115-4.298c-0.055-1.074-0.302-2.165-0.644-3.188
	c-0.248-0.74-0.777-1.391-1.206-2.065c-1.185-1.861-0.933-3.635,0.292-5.362c1.503-2.12,1.492-4.11-0.091-6.064
	c-1.005-1.241-2.079-2.427-3.104-3.652c-0.247-0.294-0.427-0.645-0.77-1.173c1.468,0.463,2.117,1.817,3.864,1.874
	c-1.103-2.045-2.357-3.7-2.896-5.561c-0.541-1.874-0.37-3.953-0.522-6.113c-1.273,0.408-2.624,0.84-4.279,1.371
	c-0.336-2.464-3.396-3.771-2.515-6.548c-0.737-0.788-1.387-1.374-1.905-2.059c-1.299-1.713-2.543-3.467-3.797-5.214
	c-0.241-0.336-0.426-0.713-0.681-1.146c0.93-0.114,1.641-0.2,2.352-0.287c-0.527-0.459-1.045-0.564-1.566-0.59
	c-2.575-0.132-2.537-0.133-3.064-2.617c-0.14-0.655-0.431-1.495-0.931-1.812c-1.098-0.696-2.373-1.113-3.576-1.644
	c0.908,2.563,2.979,4.305,3.375,6.987c-0.747,0.597-1.474,1.178-2.424,1.937c1.023,1.433,1.947,2.812,2.958,4.124
	c1.704,2.214,2.776,4.685,2.954,7.467c0.091,1.424,0.609,2.316,1.882,3.034c1.843,1.039,3.034,2.582,2.623,4.919
	c-0.066,0.379,0.046,0.794,0.101,1.189c0.401,2.883,0.428,5.746-0.559,8.531c-0.42,1.187-0.167,2.116,0.655,3.07
	c2.042,2.37,3.767,4.952,4.974,7.867c1.401,3.384,2.893,6.732,4.277,10.123c0.174,0.426,0.133,1.195-0.144,1.508
	c-1.567,1.764-3.54,2.986-5.786,3.685c-0.91,0.283-1.813,0.015-2.036-1.103c-0.381-1.911-0.69-3.836-1.052-5.876
	c1.435,0.215,2.978,0.312,4.661-0.447c-1.264-1.854-2.425-3.548-3.576-5.249c-0.759-1.123-1.16-2.281-0.333-3.565
	c0.592-0.921,0.487-1.789-0.197-2.647c-1.442-1.811-2.775-3.715-4.303-5.448c-0.814-0.926-1.207-1.803-1.009-3.017
	c0.387-2.367,0.478-4.809,1.12-7.099c0.762-2.714,0.077-4.839-1.708-6.8c-0.322-0.354-0.583-0.791-0.963-1.064
	c-1.336-0.959-1.651-2.263-1.466-3.801c0.16-1.335-0.173-2.523-1.122-3.532c-2.409-2.561-4.744-5.195-7.228-7.681
	c-0.688-0.688-1.754-1.07-2.714-1.39c-0.976-0.326-2.029-0.51-3.059-0.565c-1.961-0.104-2.981-1.179-3.562-2.88
	c1.643-1.3,3.864-0.437,5.639-1.917c-2.364-1.977-4.587-3.834-6.743-5.637c-0.941,0.135-1.947,0.571-2.757,0.334
	c-1.655-0.483-3.191-1.36-4.802-2.015c-1.312-0.534-2.627-1.174-4.002-1.417c-1.496-0.265-3.096-0.331-4.607,0.555
	c1.005,1.163,2.89,0.811,3.567,2.544c-0.708,0.128-1.271,0.396-1.749,0.288c-2.166-0.492-4.495-0.61-6.321-2.046
	c-1.529-1.204-3.221-1.277-5.001-1.112c-2.182,0.203-4.235,0.812-6.074,2.036c-1.233,0.821-2.539,1.168-4.057,1.127
	c-4.536-0.124-8.909,0.616-12.95,2.84c-0.472,0.26-1.061,0.325-1.605,0.433c-6.951,1.382-13.163,4.346-18.766,8.661
	c-2.53,1.948-4.995,4.032-7.731,5.644c-2.583,1.521-5.035,3.037-6.812,5.519c-0.485,0.679-1.257,1.463-2.002,1.59
	c-2.966,0.509-5.028,2.414-7.044,4.325c-7.378,6.991-12.157,15.792-16.767,24.667c-0.688,1.324-0.533,3.089-0.752,4.652
	c-0.109,0.774-0.065,1.59-0.294,2.324c-1.622,5.2-1.849,10.369,0.297,15.477c0.424,1.01,0.923,2.1,1.692,2.834
	c2.423,2.313,5.045,4.417,7.491,6.708c3.799,3.56,7.282,7.446,9.067,12.412c1.296,3.607,3.704,6.199,6.666,8.229
	c5.818,3.988,11.975,7.303,19,8.844c4.128,0.905,7.633,0.132,10.604-2.755c2.614-2.541,5.215-5.13,6.696-8.547
	c1.29,0,2.46,0,3.996,0c-0.099,1.542-0.201,2.94-0.274,4.339c-0.071,1.346-0.504,2.833-0.083,4.01
	c0.824,2.302,1.934,4.566,3.305,6.589c1.048,1.546,2.492,3.013,4.088,3.961c4.479,2.661,9.203,4.832,14.455,5.564
	c0.615,0.086,1.211,0.321,1.941,0.521c-0.12,2.258,0.254,4.424,1.536,6.193c0.733,1.012,0.877,1.949,0.878,3.079
	c0.004,5.195-0.246,10.4,0.614,15.565c0.129,0.774,0.058,1.597-0.023,2.387c-0.381,3.739-0.726,7.483-1.213,11.208
	c-2.099,16.034-1.911,32.058-0.063,48.102c0.85,7.386,1.48,14.799,2.105,22.208c0.132,1.565-0.019,3.205-0.337,4.749
	c-1.4,6.807-1.508,13.696-0.914,20.546c0.371,4.265,0.362,8.442-0.183,12.655c-0.164,1.269-0.306,2.541-0.437,3.813
	c-0.14,1.355-0.093,2.627,0.476,3.971c0.355,0.841,0.285,2.498-0.267,2.933c-0.769,0.604-0.943,1.158-1.013,1.938
	c-1.011,11.426-0.925,22.848,0.161,34.264c0.916,9.632,1.861,19.262,2.718,28.899c0.125,1.407-0.016,2.883-0.295,4.274
	c-1.475,7.363-1.53,14.768-0.845,22.206c0.139,1.507,0.478,3.034,0.35,4.52c-0.385,4.46-0.928,8.907-1.456,13.354
	c-1.618,13.635-1.796,27.281-0.398,40.944c0.668,6.523,1.362,13.044,2.008,19.569c0.084,0.854,0.112,1.776-0.117,2.587
	c-1.918,6.758-3.898,13.499-5.871,20.241c-0.327,1.119-0.036,2.046,0.764,2.842c0.388,0.387,0.799,0.75,1.173,1.1
	c-0.775,3.111-1.51,6.124-2.281,9.128c-0.302,1.175,0.121,2.4,1.033,2.507c1.076,0.125,1.479-0.609,1.791-1.538
	c0.862-2.569,1.785-5.119,2.744-7.653c0.186-0.49,0.646-0.875,0.98-1.309c0.156,0.076,0.313,0.152,0.47,0.229
	c0,0.685,0.056,1.375-0.009,2.054c-0.578,6.13-1.086,12.268-1.791,18.383c-1.212,10.499-2.228,21.013-1.739,31.589
	c0.328,7.106,1.011,14.196,1.524,21.293c0.052,0.712,0.328,1.647-0.009,2.101c-0.888,1.192-0.368,2.397-0.447,3.604
	c-0.07,1.073-0.052,2.347-0.619,3.143c-0.665,0.932-0.634,1.699-0.476,2.654c1.055,6.39,2.08,12.784,3.137,19.174
	c0.515,3.114,0.535,3.11,3.64,3.568c0.113,0.478,0.268,1.007,0.362,1.547c0.675,3.847,1.36,7.691,1.99,11.546
	c0.174,1.067,0.78,1.568,1.762,1.569c0.896,0.002,1.367-1.052,1.169-2.207c-0.537-3.129-1.061-6.261-1.545-9.398
	c-0.5-3.238-0.371-3.437,2.505-4.719c0.13-0.058,0.213-0.219,0.501-0.529c-0.068-1.158-0.079-2.512-0.239-3.848
	c-0.733-6.112-1.52-12.218-2.257-18.33c-0.109-0.902-0.297-1.602-1.104-2.236c-0.608-0.478-0.918-1.415-1.205-2.204
	c-0.395-1.083-0.293-2.66-1.025-3.238c-1.475-1.163-1.331-2.627-1.47-4.065c-0.405-4.218-0.753-8.441-1.071-12.667
	c-0.723-9.593-0.615-19.167,0.431-28.742c1.354-12.396,3.097-24.762,3.122-37.273c0.002-1.207,0.491-2.414,0.754-3.621
	c0.172-0.026,0.345-0.054,0.517-0.08c0.113,0.197,0.247,0.387,0.338,0.595c1.179,2.711,2.377,5.414,3.505,8.146
	c0.193,0.469,0.074,1.062,0.117,1.597c0.205,2.565,0.391,5.133,0.649,7.692c0.046,0.444,0.408,0.859,0.632,1.283
	c1.268,2.405,2.416,4.885,3.845,7.19c1.266,2.044,1.394,4.071,1.076,6.386c-0.775,5.647-0.704,11.352,0.045,16.981
	c1.004,7.546,3.006,14.889,5.638,22.03c0.984,2.67,0.268,5.526,1.277,8.154c0.11,0.286-0.3,0.734-0.316,1.115
	c-0.035,0.757-0.17,1.601,0.096,2.267c2.398,6.015,4.91,11.985,7.305,18.002c0.608,1.526,1.512,2.379,3.173,2.372
	c0.38-0.002,0.761,0.058,1.206,0.095c0.512,1.344,0.955,2.627,1.483,3.874c0.869,2.05,1.773,4.086,2.705,6.108
	c0.383,0.831,1.174,1.224,1.952,0.81c0.306-0.163,0.416-1.142,0.263-1.64c-0.704-2.291-1.53-4.545-2.316-6.81
	c-0.363-1.046-0.735-2.089-1.122-3.188c0.669-0.635,1.226-1.198,1.819-1.719c0.964-0.844,1.161-1.842,0.746-3.028
	c-2.191-6.264-4.355-12.536-6.579-18.788c-0.227-0.638-0.682-1.509-1.21-1.664c-1.386-0.408-1.708-1.549-2.307-2.557
	c-0.439-0.74-0.84-1.775-1.513-2.046c-1.177-0.476-1.521-1.336-1.812-2.327c-1.458-4.982-2.89-9.974-4.336-14.959
	c-1.741-6.003-1.641-12.173-1.671-18.33c-0.001-0.37,0.195-0.74,0.29-1.075c1.035,0,1.961,0,2.753,0
	c1.517,2.666,2.974,5.135,4.328,7.659c0.502,0.938,1.19,1.427,2.103,1c1.058-0.496,0.417-1.352,0.101-2.055
	c-0.952-2.113-1.881-4.239-2.896-6.321c-0.481-0.986-0.511-1.773,0.321-2.583c1.61-1.565,1.585-3.271,0.582-5.228
	c-1.349-2.63-2.457-5.382-3.734-8.05c-0.516-1.076-0.604-2.07-0.241-3.223c0.45-1.433,0.702-2.929,1.039-4.397l-0.062,0.065
	c0.484-1.173,1.08-2.313,1.436-3.524c2.386-8.125,4.932-16.212,7.022-24.413c3.103-12.169,2.807-24.391-0.347-36.541
	c-0.289-1.114-0.649-2.21-0.978-3.314c-0.162,0.012-0.324,0.022-0.486,0.034c-0.134,0.501-0.35,0.995-0.388,1.503
	c-0.219,2.948-0.336,5.905-0.62,8.847c-0.095,0.979-0.583,1.919-0.892,2.877l0.062,0.056c0.137-1.672,0.286-3.344,0.408-5.018
	c0.379-5.18,0.775-10.358,1.092-15.542c0.052-0.843-0.276-1.708-0.413-2.565c-0.121-0.765-0.241-1.53-0.323-2.3
	c-0.186-1.731-0.071-3.559-0.614-5.165c-0.366-1.082-0.671-2.082-0.633-3.201c0.137-3.997,0.309-7.994,0.41-11.992
	c0.508-20.071,0.993-40.144,1.505-60.216c0.022-0.867,0.144-1.751,0.36-2.591c0.598-2.315,1.325-4.598,1.904-6.917
	c2.076-8.312,2.482-16.752,1.704-25.254c-0.21-2.294-0.697-4.562-1.053-6.819c-0.805-0.185-1.396-0.322-2.143-0.494
	c0-1.102-0.384-2.369,0.078-3.107c1.054-1.686,0.41-3.133-0.199-4.555c-0.717-1.671-0.894-3.368-0.937-5.136
	c-0.215-8.796-0.439-17.593-0.696-26.388c-0.166-5.677-0.392-11.351-0.595-17.027c-0.401-11.271-0.815-22.542-1.19-33.813
	c-0.028-0.855,0.113-1.752,0.357-2.576c1.271-4.292,2.753-8.526,3.882-12.854c3.301-12.645,4.189-25.374,0.892-38.189
	c-0.104-0.407-0.014-0.864-0.014-1.277c0.329-0.045,0.499-0.115,0.64-0.078c0.383,0.103,0.764,0.227,1.126,0.386
	c5.418,2.379,11.119,2.875,16.913,2.32c1.955-0.188,3.875-0.904,5.77-1.505c1.183-0.375,2.122-1.178,2.365-2.492
	c0.422-2.279,1.546-3.793,4.024-3.993c0.303-0.024,0.591-0.232,0.865-0.342c-0.276,0.432-0.553,0.864-1.008,1.576
	c1.132-0.563,1.132-0.563,0.983-1.569c-0.376-0.257-0.753-0.515-1.293-0.884c1.323-0.518,2.441-0.956,3.506-1.373
	c-0.882-1.372-3.106-0.308-3.471-2.476c0.702-0.177,1.335-0.337,2.115-0.534c-0.653-0.298-1.128-0.515-1.303-0.595
	c0.245-1.569,0.454-2.904,0.65-4.16c-2.424-0.784-4.517-1.461-6.578-2.127c0.312-1.73,1.325-2.564,2.63-3.327
	c2.675-1.563,5.632-2.205,8.561-2.967c1.576-0.41,3.188-1.533,3.893-3.026c-2.398,0.535-4.687,0.568-6.72,1.833
	c-1.079,0.671-2.247,1.306-3.371,0.464c-0.203-1.561-0.383-2.944-0.603-4.637c1.244-0.29,2.459-0.562,3.669-0.858
	c0.606-0.148,1.459-0.147,1.76-0.546c1.357-1.797,3.577-1.498,5.449-2.689c0.463,1.293,0.849,2.367,1.243,3.467
	c2.586-1.596,3.65-3.096,3.963-5.989c0.11-1.02,0.944-2.285-0.438-3.305c-1.618,1.637-2.519,3.84-5.166,4.929
	c1.031-2.004,0.577-3.561-0.11-5.107c-0.191-0.432-0.183-0.953-0.374-1.385c-0.552-1.242-0.226-2.315,0.468-3.387
	c1.998-3.083,3.998-6.165,5.934-9.288c0.67-1.081,1.238-2.245,1.702-3.43c0.821-2.098-0.005-4.955-1.853-6.218
	c-0.483,1.574-1.019,3.068-1.396,4.601c-0.684,2.78-2.015,5.218-3.828,7.384c-0.596,0.711-1.416,1.527-2.248,1.682
	c-1.252,0.232-2.693,0.193-3.896-0.207c-2.738-0.912-3.138-0.881-4.776,1.691c-0.471,0.74-0.92,1.495-2.059,1.5
	c-0.516-1.332,0.441-2.324,0.651-3.435c0.237-1.258,0.748-2.458-0.834-3.339c-0.533-0.297-0.756-1.17-1.094-1.795
	c-0.399-0.737-0.771-1.49-1.154-2.237c-2.309,1.239-3.353,2.326-4.112,4.145C424.426,281.746,424.347,282.721,423.271,282.955z
	 M258.04,442.346c-0.242-5.05-0.578-9.507-0.646-13.968c-0.204-13.513-0.331-27.028-0.438-40.543
	c-0.187-23.593-0.344-47.187-0.497-70.78c-0.042-6.399-0.066-12.798-0.017-19.197c0.045-5.753,0.312-11.506,0.271-17.257
	c-0.027-3.67-0.194-7.319,0.018-11.007c0.783-13.634,3.664-26.714,9.132-39.268c4.78-10.972,11.129-20.919,19.222-29.654
	c12.863-13.883,28.406-23.701,46.462-29.514c13.647-4.394,27.595-6.126,41.885-4.972c3.584,0.29,7.221,0.457,10.719,1.211
	c10.89,2.345,21.506,5.471,31.43,10.792c13.24,7.101,24.571,16.432,33.948,28.105c6.035,7.514,10.919,15.758,14.667,24.671
	c4.473,10.632,7.389,21.657,8.172,33.158c0.477,7.013,0.55,14.062,0.557,21.095c0.046,47.354,0.03,94.707,0.019,142.061
	c0,4.318-0.104,8.638-0.191,12.956c-0.013,0.638-0.201,1.273-0.414,2.538c-2.551-2.937-5.045-4.93-7.93-6.435
	c1.002,1.35,2.095,2.599,3.285,3.746c2.822,2.717,5.039,5.758,5.632,9.757c0.191,1.288,0.629,2.415,2.444,2.357
	c-2.076,4.44-6.27,6.588-8.781,10.228c2.082-1.331,4.104-2.739,6.04-4.256c0.8-0.626,1.46-1.451,2.109-2.246
	c2.159-2.646,3.248-5.633,2.822-9.096c-0.077-0.629,0.005-1.278,0.006-1.918c0.079-56.153,0.164-112.305,0.225-168.458
	c0.008-6.718-0.106-13.433-1.622-20.037c-1.018-4.43-1.716-8.947-2.987-13.299c-1.318-4.516-3.076-8.911-4.792-13.3
	c-1.188-3.04-2.513-6.041-3.983-8.954c-4.238-8.398-9.832-15.832-15.975-22.951c-5.705-6.611-12.339-12.173-19.329-17.16
	c-6.732-4.802-14.149-8.725-21.826-11.96c-2.931-1.235-6.079-1.942-9.104-2.963c-10.532-3.558-21.318-5.518-32.465-5.482
	c-9.39,0.03-18.685,0.706-27.74,3.408c-4.208,1.256-8.444,2.43-12.617,3.796c-2.495,0.817-4.996,1.738-7.313,2.956
	c-5.375,2.826-10.648,5.85-15.946,8.823c-0.97,0.544-1.915,1.165-2.775,1.868c-3.403,2.787-6.724,5.675-10.157,8.425
	c-6.624,5.307-11.87,11.928-16.848,18.642c-3.778,5.095-6.772,10.875-9.444,16.661c-4.42,9.574-8.206,19.423-9.623,30.001
	c-0.561,4.189-1.471,8.304-1.478,12.591c-0.068,41.354-0.239,82.708-0.372,124.062c-0.057,17.757-0.049,35.515-0.17,53.272
	c-0.034,4.93,1.095,9.229,4.747,12.801c1.801,1.762,3.85,2.957,6.09,4.008c-2.649-3.216-6.583-5.331-8.098-9.688
	c0.674-0.063,1.264-0.119,1.714-0.161c0.828-2.159,1.439-4.248,2.411-6.152c0.937-1.837,2.291-3.456,3.377-5.222
	c1.104-1.796,3.517-2.263,4.569-4.372C262.454,436.518,261.055,440.113,258.04,442.346z M446.22,259.426
	c0.131,0.021,0.262,0.042,0.393,0.063c0.281-0.702,0.581-1.397,0.84-2.107c0.491-1.351,0.744-2.847,1.491-4.032
	c0.963-1.526,0.842-2.807-0.021-4.217c-0.375-0.611-0.658-1.279-1.038-1.888c-1.31-2.096-3.578-2.921-6.424-2.18
	c1.097,2.272,2.42,4.43,3.189,6.769C445.451,254.273,445.719,256.888,446.22,259.426z M429.396,232.43
	c-0.285,0.073-0.571,0.146-0.856,0.22c0.173,2.368,0.217,4.754,0.548,7.1c0.468,3.319,0.616,3.36,3.88,3.617
	c0.318,0.025,0.659,0.104,0.955,0.028c2.352-0.605,4.388,0.117,6.307,1.417c0.099,0.067,0.305-0.025,0.731-0.074
	c0.281-0.687,0.611-1.493,1.016-2.478c-1.884-0.494-3.399-1.075-4.963-1.263c-3.576-0.43-5.467-2.624-6.584-5.779
	C430.099,234.283,429.741,233.359,429.396,232.43z M431.459,244.354c-0.642,1.084-0.804,1.939-0.243,2.879
	c0.232,0.391,0.595,1,0.451,1.273c-1.024,1.939,0.729,2.96,1.244,4.786c1.418-1.637,2.656-2.942,3.718-4.379
	c0.268-0.362,0.149-1.242-0.104-1.715C435.483,245.267,433.624,244.679,431.459,244.354z M451.772,258.293
	c-0.17,0.015-0.34,0.029-0.51,0.043c-0.291,1.224-0.677,2.437-0.826,3.677c-0.062,0.515,0.233,1.388,0.622,1.58
	c1.009,0.498,2.103,1.101,3.308,0.655C454.729,261.609,452.425,260.344,451.772,258.293z M414.5,205.773
	c-0.407-1.023-0.881-1.159-1.595-0.183C413.597,205.669,414.049,205.721,414.5,205.773z M455.571,275.588
	c-0.107-0.044-0.215-0.089-0.322-0.133c-0.127,0.306-0.253,0.611-0.38,0.917c0.107,0.043,0.215,0.085,0.322,0.128
	C455.318,276.196,455.444,275.893,455.571,275.588z"/>
<path fill-rule="evenodd" clip-rule="evenodd" d="M395.026,681.687c-0.337,1.469-0.589,2.965-1.039,4.397
	c-0.362,1.152-0.274,2.146,0.241,3.223c1.277,2.668,2.386,5.42,3.734,8.05c1.003,1.956,1.028,3.662-0.582,5.228
	c-0.832,0.81-0.803,1.597-0.321,2.583c1.016,2.082,1.944,4.208,2.896,6.321c0.316,0.703,0.957,1.559-0.101,2.055
	c-0.912,0.427-1.601-0.062-2.103-1c-1.354-2.524-2.812-4.993-4.328-7.659c-0.792,0-1.718,0-2.753,0
	c-0.095,0.335-0.291,0.705-0.29,1.075c0.03,6.157-0.07,12.327,1.671,18.33c1.446,4.985,2.878,9.977,4.336,14.959
	c0.291,0.991,0.635,1.852,1.812,2.327c0.673,0.271,1.073,1.306,1.513,2.046c0.599,1.008,0.921,2.148,2.307,2.557
	c0.528,0.155,0.983,1.026,1.21,1.664c2.224,6.252,4.388,12.524,6.579,18.788c0.415,1.187,0.218,2.185-0.746,3.028
	c-0.594,0.521-1.15,1.084-1.819,1.719c0.387,1.099,0.759,2.142,1.122,3.188c0.786,2.265,1.612,4.519,2.316,6.81
	c0.153,0.498,0.043,1.477-0.263,1.64c-0.778,0.414-1.569,0.021-1.952-0.81c-0.932-2.022-1.836-4.059-2.705-6.108
	c-0.528-1.247-0.972-2.53-1.483-3.874c-0.445-0.037-0.826-0.097-1.206-0.095c-1.661,0.007-2.564-0.846-3.173-2.372
	c-2.395-6.017-4.906-11.987-7.305-18.002c-0.266-0.666-0.131-1.51-0.096-2.267c0.017-0.381,0.427-0.829,0.316-1.115
	c-1.01-2.628-0.293-5.484-1.277-8.154c-2.632-7.142-4.634-14.484-5.638-22.03c-0.749-5.63-0.82-11.334-0.045-16.981
	c0.317-2.314,0.189-4.342-1.076-6.386c-1.429-2.306-2.577-4.785-3.845-7.19c-0.224-0.424-0.586-0.839-0.632-1.283
	c-0.259-2.56-0.444-5.127-0.649-7.692c-0.043-0.534,0.076-1.128-0.117-1.597c-1.128-2.731-2.326-5.435-3.505-8.146
	c-0.091-0.208-0.225-0.397-0.338-0.595c-0.172,0.026-0.345,0.054-0.517,0.08c-0.263,1.207-0.752,2.414-0.754,3.621
	c-0.025,12.512-1.768,24.878-3.122,37.273c-1.046,9.575-1.153,19.149-0.431,28.742c0.318,4.226,0.666,8.449,1.071,12.667
	c0.139,1.438-0.005,2.902,1.47,4.065c0.732,0.578,0.631,2.155,1.025,3.238c0.287,0.789,0.597,1.727,1.205,2.204
	c0.808,0.635,0.995,1.334,1.104,2.236c0.737,6.112,1.523,12.218,2.257,18.33c0.16,1.336,0.171,2.689,0.239,3.848
	c-0.288,0.311-0.371,0.472-0.501,0.529c-2.876,1.282-3.005,1.48-2.505,4.719c0.484,3.138,1.008,6.27,1.545,9.398
	c0.198,1.155-0.273,2.209-1.169,2.207c-0.981-0.001-1.588-0.502-1.762-1.569c-0.63-3.854-1.315-7.699-1.99-11.546
	c-0.095-0.54-0.249-1.069-0.362-1.547c-3.104-0.458-3.125-0.454-3.64-3.568c-1.057-6.39-2.082-12.784-3.137-19.174
	c-0.158-0.955-0.189-1.723,0.476-2.654c0.567-0.796,0.549-2.069,0.619-3.143c0.079-1.206-0.44-2.411,0.447-3.604
	c0.337-0.453,0.061-1.389,0.009-2.101c-0.514-7.097-1.196-14.187-1.524-21.293c-0.488-10.576,0.527-21.09,1.739-31.589
	c0.705-6.115,1.213-12.253,1.791-18.383c0.064-0.679,0.009-1.369,0.009-2.054c-0.156-0.076-0.313-0.152-0.47-0.229
	c-0.334,0.434-0.795,0.818-0.98,1.309c-0.959,2.534-1.882,5.084-2.744,7.653c-0.312,0.929-0.715,1.663-1.791,1.538
	c-0.912-0.106-1.335-1.332-1.033-2.507c0.771-3.004,1.506-6.017,2.281-9.128c-0.374-0.35-0.785-0.713-1.173-1.1
	c-0.8-0.796-1.091-1.723-0.764-2.842c1.973-6.742,3.953-13.483,5.871-20.241c0.229-0.811,0.201-1.733,0.117-2.587
	c-0.646-6.525-1.34-13.046-2.008-19.569c-1.397-13.663-1.22-27.31,0.398-40.944c0.528-4.447,1.071-8.895,1.456-13.354
	c0.128-1.485-0.211-3.013-0.35-4.52c-0.686-7.438-0.63-14.843,0.845-22.206c0.279-1.392,0.42-2.867,0.295-4.274
	c-0.856-9.638-1.802-19.268-2.718-28.899c-1.086-11.416-1.172-22.838-0.161-34.264c0.069-0.779,0.244-1.333,1.013-1.938
	c0.552-0.435,0.622-2.091,0.267-2.933c-0.568-1.344-0.615-2.616-0.476-3.971c0.131-1.272,0.272-2.544,0.437-3.813
	c0.545-4.212,0.554-8.39,0.183-12.655c-0.594-6.85-0.486-13.739,0.914-20.546c0.318-1.544,0.469-3.184,0.337-4.749
	c-0.625-7.409-1.256-14.822-2.105-22.208c-1.848-16.044-2.035-32.068,0.063-48.102c0.487-3.725,0.832-7.47,1.213-11.208
	c0.081-0.79,0.152-1.613,0.023-2.387c-0.86-5.165-0.61-10.37-0.614-15.565c-0.001-1.13-0.145-2.067-0.878-3.079
	c-1.282-1.769-1.656-3.935-1.536-6.193c-0.73-0.201-1.326-0.436-1.941-0.521c-5.252-0.732-9.976-2.904-14.455-5.564
	c-1.596-0.948-3.041-2.415-4.088-3.961c-1.371-2.022-2.481-4.287-3.305-6.589c-0.421-1.176,0.013-2.664,0.083-4.01
	c0.073-1.399,0.175-2.797,0.274-4.339c-1.536,0-2.706,0-3.996,0c-1.481,3.417-4.083,6.006-6.696,8.547
	c-2.971,2.887-6.476,3.66-10.604,2.755c-7.024-1.541-13.182-4.855-19-8.844c-2.961-2.03-5.369-4.621-6.666-8.229
	c-1.785-4.965-5.269-8.852-9.067-12.412c-2.446-2.292-5.068-4.395-7.491-6.708c-0.769-0.734-1.268-1.824-1.692-2.834
	c-2.146-5.108-1.919-10.277-0.297-15.477c0.229-0.734,0.186-1.55,0.294-2.324c0.22-1.563,0.064-3.328,0.752-4.652
	c4.61-8.875,9.389-17.676,16.767-24.667c2.017-1.911,4.079-3.816,7.044-4.325c0.745-0.127,1.517-0.912,2.002-1.59
	c1.777-2.482,4.229-3.998,6.812-5.519c2.736-1.612,5.202-3.696,7.731-5.644c5.603-4.315,11.815-7.279,18.766-8.661
	c0.544-0.108,1.133-0.173,1.605-0.433c4.042-2.224,8.415-2.963,12.95-2.84c1.518,0.042,2.824-0.306,4.057-1.127
	c1.839-1.224,3.892-1.833,6.074-2.036c1.78-0.166,3.472-0.092,5.001,1.112c1.826,1.437,4.155,1.555,6.321,2.046
	c0.478,0.108,1.041-0.159,1.749-0.288c-0.678-1.733-2.562-1.381-3.567-2.544c1.512-0.886,3.111-0.819,4.607-0.555
	c1.375,0.243,2.689,0.883,4.002,1.417c1.61,0.655,3.146,1.532,4.802,2.015c0.81,0.237,1.815-0.199,2.757-0.334
	c2.156,1.802,4.379,3.66,6.743,5.637c-1.774,1.48-3.996,0.617-5.639,1.917c0.581,1.701,1.602,2.777,3.562,2.88
	c1.029,0.055,2.083,0.239,3.059,0.565c0.96,0.32,2.026,0.703,2.714,1.39c2.483,2.486,4.818,5.12,7.228,7.681
	c0.949,1.009,1.282,2.197,1.122,3.532c-0.186,1.538,0.13,2.842,1.466,3.801c0.38,0.273,0.641,0.709,0.963,1.064
	c1.785,1.961,2.47,4.086,1.708,6.8c-0.643,2.29-0.733,4.732-1.12,7.099c-0.198,1.213,0.194,2.091,1.009,3.017
	c1.527,1.733,2.86,3.638,4.303,5.448c0.685,0.859,0.789,1.727,0.197,2.647c-0.827,1.284-0.426,2.442,0.333,3.565
	c1.151,1.701,2.312,3.395,3.576,5.249c-1.684,0.759-3.227,0.662-4.661,0.447c0.361,2.04,0.671,3.965,1.052,5.876
	c0.223,1.117,1.126,1.386,2.036,1.103c2.246-0.699,4.219-1.921,5.786-3.685c0.276-0.312,0.317-1.082,0.144-1.508
	c-1.385-3.391-2.876-6.738-4.277-10.123c-1.207-2.915-2.932-5.497-4.974-7.867c-0.822-0.954-1.075-1.884-0.655-3.07
	c0.986-2.785,0.96-5.648,0.559-8.531c-0.055-0.395-0.167-0.811-0.101-1.189c0.411-2.337-0.78-3.88-2.623-4.919
	c-1.272-0.717-1.791-1.61-1.882-3.034c-0.178-2.782-1.25-5.252-2.954-7.467c-1.011-1.312-1.935-2.691-2.958-4.124
	c0.95-0.759,1.677-1.34,2.424-1.937c-0.396-2.682-2.467-4.423-3.375-6.987c1.203,0.531,2.479,0.947,3.576,1.644
	c0.5,0.317,0.791,1.157,0.931,1.812c0.527,2.483,0.489,2.484,3.064,2.617c0.521,0.026,1.039,0.131,1.566,0.59
	c-0.711,0.087-1.422,0.173-2.352,0.287c0.255,0.433,0.439,0.81,0.681,1.146c1.254,1.747,2.498,3.501,3.797,5.214
	c0.519,0.685,1.168,1.271,1.905,2.059c-0.882,2.777,2.179,4.083,2.515,6.548c1.655-0.53,3.006-0.963,4.279-1.371
	c0.152,2.16-0.019,4.239,0.522,6.113c0.538,1.861,1.793,3.515,2.896,5.561c-1.747-0.057-2.396-1.411-3.864-1.874
	c0.343,0.528,0.522,0.878,0.77,1.173c1.025,1.225,2.1,2.411,3.104,3.652c1.583,1.954,1.594,3.944,0.091,6.064
	c-1.225,1.727-1.477,3.5-0.292,5.362c0.429,0.674,0.958,1.325,1.206,2.065c0.342,1.023,0.589,2.114,0.644,3.188
	c0.071,1.427-0.179,2.87-0.115,4.298c0.117,2.606,1.256,4.03,3.99,3.775c-0.319-0.954-0.63-1.879-1.031-3.075
	c3.745-1.524,7.417-2.71,11.67-3.068c0.889,2.8,0.462,5.646,0.523,8.666c-1.438-0.119-2.301,0.392-2.497,1.849
	c-0.16,1.199-0.985,1.766-2.223,1.688c-0.478-0.03-0.96-0.032-1.438-0.006c-2.228,0.122-3.467,1.397-3.393,3.473
	c0.075,2.093,1.395,3.39,3.561,3.271c1.291-0.071,2.29-0.082,2.088,1.619c-0.728,0.233-1.442,0.462-2.29,0.734
	c-1.373-1.004-2.807-2.139-4.326-3.144c-2.571-1.7-5.495-2.118-8.497-2.014c-1.581,0.055-2.167,1.076-1.314,2.438
	c0.712,1.138,0.876,2.032,0.266,3.303c-0.919,1.912-0.636,2.532,1.166,3.933c1.307,1.015,0.659,2.316,0.572,3.549
	c-0.266,0.423-0.537,0.839-0.809,1.254c0.093,0.045,0.186,0.091,0.277,0.136c0.168-0.486,0.335-0.972,0.503-1.458
	c1.076-0.233,1.155-1.209,1.484-1.998c0.76-1.819,1.804-2.906,4.112-4.145c0.384,0.748,0.755,1.5,1.154,2.237
	c0.338,0.625,0.561,1.498,1.094,1.795c1.582,0.881,1.071,2.081,0.834,3.339c-0.21,1.111-1.167,2.103-0.651,3.435
	c1.139-0.005,1.588-0.76,2.059-1.5c1.639-2.572,2.038-2.603,4.776-1.691c1.202,0.4,2.644,0.439,3.896,0.207
	c0.832-0.155,1.652-0.97,2.248-1.682c1.813-2.166,3.145-4.604,3.828-7.384c0.377-1.533,0.912-3.027,1.396-4.601
	c1.848,1.263,2.674,4.12,1.853,6.218c-0.464,1.186-1.032,2.349-1.702,3.43c-1.936,3.123-3.936,6.205-5.934,9.288
	c-0.693,1.071-1.02,2.145-0.468,3.387c0.191,0.432,0.183,0.953,0.374,1.385c0.688,1.546,1.142,3.104,0.11,5.107
	c2.647-1.089,3.548-3.292,5.166-4.929c1.382,1.02,0.548,2.285,0.438,3.305c-0.312,2.893-1.377,4.393-3.963,5.989
	c-0.395-1.1-0.78-2.174-1.243-3.467c-1.872,1.191-4.092,0.892-5.449,2.689c-0.301,0.399-1.153,0.397-1.76,0.546
	c-1.21,0.296-2.425,0.568-3.669,0.858c0.22,1.693,0.399,3.076,0.603,4.637c1.124,0.842,2.292,0.207,3.371-0.464
	c2.033-1.265,4.321-1.298,6.72-1.833c-0.704,1.493-2.316,2.616-3.893,3.026c-2.929,0.762-5.886,1.404-8.561,2.967
	c-1.305,0.762-2.317,1.596-2.63,3.327c2.062,0.667,4.154,1.344,6.578,2.127c-0.196,1.255-0.405,2.59-0.65,4.16
	c0.175,0.08,0.649,0.296,1.303,0.595c-0.78,0.197-1.413,0.356-2.115,0.534c0.364,2.168,2.589,1.104,3.471,2.476
	c-1.064,0.417-2.183,0.854-3.506,1.373c0.54,0.369,0.917,0.626,1.293,0.884l0.046-0.02c-0.296,0.123-0.584,0.331-0.887,0.355
	c-2.479,0.2-3.603,1.714-4.024,3.993c-0.243,1.314-1.183,2.116-2.365,2.492c-1.895,0.602-3.814,1.318-5.77,1.505
	c-5.794,0.555-11.495,0.059-16.913-2.32c-0.362-0.159-0.743-0.283-1.126-0.386c-0.141-0.038-0.311,0.033-0.64,0.078
	c0,0.414-0.091,0.871,0.014,1.277c3.298,12.815,2.409,25.545-0.892,38.189c-1.129,4.328-2.611,8.562-3.882,12.854
	c-0.244,0.824-0.386,1.721-0.357,2.576c0.375,11.272,0.789,22.542,1.19,33.813c0.203,5.676,0.429,11.35,0.595,17.027
	c0.257,8.795,0.481,17.592,0.696,26.388c0.043,1.769,0.22,3.465,0.937,5.136c0.609,1.422,1.253,2.87,0.199,4.555
	c-0.462,0.738-0.078,2.005-0.078,3.107c0.746,0.172,1.338,0.309,2.143,0.494c0.355,2.256,0.843,4.525,1.053,6.819
	c0.778,8.502,0.372,16.941-1.704,25.254c-0.579,2.319-1.307,4.602-1.904,6.917c-0.217,0.84-0.338,1.724-0.36,2.591
	c-0.512,20.072-0.997,40.145-1.505,60.216c-0.102,3.998-0.273,7.995-0.41,11.992c-0.038,1.119,0.267,2.119,0.633,3.201
	c0.543,1.606,0.429,3.434,0.614,5.165c0.082,0.77,0.202,1.535,0.323,2.3c0.137,0.857,0.465,1.723,0.413,2.565
	c-0.316,5.184-0.713,10.362-1.092,15.542c-0.122,1.674-0.271,3.346-0.404,5.021c-2.189,0.39-2.988,1.846-3.021,3.914
	c-0.014,0.879-0.072,1.759-0.141,2.636c-0.191,2.467-0.362,4.936-0.631,7.395c-0.05,0.456-0.459,1.148-0.81,1.224
	c-0.415,0.088-1.016-0.297-1.405-0.63c-0.249-0.213-0.366-0.704-0.363-1.068c0.03-3.342,0.103-6.684,0.154-10.025
	c0.015-0.936,0.003-1.871,0.003-2.731c-2.916-1.13-2.928-1.13-2.854-4.177c0.156-6.397,0.37-12.794,0.455-19.193
	c0.019-1.371,0.3-2.466,1.512-3.23c-1.56-4.63-3.074-9.125-4.766-14.146c-0.492,1.142-0.797,1.75-1.021,2.387
	c-0.906,2.563-1.699,5.17-2.701,7.693c-1.062,2.677-1.396,5.402-1.063,8.23c1.09,9.288,2.168,18.577,3.321,27.856
	c0.126,1.012,0.712,1.965,1.152,3.123c-0.13,0.11-0.478,0.404-0.824,0.698c0.511,0.113,1.021,0.226,1.735,0.383
	c-0.382,0.504-0.61,0.806-0.759,1.001c0.406,0.288,1.061,0.564,1.042,0.78c-0.041,0.46-0.521,0.688,0.319,1.107
	c1.617,0.806,2.48,2.185,2.657,4.146c0.249,2.778,0.843,5.527,1.321,8.283c0.627,3.606,1.286,7.207,1.931,10.81
	c0.706-0.58,0.99-1.2,1.195-1.845c3.3-10.389,4.951-20.997,4.14-31.916c-0.069-0.933-0.423-1.844-0.645-2.765
	c0.309-0.958,0.797-1.898,0.892-2.877c0.284-2.941,0.401-5.898,0.62-8.847c0.038-0.508,0.254-1.002,0.388-1.503
	c0.162-0.012,0.324-0.022,0.486-0.034c0.328,1.104,0.688,2.2,0.978,3.314c3.153,12.15,3.449,24.372,0.347,36.541
	c-2.091,8.201-4.637,16.288-7.022,24.413c-0.355,1.211-0.951,2.352-1.433,3.521c-0.174-0.866-0.351-1.729-0.527-2.591
	c-0.167,0.052-0.333,0.104-0.499,0.157C394.08,680.188,394.016,681.135,395.026,681.687z M372.775,216.196
	c-0.11,0.85-0.222,1.699-0.332,2.549c0.106,0.006,0.213,0.013,0.32,0.019c0-0.85,0-1.7,0-2.551
	c-0.399-0.865-0.787-1.735-1.198-2.595c-1.409-2.942-4.041-4.571-6.896-6.751c1.641,1.808,2.836,3.295,4.214,4.588
	c1.017,0.953,1.923,1.862,2.157,3.306C371.192,215.694,371.6,216.461,372.775,216.196z M388.154,396.727
	c0.317-0.603,0.769-1.171,0.934-1.813c1.678-6.536,2.124-13.196,1.98-19.781c-0.948,7.13-1.914,14.384-2.866,21.653
	c-0.234,1.114-0.469,2.228-0.703,3.342c0.146,0.016,0.293,0.031,0.439,0.046C388.01,399.025,388.082,397.876,388.154,396.727z
	 M387.033,480.985c0.356,2.201,0.684,4.242,1.019,6.282c1.623,9.865,2.959,19.773,2.844,29.786
	c-0.045,3.825,1.58,7.049,2.458,11.081c1.335-2.452,1.647-4.674,2.411-6.728c0.819-2.204,1.093-4.461,1.072-6.812
	c-0.099-10.788-0.124-21.576-0.174-32.364c-0.004-0.997,0-1.994,0-3.234c-2.66,0.796-4.995,1.987-7.93,1.236
	c0.751-0.433,1.249-0.801,1.806-1.024c1.48-0.594,3.004-1.084,4.474-1.701c0.714-0.299,1.534-0.649,1.452-1.673
	c-0.184-2.294-0.025-4.589-0.839-6.855c-2.187-6.089-4.273-12.216-6.251-18.376c-2.374-7.398-4.266-14.903-4.093-22.771
	c0.013-0.596-0.102-1.195-0.157-1.793c-1.253,1.979-2.015,4.027-2.055,6.287c-0.147,8.39-0.37,16.781,0.73,25.136
	c0.709,5.386,1.354,10.78,2.091,16.162c0.271,1.989,0.243,3.803-1.357,5.314c-0.38,0.358-0.474,1.021-0.78,1.735
	C384.968,480.789,385.824,480.87,387.033,480.985z M382.581,514.563c-0.137,0.836-0.245,1.677-0.413,2.507
	c-1.008,5.005-1.873,10.046-3.093,14.999c-1.05,4.26-2.608,8.393-3.746,12.635c-0.529,1.975-0.852,4.077-0.827,6.117
	c0.093,7.678-0.077,15.336-0.722,22.991c-0.179,2.12-0.088,4.327,0.299,6.416c0.668,3.606,1.636,7.16,2.537,10.721
	c0.303,1.198,0.787,2.352,1.188,3.525c0.157-0.028,0.314-0.056,0.473-0.084c0-0.759-0.023-1.519,0.004-2.276
	c0.082-2.235,0.132-4.473,0.288-6.703c0.799-11.419,2.973-22.646,4.796-33.92c1.403-8.681,2.533-17.375,2.806-26.19
	C386.298,521.195,384.336,518.023,382.581,514.563z M362.721,199.877c1.997,1.155,4.216,1.424,6.391,1.662
	c2.864,0.313,5.106,1.681,7.141,3.557c0.588,0.542,1.13,1.139,1.748,1.643c1.154,0.942,1.88,1.981,1.969,3.605
	c0.134,2.457,1.186,4.482,3.212,6.131c1.844,1.5,3.395,3.381,4.961,5.193c3.593,4.158,3.917,2.814,1.896,8.566
	c-1.502,4.276-1.898,8.356,0.208,12.494c0.215,0.422,0.278,0.918,0.46,1.36c0.181,0.438,0.424,0.85,0.769,1.527
	c0.368-1.631,0.653-2.893,1.034-4.579c0.299,0.739,0.429,1.021,0.527,1.312c0.911,2.718,1.739,5.467,2.761,8.143
	c0.477,1.249,1.185,2.471,2.032,3.503c1.621,1.974,3.446,3.779,5.135,5.7c1.765,2.006,3.943,2.042,6.688,1.536
	c-0.913-1.488-1.632-2.747-2.798-3.761c-0.955-0.832-1.938-1.7-2.648-2.732c-2.582-3.75-5.106-7.543-7.526-11.4
	c-0.513-0.817-0.659-1.965-0.687-2.968c-0.081-2.957,0.027-5.917-0.022-8.875c-0.044-2.593-0.541-5.066-2.157-7.222
	c-0.467-0.623-0.701-1.421-1.034-2.144c-0.727-1.581-1.24-3.31-2.22-4.715c-1.64-2.352-3.511-4.554-5.403-6.715
	c-1.781-2.035-3.716-3.937-5.381-5.686c1.067-2.838,2.061-5.482,3.027-8.052c-2.027-2.368-4.862-2.595-7.718-0.735
	c-0.034,1.969,0.757,3.493,2.354,4.668c0.798,0.588,1.23,1.427,0.806,2.57c-1.277-0.442-2.458-0.923-3.68-1.257
	c-2.387-0.653-4.779-1.214-6.991-2.429C366.067,198.952,364.38,199.062,362.721,199.877z M374.894,339.522
	c-0.16,0.034-0.319,0.068-0.479,0.102c-0.162,4.415-1.363,8.788-0.323,13.249c1.271,5.448,2.372,10.944,3.89,16.322
	c2.42,8.575,4.304,17.205,4.301,26.165c0,0.451,0.211,0.902,0.324,1.353c3.225-14.969,4.096-29.969,2.897-44.821
	c-1.079-0.739-1.841-1.312-2.655-1.799c-0.526-0.314-1.121-0.682-1.701-0.709c-1.557-0.075-2.54-0.851-3.127-2.201
	c-0.701-1.609-1.354-3.24-2.018-4.865C375.623,341.39,375.263,340.455,374.894,339.522z M372.111,366.257
	c-2.694,17.837-1.353,35.551,1.119,53.253c0.145-0.116,0.328-0.188,0.369-0.308c1.874-5.632,3.313-11.375,3.642-17.312
	c0.426-7.702-0.198-15.342-2.005-22.86C374.213,374.768,373.154,370.514,372.111,366.257z M373.552,533.143
	c0.166-0.416,0.352-0.824,0.495-1.247c2.897-8.506,3.953-17.261,3.395-26.204c-0.138-2.212-0.416-4.47-1.039-6.586
	c-1.303-4.434-2.874-8.789-4.349-13.171c-0.161-0.479-0.411-0.928-0.783-1.753C369.357,500.877,371.03,516.979,373.552,533.143z
	 M381.161,639.384c-0.301,0.518-0.548,0.799-0.64,1.123c-0.82,2.917-1.618,5.839-2.405,8.765c-0.08,0.299-0.177,0.696-0.049,0.929
	c0.688,1.252,0.153,2.492,0.074,3.742c-0.044,0.699,0.04,1.408,0.1,2.11c0.073,0.856,0.186,1.709,0.272,2.564
	c0.087,0.857,0,1.772,0.273,2.564c1.25,3.615,2.532,7.223,3.942,10.777c0.713,1.795,1.165,3.848,3.276,4.743
	c0.309,0.131,0.496,0.608,0.683,0.957c0.796,1.496,2.05,2.323,3.679,2.661c0.742-0.961,0.684-1.951,0.401-2.993
	c-0.312-1.152-0.598-2.313-0.848-3.48c-0.43-2.007-0.823-4.021-1.226-6c-1.185,0-2.111,0-3.047,0
	c-0.152-0.394-0.304-0.678-0.373-0.98c-1.637-7.151-3.262-14.307-4.901-21.457c-0.169-0.734-0.12-1.306,0.38-1.979
	C381.533,642.382,381.485,641.857,381.161,639.384z M395.693,452.663c0.283-6.142-1.383-46.844-1.942-48.598
	C388.935,419.402,389.113,436.076,395.693,452.663z M377.997,448.609c-0.154-0.018-0.309-0.037-0.464-0.055
	c-0.423,1.817-0.911,3.623-1.259,5.454c-1.315,6.931-2.287,13.874-0.271,20.849c0.258,0.894,0.275,1.734-0.375,2.479
	c-0.877,1.005-0.445,1.778,0.493,2.353c0.642,0.393,1.38,0.631,1.822,0.826c2.959-2.122,3.366-4.604,2.82-7.784
	c-0.984-5.732-1.494-11.548-2.161-17.333C378.344,453.141,378.196,450.872,377.997,448.609z M371.303,623.365
	c0.151-0.509,0.314-1.014,0.45-1.526c1.188-4.468,2.423-8.924,3.517-13.415c0.251-1.031,0.194-2.224-0.039-3.271
	c-0.834-3.735-1.795-7.442-2.735-11.152c-0.099-0.389-0.383-0.729-0.701-1.314C370.549,600.719,369.878,618.381,371.303,623.365z
	 M377.998,481.319c0.16,6.458,4.696,21.654,7.349,24.854c0.113-3.634-2.486-22.537-3.517-25.208
	C380.585,481.08,379.282,481.201,377.998,481.319z M395.66,558.333c-0.145,0.518-0.309,1.032-0.432,1.556
	c-1.293,5.508-2.591,11.016-3.853,16.53c-0.156,0.686-0.293,1.456-0.14,2.118c0.9,3.881,1.89,7.741,2.851,11.607
	c0.054,0.217,0.13,0.428,0.196,0.641c0.186-0.095,0.371-0.189,0.557-0.284C395.46,579.804,395.637,569.09,395.66,558.333z
	 M397.718,368.601c0.161,0.014,0.322,0.027,0.483,0.042c3.104-7.63,2.749-28.271-0.483-33.242
	C397.718,346.4,397.718,357.5,397.718,368.601z M367.396,248.253c1.347-3.919,0.153-7.71,0.876-11.599
	c-2.569,0.989-5.134-0.117-7.462,0.987c0.234,1.653,1.439,2.311,2.277,3.206c0.913,0.975,1.567,1.882,1.144,3.375
	c-0.266,0.937-0.05,2.01-0.05,3.139C365.242,247.655,366.142,247.905,367.396,248.253z M354.513,251.488
	c1.608-0.337,2.314,0.596,3.032,1.602c0.647,0.908,1.449,1.705,2.118,2.599c1.37,1.831,2.219,3.756,1.904,6.203
	c-0.267,2.073-0.366,4.123-1.517,5.955c-0.206,0.327-0.309,0.744-0.367,1.133c-0.145,0.976,0.531,1.926,1.354,1.879
	c0.906-0.051,1.17-0.709,1.213-1.497c0.042-0.783-0.169-1.68,0.141-2.333c1.45-3.064,1.041-6.26,0.851-9.439
	c-0.067-1.127-0.494-2.121-1.507-2.846c-2.858-2.047-5.466-4.347-7.222-7.579C354.513,248.468,354.513,249.771,354.513,251.488z
	 M376.642,251.502c0.22,0.379,0.265,0.581,0.381,0.638c0.568,0.28,1.158,0.515,1.734,0.78c3.184,1.466,6.405,2.812,8.14,6.251
	c0.963,1.91,2.272,3.646,3.448,5.447c0.456,0.699,0.974,1.358,1.725,2.399c0.073-0.76,0.176-1.007,0.102-1.18
	c-1.223-2.852-2.216-5.842-3.771-8.502c-1.914-3.269-4.876-5.452-8.711-6.199C378.702,250.944,377.671,250.709,376.642,251.502z
	 M392.486,348.644c0-6.51-0.107-12.499,0.056-18.48c0.06-2.197-0.571-3.618-2.719-4.486c0.082,5.54-0.211,11.032,1.716,16.344
	c0.502,1.384,0.54,2.938,0.783,4.371c-0.623,0.291-1.028,0.481-1.637,0.765C391.273,347.643,391.721,348.012,392.486,348.644z
	 M379.083,235.713c0.213-0.049,0.426-0.099,0.638-0.148c0.588-2.46,1.025-4.95,0.85-7.501c-0.047-0.687-0.363-1.401-0.714-2.012
	c-1.034-1.8-3.158-2.536-5.077-1.747c1.576,2.462,2.294,5.188,2.746,8.045C377.711,233.524,378.545,234.595,379.083,235.713z
	 M381.318,244.819c0.518-3.17-0.748-6.072-3.026-7.53c-3.232-2.068-6.829-3.292-10.453-4.533c1.954,2.265,5.455,2.521,6.916,5.389
	C376.194,240.971,379.677,241.761,381.318,244.819z M423.234,294.277c-0.164,1.578,0.421,2.868,1.457,3.882
	c0.43,0.42,1.3,0.727,1.867,0.606c1.442-0.307,2.827-0.883,4.408-1.41c-0.391-1.081-0.626-2.009-1.065-2.829
	c-0.221-0.412-0.829-0.905-1.232-0.88C426.878,293.758,425.098,294.044,423.234,294.277z M379.034,419.917
	c-0.332,0.73-0.533,1.064-0.641,1.425c-1.23,4.135-2.539,8.25-3.616,12.424c-0.399,1.546-0.245,3.235-0.344,4.859
	C377.203,432.788,379.271,426.848,379.034,419.917z M377.136,621.438c-1.957,6.359-2.56,12.87-2.057,19.493
	C377.079,634.582,377.974,628.111,377.136,621.438z M436.744,291.39c-2.077,0.375-2.718,1.145-2.141,2.437
	c0.406,0.91,1.105,1.623,2.188,1.604c1.081-0.02,2.159-0.184,3.51-0.31c-0.595-1.566-1.008-2.936-1.626-4.206
	c-0.731-1.502-1.237-1.57-3.056-0.729C435.948,290.539,436.265,290.877,436.744,291.39z M419.272,308.539
	c0.156,0.625,0.241,1.083,0.384,1.521c0.609,1.873,1.152,2.032,2.872,1.021c0.498-0.292,1.133-0.396,1.72-0.484
	c0.893-0.133,1.799-0.178,3.019-0.289c-0.618-1.143-0.585-2.432-1.719-2.475C423.535,307.755,421.44,307.438,419.272,308.539z
	 M379.532,273.292c1.777,0.033,1.848-1.091,1.97-2.07c0.615-4.924-1.4-9.025-4.125-12.901c0.021,0.874,0.233,1.693,0.493,2.499
	c0.584,1.817,1.169,3.635,1.796,5.439c0.566,1.631,0.66,3.247,0.145,4.916C379.615,271.806,379.629,272.501,379.532,273.292z
	 M401.761,285.615c-0.558-2.375-1.899-3.726-3.62-4.951c-1.413,0.899-2.848,1.811-4.635,2.947
	C396.338,284.634,398.94,285.011,401.761,285.615z M414.003,300.356c2.602,1.788,3.776,1.931,5.536,0.676
	c-0.829-0.858-1.637-1.713-2.466-2.545c-1.115-1.12-1.758-1.016-2.514,0.421C414.341,299.323,414.217,299.789,414.003,300.356z
	 M394.533,666.586c-1.834,0.21-2.656,0.886-2.423,2.384c0.457,2.928,1.132,5.82,1.717,8.729c0.188-0.034,0.376-0.068,0.564-0.103
	c-0.298-1.833-0.845-3.669-0.822-5.498C393.593,670.266,394.186,668.439,394.533,666.586z M384.922,571.266
	c-0.41,3.711-0.82,7.423-1.23,11.134C386.453,578.917,385.803,575.056,384.922,571.266z M355.758,208.484
	c0.125-0.105,0.25-0.211,0.375-0.317c-1.374-1.735-2.747-3.47-4.329-5.468c-0.425,1.029-0.682,1.65-1.041,2.519
	C352.503,206.355,354.13,207.42,355.758,208.484z M349.498,234.899c2.614,3.025,4.121,3.602,6.941,2.513
	C354.099,236.323,352.068,235.31,349.498,234.899z M360.857,235.109c2.565-2.99,3.06-4.693,1.762-6.048
	C361.29,230.782,360.137,232.509,360.857,235.109z M354.314,217.847c-0.771,2.564-1.396,4.646-2.089,6.951
	C354.484,223.788,355.009,221.992,354.314,217.847z M356.314,196.6c-1.883-0.357-3.348-0.176-4.865,0.54
	C353.475,198.617,354.425,198.538,356.314,196.6z M361.362,194.244c-0.082,0.09-0.164,0.181-0.246,0.272
	c0.437,0.538,0.869,1.08,1.311,1.614c1.093,1.319,1.125,1.319,2.704,0.023c-0.991-0.531-1.948-1.05-2.913-1.554
	C361.945,194.457,361.648,194.361,361.362,194.244z M365.273,284.229c0.551,2.905,0.755,3.212,2.201,3.592
	C367.943,285.856,366.556,285.058,365.273,284.229z M335.49,209.489c0.644-0.936,0.619-0.922-0.312-2.604
	c-0.871-1.574-0.857-1.581-1.809-2.039C333.191,206.827,335.054,207.724,335.49,209.489z M392.704,354.311
	c-0.064-1.264-0.13-2.527-0.206-4.001C391.098,351.353,391.098,351.353,392.704,354.311z M427.3,307.393
	c1.064,0.592,1.684,0.936,2.504,1.392C429.348,306.833,429.348,306.833,427.3,307.393z M437.137,256.298
	c-0.135-0.119-0.27-0.237-0.405-0.355c-1.463,0.678-1.463,0.678-1.025,2.1C436.249,257.382,436.692,256.84,437.137,256.298z
	 M335.958,236.258c-0.235,0.097-0.47,0.194-0.706,0.291c0.363,0.934,0.726,1.868,1.089,2.801c0.161-0.062,0.322-0.125,0.483-0.187
	C336.535,238.195,336.246,237.227,335.958,236.258z M361.16,203.554c-0.183,0.145-0.365,0.29-0.549,0.435
	c0.644,0.722,1.287,1.444,1.93,2.167c0.15-0.128,0.301-0.257,0.452-0.386C362.382,205.031,361.771,204.292,361.16,203.554z
	 M360.807,198.939c-0.69-0.53-1.28-0.711-1.88,0.556C359.817,199.232,360.312,199.086,360.807,198.939z M396.347,537.892
	c-0.152,0.012-0.305,0.023-0.457,0.035c0.064,0.807,0.13,1.614,0.194,2.421c0.088-0.008,0.176-0.016,0.263-0.023
	C396.347,539.514,396.347,538.702,396.347,537.892z"/>
<path fill-rule="evenodd" clip-rule="evenodd" d="M258.04,442.346c3.015-2.232,4.414-5.828,8.396-6.278
	c-1.053,2.109-3.465,2.576-4.569,4.372c-1.086,1.766-2.44,3.385-3.377,5.222c-0.971,1.905-1.583,3.993-2.411,6.152
	c-0.45,0.042-1.04,0.098-1.714,0.161c1.515,4.356,5.448,6.471,8.098,9.688c-2.24-1.052-4.289-2.247-6.09-4.008
	c-3.652-3.572-4.781-7.871-4.747-12.801c0.121-17.757,0.113-35.515,0.17-53.272c0.133-41.354,0.304-82.708,0.372-124.062
	c0.007-4.287,0.917-8.402,1.478-12.591c1.417-10.579,5.203-20.427,9.623-30.001c2.671-5.786,5.666-11.566,9.444-16.661
	c4.978-6.714,10.224-13.335,16.848-18.642c3.433-2.75,6.753-5.639,10.157-8.425c0.86-0.704,1.805-1.324,2.775-1.868
	c5.297-2.974,10.57-5.997,15.946-8.823c2.318-1.218,4.818-2.139,7.313-2.956c4.173-1.366,8.408-2.54,12.617-3.796
	c9.055-2.702,18.35-3.378,27.74-3.408c11.146-0.036,21.933,1.925,32.465,5.482c3.024,1.021,6.173,1.729,9.104,2.963
	c7.677,3.235,15.094,7.158,21.826,11.96c6.99,4.987,13.624,10.548,19.329,17.16c6.143,7.119,11.736,14.553,15.975,22.951
	c1.471,2.914,2.795,5.914,3.983,8.954c1.716,4.389,3.474,8.784,4.792,13.3c1.271,4.353,1.97,8.87,2.987,13.299
	c1.516,6.604,1.63,13.319,1.622,20.037c-0.061,56.152-0.146,112.305-0.225,168.458c-0.001,0.64-0.083,1.289-0.006,1.918
	c0.426,3.463-0.663,6.45-2.822,9.096c-0.649,0.795-1.31,1.62-2.109,2.246c-1.937,1.517-3.958,2.925-6.04,4.256
	c2.512-3.64,6.705-5.788,8.781-10.228c-1.815,0.058-2.253-1.07-2.444-2.357c-0.593-3.999-2.81-7.04-5.632-9.757
	c-1.19-1.146-2.283-2.396-3.285-3.746c2.885,1.505,5.379,3.498,7.93,6.435c0.213-1.265,0.401-1.9,0.414-2.538
	c0.087-4.318,0.191-8.637,0.191-12.956c0.012-47.354,0.027-94.708-0.019-142.061c-0.007-7.033-0.08-14.083-0.557-21.095
	c-0.783-11.5-3.699-22.526-8.172-33.158c-3.748-8.914-8.632-17.158-14.667-24.671c-9.377-11.673-20.708-21.004-33.948-28.105
	c-9.924-5.322-20.54-8.447-31.43-10.792c-3.498-0.754-7.135-0.921-10.719-1.211c-14.291-1.154-28.238,0.578-41.885,4.972
	c-18.056,5.813-33.599,15.631-46.462,29.514c-8.093,8.735-14.442,18.682-19.222,29.654c-5.468,12.554-8.349,25.634-9.132,39.268
	c-0.212,3.688-0.045,7.337-0.018,11.007c0.042,5.751-0.226,11.504-0.271,17.257c-0.05,6.399-0.025,12.798,0.017,19.197
	c0.153,23.593,0.31,47.187,0.497,70.78c0.107,13.515,0.234,27.03,0.438,40.543C257.462,432.839,257.798,437.296,258.04,442.346z
	 M255.736,346.425c-0.064-0.031-0.128-0.062-0.192-0.093c0,3.823,0,7.646,0,11.469c0.064,0,0.128,0,0.192,0
	C255.736,354.009,255.736,350.217,255.736,346.425z M255.737,331.031c-0.062-0.01-0.125-0.021-0.188-0.031c0,3.009,0,6.018,0,9.026
	c0.062-0.001,0.125-0.001,0.188-0.002C255.737,337.027,255.737,334.029,255.737,331.031z"/>
<path fill-rule="evenodd" clip-rule="evenodd" d="M446.22,259.426c-0.501-2.538-0.769-5.152-1.57-7.591
	c-0.77-2.339-2.093-4.497-3.189-6.769c2.846-0.741,5.114,0.084,6.424,2.18c0.38,0.608,0.663,1.276,1.038,1.888
	c0.863,1.41,0.984,2.691,0.021,4.217c-0.747,1.186-1,2.681-1.491,4.032c-0.259,0.71-0.559,1.405-0.84,2.107
	C446.481,259.468,446.351,259.447,446.22,259.426z"/>
<path fill-rule="evenodd" clip-rule="evenodd" d="M429.396,232.43c0.345,0.929,0.702,1.854,1.033,2.788
	c1.117,3.155,3.008,5.349,6.584,5.779c1.563,0.188,3.079,0.769,4.963,1.263c-0.404,0.985-0.734,1.791-1.016,2.478
	c-0.427,0.049-0.633,0.141-0.731,0.074c-1.919-1.301-3.955-2.023-6.307-1.417c-0.296,0.076-0.637-0.003-0.955-0.028
	c-3.264-0.257-3.412-0.298-3.88-3.617c-0.331-2.346-0.375-4.732-0.548-7.1C428.825,232.576,429.111,232.503,429.396,232.43z"/>
<path fill-rule="evenodd" clip-rule="evenodd" d="M431.459,244.354c2.165,0.324,4.024,0.913,5.065,2.844
	c0.254,0.473,0.372,1.353,0.104,1.715c-1.062,1.437-2.3,2.742-3.718,4.379c-0.515-1.826-2.269-2.847-1.244-4.786
	c0.144-0.273-0.219-0.882-0.451-1.273C430.655,246.294,430.817,245.439,431.459,244.354z"/>
<path fill-rule="evenodd" clip-rule="evenodd" d="M451.772,258.293c0.652,2.051,2.956,3.316,2.594,5.955
	c-1.205,0.446-2.299-0.157-3.308-0.655c-0.389-0.191-0.685-1.065-0.622-1.58c0.149-1.241,0.535-2.453,0.826-3.677
	C451.433,258.322,451.603,258.308,451.772,258.293z"/>
<path fill-rule="evenodd" clip-rule="evenodd" fill="none" d="M387.033,480.985c-1.209-0.115-2.065-0.197-3.279-0.312
	c0.307-0.714,0.4-1.376,0.78-1.735c1.601-1.511,1.629-3.325,1.357-5.314c-0.737-5.382-1.382-10.776-2.091-16.162
	c-1.101-8.355-0.878-16.746-0.73-25.136c0.04-2.259,0.802-4.308,2.055-6.287c0.056,0.598,0.17,1.197,0.157,1.793
	c-0.173,7.868,1.719,15.373,4.093,22.771c1.978,6.16,4.064,12.288,6.251,18.376c0.813,2.266,0.655,4.561,0.839,6.855
	c0.082,1.024-0.738,1.374-1.452,1.673c-1.47,0.617-2.993,1.106-4.474,1.701c-0.557,0.224-1.055,0.592-1.806,1.024
	c2.935,0.75,5.27-0.44,7.93-1.236c0,1.24-0.004,2.237,0,3.234c0.05,10.788,0.075,21.576,0.174,32.364
	c0.021,2.352-0.253,4.608-1.072,6.812c-0.764,2.054-1.076,4.275-2.411,6.728c-0.878-4.032-2.503-7.256-2.458-11.081
	c0.115-10.013-1.221-19.921-2.844-29.786C387.717,485.228,387.39,483.187,387.033,480.985z"/>
<path fill-rule="evenodd" clip-rule="evenodd" fill="none" d="M399.713,627.22c0.222,0.921,0.575,1.832,0.645,2.765
	c0.812,10.919-0.84,21.527-4.14,31.916c-0.205,0.645-0.489,1.265-1.195,1.845c-0.645-3.603-1.304-7.203-1.931-10.81
	c-0.479-2.756-1.072-5.505-1.321-8.283c-0.177-1.962-1.04-3.341-2.657-4.146c-0.841-0.419-0.36-0.647-0.319-1.107
	c0.019-0.216-0.636-0.492-1.042-0.78c0.148-0.195,0.377-0.497,0.759-1.001c-0.715-0.157-1.225-0.27-1.735-0.383
	c0.347-0.294,0.694-0.588,0.824-0.698c-0.44-1.158-1.026-2.111-1.152-3.123c-1.153-9.279-2.231-18.568-3.321-27.856
	c-0.332-2.828,0.001-5.554,1.063-8.23c1.002-2.523,1.795-5.13,2.701-7.693c0.225-0.637,0.529-1.245,1.021-2.387
	c1.691,5.021,3.206,9.516,4.766,14.146c-1.212,0.765-1.493,1.859-1.512,3.23c-0.085,6.399-0.299,12.796-0.455,19.193
	c-0.074,3.047-0.062,3.047,2.854,4.177c0,0.86,0.012,1.796-0.003,2.731c-0.052,3.342-0.124,6.684-0.154,10.025
	c-0.003,0.364,0.114,0.855,0.363,1.068c0.39,0.333,0.99,0.718,1.405,0.63c0.351-0.075,0.76-0.768,0.81-1.224
	c0.269-2.459,0.439-4.928,0.631-7.395c0.068-0.877,0.127-1.757,0.141-2.636c0.033-2.068,0.832-3.524,3.021-3.914
	C399.774,627.275,399.713,627.22,399.713,627.22z"/>
<path fill-rule="evenodd" clip-rule="evenodd" fill="none" d="M382.581,514.563c1.755,3.46,3.717,6.632,3.59,10.737
	c-0.272,8.815-1.402,17.51-2.806,26.19c-1.823,11.274-3.997,22.501-4.796,33.92c-0.156,2.23-0.206,4.468-0.288,6.703
	c-0.027,0.758-0.004,1.518-0.004,2.276c-0.158,0.028-0.315,0.056-0.473,0.084c-0.401-1.174-0.886-2.327-1.188-3.525
	c-0.901-3.561-1.869-7.114-2.537-10.721c-0.387-2.089-0.478-4.296-0.299-6.416c0.645-7.655,0.814-15.313,0.722-22.991
	c-0.024-2.04,0.298-4.143,0.827-6.117c1.138-4.242,2.696-8.375,3.746-12.635c1.22-4.953,2.085-9.994,3.093-14.999
	C382.336,516.24,382.444,515.399,382.581,514.563z"/>
<path fill-rule="evenodd" clip-rule="evenodd" fill="none" d="M362.721,199.877c1.659-0.816,3.347-0.925,4.852-0.099
	c2.212,1.215,4.604,1.776,6.991,2.429c1.222,0.334,2.402,0.815,3.68,1.257c0.425-1.143-0.008-1.982-0.806-2.57
	c-1.597-1.176-2.388-2.699-2.354-4.668c2.856-1.86,5.691-1.633,7.719,0.735c-0.967,2.57-1.96,5.214-3.027,8.052
	c1.665,1.749,3.6,3.65,5.381,5.686c1.893,2.162,3.764,4.363,5.403,6.715c0.979,1.405,1.493,3.134,2.22,4.715
	c0.333,0.722,0.567,1.521,1.034,2.144c1.616,2.156,2.113,4.629,2.157,7.222c0.05,2.958-0.059,5.918,0.022,8.875
	c0.027,1.003,0.174,2.15,0.687,2.968c2.42,3.856,4.944,7.649,7.526,11.4c0.71,1.032,1.693,1.9,2.648,2.732
	c1.166,1.014,1.885,2.272,2.798,3.761c-2.745,0.507-4.924,0.47-6.688-1.536c-1.688-1.92-3.514-3.726-5.135-5.7
	c-0.848-1.032-1.556-2.254-2.032-3.503c-1.021-2.676-1.85-5.425-2.761-8.143c-0.099-0.292-0.229-0.573-0.527-1.312
	c-0.381,1.686-0.666,2.948-1.034,4.579c-0.345-0.677-0.588-1.089-0.769-1.527c-0.182-0.442-0.245-0.938-0.46-1.36
	c-2.106-4.138-1.71-8.217-0.208-12.494c2.021-5.752,1.697-4.408-1.896-8.566c-1.566-1.812-3.117-3.693-4.961-5.193
	c-2.026-1.649-3.078-3.674-3.212-6.131c-0.089-1.625-0.814-2.663-1.969-3.605c-0.618-0.504-1.16-1.101-1.748-1.643
	c-2.034-1.876-4.276-3.243-7.141-3.557C366.937,201.301,364.718,201.032,362.721,199.877z"/>
<path fill-rule="evenodd" clip-rule="evenodd" fill="none" d="M374.894,339.522c0.369,0.932,0.729,1.868,1.108,2.795
	c0.664,1.625,1.316,3.255,2.018,4.865c0.587,1.35,1.57,2.126,3.127,2.201c0.58,0.028,1.175,0.395,1.701,0.709
	c0.814,0.486,1.576,1.06,2.655,1.799c1.198,14.853,0.327,29.852-2.897,44.821c-0.113-0.451-0.324-0.902-0.324-1.353
	c0.003-8.96-1.881-17.59-4.301-26.165c-1.518-5.378-2.619-10.875-3.89-16.322c-1.04-4.461,0.161-8.834,0.323-13.249
	C374.574,339.59,374.733,339.557,374.894,339.522z"/>
<path fill-rule="evenodd" clip-rule="evenodd" fill="none" d="M372.111,366.257c1.043,4.257,2.102,8.511,3.125,12.772
	c1.807,7.519,2.431,15.159,2.005,22.86c-0.328,5.937-1.768,11.681-3.642,17.312c-0.041,0.12-0.225,0.191-0.369,0.308
	C370.759,401.808,369.417,384.094,372.111,366.257z"/>
<path fill-rule="evenodd" clip-rule="evenodd" fill="none" d="M373.552,533.143c-2.521-16.163-4.194-32.266-2.281-48.961
	c0.372,0.825,0.622,1.273,0.783,1.753c1.475,4.382,3.046,8.737,4.349,13.171c0.623,2.116,0.901,4.374,1.039,6.586
	c0.559,8.943-0.497,17.698-3.395,26.204C373.903,532.318,373.718,532.727,373.552,533.143z"/>
<path fill-rule="evenodd" clip-rule="evenodd" fill="none" d="M381.161,639.384c0.324,2.474,0.372,2.998-0.407,4.046
	c-0.5,0.674-0.549,1.245-0.38,1.979c1.64,7.15,3.265,14.306,4.901,21.457c0.069,0.303,0.221,0.587,0.373,0.98
	c0.936,0,1.862,0,3.047,0c0.402,1.979,0.796,3.993,1.226,6c0.25,1.167,0.535,2.328,0.848,3.48c0.282,1.042,0.341,2.032-0.401,2.993
	c-1.629-0.338-2.883-1.165-3.679-2.661c-0.187-0.349-0.374-0.826-0.683-0.957c-2.111-0.896-2.563-2.948-3.276-4.743
	c-1.41-3.555-2.692-7.162-3.942-10.777c-0.273-0.792-0.187-1.707-0.273-2.564c-0.087-0.855-0.199-1.708-0.272-2.564
	c-0.06-0.702-0.144-1.411-0.1-2.11c0.079-1.25,0.613-2.49-0.074-3.742c-0.128-0.232-0.031-0.63,0.049-0.929
	c0.787-2.926,1.585-5.848,2.405-8.765C380.613,640.183,380.86,639.901,381.161,639.384z"/>
<path fill-rule="evenodd" clip-rule="evenodd" fill="none" d="M395.693,452.663c-6.58-16.587-6.759-33.261-1.942-48.598
	C394.311,405.819,395.977,446.521,395.693,452.663z"/>
<path fill-rule="evenodd" clip-rule="evenodd" fill="none" d="M377.997,448.609c0.199,2.263,0.347,4.532,0.606,6.788
	c0.667,5.786,1.177,11.601,2.161,17.333c0.546,3.18,0.139,5.663-2.82,7.784c-0.442-0.195-1.181-0.433-1.822-0.826
	c-0.938-0.575-1.37-1.348-0.493-2.353c0.65-0.744,0.633-1.584,0.375-2.479c-2.017-6.975-1.045-13.918,0.271-20.849
	c0.348-1.832,0.836-3.637,1.259-5.454C377.688,448.572,377.843,448.591,377.997,448.609z"/>
<path fill-rule="evenodd" clip-rule="evenodd" fill="none" d="M371.303,623.365c-1.425-4.984-0.754-22.646,0.491-30.679
	c0.318,0.585,0.603,0.926,0.701,1.314c0.94,3.71,1.901,7.417,2.735,11.152c0.233,1.047,0.29,2.239,0.039,3.271
	c-1.094,4.491-2.328,8.947-3.517,13.415C371.617,622.352,371.454,622.856,371.303,623.365z"/>
<path fill-rule="evenodd" clip-rule="evenodd" fill="none" d="M377.998,481.319c1.284-0.118,2.587-0.239,3.832-0.354
	c1.03,2.671,3.63,21.575,3.517,25.208C382.694,502.974,378.158,487.777,377.998,481.319z"/>
<path fill-rule="evenodd" clip-rule="evenodd" fill="none" d="M395.66,558.333c-0.023,10.757-0.2,21.471-0.82,32.168
	c-0.186,0.095-0.371,0.189-0.557,0.284c-0.066-0.213-0.143-0.424-0.196-0.641c-0.961-3.866-1.95-7.727-2.851-11.607
	c-0.153-0.662-0.017-1.433,0.14-2.118c1.262-5.515,2.56-11.022,3.853-16.53C395.352,559.365,395.516,558.851,395.66,558.333z"/>
<path fill-rule="evenodd" clip-rule="evenodd" fill="none" d="M397.718,368.601c0-11.101,0-22.201,0-33.201
	c3.232,4.971,3.588,25.612,0.483,33.242C398.04,368.628,397.879,368.615,397.718,368.601z"/>
<path fill-rule="evenodd" clip-rule="evenodd" fill="none" d="M367.396,248.253c-1.254-0.348-2.153-0.598-3.215-0.893
	c0-1.129-0.216-2.203,0.05-3.139c0.424-1.493-0.23-2.4-1.144-3.375c-0.838-0.895-2.043-1.553-2.277-3.206
	c2.328-1.104,4.893,0.002,7.462-0.987C367.549,240.543,368.742,244.334,367.396,248.253z"/>
<path fill-rule="evenodd" clip-rule="evenodd" fill="none" d="M354.513,251.488c0-1.717,0-3.02,0-4.323
	c1.755,3.232,4.364,5.532,7.222,7.579c1.013,0.725,1.439,1.718,1.507,2.846c0.19,3.18,0.6,6.375-0.851,9.439
	c-0.31,0.653-0.099,1.549-0.141,2.333c-0.043,0.787-0.307,1.445-1.213,1.497c-0.822,0.046-1.499-0.904-1.354-1.879
	c0.058-0.389,0.162-0.806,0.367-1.133c1.15-1.832,1.25-3.881,1.517-5.955c0.314-2.446-0.534-4.372-1.904-6.203
	c-0.669-0.894-1.471-1.691-2.118-2.599C356.827,252.083,356.121,251.15,354.513,251.488z"/>
<path fill-rule="evenodd" clip-rule="evenodd" fill="none" d="M376.642,251.502c1.029-0.793,2.061-0.559,3.047-0.366
	c3.835,0.747,6.797,2.93,8.711,6.199c1.556,2.66,2.549,5.65,3.771,8.502c0.074,0.172-0.028,0.42-0.102,1.18
	c-0.751-1.041-1.269-1.7-1.725-2.399c-1.176-1.8-2.485-3.537-3.448-5.447c-1.734-3.438-4.956-4.785-8.14-6.251
	c-0.576-0.265-1.166-0.5-1.734-0.78C376.906,252.083,376.861,251.882,376.642,251.502z"/>
<path fill-rule="evenodd" clip-rule="evenodd" fill="none" d="M392.486,348.644c-0.766-0.631-1.213-1-1.801-1.485
	c0.608-0.284,1.014-0.474,1.637-0.765c-0.243-1.433-0.281-2.987-0.783-4.371c-1.927-5.312-1.634-10.804-1.716-16.344
	c2.147,0.868,2.778,2.289,2.719,4.486C392.379,336.145,392.486,342.133,392.486,348.644z"/>
<path fill-rule="evenodd" clip-rule="evenodd" fill="none" d="M379.083,235.713c-0.538-1.118-1.372-2.188-1.558-3.362
	c-0.452-2.858-1.17-5.583-2.746-8.045c1.919-0.789,4.043-0.054,5.077,1.747c0.351,0.611,0.667,1.325,0.714,2.012
	c0.176,2.551-0.262,5.041-0.85,7.501C379.509,235.614,379.296,235.664,379.083,235.713z"/>
<path fill-rule="evenodd" clip-rule="evenodd" fill="none" d="M381.318,244.819c-1.642-3.058-5.124-3.848-6.563-6.674
	c-1.461-2.868-4.962-3.125-6.916-5.389c3.624,1.241,7.221,2.465,10.453,4.533C380.57,238.747,381.836,241.648,381.318,244.819z"/>
<path fill-rule="evenodd" clip-rule="evenodd" fill="none" d="M423.234,294.277c1.863-0.233,3.644-0.519,5.435-0.63
	c0.403-0.025,1.012,0.468,1.232,0.88c0.439,0.819,0.675,1.748,1.065,2.829c-1.581,0.526-2.966,1.103-4.408,1.41
	c-0.567,0.121-1.438-0.186-1.867-0.606C423.655,297.145,423.07,295.854,423.234,294.277z"/>
<path fill-rule="evenodd" clip-rule="evenodd" fill="none" d="M379.034,419.917c0.236,6.931-1.831,12.872-4.601,18.708
	c0.099-1.624-0.056-3.313,0.344-4.859c1.077-4.175,2.386-8.29,3.616-12.424C378.501,420.98,378.702,420.647,379.034,419.917z"/>
<path fill-rule="evenodd" clip-rule="evenodd" fill="none" d="M377.136,621.438c0.838,6.674-0.057,13.145-2.057,19.493
	C374.576,634.308,375.179,627.797,377.136,621.438z"/>
<path fill-rule="evenodd" clip-rule="evenodd" fill="none" d="M436.744,291.39c-0.479-0.513-0.796-0.852-1.125-1.204
	c1.818-0.842,2.324-0.774,3.056,0.729c0.618,1.27,1.031,2.64,1.626,4.206c-1.351,0.126-2.429,0.291-3.51,0.31
	c-1.082,0.02-1.781-0.694-2.188-1.604C434.026,292.535,434.667,291.765,436.744,291.39z"/>
<path fill-rule="evenodd" clip-rule="evenodd" fill="none" d="M419.272,308.539c2.168-1.101,4.263-0.784,6.275-0.706
	c1.134,0.043,1.101,1.333,1.719,2.475c-1.22,0.111-2.126,0.156-3.019,0.289c-0.587,0.088-1.222,0.191-1.72,0.484
	c-1.72,1.01-2.263,0.852-2.872-1.021C419.514,309.622,419.429,309.165,419.272,308.539z"/>
<path fill-rule="evenodd" clip-rule="evenodd" fill="none" d="M379.532,273.292c0.097-0.791,0.083-1.486,0.278-2.118
	c0.516-1.669,0.422-3.285-0.145-4.916c-0.627-1.804-1.212-3.622-1.796-5.439c-0.26-0.805-0.473-1.625-0.493-2.499
	c2.725,3.876,4.74,7.977,4.125,12.901C381.38,272.201,381.31,273.325,379.532,273.292z"/>
<path fill-rule="evenodd" clip-rule="evenodd" fill="none" d="M401.761,285.615c-2.82-0.604-5.423-0.981-8.255-2.004
	c1.787-1.136,3.222-2.048,4.635-2.947C399.861,281.889,401.203,283.24,401.761,285.615z"/>
<path fill-rule="evenodd" clip-rule="evenodd" fill="none" d="M388.188,396.771c0.966-7.254,1.932-14.508,2.88-21.638
	c0.144,6.584-0.303,13.245-1.98,19.781c-0.165,0.642-0.616,1.211-0.934,1.813L388.188,396.771z"/>
<path fill-rule="evenodd" clip-rule="evenodd" fill="none" d="M414.003,300.356c0.214-0.567,0.338-1.033,0.557-1.448
	c0.756-1.437,1.398-1.541,2.514-0.421c0.829,0.833,1.637,1.687,2.466,2.545C417.779,302.287,416.604,302.144,414.003,300.356z"/>
<path fill-rule="evenodd" clip-rule="evenodd" fill="none" d="M394.533,666.586c-0.348,1.854-0.94,3.68-0.964,5.512
	c-0.022,1.829,0.524,3.665,0.822,5.498c-0.188,0.034-0.376,0.068-0.564,0.103c-0.585-2.908-1.26-5.801-1.717-8.729
	C391.877,667.472,392.699,666.796,394.533,666.586z"/>
<path fill-rule="evenodd" clip-rule="evenodd" fill="none" d="M384.922,571.266c0.881,3.79,1.531,7.651-1.23,11.134
	C384.102,578.688,384.512,574.977,384.922,571.266z"/>
<path fill-rule="evenodd" clip-rule="evenodd" fill="none" d="M355.758,208.484c-1.628-1.064-3.255-2.129-4.995-3.267
	c0.359-0.868,0.616-1.49,1.041-2.519c1.582,1.998,2.955,3.733,4.329,5.468C356.008,208.273,355.883,208.379,355.758,208.484z"/>
<path fill-rule="evenodd" clip-rule="evenodd" fill="none" d="M349.498,234.899c2.57,0.411,4.601,1.424,6.941,2.513
	C353.619,238.5,352.112,237.924,349.498,234.899z"/>
<path fill-rule="evenodd" clip-rule="evenodd" fill="none" d="M360.857,235.109c-0.721-2.601,0.433-4.327,1.762-6.048
	C363.917,230.416,363.423,232.12,360.857,235.109z"/>
<path fill-rule="evenodd" clip-rule="evenodd" fill="none" d="M372.792,216.177c-1.192,0.284-1.6-0.482-1.751-1.416
	c-0.234-1.444-1.141-2.354-2.157-3.306c-1.378-1.292-2.573-2.78-4.214-4.588c2.854,2.18,5.486,3.809,6.896,6.751
	c0.411,0.859,0.799,1.729,1.198,2.595L372.792,216.177z"/>
<path fill-rule="evenodd" clip-rule="evenodd" fill="none" d="M354.314,217.847c0.695,4.145,0.17,5.941-2.089,6.951
	C352.917,222.493,353.543,220.411,354.314,217.847z"/>
<path fill-rule="evenodd" clip-rule="evenodd" fill="none" d="M356.314,196.6c-1.889,1.938-2.839,2.018-4.865,0.54
	C352.966,196.423,354.431,196.242,356.314,196.6z"/>
<path fill-rule="evenodd" clip-rule="evenodd" fill="none" d="M361.362,194.244c0.286,0.117,0.583,0.213,0.855,0.355
	c0.965,0.503,1.922,1.023,2.913,1.554c-1.579,1.296-1.611,1.296-2.704-0.023c-0.441-0.534-0.874-1.076-1.311-1.614
	C361.198,194.425,361.28,194.334,361.362,194.244z"/>
<path fill-rule="evenodd" clip-rule="evenodd" fill="none" d="M365.273,284.229c1.282,0.829,2.67,1.627,2.201,3.592
	C366.028,287.441,365.824,287.134,365.273,284.229z"/>
<path fill-rule="evenodd" clip-rule="evenodd" fill="none" d="M335.49,209.489c-0.436-1.765-2.298-2.662-2.122-4.643
	c0.952,0.458,0.938,0.464,1.809,2.039C336.108,208.567,336.133,208.553,335.49,209.489z"/>
<path fill-rule="evenodd" clip-rule="evenodd" fill="none" d="M392.704,354.311c-1.606-2.958-1.606-2.958-0.206-4.001
	C392.574,351.784,392.64,353.047,392.704,354.311z"/>
<path fill-rule="evenodd" clip-rule="evenodd" fill="none" d="M427.3,307.393c2.048-0.56,2.048-0.56,2.504,1.392
	C428.983,308.329,428.364,307.984,427.3,307.393z"/>
<path fill-rule="evenodd" clip-rule="evenodd" fill="none" d="M437.137,256.298c-0.444,0.542-0.888,1.083-1.431,1.745
	c-0.438-1.422-0.438-1.422,1.025-2.1C436.867,256.062,437.002,256.18,437.137,256.298z"/>
<path fill-rule="evenodd" clip-rule="evenodd" fill="none" d="M335.958,236.258c0.289,0.968,0.578,1.937,0.867,2.905
	c-0.162,0.062-0.322,0.125-0.483,0.187c-0.363-0.934-0.726-1.867-1.089-2.801C335.487,236.452,335.722,236.355,335.958,236.258z"/>
<path fill-rule="evenodd" clip-rule="evenodd" fill="none" d="M361.16,203.554c0.61,0.738,1.222,1.477,1.833,2.215
	c-0.151,0.129-0.302,0.258-0.452,0.386c-0.643-0.722-1.286-1.444-1.93-2.167C360.795,203.844,360.978,203.699,361.16,203.554z"/>
<path fill-rule="evenodd" clip-rule="evenodd" fill="none" d="M360.807,198.939c-0.495,0.146-0.99,0.292-1.88,0.556
	C359.527,198.229,360.116,198.41,360.807,198.939z"/>
<path fill-rule="evenodd" clip-rule="evenodd" fill="none" d="M395.026,681.687c-1.011-0.552-0.946-1.499-1.085-2.371
	c0.166-0.053,0.332-0.105,0.499-0.157c0.177,0.862,0.354,1.725,0.527,2.591C394.965,681.752,395.026,681.687,395.026,681.687z"/>
<path fill-rule="evenodd" clip-rule="evenodd" fill="none" d="M396.347,537.892c0,0.811,0,1.622,0,2.433
	c-0.087,0.008-0.175,0.016-0.263,0.023c-0.064-0.807-0.13-1.614-0.194-2.421C396.042,537.915,396.194,537.903,396.347,537.892z"/>
<path fill-rule="evenodd" clip-rule="evenodd" fill="none" d="M388.154,396.727c-0.072,1.149-0.145,2.298-0.216,3.447
	c-0.146-0.016-0.293-0.031-0.439-0.046c0.234-1.114,0.469-2.228,0.696-3.349C388.188,396.771,388.154,396.727,388.154,396.727z"/>
<path fill-rule="evenodd" clip-rule="evenodd" fill="none" d="M372.764,216.213c0,0.851,0,1.701,0,2.551
	c-0.107-0.006-0.214-0.012-0.32-0.019c0.11-0.85,0.222-1.699,0.341-2.559C372.792,216.177,372.764,216.213,372.764,216.213z"/>
<path fill-rule="evenodd" clip-rule="evenodd" fill="none" d="M423.271,282.955c-0.168,0.486-0.335,0.972-0.503,1.458
	c-0.092-0.045-0.185-0.09-0.277-0.136c0.271-0.416,0.543-0.831,0.809-1.254C423.293,283.014,423.271,282.955,423.271,282.955z"/>
<path fill-rule="evenodd" clip-rule="evenodd" fill="none" d="M255.736,346.425c0,3.792,0,7.584,0,11.376c-0.064,0-0.128,0-0.192,0
	c0-3.823,0-7.646,0-11.469C255.608,346.364,255.672,346.395,255.736,346.425z"/>
<path fill-rule="evenodd" clip-rule="evenodd" fill="none" d="M255.737,331.031c0,2.998,0,5.996,0,8.994
	c-0.062,0-0.125,0.001-0.188,0.002c0-3.009,0-6.018,0-9.026C255.612,331.011,255.675,331.021,255.737,331.031z"/>
</svg>
