%
M48
M72
T01C0.02362
T02C0.03543
T03C0.03600
T04C0.04000
T05C0.04331
T06C0.08268
T07C0.09000
T08C0.12500
%
T01
X64700Y172200
X104700Y182200
T02
X24700Y312200
X64700Y312200
X79700Y312200
X119700Y312200
T03
X98700Y34500
X98700Y47100
X108500Y47100
X108500Y34500
T04
X14700Y52200
X14700Y62200
X14700Y72200
X14700Y82200
X14700Y92200
X14700Y102200
X14700Y112200
X14700Y122200
X14700Y132200
X14700Y142200
X14700Y172200
X14700Y182200
X14700Y192200
X14700Y202200
X14700Y212200
X14700Y222200
X14700Y232200
X14700Y242200
X14700Y252200
X14700Y262200
X194700Y147200
X194700Y157200
X194700Y167200
X194700Y177200
X194700Y187200
X194700Y197200
X194700Y207200
X194700Y217200
X194700Y227200
X194700Y237200
T05
X139109Y42200
X150920Y42200
X150920Y92200
X139109Y92200
X139109Y142200
X150920Y142200
X150920Y192200
X139109Y192200
X139109Y242200
X150920Y242200
X150920Y292200
X139109Y292200
X139109Y342200
X150920Y342200
X150920Y392200
X139109Y392200
X114543Y364641
X104700Y364641
X94857Y364641
X90920Y342200
X79109Y342200
X64385Y342200
X54543Y364641
X44700Y364641
X34857Y364641
X30920Y342200
X19109Y342200
X34700Y292200
X44700Y292200
X54700Y292200
X94700Y292200
X104700Y292200
X114700Y292200
X124385Y342200
X184385Y342200
X184385Y292200
X184385Y242200
X184385Y192200
X184385Y142200
X184385Y92200
X184385Y42200
X184385Y392200
T06
X122417Y392200
X86983Y392200
X62417Y392200
X26983Y392200
T07
X79700Y36500
X127100Y36500
T08
X14700Y17200
X164700Y42200
X164700Y92200
X164700Y142200
X164700Y192200
X164700Y242200
X164700Y292200
X164700Y342239
X164700Y392200
X192200Y414700
X104700Y342200
X44700Y342200
X14700Y414700
X192200Y17200
M30
