G75*
%MOIN*%
%OFA0B0*%
%FSLAX25Y25*%
%IPPOS*%
%LPD*%
%AMOC8*
5,1,8,0,0,1.08239X$1,22.5*
%
%ADD10C,0.00000*%
%ADD11C,0.01600*%
%ADD12C,0.06600*%
%ADD13C,0.13000*%
%ADD14C,0.06496*%
%ADD15R,0.06496X0.06496*%
%ADD16OC8,0.06496*%
%ADD17R,0.12268X0.12268*%
%ADD18OC8,0.07000*%
%ADD19C,0.06496*%
%ADD20C,0.07400*%
%ADD21C,0.02400*%
%ADD22C,0.03962*%
D10*
X0008450Y0017200D02*
X0008452Y0017358D01*
X0008458Y0017515D01*
X0008468Y0017673D01*
X0008482Y0017830D01*
X0008500Y0017986D01*
X0008521Y0018143D01*
X0008547Y0018298D01*
X0008577Y0018453D01*
X0008610Y0018607D01*
X0008648Y0018760D01*
X0008689Y0018913D01*
X0008734Y0019064D01*
X0008783Y0019214D01*
X0008836Y0019362D01*
X0008892Y0019510D01*
X0008953Y0019655D01*
X0009016Y0019800D01*
X0009084Y0019942D01*
X0009155Y0020083D01*
X0009229Y0020222D01*
X0009307Y0020359D01*
X0009389Y0020494D01*
X0009473Y0020627D01*
X0009562Y0020758D01*
X0009653Y0020886D01*
X0009748Y0021013D01*
X0009845Y0021136D01*
X0009946Y0021258D01*
X0010050Y0021376D01*
X0010157Y0021492D01*
X0010267Y0021605D01*
X0010379Y0021716D01*
X0010495Y0021823D01*
X0010613Y0021928D01*
X0010733Y0022030D01*
X0010856Y0022128D01*
X0010982Y0022224D01*
X0011110Y0022316D01*
X0011240Y0022405D01*
X0011372Y0022491D01*
X0011507Y0022573D01*
X0011644Y0022652D01*
X0011782Y0022727D01*
X0011922Y0022799D01*
X0012065Y0022867D01*
X0012208Y0022932D01*
X0012354Y0022993D01*
X0012501Y0023050D01*
X0012649Y0023104D01*
X0012799Y0023154D01*
X0012949Y0023200D01*
X0013101Y0023242D01*
X0013254Y0023281D01*
X0013408Y0023315D01*
X0013563Y0023346D01*
X0013718Y0023372D01*
X0013874Y0023395D01*
X0014031Y0023414D01*
X0014188Y0023429D01*
X0014345Y0023440D01*
X0014503Y0023447D01*
X0014661Y0023450D01*
X0014818Y0023449D01*
X0014976Y0023444D01*
X0015133Y0023435D01*
X0015291Y0023422D01*
X0015447Y0023405D01*
X0015604Y0023384D01*
X0015759Y0023360D01*
X0015914Y0023331D01*
X0016069Y0023298D01*
X0016222Y0023262D01*
X0016375Y0023221D01*
X0016526Y0023177D01*
X0016676Y0023129D01*
X0016825Y0023078D01*
X0016973Y0023022D01*
X0017119Y0022963D01*
X0017264Y0022900D01*
X0017407Y0022833D01*
X0017548Y0022763D01*
X0017687Y0022690D01*
X0017825Y0022613D01*
X0017961Y0022532D01*
X0018094Y0022448D01*
X0018225Y0022361D01*
X0018354Y0022270D01*
X0018481Y0022176D01*
X0018606Y0022079D01*
X0018727Y0021979D01*
X0018847Y0021876D01*
X0018963Y0021770D01*
X0019077Y0021661D01*
X0019189Y0021549D01*
X0019297Y0021435D01*
X0019402Y0021317D01*
X0019505Y0021197D01*
X0019604Y0021075D01*
X0019700Y0020950D01*
X0019793Y0020822D01*
X0019883Y0020693D01*
X0019969Y0020561D01*
X0020053Y0020427D01*
X0020132Y0020291D01*
X0020209Y0020153D01*
X0020281Y0020013D01*
X0020350Y0019871D01*
X0020416Y0019728D01*
X0020478Y0019583D01*
X0020536Y0019436D01*
X0020591Y0019288D01*
X0020642Y0019139D01*
X0020689Y0018988D01*
X0020732Y0018837D01*
X0020771Y0018684D01*
X0020807Y0018530D01*
X0020838Y0018376D01*
X0020866Y0018221D01*
X0020890Y0018065D01*
X0020910Y0017908D01*
X0020926Y0017751D01*
X0020938Y0017594D01*
X0020946Y0017437D01*
X0020950Y0017279D01*
X0020950Y0017121D01*
X0020946Y0016963D01*
X0020938Y0016806D01*
X0020926Y0016649D01*
X0020910Y0016492D01*
X0020890Y0016335D01*
X0020866Y0016179D01*
X0020838Y0016024D01*
X0020807Y0015870D01*
X0020771Y0015716D01*
X0020732Y0015563D01*
X0020689Y0015412D01*
X0020642Y0015261D01*
X0020591Y0015112D01*
X0020536Y0014964D01*
X0020478Y0014817D01*
X0020416Y0014672D01*
X0020350Y0014529D01*
X0020281Y0014387D01*
X0020209Y0014247D01*
X0020132Y0014109D01*
X0020053Y0013973D01*
X0019969Y0013839D01*
X0019883Y0013707D01*
X0019793Y0013578D01*
X0019700Y0013450D01*
X0019604Y0013325D01*
X0019505Y0013203D01*
X0019402Y0013083D01*
X0019297Y0012965D01*
X0019189Y0012851D01*
X0019077Y0012739D01*
X0018963Y0012630D01*
X0018847Y0012524D01*
X0018727Y0012421D01*
X0018606Y0012321D01*
X0018481Y0012224D01*
X0018354Y0012130D01*
X0018225Y0012039D01*
X0018094Y0011952D01*
X0017961Y0011868D01*
X0017825Y0011787D01*
X0017687Y0011710D01*
X0017548Y0011637D01*
X0017407Y0011567D01*
X0017264Y0011500D01*
X0017119Y0011437D01*
X0016973Y0011378D01*
X0016825Y0011322D01*
X0016676Y0011271D01*
X0016526Y0011223D01*
X0016375Y0011179D01*
X0016222Y0011138D01*
X0016069Y0011102D01*
X0015914Y0011069D01*
X0015759Y0011040D01*
X0015604Y0011016D01*
X0015447Y0010995D01*
X0015291Y0010978D01*
X0015133Y0010965D01*
X0014976Y0010956D01*
X0014818Y0010951D01*
X0014661Y0010950D01*
X0014503Y0010953D01*
X0014345Y0010960D01*
X0014188Y0010971D01*
X0014031Y0010986D01*
X0013874Y0011005D01*
X0013718Y0011028D01*
X0013563Y0011054D01*
X0013408Y0011085D01*
X0013254Y0011119D01*
X0013101Y0011158D01*
X0012949Y0011200D01*
X0012799Y0011246D01*
X0012649Y0011296D01*
X0012501Y0011350D01*
X0012354Y0011407D01*
X0012208Y0011468D01*
X0012065Y0011533D01*
X0011922Y0011601D01*
X0011782Y0011673D01*
X0011644Y0011748D01*
X0011507Y0011827D01*
X0011372Y0011909D01*
X0011240Y0011995D01*
X0011110Y0012084D01*
X0010982Y0012176D01*
X0010856Y0012272D01*
X0010733Y0012370D01*
X0010613Y0012472D01*
X0010495Y0012577D01*
X0010379Y0012684D01*
X0010267Y0012795D01*
X0010157Y0012908D01*
X0010050Y0013024D01*
X0009946Y0013142D01*
X0009845Y0013264D01*
X0009748Y0013387D01*
X0009653Y0013514D01*
X0009562Y0013642D01*
X0009473Y0013773D01*
X0009389Y0013906D01*
X0009307Y0014041D01*
X0009229Y0014178D01*
X0009155Y0014317D01*
X0009084Y0014458D01*
X0009016Y0014600D01*
X0008953Y0014745D01*
X0008892Y0014890D01*
X0008836Y0015038D01*
X0008783Y0015186D01*
X0008734Y0015336D01*
X0008689Y0015487D01*
X0008648Y0015640D01*
X0008610Y0015793D01*
X0008577Y0015947D01*
X0008547Y0016102D01*
X0008521Y0016257D01*
X0008500Y0016414D01*
X0008482Y0016570D01*
X0008468Y0016727D01*
X0008458Y0016885D01*
X0008452Y0017042D01*
X0008450Y0017200D01*
X0158450Y0042200D02*
X0158452Y0042358D01*
X0158458Y0042515D01*
X0158468Y0042673D01*
X0158482Y0042830D01*
X0158500Y0042986D01*
X0158521Y0043143D01*
X0158547Y0043298D01*
X0158577Y0043453D01*
X0158610Y0043607D01*
X0158648Y0043760D01*
X0158689Y0043913D01*
X0158734Y0044064D01*
X0158783Y0044214D01*
X0158836Y0044362D01*
X0158892Y0044510D01*
X0158953Y0044655D01*
X0159016Y0044800D01*
X0159084Y0044942D01*
X0159155Y0045083D01*
X0159229Y0045222D01*
X0159307Y0045359D01*
X0159389Y0045494D01*
X0159473Y0045627D01*
X0159562Y0045758D01*
X0159653Y0045886D01*
X0159748Y0046013D01*
X0159845Y0046136D01*
X0159946Y0046258D01*
X0160050Y0046376D01*
X0160157Y0046492D01*
X0160267Y0046605D01*
X0160379Y0046716D01*
X0160495Y0046823D01*
X0160613Y0046928D01*
X0160733Y0047030D01*
X0160856Y0047128D01*
X0160982Y0047224D01*
X0161110Y0047316D01*
X0161240Y0047405D01*
X0161372Y0047491D01*
X0161507Y0047573D01*
X0161644Y0047652D01*
X0161782Y0047727D01*
X0161922Y0047799D01*
X0162065Y0047867D01*
X0162208Y0047932D01*
X0162354Y0047993D01*
X0162501Y0048050D01*
X0162649Y0048104D01*
X0162799Y0048154D01*
X0162949Y0048200D01*
X0163101Y0048242D01*
X0163254Y0048281D01*
X0163408Y0048315D01*
X0163563Y0048346D01*
X0163718Y0048372D01*
X0163874Y0048395D01*
X0164031Y0048414D01*
X0164188Y0048429D01*
X0164345Y0048440D01*
X0164503Y0048447D01*
X0164661Y0048450D01*
X0164818Y0048449D01*
X0164976Y0048444D01*
X0165133Y0048435D01*
X0165291Y0048422D01*
X0165447Y0048405D01*
X0165604Y0048384D01*
X0165759Y0048360D01*
X0165914Y0048331D01*
X0166069Y0048298D01*
X0166222Y0048262D01*
X0166375Y0048221D01*
X0166526Y0048177D01*
X0166676Y0048129D01*
X0166825Y0048078D01*
X0166973Y0048022D01*
X0167119Y0047963D01*
X0167264Y0047900D01*
X0167407Y0047833D01*
X0167548Y0047763D01*
X0167687Y0047690D01*
X0167825Y0047613D01*
X0167961Y0047532D01*
X0168094Y0047448D01*
X0168225Y0047361D01*
X0168354Y0047270D01*
X0168481Y0047176D01*
X0168606Y0047079D01*
X0168727Y0046979D01*
X0168847Y0046876D01*
X0168963Y0046770D01*
X0169077Y0046661D01*
X0169189Y0046549D01*
X0169297Y0046435D01*
X0169402Y0046317D01*
X0169505Y0046197D01*
X0169604Y0046075D01*
X0169700Y0045950D01*
X0169793Y0045822D01*
X0169883Y0045693D01*
X0169969Y0045561D01*
X0170053Y0045427D01*
X0170132Y0045291D01*
X0170209Y0045153D01*
X0170281Y0045013D01*
X0170350Y0044871D01*
X0170416Y0044728D01*
X0170478Y0044583D01*
X0170536Y0044436D01*
X0170591Y0044288D01*
X0170642Y0044139D01*
X0170689Y0043988D01*
X0170732Y0043837D01*
X0170771Y0043684D01*
X0170807Y0043530D01*
X0170838Y0043376D01*
X0170866Y0043221D01*
X0170890Y0043065D01*
X0170910Y0042908D01*
X0170926Y0042751D01*
X0170938Y0042594D01*
X0170946Y0042437D01*
X0170950Y0042279D01*
X0170950Y0042121D01*
X0170946Y0041963D01*
X0170938Y0041806D01*
X0170926Y0041649D01*
X0170910Y0041492D01*
X0170890Y0041335D01*
X0170866Y0041179D01*
X0170838Y0041024D01*
X0170807Y0040870D01*
X0170771Y0040716D01*
X0170732Y0040563D01*
X0170689Y0040412D01*
X0170642Y0040261D01*
X0170591Y0040112D01*
X0170536Y0039964D01*
X0170478Y0039817D01*
X0170416Y0039672D01*
X0170350Y0039529D01*
X0170281Y0039387D01*
X0170209Y0039247D01*
X0170132Y0039109D01*
X0170053Y0038973D01*
X0169969Y0038839D01*
X0169883Y0038707D01*
X0169793Y0038578D01*
X0169700Y0038450D01*
X0169604Y0038325D01*
X0169505Y0038203D01*
X0169402Y0038083D01*
X0169297Y0037965D01*
X0169189Y0037851D01*
X0169077Y0037739D01*
X0168963Y0037630D01*
X0168847Y0037524D01*
X0168727Y0037421D01*
X0168606Y0037321D01*
X0168481Y0037224D01*
X0168354Y0037130D01*
X0168225Y0037039D01*
X0168094Y0036952D01*
X0167961Y0036868D01*
X0167825Y0036787D01*
X0167687Y0036710D01*
X0167548Y0036637D01*
X0167407Y0036567D01*
X0167264Y0036500D01*
X0167119Y0036437D01*
X0166973Y0036378D01*
X0166825Y0036322D01*
X0166676Y0036271D01*
X0166526Y0036223D01*
X0166375Y0036179D01*
X0166222Y0036138D01*
X0166069Y0036102D01*
X0165914Y0036069D01*
X0165759Y0036040D01*
X0165604Y0036016D01*
X0165447Y0035995D01*
X0165291Y0035978D01*
X0165133Y0035965D01*
X0164976Y0035956D01*
X0164818Y0035951D01*
X0164661Y0035950D01*
X0164503Y0035953D01*
X0164345Y0035960D01*
X0164188Y0035971D01*
X0164031Y0035986D01*
X0163874Y0036005D01*
X0163718Y0036028D01*
X0163563Y0036054D01*
X0163408Y0036085D01*
X0163254Y0036119D01*
X0163101Y0036158D01*
X0162949Y0036200D01*
X0162799Y0036246D01*
X0162649Y0036296D01*
X0162501Y0036350D01*
X0162354Y0036407D01*
X0162208Y0036468D01*
X0162065Y0036533D01*
X0161922Y0036601D01*
X0161782Y0036673D01*
X0161644Y0036748D01*
X0161507Y0036827D01*
X0161372Y0036909D01*
X0161240Y0036995D01*
X0161110Y0037084D01*
X0160982Y0037176D01*
X0160856Y0037272D01*
X0160733Y0037370D01*
X0160613Y0037472D01*
X0160495Y0037577D01*
X0160379Y0037684D01*
X0160267Y0037795D01*
X0160157Y0037908D01*
X0160050Y0038024D01*
X0159946Y0038142D01*
X0159845Y0038264D01*
X0159748Y0038387D01*
X0159653Y0038514D01*
X0159562Y0038642D01*
X0159473Y0038773D01*
X0159389Y0038906D01*
X0159307Y0039041D01*
X0159229Y0039178D01*
X0159155Y0039317D01*
X0159084Y0039458D01*
X0159016Y0039600D01*
X0158953Y0039745D01*
X0158892Y0039890D01*
X0158836Y0040038D01*
X0158783Y0040186D01*
X0158734Y0040336D01*
X0158689Y0040487D01*
X0158648Y0040640D01*
X0158610Y0040793D01*
X0158577Y0040947D01*
X0158547Y0041102D01*
X0158521Y0041257D01*
X0158500Y0041414D01*
X0158482Y0041570D01*
X0158468Y0041727D01*
X0158458Y0041885D01*
X0158452Y0042042D01*
X0158450Y0042200D01*
X0158450Y0092200D02*
X0158452Y0092358D01*
X0158458Y0092515D01*
X0158468Y0092673D01*
X0158482Y0092830D01*
X0158500Y0092986D01*
X0158521Y0093143D01*
X0158547Y0093298D01*
X0158577Y0093453D01*
X0158610Y0093607D01*
X0158648Y0093760D01*
X0158689Y0093913D01*
X0158734Y0094064D01*
X0158783Y0094214D01*
X0158836Y0094362D01*
X0158892Y0094510D01*
X0158953Y0094655D01*
X0159016Y0094800D01*
X0159084Y0094942D01*
X0159155Y0095083D01*
X0159229Y0095222D01*
X0159307Y0095359D01*
X0159389Y0095494D01*
X0159473Y0095627D01*
X0159562Y0095758D01*
X0159653Y0095886D01*
X0159748Y0096013D01*
X0159845Y0096136D01*
X0159946Y0096258D01*
X0160050Y0096376D01*
X0160157Y0096492D01*
X0160267Y0096605D01*
X0160379Y0096716D01*
X0160495Y0096823D01*
X0160613Y0096928D01*
X0160733Y0097030D01*
X0160856Y0097128D01*
X0160982Y0097224D01*
X0161110Y0097316D01*
X0161240Y0097405D01*
X0161372Y0097491D01*
X0161507Y0097573D01*
X0161644Y0097652D01*
X0161782Y0097727D01*
X0161922Y0097799D01*
X0162065Y0097867D01*
X0162208Y0097932D01*
X0162354Y0097993D01*
X0162501Y0098050D01*
X0162649Y0098104D01*
X0162799Y0098154D01*
X0162949Y0098200D01*
X0163101Y0098242D01*
X0163254Y0098281D01*
X0163408Y0098315D01*
X0163563Y0098346D01*
X0163718Y0098372D01*
X0163874Y0098395D01*
X0164031Y0098414D01*
X0164188Y0098429D01*
X0164345Y0098440D01*
X0164503Y0098447D01*
X0164661Y0098450D01*
X0164818Y0098449D01*
X0164976Y0098444D01*
X0165133Y0098435D01*
X0165291Y0098422D01*
X0165447Y0098405D01*
X0165604Y0098384D01*
X0165759Y0098360D01*
X0165914Y0098331D01*
X0166069Y0098298D01*
X0166222Y0098262D01*
X0166375Y0098221D01*
X0166526Y0098177D01*
X0166676Y0098129D01*
X0166825Y0098078D01*
X0166973Y0098022D01*
X0167119Y0097963D01*
X0167264Y0097900D01*
X0167407Y0097833D01*
X0167548Y0097763D01*
X0167687Y0097690D01*
X0167825Y0097613D01*
X0167961Y0097532D01*
X0168094Y0097448D01*
X0168225Y0097361D01*
X0168354Y0097270D01*
X0168481Y0097176D01*
X0168606Y0097079D01*
X0168727Y0096979D01*
X0168847Y0096876D01*
X0168963Y0096770D01*
X0169077Y0096661D01*
X0169189Y0096549D01*
X0169297Y0096435D01*
X0169402Y0096317D01*
X0169505Y0096197D01*
X0169604Y0096075D01*
X0169700Y0095950D01*
X0169793Y0095822D01*
X0169883Y0095693D01*
X0169969Y0095561D01*
X0170053Y0095427D01*
X0170132Y0095291D01*
X0170209Y0095153D01*
X0170281Y0095013D01*
X0170350Y0094871D01*
X0170416Y0094728D01*
X0170478Y0094583D01*
X0170536Y0094436D01*
X0170591Y0094288D01*
X0170642Y0094139D01*
X0170689Y0093988D01*
X0170732Y0093837D01*
X0170771Y0093684D01*
X0170807Y0093530D01*
X0170838Y0093376D01*
X0170866Y0093221D01*
X0170890Y0093065D01*
X0170910Y0092908D01*
X0170926Y0092751D01*
X0170938Y0092594D01*
X0170946Y0092437D01*
X0170950Y0092279D01*
X0170950Y0092121D01*
X0170946Y0091963D01*
X0170938Y0091806D01*
X0170926Y0091649D01*
X0170910Y0091492D01*
X0170890Y0091335D01*
X0170866Y0091179D01*
X0170838Y0091024D01*
X0170807Y0090870D01*
X0170771Y0090716D01*
X0170732Y0090563D01*
X0170689Y0090412D01*
X0170642Y0090261D01*
X0170591Y0090112D01*
X0170536Y0089964D01*
X0170478Y0089817D01*
X0170416Y0089672D01*
X0170350Y0089529D01*
X0170281Y0089387D01*
X0170209Y0089247D01*
X0170132Y0089109D01*
X0170053Y0088973D01*
X0169969Y0088839D01*
X0169883Y0088707D01*
X0169793Y0088578D01*
X0169700Y0088450D01*
X0169604Y0088325D01*
X0169505Y0088203D01*
X0169402Y0088083D01*
X0169297Y0087965D01*
X0169189Y0087851D01*
X0169077Y0087739D01*
X0168963Y0087630D01*
X0168847Y0087524D01*
X0168727Y0087421D01*
X0168606Y0087321D01*
X0168481Y0087224D01*
X0168354Y0087130D01*
X0168225Y0087039D01*
X0168094Y0086952D01*
X0167961Y0086868D01*
X0167825Y0086787D01*
X0167687Y0086710D01*
X0167548Y0086637D01*
X0167407Y0086567D01*
X0167264Y0086500D01*
X0167119Y0086437D01*
X0166973Y0086378D01*
X0166825Y0086322D01*
X0166676Y0086271D01*
X0166526Y0086223D01*
X0166375Y0086179D01*
X0166222Y0086138D01*
X0166069Y0086102D01*
X0165914Y0086069D01*
X0165759Y0086040D01*
X0165604Y0086016D01*
X0165447Y0085995D01*
X0165291Y0085978D01*
X0165133Y0085965D01*
X0164976Y0085956D01*
X0164818Y0085951D01*
X0164661Y0085950D01*
X0164503Y0085953D01*
X0164345Y0085960D01*
X0164188Y0085971D01*
X0164031Y0085986D01*
X0163874Y0086005D01*
X0163718Y0086028D01*
X0163563Y0086054D01*
X0163408Y0086085D01*
X0163254Y0086119D01*
X0163101Y0086158D01*
X0162949Y0086200D01*
X0162799Y0086246D01*
X0162649Y0086296D01*
X0162501Y0086350D01*
X0162354Y0086407D01*
X0162208Y0086468D01*
X0162065Y0086533D01*
X0161922Y0086601D01*
X0161782Y0086673D01*
X0161644Y0086748D01*
X0161507Y0086827D01*
X0161372Y0086909D01*
X0161240Y0086995D01*
X0161110Y0087084D01*
X0160982Y0087176D01*
X0160856Y0087272D01*
X0160733Y0087370D01*
X0160613Y0087472D01*
X0160495Y0087577D01*
X0160379Y0087684D01*
X0160267Y0087795D01*
X0160157Y0087908D01*
X0160050Y0088024D01*
X0159946Y0088142D01*
X0159845Y0088264D01*
X0159748Y0088387D01*
X0159653Y0088514D01*
X0159562Y0088642D01*
X0159473Y0088773D01*
X0159389Y0088906D01*
X0159307Y0089041D01*
X0159229Y0089178D01*
X0159155Y0089317D01*
X0159084Y0089458D01*
X0159016Y0089600D01*
X0158953Y0089745D01*
X0158892Y0089890D01*
X0158836Y0090038D01*
X0158783Y0090186D01*
X0158734Y0090336D01*
X0158689Y0090487D01*
X0158648Y0090640D01*
X0158610Y0090793D01*
X0158577Y0090947D01*
X0158547Y0091102D01*
X0158521Y0091257D01*
X0158500Y0091414D01*
X0158482Y0091570D01*
X0158468Y0091727D01*
X0158458Y0091885D01*
X0158452Y0092042D01*
X0158450Y0092200D01*
X0158450Y0142200D02*
X0158452Y0142358D01*
X0158458Y0142515D01*
X0158468Y0142673D01*
X0158482Y0142830D01*
X0158500Y0142986D01*
X0158521Y0143143D01*
X0158547Y0143298D01*
X0158577Y0143453D01*
X0158610Y0143607D01*
X0158648Y0143760D01*
X0158689Y0143913D01*
X0158734Y0144064D01*
X0158783Y0144214D01*
X0158836Y0144362D01*
X0158892Y0144510D01*
X0158953Y0144655D01*
X0159016Y0144800D01*
X0159084Y0144942D01*
X0159155Y0145083D01*
X0159229Y0145222D01*
X0159307Y0145359D01*
X0159389Y0145494D01*
X0159473Y0145627D01*
X0159562Y0145758D01*
X0159653Y0145886D01*
X0159748Y0146013D01*
X0159845Y0146136D01*
X0159946Y0146258D01*
X0160050Y0146376D01*
X0160157Y0146492D01*
X0160267Y0146605D01*
X0160379Y0146716D01*
X0160495Y0146823D01*
X0160613Y0146928D01*
X0160733Y0147030D01*
X0160856Y0147128D01*
X0160982Y0147224D01*
X0161110Y0147316D01*
X0161240Y0147405D01*
X0161372Y0147491D01*
X0161507Y0147573D01*
X0161644Y0147652D01*
X0161782Y0147727D01*
X0161922Y0147799D01*
X0162065Y0147867D01*
X0162208Y0147932D01*
X0162354Y0147993D01*
X0162501Y0148050D01*
X0162649Y0148104D01*
X0162799Y0148154D01*
X0162949Y0148200D01*
X0163101Y0148242D01*
X0163254Y0148281D01*
X0163408Y0148315D01*
X0163563Y0148346D01*
X0163718Y0148372D01*
X0163874Y0148395D01*
X0164031Y0148414D01*
X0164188Y0148429D01*
X0164345Y0148440D01*
X0164503Y0148447D01*
X0164661Y0148450D01*
X0164818Y0148449D01*
X0164976Y0148444D01*
X0165133Y0148435D01*
X0165291Y0148422D01*
X0165447Y0148405D01*
X0165604Y0148384D01*
X0165759Y0148360D01*
X0165914Y0148331D01*
X0166069Y0148298D01*
X0166222Y0148262D01*
X0166375Y0148221D01*
X0166526Y0148177D01*
X0166676Y0148129D01*
X0166825Y0148078D01*
X0166973Y0148022D01*
X0167119Y0147963D01*
X0167264Y0147900D01*
X0167407Y0147833D01*
X0167548Y0147763D01*
X0167687Y0147690D01*
X0167825Y0147613D01*
X0167961Y0147532D01*
X0168094Y0147448D01*
X0168225Y0147361D01*
X0168354Y0147270D01*
X0168481Y0147176D01*
X0168606Y0147079D01*
X0168727Y0146979D01*
X0168847Y0146876D01*
X0168963Y0146770D01*
X0169077Y0146661D01*
X0169189Y0146549D01*
X0169297Y0146435D01*
X0169402Y0146317D01*
X0169505Y0146197D01*
X0169604Y0146075D01*
X0169700Y0145950D01*
X0169793Y0145822D01*
X0169883Y0145693D01*
X0169969Y0145561D01*
X0170053Y0145427D01*
X0170132Y0145291D01*
X0170209Y0145153D01*
X0170281Y0145013D01*
X0170350Y0144871D01*
X0170416Y0144728D01*
X0170478Y0144583D01*
X0170536Y0144436D01*
X0170591Y0144288D01*
X0170642Y0144139D01*
X0170689Y0143988D01*
X0170732Y0143837D01*
X0170771Y0143684D01*
X0170807Y0143530D01*
X0170838Y0143376D01*
X0170866Y0143221D01*
X0170890Y0143065D01*
X0170910Y0142908D01*
X0170926Y0142751D01*
X0170938Y0142594D01*
X0170946Y0142437D01*
X0170950Y0142279D01*
X0170950Y0142121D01*
X0170946Y0141963D01*
X0170938Y0141806D01*
X0170926Y0141649D01*
X0170910Y0141492D01*
X0170890Y0141335D01*
X0170866Y0141179D01*
X0170838Y0141024D01*
X0170807Y0140870D01*
X0170771Y0140716D01*
X0170732Y0140563D01*
X0170689Y0140412D01*
X0170642Y0140261D01*
X0170591Y0140112D01*
X0170536Y0139964D01*
X0170478Y0139817D01*
X0170416Y0139672D01*
X0170350Y0139529D01*
X0170281Y0139387D01*
X0170209Y0139247D01*
X0170132Y0139109D01*
X0170053Y0138973D01*
X0169969Y0138839D01*
X0169883Y0138707D01*
X0169793Y0138578D01*
X0169700Y0138450D01*
X0169604Y0138325D01*
X0169505Y0138203D01*
X0169402Y0138083D01*
X0169297Y0137965D01*
X0169189Y0137851D01*
X0169077Y0137739D01*
X0168963Y0137630D01*
X0168847Y0137524D01*
X0168727Y0137421D01*
X0168606Y0137321D01*
X0168481Y0137224D01*
X0168354Y0137130D01*
X0168225Y0137039D01*
X0168094Y0136952D01*
X0167961Y0136868D01*
X0167825Y0136787D01*
X0167687Y0136710D01*
X0167548Y0136637D01*
X0167407Y0136567D01*
X0167264Y0136500D01*
X0167119Y0136437D01*
X0166973Y0136378D01*
X0166825Y0136322D01*
X0166676Y0136271D01*
X0166526Y0136223D01*
X0166375Y0136179D01*
X0166222Y0136138D01*
X0166069Y0136102D01*
X0165914Y0136069D01*
X0165759Y0136040D01*
X0165604Y0136016D01*
X0165447Y0135995D01*
X0165291Y0135978D01*
X0165133Y0135965D01*
X0164976Y0135956D01*
X0164818Y0135951D01*
X0164661Y0135950D01*
X0164503Y0135953D01*
X0164345Y0135960D01*
X0164188Y0135971D01*
X0164031Y0135986D01*
X0163874Y0136005D01*
X0163718Y0136028D01*
X0163563Y0136054D01*
X0163408Y0136085D01*
X0163254Y0136119D01*
X0163101Y0136158D01*
X0162949Y0136200D01*
X0162799Y0136246D01*
X0162649Y0136296D01*
X0162501Y0136350D01*
X0162354Y0136407D01*
X0162208Y0136468D01*
X0162065Y0136533D01*
X0161922Y0136601D01*
X0161782Y0136673D01*
X0161644Y0136748D01*
X0161507Y0136827D01*
X0161372Y0136909D01*
X0161240Y0136995D01*
X0161110Y0137084D01*
X0160982Y0137176D01*
X0160856Y0137272D01*
X0160733Y0137370D01*
X0160613Y0137472D01*
X0160495Y0137577D01*
X0160379Y0137684D01*
X0160267Y0137795D01*
X0160157Y0137908D01*
X0160050Y0138024D01*
X0159946Y0138142D01*
X0159845Y0138264D01*
X0159748Y0138387D01*
X0159653Y0138514D01*
X0159562Y0138642D01*
X0159473Y0138773D01*
X0159389Y0138906D01*
X0159307Y0139041D01*
X0159229Y0139178D01*
X0159155Y0139317D01*
X0159084Y0139458D01*
X0159016Y0139600D01*
X0158953Y0139745D01*
X0158892Y0139890D01*
X0158836Y0140038D01*
X0158783Y0140186D01*
X0158734Y0140336D01*
X0158689Y0140487D01*
X0158648Y0140640D01*
X0158610Y0140793D01*
X0158577Y0140947D01*
X0158547Y0141102D01*
X0158521Y0141257D01*
X0158500Y0141414D01*
X0158482Y0141570D01*
X0158468Y0141727D01*
X0158458Y0141885D01*
X0158452Y0142042D01*
X0158450Y0142200D01*
X0158450Y0192200D02*
X0158452Y0192358D01*
X0158458Y0192515D01*
X0158468Y0192673D01*
X0158482Y0192830D01*
X0158500Y0192986D01*
X0158521Y0193143D01*
X0158547Y0193298D01*
X0158577Y0193453D01*
X0158610Y0193607D01*
X0158648Y0193760D01*
X0158689Y0193913D01*
X0158734Y0194064D01*
X0158783Y0194214D01*
X0158836Y0194362D01*
X0158892Y0194510D01*
X0158953Y0194655D01*
X0159016Y0194800D01*
X0159084Y0194942D01*
X0159155Y0195083D01*
X0159229Y0195222D01*
X0159307Y0195359D01*
X0159389Y0195494D01*
X0159473Y0195627D01*
X0159562Y0195758D01*
X0159653Y0195886D01*
X0159748Y0196013D01*
X0159845Y0196136D01*
X0159946Y0196258D01*
X0160050Y0196376D01*
X0160157Y0196492D01*
X0160267Y0196605D01*
X0160379Y0196716D01*
X0160495Y0196823D01*
X0160613Y0196928D01*
X0160733Y0197030D01*
X0160856Y0197128D01*
X0160982Y0197224D01*
X0161110Y0197316D01*
X0161240Y0197405D01*
X0161372Y0197491D01*
X0161507Y0197573D01*
X0161644Y0197652D01*
X0161782Y0197727D01*
X0161922Y0197799D01*
X0162065Y0197867D01*
X0162208Y0197932D01*
X0162354Y0197993D01*
X0162501Y0198050D01*
X0162649Y0198104D01*
X0162799Y0198154D01*
X0162949Y0198200D01*
X0163101Y0198242D01*
X0163254Y0198281D01*
X0163408Y0198315D01*
X0163563Y0198346D01*
X0163718Y0198372D01*
X0163874Y0198395D01*
X0164031Y0198414D01*
X0164188Y0198429D01*
X0164345Y0198440D01*
X0164503Y0198447D01*
X0164661Y0198450D01*
X0164818Y0198449D01*
X0164976Y0198444D01*
X0165133Y0198435D01*
X0165291Y0198422D01*
X0165447Y0198405D01*
X0165604Y0198384D01*
X0165759Y0198360D01*
X0165914Y0198331D01*
X0166069Y0198298D01*
X0166222Y0198262D01*
X0166375Y0198221D01*
X0166526Y0198177D01*
X0166676Y0198129D01*
X0166825Y0198078D01*
X0166973Y0198022D01*
X0167119Y0197963D01*
X0167264Y0197900D01*
X0167407Y0197833D01*
X0167548Y0197763D01*
X0167687Y0197690D01*
X0167825Y0197613D01*
X0167961Y0197532D01*
X0168094Y0197448D01*
X0168225Y0197361D01*
X0168354Y0197270D01*
X0168481Y0197176D01*
X0168606Y0197079D01*
X0168727Y0196979D01*
X0168847Y0196876D01*
X0168963Y0196770D01*
X0169077Y0196661D01*
X0169189Y0196549D01*
X0169297Y0196435D01*
X0169402Y0196317D01*
X0169505Y0196197D01*
X0169604Y0196075D01*
X0169700Y0195950D01*
X0169793Y0195822D01*
X0169883Y0195693D01*
X0169969Y0195561D01*
X0170053Y0195427D01*
X0170132Y0195291D01*
X0170209Y0195153D01*
X0170281Y0195013D01*
X0170350Y0194871D01*
X0170416Y0194728D01*
X0170478Y0194583D01*
X0170536Y0194436D01*
X0170591Y0194288D01*
X0170642Y0194139D01*
X0170689Y0193988D01*
X0170732Y0193837D01*
X0170771Y0193684D01*
X0170807Y0193530D01*
X0170838Y0193376D01*
X0170866Y0193221D01*
X0170890Y0193065D01*
X0170910Y0192908D01*
X0170926Y0192751D01*
X0170938Y0192594D01*
X0170946Y0192437D01*
X0170950Y0192279D01*
X0170950Y0192121D01*
X0170946Y0191963D01*
X0170938Y0191806D01*
X0170926Y0191649D01*
X0170910Y0191492D01*
X0170890Y0191335D01*
X0170866Y0191179D01*
X0170838Y0191024D01*
X0170807Y0190870D01*
X0170771Y0190716D01*
X0170732Y0190563D01*
X0170689Y0190412D01*
X0170642Y0190261D01*
X0170591Y0190112D01*
X0170536Y0189964D01*
X0170478Y0189817D01*
X0170416Y0189672D01*
X0170350Y0189529D01*
X0170281Y0189387D01*
X0170209Y0189247D01*
X0170132Y0189109D01*
X0170053Y0188973D01*
X0169969Y0188839D01*
X0169883Y0188707D01*
X0169793Y0188578D01*
X0169700Y0188450D01*
X0169604Y0188325D01*
X0169505Y0188203D01*
X0169402Y0188083D01*
X0169297Y0187965D01*
X0169189Y0187851D01*
X0169077Y0187739D01*
X0168963Y0187630D01*
X0168847Y0187524D01*
X0168727Y0187421D01*
X0168606Y0187321D01*
X0168481Y0187224D01*
X0168354Y0187130D01*
X0168225Y0187039D01*
X0168094Y0186952D01*
X0167961Y0186868D01*
X0167825Y0186787D01*
X0167687Y0186710D01*
X0167548Y0186637D01*
X0167407Y0186567D01*
X0167264Y0186500D01*
X0167119Y0186437D01*
X0166973Y0186378D01*
X0166825Y0186322D01*
X0166676Y0186271D01*
X0166526Y0186223D01*
X0166375Y0186179D01*
X0166222Y0186138D01*
X0166069Y0186102D01*
X0165914Y0186069D01*
X0165759Y0186040D01*
X0165604Y0186016D01*
X0165447Y0185995D01*
X0165291Y0185978D01*
X0165133Y0185965D01*
X0164976Y0185956D01*
X0164818Y0185951D01*
X0164661Y0185950D01*
X0164503Y0185953D01*
X0164345Y0185960D01*
X0164188Y0185971D01*
X0164031Y0185986D01*
X0163874Y0186005D01*
X0163718Y0186028D01*
X0163563Y0186054D01*
X0163408Y0186085D01*
X0163254Y0186119D01*
X0163101Y0186158D01*
X0162949Y0186200D01*
X0162799Y0186246D01*
X0162649Y0186296D01*
X0162501Y0186350D01*
X0162354Y0186407D01*
X0162208Y0186468D01*
X0162065Y0186533D01*
X0161922Y0186601D01*
X0161782Y0186673D01*
X0161644Y0186748D01*
X0161507Y0186827D01*
X0161372Y0186909D01*
X0161240Y0186995D01*
X0161110Y0187084D01*
X0160982Y0187176D01*
X0160856Y0187272D01*
X0160733Y0187370D01*
X0160613Y0187472D01*
X0160495Y0187577D01*
X0160379Y0187684D01*
X0160267Y0187795D01*
X0160157Y0187908D01*
X0160050Y0188024D01*
X0159946Y0188142D01*
X0159845Y0188264D01*
X0159748Y0188387D01*
X0159653Y0188514D01*
X0159562Y0188642D01*
X0159473Y0188773D01*
X0159389Y0188906D01*
X0159307Y0189041D01*
X0159229Y0189178D01*
X0159155Y0189317D01*
X0159084Y0189458D01*
X0159016Y0189600D01*
X0158953Y0189745D01*
X0158892Y0189890D01*
X0158836Y0190038D01*
X0158783Y0190186D01*
X0158734Y0190336D01*
X0158689Y0190487D01*
X0158648Y0190640D01*
X0158610Y0190793D01*
X0158577Y0190947D01*
X0158547Y0191102D01*
X0158521Y0191257D01*
X0158500Y0191414D01*
X0158482Y0191570D01*
X0158468Y0191727D01*
X0158458Y0191885D01*
X0158452Y0192042D01*
X0158450Y0192200D01*
X0158450Y0242200D02*
X0158452Y0242358D01*
X0158458Y0242515D01*
X0158468Y0242673D01*
X0158482Y0242830D01*
X0158500Y0242986D01*
X0158521Y0243143D01*
X0158547Y0243298D01*
X0158577Y0243453D01*
X0158610Y0243607D01*
X0158648Y0243760D01*
X0158689Y0243913D01*
X0158734Y0244064D01*
X0158783Y0244214D01*
X0158836Y0244362D01*
X0158892Y0244510D01*
X0158953Y0244655D01*
X0159016Y0244800D01*
X0159084Y0244942D01*
X0159155Y0245083D01*
X0159229Y0245222D01*
X0159307Y0245359D01*
X0159389Y0245494D01*
X0159473Y0245627D01*
X0159562Y0245758D01*
X0159653Y0245886D01*
X0159748Y0246013D01*
X0159845Y0246136D01*
X0159946Y0246258D01*
X0160050Y0246376D01*
X0160157Y0246492D01*
X0160267Y0246605D01*
X0160379Y0246716D01*
X0160495Y0246823D01*
X0160613Y0246928D01*
X0160733Y0247030D01*
X0160856Y0247128D01*
X0160982Y0247224D01*
X0161110Y0247316D01*
X0161240Y0247405D01*
X0161372Y0247491D01*
X0161507Y0247573D01*
X0161644Y0247652D01*
X0161782Y0247727D01*
X0161922Y0247799D01*
X0162065Y0247867D01*
X0162208Y0247932D01*
X0162354Y0247993D01*
X0162501Y0248050D01*
X0162649Y0248104D01*
X0162799Y0248154D01*
X0162949Y0248200D01*
X0163101Y0248242D01*
X0163254Y0248281D01*
X0163408Y0248315D01*
X0163563Y0248346D01*
X0163718Y0248372D01*
X0163874Y0248395D01*
X0164031Y0248414D01*
X0164188Y0248429D01*
X0164345Y0248440D01*
X0164503Y0248447D01*
X0164661Y0248450D01*
X0164818Y0248449D01*
X0164976Y0248444D01*
X0165133Y0248435D01*
X0165291Y0248422D01*
X0165447Y0248405D01*
X0165604Y0248384D01*
X0165759Y0248360D01*
X0165914Y0248331D01*
X0166069Y0248298D01*
X0166222Y0248262D01*
X0166375Y0248221D01*
X0166526Y0248177D01*
X0166676Y0248129D01*
X0166825Y0248078D01*
X0166973Y0248022D01*
X0167119Y0247963D01*
X0167264Y0247900D01*
X0167407Y0247833D01*
X0167548Y0247763D01*
X0167687Y0247690D01*
X0167825Y0247613D01*
X0167961Y0247532D01*
X0168094Y0247448D01*
X0168225Y0247361D01*
X0168354Y0247270D01*
X0168481Y0247176D01*
X0168606Y0247079D01*
X0168727Y0246979D01*
X0168847Y0246876D01*
X0168963Y0246770D01*
X0169077Y0246661D01*
X0169189Y0246549D01*
X0169297Y0246435D01*
X0169402Y0246317D01*
X0169505Y0246197D01*
X0169604Y0246075D01*
X0169700Y0245950D01*
X0169793Y0245822D01*
X0169883Y0245693D01*
X0169969Y0245561D01*
X0170053Y0245427D01*
X0170132Y0245291D01*
X0170209Y0245153D01*
X0170281Y0245013D01*
X0170350Y0244871D01*
X0170416Y0244728D01*
X0170478Y0244583D01*
X0170536Y0244436D01*
X0170591Y0244288D01*
X0170642Y0244139D01*
X0170689Y0243988D01*
X0170732Y0243837D01*
X0170771Y0243684D01*
X0170807Y0243530D01*
X0170838Y0243376D01*
X0170866Y0243221D01*
X0170890Y0243065D01*
X0170910Y0242908D01*
X0170926Y0242751D01*
X0170938Y0242594D01*
X0170946Y0242437D01*
X0170950Y0242279D01*
X0170950Y0242121D01*
X0170946Y0241963D01*
X0170938Y0241806D01*
X0170926Y0241649D01*
X0170910Y0241492D01*
X0170890Y0241335D01*
X0170866Y0241179D01*
X0170838Y0241024D01*
X0170807Y0240870D01*
X0170771Y0240716D01*
X0170732Y0240563D01*
X0170689Y0240412D01*
X0170642Y0240261D01*
X0170591Y0240112D01*
X0170536Y0239964D01*
X0170478Y0239817D01*
X0170416Y0239672D01*
X0170350Y0239529D01*
X0170281Y0239387D01*
X0170209Y0239247D01*
X0170132Y0239109D01*
X0170053Y0238973D01*
X0169969Y0238839D01*
X0169883Y0238707D01*
X0169793Y0238578D01*
X0169700Y0238450D01*
X0169604Y0238325D01*
X0169505Y0238203D01*
X0169402Y0238083D01*
X0169297Y0237965D01*
X0169189Y0237851D01*
X0169077Y0237739D01*
X0168963Y0237630D01*
X0168847Y0237524D01*
X0168727Y0237421D01*
X0168606Y0237321D01*
X0168481Y0237224D01*
X0168354Y0237130D01*
X0168225Y0237039D01*
X0168094Y0236952D01*
X0167961Y0236868D01*
X0167825Y0236787D01*
X0167687Y0236710D01*
X0167548Y0236637D01*
X0167407Y0236567D01*
X0167264Y0236500D01*
X0167119Y0236437D01*
X0166973Y0236378D01*
X0166825Y0236322D01*
X0166676Y0236271D01*
X0166526Y0236223D01*
X0166375Y0236179D01*
X0166222Y0236138D01*
X0166069Y0236102D01*
X0165914Y0236069D01*
X0165759Y0236040D01*
X0165604Y0236016D01*
X0165447Y0235995D01*
X0165291Y0235978D01*
X0165133Y0235965D01*
X0164976Y0235956D01*
X0164818Y0235951D01*
X0164661Y0235950D01*
X0164503Y0235953D01*
X0164345Y0235960D01*
X0164188Y0235971D01*
X0164031Y0235986D01*
X0163874Y0236005D01*
X0163718Y0236028D01*
X0163563Y0236054D01*
X0163408Y0236085D01*
X0163254Y0236119D01*
X0163101Y0236158D01*
X0162949Y0236200D01*
X0162799Y0236246D01*
X0162649Y0236296D01*
X0162501Y0236350D01*
X0162354Y0236407D01*
X0162208Y0236468D01*
X0162065Y0236533D01*
X0161922Y0236601D01*
X0161782Y0236673D01*
X0161644Y0236748D01*
X0161507Y0236827D01*
X0161372Y0236909D01*
X0161240Y0236995D01*
X0161110Y0237084D01*
X0160982Y0237176D01*
X0160856Y0237272D01*
X0160733Y0237370D01*
X0160613Y0237472D01*
X0160495Y0237577D01*
X0160379Y0237684D01*
X0160267Y0237795D01*
X0160157Y0237908D01*
X0160050Y0238024D01*
X0159946Y0238142D01*
X0159845Y0238264D01*
X0159748Y0238387D01*
X0159653Y0238514D01*
X0159562Y0238642D01*
X0159473Y0238773D01*
X0159389Y0238906D01*
X0159307Y0239041D01*
X0159229Y0239178D01*
X0159155Y0239317D01*
X0159084Y0239458D01*
X0159016Y0239600D01*
X0158953Y0239745D01*
X0158892Y0239890D01*
X0158836Y0240038D01*
X0158783Y0240186D01*
X0158734Y0240336D01*
X0158689Y0240487D01*
X0158648Y0240640D01*
X0158610Y0240793D01*
X0158577Y0240947D01*
X0158547Y0241102D01*
X0158521Y0241257D01*
X0158500Y0241414D01*
X0158482Y0241570D01*
X0158468Y0241727D01*
X0158458Y0241885D01*
X0158452Y0242042D01*
X0158450Y0242200D01*
X0158450Y0292200D02*
X0158452Y0292358D01*
X0158458Y0292515D01*
X0158468Y0292673D01*
X0158482Y0292830D01*
X0158500Y0292986D01*
X0158521Y0293143D01*
X0158547Y0293298D01*
X0158577Y0293453D01*
X0158610Y0293607D01*
X0158648Y0293760D01*
X0158689Y0293913D01*
X0158734Y0294064D01*
X0158783Y0294214D01*
X0158836Y0294362D01*
X0158892Y0294510D01*
X0158953Y0294655D01*
X0159016Y0294800D01*
X0159084Y0294942D01*
X0159155Y0295083D01*
X0159229Y0295222D01*
X0159307Y0295359D01*
X0159389Y0295494D01*
X0159473Y0295627D01*
X0159562Y0295758D01*
X0159653Y0295886D01*
X0159748Y0296013D01*
X0159845Y0296136D01*
X0159946Y0296258D01*
X0160050Y0296376D01*
X0160157Y0296492D01*
X0160267Y0296605D01*
X0160379Y0296716D01*
X0160495Y0296823D01*
X0160613Y0296928D01*
X0160733Y0297030D01*
X0160856Y0297128D01*
X0160982Y0297224D01*
X0161110Y0297316D01*
X0161240Y0297405D01*
X0161372Y0297491D01*
X0161507Y0297573D01*
X0161644Y0297652D01*
X0161782Y0297727D01*
X0161922Y0297799D01*
X0162065Y0297867D01*
X0162208Y0297932D01*
X0162354Y0297993D01*
X0162501Y0298050D01*
X0162649Y0298104D01*
X0162799Y0298154D01*
X0162949Y0298200D01*
X0163101Y0298242D01*
X0163254Y0298281D01*
X0163408Y0298315D01*
X0163563Y0298346D01*
X0163718Y0298372D01*
X0163874Y0298395D01*
X0164031Y0298414D01*
X0164188Y0298429D01*
X0164345Y0298440D01*
X0164503Y0298447D01*
X0164661Y0298450D01*
X0164818Y0298449D01*
X0164976Y0298444D01*
X0165133Y0298435D01*
X0165291Y0298422D01*
X0165447Y0298405D01*
X0165604Y0298384D01*
X0165759Y0298360D01*
X0165914Y0298331D01*
X0166069Y0298298D01*
X0166222Y0298262D01*
X0166375Y0298221D01*
X0166526Y0298177D01*
X0166676Y0298129D01*
X0166825Y0298078D01*
X0166973Y0298022D01*
X0167119Y0297963D01*
X0167264Y0297900D01*
X0167407Y0297833D01*
X0167548Y0297763D01*
X0167687Y0297690D01*
X0167825Y0297613D01*
X0167961Y0297532D01*
X0168094Y0297448D01*
X0168225Y0297361D01*
X0168354Y0297270D01*
X0168481Y0297176D01*
X0168606Y0297079D01*
X0168727Y0296979D01*
X0168847Y0296876D01*
X0168963Y0296770D01*
X0169077Y0296661D01*
X0169189Y0296549D01*
X0169297Y0296435D01*
X0169402Y0296317D01*
X0169505Y0296197D01*
X0169604Y0296075D01*
X0169700Y0295950D01*
X0169793Y0295822D01*
X0169883Y0295693D01*
X0169969Y0295561D01*
X0170053Y0295427D01*
X0170132Y0295291D01*
X0170209Y0295153D01*
X0170281Y0295013D01*
X0170350Y0294871D01*
X0170416Y0294728D01*
X0170478Y0294583D01*
X0170536Y0294436D01*
X0170591Y0294288D01*
X0170642Y0294139D01*
X0170689Y0293988D01*
X0170732Y0293837D01*
X0170771Y0293684D01*
X0170807Y0293530D01*
X0170838Y0293376D01*
X0170866Y0293221D01*
X0170890Y0293065D01*
X0170910Y0292908D01*
X0170926Y0292751D01*
X0170938Y0292594D01*
X0170946Y0292437D01*
X0170950Y0292279D01*
X0170950Y0292121D01*
X0170946Y0291963D01*
X0170938Y0291806D01*
X0170926Y0291649D01*
X0170910Y0291492D01*
X0170890Y0291335D01*
X0170866Y0291179D01*
X0170838Y0291024D01*
X0170807Y0290870D01*
X0170771Y0290716D01*
X0170732Y0290563D01*
X0170689Y0290412D01*
X0170642Y0290261D01*
X0170591Y0290112D01*
X0170536Y0289964D01*
X0170478Y0289817D01*
X0170416Y0289672D01*
X0170350Y0289529D01*
X0170281Y0289387D01*
X0170209Y0289247D01*
X0170132Y0289109D01*
X0170053Y0288973D01*
X0169969Y0288839D01*
X0169883Y0288707D01*
X0169793Y0288578D01*
X0169700Y0288450D01*
X0169604Y0288325D01*
X0169505Y0288203D01*
X0169402Y0288083D01*
X0169297Y0287965D01*
X0169189Y0287851D01*
X0169077Y0287739D01*
X0168963Y0287630D01*
X0168847Y0287524D01*
X0168727Y0287421D01*
X0168606Y0287321D01*
X0168481Y0287224D01*
X0168354Y0287130D01*
X0168225Y0287039D01*
X0168094Y0286952D01*
X0167961Y0286868D01*
X0167825Y0286787D01*
X0167687Y0286710D01*
X0167548Y0286637D01*
X0167407Y0286567D01*
X0167264Y0286500D01*
X0167119Y0286437D01*
X0166973Y0286378D01*
X0166825Y0286322D01*
X0166676Y0286271D01*
X0166526Y0286223D01*
X0166375Y0286179D01*
X0166222Y0286138D01*
X0166069Y0286102D01*
X0165914Y0286069D01*
X0165759Y0286040D01*
X0165604Y0286016D01*
X0165447Y0285995D01*
X0165291Y0285978D01*
X0165133Y0285965D01*
X0164976Y0285956D01*
X0164818Y0285951D01*
X0164661Y0285950D01*
X0164503Y0285953D01*
X0164345Y0285960D01*
X0164188Y0285971D01*
X0164031Y0285986D01*
X0163874Y0286005D01*
X0163718Y0286028D01*
X0163563Y0286054D01*
X0163408Y0286085D01*
X0163254Y0286119D01*
X0163101Y0286158D01*
X0162949Y0286200D01*
X0162799Y0286246D01*
X0162649Y0286296D01*
X0162501Y0286350D01*
X0162354Y0286407D01*
X0162208Y0286468D01*
X0162065Y0286533D01*
X0161922Y0286601D01*
X0161782Y0286673D01*
X0161644Y0286748D01*
X0161507Y0286827D01*
X0161372Y0286909D01*
X0161240Y0286995D01*
X0161110Y0287084D01*
X0160982Y0287176D01*
X0160856Y0287272D01*
X0160733Y0287370D01*
X0160613Y0287472D01*
X0160495Y0287577D01*
X0160379Y0287684D01*
X0160267Y0287795D01*
X0160157Y0287908D01*
X0160050Y0288024D01*
X0159946Y0288142D01*
X0159845Y0288264D01*
X0159748Y0288387D01*
X0159653Y0288514D01*
X0159562Y0288642D01*
X0159473Y0288773D01*
X0159389Y0288906D01*
X0159307Y0289041D01*
X0159229Y0289178D01*
X0159155Y0289317D01*
X0159084Y0289458D01*
X0159016Y0289600D01*
X0158953Y0289745D01*
X0158892Y0289890D01*
X0158836Y0290038D01*
X0158783Y0290186D01*
X0158734Y0290336D01*
X0158689Y0290487D01*
X0158648Y0290640D01*
X0158610Y0290793D01*
X0158577Y0290947D01*
X0158547Y0291102D01*
X0158521Y0291257D01*
X0158500Y0291414D01*
X0158482Y0291570D01*
X0158468Y0291727D01*
X0158458Y0291885D01*
X0158452Y0292042D01*
X0158450Y0292200D01*
X0158450Y0342239D02*
X0158452Y0342397D01*
X0158458Y0342554D01*
X0158468Y0342712D01*
X0158482Y0342869D01*
X0158500Y0343025D01*
X0158521Y0343182D01*
X0158547Y0343337D01*
X0158577Y0343492D01*
X0158610Y0343646D01*
X0158648Y0343799D01*
X0158689Y0343952D01*
X0158734Y0344103D01*
X0158783Y0344253D01*
X0158836Y0344401D01*
X0158892Y0344549D01*
X0158953Y0344694D01*
X0159016Y0344839D01*
X0159084Y0344981D01*
X0159155Y0345122D01*
X0159229Y0345261D01*
X0159307Y0345398D01*
X0159389Y0345533D01*
X0159473Y0345666D01*
X0159562Y0345797D01*
X0159653Y0345925D01*
X0159748Y0346052D01*
X0159845Y0346175D01*
X0159946Y0346297D01*
X0160050Y0346415D01*
X0160157Y0346531D01*
X0160267Y0346644D01*
X0160379Y0346755D01*
X0160495Y0346862D01*
X0160613Y0346967D01*
X0160733Y0347069D01*
X0160856Y0347167D01*
X0160982Y0347263D01*
X0161110Y0347355D01*
X0161240Y0347444D01*
X0161372Y0347530D01*
X0161507Y0347612D01*
X0161644Y0347691D01*
X0161782Y0347766D01*
X0161922Y0347838D01*
X0162065Y0347906D01*
X0162208Y0347971D01*
X0162354Y0348032D01*
X0162501Y0348089D01*
X0162649Y0348143D01*
X0162799Y0348193D01*
X0162949Y0348239D01*
X0163101Y0348281D01*
X0163254Y0348320D01*
X0163408Y0348354D01*
X0163563Y0348385D01*
X0163718Y0348411D01*
X0163874Y0348434D01*
X0164031Y0348453D01*
X0164188Y0348468D01*
X0164345Y0348479D01*
X0164503Y0348486D01*
X0164661Y0348489D01*
X0164818Y0348488D01*
X0164976Y0348483D01*
X0165133Y0348474D01*
X0165291Y0348461D01*
X0165447Y0348444D01*
X0165604Y0348423D01*
X0165759Y0348399D01*
X0165914Y0348370D01*
X0166069Y0348337D01*
X0166222Y0348301D01*
X0166375Y0348260D01*
X0166526Y0348216D01*
X0166676Y0348168D01*
X0166825Y0348117D01*
X0166973Y0348061D01*
X0167119Y0348002D01*
X0167264Y0347939D01*
X0167407Y0347872D01*
X0167548Y0347802D01*
X0167687Y0347729D01*
X0167825Y0347652D01*
X0167961Y0347571D01*
X0168094Y0347487D01*
X0168225Y0347400D01*
X0168354Y0347309D01*
X0168481Y0347215D01*
X0168606Y0347118D01*
X0168727Y0347018D01*
X0168847Y0346915D01*
X0168963Y0346809D01*
X0169077Y0346700D01*
X0169189Y0346588D01*
X0169297Y0346474D01*
X0169402Y0346356D01*
X0169505Y0346236D01*
X0169604Y0346114D01*
X0169700Y0345989D01*
X0169793Y0345861D01*
X0169883Y0345732D01*
X0169969Y0345600D01*
X0170053Y0345466D01*
X0170132Y0345330D01*
X0170209Y0345192D01*
X0170281Y0345052D01*
X0170350Y0344910D01*
X0170416Y0344767D01*
X0170478Y0344622D01*
X0170536Y0344475D01*
X0170591Y0344327D01*
X0170642Y0344178D01*
X0170689Y0344027D01*
X0170732Y0343876D01*
X0170771Y0343723D01*
X0170807Y0343569D01*
X0170838Y0343415D01*
X0170866Y0343260D01*
X0170890Y0343104D01*
X0170910Y0342947D01*
X0170926Y0342790D01*
X0170938Y0342633D01*
X0170946Y0342476D01*
X0170950Y0342318D01*
X0170950Y0342160D01*
X0170946Y0342002D01*
X0170938Y0341845D01*
X0170926Y0341688D01*
X0170910Y0341531D01*
X0170890Y0341374D01*
X0170866Y0341218D01*
X0170838Y0341063D01*
X0170807Y0340909D01*
X0170771Y0340755D01*
X0170732Y0340602D01*
X0170689Y0340451D01*
X0170642Y0340300D01*
X0170591Y0340151D01*
X0170536Y0340003D01*
X0170478Y0339856D01*
X0170416Y0339711D01*
X0170350Y0339568D01*
X0170281Y0339426D01*
X0170209Y0339286D01*
X0170132Y0339148D01*
X0170053Y0339012D01*
X0169969Y0338878D01*
X0169883Y0338746D01*
X0169793Y0338617D01*
X0169700Y0338489D01*
X0169604Y0338364D01*
X0169505Y0338242D01*
X0169402Y0338122D01*
X0169297Y0338004D01*
X0169189Y0337890D01*
X0169077Y0337778D01*
X0168963Y0337669D01*
X0168847Y0337563D01*
X0168727Y0337460D01*
X0168606Y0337360D01*
X0168481Y0337263D01*
X0168354Y0337169D01*
X0168225Y0337078D01*
X0168094Y0336991D01*
X0167961Y0336907D01*
X0167825Y0336826D01*
X0167687Y0336749D01*
X0167548Y0336676D01*
X0167407Y0336606D01*
X0167264Y0336539D01*
X0167119Y0336476D01*
X0166973Y0336417D01*
X0166825Y0336361D01*
X0166676Y0336310D01*
X0166526Y0336262D01*
X0166375Y0336218D01*
X0166222Y0336177D01*
X0166069Y0336141D01*
X0165914Y0336108D01*
X0165759Y0336079D01*
X0165604Y0336055D01*
X0165447Y0336034D01*
X0165291Y0336017D01*
X0165133Y0336004D01*
X0164976Y0335995D01*
X0164818Y0335990D01*
X0164661Y0335989D01*
X0164503Y0335992D01*
X0164345Y0335999D01*
X0164188Y0336010D01*
X0164031Y0336025D01*
X0163874Y0336044D01*
X0163718Y0336067D01*
X0163563Y0336093D01*
X0163408Y0336124D01*
X0163254Y0336158D01*
X0163101Y0336197D01*
X0162949Y0336239D01*
X0162799Y0336285D01*
X0162649Y0336335D01*
X0162501Y0336389D01*
X0162354Y0336446D01*
X0162208Y0336507D01*
X0162065Y0336572D01*
X0161922Y0336640D01*
X0161782Y0336712D01*
X0161644Y0336787D01*
X0161507Y0336866D01*
X0161372Y0336948D01*
X0161240Y0337034D01*
X0161110Y0337123D01*
X0160982Y0337215D01*
X0160856Y0337311D01*
X0160733Y0337409D01*
X0160613Y0337511D01*
X0160495Y0337616D01*
X0160379Y0337723D01*
X0160267Y0337834D01*
X0160157Y0337947D01*
X0160050Y0338063D01*
X0159946Y0338181D01*
X0159845Y0338303D01*
X0159748Y0338426D01*
X0159653Y0338553D01*
X0159562Y0338681D01*
X0159473Y0338812D01*
X0159389Y0338945D01*
X0159307Y0339080D01*
X0159229Y0339217D01*
X0159155Y0339356D01*
X0159084Y0339497D01*
X0159016Y0339639D01*
X0158953Y0339784D01*
X0158892Y0339929D01*
X0158836Y0340077D01*
X0158783Y0340225D01*
X0158734Y0340375D01*
X0158689Y0340526D01*
X0158648Y0340679D01*
X0158610Y0340832D01*
X0158577Y0340986D01*
X0158547Y0341141D01*
X0158521Y0341296D01*
X0158500Y0341453D01*
X0158482Y0341609D01*
X0158468Y0341766D01*
X0158458Y0341924D01*
X0158452Y0342081D01*
X0158450Y0342239D01*
X0158450Y0392200D02*
X0158452Y0392358D01*
X0158458Y0392515D01*
X0158468Y0392673D01*
X0158482Y0392830D01*
X0158500Y0392986D01*
X0158521Y0393143D01*
X0158547Y0393298D01*
X0158577Y0393453D01*
X0158610Y0393607D01*
X0158648Y0393760D01*
X0158689Y0393913D01*
X0158734Y0394064D01*
X0158783Y0394214D01*
X0158836Y0394362D01*
X0158892Y0394510D01*
X0158953Y0394655D01*
X0159016Y0394800D01*
X0159084Y0394942D01*
X0159155Y0395083D01*
X0159229Y0395222D01*
X0159307Y0395359D01*
X0159389Y0395494D01*
X0159473Y0395627D01*
X0159562Y0395758D01*
X0159653Y0395886D01*
X0159748Y0396013D01*
X0159845Y0396136D01*
X0159946Y0396258D01*
X0160050Y0396376D01*
X0160157Y0396492D01*
X0160267Y0396605D01*
X0160379Y0396716D01*
X0160495Y0396823D01*
X0160613Y0396928D01*
X0160733Y0397030D01*
X0160856Y0397128D01*
X0160982Y0397224D01*
X0161110Y0397316D01*
X0161240Y0397405D01*
X0161372Y0397491D01*
X0161507Y0397573D01*
X0161644Y0397652D01*
X0161782Y0397727D01*
X0161922Y0397799D01*
X0162065Y0397867D01*
X0162208Y0397932D01*
X0162354Y0397993D01*
X0162501Y0398050D01*
X0162649Y0398104D01*
X0162799Y0398154D01*
X0162949Y0398200D01*
X0163101Y0398242D01*
X0163254Y0398281D01*
X0163408Y0398315D01*
X0163563Y0398346D01*
X0163718Y0398372D01*
X0163874Y0398395D01*
X0164031Y0398414D01*
X0164188Y0398429D01*
X0164345Y0398440D01*
X0164503Y0398447D01*
X0164661Y0398450D01*
X0164818Y0398449D01*
X0164976Y0398444D01*
X0165133Y0398435D01*
X0165291Y0398422D01*
X0165447Y0398405D01*
X0165604Y0398384D01*
X0165759Y0398360D01*
X0165914Y0398331D01*
X0166069Y0398298D01*
X0166222Y0398262D01*
X0166375Y0398221D01*
X0166526Y0398177D01*
X0166676Y0398129D01*
X0166825Y0398078D01*
X0166973Y0398022D01*
X0167119Y0397963D01*
X0167264Y0397900D01*
X0167407Y0397833D01*
X0167548Y0397763D01*
X0167687Y0397690D01*
X0167825Y0397613D01*
X0167961Y0397532D01*
X0168094Y0397448D01*
X0168225Y0397361D01*
X0168354Y0397270D01*
X0168481Y0397176D01*
X0168606Y0397079D01*
X0168727Y0396979D01*
X0168847Y0396876D01*
X0168963Y0396770D01*
X0169077Y0396661D01*
X0169189Y0396549D01*
X0169297Y0396435D01*
X0169402Y0396317D01*
X0169505Y0396197D01*
X0169604Y0396075D01*
X0169700Y0395950D01*
X0169793Y0395822D01*
X0169883Y0395693D01*
X0169969Y0395561D01*
X0170053Y0395427D01*
X0170132Y0395291D01*
X0170209Y0395153D01*
X0170281Y0395013D01*
X0170350Y0394871D01*
X0170416Y0394728D01*
X0170478Y0394583D01*
X0170536Y0394436D01*
X0170591Y0394288D01*
X0170642Y0394139D01*
X0170689Y0393988D01*
X0170732Y0393837D01*
X0170771Y0393684D01*
X0170807Y0393530D01*
X0170838Y0393376D01*
X0170866Y0393221D01*
X0170890Y0393065D01*
X0170910Y0392908D01*
X0170926Y0392751D01*
X0170938Y0392594D01*
X0170946Y0392437D01*
X0170950Y0392279D01*
X0170950Y0392121D01*
X0170946Y0391963D01*
X0170938Y0391806D01*
X0170926Y0391649D01*
X0170910Y0391492D01*
X0170890Y0391335D01*
X0170866Y0391179D01*
X0170838Y0391024D01*
X0170807Y0390870D01*
X0170771Y0390716D01*
X0170732Y0390563D01*
X0170689Y0390412D01*
X0170642Y0390261D01*
X0170591Y0390112D01*
X0170536Y0389964D01*
X0170478Y0389817D01*
X0170416Y0389672D01*
X0170350Y0389529D01*
X0170281Y0389387D01*
X0170209Y0389247D01*
X0170132Y0389109D01*
X0170053Y0388973D01*
X0169969Y0388839D01*
X0169883Y0388707D01*
X0169793Y0388578D01*
X0169700Y0388450D01*
X0169604Y0388325D01*
X0169505Y0388203D01*
X0169402Y0388083D01*
X0169297Y0387965D01*
X0169189Y0387851D01*
X0169077Y0387739D01*
X0168963Y0387630D01*
X0168847Y0387524D01*
X0168727Y0387421D01*
X0168606Y0387321D01*
X0168481Y0387224D01*
X0168354Y0387130D01*
X0168225Y0387039D01*
X0168094Y0386952D01*
X0167961Y0386868D01*
X0167825Y0386787D01*
X0167687Y0386710D01*
X0167548Y0386637D01*
X0167407Y0386567D01*
X0167264Y0386500D01*
X0167119Y0386437D01*
X0166973Y0386378D01*
X0166825Y0386322D01*
X0166676Y0386271D01*
X0166526Y0386223D01*
X0166375Y0386179D01*
X0166222Y0386138D01*
X0166069Y0386102D01*
X0165914Y0386069D01*
X0165759Y0386040D01*
X0165604Y0386016D01*
X0165447Y0385995D01*
X0165291Y0385978D01*
X0165133Y0385965D01*
X0164976Y0385956D01*
X0164818Y0385951D01*
X0164661Y0385950D01*
X0164503Y0385953D01*
X0164345Y0385960D01*
X0164188Y0385971D01*
X0164031Y0385986D01*
X0163874Y0386005D01*
X0163718Y0386028D01*
X0163563Y0386054D01*
X0163408Y0386085D01*
X0163254Y0386119D01*
X0163101Y0386158D01*
X0162949Y0386200D01*
X0162799Y0386246D01*
X0162649Y0386296D01*
X0162501Y0386350D01*
X0162354Y0386407D01*
X0162208Y0386468D01*
X0162065Y0386533D01*
X0161922Y0386601D01*
X0161782Y0386673D01*
X0161644Y0386748D01*
X0161507Y0386827D01*
X0161372Y0386909D01*
X0161240Y0386995D01*
X0161110Y0387084D01*
X0160982Y0387176D01*
X0160856Y0387272D01*
X0160733Y0387370D01*
X0160613Y0387472D01*
X0160495Y0387577D01*
X0160379Y0387684D01*
X0160267Y0387795D01*
X0160157Y0387908D01*
X0160050Y0388024D01*
X0159946Y0388142D01*
X0159845Y0388264D01*
X0159748Y0388387D01*
X0159653Y0388514D01*
X0159562Y0388642D01*
X0159473Y0388773D01*
X0159389Y0388906D01*
X0159307Y0389041D01*
X0159229Y0389178D01*
X0159155Y0389317D01*
X0159084Y0389458D01*
X0159016Y0389600D01*
X0158953Y0389745D01*
X0158892Y0389890D01*
X0158836Y0390038D01*
X0158783Y0390186D01*
X0158734Y0390336D01*
X0158689Y0390487D01*
X0158648Y0390640D01*
X0158610Y0390793D01*
X0158577Y0390947D01*
X0158547Y0391102D01*
X0158521Y0391257D01*
X0158500Y0391414D01*
X0158482Y0391570D01*
X0158468Y0391727D01*
X0158458Y0391885D01*
X0158452Y0392042D01*
X0158450Y0392200D01*
X0185950Y0414700D02*
X0185952Y0414858D01*
X0185958Y0415015D01*
X0185968Y0415173D01*
X0185982Y0415330D01*
X0186000Y0415486D01*
X0186021Y0415643D01*
X0186047Y0415798D01*
X0186077Y0415953D01*
X0186110Y0416107D01*
X0186148Y0416260D01*
X0186189Y0416413D01*
X0186234Y0416564D01*
X0186283Y0416714D01*
X0186336Y0416862D01*
X0186392Y0417010D01*
X0186453Y0417155D01*
X0186516Y0417300D01*
X0186584Y0417442D01*
X0186655Y0417583D01*
X0186729Y0417722D01*
X0186807Y0417859D01*
X0186889Y0417994D01*
X0186973Y0418127D01*
X0187062Y0418258D01*
X0187153Y0418386D01*
X0187248Y0418513D01*
X0187345Y0418636D01*
X0187446Y0418758D01*
X0187550Y0418876D01*
X0187657Y0418992D01*
X0187767Y0419105D01*
X0187879Y0419216D01*
X0187995Y0419323D01*
X0188113Y0419428D01*
X0188233Y0419530D01*
X0188356Y0419628D01*
X0188482Y0419724D01*
X0188610Y0419816D01*
X0188740Y0419905D01*
X0188872Y0419991D01*
X0189007Y0420073D01*
X0189144Y0420152D01*
X0189282Y0420227D01*
X0189422Y0420299D01*
X0189565Y0420367D01*
X0189708Y0420432D01*
X0189854Y0420493D01*
X0190001Y0420550D01*
X0190149Y0420604D01*
X0190299Y0420654D01*
X0190449Y0420700D01*
X0190601Y0420742D01*
X0190754Y0420781D01*
X0190908Y0420815D01*
X0191063Y0420846D01*
X0191218Y0420872D01*
X0191374Y0420895D01*
X0191531Y0420914D01*
X0191688Y0420929D01*
X0191845Y0420940D01*
X0192003Y0420947D01*
X0192161Y0420950D01*
X0192318Y0420949D01*
X0192476Y0420944D01*
X0192633Y0420935D01*
X0192791Y0420922D01*
X0192947Y0420905D01*
X0193104Y0420884D01*
X0193259Y0420860D01*
X0193414Y0420831D01*
X0193569Y0420798D01*
X0193722Y0420762D01*
X0193875Y0420721D01*
X0194026Y0420677D01*
X0194176Y0420629D01*
X0194325Y0420578D01*
X0194473Y0420522D01*
X0194619Y0420463D01*
X0194764Y0420400D01*
X0194907Y0420333D01*
X0195048Y0420263D01*
X0195187Y0420190D01*
X0195325Y0420113D01*
X0195461Y0420032D01*
X0195594Y0419948D01*
X0195725Y0419861D01*
X0195854Y0419770D01*
X0195981Y0419676D01*
X0196106Y0419579D01*
X0196227Y0419479D01*
X0196347Y0419376D01*
X0196463Y0419270D01*
X0196577Y0419161D01*
X0196689Y0419049D01*
X0196797Y0418935D01*
X0196902Y0418817D01*
X0197005Y0418697D01*
X0197104Y0418575D01*
X0197200Y0418450D01*
X0197293Y0418322D01*
X0197383Y0418193D01*
X0197469Y0418061D01*
X0197553Y0417927D01*
X0197632Y0417791D01*
X0197709Y0417653D01*
X0197781Y0417513D01*
X0197850Y0417371D01*
X0197916Y0417228D01*
X0197978Y0417083D01*
X0198036Y0416936D01*
X0198091Y0416788D01*
X0198142Y0416639D01*
X0198189Y0416488D01*
X0198232Y0416337D01*
X0198271Y0416184D01*
X0198307Y0416030D01*
X0198338Y0415876D01*
X0198366Y0415721D01*
X0198390Y0415565D01*
X0198410Y0415408D01*
X0198426Y0415251D01*
X0198438Y0415094D01*
X0198446Y0414937D01*
X0198450Y0414779D01*
X0198450Y0414621D01*
X0198446Y0414463D01*
X0198438Y0414306D01*
X0198426Y0414149D01*
X0198410Y0413992D01*
X0198390Y0413835D01*
X0198366Y0413679D01*
X0198338Y0413524D01*
X0198307Y0413370D01*
X0198271Y0413216D01*
X0198232Y0413063D01*
X0198189Y0412912D01*
X0198142Y0412761D01*
X0198091Y0412612D01*
X0198036Y0412464D01*
X0197978Y0412317D01*
X0197916Y0412172D01*
X0197850Y0412029D01*
X0197781Y0411887D01*
X0197709Y0411747D01*
X0197632Y0411609D01*
X0197553Y0411473D01*
X0197469Y0411339D01*
X0197383Y0411207D01*
X0197293Y0411078D01*
X0197200Y0410950D01*
X0197104Y0410825D01*
X0197005Y0410703D01*
X0196902Y0410583D01*
X0196797Y0410465D01*
X0196689Y0410351D01*
X0196577Y0410239D01*
X0196463Y0410130D01*
X0196347Y0410024D01*
X0196227Y0409921D01*
X0196106Y0409821D01*
X0195981Y0409724D01*
X0195854Y0409630D01*
X0195725Y0409539D01*
X0195594Y0409452D01*
X0195461Y0409368D01*
X0195325Y0409287D01*
X0195187Y0409210D01*
X0195048Y0409137D01*
X0194907Y0409067D01*
X0194764Y0409000D01*
X0194619Y0408937D01*
X0194473Y0408878D01*
X0194325Y0408822D01*
X0194176Y0408771D01*
X0194026Y0408723D01*
X0193875Y0408679D01*
X0193722Y0408638D01*
X0193569Y0408602D01*
X0193414Y0408569D01*
X0193259Y0408540D01*
X0193104Y0408516D01*
X0192947Y0408495D01*
X0192791Y0408478D01*
X0192633Y0408465D01*
X0192476Y0408456D01*
X0192318Y0408451D01*
X0192161Y0408450D01*
X0192003Y0408453D01*
X0191845Y0408460D01*
X0191688Y0408471D01*
X0191531Y0408486D01*
X0191374Y0408505D01*
X0191218Y0408528D01*
X0191063Y0408554D01*
X0190908Y0408585D01*
X0190754Y0408619D01*
X0190601Y0408658D01*
X0190449Y0408700D01*
X0190299Y0408746D01*
X0190149Y0408796D01*
X0190001Y0408850D01*
X0189854Y0408907D01*
X0189708Y0408968D01*
X0189565Y0409033D01*
X0189422Y0409101D01*
X0189282Y0409173D01*
X0189144Y0409248D01*
X0189007Y0409327D01*
X0188872Y0409409D01*
X0188740Y0409495D01*
X0188610Y0409584D01*
X0188482Y0409676D01*
X0188356Y0409772D01*
X0188233Y0409870D01*
X0188113Y0409972D01*
X0187995Y0410077D01*
X0187879Y0410184D01*
X0187767Y0410295D01*
X0187657Y0410408D01*
X0187550Y0410524D01*
X0187446Y0410642D01*
X0187345Y0410764D01*
X0187248Y0410887D01*
X0187153Y0411014D01*
X0187062Y0411142D01*
X0186973Y0411273D01*
X0186889Y0411406D01*
X0186807Y0411541D01*
X0186729Y0411678D01*
X0186655Y0411817D01*
X0186584Y0411958D01*
X0186516Y0412100D01*
X0186453Y0412245D01*
X0186392Y0412390D01*
X0186336Y0412538D01*
X0186283Y0412686D01*
X0186234Y0412836D01*
X0186189Y0412987D01*
X0186148Y0413140D01*
X0186110Y0413293D01*
X0186077Y0413447D01*
X0186047Y0413602D01*
X0186021Y0413757D01*
X0186000Y0413914D01*
X0185982Y0414070D01*
X0185968Y0414227D01*
X0185958Y0414385D01*
X0185952Y0414542D01*
X0185950Y0414700D01*
X0098450Y0342200D02*
X0098452Y0342358D01*
X0098458Y0342515D01*
X0098468Y0342673D01*
X0098482Y0342830D01*
X0098500Y0342986D01*
X0098521Y0343143D01*
X0098547Y0343298D01*
X0098577Y0343453D01*
X0098610Y0343607D01*
X0098648Y0343760D01*
X0098689Y0343913D01*
X0098734Y0344064D01*
X0098783Y0344214D01*
X0098836Y0344362D01*
X0098892Y0344510D01*
X0098953Y0344655D01*
X0099016Y0344800D01*
X0099084Y0344942D01*
X0099155Y0345083D01*
X0099229Y0345222D01*
X0099307Y0345359D01*
X0099389Y0345494D01*
X0099473Y0345627D01*
X0099562Y0345758D01*
X0099653Y0345886D01*
X0099748Y0346013D01*
X0099845Y0346136D01*
X0099946Y0346258D01*
X0100050Y0346376D01*
X0100157Y0346492D01*
X0100267Y0346605D01*
X0100379Y0346716D01*
X0100495Y0346823D01*
X0100613Y0346928D01*
X0100733Y0347030D01*
X0100856Y0347128D01*
X0100982Y0347224D01*
X0101110Y0347316D01*
X0101240Y0347405D01*
X0101372Y0347491D01*
X0101507Y0347573D01*
X0101644Y0347652D01*
X0101782Y0347727D01*
X0101922Y0347799D01*
X0102065Y0347867D01*
X0102208Y0347932D01*
X0102354Y0347993D01*
X0102501Y0348050D01*
X0102649Y0348104D01*
X0102799Y0348154D01*
X0102949Y0348200D01*
X0103101Y0348242D01*
X0103254Y0348281D01*
X0103408Y0348315D01*
X0103563Y0348346D01*
X0103718Y0348372D01*
X0103874Y0348395D01*
X0104031Y0348414D01*
X0104188Y0348429D01*
X0104345Y0348440D01*
X0104503Y0348447D01*
X0104661Y0348450D01*
X0104818Y0348449D01*
X0104976Y0348444D01*
X0105133Y0348435D01*
X0105291Y0348422D01*
X0105447Y0348405D01*
X0105604Y0348384D01*
X0105759Y0348360D01*
X0105914Y0348331D01*
X0106069Y0348298D01*
X0106222Y0348262D01*
X0106375Y0348221D01*
X0106526Y0348177D01*
X0106676Y0348129D01*
X0106825Y0348078D01*
X0106973Y0348022D01*
X0107119Y0347963D01*
X0107264Y0347900D01*
X0107407Y0347833D01*
X0107548Y0347763D01*
X0107687Y0347690D01*
X0107825Y0347613D01*
X0107961Y0347532D01*
X0108094Y0347448D01*
X0108225Y0347361D01*
X0108354Y0347270D01*
X0108481Y0347176D01*
X0108606Y0347079D01*
X0108727Y0346979D01*
X0108847Y0346876D01*
X0108963Y0346770D01*
X0109077Y0346661D01*
X0109189Y0346549D01*
X0109297Y0346435D01*
X0109402Y0346317D01*
X0109505Y0346197D01*
X0109604Y0346075D01*
X0109700Y0345950D01*
X0109793Y0345822D01*
X0109883Y0345693D01*
X0109969Y0345561D01*
X0110053Y0345427D01*
X0110132Y0345291D01*
X0110209Y0345153D01*
X0110281Y0345013D01*
X0110350Y0344871D01*
X0110416Y0344728D01*
X0110478Y0344583D01*
X0110536Y0344436D01*
X0110591Y0344288D01*
X0110642Y0344139D01*
X0110689Y0343988D01*
X0110732Y0343837D01*
X0110771Y0343684D01*
X0110807Y0343530D01*
X0110838Y0343376D01*
X0110866Y0343221D01*
X0110890Y0343065D01*
X0110910Y0342908D01*
X0110926Y0342751D01*
X0110938Y0342594D01*
X0110946Y0342437D01*
X0110950Y0342279D01*
X0110950Y0342121D01*
X0110946Y0341963D01*
X0110938Y0341806D01*
X0110926Y0341649D01*
X0110910Y0341492D01*
X0110890Y0341335D01*
X0110866Y0341179D01*
X0110838Y0341024D01*
X0110807Y0340870D01*
X0110771Y0340716D01*
X0110732Y0340563D01*
X0110689Y0340412D01*
X0110642Y0340261D01*
X0110591Y0340112D01*
X0110536Y0339964D01*
X0110478Y0339817D01*
X0110416Y0339672D01*
X0110350Y0339529D01*
X0110281Y0339387D01*
X0110209Y0339247D01*
X0110132Y0339109D01*
X0110053Y0338973D01*
X0109969Y0338839D01*
X0109883Y0338707D01*
X0109793Y0338578D01*
X0109700Y0338450D01*
X0109604Y0338325D01*
X0109505Y0338203D01*
X0109402Y0338083D01*
X0109297Y0337965D01*
X0109189Y0337851D01*
X0109077Y0337739D01*
X0108963Y0337630D01*
X0108847Y0337524D01*
X0108727Y0337421D01*
X0108606Y0337321D01*
X0108481Y0337224D01*
X0108354Y0337130D01*
X0108225Y0337039D01*
X0108094Y0336952D01*
X0107961Y0336868D01*
X0107825Y0336787D01*
X0107687Y0336710D01*
X0107548Y0336637D01*
X0107407Y0336567D01*
X0107264Y0336500D01*
X0107119Y0336437D01*
X0106973Y0336378D01*
X0106825Y0336322D01*
X0106676Y0336271D01*
X0106526Y0336223D01*
X0106375Y0336179D01*
X0106222Y0336138D01*
X0106069Y0336102D01*
X0105914Y0336069D01*
X0105759Y0336040D01*
X0105604Y0336016D01*
X0105447Y0335995D01*
X0105291Y0335978D01*
X0105133Y0335965D01*
X0104976Y0335956D01*
X0104818Y0335951D01*
X0104661Y0335950D01*
X0104503Y0335953D01*
X0104345Y0335960D01*
X0104188Y0335971D01*
X0104031Y0335986D01*
X0103874Y0336005D01*
X0103718Y0336028D01*
X0103563Y0336054D01*
X0103408Y0336085D01*
X0103254Y0336119D01*
X0103101Y0336158D01*
X0102949Y0336200D01*
X0102799Y0336246D01*
X0102649Y0336296D01*
X0102501Y0336350D01*
X0102354Y0336407D01*
X0102208Y0336468D01*
X0102065Y0336533D01*
X0101922Y0336601D01*
X0101782Y0336673D01*
X0101644Y0336748D01*
X0101507Y0336827D01*
X0101372Y0336909D01*
X0101240Y0336995D01*
X0101110Y0337084D01*
X0100982Y0337176D01*
X0100856Y0337272D01*
X0100733Y0337370D01*
X0100613Y0337472D01*
X0100495Y0337577D01*
X0100379Y0337684D01*
X0100267Y0337795D01*
X0100157Y0337908D01*
X0100050Y0338024D01*
X0099946Y0338142D01*
X0099845Y0338264D01*
X0099748Y0338387D01*
X0099653Y0338514D01*
X0099562Y0338642D01*
X0099473Y0338773D01*
X0099389Y0338906D01*
X0099307Y0339041D01*
X0099229Y0339178D01*
X0099155Y0339317D01*
X0099084Y0339458D01*
X0099016Y0339600D01*
X0098953Y0339745D01*
X0098892Y0339890D01*
X0098836Y0340038D01*
X0098783Y0340186D01*
X0098734Y0340336D01*
X0098689Y0340487D01*
X0098648Y0340640D01*
X0098610Y0340793D01*
X0098577Y0340947D01*
X0098547Y0341102D01*
X0098521Y0341257D01*
X0098500Y0341414D01*
X0098482Y0341570D01*
X0098468Y0341727D01*
X0098458Y0341885D01*
X0098452Y0342042D01*
X0098450Y0342200D01*
X0038450Y0342200D02*
X0038452Y0342358D01*
X0038458Y0342515D01*
X0038468Y0342673D01*
X0038482Y0342830D01*
X0038500Y0342986D01*
X0038521Y0343143D01*
X0038547Y0343298D01*
X0038577Y0343453D01*
X0038610Y0343607D01*
X0038648Y0343760D01*
X0038689Y0343913D01*
X0038734Y0344064D01*
X0038783Y0344214D01*
X0038836Y0344362D01*
X0038892Y0344510D01*
X0038953Y0344655D01*
X0039016Y0344800D01*
X0039084Y0344942D01*
X0039155Y0345083D01*
X0039229Y0345222D01*
X0039307Y0345359D01*
X0039389Y0345494D01*
X0039473Y0345627D01*
X0039562Y0345758D01*
X0039653Y0345886D01*
X0039748Y0346013D01*
X0039845Y0346136D01*
X0039946Y0346258D01*
X0040050Y0346376D01*
X0040157Y0346492D01*
X0040267Y0346605D01*
X0040379Y0346716D01*
X0040495Y0346823D01*
X0040613Y0346928D01*
X0040733Y0347030D01*
X0040856Y0347128D01*
X0040982Y0347224D01*
X0041110Y0347316D01*
X0041240Y0347405D01*
X0041372Y0347491D01*
X0041507Y0347573D01*
X0041644Y0347652D01*
X0041782Y0347727D01*
X0041922Y0347799D01*
X0042065Y0347867D01*
X0042208Y0347932D01*
X0042354Y0347993D01*
X0042501Y0348050D01*
X0042649Y0348104D01*
X0042799Y0348154D01*
X0042949Y0348200D01*
X0043101Y0348242D01*
X0043254Y0348281D01*
X0043408Y0348315D01*
X0043563Y0348346D01*
X0043718Y0348372D01*
X0043874Y0348395D01*
X0044031Y0348414D01*
X0044188Y0348429D01*
X0044345Y0348440D01*
X0044503Y0348447D01*
X0044661Y0348450D01*
X0044818Y0348449D01*
X0044976Y0348444D01*
X0045133Y0348435D01*
X0045291Y0348422D01*
X0045447Y0348405D01*
X0045604Y0348384D01*
X0045759Y0348360D01*
X0045914Y0348331D01*
X0046069Y0348298D01*
X0046222Y0348262D01*
X0046375Y0348221D01*
X0046526Y0348177D01*
X0046676Y0348129D01*
X0046825Y0348078D01*
X0046973Y0348022D01*
X0047119Y0347963D01*
X0047264Y0347900D01*
X0047407Y0347833D01*
X0047548Y0347763D01*
X0047687Y0347690D01*
X0047825Y0347613D01*
X0047961Y0347532D01*
X0048094Y0347448D01*
X0048225Y0347361D01*
X0048354Y0347270D01*
X0048481Y0347176D01*
X0048606Y0347079D01*
X0048727Y0346979D01*
X0048847Y0346876D01*
X0048963Y0346770D01*
X0049077Y0346661D01*
X0049189Y0346549D01*
X0049297Y0346435D01*
X0049402Y0346317D01*
X0049505Y0346197D01*
X0049604Y0346075D01*
X0049700Y0345950D01*
X0049793Y0345822D01*
X0049883Y0345693D01*
X0049969Y0345561D01*
X0050053Y0345427D01*
X0050132Y0345291D01*
X0050209Y0345153D01*
X0050281Y0345013D01*
X0050350Y0344871D01*
X0050416Y0344728D01*
X0050478Y0344583D01*
X0050536Y0344436D01*
X0050591Y0344288D01*
X0050642Y0344139D01*
X0050689Y0343988D01*
X0050732Y0343837D01*
X0050771Y0343684D01*
X0050807Y0343530D01*
X0050838Y0343376D01*
X0050866Y0343221D01*
X0050890Y0343065D01*
X0050910Y0342908D01*
X0050926Y0342751D01*
X0050938Y0342594D01*
X0050946Y0342437D01*
X0050950Y0342279D01*
X0050950Y0342121D01*
X0050946Y0341963D01*
X0050938Y0341806D01*
X0050926Y0341649D01*
X0050910Y0341492D01*
X0050890Y0341335D01*
X0050866Y0341179D01*
X0050838Y0341024D01*
X0050807Y0340870D01*
X0050771Y0340716D01*
X0050732Y0340563D01*
X0050689Y0340412D01*
X0050642Y0340261D01*
X0050591Y0340112D01*
X0050536Y0339964D01*
X0050478Y0339817D01*
X0050416Y0339672D01*
X0050350Y0339529D01*
X0050281Y0339387D01*
X0050209Y0339247D01*
X0050132Y0339109D01*
X0050053Y0338973D01*
X0049969Y0338839D01*
X0049883Y0338707D01*
X0049793Y0338578D01*
X0049700Y0338450D01*
X0049604Y0338325D01*
X0049505Y0338203D01*
X0049402Y0338083D01*
X0049297Y0337965D01*
X0049189Y0337851D01*
X0049077Y0337739D01*
X0048963Y0337630D01*
X0048847Y0337524D01*
X0048727Y0337421D01*
X0048606Y0337321D01*
X0048481Y0337224D01*
X0048354Y0337130D01*
X0048225Y0337039D01*
X0048094Y0336952D01*
X0047961Y0336868D01*
X0047825Y0336787D01*
X0047687Y0336710D01*
X0047548Y0336637D01*
X0047407Y0336567D01*
X0047264Y0336500D01*
X0047119Y0336437D01*
X0046973Y0336378D01*
X0046825Y0336322D01*
X0046676Y0336271D01*
X0046526Y0336223D01*
X0046375Y0336179D01*
X0046222Y0336138D01*
X0046069Y0336102D01*
X0045914Y0336069D01*
X0045759Y0336040D01*
X0045604Y0336016D01*
X0045447Y0335995D01*
X0045291Y0335978D01*
X0045133Y0335965D01*
X0044976Y0335956D01*
X0044818Y0335951D01*
X0044661Y0335950D01*
X0044503Y0335953D01*
X0044345Y0335960D01*
X0044188Y0335971D01*
X0044031Y0335986D01*
X0043874Y0336005D01*
X0043718Y0336028D01*
X0043563Y0336054D01*
X0043408Y0336085D01*
X0043254Y0336119D01*
X0043101Y0336158D01*
X0042949Y0336200D01*
X0042799Y0336246D01*
X0042649Y0336296D01*
X0042501Y0336350D01*
X0042354Y0336407D01*
X0042208Y0336468D01*
X0042065Y0336533D01*
X0041922Y0336601D01*
X0041782Y0336673D01*
X0041644Y0336748D01*
X0041507Y0336827D01*
X0041372Y0336909D01*
X0041240Y0336995D01*
X0041110Y0337084D01*
X0040982Y0337176D01*
X0040856Y0337272D01*
X0040733Y0337370D01*
X0040613Y0337472D01*
X0040495Y0337577D01*
X0040379Y0337684D01*
X0040267Y0337795D01*
X0040157Y0337908D01*
X0040050Y0338024D01*
X0039946Y0338142D01*
X0039845Y0338264D01*
X0039748Y0338387D01*
X0039653Y0338514D01*
X0039562Y0338642D01*
X0039473Y0338773D01*
X0039389Y0338906D01*
X0039307Y0339041D01*
X0039229Y0339178D01*
X0039155Y0339317D01*
X0039084Y0339458D01*
X0039016Y0339600D01*
X0038953Y0339745D01*
X0038892Y0339890D01*
X0038836Y0340038D01*
X0038783Y0340186D01*
X0038734Y0340336D01*
X0038689Y0340487D01*
X0038648Y0340640D01*
X0038610Y0340793D01*
X0038577Y0340947D01*
X0038547Y0341102D01*
X0038521Y0341257D01*
X0038500Y0341414D01*
X0038482Y0341570D01*
X0038468Y0341727D01*
X0038458Y0341885D01*
X0038452Y0342042D01*
X0038450Y0342200D01*
X0008450Y0414700D02*
X0008452Y0414858D01*
X0008458Y0415015D01*
X0008468Y0415173D01*
X0008482Y0415330D01*
X0008500Y0415486D01*
X0008521Y0415643D01*
X0008547Y0415798D01*
X0008577Y0415953D01*
X0008610Y0416107D01*
X0008648Y0416260D01*
X0008689Y0416413D01*
X0008734Y0416564D01*
X0008783Y0416714D01*
X0008836Y0416862D01*
X0008892Y0417010D01*
X0008953Y0417155D01*
X0009016Y0417300D01*
X0009084Y0417442D01*
X0009155Y0417583D01*
X0009229Y0417722D01*
X0009307Y0417859D01*
X0009389Y0417994D01*
X0009473Y0418127D01*
X0009562Y0418258D01*
X0009653Y0418386D01*
X0009748Y0418513D01*
X0009845Y0418636D01*
X0009946Y0418758D01*
X0010050Y0418876D01*
X0010157Y0418992D01*
X0010267Y0419105D01*
X0010379Y0419216D01*
X0010495Y0419323D01*
X0010613Y0419428D01*
X0010733Y0419530D01*
X0010856Y0419628D01*
X0010982Y0419724D01*
X0011110Y0419816D01*
X0011240Y0419905D01*
X0011372Y0419991D01*
X0011507Y0420073D01*
X0011644Y0420152D01*
X0011782Y0420227D01*
X0011922Y0420299D01*
X0012065Y0420367D01*
X0012208Y0420432D01*
X0012354Y0420493D01*
X0012501Y0420550D01*
X0012649Y0420604D01*
X0012799Y0420654D01*
X0012949Y0420700D01*
X0013101Y0420742D01*
X0013254Y0420781D01*
X0013408Y0420815D01*
X0013563Y0420846D01*
X0013718Y0420872D01*
X0013874Y0420895D01*
X0014031Y0420914D01*
X0014188Y0420929D01*
X0014345Y0420940D01*
X0014503Y0420947D01*
X0014661Y0420950D01*
X0014818Y0420949D01*
X0014976Y0420944D01*
X0015133Y0420935D01*
X0015291Y0420922D01*
X0015447Y0420905D01*
X0015604Y0420884D01*
X0015759Y0420860D01*
X0015914Y0420831D01*
X0016069Y0420798D01*
X0016222Y0420762D01*
X0016375Y0420721D01*
X0016526Y0420677D01*
X0016676Y0420629D01*
X0016825Y0420578D01*
X0016973Y0420522D01*
X0017119Y0420463D01*
X0017264Y0420400D01*
X0017407Y0420333D01*
X0017548Y0420263D01*
X0017687Y0420190D01*
X0017825Y0420113D01*
X0017961Y0420032D01*
X0018094Y0419948D01*
X0018225Y0419861D01*
X0018354Y0419770D01*
X0018481Y0419676D01*
X0018606Y0419579D01*
X0018727Y0419479D01*
X0018847Y0419376D01*
X0018963Y0419270D01*
X0019077Y0419161D01*
X0019189Y0419049D01*
X0019297Y0418935D01*
X0019402Y0418817D01*
X0019505Y0418697D01*
X0019604Y0418575D01*
X0019700Y0418450D01*
X0019793Y0418322D01*
X0019883Y0418193D01*
X0019969Y0418061D01*
X0020053Y0417927D01*
X0020132Y0417791D01*
X0020209Y0417653D01*
X0020281Y0417513D01*
X0020350Y0417371D01*
X0020416Y0417228D01*
X0020478Y0417083D01*
X0020536Y0416936D01*
X0020591Y0416788D01*
X0020642Y0416639D01*
X0020689Y0416488D01*
X0020732Y0416337D01*
X0020771Y0416184D01*
X0020807Y0416030D01*
X0020838Y0415876D01*
X0020866Y0415721D01*
X0020890Y0415565D01*
X0020910Y0415408D01*
X0020926Y0415251D01*
X0020938Y0415094D01*
X0020946Y0414937D01*
X0020950Y0414779D01*
X0020950Y0414621D01*
X0020946Y0414463D01*
X0020938Y0414306D01*
X0020926Y0414149D01*
X0020910Y0413992D01*
X0020890Y0413835D01*
X0020866Y0413679D01*
X0020838Y0413524D01*
X0020807Y0413370D01*
X0020771Y0413216D01*
X0020732Y0413063D01*
X0020689Y0412912D01*
X0020642Y0412761D01*
X0020591Y0412612D01*
X0020536Y0412464D01*
X0020478Y0412317D01*
X0020416Y0412172D01*
X0020350Y0412029D01*
X0020281Y0411887D01*
X0020209Y0411747D01*
X0020132Y0411609D01*
X0020053Y0411473D01*
X0019969Y0411339D01*
X0019883Y0411207D01*
X0019793Y0411078D01*
X0019700Y0410950D01*
X0019604Y0410825D01*
X0019505Y0410703D01*
X0019402Y0410583D01*
X0019297Y0410465D01*
X0019189Y0410351D01*
X0019077Y0410239D01*
X0018963Y0410130D01*
X0018847Y0410024D01*
X0018727Y0409921D01*
X0018606Y0409821D01*
X0018481Y0409724D01*
X0018354Y0409630D01*
X0018225Y0409539D01*
X0018094Y0409452D01*
X0017961Y0409368D01*
X0017825Y0409287D01*
X0017687Y0409210D01*
X0017548Y0409137D01*
X0017407Y0409067D01*
X0017264Y0409000D01*
X0017119Y0408937D01*
X0016973Y0408878D01*
X0016825Y0408822D01*
X0016676Y0408771D01*
X0016526Y0408723D01*
X0016375Y0408679D01*
X0016222Y0408638D01*
X0016069Y0408602D01*
X0015914Y0408569D01*
X0015759Y0408540D01*
X0015604Y0408516D01*
X0015447Y0408495D01*
X0015291Y0408478D01*
X0015133Y0408465D01*
X0014976Y0408456D01*
X0014818Y0408451D01*
X0014661Y0408450D01*
X0014503Y0408453D01*
X0014345Y0408460D01*
X0014188Y0408471D01*
X0014031Y0408486D01*
X0013874Y0408505D01*
X0013718Y0408528D01*
X0013563Y0408554D01*
X0013408Y0408585D01*
X0013254Y0408619D01*
X0013101Y0408658D01*
X0012949Y0408700D01*
X0012799Y0408746D01*
X0012649Y0408796D01*
X0012501Y0408850D01*
X0012354Y0408907D01*
X0012208Y0408968D01*
X0012065Y0409033D01*
X0011922Y0409101D01*
X0011782Y0409173D01*
X0011644Y0409248D01*
X0011507Y0409327D01*
X0011372Y0409409D01*
X0011240Y0409495D01*
X0011110Y0409584D01*
X0010982Y0409676D01*
X0010856Y0409772D01*
X0010733Y0409870D01*
X0010613Y0409972D01*
X0010495Y0410077D01*
X0010379Y0410184D01*
X0010267Y0410295D01*
X0010157Y0410408D01*
X0010050Y0410524D01*
X0009946Y0410642D01*
X0009845Y0410764D01*
X0009748Y0410887D01*
X0009653Y0411014D01*
X0009562Y0411142D01*
X0009473Y0411273D01*
X0009389Y0411406D01*
X0009307Y0411541D01*
X0009229Y0411678D01*
X0009155Y0411817D01*
X0009084Y0411958D01*
X0009016Y0412100D01*
X0008953Y0412245D01*
X0008892Y0412390D01*
X0008836Y0412538D01*
X0008783Y0412686D01*
X0008734Y0412836D01*
X0008689Y0412987D01*
X0008648Y0413140D01*
X0008610Y0413293D01*
X0008577Y0413447D01*
X0008547Y0413602D01*
X0008521Y0413757D01*
X0008500Y0413914D01*
X0008482Y0414070D01*
X0008468Y0414227D01*
X0008458Y0414385D01*
X0008452Y0414542D01*
X0008450Y0414700D01*
X0185950Y0017200D02*
X0185952Y0017358D01*
X0185958Y0017515D01*
X0185968Y0017673D01*
X0185982Y0017830D01*
X0186000Y0017986D01*
X0186021Y0018143D01*
X0186047Y0018298D01*
X0186077Y0018453D01*
X0186110Y0018607D01*
X0186148Y0018760D01*
X0186189Y0018913D01*
X0186234Y0019064D01*
X0186283Y0019214D01*
X0186336Y0019362D01*
X0186392Y0019510D01*
X0186453Y0019655D01*
X0186516Y0019800D01*
X0186584Y0019942D01*
X0186655Y0020083D01*
X0186729Y0020222D01*
X0186807Y0020359D01*
X0186889Y0020494D01*
X0186973Y0020627D01*
X0187062Y0020758D01*
X0187153Y0020886D01*
X0187248Y0021013D01*
X0187345Y0021136D01*
X0187446Y0021258D01*
X0187550Y0021376D01*
X0187657Y0021492D01*
X0187767Y0021605D01*
X0187879Y0021716D01*
X0187995Y0021823D01*
X0188113Y0021928D01*
X0188233Y0022030D01*
X0188356Y0022128D01*
X0188482Y0022224D01*
X0188610Y0022316D01*
X0188740Y0022405D01*
X0188872Y0022491D01*
X0189007Y0022573D01*
X0189144Y0022652D01*
X0189282Y0022727D01*
X0189422Y0022799D01*
X0189565Y0022867D01*
X0189708Y0022932D01*
X0189854Y0022993D01*
X0190001Y0023050D01*
X0190149Y0023104D01*
X0190299Y0023154D01*
X0190449Y0023200D01*
X0190601Y0023242D01*
X0190754Y0023281D01*
X0190908Y0023315D01*
X0191063Y0023346D01*
X0191218Y0023372D01*
X0191374Y0023395D01*
X0191531Y0023414D01*
X0191688Y0023429D01*
X0191845Y0023440D01*
X0192003Y0023447D01*
X0192161Y0023450D01*
X0192318Y0023449D01*
X0192476Y0023444D01*
X0192633Y0023435D01*
X0192791Y0023422D01*
X0192947Y0023405D01*
X0193104Y0023384D01*
X0193259Y0023360D01*
X0193414Y0023331D01*
X0193569Y0023298D01*
X0193722Y0023262D01*
X0193875Y0023221D01*
X0194026Y0023177D01*
X0194176Y0023129D01*
X0194325Y0023078D01*
X0194473Y0023022D01*
X0194619Y0022963D01*
X0194764Y0022900D01*
X0194907Y0022833D01*
X0195048Y0022763D01*
X0195187Y0022690D01*
X0195325Y0022613D01*
X0195461Y0022532D01*
X0195594Y0022448D01*
X0195725Y0022361D01*
X0195854Y0022270D01*
X0195981Y0022176D01*
X0196106Y0022079D01*
X0196227Y0021979D01*
X0196347Y0021876D01*
X0196463Y0021770D01*
X0196577Y0021661D01*
X0196689Y0021549D01*
X0196797Y0021435D01*
X0196902Y0021317D01*
X0197005Y0021197D01*
X0197104Y0021075D01*
X0197200Y0020950D01*
X0197293Y0020822D01*
X0197383Y0020693D01*
X0197469Y0020561D01*
X0197553Y0020427D01*
X0197632Y0020291D01*
X0197709Y0020153D01*
X0197781Y0020013D01*
X0197850Y0019871D01*
X0197916Y0019728D01*
X0197978Y0019583D01*
X0198036Y0019436D01*
X0198091Y0019288D01*
X0198142Y0019139D01*
X0198189Y0018988D01*
X0198232Y0018837D01*
X0198271Y0018684D01*
X0198307Y0018530D01*
X0198338Y0018376D01*
X0198366Y0018221D01*
X0198390Y0018065D01*
X0198410Y0017908D01*
X0198426Y0017751D01*
X0198438Y0017594D01*
X0198446Y0017437D01*
X0198450Y0017279D01*
X0198450Y0017121D01*
X0198446Y0016963D01*
X0198438Y0016806D01*
X0198426Y0016649D01*
X0198410Y0016492D01*
X0198390Y0016335D01*
X0198366Y0016179D01*
X0198338Y0016024D01*
X0198307Y0015870D01*
X0198271Y0015716D01*
X0198232Y0015563D01*
X0198189Y0015412D01*
X0198142Y0015261D01*
X0198091Y0015112D01*
X0198036Y0014964D01*
X0197978Y0014817D01*
X0197916Y0014672D01*
X0197850Y0014529D01*
X0197781Y0014387D01*
X0197709Y0014247D01*
X0197632Y0014109D01*
X0197553Y0013973D01*
X0197469Y0013839D01*
X0197383Y0013707D01*
X0197293Y0013578D01*
X0197200Y0013450D01*
X0197104Y0013325D01*
X0197005Y0013203D01*
X0196902Y0013083D01*
X0196797Y0012965D01*
X0196689Y0012851D01*
X0196577Y0012739D01*
X0196463Y0012630D01*
X0196347Y0012524D01*
X0196227Y0012421D01*
X0196106Y0012321D01*
X0195981Y0012224D01*
X0195854Y0012130D01*
X0195725Y0012039D01*
X0195594Y0011952D01*
X0195461Y0011868D01*
X0195325Y0011787D01*
X0195187Y0011710D01*
X0195048Y0011637D01*
X0194907Y0011567D01*
X0194764Y0011500D01*
X0194619Y0011437D01*
X0194473Y0011378D01*
X0194325Y0011322D01*
X0194176Y0011271D01*
X0194026Y0011223D01*
X0193875Y0011179D01*
X0193722Y0011138D01*
X0193569Y0011102D01*
X0193414Y0011069D01*
X0193259Y0011040D01*
X0193104Y0011016D01*
X0192947Y0010995D01*
X0192791Y0010978D01*
X0192633Y0010965D01*
X0192476Y0010956D01*
X0192318Y0010951D01*
X0192161Y0010950D01*
X0192003Y0010953D01*
X0191845Y0010960D01*
X0191688Y0010971D01*
X0191531Y0010986D01*
X0191374Y0011005D01*
X0191218Y0011028D01*
X0191063Y0011054D01*
X0190908Y0011085D01*
X0190754Y0011119D01*
X0190601Y0011158D01*
X0190449Y0011200D01*
X0190299Y0011246D01*
X0190149Y0011296D01*
X0190001Y0011350D01*
X0189854Y0011407D01*
X0189708Y0011468D01*
X0189565Y0011533D01*
X0189422Y0011601D01*
X0189282Y0011673D01*
X0189144Y0011748D01*
X0189007Y0011827D01*
X0188872Y0011909D01*
X0188740Y0011995D01*
X0188610Y0012084D01*
X0188482Y0012176D01*
X0188356Y0012272D01*
X0188233Y0012370D01*
X0188113Y0012472D01*
X0187995Y0012577D01*
X0187879Y0012684D01*
X0187767Y0012795D01*
X0187657Y0012908D01*
X0187550Y0013024D01*
X0187446Y0013142D01*
X0187345Y0013264D01*
X0187248Y0013387D01*
X0187153Y0013514D01*
X0187062Y0013642D01*
X0186973Y0013773D01*
X0186889Y0013906D01*
X0186807Y0014041D01*
X0186729Y0014178D01*
X0186655Y0014317D01*
X0186584Y0014458D01*
X0186516Y0014600D01*
X0186453Y0014745D01*
X0186392Y0014890D01*
X0186336Y0015038D01*
X0186283Y0015186D01*
X0186234Y0015336D01*
X0186189Y0015487D01*
X0186148Y0015640D01*
X0186110Y0015793D01*
X0186077Y0015947D01*
X0186047Y0016102D01*
X0186021Y0016257D01*
X0186000Y0016414D01*
X0185982Y0016570D01*
X0185968Y0016727D01*
X0185958Y0016885D01*
X0185952Y0017042D01*
X0185950Y0017200D01*
D11*
X0004700Y0005507D02*
X0004700Y0424798D01*
X0203519Y0424798D01*
X0203519Y0005507D01*
X0004700Y0005507D01*
X0010300Y0027419D02*
X0010300Y0048256D01*
X0012256Y0046300D01*
X0017144Y0046300D01*
X0020600Y0049756D01*
X0020600Y0054644D01*
X0018044Y0057200D01*
X0020600Y0059756D01*
X0020600Y0064644D01*
X0018044Y0067200D01*
X0020600Y0069756D01*
X0020600Y0074644D01*
X0018044Y0077200D01*
X0020600Y0079756D01*
X0020600Y0084644D01*
X0018044Y0087200D01*
X0019444Y0088600D01*
X0025416Y0088600D01*
X0026739Y0089148D01*
X0033691Y0096100D01*
X0079166Y0096100D01*
X0080489Y0096648D01*
X0081502Y0097661D01*
X0100252Y0116411D01*
X0100800Y0117734D01*
X0100800Y0180167D01*
X0100986Y0179718D01*
X0102218Y0178486D01*
X0103829Y0177819D01*
X0105571Y0177819D01*
X0107182Y0178486D01*
X0108414Y0179718D01*
X0109081Y0181329D01*
X0109081Y0183071D01*
X0108414Y0184682D01*
X0108300Y0184796D01*
X0108300Y0243209D01*
X0108691Y0243600D01*
X0122916Y0243600D01*
X0124239Y0244148D01*
X0125252Y0245161D01*
X0135252Y0255161D01*
X0135800Y0256484D01*
X0135800Y0288370D01*
X0135821Y0288350D01*
X0136464Y0287883D01*
X0137172Y0287522D01*
X0137927Y0287276D01*
X0138712Y0287152D01*
X0138827Y0287152D01*
X0138827Y0291917D01*
X0139392Y0291917D01*
X0139392Y0287152D01*
X0139507Y0287152D01*
X0140292Y0287276D01*
X0141047Y0287522D01*
X0141755Y0287883D01*
X0142398Y0288350D01*
X0142960Y0288911D01*
X0143427Y0289554D01*
X0143788Y0290262D01*
X0144033Y0291018D01*
X0144157Y0291803D01*
X0144157Y0291917D01*
X0139392Y0291917D01*
X0139392Y0292483D01*
X0138827Y0292483D01*
X0138827Y0297248D01*
X0138712Y0297248D01*
X0137927Y0297124D01*
X0137172Y0296878D01*
X0136464Y0296517D01*
X0135821Y0296050D01*
X0135800Y0296030D01*
X0135800Y0338370D01*
X0135821Y0338350D01*
X0136464Y0337883D01*
X0137172Y0337522D01*
X0137927Y0337276D01*
X0138712Y0337152D01*
X0138827Y0337152D01*
X0138827Y0341917D01*
X0139392Y0341917D01*
X0139392Y0337152D01*
X0139507Y0337152D01*
X0140292Y0337276D01*
X0141047Y0337522D01*
X0141755Y0337883D01*
X0142398Y0338350D01*
X0142960Y0338911D01*
X0143427Y0339554D01*
X0143788Y0340262D01*
X0144033Y0341018D01*
X0144157Y0341803D01*
X0144157Y0341917D01*
X0139392Y0341917D01*
X0139392Y0342483D01*
X0138827Y0342483D01*
X0138827Y0347248D01*
X0138712Y0347248D01*
X0137927Y0347124D01*
X0137172Y0346878D01*
X0136464Y0346517D01*
X0135821Y0346050D01*
X0135800Y0346030D01*
X0135800Y0372916D01*
X0135252Y0374239D01*
X0134239Y0375252D01*
X0129239Y0380252D01*
X0127916Y0380800D01*
X0108984Y0380800D01*
X0107661Y0380252D01*
X0106648Y0379239D01*
X0101648Y0374239D01*
X0101100Y0372916D01*
X0101100Y0369028D01*
X0099905Y0367834D01*
X0099905Y0368126D01*
X0099783Y0368584D01*
X0099546Y0368994D01*
X0099211Y0369329D01*
X0098800Y0369566D01*
X0098342Y0369689D01*
X0095140Y0369689D01*
X0095140Y0364924D01*
X0094575Y0364924D01*
X0094575Y0369689D01*
X0091372Y0369689D01*
X0090915Y0369566D01*
X0090504Y0369329D01*
X0090169Y0368994D01*
X0089932Y0368584D01*
X0089809Y0368126D01*
X0089809Y0364924D01*
X0094575Y0364924D01*
X0094575Y0364358D01*
X0095140Y0364358D01*
X0095140Y0359593D01*
X0098342Y0359593D01*
X0098800Y0359716D01*
X0099211Y0359953D01*
X0099546Y0360288D01*
X0099783Y0360698D01*
X0099905Y0361156D01*
X0099905Y0361448D01*
X0102361Y0358993D01*
X0107039Y0358993D01*
X0109621Y0361575D01*
X0112203Y0358993D01*
X0116882Y0358993D01*
X0120191Y0362301D01*
X0120191Y0366980D01*
X0116882Y0370289D01*
X0112203Y0370289D01*
X0109621Y0367707D01*
X0108300Y0369028D01*
X0108300Y0370709D01*
X0111191Y0373600D01*
X0125709Y0373600D01*
X0128600Y0370709D01*
X0128600Y0345973D01*
X0127584Y0346988D01*
X0125509Y0347848D01*
X0123262Y0347848D01*
X0121186Y0346988D01*
X0119597Y0345399D01*
X0118737Y0343323D01*
X0118737Y0341077D01*
X0119597Y0339001D01*
X0121186Y0337412D01*
X0123262Y0336552D01*
X0125509Y0336552D01*
X0127584Y0337412D01*
X0128600Y0338427D01*
X0128600Y0308391D01*
X0125800Y0311191D01*
X0125800Y0313413D01*
X0124871Y0315655D01*
X0123155Y0317371D01*
X0120913Y0318300D01*
X0118487Y0318300D01*
X0116245Y0317371D01*
X0114529Y0315655D01*
X0113600Y0313413D01*
X0113600Y0310987D01*
X0114529Y0308745D01*
X0116245Y0307029D01*
X0118487Y0306100D01*
X0120709Y0306100D01*
X0123600Y0303209D01*
X0123600Y0261191D01*
X0118209Y0255800D01*
X0101484Y0255800D01*
X0100161Y0255252D01*
X0095161Y0250252D01*
X0094550Y0249641D01*
X0094550Y0255709D01*
X0107752Y0268911D01*
X0108300Y0270234D01*
X0108300Y0284564D01*
X0109488Y0285753D01*
X0109700Y0286264D01*
X0109912Y0285753D01*
X0111501Y0284164D01*
X0113577Y0283304D01*
X0115823Y0283304D01*
X0117899Y0284164D01*
X0119488Y0285753D01*
X0120348Y0287828D01*
X0120348Y0296571D01*
X0119488Y0298647D01*
X0117899Y0300236D01*
X0115823Y0301096D01*
X0113577Y0301096D01*
X0111501Y0300236D01*
X0109912Y0298647D01*
X0109700Y0298136D01*
X0109488Y0298647D01*
X0107899Y0300236D01*
X0105823Y0301096D01*
X0103577Y0301096D01*
X0101501Y0300236D01*
X0099912Y0298647D01*
X0099700Y0298136D01*
X0099488Y0298647D01*
X0097899Y0300236D01*
X0095823Y0301096D01*
X0093577Y0301096D01*
X0091501Y0300236D01*
X0089912Y0298647D01*
X0089052Y0296571D01*
X0089052Y0287828D01*
X0089912Y0285753D01*
X0091100Y0284564D01*
X0091100Y0273691D01*
X0082661Y0265252D01*
X0081648Y0264239D01*
X0081100Y0262916D01*
X0081100Y0124941D01*
X0071959Y0115800D01*
X0019444Y0115800D01*
X0018044Y0117200D01*
X0019444Y0118600D01*
X0032916Y0118600D01*
X0034239Y0119148D01*
X0035252Y0120161D01*
X0050252Y0135161D01*
X0050800Y0136484D01*
X0050800Y0260709D01*
X0052441Y0262350D01*
X0059166Y0262350D01*
X0060489Y0262898D01*
X0061502Y0263911D01*
X0067350Y0269759D01*
X0067350Y0179941D01*
X0063990Y0176581D01*
X0063829Y0176581D01*
X0062218Y0175914D01*
X0060986Y0174682D01*
X0060319Y0173071D01*
X0060319Y0171329D01*
X0060986Y0169718D01*
X0062218Y0168486D01*
X0063829Y0167819D01*
X0065571Y0167819D01*
X0067182Y0168486D01*
X0068414Y0169718D01*
X0069081Y0171329D01*
X0069081Y0171490D01*
X0074002Y0176411D01*
X0074550Y0177734D01*
X0074550Y0308723D01*
X0076245Y0307029D01*
X0078487Y0306100D01*
X0080913Y0306100D01*
X0083155Y0307029D01*
X0084871Y0308745D01*
X0085800Y0310987D01*
X0085800Y0313413D01*
X0084871Y0315655D01*
X0083155Y0317371D01*
X0080913Y0318300D01*
X0078487Y0318300D01*
X0076245Y0317371D01*
X0074550Y0315677D01*
X0074550Y0340029D01*
X0074792Y0339554D01*
X0075259Y0338911D01*
X0075821Y0338350D01*
X0076464Y0337883D01*
X0077172Y0337522D01*
X0077927Y0337276D01*
X0078712Y0337152D01*
X0078827Y0337152D01*
X0078827Y0341917D01*
X0079392Y0341917D01*
X0079392Y0337152D01*
X0079507Y0337152D01*
X0080292Y0337276D01*
X0081047Y0337522D01*
X0081755Y0337883D01*
X0082398Y0338350D01*
X0082960Y0338911D01*
X0083427Y0339554D01*
X0083788Y0340262D01*
X0084033Y0341018D01*
X0084157Y0341803D01*
X0084157Y0341917D01*
X0079392Y0341917D01*
X0079392Y0342483D01*
X0078827Y0342483D01*
X0078827Y0347248D01*
X0078712Y0347248D01*
X0077927Y0347124D01*
X0077172Y0346878D01*
X0076464Y0346517D01*
X0075821Y0346050D01*
X0075259Y0345489D01*
X0074792Y0344846D01*
X0074550Y0344371D01*
X0074550Y0371666D01*
X0074002Y0372989D01*
X0072989Y0374002D01*
X0066739Y0380252D01*
X0065416Y0380800D01*
X0048984Y0380800D01*
X0047661Y0380252D01*
X0046648Y0379239D01*
X0041648Y0374239D01*
X0041100Y0372916D01*
X0041100Y0369028D01*
X0039905Y0367834D01*
X0039905Y0368126D01*
X0039783Y0368584D01*
X0039546Y0368994D01*
X0039211Y0369329D01*
X0038800Y0369566D01*
X0038342Y0369689D01*
X0035140Y0369689D01*
X0035140Y0364924D01*
X0034575Y0364924D01*
X0034575Y0369689D01*
X0031372Y0369689D01*
X0030915Y0369566D01*
X0030504Y0369329D01*
X0030169Y0368994D01*
X0029932Y0368584D01*
X0029809Y0368126D01*
X0029809Y0364924D01*
X0034575Y0364924D01*
X0034575Y0364358D01*
X0035140Y0364358D01*
X0035140Y0359593D01*
X0038342Y0359593D01*
X0038800Y0359716D01*
X0039211Y0359953D01*
X0039546Y0360288D01*
X0039783Y0360698D01*
X0039905Y0361156D01*
X0039905Y0361448D01*
X0042361Y0358993D01*
X0047039Y0358993D01*
X0049621Y0361575D01*
X0052203Y0358993D01*
X0056882Y0358993D01*
X0060191Y0362301D01*
X0060191Y0366980D01*
X0056882Y0370289D01*
X0052203Y0370289D01*
X0049621Y0367707D01*
X0048300Y0369028D01*
X0048300Y0370709D01*
X0051191Y0373600D01*
X0063209Y0373600D01*
X0067350Y0369459D01*
X0067350Y0347085D01*
X0065509Y0347848D01*
X0063262Y0347848D01*
X0061186Y0346988D01*
X0059597Y0345399D01*
X0058737Y0343323D01*
X0058737Y0341077D01*
X0059597Y0339001D01*
X0061186Y0337412D01*
X0063262Y0336552D01*
X0065509Y0336552D01*
X0067350Y0337315D01*
X0067350Y0317705D01*
X0065913Y0318300D01*
X0063487Y0318300D01*
X0061245Y0317371D01*
X0059529Y0315655D01*
X0058600Y0313413D01*
X0058600Y0310987D01*
X0059529Y0308745D01*
X0061100Y0307173D01*
X0061100Y0273691D01*
X0056959Y0269550D01*
X0050234Y0269550D01*
X0048911Y0269002D01*
X0045161Y0265252D01*
X0044550Y0264641D01*
X0044550Y0270709D01*
X0047752Y0273911D01*
X0048300Y0275234D01*
X0048300Y0284564D01*
X0049488Y0285753D01*
X0049700Y0286264D01*
X0049912Y0285753D01*
X0051501Y0284164D01*
X0053577Y0283304D01*
X0055823Y0283304D01*
X0057899Y0284164D01*
X0059488Y0285753D01*
X0060348Y0287828D01*
X0060348Y0296571D01*
X0059488Y0298647D01*
X0057899Y0300236D01*
X0055823Y0301096D01*
X0053577Y0301096D01*
X0051501Y0300236D01*
X0049912Y0298647D01*
X0049700Y0298136D01*
X0049488Y0298647D01*
X0047899Y0300236D01*
X0045823Y0301096D01*
X0043577Y0301096D01*
X0041501Y0300236D01*
X0039912Y0298647D01*
X0039700Y0298136D01*
X0039488Y0298647D01*
X0037899Y0300236D01*
X0035823Y0301096D01*
X0033577Y0301096D01*
X0031501Y0300236D01*
X0029912Y0298647D01*
X0029052Y0296571D01*
X0029052Y0287828D01*
X0029912Y0285753D01*
X0031100Y0284564D01*
X0031100Y0148691D01*
X0028209Y0145800D01*
X0019444Y0145800D01*
X0017144Y0148100D01*
X0012256Y0148100D01*
X0010300Y0146144D01*
X0010300Y0168256D01*
X0012256Y0166300D01*
X0017144Y0166300D01*
X0020600Y0169756D01*
X0020600Y0174644D01*
X0018044Y0177200D01*
X0020600Y0179756D01*
X0020600Y0184644D01*
X0018044Y0187200D01*
X0020600Y0189756D01*
X0020600Y0194644D01*
X0018044Y0197200D01*
X0020600Y0199756D01*
X0020600Y0204644D01*
X0018044Y0207200D01*
X0020600Y0209756D01*
X0020600Y0214644D01*
X0018044Y0217200D01*
X0020600Y0219756D01*
X0020600Y0224644D01*
X0018044Y0227200D01*
X0020600Y0229756D01*
X0020600Y0234644D01*
X0018044Y0237200D01*
X0020600Y0239756D01*
X0020600Y0244644D01*
X0018044Y0247200D01*
X0020600Y0249756D01*
X0020600Y0254644D01*
X0018044Y0257200D01*
X0020600Y0259756D01*
X0020600Y0264644D01*
X0017144Y0268100D01*
X0012256Y0268100D01*
X0010300Y0266144D01*
X0010300Y0404481D01*
X0010435Y0404403D01*
X0013245Y0403650D01*
X0016155Y0403650D01*
X0018965Y0404403D01*
X0021485Y0405858D01*
X0023542Y0407915D01*
X0024997Y0410435D01*
X0025750Y0413245D01*
X0025750Y0416155D01*
X0024997Y0418965D01*
X0024862Y0419198D01*
X0182038Y0419198D01*
X0181903Y0418965D01*
X0181150Y0416155D01*
X0181150Y0413245D01*
X0181903Y0410435D01*
X0183358Y0407915D01*
X0185415Y0405858D01*
X0187935Y0404403D01*
X0190745Y0403650D01*
X0193655Y0403650D01*
X0196465Y0404403D01*
X0197919Y0405242D01*
X0197919Y0241476D01*
X0196895Y0242500D01*
X0194900Y0242500D01*
X0194900Y0237400D01*
X0194500Y0237400D01*
X0194500Y0242500D01*
X0192505Y0242500D01*
X0189400Y0239395D01*
X0189400Y0237400D01*
X0194500Y0237400D01*
X0194500Y0237000D01*
X0194900Y0237000D01*
X0194900Y0231900D01*
X0194900Y0227400D01*
X0194500Y0227400D01*
X0194500Y0237000D01*
X0189400Y0237000D01*
X0189400Y0235005D01*
X0192205Y0232200D01*
X0189400Y0229395D01*
X0189400Y0227400D01*
X0194500Y0227400D01*
X0194500Y0227000D01*
X0189400Y0227000D01*
X0189400Y0225005D01*
X0192205Y0222200D01*
X0189400Y0219395D01*
X0189400Y0217400D01*
X0194500Y0217400D01*
X0194500Y0227000D01*
X0194900Y0227000D01*
X0194900Y0221900D01*
X0194900Y0217400D01*
X0194500Y0217400D01*
X0194500Y0217000D01*
X0189400Y0217000D01*
X0189400Y0215005D01*
X0192205Y0212200D01*
X0189400Y0209395D01*
X0189400Y0207400D01*
X0194500Y0207400D01*
X0194500Y0217000D01*
X0194900Y0217000D01*
X0194900Y0211900D01*
X0194900Y0207400D01*
X0194500Y0207400D01*
X0194500Y0207000D01*
X0189400Y0207000D01*
X0189400Y0205005D01*
X0192205Y0202200D01*
X0189400Y0199395D01*
X0189400Y0197400D01*
X0194500Y0197400D01*
X0194500Y0207000D01*
X0194900Y0207000D01*
X0194900Y0201900D01*
X0194900Y0197400D01*
X0194500Y0197400D01*
X0194500Y0197000D01*
X0189400Y0197000D01*
X0189400Y0195005D01*
X0192205Y0192200D01*
X0189400Y0189395D01*
X0189400Y0187400D01*
X0194500Y0187400D01*
X0194500Y0197000D01*
X0194900Y0197000D01*
X0194900Y0191900D01*
X0194900Y0187400D01*
X0194500Y0187400D01*
X0194500Y0187000D01*
X0189400Y0187000D01*
X0189400Y0185005D01*
X0192205Y0182200D01*
X0189400Y0179395D01*
X0189400Y0177400D01*
X0194500Y0177400D01*
X0194500Y0187000D01*
X0194900Y0187000D01*
X0194900Y0181900D01*
X0194900Y0177400D01*
X0194500Y0177400D01*
X0194500Y0177000D01*
X0194900Y0177000D01*
X0194900Y0171900D01*
X0194900Y0167400D01*
X0194500Y0167400D01*
X0194500Y0177000D01*
X0189400Y0177000D01*
X0189400Y0175005D01*
X0192205Y0172200D01*
X0189400Y0169395D01*
X0189400Y0167400D01*
X0194500Y0167400D01*
X0194500Y0167000D01*
X0194900Y0167000D01*
X0194900Y0161900D01*
X0194900Y0157400D01*
X0194500Y0157400D01*
X0194500Y0167000D01*
X0189400Y0167000D01*
X0189400Y0165005D01*
X0192205Y0162200D01*
X0189400Y0159395D01*
X0189400Y0157400D01*
X0194500Y0157400D01*
X0194500Y0157000D01*
X0194900Y0157000D01*
X0194900Y0151900D01*
X0194900Y0147400D01*
X0194500Y0147400D01*
X0194500Y0157000D01*
X0189400Y0157000D01*
X0189400Y0155005D01*
X0192205Y0152200D01*
X0189400Y0149395D01*
X0189400Y0147400D01*
X0194500Y0147400D01*
X0194500Y0147000D01*
X0194900Y0147000D01*
X0194900Y0141900D01*
X0196895Y0141900D01*
X0197919Y0142924D01*
X0197919Y0026658D01*
X0196465Y0027497D01*
X0193655Y0028250D01*
X0190745Y0028250D01*
X0187935Y0027497D01*
X0185415Y0026042D01*
X0183358Y0023985D01*
X0181903Y0021465D01*
X0181150Y0018655D01*
X0181150Y0015745D01*
X0181903Y0012935D01*
X0182958Y0011107D01*
X0023942Y0011107D01*
X0024997Y0012935D01*
X0025750Y0015745D01*
X0025750Y0018655D01*
X0024997Y0021465D01*
X0023542Y0023985D01*
X0021485Y0026042D01*
X0018965Y0027497D01*
X0016155Y0028250D01*
X0013245Y0028250D01*
X0010435Y0027497D01*
X0010300Y0027419D01*
X0010300Y0027739D02*
X0011338Y0027739D01*
X0010300Y0029337D02*
X0074276Y0029337D01*
X0074659Y0028955D02*
X0077930Y0027600D01*
X0081470Y0027600D01*
X0084741Y0028955D01*
X0087245Y0031459D01*
X0088600Y0034730D01*
X0088600Y0038270D01*
X0087245Y0041541D01*
X0084741Y0044045D01*
X0081470Y0045400D01*
X0077930Y0045400D01*
X0074659Y0044045D01*
X0072155Y0041541D01*
X0070800Y0038270D01*
X0070800Y0034730D01*
X0072155Y0031459D01*
X0074659Y0028955D01*
X0072678Y0030936D02*
X0010300Y0030936D01*
X0010300Y0032534D02*
X0071709Y0032534D01*
X0071047Y0034133D02*
X0010300Y0034133D01*
X0010300Y0035732D02*
X0070800Y0035732D01*
X0070800Y0037330D02*
X0010300Y0037330D01*
X0010300Y0038929D02*
X0071073Y0038929D01*
X0071735Y0040527D02*
X0010300Y0040527D01*
X0010300Y0042126D02*
X0072739Y0042126D01*
X0074338Y0043724D02*
X0010300Y0043724D01*
X0010300Y0045323D02*
X0077743Y0045323D01*
X0081657Y0045323D02*
X0093267Y0045323D01*
X0093000Y0045966D02*
X0093868Y0043871D01*
X0095471Y0042268D01*
X0097566Y0041400D01*
X0099834Y0041400D01*
X0101929Y0042268D01*
X0103532Y0043871D01*
X0103600Y0044035D01*
X0103668Y0043871D01*
X0105271Y0042268D01*
X0107366Y0041400D01*
X0109634Y0041400D01*
X0111729Y0042268D01*
X0113332Y0043871D01*
X0114200Y0045966D01*
X0114200Y0048234D01*
X0113332Y0050329D01*
X0111729Y0051932D01*
X0109634Y0052800D01*
X0107366Y0052800D01*
X0105271Y0051932D01*
X0103668Y0050329D01*
X0103600Y0050165D01*
X0103532Y0050329D01*
X0101929Y0051932D01*
X0099834Y0052800D01*
X0097566Y0052800D01*
X0095471Y0051932D01*
X0093868Y0050329D01*
X0093000Y0048234D01*
X0093000Y0045966D01*
X0093000Y0046921D02*
X0017765Y0046921D01*
X0019363Y0048520D02*
X0093118Y0048520D01*
X0093781Y0050118D02*
X0020600Y0050118D01*
X0020600Y0051717D02*
X0095256Y0051717D01*
X0094015Y0043724D02*
X0085062Y0043724D01*
X0086661Y0042126D02*
X0095814Y0042126D01*
X0097566Y0040200D02*
X0095471Y0039332D01*
X0093868Y0037729D01*
X0093000Y0035634D01*
X0093000Y0033366D01*
X0093868Y0031271D01*
X0095471Y0029668D01*
X0097566Y0028800D01*
X0099834Y0028800D01*
X0101929Y0029668D01*
X0103532Y0031271D01*
X0103600Y0031435D01*
X0103668Y0031271D01*
X0105271Y0029668D01*
X0107366Y0028800D01*
X0109634Y0028800D01*
X0111729Y0029668D01*
X0113332Y0031271D01*
X0114200Y0033366D01*
X0114200Y0035634D01*
X0113332Y0037729D01*
X0111729Y0039332D01*
X0109634Y0040200D01*
X0107366Y0040200D01*
X0105271Y0039332D01*
X0103668Y0037729D01*
X0103600Y0037565D01*
X0103532Y0037729D01*
X0101929Y0039332D01*
X0099834Y0040200D01*
X0097566Y0040200D01*
X0095068Y0038929D02*
X0088327Y0038929D01*
X0088600Y0037330D02*
X0093703Y0037330D01*
X0093040Y0035732D02*
X0088600Y0035732D01*
X0088353Y0034133D02*
X0093000Y0034133D01*
X0093344Y0032534D02*
X0087691Y0032534D01*
X0086722Y0030936D02*
X0094203Y0030936D01*
X0096269Y0029337D02*
X0085124Y0029337D01*
X0081806Y0027739D02*
X0124994Y0027739D01*
X0125330Y0027600D02*
X0128870Y0027600D01*
X0132141Y0028955D01*
X0134645Y0031459D01*
X0136000Y0034730D01*
X0136000Y0038219D01*
X0136464Y0037883D01*
X0137172Y0037522D01*
X0137927Y0037276D01*
X0138712Y0037152D01*
X0138827Y0037152D01*
X0138827Y0041917D01*
X0139392Y0041917D01*
X0139392Y0037152D01*
X0139507Y0037152D01*
X0140292Y0037276D01*
X0141047Y0037522D01*
X0141755Y0037883D01*
X0142398Y0038350D01*
X0142960Y0038911D01*
X0143427Y0039554D01*
X0143788Y0040262D01*
X0144033Y0041018D01*
X0144157Y0041803D01*
X0144157Y0041917D01*
X0139392Y0041917D01*
X0139392Y0042483D01*
X0138827Y0042483D01*
X0138827Y0047248D01*
X0138712Y0047248D01*
X0137927Y0047124D01*
X0137172Y0046878D01*
X0136464Y0046517D01*
X0135821Y0046050D01*
X0135259Y0045489D01*
X0134792Y0044846D01*
X0134431Y0044138D01*
X0134186Y0043382D01*
X0134061Y0042597D01*
X0134061Y0042483D01*
X0138827Y0042483D01*
X0138827Y0041917D01*
X0134269Y0041917D01*
X0132141Y0044045D01*
X0128870Y0045400D01*
X0125330Y0045400D01*
X0122059Y0044045D01*
X0119555Y0041541D01*
X0118200Y0038270D01*
X0118200Y0034730D01*
X0119555Y0031459D01*
X0122059Y0028955D01*
X0125330Y0027600D01*
X0121676Y0029337D02*
X0110931Y0029337D01*
X0112997Y0030936D02*
X0120078Y0030936D01*
X0119109Y0032534D02*
X0113855Y0032534D01*
X0114200Y0034133D02*
X0118447Y0034133D01*
X0118200Y0035732D02*
X0114160Y0035732D01*
X0113497Y0037330D02*
X0118200Y0037330D01*
X0118473Y0038929D02*
X0112132Y0038929D01*
X0111385Y0042126D02*
X0120139Y0042126D01*
X0119135Y0040527D02*
X0087665Y0040527D01*
X0077594Y0027739D02*
X0018062Y0027739D01*
X0021315Y0026140D02*
X0185585Y0026140D01*
X0183915Y0024542D02*
X0022985Y0024542D01*
X0024143Y0022943D02*
X0182757Y0022943D01*
X0181871Y0021345D02*
X0025029Y0021345D01*
X0025457Y0019746D02*
X0181443Y0019746D01*
X0181150Y0018148D02*
X0025750Y0018148D01*
X0025750Y0016549D02*
X0181150Y0016549D01*
X0181363Y0014951D02*
X0025537Y0014951D01*
X0025109Y0013352D02*
X0181791Y0013352D01*
X0182585Y0011754D02*
X0024315Y0011754D01*
X0011635Y0046921D02*
X0010300Y0046921D01*
X0018732Y0056512D02*
X0197919Y0056512D01*
X0197919Y0054914D02*
X0020330Y0054914D01*
X0020600Y0053315D02*
X0197919Y0053315D01*
X0197919Y0051717D02*
X0170317Y0051717D01*
X0171485Y0051042D02*
X0168965Y0052497D01*
X0166155Y0053250D01*
X0163245Y0053250D01*
X0160435Y0052497D01*
X0157915Y0051042D01*
X0155858Y0048985D01*
X0154491Y0046617D01*
X0154120Y0046988D01*
X0152044Y0047848D01*
X0149797Y0047848D01*
X0147721Y0046988D01*
X0146132Y0045399D01*
X0145272Y0043323D01*
X0145272Y0041077D01*
X0146132Y0039001D01*
X0147721Y0037412D01*
X0149797Y0036552D01*
X0152044Y0036552D01*
X0154120Y0037412D01*
X0154491Y0037783D01*
X0155858Y0035415D01*
X0157915Y0033358D01*
X0160435Y0031903D01*
X0163245Y0031150D01*
X0166155Y0031150D01*
X0168965Y0031903D01*
X0171485Y0033358D01*
X0173542Y0035415D01*
X0174997Y0037935D01*
X0175750Y0040745D01*
X0175750Y0043655D01*
X0174997Y0046465D01*
X0173542Y0048985D01*
X0171485Y0051042D01*
X0172409Y0050118D02*
X0197919Y0050118D01*
X0197919Y0048520D02*
X0173811Y0048520D01*
X0174734Y0046921D02*
X0181119Y0046921D01*
X0181186Y0046988D02*
X0179597Y0045399D01*
X0178737Y0043323D01*
X0178737Y0041077D01*
X0179597Y0039001D01*
X0181186Y0037412D01*
X0183262Y0036552D01*
X0185509Y0036552D01*
X0187584Y0037412D01*
X0189173Y0039001D01*
X0190033Y0041077D01*
X0190033Y0043323D01*
X0189173Y0045399D01*
X0187584Y0046988D01*
X0185509Y0047848D01*
X0183262Y0047848D01*
X0181186Y0046988D01*
X0179565Y0045323D02*
X0175303Y0045323D01*
X0175731Y0043724D02*
X0178903Y0043724D01*
X0178737Y0042126D02*
X0175750Y0042126D01*
X0175692Y0040527D02*
X0178965Y0040527D01*
X0179669Y0038929D02*
X0175263Y0038929D01*
X0174648Y0037330D02*
X0181383Y0037330D01*
X0187387Y0037330D02*
X0197919Y0037330D01*
X0197919Y0035732D02*
X0173725Y0035732D01*
X0172260Y0034133D02*
X0197919Y0034133D01*
X0197919Y0032534D02*
X0170059Y0032534D01*
X0159341Y0032534D02*
X0135091Y0032534D01*
X0135753Y0034133D02*
X0157140Y0034133D01*
X0155675Y0035732D02*
X0136000Y0035732D01*
X0136000Y0037330D02*
X0137762Y0037330D01*
X0138827Y0037330D02*
X0139392Y0037330D01*
X0140457Y0037330D02*
X0147919Y0037330D01*
X0146204Y0038929D02*
X0142972Y0038929D01*
X0143874Y0040527D02*
X0145500Y0040527D01*
X0145272Y0042126D02*
X0139392Y0042126D01*
X0139392Y0042483D02*
X0144157Y0042483D01*
X0144157Y0042597D01*
X0144033Y0043382D01*
X0143788Y0044138D01*
X0143427Y0044846D01*
X0142960Y0045489D01*
X0142398Y0046050D01*
X0141755Y0046517D01*
X0141047Y0046878D01*
X0140292Y0047124D01*
X0139507Y0047248D01*
X0139392Y0047248D01*
X0139392Y0042483D01*
X0138827Y0042126D02*
X0134061Y0042126D01*
X0134297Y0043724D02*
X0132462Y0043724D01*
X0135138Y0045323D02*
X0129057Y0045323D01*
X0125143Y0045323D02*
X0113933Y0045323D01*
X0114200Y0046921D02*
X0137304Y0046921D01*
X0138827Y0046921D02*
X0139392Y0046921D01*
X0140915Y0046921D02*
X0147654Y0046921D01*
X0146101Y0045323D02*
X0143080Y0045323D01*
X0143922Y0043724D02*
X0145438Y0043724D01*
X0139392Y0043724D02*
X0138827Y0043724D01*
X0138827Y0045323D02*
X0139392Y0045323D01*
X0139392Y0040527D02*
X0138827Y0040527D01*
X0138827Y0038929D02*
X0139392Y0038929D01*
X0134122Y0030936D02*
X0197919Y0030936D01*
X0197919Y0029337D02*
X0132524Y0029337D01*
X0129206Y0027739D02*
X0188838Y0027739D01*
X0195562Y0027739D02*
X0197919Y0027739D01*
X0197919Y0038929D02*
X0189101Y0038929D01*
X0189805Y0040527D02*
X0197919Y0040527D01*
X0197919Y0042126D02*
X0190033Y0042126D01*
X0189867Y0043724D02*
X0197919Y0043724D01*
X0197919Y0045323D02*
X0189205Y0045323D01*
X0187651Y0046921D02*
X0197919Y0046921D01*
X0197919Y0058111D02*
X0018955Y0058111D01*
X0020553Y0059709D02*
X0197919Y0059709D01*
X0197919Y0061308D02*
X0020600Y0061308D01*
X0020600Y0062906D02*
X0197919Y0062906D01*
X0197919Y0064505D02*
X0020600Y0064505D01*
X0019141Y0066103D02*
X0197919Y0066103D01*
X0197919Y0067702D02*
X0018546Y0067702D01*
X0020144Y0069300D02*
X0197919Y0069300D01*
X0197919Y0070899D02*
X0020600Y0070899D01*
X0020600Y0072497D02*
X0197919Y0072497D01*
X0197919Y0074096D02*
X0020600Y0074096D01*
X0019550Y0075694D02*
X0197919Y0075694D01*
X0197919Y0077293D02*
X0018137Y0077293D01*
X0019735Y0078891D02*
X0197919Y0078891D01*
X0197919Y0080490D02*
X0020600Y0080490D01*
X0020600Y0082088D02*
X0160114Y0082088D01*
X0160435Y0081903D02*
X0163245Y0081150D01*
X0166155Y0081150D01*
X0168965Y0081903D01*
X0171485Y0083358D01*
X0173542Y0085415D01*
X0174997Y0087935D01*
X0175750Y0090745D01*
X0175750Y0093655D01*
X0174997Y0096465D01*
X0173542Y0098985D01*
X0171485Y0101042D01*
X0168965Y0102497D01*
X0166155Y0103250D01*
X0163245Y0103250D01*
X0160435Y0102497D01*
X0157915Y0101042D01*
X0155858Y0098985D01*
X0154491Y0096617D01*
X0154120Y0096988D01*
X0152044Y0097848D01*
X0149797Y0097848D01*
X0147721Y0096988D01*
X0146132Y0095399D01*
X0145272Y0093323D01*
X0145272Y0091077D01*
X0146132Y0089001D01*
X0147721Y0087412D01*
X0149797Y0086552D01*
X0152044Y0086552D01*
X0154120Y0087412D01*
X0154491Y0087783D01*
X0155858Y0085415D01*
X0157915Y0083358D01*
X0160435Y0081903D01*
X0157586Y0083687D02*
X0020600Y0083687D01*
X0019958Y0085285D02*
X0155988Y0085285D01*
X0155010Y0086884D02*
X0152845Y0086884D01*
X0148996Y0086884D02*
X0018360Y0086884D01*
X0019326Y0088482D02*
X0135688Y0088482D01*
X0135821Y0088350D02*
X0136464Y0087883D01*
X0137172Y0087522D01*
X0137927Y0087276D01*
X0138712Y0087152D01*
X0138827Y0087152D01*
X0138827Y0091917D01*
X0139392Y0091917D01*
X0139392Y0087152D01*
X0139507Y0087152D01*
X0140292Y0087276D01*
X0141047Y0087522D01*
X0141755Y0087883D01*
X0142398Y0088350D01*
X0142960Y0088911D01*
X0143427Y0089554D01*
X0143788Y0090262D01*
X0144033Y0091018D01*
X0144157Y0091803D01*
X0144157Y0091917D01*
X0139392Y0091917D01*
X0139392Y0092483D01*
X0138827Y0092483D01*
X0138827Y0097248D01*
X0138712Y0097248D01*
X0137927Y0097124D01*
X0137172Y0096878D01*
X0136464Y0096517D01*
X0135821Y0096050D01*
X0135259Y0095489D01*
X0134792Y0094846D01*
X0134431Y0094138D01*
X0134186Y0093382D01*
X0134061Y0092597D01*
X0134061Y0092483D01*
X0138827Y0092483D01*
X0138827Y0091917D01*
X0134061Y0091917D01*
X0134061Y0091803D01*
X0134186Y0091018D01*
X0134431Y0090262D01*
X0134792Y0089554D01*
X0135259Y0088911D01*
X0135821Y0088350D01*
X0134524Y0090081D02*
X0027672Y0090081D01*
X0029271Y0091679D02*
X0134081Y0091679D01*
X0134169Y0093278D02*
X0030869Y0093278D01*
X0032468Y0094876D02*
X0134814Y0094876D01*
X0136405Y0096475D02*
X0080071Y0096475D01*
X0081915Y0098073D02*
X0155332Y0098073D01*
X0156545Y0099672D02*
X0083513Y0099672D01*
X0085112Y0101270D02*
X0158311Y0101270D01*
X0161823Y0102869D02*
X0086710Y0102869D01*
X0088309Y0104468D02*
X0197919Y0104468D01*
X0197919Y0106066D02*
X0089907Y0106066D01*
X0091506Y0107665D02*
X0197919Y0107665D01*
X0197919Y0109263D02*
X0093104Y0109263D01*
X0094703Y0110862D02*
X0197919Y0110862D01*
X0197919Y0112460D02*
X0096301Y0112460D01*
X0097900Y0114059D02*
X0197919Y0114059D01*
X0197919Y0115657D02*
X0099498Y0115657D01*
X0100602Y0117256D02*
X0197919Y0117256D01*
X0197919Y0118854D02*
X0100800Y0118854D01*
X0100800Y0120453D02*
X0197919Y0120453D01*
X0197919Y0122051D02*
X0100800Y0122051D01*
X0100800Y0123650D02*
X0197919Y0123650D01*
X0197919Y0125248D02*
X0100800Y0125248D01*
X0100800Y0126847D02*
X0197919Y0126847D01*
X0197919Y0128445D02*
X0100800Y0128445D01*
X0100800Y0130044D02*
X0197919Y0130044D01*
X0197919Y0131642D02*
X0167992Y0131642D01*
X0168965Y0131903D02*
X0171485Y0133358D01*
X0173542Y0135415D01*
X0174997Y0137935D01*
X0175750Y0140745D01*
X0175750Y0143655D01*
X0174997Y0146465D01*
X0173542Y0148985D01*
X0171485Y0151042D01*
X0168965Y0152497D01*
X0166155Y0153250D01*
X0163245Y0153250D01*
X0160435Y0152497D01*
X0157915Y0151042D01*
X0155858Y0148985D01*
X0154491Y0146617D01*
X0154120Y0146988D01*
X0152044Y0147848D01*
X0149797Y0147848D01*
X0147721Y0146988D01*
X0146132Y0145399D01*
X0145272Y0143323D01*
X0145272Y0141077D01*
X0146132Y0139001D01*
X0147721Y0137412D01*
X0149797Y0136552D01*
X0152044Y0136552D01*
X0154120Y0137412D01*
X0154491Y0137783D01*
X0155858Y0135415D01*
X0157915Y0133358D01*
X0160435Y0131903D01*
X0163245Y0131150D01*
X0166155Y0131150D01*
X0168965Y0131903D01*
X0171282Y0133241D02*
X0197919Y0133241D01*
X0197919Y0134839D02*
X0172966Y0134839D01*
X0174133Y0136438D02*
X0197919Y0136438D01*
X0197919Y0138036D02*
X0188209Y0138036D01*
X0187584Y0137412D02*
X0189173Y0139001D01*
X0190033Y0141077D01*
X0190033Y0143323D01*
X0189173Y0145399D01*
X0187584Y0146988D01*
X0185509Y0147848D01*
X0183262Y0147848D01*
X0181186Y0146988D01*
X0179597Y0145399D01*
X0178737Y0143323D01*
X0178737Y0141077D01*
X0179597Y0139001D01*
X0181186Y0137412D01*
X0183262Y0136552D01*
X0185509Y0136552D01*
X0187584Y0137412D01*
X0189436Y0139635D02*
X0197919Y0139635D01*
X0197919Y0141233D02*
X0190033Y0141233D01*
X0190033Y0142832D02*
X0191573Y0142832D01*
X0192505Y0141900D02*
X0194500Y0141900D01*
X0194500Y0147000D01*
X0189400Y0147000D01*
X0189400Y0145005D01*
X0192505Y0141900D01*
X0194500Y0142832D02*
X0194900Y0142832D01*
X0194900Y0144430D02*
X0194500Y0144430D01*
X0194500Y0146029D02*
X0194900Y0146029D01*
X0194900Y0147627D02*
X0194500Y0147627D01*
X0194500Y0149226D02*
X0194900Y0149226D01*
X0194900Y0150824D02*
X0194500Y0150824D01*
X0194500Y0152423D02*
X0194900Y0152423D01*
X0194900Y0154021D02*
X0194500Y0154021D01*
X0194500Y0155620D02*
X0194900Y0155620D01*
X0194500Y0157218D02*
X0100800Y0157218D01*
X0100800Y0155620D02*
X0189400Y0155620D01*
X0190383Y0154021D02*
X0100800Y0154021D01*
X0100800Y0152423D02*
X0160307Y0152423D01*
X0157697Y0150824D02*
X0100800Y0150824D01*
X0100800Y0149226D02*
X0156099Y0149226D01*
X0155074Y0147627D02*
X0152577Y0147627D01*
X0149264Y0147627D02*
X0100800Y0147627D01*
X0100800Y0146029D02*
X0135799Y0146029D01*
X0135821Y0146050D02*
X0135259Y0145489D01*
X0134792Y0144846D01*
X0134431Y0144138D01*
X0134186Y0143382D01*
X0134061Y0142597D01*
X0134061Y0142483D01*
X0138827Y0142483D01*
X0138827Y0147248D01*
X0138712Y0147248D01*
X0137927Y0147124D01*
X0137172Y0146878D01*
X0136464Y0146517D01*
X0135821Y0146050D01*
X0134580Y0144430D02*
X0100800Y0144430D01*
X0100800Y0142832D02*
X0134099Y0142832D01*
X0134061Y0141917D02*
X0134061Y0141803D01*
X0134186Y0141018D01*
X0134431Y0140262D01*
X0134792Y0139554D01*
X0135259Y0138911D01*
X0135821Y0138350D01*
X0136464Y0137883D01*
X0137172Y0137522D01*
X0137927Y0137276D01*
X0138712Y0137152D01*
X0138827Y0137152D01*
X0138827Y0141917D01*
X0139392Y0141917D01*
X0139392Y0137152D01*
X0139507Y0137152D01*
X0140292Y0137276D01*
X0141047Y0137522D01*
X0141755Y0137883D01*
X0142398Y0138350D01*
X0142960Y0138911D01*
X0143427Y0139554D01*
X0143788Y0140262D01*
X0144033Y0141018D01*
X0144157Y0141803D01*
X0144157Y0141917D01*
X0139392Y0141917D01*
X0139392Y0142483D01*
X0138827Y0142483D01*
X0138827Y0141917D01*
X0134061Y0141917D01*
X0134152Y0141233D02*
X0100800Y0141233D01*
X0100800Y0139635D02*
X0134751Y0139635D01*
X0136252Y0138036D02*
X0100800Y0138036D01*
X0100800Y0136438D02*
X0155267Y0136438D01*
X0156434Y0134839D02*
X0100800Y0134839D01*
X0100800Y0133241D02*
X0158118Y0133241D01*
X0161408Y0131642D02*
X0100800Y0131642D01*
X0100800Y0158817D02*
X0189400Y0158817D01*
X0190420Y0160415D02*
X0100800Y0160415D01*
X0100800Y0162014D02*
X0192019Y0162014D01*
X0190792Y0163612D02*
X0100800Y0163612D01*
X0100800Y0165211D02*
X0189400Y0165211D01*
X0189400Y0166809D02*
X0100800Y0166809D01*
X0100800Y0168408D02*
X0189400Y0168408D01*
X0190011Y0170006D02*
X0100800Y0170006D01*
X0100800Y0171605D02*
X0191610Y0171605D01*
X0191201Y0173203D02*
X0100800Y0173203D01*
X0100800Y0174802D02*
X0189603Y0174802D01*
X0189400Y0176401D02*
X0100800Y0176401D01*
X0100800Y0177999D02*
X0103394Y0177999D01*
X0106006Y0177999D02*
X0189400Y0177999D01*
X0189602Y0179598D02*
X0108293Y0179598D01*
X0109026Y0181196D02*
X0163073Y0181196D01*
X0163245Y0181150D02*
X0166155Y0181150D01*
X0168965Y0181903D01*
X0171485Y0183358D01*
X0173542Y0185415D01*
X0174997Y0187935D01*
X0175750Y0190745D01*
X0175750Y0193655D01*
X0174997Y0196465D01*
X0173542Y0198985D01*
X0171485Y0201042D01*
X0168965Y0202497D01*
X0166155Y0203250D01*
X0163245Y0203250D01*
X0160435Y0202497D01*
X0157915Y0201042D01*
X0155858Y0198985D01*
X0154491Y0196617D01*
X0154120Y0196988D01*
X0152044Y0197848D01*
X0149797Y0197848D01*
X0147721Y0196988D01*
X0146132Y0195399D01*
X0145272Y0193323D01*
X0145272Y0191077D01*
X0146132Y0189001D01*
X0147721Y0187412D01*
X0149797Y0186552D01*
X0152044Y0186552D01*
X0154120Y0187412D01*
X0154491Y0187783D01*
X0155858Y0185415D01*
X0157915Y0183358D01*
X0160435Y0181903D01*
X0163245Y0181150D01*
X0166327Y0181196D02*
X0191201Y0181196D01*
X0191610Y0182795D02*
X0170509Y0182795D01*
X0172520Y0184393D02*
X0190012Y0184393D01*
X0189400Y0185992D02*
X0173875Y0185992D01*
X0174798Y0187590D02*
X0181007Y0187590D01*
X0181186Y0187412D02*
X0183262Y0186552D01*
X0185509Y0186552D01*
X0187584Y0187412D01*
X0189173Y0189001D01*
X0190033Y0191077D01*
X0190033Y0193323D01*
X0189173Y0195399D01*
X0187584Y0196988D01*
X0185509Y0197848D01*
X0183262Y0197848D01*
X0181186Y0196988D01*
X0179597Y0195399D01*
X0178737Y0193323D01*
X0178737Y0191077D01*
X0179597Y0189001D01*
X0181186Y0187412D01*
X0179519Y0189189D02*
X0175333Y0189189D01*
X0175750Y0190787D02*
X0178857Y0190787D01*
X0178737Y0192386D02*
X0175750Y0192386D01*
X0175662Y0193984D02*
X0179011Y0193984D01*
X0179780Y0195583D02*
X0175233Y0195583D01*
X0174584Y0197181D02*
X0181652Y0197181D01*
X0187118Y0197181D02*
X0194500Y0197181D01*
X0194500Y0195583D02*
X0194900Y0195583D01*
X0194900Y0193984D02*
X0194500Y0193984D01*
X0194500Y0192386D02*
X0194900Y0192386D01*
X0194900Y0190787D02*
X0194500Y0190787D01*
X0194500Y0189189D02*
X0194900Y0189189D01*
X0194900Y0187590D02*
X0194500Y0187590D01*
X0194500Y0185992D02*
X0194900Y0185992D01*
X0194900Y0184393D02*
X0194500Y0184393D01*
X0194500Y0182795D02*
X0194900Y0182795D01*
X0194900Y0181196D02*
X0194500Y0181196D01*
X0194500Y0179598D02*
X0194900Y0179598D01*
X0194900Y0177999D02*
X0194500Y0177999D01*
X0194500Y0176401D02*
X0194900Y0176401D01*
X0194900Y0174802D02*
X0194500Y0174802D01*
X0194500Y0173203D02*
X0194900Y0173203D01*
X0194900Y0171605D02*
X0194500Y0171605D01*
X0194500Y0170006D02*
X0194900Y0170006D01*
X0194900Y0168408D02*
X0194500Y0168408D01*
X0194500Y0166809D02*
X0194900Y0166809D01*
X0194900Y0165211D02*
X0194500Y0165211D01*
X0194500Y0163612D02*
X0194900Y0163612D01*
X0194900Y0162014D02*
X0194500Y0162014D01*
X0194500Y0160415D02*
X0194900Y0160415D01*
X0194900Y0158817D02*
X0194500Y0158817D01*
X0191982Y0152423D02*
X0169093Y0152423D01*
X0171703Y0150824D02*
X0190829Y0150824D01*
X0189400Y0149226D02*
X0173301Y0149226D01*
X0174326Y0147627D02*
X0182729Y0147627D01*
X0180226Y0146029D02*
X0175114Y0146029D01*
X0175542Y0144430D02*
X0179195Y0144430D01*
X0178737Y0142832D02*
X0175750Y0142832D01*
X0175750Y0141233D02*
X0178737Y0141233D01*
X0179334Y0139635D02*
X0175452Y0139635D01*
X0175024Y0138036D02*
X0180561Y0138036D01*
X0186041Y0147627D02*
X0189400Y0147627D01*
X0189400Y0146029D02*
X0188544Y0146029D01*
X0189575Y0144430D02*
X0189974Y0144430D01*
X0197827Y0142832D02*
X0197919Y0142832D01*
X0197919Y0102869D02*
X0167577Y0102869D01*
X0171089Y0101270D02*
X0197919Y0101270D01*
X0197919Y0099672D02*
X0172855Y0099672D01*
X0174068Y0098073D02*
X0197919Y0098073D01*
X0197919Y0096475D02*
X0188098Y0096475D01*
X0187584Y0096988D02*
X0185509Y0097848D01*
X0183262Y0097848D01*
X0181186Y0096988D01*
X0179597Y0095399D01*
X0178737Y0093323D01*
X0178737Y0091077D01*
X0179597Y0089001D01*
X0181186Y0087412D01*
X0183262Y0086552D01*
X0185509Y0086552D01*
X0187584Y0087412D01*
X0189173Y0089001D01*
X0190033Y0091077D01*
X0190033Y0093323D01*
X0189173Y0095399D01*
X0187584Y0096988D01*
X0189390Y0094876D02*
X0197919Y0094876D01*
X0197919Y0093278D02*
X0190033Y0093278D01*
X0190033Y0091679D02*
X0197919Y0091679D01*
X0197919Y0090081D02*
X0189621Y0090081D01*
X0188655Y0088482D02*
X0197919Y0088482D01*
X0197919Y0086884D02*
X0186310Y0086884D01*
X0182460Y0086884D02*
X0174390Y0086884D01*
X0175144Y0088482D02*
X0180115Y0088482D01*
X0179149Y0090081D02*
X0175572Y0090081D01*
X0175750Y0091679D02*
X0178737Y0091679D01*
X0178737Y0093278D02*
X0175750Y0093278D01*
X0175423Y0094876D02*
X0179380Y0094876D01*
X0180672Y0096475D02*
X0174991Y0096475D01*
X0173412Y0085285D02*
X0197919Y0085285D01*
X0197919Y0083687D02*
X0171814Y0083687D01*
X0169286Y0082088D02*
X0197919Y0082088D01*
X0159083Y0051717D02*
X0111944Y0051717D01*
X0113419Y0050118D02*
X0156991Y0050118D01*
X0155589Y0048520D02*
X0114082Y0048520D01*
X0113185Y0043724D02*
X0121738Y0043724D01*
X0105614Y0042126D02*
X0101585Y0042126D01*
X0103385Y0043724D02*
X0103815Y0043724D01*
X0104868Y0038929D02*
X0102332Y0038929D01*
X0103197Y0030936D02*
X0104003Y0030936D01*
X0106069Y0029337D02*
X0101131Y0029337D01*
X0102144Y0051717D02*
X0105056Y0051717D01*
X0073414Y0117256D02*
X0018099Y0117256D01*
X0019215Y0146029D02*
X0028438Y0146029D01*
X0030036Y0147627D02*
X0017617Y0147627D01*
X0011783Y0147627D02*
X0010300Y0147627D01*
X0010300Y0149226D02*
X0031100Y0149226D01*
X0031100Y0150824D02*
X0010300Y0150824D01*
X0010300Y0152423D02*
X0031100Y0152423D01*
X0031100Y0154021D02*
X0010300Y0154021D01*
X0010300Y0155620D02*
X0031100Y0155620D01*
X0031100Y0157218D02*
X0010300Y0157218D01*
X0010300Y0158817D02*
X0031100Y0158817D01*
X0031100Y0160415D02*
X0010300Y0160415D01*
X0010300Y0162014D02*
X0031100Y0162014D01*
X0031100Y0163612D02*
X0010300Y0163612D01*
X0010300Y0165211D02*
X0031100Y0165211D01*
X0031100Y0166809D02*
X0017653Y0166809D01*
X0019252Y0168408D02*
X0031100Y0168408D01*
X0031100Y0170006D02*
X0020600Y0170006D01*
X0020600Y0171605D02*
X0031100Y0171605D01*
X0031100Y0173203D02*
X0020600Y0173203D01*
X0020442Y0174802D02*
X0031100Y0174802D01*
X0031100Y0176401D02*
X0018843Y0176401D01*
X0018843Y0177999D02*
X0031100Y0177999D01*
X0031100Y0179598D02*
X0020441Y0179598D01*
X0020600Y0181196D02*
X0031100Y0181196D01*
X0031100Y0182795D02*
X0020600Y0182795D01*
X0020600Y0184393D02*
X0031100Y0184393D01*
X0031100Y0185992D02*
X0019252Y0185992D01*
X0018434Y0187590D02*
X0031100Y0187590D01*
X0031100Y0189189D02*
X0020032Y0189189D01*
X0020600Y0190787D02*
X0031100Y0190787D01*
X0031100Y0192386D02*
X0020600Y0192386D01*
X0020600Y0193984D02*
X0031100Y0193984D01*
X0031100Y0195583D02*
X0019661Y0195583D01*
X0018063Y0197181D02*
X0031100Y0197181D01*
X0031100Y0198780D02*
X0019624Y0198780D01*
X0020600Y0200378D02*
X0031100Y0200378D01*
X0031100Y0201977D02*
X0020600Y0201977D01*
X0020600Y0203575D02*
X0031100Y0203575D01*
X0031100Y0205174D02*
X0020070Y0205174D01*
X0018472Y0206772D02*
X0031100Y0206772D01*
X0031100Y0208371D02*
X0019215Y0208371D01*
X0020600Y0209969D02*
X0031100Y0209969D01*
X0031100Y0211568D02*
X0020600Y0211568D01*
X0020600Y0213166D02*
X0031100Y0213166D01*
X0031100Y0214765D02*
X0020479Y0214765D01*
X0018881Y0216363D02*
X0031100Y0216363D01*
X0031100Y0217962D02*
X0018806Y0217962D01*
X0020404Y0219560D02*
X0031100Y0219560D01*
X0031100Y0221159D02*
X0020600Y0221159D01*
X0020600Y0222757D02*
X0031100Y0222757D01*
X0031100Y0224356D02*
X0020600Y0224356D01*
X0019289Y0225954D02*
X0031100Y0225954D01*
X0031100Y0227553D02*
X0018397Y0227553D01*
X0019995Y0229151D02*
X0031100Y0229151D01*
X0031100Y0230750D02*
X0020600Y0230750D01*
X0020600Y0232348D02*
X0031100Y0232348D01*
X0031100Y0233947D02*
X0020600Y0233947D01*
X0019698Y0235545D02*
X0031100Y0235545D01*
X0031100Y0237144D02*
X0018100Y0237144D01*
X0019586Y0238742D02*
X0031100Y0238742D01*
X0031100Y0240341D02*
X0020600Y0240341D01*
X0020600Y0241939D02*
X0031100Y0241939D01*
X0031100Y0243538D02*
X0020600Y0243538D01*
X0020107Y0245137D02*
X0031100Y0245137D01*
X0031100Y0246735D02*
X0018509Y0246735D01*
X0019177Y0248334D02*
X0031100Y0248334D01*
X0031100Y0249932D02*
X0020600Y0249932D01*
X0020600Y0251531D02*
X0031100Y0251531D01*
X0031100Y0253129D02*
X0020600Y0253129D01*
X0020516Y0254728D02*
X0031100Y0254728D01*
X0031100Y0256326D02*
X0018918Y0256326D01*
X0018768Y0257925D02*
X0031100Y0257925D01*
X0031100Y0259523D02*
X0020367Y0259523D01*
X0020600Y0261122D02*
X0031100Y0261122D01*
X0031100Y0262720D02*
X0020600Y0262720D01*
X0020600Y0264319D02*
X0031100Y0264319D01*
X0031100Y0265917D02*
X0019327Y0265917D01*
X0017728Y0267516D02*
X0031100Y0267516D01*
X0031100Y0269114D02*
X0010300Y0269114D01*
X0010300Y0267516D02*
X0011672Y0267516D01*
X0010300Y0270713D02*
X0031100Y0270713D01*
X0031100Y0272311D02*
X0010300Y0272311D01*
X0010300Y0273910D02*
X0031100Y0273910D01*
X0031100Y0275508D02*
X0010300Y0275508D01*
X0010300Y0277107D02*
X0031100Y0277107D01*
X0031100Y0278705D02*
X0010300Y0278705D01*
X0010300Y0280304D02*
X0031100Y0280304D01*
X0031100Y0281902D02*
X0010300Y0281902D01*
X0010300Y0283501D02*
X0031100Y0283501D01*
X0030565Y0285099D02*
X0010300Y0285099D01*
X0010300Y0286698D02*
X0029520Y0286698D01*
X0029052Y0288296D02*
X0010300Y0288296D01*
X0010300Y0289895D02*
X0029052Y0289895D01*
X0029052Y0291493D02*
X0010300Y0291493D01*
X0010300Y0293092D02*
X0029052Y0293092D01*
X0029052Y0294690D02*
X0010300Y0294690D01*
X0010300Y0296289D02*
X0029052Y0296289D01*
X0029597Y0297887D02*
X0010300Y0297887D01*
X0010300Y0299486D02*
X0030750Y0299486D01*
X0033548Y0301084D02*
X0010300Y0301084D01*
X0010300Y0302683D02*
X0061100Y0302683D01*
X0061100Y0304281D02*
X0010300Y0304281D01*
X0010300Y0305880D02*
X0061100Y0305880D01*
X0060795Y0307478D02*
X0028605Y0307478D01*
X0028155Y0307029D02*
X0029871Y0308745D01*
X0030800Y0310987D01*
X0030800Y0313413D01*
X0029871Y0315655D01*
X0028155Y0317371D01*
X0025913Y0318300D01*
X0023487Y0318300D01*
X0021245Y0317371D01*
X0019529Y0315655D01*
X0018600Y0313413D01*
X0018600Y0310987D01*
X0019529Y0308745D01*
X0021245Y0307029D01*
X0023487Y0306100D01*
X0025913Y0306100D01*
X0028155Y0307029D01*
X0030009Y0309077D02*
X0059391Y0309077D01*
X0058729Y0310675D02*
X0030671Y0310675D01*
X0030800Y0312274D02*
X0058600Y0312274D01*
X0058790Y0313872D02*
X0030610Y0313872D01*
X0029948Y0315471D02*
X0059452Y0315471D01*
X0060943Y0317070D02*
X0028457Y0317070D01*
X0020943Y0317070D02*
X0010300Y0317070D01*
X0010300Y0318668D02*
X0067350Y0318668D01*
X0067350Y0320267D02*
X0010300Y0320267D01*
X0010300Y0321865D02*
X0067350Y0321865D01*
X0067350Y0323464D02*
X0010300Y0323464D01*
X0010300Y0325062D02*
X0067350Y0325062D01*
X0067350Y0326661D02*
X0010300Y0326661D01*
X0010300Y0328259D02*
X0067350Y0328259D01*
X0067350Y0329858D02*
X0010300Y0329858D01*
X0010300Y0331456D02*
X0042103Y0331456D01*
X0043245Y0331150D02*
X0046155Y0331150D01*
X0048965Y0331903D01*
X0051485Y0333358D01*
X0053542Y0335415D01*
X0054997Y0337935D01*
X0055750Y0340745D01*
X0055750Y0343655D01*
X0054997Y0346465D01*
X0053542Y0348985D01*
X0051485Y0351042D01*
X0048965Y0352497D01*
X0046155Y0353250D01*
X0043245Y0353250D01*
X0040435Y0352497D01*
X0037915Y0351042D01*
X0035858Y0348985D01*
X0034491Y0346617D01*
X0034120Y0346988D01*
X0032044Y0347848D01*
X0029797Y0347848D01*
X0027721Y0346988D01*
X0026132Y0345399D01*
X0025272Y0343323D01*
X0025272Y0341077D01*
X0026132Y0339001D01*
X0027721Y0337412D01*
X0029797Y0336552D01*
X0032044Y0336552D01*
X0034120Y0337412D01*
X0034491Y0337783D01*
X0035858Y0335415D01*
X0037915Y0333358D01*
X0040435Y0331903D01*
X0043245Y0331150D01*
X0047297Y0331456D02*
X0067350Y0331456D01*
X0067350Y0333055D02*
X0050960Y0333055D01*
X0052780Y0334653D02*
X0067350Y0334653D01*
X0067350Y0336252D02*
X0054025Y0336252D01*
X0054948Y0337850D02*
X0060747Y0337850D01*
X0059411Y0339449D02*
X0055403Y0339449D01*
X0055750Y0341047D02*
X0058749Y0341047D01*
X0058737Y0342646D02*
X0055750Y0342646D01*
X0055592Y0344244D02*
X0059118Y0344244D01*
X0060040Y0345843D02*
X0055164Y0345843D01*
X0054433Y0347441D02*
X0062279Y0347441D01*
X0066491Y0347441D02*
X0067350Y0347441D01*
X0067350Y0349040D02*
X0053487Y0349040D01*
X0051889Y0350638D02*
X0067350Y0350638D01*
X0067350Y0352237D02*
X0049416Y0352237D01*
X0048276Y0360229D02*
X0050967Y0360229D01*
X0050136Y0368222D02*
X0049107Y0368222D01*
X0048300Y0369820D02*
X0051734Y0369820D01*
X0049010Y0371419D02*
X0065390Y0371419D01*
X0063791Y0373017D02*
X0050609Y0373017D01*
X0046820Y0379411D02*
X0010300Y0379411D01*
X0010300Y0377813D02*
X0045222Y0377813D01*
X0043623Y0376214D02*
X0010300Y0376214D01*
X0010300Y0374616D02*
X0042025Y0374616D01*
X0041142Y0373017D02*
X0010300Y0373017D01*
X0010300Y0371419D02*
X0041100Y0371419D01*
X0041100Y0369820D02*
X0010300Y0369820D01*
X0010300Y0368222D02*
X0029835Y0368222D01*
X0029809Y0366623D02*
X0010300Y0366623D01*
X0010300Y0365025D02*
X0029809Y0365025D01*
X0029809Y0364358D02*
X0029809Y0361156D01*
X0029932Y0360698D01*
X0030169Y0360288D01*
X0030504Y0359953D01*
X0030915Y0359716D01*
X0031372Y0359593D01*
X0034575Y0359593D01*
X0034575Y0364358D01*
X0029809Y0364358D01*
X0029809Y0363426D02*
X0010300Y0363426D01*
X0010300Y0361828D02*
X0029809Y0361828D01*
X0030227Y0360229D02*
X0010300Y0360229D01*
X0010300Y0358631D02*
X0067350Y0358631D01*
X0067350Y0360229D02*
X0058118Y0360229D01*
X0059717Y0361828D02*
X0067350Y0361828D01*
X0067350Y0363426D02*
X0060191Y0363426D01*
X0060191Y0365025D02*
X0067350Y0365025D01*
X0067350Y0366623D02*
X0060191Y0366623D01*
X0058949Y0368222D02*
X0067350Y0368222D01*
X0066988Y0369820D02*
X0057351Y0369820D01*
X0055805Y0383666D02*
X0054923Y0384032D01*
X0054248Y0384707D01*
X0053883Y0385589D01*
X0053883Y0398811D01*
X0054248Y0399693D01*
X0054923Y0400368D01*
X0055805Y0400734D01*
X0069028Y0400734D01*
X0069910Y0400368D01*
X0070585Y0399693D01*
X0070950Y0398811D01*
X0070950Y0385589D01*
X0070585Y0384707D01*
X0069910Y0384032D01*
X0069028Y0383666D01*
X0055805Y0383666D01*
X0054748Y0384207D02*
X0034652Y0384207D01*
X0034477Y0384032D02*
X0035152Y0384707D01*
X0035517Y0385589D01*
X0035517Y0398811D01*
X0035152Y0399693D01*
X0034477Y0400368D01*
X0033595Y0400734D01*
X0020372Y0400734D01*
X0019490Y0400368D01*
X0018815Y0399693D01*
X0018450Y0398811D01*
X0018450Y0385589D01*
X0018815Y0384707D01*
X0019490Y0384032D01*
X0020372Y0383666D01*
X0033595Y0383666D01*
X0034477Y0384032D01*
X0035517Y0385805D02*
X0053883Y0385805D01*
X0053883Y0387404D02*
X0035517Y0387404D01*
X0035517Y0389003D02*
X0053883Y0389003D01*
X0053883Y0390601D02*
X0035517Y0390601D01*
X0035517Y0392200D02*
X0053883Y0392200D01*
X0053883Y0393798D02*
X0035517Y0393798D01*
X0035517Y0395397D02*
X0053883Y0395397D01*
X0053883Y0396995D02*
X0035517Y0396995D01*
X0035517Y0398594D02*
X0053883Y0398594D01*
X0054747Y0400192D02*
X0034653Y0400192D01*
X0025251Y0411382D02*
X0181649Y0411382D01*
X0181221Y0412980D02*
X0025679Y0412980D01*
X0025750Y0414579D02*
X0181150Y0414579D01*
X0181156Y0416177D02*
X0025744Y0416177D01*
X0025316Y0417776D02*
X0181584Y0417776D01*
X0182279Y0409783D02*
X0024621Y0409783D01*
X0023698Y0408185D02*
X0183202Y0408185D01*
X0184687Y0406586D02*
X0022213Y0406586D01*
X0019978Y0404988D02*
X0186922Y0404988D01*
X0185509Y0397848D02*
X0183262Y0397848D01*
X0181186Y0396988D01*
X0179597Y0395399D01*
X0178737Y0393323D01*
X0178737Y0391077D01*
X0179597Y0389001D01*
X0181186Y0387412D01*
X0183262Y0386552D01*
X0185509Y0386552D01*
X0187584Y0387412D01*
X0189173Y0389001D01*
X0190033Y0391077D01*
X0190033Y0393323D01*
X0189173Y0395399D01*
X0187584Y0396988D01*
X0185509Y0397848D01*
X0187568Y0396995D02*
X0197919Y0396995D01*
X0197919Y0395397D02*
X0189174Y0395397D01*
X0189836Y0393798D02*
X0197919Y0393798D01*
X0197919Y0392200D02*
X0190033Y0392200D01*
X0189836Y0390601D02*
X0197919Y0390601D01*
X0197919Y0389003D02*
X0189174Y0389003D01*
X0187566Y0387404D02*
X0197919Y0387404D01*
X0197919Y0385805D02*
X0173768Y0385805D01*
X0173542Y0385415D02*
X0174997Y0387935D01*
X0175750Y0390745D01*
X0175750Y0393655D01*
X0174997Y0396465D01*
X0173542Y0398985D01*
X0171485Y0401042D01*
X0168965Y0402497D01*
X0166155Y0403250D01*
X0163245Y0403250D01*
X0160435Y0402497D01*
X0157915Y0401042D01*
X0155858Y0398985D01*
X0154491Y0396617D01*
X0154120Y0396988D01*
X0152044Y0397848D01*
X0149797Y0397848D01*
X0147721Y0396988D01*
X0146132Y0395399D01*
X0145272Y0393323D01*
X0145272Y0391077D01*
X0146132Y0389001D01*
X0147721Y0387412D01*
X0149797Y0386552D01*
X0152044Y0386552D01*
X0154120Y0387412D01*
X0154491Y0387783D01*
X0155858Y0385415D01*
X0157915Y0383358D01*
X0160435Y0381903D01*
X0163245Y0381150D01*
X0166155Y0381150D01*
X0168965Y0381903D01*
X0171485Y0383358D01*
X0173542Y0385415D01*
X0172334Y0384207D02*
X0197919Y0384207D01*
X0197919Y0382608D02*
X0170187Y0382608D01*
X0174690Y0387404D02*
X0181205Y0387404D01*
X0179596Y0389003D02*
X0175283Y0389003D01*
X0175711Y0390601D02*
X0178934Y0390601D01*
X0178737Y0392200D02*
X0175750Y0392200D01*
X0175712Y0393798D02*
X0178934Y0393798D01*
X0179596Y0395397D02*
X0175283Y0395397D01*
X0174691Y0396995D02*
X0181202Y0396995D01*
X0173768Y0398594D02*
X0197919Y0398594D01*
X0197919Y0400192D02*
X0172335Y0400192D01*
X0170189Y0401791D02*
X0197919Y0401791D01*
X0197919Y0403389D02*
X0010300Y0403389D01*
X0010300Y0401791D02*
X0159211Y0401791D01*
X0157065Y0400192D02*
X0130086Y0400192D01*
X0129910Y0400368D02*
X0129028Y0400734D01*
X0115805Y0400734D01*
X0114923Y0400368D01*
X0114248Y0399693D01*
X0113883Y0398811D01*
X0113883Y0385589D01*
X0114248Y0384707D01*
X0114923Y0384032D01*
X0115805Y0383666D01*
X0129028Y0383666D01*
X0129910Y0384032D01*
X0130585Y0384707D01*
X0130950Y0385589D01*
X0130950Y0398811D01*
X0130585Y0399693D01*
X0129910Y0400368D01*
X0130950Y0398594D02*
X0155632Y0398594D01*
X0154709Y0396995D02*
X0154103Y0396995D01*
X0154101Y0387404D02*
X0154710Y0387404D01*
X0155632Y0385805D02*
X0130950Y0385805D01*
X0130950Y0387404D02*
X0137534Y0387404D01*
X0137172Y0387522D02*
X0137927Y0387276D01*
X0138712Y0387152D01*
X0138827Y0387152D01*
X0138827Y0391917D01*
X0139392Y0391917D01*
X0139392Y0387152D01*
X0139507Y0387152D01*
X0140292Y0387276D01*
X0141047Y0387522D01*
X0141755Y0387883D01*
X0142398Y0388350D01*
X0142960Y0388911D01*
X0143427Y0389554D01*
X0143788Y0390262D01*
X0144033Y0391018D01*
X0144157Y0391803D01*
X0144157Y0391917D01*
X0139392Y0391917D01*
X0139392Y0392483D01*
X0138827Y0392483D01*
X0138827Y0397248D01*
X0138712Y0397248D01*
X0137927Y0397124D01*
X0137172Y0396878D01*
X0136464Y0396517D01*
X0135821Y0396050D01*
X0135259Y0395489D01*
X0134792Y0394846D01*
X0134431Y0394138D01*
X0134186Y0393382D01*
X0134061Y0392597D01*
X0134061Y0392483D01*
X0138827Y0392483D01*
X0138827Y0391917D01*
X0134061Y0391917D01*
X0134061Y0391803D01*
X0134186Y0391018D01*
X0134431Y0390262D01*
X0134792Y0389554D01*
X0135259Y0388911D01*
X0135821Y0388350D01*
X0136464Y0387883D01*
X0137172Y0387522D01*
X0138827Y0387404D02*
X0139392Y0387404D01*
X0140685Y0387404D02*
X0147740Y0387404D01*
X0146132Y0389003D02*
X0143026Y0389003D01*
X0143898Y0390601D02*
X0145469Y0390601D01*
X0145272Y0392200D02*
X0139392Y0392200D01*
X0139392Y0392483D02*
X0144157Y0392483D01*
X0144157Y0392597D01*
X0144033Y0393382D01*
X0143788Y0394138D01*
X0143427Y0394846D01*
X0142960Y0395489D01*
X0142398Y0396050D01*
X0141755Y0396517D01*
X0141047Y0396878D01*
X0140292Y0397124D01*
X0139507Y0397248D01*
X0139392Y0397248D01*
X0139392Y0392483D01*
X0138827Y0392200D02*
X0130950Y0392200D01*
X0130950Y0393798D02*
X0134321Y0393798D01*
X0135192Y0395397D02*
X0130950Y0395397D01*
X0130950Y0396995D02*
X0137531Y0396995D01*
X0138827Y0396995D02*
X0139392Y0396995D01*
X0140687Y0396995D02*
X0147738Y0396995D01*
X0146131Y0395397D02*
X0143027Y0395397D01*
X0143898Y0393798D02*
X0145469Y0393798D01*
X0139392Y0393798D02*
X0138827Y0393798D01*
X0138827Y0395397D02*
X0139392Y0395397D01*
X0139392Y0390601D02*
X0138827Y0390601D01*
X0138827Y0389003D02*
X0139392Y0389003D01*
X0135193Y0389003D02*
X0130950Y0389003D01*
X0130950Y0390601D02*
X0134321Y0390601D01*
X0130085Y0384207D02*
X0157066Y0384207D01*
X0159213Y0382608D02*
X0010300Y0382608D01*
X0010300Y0381010D02*
X0197919Y0381010D01*
X0197919Y0379411D02*
X0130080Y0379411D01*
X0131678Y0377813D02*
X0197919Y0377813D01*
X0197919Y0376214D02*
X0133277Y0376214D01*
X0134875Y0374616D02*
X0197919Y0374616D01*
X0197919Y0373017D02*
X0135758Y0373017D01*
X0135800Y0371419D02*
X0197919Y0371419D01*
X0197919Y0369820D02*
X0135800Y0369820D01*
X0135800Y0368222D02*
X0197919Y0368222D01*
X0197919Y0366623D02*
X0135800Y0366623D01*
X0135800Y0365025D02*
X0197919Y0365025D01*
X0197919Y0363426D02*
X0135800Y0363426D01*
X0135800Y0361828D02*
X0197919Y0361828D01*
X0197919Y0360229D02*
X0135800Y0360229D01*
X0135800Y0358631D02*
X0197919Y0358631D01*
X0197919Y0357032D02*
X0135800Y0357032D01*
X0135800Y0355434D02*
X0197919Y0355434D01*
X0197919Y0353835D02*
X0135800Y0353835D01*
X0135800Y0352237D02*
X0159916Y0352237D01*
X0160435Y0352536D02*
X0157915Y0351082D01*
X0155858Y0349024D01*
X0154476Y0346632D01*
X0154120Y0346988D01*
X0152044Y0347848D01*
X0149797Y0347848D01*
X0147721Y0346988D01*
X0146132Y0345399D01*
X0145272Y0343323D01*
X0145272Y0341077D01*
X0146132Y0339001D01*
X0147721Y0337412D01*
X0149797Y0336552D01*
X0152044Y0336552D01*
X0154120Y0337412D01*
X0154505Y0337797D01*
X0155858Y0335455D01*
X0157915Y0333397D01*
X0160435Y0331942D01*
X0163245Y0331189D01*
X0166155Y0331189D01*
X0168965Y0331942D01*
X0171485Y0333397D01*
X0173542Y0335455D01*
X0174997Y0337974D01*
X0175750Y0340785D01*
X0175750Y0343694D01*
X0174997Y0346505D01*
X0173542Y0349024D01*
X0171485Y0351082D01*
X0168965Y0352536D01*
X0166155Y0353289D01*
X0163245Y0353289D01*
X0160435Y0352536D01*
X0157472Y0350638D02*
X0135800Y0350638D01*
X0135800Y0349040D02*
X0155873Y0349040D01*
X0154944Y0347441D02*
X0153026Y0347441D01*
X0148815Y0347441D02*
X0135800Y0347441D01*
X0138827Y0345843D02*
X0139392Y0345843D01*
X0139392Y0347248D02*
X0139392Y0342483D01*
X0144157Y0342483D01*
X0144157Y0342597D01*
X0144033Y0343382D01*
X0143788Y0344138D01*
X0143427Y0344846D01*
X0142960Y0345489D01*
X0142398Y0346050D01*
X0141755Y0346517D01*
X0141047Y0346878D01*
X0140292Y0347124D01*
X0139507Y0347248D01*
X0139392Y0347248D01*
X0139392Y0344244D02*
X0138827Y0344244D01*
X0138827Y0342646D02*
X0139392Y0342646D01*
X0139392Y0341047D02*
X0138827Y0341047D01*
X0138827Y0339449D02*
X0139392Y0339449D01*
X0139392Y0337850D02*
X0138827Y0337850D01*
X0136527Y0337850D02*
X0135800Y0337850D01*
X0135800Y0336252D02*
X0155398Y0336252D01*
X0156659Y0334653D02*
X0135800Y0334653D01*
X0135800Y0333055D02*
X0158508Y0333055D01*
X0162250Y0331456D02*
X0135800Y0331456D01*
X0135800Y0329858D02*
X0197919Y0329858D01*
X0197919Y0331456D02*
X0167150Y0331456D01*
X0170892Y0333055D02*
X0197919Y0333055D01*
X0197919Y0334653D02*
X0172741Y0334653D01*
X0174002Y0336252D02*
X0197919Y0336252D01*
X0197919Y0337850D02*
X0188023Y0337850D01*
X0187584Y0337412D02*
X0189173Y0339001D01*
X0190033Y0341077D01*
X0190033Y0343323D01*
X0189173Y0345399D01*
X0187584Y0346988D01*
X0185509Y0347848D01*
X0183262Y0347848D01*
X0181186Y0346988D01*
X0179597Y0345399D01*
X0178737Y0343323D01*
X0178737Y0341077D01*
X0179597Y0339001D01*
X0181186Y0337412D01*
X0183262Y0336552D01*
X0185509Y0336552D01*
X0187584Y0337412D01*
X0189359Y0339449D02*
X0197919Y0339449D01*
X0197919Y0341047D02*
X0190021Y0341047D01*
X0190033Y0342646D02*
X0197919Y0342646D01*
X0197919Y0344244D02*
X0189652Y0344244D01*
X0188730Y0345843D02*
X0197919Y0345843D01*
X0197919Y0347441D02*
X0186491Y0347441D01*
X0182279Y0347441D02*
X0174456Y0347441D01*
X0175174Y0345843D02*
X0180040Y0345843D01*
X0179118Y0344244D02*
X0175603Y0344244D01*
X0175750Y0342646D02*
X0178737Y0342646D01*
X0178749Y0341047D02*
X0175750Y0341047D01*
X0175392Y0339449D02*
X0179411Y0339449D01*
X0180747Y0337850D02*
X0174925Y0337850D01*
X0173527Y0349040D02*
X0197919Y0349040D01*
X0197919Y0350638D02*
X0171928Y0350638D01*
X0169484Y0352237D02*
X0197919Y0352237D01*
X0197919Y0328259D02*
X0135800Y0328259D01*
X0135800Y0326661D02*
X0197919Y0326661D01*
X0197919Y0325062D02*
X0135800Y0325062D01*
X0135800Y0323464D02*
X0197919Y0323464D01*
X0197919Y0321865D02*
X0135800Y0321865D01*
X0135800Y0320267D02*
X0197919Y0320267D01*
X0197919Y0318668D02*
X0135800Y0318668D01*
X0135800Y0317070D02*
X0197919Y0317070D01*
X0197919Y0315471D02*
X0135800Y0315471D01*
X0135800Y0313872D02*
X0197919Y0313872D01*
X0197919Y0312274D02*
X0135800Y0312274D01*
X0135800Y0310675D02*
X0197919Y0310675D01*
X0197919Y0309077D02*
X0135800Y0309077D01*
X0135800Y0307478D02*
X0197919Y0307478D01*
X0197919Y0305880D02*
X0135800Y0305880D01*
X0135800Y0304281D02*
X0197919Y0304281D01*
X0197919Y0302683D02*
X0168271Y0302683D01*
X0168965Y0302497D02*
X0166155Y0303250D01*
X0163245Y0303250D01*
X0160435Y0302497D01*
X0157915Y0301042D01*
X0155858Y0298985D01*
X0154491Y0296617D01*
X0154120Y0296988D01*
X0152044Y0297848D01*
X0149797Y0297848D01*
X0147721Y0296988D01*
X0146132Y0295399D01*
X0145272Y0293323D01*
X0145272Y0291077D01*
X0146132Y0289001D01*
X0147721Y0287412D01*
X0149797Y0286552D01*
X0152044Y0286552D01*
X0154120Y0287412D01*
X0154491Y0287783D01*
X0155858Y0285415D01*
X0157915Y0283358D01*
X0160435Y0281903D01*
X0163245Y0281150D01*
X0166155Y0281150D01*
X0168965Y0281903D01*
X0171485Y0283358D01*
X0173542Y0285415D01*
X0174997Y0287935D01*
X0175750Y0290745D01*
X0175750Y0293655D01*
X0174997Y0296465D01*
X0173542Y0298985D01*
X0171485Y0301042D01*
X0168965Y0302497D01*
X0171412Y0301084D02*
X0197919Y0301084D01*
X0197919Y0299486D02*
X0173041Y0299486D01*
X0174176Y0297887D02*
X0197919Y0297887D01*
X0197919Y0296289D02*
X0188284Y0296289D01*
X0187584Y0296988D02*
X0185509Y0297848D01*
X0183262Y0297848D01*
X0181186Y0296988D01*
X0179597Y0295399D01*
X0178737Y0293323D01*
X0178737Y0291077D01*
X0179597Y0289001D01*
X0181186Y0287412D01*
X0183262Y0286552D01*
X0185509Y0286552D01*
X0187584Y0287412D01*
X0189173Y0289001D01*
X0190033Y0291077D01*
X0190033Y0293323D01*
X0189173Y0295399D01*
X0187584Y0296988D01*
X0189467Y0294690D02*
X0197919Y0294690D01*
X0197919Y0293092D02*
X0190033Y0293092D01*
X0190033Y0291493D02*
X0197919Y0291493D01*
X0197919Y0289895D02*
X0189544Y0289895D01*
X0188469Y0288296D02*
X0197919Y0288296D01*
X0197919Y0286698D02*
X0185861Y0286698D01*
X0182909Y0286698D02*
X0174283Y0286698D01*
X0175094Y0288296D02*
X0180301Y0288296D01*
X0179226Y0289895D02*
X0175522Y0289895D01*
X0175750Y0291493D02*
X0178737Y0291493D01*
X0178737Y0293092D02*
X0175750Y0293092D01*
X0175473Y0294690D02*
X0179303Y0294690D01*
X0180486Y0296289D02*
X0175044Y0296289D01*
X0173226Y0285099D02*
X0197919Y0285099D01*
X0197919Y0283501D02*
X0171628Y0283501D01*
X0168962Y0281902D02*
X0197919Y0281902D01*
X0197919Y0280304D02*
X0135800Y0280304D01*
X0135800Y0281902D02*
X0160438Y0281902D01*
X0157772Y0283501D02*
X0135800Y0283501D01*
X0135800Y0285099D02*
X0156174Y0285099D01*
X0155117Y0286698D02*
X0152396Y0286698D01*
X0149445Y0286698D02*
X0135800Y0286698D01*
X0135800Y0288296D02*
X0135894Y0288296D01*
X0138827Y0288296D02*
X0139392Y0288296D01*
X0139392Y0289895D02*
X0138827Y0289895D01*
X0138827Y0291493D02*
X0139392Y0291493D01*
X0139392Y0292483D02*
X0144157Y0292483D01*
X0144157Y0292597D01*
X0144033Y0293382D01*
X0143788Y0294138D01*
X0143427Y0294846D01*
X0142960Y0295489D01*
X0142398Y0296050D01*
X0141755Y0296517D01*
X0141047Y0296878D01*
X0140292Y0297124D01*
X0139507Y0297248D01*
X0139392Y0297248D01*
X0139392Y0292483D01*
X0139392Y0293092D02*
X0138827Y0293092D01*
X0138827Y0294690D02*
X0139392Y0294690D01*
X0139392Y0296289D02*
X0138827Y0296289D01*
X0136149Y0296289D02*
X0135800Y0296289D01*
X0135800Y0297887D02*
X0155224Y0297887D01*
X0156359Y0299486D02*
X0135800Y0299486D01*
X0135800Y0301084D02*
X0157988Y0301084D01*
X0161129Y0302683D02*
X0135800Y0302683D01*
X0142070Y0296289D02*
X0147022Y0296289D01*
X0145839Y0294690D02*
X0143506Y0294690D01*
X0144079Y0293092D02*
X0145272Y0293092D01*
X0145272Y0291493D02*
X0144108Y0291493D01*
X0143600Y0289895D02*
X0145762Y0289895D01*
X0146837Y0288296D02*
X0142325Y0288296D01*
X0135800Y0278705D02*
X0197919Y0278705D01*
X0197919Y0277107D02*
X0135800Y0277107D01*
X0135800Y0275508D02*
X0197919Y0275508D01*
X0197919Y0273910D02*
X0135800Y0273910D01*
X0135800Y0272311D02*
X0197919Y0272311D01*
X0197919Y0270713D02*
X0135800Y0270713D01*
X0135800Y0269114D02*
X0197919Y0269114D01*
X0197919Y0267516D02*
X0135800Y0267516D01*
X0135800Y0265917D02*
X0197919Y0265917D01*
X0197919Y0264319D02*
X0135800Y0264319D01*
X0135800Y0262720D02*
X0197919Y0262720D01*
X0197919Y0261122D02*
X0135800Y0261122D01*
X0135800Y0259523D02*
X0197919Y0259523D01*
X0197919Y0257925D02*
X0135800Y0257925D01*
X0135735Y0256326D02*
X0197919Y0256326D01*
X0197919Y0254728D02*
X0134819Y0254728D01*
X0133220Y0253129D02*
X0162794Y0253129D01*
X0163245Y0253250D02*
X0160435Y0252497D01*
X0157915Y0251042D01*
X0155858Y0248985D01*
X0154491Y0246617D01*
X0154120Y0246988D01*
X0152044Y0247848D01*
X0149797Y0247848D01*
X0147721Y0246988D01*
X0146132Y0245399D01*
X0145272Y0243323D01*
X0145272Y0241077D01*
X0146132Y0239001D01*
X0147721Y0237412D01*
X0149797Y0236552D01*
X0152044Y0236552D01*
X0154120Y0237412D01*
X0154491Y0237783D01*
X0155858Y0235415D01*
X0157915Y0233358D01*
X0160435Y0231903D01*
X0163245Y0231150D01*
X0166155Y0231150D01*
X0168965Y0231903D01*
X0171485Y0233358D01*
X0173542Y0235415D01*
X0174997Y0237935D01*
X0175750Y0240745D01*
X0175750Y0243655D01*
X0174997Y0246465D01*
X0173542Y0248985D01*
X0171485Y0251042D01*
X0168965Y0252497D01*
X0166155Y0253250D01*
X0163245Y0253250D01*
X0166606Y0253129D02*
X0197919Y0253129D01*
X0197919Y0251531D02*
X0170639Y0251531D01*
X0172595Y0249932D02*
X0197919Y0249932D01*
X0197919Y0248334D02*
X0173918Y0248334D01*
X0174841Y0246735D02*
X0180933Y0246735D01*
X0181186Y0246988D02*
X0179597Y0245399D01*
X0178737Y0243323D01*
X0178737Y0241077D01*
X0179597Y0239001D01*
X0181186Y0237412D01*
X0183262Y0236552D01*
X0185509Y0236552D01*
X0187584Y0237412D01*
X0189173Y0239001D01*
X0190033Y0241077D01*
X0190033Y0243323D01*
X0189173Y0245399D01*
X0187584Y0246988D01*
X0185509Y0247848D01*
X0183262Y0247848D01*
X0181186Y0246988D01*
X0179488Y0245137D02*
X0175353Y0245137D01*
X0175750Y0243538D02*
X0178826Y0243538D01*
X0178737Y0241939D02*
X0175750Y0241939D01*
X0175642Y0240341D02*
X0179042Y0240341D01*
X0179855Y0238742D02*
X0175213Y0238742D01*
X0174540Y0237144D02*
X0181832Y0237144D01*
X0186938Y0237144D02*
X0194500Y0237144D01*
X0194500Y0238742D02*
X0194900Y0238742D01*
X0194900Y0240341D02*
X0194500Y0240341D01*
X0194500Y0241939D02*
X0194900Y0241939D01*
X0197456Y0241939D02*
X0197919Y0241939D01*
X0197919Y0243538D02*
X0189944Y0243538D01*
X0190033Y0241939D02*
X0191944Y0241939D01*
X0190346Y0240341D02*
X0189728Y0240341D01*
X0189400Y0238742D02*
X0188915Y0238742D01*
X0189400Y0235545D02*
X0173617Y0235545D01*
X0172074Y0233947D02*
X0190458Y0233947D01*
X0192056Y0232348D02*
X0169737Y0232348D01*
X0159663Y0232348D02*
X0108300Y0232348D01*
X0108300Y0230750D02*
X0190755Y0230750D01*
X0189400Y0229151D02*
X0108300Y0229151D01*
X0108300Y0227553D02*
X0189400Y0227553D01*
X0189400Y0225954D02*
X0108300Y0225954D01*
X0108300Y0224356D02*
X0190049Y0224356D01*
X0191647Y0222757D02*
X0108300Y0222757D01*
X0108300Y0221159D02*
X0191164Y0221159D01*
X0189565Y0219560D02*
X0108300Y0219560D01*
X0108300Y0217962D02*
X0189400Y0217962D01*
X0189400Y0216363D02*
X0108300Y0216363D01*
X0108300Y0214765D02*
X0189640Y0214765D01*
X0191238Y0213166D02*
X0108300Y0213166D01*
X0108300Y0211568D02*
X0191572Y0211568D01*
X0189974Y0209969D02*
X0108300Y0209969D01*
X0108300Y0208371D02*
X0189400Y0208371D01*
X0189400Y0206772D02*
X0108300Y0206772D01*
X0108300Y0205174D02*
X0189400Y0205174D01*
X0190829Y0203575D02*
X0108300Y0203575D01*
X0108300Y0201977D02*
X0159534Y0201977D01*
X0157251Y0200378D02*
X0108300Y0200378D01*
X0108300Y0198780D02*
X0155739Y0198780D01*
X0154816Y0197181D02*
X0153654Y0197181D01*
X0154298Y0187590D02*
X0154602Y0187590D01*
X0155525Y0185992D02*
X0108300Y0185992D01*
X0108300Y0187590D02*
X0137038Y0187590D01*
X0137172Y0187522D02*
X0137927Y0187276D01*
X0138712Y0187152D01*
X0138827Y0187152D01*
X0138827Y0191917D01*
X0139392Y0191917D01*
X0139392Y0187152D01*
X0139507Y0187152D01*
X0140292Y0187276D01*
X0141047Y0187522D01*
X0141755Y0187883D01*
X0142398Y0188350D01*
X0142960Y0188911D01*
X0143427Y0189554D01*
X0143788Y0190262D01*
X0144033Y0191018D01*
X0144157Y0191803D01*
X0144157Y0191917D01*
X0139392Y0191917D01*
X0139392Y0192483D01*
X0138827Y0192483D01*
X0138827Y0197248D01*
X0138712Y0197248D01*
X0137927Y0197124D01*
X0137172Y0196878D01*
X0136464Y0196517D01*
X0135821Y0196050D01*
X0135259Y0195489D01*
X0134792Y0194846D01*
X0134431Y0194138D01*
X0134186Y0193382D01*
X0134061Y0192597D01*
X0134061Y0192483D01*
X0138827Y0192483D01*
X0138827Y0191917D01*
X0134061Y0191917D01*
X0134061Y0191803D01*
X0134186Y0191018D01*
X0134431Y0190262D01*
X0134792Y0189554D01*
X0135259Y0188911D01*
X0135821Y0188350D01*
X0136464Y0187883D01*
X0137172Y0187522D01*
X0138827Y0187590D02*
X0139392Y0187590D01*
X0139392Y0189189D02*
X0138827Y0189189D01*
X0138827Y0190787D02*
X0139392Y0190787D01*
X0139392Y0192386D02*
X0145272Y0192386D01*
X0144157Y0192483D02*
X0144157Y0192597D01*
X0144033Y0193382D01*
X0143788Y0194138D01*
X0143427Y0194846D01*
X0142960Y0195489D01*
X0142398Y0196050D01*
X0141755Y0196517D01*
X0141047Y0196878D01*
X0140292Y0197124D01*
X0139507Y0197248D01*
X0139392Y0197248D01*
X0139392Y0192483D01*
X0144157Y0192483D01*
X0143838Y0193984D02*
X0145546Y0193984D01*
X0146316Y0195583D02*
X0142866Y0195583D01*
X0143958Y0190787D02*
X0145392Y0190787D01*
X0146054Y0189189D02*
X0143161Y0189189D01*
X0141181Y0187590D02*
X0147543Y0187590D01*
X0148187Y0197181D02*
X0139929Y0197181D01*
X0139392Y0197181D02*
X0138827Y0197181D01*
X0138290Y0197181D02*
X0108300Y0197181D01*
X0108300Y0195583D02*
X0135353Y0195583D01*
X0134381Y0193984D02*
X0108300Y0193984D01*
X0108300Y0192386D02*
X0138827Y0192386D01*
X0138827Y0193984D02*
X0139392Y0193984D01*
X0139392Y0195583D02*
X0138827Y0195583D01*
X0134261Y0190787D02*
X0108300Y0190787D01*
X0108300Y0189189D02*
X0135058Y0189189D01*
X0156880Y0184393D02*
X0108534Y0184393D01*
X0109081Y0182795D02*
X0158891Y0182795D01*
X0169866Y0201977D02*
X0191981Y0201977D01*
X0190383Y0200378D02*
X0172149Y0200378D01*
X0173661Y0198780D02*
X0189400Y0198780D01*
X0189400Y0195583D02*
X0188990Y0195583D01*
X0189759Y0193984D02*
X0190421Y0193984D01*
X0190033Y0192386D02*
X0192019Y0192386D01*
X0190792Y0190787D02*
X0189913Y0190787D01*
X0189400Y0189189D02*
X0189251Y0189189D01*
X0189400Y0187590D02*
X0187763Y0187590D01*
X0194500Y0198780D02*
X0194900Y0198780D01*
X0194900Y0200378D02*
X0194500Y0200378D01*
X0194500Y0201977D02*
X0194900Y0201977D01*
X0194900Y0203575D02*
X0194500Y0203575D01*
X0194500Y0205174D02*
X0194900Y0205174D01*
X0194900Y0206772D02*
X0194500Y0206772D01*
X0194500Y0208371D02*
X0194900Y0208371D01*
X0194900Y0209969D02*
X0194500Y0209969D01*
X0194500Y0211568D02*
X0194900Y0211568D01*
X0194900Y0213166D02*
X0194500Y0213166D01*
X0194500Y0214765D02*
X0194900Y0214765D01*
X0194900Y0216363D02*
X0194500Y0216363D01*
X0194500Y0217962D02*
X0194900Y0217962D01*
X0194900Y0219560D02*
X0194500Y0219560D01*
X0194500Y0221159D02*
X0194900Y0221159D01*
X0194900Y0222757D02*
X0194500Y0222757D01*
X0194500Y0224356D02*
X0194900Y0224356D01*
X0194900Y0225954D02*
X0194500Y0225954D01*
X0194500Y0227553D02*
X0194900Y0227553D01*
X0194900Y0229151D02*
X0194500Y0229151D01*
X0194500Y0230750D02*
X0194900Y0230750D01*
X0194900Y0232348D02*
X0194500Y0232348D01*
X0194500Y0233947D02*
X0194900Y0233947D01*
X0194900Y0235545D02*
X0194500Y0235545D01*
X0197919Y0245137D02*
X0189282Y0245137D01*
X0187838Y0246735D02*
X0197919Y0246735D01*
X0158761Y0251531D02*
X0131622Y0251531D01*
X0130023Y0249932D02*
X0156805Y0249932D01*
X0155482Y0248334D02*
X0128425Y0248334D01*
X0126826Y0246735D02*
X0136891Y0246735D01*
X0137172Y0246878D02*
X0136464Y0246517D01*
X0135821Y0246050D01*
X0135259Y0245489D01*
X0134792Y0244846D01*
X0134431Y0244138D01*
X0134186Y0243382D01*
X0134061Y0242597D01*
X0134061Y0242483D01*
X0138827Y0242483D01*
X0138827Y0247248D01*
X0138712Y0247248D01*
X0137927Y0247124D01*
X0137172Y0246878D01*
X0138827Y0246735D02*
X0139392Y0246735D01*
X0139392Y0247248D02*
X0139392Y0242483D01*
X0138827Y0242483D01*
X0138827Y0241917D01*
X0139392Y0241917D01*
X0139392Y0237152D01*
X0139507Y0237152D01*
X0140292Y0237276D01*
X0141047Y0237522D01*
X0141755Y0237883D01*
X0142398Y0238350D01*
X0142960Y0238911D01*
X0143427Y0239554D01*
X0143788Y0240262D01*
X0144033Y0241018D01*
X0144157Y0241803D01*
X0144157Y0241917D01*
X0139392Y0241917D01*
X0139392Y0242483D01*
X0144157Y0242483D01*
X0144157Y0242597D01*
X0144033Y0243382D01*
X0143788Y0244138D01*
X0143427Y0244846D01*
X0142960Y0245489D01*
X0142398Y0246050D01*
X0141755Y0246517D01*
X0141047Y0246878D01*
X0140292Y0247124D01*
X0139507Y0247248D01*
X0139392Y0247248D01*
X0141328Y0246735D02*
X0147468Y0246735D01*
X0146023Y0245137D02*
X0143216Y0245137D01*
X0143983Y0243538D02*
X0145361Y0243538D01*
X0145272Y0241939D02*
X0139392Y0241939D01*
X0138827Y0241939D02*
X0108300Y0241939D01*
X0108300Y0240341D02*
X0134406Y0240341D01*
X0134431Y0240262D02*
X0134792Y0239554D01*
X0135259Y0238911D01*
X0135821Y0238350D01*
X0136464Y0237883D01*
X0137172Y0237522D01*
X0137927Y0237276D01*
X0138712Y0237152D01*
X0138827Y0237152D01*
X0138827Y0241917D01*
X0134061Y0241917D01*
X0134061Y0241803D01*
X0134186Y0241018D01*
X0134431Y0240262D01*
X0135428Y0238742D02*
X0108300Y0238742D01*
X0108300Y0237144D02*
X0148368Y0237144D01*
X0146390Y0238742D02*
X0142791Y0238742D01*
X0143813Y0240341D02*
X0145577Y0240341D01*
X0139392Y0240341D02*
X0138827Y0240341D01*
X0138827Y0238742D02*
X0139392Y0238742D01*
X0139392Y0243538D02*
X0138827Y0243538D01*
X0138827Y0245137D02*
X0139392Y0245137D01*
X0135003Y0245137D02*
X0125228Y0245137D01*
X0118735Y0256326D02*
X0095167Y0256326D01*
X0094550Y0254728D02*
X0099636Y0254728D01*
X0098038Y0253129D02*
X0094550Y0253129D01*
X0094550Y0251531D02*
X0096439Y0251531D01*
X0094841Y0249932D02*
X0094550Y0249932D01*
X0096766Y0257925D02*
X0120333Y0257925D01*
X0121932Y0259523D02*
X0098364Y0259523D01*
X0099963Y0261122D02*
X0123530Y0261122D01*
X0123600Y0262720D02*
X0101561Y0262720D01*
X0103160Y0264319D02*
X0123600Y0264319D01*
X0123600Y0265917D02*
X0104758Y0265917D01*
X0106357Y0267516D02*
X0123600Y0267516D01*
X0123600Y0269114D02*
X0107836Y0269114D01*
X0108300Y0270713D02*
X0123600Y0270713D01*
X0123600Y0272311D02*
X0108300Y0272311D01*
X0108300Y0273910D02*
X0123600Y0273910D01*
X0123600Y0275508D02*
X0108300Y0275508D01*
X0108300Y0277107D02*
X0123600Y0277107D01*
X0123600Y0278705D02*
X0108300Y0278705D01*
X0108300Y0280304D02*
X0123600Y0280304D01*
X0123600Y0281902D02*
X0108300Y0281902D01*
X0108300Y0283501D02*
X0113101Y0283501D01*
X0116299Y0283501D02*
X0123600Y0283501D01*
X0123600Y0285099D02*
X0118835Y0285099D01*
X0119880Y0286698D02*
X0123600Y0286698D01*
X0123600Y0288296D02*
X0120348Y0288296D01*
X0120348Y0289895D02*
X0123600Y0289895D01*
X0123600Y0291493D02*
X0120348Y0291493D01*
X0120348Y0293092D02*
X0123600Y0293092D01*
X0123600Y0294690D02*
X0120348Y0294690D01*
X0120348Y0296289D02*
X0123600Y0296289D01*
X0123600Y0297887D02*
X0119803Y0297887D01*
X0118650Y0299486D02*
X0123600Y0299486D01*
X0123600Y0301084D02*
X0115852Y0301084D01*
X0113548Y0301084D02*
X0105852Y0301084D01*
X0103548Y0301084D02*
X0095852Y0301084D01*
X0093548Y0301084D02*
X0074550Y0301084D01*
X0074550Y0299486D02*
X0090750Y0299486D01*
X0089597Y0297887D02*
X0074550Y0297887D01*
X0074550Y0296289D02*
X0089052Y0296289D01*
X0089052Y0294690D02*
X0074550Y0294690D01*
X0074550Y0293092D02*
X0089052Y0293092D01*
X0089052Y0291493D02*
X0074550Y0291493D01*
X0074550Y0289895D02*
X0089052Y0289895D01*
X0089052Y0288296D02*
X0074550Y0288296D01*
X0074550Y0286698D02*
X0089520Y0286698D01*
X0090565Y0285099D02*
X0074550Y0285099D01*
X0074550Y0283501D02*
X0091100Y0283501D01*
X0091100Y0281902D02*
X0074550Y0281902D01*
X0074550Y0280304D02*
X0091100Y0280304D01*
X0091100Y0278705D02*
X0074550Y0278705D01*
X0074550Y0277107D02*
X0091100Y0277107D01*
X0091100Y0275508D02*
X0074550Y0275508D01*
X0074550Y0273910D02*
X0091100Y0273910D01*
X0089720Y0272311D02*
X0074550Y0272311D01*
X0074550Y0270713D02*
X0088122Y0270713D01*
X0086523Y0269114D02*
X0074550Y0269114D01*
X0074550Y0267516D02*
X0084924Y0267516D01*
X0083326Y0265917D02*
X0074550Y0265917D01*
X0074550Y0264319D02*
X0081727Y0264319D01*
X0081100Y0262720D02*
X0074550Y0262720D01*
X0074550Y0261122D02*
X0081100Y0261122D01*
X0081100Y0259523D02*
X0074550Y0259523D01*
X0074550Y0257925D02*
X0081100Y0257925D01*
X0081100Y0256326D02*
X0074550Y0256326D01*
X0074550Y0254728D02*
X0081100Y0254728D01*
X0081100Y0253129D02*
X0074550Y0253129D01*
X0074550Y0251531D02*
X0081100Y0251531D01*
X0081100Y0249932D02*
X0074550Y0249932D01*
X0074550Y0248334D02*
X0081100Y0248334D01*
X0081100Y0246735D02*
X0074550Y0246735D01*
X0074550Y0245137D02*
X0081100Y0245137D01*
X0081100Y0243538D02*
X0074550Y0243538D01*
X0074550Y0241939D02*
X0081100Y0241939D01*
X0081100Y0240341D02*
X0074550Y0240341D01*
X0074550Y0238742D02*
X0081100Y0238742D01*
X0081100Y0237144D02*
X0074550Y0237144D01*
X0074550Y0235545D02*
X0081100Y0235545D01*
X0081100Y0233947D02*
X0074550Y0233947D01*
X0074550Y0232348D02*
X0081100Y0232348D01*
X0081100Y0230750D02*
X0074550Y0230750D01*
X0074550Y0229151D02*
X0081100Y0229151D01*
X0081100Y0227553D02*
X0074550Y0227553D01*
X0074550Y0225954D02*
X0081100Y0225954D01*
X0081100Y0224356D02*
X0074550Y0224356D01*
X0074550Y0222757D02*
X0081100Y0222757D01*
X0081100Y0221159D02*
X0074550Y0221159D01*
X0074550Y0219560D02*
X0081100Y0219560D01*
X0081100Y0217962D02*
X0074550Y0217962D01*
X0074550Y0216363D02*
X0081100Y0216363D01*
X0081100Y0214765D02*
X0074550Y0214765D01*
X0074550Y0213166D02*
X0081100Y0213166D01*
X0081100Y0211568D02*
X0074550Y0211568D01*
X0074550Y0209969D02*
X0081100Y0209969D01*
X0081100Y0208371D02*
X0074550Y0208371D01*
X0074550Y0206772D02*
X0081100Y0206772D01*
X0081100Y0205174D02*
X0074550Y0205174D01*
X0074550Y0203575D02*
X0081100Y0203575D01*
X0081100Y0201977D02*
X0074550Y0201977D01*
X0074550Y0200378D02*
X0081100Y0200378D01*
X0081100Y0198780D02*
X0074550Y0198780D01*
X0074550Y0197181D02*
X0081100Y0197181D01*
X0081100Y0195583D02*
X0074550Y0195583D01*
X0074550Y0193984D02*
X0081100Y0193984D01*
X0081100Y0192386D02*
X0074550Y0192386D01*
X0074550Y0190787D02*
X0081100Y0190787D01*
X0081100Y0189189D02*
X0074550Y0189189D01*
X0074550Y0187590D02*
X0081100Y0187590D01*
X0081100Y0185992D02*
X0074550Y0185992D01*
X0074550Y0184393D02*
X0081100Y0184393D01*
X0081100Y0182795D02*
X0074550Y0182795D01*
X0074550Y0181196D02*
X0081100Y0181196D01*
X0081100Y0179598D02*
X0074550Y0179598D01*
X0074550Y0177999D02*
X0081100Y0177999D01*
X0081100Y0176401D02*
X0073992Y0176401D01*
X0072393Y0174802D02*
X0081100Y0174802D01*
X0081100Y0173203D02*
X0070795Y0173203D01*
X0069196Y0171605D02*
X0081100Y0171605D01*
X0081100Y0170006D02*
X0068533Y0170006D01*
X0066994Y0168408D02*
X0081100Y0168408D01*
X0081100Y0166809D02*
X0050800Y0166809D01*
X0050800Y0165211D02*
X0081100Y0165211D01*
X0081100Y0163612D02*
X0050800Y0163612D01*
X0050800Y0162014D02*
X0081100Y0162014D01*
X0081100Y0160415D02*
X0050800Y0160415D01*
X0050800Y0158817D02*
X0081100Y0158817D01*
X0081100Y0157218D02*
X0050800Y0157218D01*
X0050800Y0155620D02*
X0081100Y0155620D01*
X0081100Y0154021D02*
X0050800Y0154021D01*
X0050800Y0152423D02*
X0081100Y0152423D01*
X0081100Y0150824D02*
X0050800Y0150824D01*
X0050800Y0149226D02*
X0081100Y0149226D01*
X0081100Y0147627D02*
X0050800Y0147627D01*
X0050800Y0146029D02*
X0081100Y0146029D01*
X0081100Y0144430D02*
X0050800Y0144430D01*
X0050800Y0142832D02*
X0081100Y0142832D01*
X0081100Y0141233D02*
X0050800Y0141233D01*
X0050800Y0139635D02*
X0081100Y0139635D01*
X0081100Y0138036D02*
X0050800Y0138036D01*
X0050781Y0136438D02*
X0081100Y0136438D01*
X0081100Y0134839D02*
X0049930Y0134839D01*
X0048332Y0133241D02*
X0081100Y0133241D01*
X0081100Y0131642D02*
X0046733Y0131642D01*
X0045135Y0130044D02*
X0081100Y0130044D01*
X0081100Y0128445D02*
X0043536Y0128445D01*
X0041938Y0126847D02*
X0081100Y0126847D01*
X0081100Y0125248D02*
X0040339Y0125248D01*
X0038741Y0123650D02*
X0079808Y0123650D01*
X0078210Y0122051D02*
X0037142Y0122051D01*
X0035544Y0120453D02*
X0076611Y0120453D01*
X0075013Y0118854D02*
X0033530Y0118854D01*
X0011747Y0166809D02*
X0010300Y0166809D01*
X0050800Y0168408D02*
X0062406Y0168408D01*
X0060866Y0170006D02*
X0050800Y0170006D01*
X0050800Y0171605D02*
X0060319Y0171605D01*
X0060374Y0173203D02*
X0050800Y0173203D01*
X0050800Y0174802D02*
X0061106Y0174802D01*
X0063393Y0176401D02*
X0050800Y0176401D01*
X0050800Y0177999D02*
X0065408Y0177999D01*
X0067006Y0179598D02*
X0050800Y0179598D01*
X0050800Y0181196D02*
X0067350Y0181196D01*
X0067350Y0182795D02*
X0050800Y0182795D01*
X0050800Y0184393D02*
X0067350Y0184393D01*
X0067350Y0185992D02*
X0050800Y0185992D01*
X0050800Y0187590D02*
X0067350Y0187590D01*
X0067350Y0189189D02*
X0050800Y0189189D01*
X0050800Y0190787D02*
X0067350Y0190787D01*
X0067350Y0192386D02*
X0050800Y0192386D01*
X0050800Y0193984D02*
X0067350Y0193984D01*
X0067350Y0195583D02*
X0050800Y0195583D01*
X0050800Y0197181D02*
X0067350Y0197181D01*
X0067350Y0198780D02*
X0050800Y0198780D01*
X0050800Y0200378D02*
X0067350Y0200378D01*
X0067350Y0201977D02*
X0050800Y0201977D01*
X0050800Y0203575D02*
X0067350Y0203575D01*
X0067350Y0205174D02*
X0050800Y0205174D01*
X0050800Y0206772D02*
X0067350Y0206772D01*
X0067350Y0208371D02*
X0050800Y0208371D01*
X0050800Y0209969D02*
X0067350Y0209969D01*
X0067350Y0211568D02*
X0050800Y0211568D01*
X0050800Y0213166D02*
X0067350Y0213166D01*
X0067350Y0214765D02*
X0050800Y0214765D01*
X0050800Y0216363D02*
X0067350Y0216363D01*
X0067350Y0217962D02*
X0050800Y0217962D01*
X0050800Y0219560D02*
X0067350Y0219560D01*
X0067350Y0221159D02*
X0050800Y0221159D01*
X0050800Y0222757D02*
X0067350Y0222757D01*
X0067350Y0224356D02*
X0050800Y0224356D01*
X0050800Y0225954D02*
X0067350Y0225954D01*
X0067350Y0227553D02*
X0050800Y0227553D01*
X0050800Y0229151D02*
X0067350Y0229151D01*
X0067350Y0230750D02*
X0050800Y0230750D01*
X0050800Y0232348D02*
X0067350Y0232348D01*
X0067350Y0233947D02*
X0050800Y0233947D01*
X0050800Y0235545D02*
X0067350Y0235545D01*
X0067350Y0237144D02*
X0050800Y0237144D01*
X0050800Y0238742D02*
X0067350Y0238742D01*
X0067350Y0240341D02*
X0050800Y0240341D01*
X0050800Y0241939D02*
X0067350Y0241939D01*
X0067350Y0243538D02*
X0050800Y0243538D01*
X0050800Y0245137D02*
X0067350Y0245137D01*
X0067350Y0246735D02*
X0050800Y0246735D01*
X0050800Y0248334D02*
X0067350Y0248334D01*
X0067350Y0249932D02*
X0050800Y0249932D01*
X0050800Y0251531D02*
X0067350Y0251531D01*
X0067350Y0253129D02*
X0050800Y0253129D01*
X0050800Y0254728D02*
X0067350Y0254728D01*
X0067350Y0256326D02*
X0050800Y0256326D01*
X0050800Y0257925D02*
X0067350Y0257925D01*
X0067350Y0259523D02*
X0050800Y0259523D01*
X0051213Y0261122D02*
X0067350Y0261122D01*
X0067350Y0262720D02*
X0060060Y0262720D01*
X0061910Y0264319D02*
X0067350Y0264319D01*
X0067350Y0265917D02*
X0063508Y0265917D01*
X0065107Y0267516D02*
X0067350Y0267516D01*
X0067350Y0269114D02*
X0066705Y0269114D01*
X0061100Y0273910D02*
X0047751Y0273910D01*
X0048300Y0275508D02*
X0061100Y0275508D01*
X0061100Y0277107D02*
X0048300Y0277107D01*
X0048300Y0278705D02*
X0061100Y0278705D01*
X0061100Y0280304D02*
X0048300Y0280304D01*
X0048300Y0281902D02*
X0061100Y0281902D01*
X0061100Y0283501D02*
X0056299Y0283501D01*
X0053101Y0283501D02*
X0048300Y0283501D01*
X0048835Y0285099D02*
X0050565Y0285099D01*
X0046152Y0272311D02*
X0059720Y0272311D01*
X0058122Y0270713D02*
X0044554Y0270713D01*
X0044550Y0269114D02*
X0049182Y0269114D01*
X0047424Y0267516D02*
X0044550Y0267516D01*
X0044550Y0265917D02*
X0045826Y0265917D01*
X0058835Y0285099D02*
X0061100Y0285099D01*
X0061100Y0286698D02*
X0059880Y0286698D01*
X0060348Y0288296D02*
X0061100Y0288296D01*
X0061100Y0289895D02*
X0060348Y0289895D01*
X0060348Y0291493D02*
X0061100Y0291493D01*
X0061100Y0293092D02*
X0060348Y0293092D01*
X0060348Y0294690D02*
X0061100Y0294690D01*
X0061100Y0296289D02*
X0060348Y0296289D01*
X0059803Y0297887D02*
X0061100Y0297887D01*
X0061100Y0299486D02*
X0058650Y0299486D01*
X0061100Y0301084D02*
X0055852Y0301084D01*
X0053548Y0301084D02*
X0045852Y0301084D01*
X0043548Y0301084D02*
X0035852Y0301084D01*
X0038650Y0299486D02*
X0040750Y0299486D01*
X0048650Y0299486D02*
X0050750Y0299486D01*
X0038440Y0333055D02*
X0010300Y0333055D01*
X0010300Y0334653D02*
X0036620Y0334653D01*
X0035375Y0336252D02*
X0010300Y0336252D01*
X0010300Y0337850D02*
X0016527Y0337850D01*
X0016464Y0337883D02*
X0017172Y0337522D01*
X0017927Y0337276D01*
X0018712Y0337152D01*
X0018827Y0337152D01*
X0018827Y0341917D01*
X0019392Y0341917D01*
X0019392Y0337152D01*
X0019507Y0337152D01*
X0020292Y0337276D01*
X0021047Y0337522D01*
X0021755Y0337883D01*
X0022398Y0338350D01*
X0022960Y0338911D01*
X0023427Y0339554D01*
X0023788Y0340262D01*
X0024033Y0341018D01*
X0024157Y0341803D01*
X0024157Y0341917D01*
X0019392Y0341917D01*
X0019392Y0342483D01*
X0018827Y0342483D01*
X0018827Y0347248D01*
X0018712Y0347248D01*
X0017927Y0347124D01*
X0017172Y0346878D01*
X0016464Y0346517D01*
X0015821Y0346050D01*
X0015259Y0345489D01*
X0014792Y0344846D01*
X0014431Y0344138D01*
X0014186Y0343382D01*
X0014061Y0342597D01*
X0014061Y0342483D01*
X0018827Y0342483D01*
X0018827Y0341917D01*
X0014061Y0341917D01*
X0014061Y0341803D01*
X0014186Y0341018D01*
X0014431Y0340262D01*
X0014792Y0339554D01*
X0015259Y0338911D01*
X0015821Y0338350D01*
X0016464Y0337883D01*
X0014869Y0339449D02*
X0010300Y0339449D01*
X0010300Y0341047D02*
X0014181Y0341047D01*
X0014069Y0342646D02*
X0010300Y0342646D01*
X0010300Y0344244D02*
X0014485Y0344244D01*
X0015613Y0345843D02*
X0010300Y0345843D01*
X0010300Y0347441D02*
X0028815Y0347441D01*
X0026576Y0345843D02*
X0022606Y0345843D01*
X0022398Y0346050D02*
X0021755Y0346517D01*
X0021047Y0346878D01*
X0020292Y0347124D01*
X0019507Y0347248D01*
X0019392Y0347248D01*
X0019392Y0342483D01*
X0024157Y0342483D01*
X0024157Y0342597D01*
X0024033Y0343382D01*
X0023788Y0344138D01*
X0023427Y0344846D01*
X0022960Y0345489D01*
X0022398Y0346050D01*
X0023733Y0344244D02*
X0025654Y0344244D01*
X0025272Y0342646D02*
X0024150Y0342646D01*
X0024038Y0341047D02*
X0025285Y0341047D01*
X0025947Y0339449D02*
X0023350Y0339449D01*
X0021692Y0337850D02*
X0027283Y0337850D01*
X0033026Y0347441D02*
X0034967Y0347441D01*
X0035913Y0349040D02*
X0010300Y0349040D01*
X0010300Y0350638D02*
X0037511Y0350638D01*
X0039984Y0352237D02*
X0010300Y0352237D01*
X0010300Y0353835D02*
X0067350Y0353835D01*
X0067350Y0355434D02*
X0010300Y0355434D01*
X0010300Y0357032D02*
X0067350Y0357032D01*
X0074550Y0357032D02*
X0128600Y0357032D01*
X0128600Y0355434D02*
X0074550Y0355434D01*
X0074550Y0353835D02*
X0128600Y0353835D01*
X0128600Y0352237D02*
X0109416Y0352237D01*
X0108965Y0352497D02*
X0106155Y0353250D01*
X0103245Y0353250D01*
X0100435Y0352497D01*
X0097915Y0351042D01*
X0095858Y0348985D01*
X0094491Y0346617D01*
X0094120Y0346988D01*
X0092044Y0347848D01*
X0089797Y0347848D01*
X0087721Y0346988D01*
X0086132Y0345399D01*
X0085272Y0343323D01*
X0085272Y0341077D01*
X0086132Y0339001D01*
X0087721Y0337412D01*
X0089797Y0336552D01*
X0092044Y0336552D01*
X0094120Y0337412D01*
X0094491Y0337783D01*
X0095858Y0335415D01*
X0097915Y0333358D01*
X0100435Y0331903D01*
X0103245Y0331150D01*
X0106155Y0331150D01*
X0108965Y0331903D01*
X0111485Y0333358D01*
X0113542Y0335415D01*
X0114997Y0337935D01*
X0115750Y0340745D01*
X0115750Y0343655D01*
X0114997Y0346465D01*
X0113542Y0348985D01*
X0111485Y0351042D01*
X0108965Y0352497D01*
X0111889Y0350638D02*
X0128600Y0350638D01*
X0128600Y0349040D02*
X0113487Y0349040D01*
X0114433Y0347441D02*
X0122279Y0347441D01*
X0120040Y0345843D02*
X0115164Y0345843D01*
X0115592Y0344244D02*
X0119118Y0344244D01*
X0118737Y0342646D02*
X0115750Y0342646D01*
X0115750Y0341047D02*
X0118749Y0341047D01*
X0119411Y0339449D02*
X0115403Y0339449D01*
X0114948Y0337850D02*
X0120747Y0337850D01*
X0114025Y0336252D02*
X0128600Y0336252D01*
X0128600Y0337850D02*
X0128023Y0337850D01*
X0128600Y0334653D02*
X0112780Y0334653D01*
X0110960Y0333055D02*
X0128600Y0333055D01*
X0128600Y0331456D02*
X0107297Y0331456D01*
X0102103Y0331456D02*
X0074550Y0331456D01*
X0074550Y0329858D02*
X0128600Y0329858D01*
X0128600Y0328259D02*
X0074550Y0328259D01*
X0074550Y0326661D02*
X0128600Y0326661D01*
X0128600Y0325062D02*
X0074550Y0325062D01*
X0074550Y0323464D02*
X0128600Y0323464D01*
X0128600Y0321865D02*
X0074550Y0321865D01*
X0074550Y0320267D02*
X0128600Y0320267D01*
X0128600Y0318668D02*
X0074550Y0318668D01*
X0074550Y0317070D02*
X0075943Y0317070D01*
X0075795Y0307478D02*
X0074550Y0307478D01*
X0074550Y0305880D02*
X0120929Y0305880D01*
X0122527Y0304281D02*
X0074550Y0304281D01*
X0074550Y0302683D02*
X0123600Y0302683D01*
X0127914Y0309077D02*
X0128600Y0309077D01*
X0128600Y0310675D02*
X0126316Y0310675D01*
X0125800Y0312274D02*
X0128600Y0312274D01*
X0128600Y0313872D02*
X0125610Y0313872D01*
X0124948Y0315471D02*
X0128600Y0315471D01*
X0128600Y0317070D02*
X0123457Y0317070D01*
X0115943Y0317070D02*
X0083457Y0317070D01*
X0084948Y0315471D02*
X0114452Y0315471D01*
X0113790Y0313872D02*
X0085610Y0313872D01*
X0085800Y0312274D02*
X0113600Y0312274D01*
X0113729Y0310675D02*
X0085671Y0310675D01*
X0085009Y0309077D02*
X0114391Y0309077D01*
X0115795Y0307478D02*
X0083605Y0307478D01*
X0074550Y0333055D02*
X0098440Y0333055D01*
X0096620Y0334653D02*
X0074550Y0334653D01*
X0074550Y0336252D02*
X0095375Y0336252D01*
X0094967Y0347441D02*
X0093026Y0347441D01*
X0095913Y0349040D02*
X0074550Y0349040D01*
X0074550Y0350638D02*
X0097511Y0350638D01*
X0099984Y0352237D02*
X0074550Y0352237D01*
X0074550Y0358631D02*
X0128600Y0358631D01*
X0128600Y0360229D02*
X0118118Y0360229D01*
X0119717Y0361828D02*
X0128600Y0361828D01*
X0128600Y0363426D02*
X0120191Y0363426D01*
X0120191Y0365025D02*
X0128600Y0365025D01*
X0128600Y0366623D02*
X0120191Y0366623D01*
X0118949Y0368222D02*
X0128600Y0368222D01*
X0128600Y0369820D02*
X0117351Y0369820D01*
X0111734Y0369820D02*
X0108300Y0369820D01*
X0109010Y0371419D02*
X0127890Y0371419D01*
X0126291Y0373017D02*
X0110609Y0373017D01*
X0110136Y0368222D02*
X0109107Y0368222D01*
X0108276Y0360229D02*
X0110967Y0360229D01*
X0101124Y0360229D02*
X0099487Y0360229D01*
X0095140Y0360229D02*
X0094575Y0360229D01*
X0094575Y0359593D02*
X0094575Y0364358D01*
X0089809Y0364358D01*
X0089809Y0361156D01*
X0089932Y0360698D01*
X0090169Y0360288D01*
X0090504Y0359953D01*
X0090915Y0359716D01*
X0091372Y0359593D01*
X0094575Y0359593D01*
X0094575Y0361828D02*
X0095140Y0361828D01*
X0095140Y0363426D02*
X0094575Y0363426D01*
X0094575Y0365025D02*
X0095140Y0365025D01*
X0095140Y0366623D02*
X0094575Y0366623D01*
X0094575Y0368222D02*
X0095140Y0368222D01*
X0099880Y0368222D02*
X0100293Y0368222D01*
X0101100Y0369820D02*
X0074550Y0369820D01*
X0074550Y0368222D02*
X0089835Y0368222D01*
X0089809Y0366623D02*
X0074550Y0366623D01*
X0074550Y0365025D02*
X0089809Y0365025D01*
X0089809Y0363426D02*
X0074550Y0363426D01*
X0074550Y0361828D02*
X0089809Y0361828D01*
X0090227Y0360229D02*
X0074550Y0360229D01*
X0074550Y0371419D02*
X0101100Y0371419D01*
X0101142Y0373017D02*
X0073974Y0373017D01*
X0072375Y0374616D02*
X0102025Y0374616D01*
X0103623Y0376214D02*
X0070777Y0376214D01*
X0069178Y0377813D02*
X0105222Y0377813D01*
X0106820Y0379411D02*
X0067580Y0379411D01*
X0070085Y0384207D02*
X0079315Y0384207D01*
X0079490Y0384032D02*
X0080372Y0383666D01*
X0093595Y0383666D01*
X0094477Y0384032D01*
X0095152Y0384707D01*
X0095517Y0385589D01*
X0095517Y0398811D01*
X0095152Y0399693D01*
X0094477Y0400368D01*
X0093595Y0400734D01*
X0080372Y0400734D01*
X0079490Y0400368D01*
X0078815Y0399693D01*
X0078450Y0398811D01*
X0078450Y0385589D01*
X0078815Y0384707D01*
X0079490Y0384032D01*
X0078450Y0385805D02*
X0070950Y0385805D01*
X0070950Y0387404D02*
X0078450Y0387404D01*
X0078450Y0389003D02*
X0070950Y0389003D01*
X0070950Y0390601D02*
X0078450Y0390601D01*
X0078450Y0392200D02*
X0070950Y0392200D01*
X0070950Y0393798D02*
X0078450Y0393798D01*
X0078450Y0395397D02*
X0070950Y0395397D01*
X0070950Y0396995D02*
X0078450Y0396995D01*
X0078450Y0398594D02*
X0070950Y0398594D01*
X0070086Y0400192D02*
X0079314Y0400192D01*
X0094653Y0400192D02*
X0114747Y0400192D01*
X0113883Y0398594D02*
X0095517Y0398594D01*
X0095517Y0396995D02*
X0113883Y0396995D01*
X0113883Y0395397D02*
X0095517Y0395397D01*
X0095517Y0393798D02*
X0113883Y0393798D01*
X0113883Y0392200D02*
X0095517Y0392200D01*
X0095517Y0390601D02*
X0113883Y0390601D01*
X0113883Y0389003D02*
X0095517Y0389003D01*
X0095517Y0387404D02*
X0113883Y0387404D01*
X0113883Y0385805D02*
X0095517Y0385805D01*
X0094652Y0384207D02*
X0114748Y0384207D01*
X0126491Y0347441D02*
X0128600Y0347441D01*
X0141692Y0337850D02*
X0147283Y0337850D01*
X0145947Y0339449D02*
X0143350Y0339449D01*
X0144038Y0341047D02*
X0145285Y0341047D01*
X0145272Y0342646D02*
X0144150Y0342646D01*
X0143733Y0344244D02*
X0145654Y0344244D01*
X0146576Y0345843D02*
X0142606Y0345843D01*
X0110750Y0299486D02*
X0108650Y0299486D01*
X0100750Y0299486D02*
X0098650Y0299486D01*
X0108835Y0285099D02*
X0110565Y0285099D01*
X0108629Y0243538D02*
X0134236Y0243538D01*
X0153473Y0237144D02*
X0154860Y0237144D01*
X0155783Y0235545D02*
X0108300Y0235545D01*
X0108300Y0233947D02*
X0157326Y0233947D01*
X0154559Y0246735D02*
X0154373Y0246735D01*
X0139507Y0147248D02*
X0139392Y0147248D01*
X0139392Y0142483D01*
X0144157Y0142483D01*
X0144157Y0142597D01*
X0144033Y0143382D01*
X0143788Y0144138D01*
X0143427Y0144846D01*
X0142960Y0145489D01*
X0142398Y0146050D01*
X0141755Y0146517D01*
X0141047Y0146878D01*
X0140292Y0147124D01*
X0139507Y0147248D01*
X0139392Y0146029D02*
X0138827Y0146029D01*
X0138827Y0144430D02*
X0139392Y0144430D01*
X0139392Y0142832D02*
X0138827Y0142832D01*
X0138827Y0141233D02*
X0139392Y0141233D01*
X0139392Y0139635D02*
X0138827Y0139635D01*
X0138827Y0138036D02*
X0139392Y0138036D01*
X0141967Y0138036D02*
X0147097Y0138036D01*
X0145870Y0139635D02*
X0143468Y0139635D01*
X0144067Y0141233D02*
X0145272Y0141233D01*
X0145272Y0142832D02*
X0144120Y0142832D01*
X0143639Y0144430D02*
X0145731Y0144430D01*
X0146762Y0146029D02*
X0142420Y0146029D01*
X0139507Y0097248D02*
X0139392Y0097248D01*
X0139392Y0092483D01*
X0144157Y0092483D01*
X0144157Y0092597D01*
X0144033Y0093382D01*
X0143788Y0094138D01*
X0143427Y0094846D01*
X0142960Y0095489D01*
X0142398Y0096050D01*
X0141755Y0096517D01*
X0141047Y0096878D01*
X0140292Y0097124D01*
X0139507Y0097248D01*
X0139392Y0096475D02*
X0138827Y0096475D01*
X0138827Y0094876D02*
X0139392Y0094876D01*
X0139392Y0093278D02*
X0138827Y0093278D01*
X0138827Y0091679D02*
X0139392Y0091679D01*
X0139392Y0090081D02*
X0138827Y0090081D01*
X0138827Y0088482D02*
X0139392Y0088482D01*
X0142531Y0088482D02*
X0146651Y0088482D01*
X0145685Y0090081D02*
X0143695Y0090081D01*
X0144138Y0091679D02*
X0145272Y0091679D01*
X0145272Y0093278D02*
X0144050Y0093278D01*
X0143405Y0094876D02*
X0145916Y0094876D01*
X0147208Y0096475D02*
X0141814Y0096475D01*
X0154187Y0046921D02*
X0154666Y0046921D01*
X0154752Y0037330D02*
X0153922Y0037330D01*
X0101107Y0179598D02*
X0100800Y0179598D01*
X0087283Y0337850D02*
X0081692Y0337850D01*
X0083350Y0339449D02*
X0085947Y0339449D01*
X0085285Y0341047D02*
X0084038Y0341047D01*
X0084157Y0342483D02*
X0084157Y0342597D01*
X0084033Y0343382D01*
X0083788Y0344138D01*
X0083427Y0344846D01*
X0082960Y0345489D01*
X0082398Y0346050D01*
X0081755Y0346517D01*
X0081047Y0346878D01*
X0080292Y0347124D01*
X0079507Y0347248D01*
X0079392Y0347248D01*
X0079392Y0342483D01*
X0084157Y0342483D01*
X0084150Y0342646D02*
X0085272Y0342646D01*
X0085654Y0344244D02*
X0083733Y0344244D01*
X0082606Y0345843D02*
X0086576Y0345843D01*
X0088815Y0347441D02*
X0074550Y0347441D01*
X0074550Y0345843D02*
X0075613Y0345843D01*
X0078827Y0345843D02*
X0079392Y0345843D01*
X0079392Y0344244D02*
X0078827Y0344244D01*
X0078827Y0342646D02*
X0079392Y0342646D01*
X0079392Y0341047D02*
X0078827Y0341047D01*
X0078827Y0339449D02*
X0079392Y0339449D01*
X0079392Y0337850D02*
X0078827Y0337850D01*
X0076527Y0337850D02*
X0074550Y0337850D01*
X0074550Y0339449D02*
X0074869Y0339449D01*
X0041124Y0360229D02*
X0039488Y0360229D01*
X0035140Y0360229D02*
X0034575Y0360229D01*
X0034575Y0361828D02*
X0035140Y0361828D01*
X0035140Y0363426D02*
X0034575Y0363426D01*
X0034575Y0365025D02*
X0035140Y0365025D01*
X0035140Y0366623D02*
X0034575Y0366623D01*
X0034575Y0368222D02*
X0035140Y0368222D01*
X0039880Y0368222D02*
X0040293Y0368222D01*
X0019315Y0384207D02*
X0010300Y0384207D01*
X0010300Y0385805D02*
X0018450Y0385805D01*
X0018450Y0387404D02*
X0010300Y0387404D01*
X0010300Y0389003D02*
X0018450Y0389003D01*
X0018450Y0390601D02*
X0010300Y0390601D01*
X0010300Y0392200D02*
X0018450Y0392200D01*
X0018450Y0393798D02*
X0010300Y0393798D01*
X0010300Y0395397D02*
X0018450Y0395397D01*
X0018450Y0396995D02*
X0010300Y0396995D01*
X0010300Y0398594D02*
X0018450Y0398594D01*
X0019314Y0400192D02*
X0010300Y0400192D01*
X0018827Y0345843D02*
X0019392Y0345843D01*
X0019392Y0344244D02*
X0018827Y0344244D01*
X0018827Y0342646D02*
X0019392Y0342646D01*
X0019392Y0341047D02*
X0018827Y0341047D01*
X0018827Y0339449D02*
X0019392Y0339449D01*
X0019392Y0337850D02*
X0018827Y0337850D01*
X0019452Y0315471D02*
X0010300Y0315471D01*
X0010300Y0313872D02*
X0018790Y0313872D01*
X0018600Y0312274D02*
X0010300Y0312274D01*
X0010300Y0310675D02*
X0018729Y0310675D01*
X0019391Y0309077D02*
X0010300Y0309077D01*
X0010300Y0307478D02*
X0020795Y0307478D01*
X0197478Y0404988D02*
X0197919Y0404988D01*
D12*
X0108500Y0047100D03*
X0108500Y0034500D03*
X0098700Y0034500D03*
X0098700Y0047100D03*
D13*
X0079700Y0036500D03*
X0127100Y0036500D03*
D14*
X0139109Y0042200D03*
X0150920Y0042200D03*
X0150920Y0092200D03*
X0139109Y0092200D03*
X0139109Y0142200D03*
X0150920Y0142200D03*
X0150920Y0192200D03*
X0139109Y0192200D03*
X0139109Y0242200D03*
X0150920Y0242200D03*
X0150920Y0292200D03*
X0139109Y0292200D03*
X0139109Y0342200D03*
X0150920Y0342200D03*
X0150920Y0392200D03*
X0139109Y0392200D03*
X0124385Y0342200D03*
X0090920Y0342200D03*
X0079109Y0342200D03*
X0064385Y0342200D03*
X0030920Y0342200D03*
X0019109Y0342200D03*
X0184385Y0342200D03*
X0184385Y0292200D03*
X0184385Y0242200D03*
X0184385Y0192200D03*
X0184385Y0142200D03*
X0184385Y0092200D03*
X0184385Y0042200D03*
X0184385Y0392200D03*
D15*
X0094857Y0364641D03*
X0034857Y0364641D03*
D16*
X0044700Y0364641D03*
X0054543Y0364641D03*
X0104700Y0364641D03*
X0114543Y0364641D03*
D17*
X0122417Y0392200D03*
X0086983Y0392200D03*
X0062417Y0392200D03*
X0026983Y0392200D03*
D18*
X0014700Y0262200D03*
X0014700Y0252200D03*
X0014700Y0242200D03*
X0014700Y0232200D03*
X0014700Y0222200D03*
X0014700Y0212200D03*
X0014700Y0202200D03*
X0014700Y0192200D03*
X0014700Y0182200D03*
X0014700Y0172200D03*
X0014700Y0142200D03*
X0014700Y0132200D03*
X0014700Y0122200D03*
X0014700Y0112200D03*
X0014700Y0102200D03*
X0014700Y0092200D03*
X0014700Y0082200D03*
X0014700Y0072200D03*
X0014700Y0062200D03*
X0014700Y0052200D03*
X0194700Y0147200D03*
X0194700Y0157200D03*
X0194700Y0167200D03*
X0194700Y0177200D03*
X0194700Y0187200D03*
X0194700Y0197200D03*
X0194700Y0207200D03*
X0194700Y0217200D03*
X0194700Y0227200D03*
X0194700Y0237200D03*
D19*
X0114700Y0288952D02*
X0114700Y0295448D01*
X0104700Y0295448D02*
X0104700Y0288952D01*
X0094700Y0288952D02*
X0094700Y0295448D01*
X0054700Y0295448D02*
X0054700Y0288952D01*
X0044700Y0288952D02*
X0044700Y0295448D01*
X0034700Y0295448D02*
X0034700Y0288952D01*
D20*
X0024700Y0312200D03*
X0064700Y0312200D03*
X0079700Y0312200D03*
X0119700Y0312200D03*
D21*
X0127200Y0304700D01*
X0127200Y0259700D01*
X0119700Y0252200D01*
X0102200Y0252200D01*
X0097200Y0247200D01*
X0097200Y0118450D01*
X0078450Y0099700D01*
X0032200Y0099700D01*
X0024700Y0092200D01*
X0014700Y0092200D01*
X0014700Y0102200D02*
X0027200Y0102200D01*
X0030950Y0105950D01*
X0075950Y0105950D01*
X0090950Y0120950D01*
X0090950Y0257200D01*
X0104700Y0270950D01*
X0104700Y0292200D01*
X0094700Y0292200D02*
X0094700Y0272200D01*
X0084700Y0262200D01*
X0084700Y0123450D01*
X0073450Y0112200D01*
X0014700Y0112200D01*
X0014700Y0122200D02*
X0032200Y0122200D01*
X0047200Y0137200D01*
X0047200Y0262200D01*
X0050950Y0265950D01*
X0058450Y0265950D01*
X0064700Y0272200D01*
X0064700Y0312200D01*
X0044700Y0292200D02*
X0044700Y0275950D01*
X0040950Y0272200D01*
X0040950Y0140950D01*
X0032200Y0132200D01*
X0014700Y0132200D01*
X0014700Y0142200D02*
X0029700Y0142200D01*
X0034700Y0147200D01*
X0034700Y0292200D01*
X0044700Y0364641D02*
X0044700Y0372200D01*
X0049700Y0377200D01*
X0064700Y0377200D01*
X0070950Y0370950D01*
X0070950Y0178450D01*
X0064700Y0172200D01*
X0104700Y0182200D02*
X0104700Y0244700D01*
X0107200Y0247200D01*
X0122200Y0247200D01*
X0132200Y0257200D01*
X0132200Y0372200D01*
X0127200Y0377200D01*
X0109700Y0377200D01*
X0104700Y0372200D01*
X0104700Y0364641D01*
D22*
X0104700Y0182200D03*
X0064700Y0172200D03*
M02*
