G75*
%MOIN*%
%OFA0B0*%
%FSLAX25Y25*%
%IPPOS*%
%LPD*%
%AMOC8*
5,1,8,0,0,1.08239X$1,22.5*
%
%ADD10C,0.00000*%
%ADD11C,0.13300*%
%ADD12C,0.01600*%
%ADD13C,0.07400*%
%ADD14C,0.13800*%
%ADD15C,0.07296*%
%ADD16R,0.07296X0.07296*%
%ADD17OC8,0.07296*%
%ADD18R,0.13068X0.13068*%
%ADD19OC8,0.07800*%
%ADD20C,0.07296*%
%ADD21C,0.08200*%
%ADD22C,0.04762*%
D10*
X0008450Y0017200D02*
X0008452Y0017358D01*
X0008458Y0017515D01*
X0008468Y0017673D01*
X0008482Y0017830D01*
X0008500Y0017986D01*
X0008521Y0018143D01*
X0008547Y0018298D01*
X0008577Y0018453D01*
X0008610Y0018607D01*
X0008648Y0018760D01*
X0008689Y0018913D01*
X0008734Y0019064D01*
X0008783Y0019214D01*
X0008836Y0019362D01*
X0008892Y0019510D01*
X0008953Y0019655D01*
X0009016Y0019800D01*
X0009084Y0019942D01*
X0009155Y0020083D01*
X0009229Y0020222D01*
X0009307Y0020359D01*
X0009389Y0020494D01*
X0009473Y0020627D01*
X0009562Y0020758D01*
X0009653Y0020886D01*
X0009748Y0021013D01*
X0009845Y0021136D01*
X0009946Y0021258D01*
X0010050Y0021376D01*
X0010157Y0021492D01*
X0010267Y0021605D01*
X0010379Y0021716D01*
X0010495Y0021823D01*
X0010613Y0021928D01*
X0010733Y0022030D01*
X0010856Y0022128D01*
X0010982Y0022224D01*
X0011110Y0022316D01*
X0011240Y0022405D01*
X0011372Y0022491D01*
X0011507Y0022573D01*
X0011644Y0022652D01*
X0011782Y0022727D01*
X0011922Y0022799D01*
X0012065Y0022867D01*
X0012208Y0022932D01*
X0012354Y0022993D01*
X0012501Y0023050D01*
X0012649Y0023104D01*
X0012799Y0023154D01*
X0012949Y0023200D01*
X0013101Y0023242D01*
X0013254Y0023281D01*
X0013408Y0023315D01*
X0013563Y0023346D01*
X0013718Y0023372D01*
X0013874Y0023395D01*
X0014031Y0023414D01*
X0014188Y0023429D01*
X0014345Y0023440D01*
X0014503Y0023447D01*
X0014661Y0023450D01*
X0014818Y0023449D01*
X0014976Y0023444D01*
X0015133Y0023435D01*
X0015291Y0023422D01*
X0015447Y0023405D01*
X0015604Y0023384D01*
X0015759Y0023360D01*
X0015914Y0023331D01*
X0016069Y0023298D01*
X0016222Y0023262D01*
X0016375Y0023221D01*
X0016526Y0023177D01*
X0016676Y0023129D01*
X0016825Y0023078D01*
X0016973Y0023022D01*
X0017119Y0022963D01*
X0017264Y0022900D01*
X0017407Y0022833D01*
X0017548Y0022763D01*
X0017687Y0022690D01*
X0017825Y0022613D01*
X0017961Y0022532D01*
X0018094Y0022448D01*
X0018225Y0022361D01*
X0018354Y0022270D01*
X0018481Y0022176D01*
X0018606Y0022079D01*
X0018727Y0021979D01*
X0018847Y0021876D01*
X0018963Y0021770D01*
X0019077Y0021661D01*
X0019189Y0021549D01*
X0019297Y0021435D01*
X0019402Y0021317D01*
X0019505Y0021197D01*
X0019604Y0021075D01*
X0019700Y0020950D01*
X0019793Y0020822D01*
X0019883Y0020693D01*
X0019969Y0020561D01*
X0020053Y0020427D01*
X0020132Y0020291D01*
X0020209Y0020153D01*
X0020281Y0020013D01*
X0020350Y0019871D01*
X0020416Y0019728D01*
X0020478Y0019583D01*
X0020536Y0019436D01*
X0020591Y0019288D01*
X0020642Y0019139D01*
X0020689Y0018988D01*
X0020732Y0018837D01*
X0020771Y0018684D01*
X0020807Y0018530D01*
X0020838Y0018376D01*
X0020866Y0018221D01*
X0020890Y0018065D01*
X0020910Y0017908D01*
X0020926Y0017751D01*
X0020938Y0017594D01*
X0020946Y0017437D01*
X0020950Y0017279D01*
X0020950Y0017121D01*
X0020946Y0016963D01*
X0020938Y0016806D01*
X0020926Y0016649D01*
X0020910Y0016492D01*
X0020890Y0016335D01*
X0020866Y0016179D01*
X0020838Y0016024D01*
X0020807Y0015870D01*
X0020771Y0015716D01*
X0020732Y0015563D01*
X0020689Y0015412D01*
X0020642Y0015261D01*
X0020591Y0015112D01*
X0020536Y0014964D01*
X0020478Y0014817D01*
X0020416Y0014672D01*
X0020350Y0014529D01*
X0020281Y0014387D01*
X0020209Y0014247D01*
X0020132Y0014109D01*
X0020053Y0013973D01*
X0019969Y0013839D01*
X0019883Y0013707D01*
X0019793Y0013578D01*
X0019700Y0013450D01*
X0019604Y0013325D01*
X0019505Y0013203D01*
X0019402Y0013083D01*
X0019297Y0012965D01*
X0019189Y0012851D01*
X0019077Y0012739D01*
X0018963Y0012630D01*
X0018847Y0012524D01*
X0018727Y0012421D01*
X0018606Y0012321D01*
X0018481Y0012224D01*
X0018354Y0012130D01*
X0018225Y0012039D01*
X0018094Y0011952D01*
X0017961Y0011868D01*
X0017825Y0011787D01*
X0017687Y0011710D01*
X0017548Y0011637D01*
X0017407Y0011567D01*
X0017264Y0011500D01*
X0017119Y0011437D01*
X0016973Y0011378D01*
X0016825Y0011322D01*
X0016676Y0011271D01*
X0016526Y0011223D01*
X0016375Y0011179D01*
X0016222Y0011138D01*
X0016069Y0011102D01*
X0015914Y0011069D01*
X0015759Y0011040D01*
X0015604Y0011016D01*
X0015447Y0010995D01*
X0015291Y0010978D01*
X0015133Y0010965D01*
X0014976Y0010956D01*
X0014818Y0010951D01*
X0014661Y0010950D01*
X0014503Y0010953D01*
X0014345Y0010960D01*
X0014188Y0010971D01*
X0014031Y0010986D01*
X0013874Y0011005D01*
X0013718Y0011028D01*
X0013563Y0011054D01*
X0013408Y0011085D01*
X0013254Y0011119D01*
X0013101Y0011158D01*
X0012949Y0011200D01*
X0012799Y0011246D01*
X0012649Y0011296D01*
X0012501Y0011350D01*
X0012354Y0011407D01*
X0012208Y0011468D01*
X0012065Y0011533D01*
X0011922Y0011601D01*
X0011782Y0011673D01*
X0011644Y0011748D01*
X0011507Y0011827D01*
X0011372Y0011909D01*
X0011240Y0011995D01*
X0011110Y0012084D01*
X0010982Y0012176D01*
X0010856Y0012272D01*
X0010733Y0012370D01*
X0010613Y0012472D01*
X0010495Y0012577D01*
X0010379Y0012684D01*
X0010267Y0012795D01*
X0010157Y0012908D01*
X0010050Y0013024D01*
X0009946Y0013142D01*
X0009845Y0013264D01*
X0009748Y0013387D01*
X0009653Y0013514D01*
X0009562Y0013642D01*
X0009473Y0013773D01*
X0009389Y0013906D01*
X0009307Y0014041D01*
X0009229Y0014178D01*
X0009155Y0014317D01*
X0009084Y0014458D01*
X0009016Y0014600D01*
X0008953Y0014745D01*
X0008892Y0014890D01*
X0008836Y0015038D01*
X0008783Y0015186D01*
X0008734Y0015336D01*
X0008689Y0015487D01*
X0008648Y0015640D01*
X0008610Y0015793D01*
X0008577Y0015947D01*
X0008547Y0016102D01*
X0008521Y0016257D01*
X0008500Y0016414D01*
X0008482Y0016570D01*
X0008468Y0016727D01*
X0008458Y0016885D01*
X0008452Y0017042D01*
X0008450Y0017200D01*
X0158450Y0042200D02*
X0158452Y0042358D01*
X0158458Y0042515D01*
X0158468Y0042673D01*
X0158482Y0042830D01*
X0158500Y0042986D01*
X0158521Y0043143D01*
X0158547Y0043298D01*
X0158577Y0043453D01*
X0158610Y0043607D01*
X0158648Y0043760D01*
X0158689Y0043913D01*
X0158734Y0044064D01*
X0158783Y0044214D01*
X0158836Y0044362D01*
X0158892Y0044510D01*
X0158953Y0044655D01*
X0159016Y0044800D01*
X0159084Y0044942D01*
X0159155Y0045083D01*
X0159229Y0045222D01*
X0159307Y0045359D01*
X0159389Y0045494D01*
X0159473Y0045627D01*
X0159562Y0045758D01*
X0159653Y0045886D01*
X0159748Y0046013D01*
X0159845Y0046136D01*
X0159946Y0046258D01*
X0160050Y0046376D01*
X0160157Y0046492D01*
X0160267Y0046605D01*
X0160379Y0046716D01*
X0160495Y0046823D01*
X0160613Y0046928D01*
X0160733Y0047030D01*
X0160856Y0047128D01*
X0160982Y0047224D01*
X0161110Y0047316D01*
X0161240Y0047405D01*
X0161372Y0047491D01*
X0161507Y0047573D01*
X0161644Y0047652D01*
X0161782Y0047727D01*
X0161922Y0047799D01*
X0162065Y0047867D01*
X0162208Y0047932D01*
X0162354Y0047993D01*
X0162501Y0048050D01*
X0162649Y0048104D01*
X0162799Y0048154D01*
X0162949Y0048200D01*
X0163101Y0048242D01*
X0163254Y0048281D01*
X0163408Y0048315D01*
X0163563Y0048346D01*
X0163718Y0048372D01*
X0163874Y0048395D01*
X0164031Y0048414D01*
X0164188Y0048429D01*
X0164345Y0048440D01*
X0164503Y0048447D01*
X0164661Y0048450D01*
X0164818Y0048449D01*
X0164976Y0048444D01*
X0165133Y0048435D01*
X0165291Y0048422D01*
X0165447Y0048405D01*
X0165604Y0048384D01*
X0165759Y0048360D01*
X0165914Y0048331D01*
X0166069Y0048298D01*
X0166222Y0048262D01*
X0166375Y0048221D01*
X0166526Y0048177D01*
X0166676Y0048129D01*
X0166825Y0048078D01*
X0166973Y0048022D01*
X0167119Y0047963D01*
X0167264Y0047900D01*
X0167407Y0047833D01*
X0167548Y0047763D01*
X0167687Y0047690D01*
X0167825Y0047613D01*
X0167961Y0047532D01*
X0168094Y0047448D01*
X0168225Y0047361D01*
X0168354Y0047270D01*
X0168481Y0047176D01*
X0168606Y0047079D01*
X0168727Y0046979D01*
X0168847Y0046876D01*
X0168963Y0046770D01*
X0169077Y0046661D01*
X0169189Y0046549D01*
X0169297Y0046435D01*
X0169402Y0046317D01*
X0169505Y0046197D01*
X0169604Y0046075D01*
X0169700Y0045950D01*
X0169793Y0045822D01*
X0169883Y0045693D01*
X0169969Y0045561D01*
X0170053Y0045427D01*
X0170132Y0045291D01*
X0170209Y0045153D01*
X0170281Y0045013D01*
X0170350Y0044871D01*
X0170416Y0044728D01*
X0170478Y0044583D01*
X0170536Y0044436D01*
X0170591Y0044288D01*
X0170642Y0044139D01*
X0170689Y0043988D01*
X0170732Y0043837D01*
X0170771Y0043684D01*
X0170807Y0043530D01*
X0170838Y0043376D01*
X0170866Y0043221D01*
X0170890Y0043065D01*
X0170910Y0042908D01*
X0170926Y0042751D01*
X0170938Y0042594D01*
X0170946Y0042437D01*
X0170950Y0042279D01*
X0170950Y0042121D01*
X0170946Y0041963D01*
X0170938Y0041806D01*
X0170926Y0041649D01*
X0170910Y0041492D01*
X0170890Y0041335D01*
X0170866Y0041179D01*
X0170838Y0041024D01*
X0170807Y0040870D01*
X0170771Y0040716D01*
X0170732Y0040563D01*
X0170689Y0040412D01*
X0170642Y0040261D01*
X0170591Y0040112D01*
X0170536Y0039964D01*
X0170478Y0039817D01*
X0170416Y0039672D01*
X0170350Y0039529D01*
X0170281Y0039387D01*
X0170209Y0039247D01*
X0170132Y0039109D01*
X0170053Y0038973D01*
X0169969Y0038839D01*
X0169883Y0038707D01*
X0169793Y0038578D01*
X0169700Y0038450D01*
X0169604Y0038325D01*
X0169505Y0038203D01*
X0169402Y0038083D01*
X0169297Y0037965D01*
X0169189Y0037851D01*
X0169077Y0037739D01*
X0168963Y0037630D01*
X0168847Y0037524D01*
X0168727Y0037421D01*
X0168606Y0037321D01*
X0168481Y0037224D01*
X0168354Y0037130D01*
X0168225Y0037039D01*
X0168094Y0036952D01*
X0167961Y0036868D01*
X0167825Y0036787D01*
X0167687Y0036710D01*
X0167548Y0036637D01*
X0167407Y0036567D01*
X0167264Y0036500D01*
X0167119Y0036437D01*
X0166973Y0036378D01*
X0166825Y0036322D01*
X0166676Y0036271D01*
X0166526Y0036223D01*
X0166375Y0036179D01*
X0166222Y0036138D01*
X0166069Y0036102D01*
X0165914Y0036069D01*
X0165759Y0036040D01*
X0165604Y0036016D01*
X0165447Y0035995D01*
X0165291Y0035978D01*
X0165133Y0035965D01*
X0164976Y0035956D01*
X0164818Y0035951D01*
X0164661Y0035950D01*
X0164503Y0035953D01*
X0164345Y0035960D01*
X0164188Y0035971D01*
X0164031Y0035986D01*
X0163874Y0036005D01*
X0163718Y0036028D01*
X0163563Y0036054D01*
X0163408Y0036085D01*
X0163254Y0036119D01*
X0163101Y0036158D01*
X0162949Y0036200D01*
X0162799Y0036246D01*
X0162649Y0036296D01*
X0162501Y0036350D01*
X0162354Y0036407D01*
X0162208Y0036468D01*
X0162065Y0036533D01*
X0161922Y0036601D01*
X0161782Y0036673D01*
X0161644Y0036748D01*
X0161507Y0036827D01*
X0161372Y0036909D01*
X0161240Y0036995D01*
X0161110Y0037084D01*
X0160982Y0037176D01*
X0160856Y0037272D01*
X0160733Y0037370D01*
X0160613Y0037472D01*
X0160495Y0037577D01*
X0160379Y0037684D01*
X0160267Y0037795D01*
X0160157Y0037908D01*
X0160050Y0038024D01*
X0159946Y0038142D01*
X0159845Y0038264D01*
X0159748Y0038387D01*
X0159653Y0038514D01*
X0159562Y0038642D01*
X0159473Y0038773D01*
X0159389Y0038906D01*
X0159307Y0039041D01*
X0159229Y0039178D01*
X0159155Y0039317D01*
X0159084Y0039458D01*
X0159016Y0039600D01*
X0158953Y0039745D01*
X0158892Y0039890D01*
X0158836Y0040038D01*
X0158783Y0040186D01*
X0158734Y0040336D01*
X0158689Y0040487D01*
X0158648Y0040640D01*
X0158610Y0040793D01*
X0158577Y0040947D01*
X0158547Y0041102D01*
X0158521Y0041257D01*
X0158500Y0041414D01*
X0158482Y0041570D01*
X0158468Y0041727D01*
X0158458Y0041885D01*
X0158452Y0042042D01*
X0158450Y0042200D01*
X0158450Y0092200D02*
X0158452Y0092358D01*
X0158458Y0092515D01*
X0158468Y0092673D01*
X0158482Y0092830D01*
X0158500Y0092986D01*
X0158521Y0093143D01*
X0158547Y0093298D01*
X0158577Y0093453D01*
X0158610Y0093607D01*
X0158648Y0093760D01*
X0158689Y0093913D01*
X0158734Y0094064D01*
X0158783Y0094214D01*
X0158836Y0094362D01*
X0158892Y0094510D01*
X0158953Y0094655D01*
X0159016Y0094800D01*
X0159084Y0094942D01*
X0159155Y0095083D01*
X0159229Y0095222D01*
X0159307Y0095359D01*
X0159389Y0095494D01*
X0159473Y0095627D01*
X0159562Y0095758D01*
X0159653Y0095886D01*
X0159748Y0096013D01*
X0159845Y0096136D01*
X0159946Y0096258D01*
X0160050Y0096376D01*
X0160157Y0096492D01*
X0160267Y0096605D01*
X0160379Y0096716D01*
X0160495Y0096823D01*
X0160613Y0096928D01*
X0160733Y0097030D01*
X0160856Y0097128D01*
X0160982Y0097224D01*
X0161110Y0097316D01*
X0161240Y0097405D01*
X0161372Y0097491D01*
X0161507Y0097573D01*
X0161644Y0097652D01*
X0161782Y0097727D01*
X0161922Y0097799D01*
X0162065Y0097867D01*
X0162208Y0097932D01*
X0162354Y0097993D01*
X0162501Y0098050D01*
X0162649Y0098104D01*
X0162799Y0098154D01*
X0162949Y0098200D01*
X0163101Y0098242D01*
X0163254Y0098281D01*
X0163408Y0098315D01*
X0163563Y0098346D01*
X0163718Y0098372D01*
X0163874Y0098395D01*
X0164031Y0098414D01*
X0164188Y0098429D01*
X0164345Y0098440D01*
X0164503Y0098447D01*
X0164661Y0098450D01*
X0164818Y0098449D01*
X0164976Y0098444D01*
X0165133Y0098435D01*
X0165291Y0098422D01*
X0165447Y0098405D01*
X0165604Y0098384D01*
X0165759Y0098360D01*
X0165914Y0098331D01*
X0166069Y0098298D01*
X0166222Y0098262D01*
X0166375Y0098221D01*
X0166526Y0098177D01*
X0166676Y0098129D01*
X0166825Y0098078D01*
X0166973Y0098022D01*
X0167119Y0097963D01*
X0167264Y0097900D01*
X0167407Y0097833D01*
X0167548Y0097763D01*
X0167687Y0097690D01*
X0167825Y0097613D01*
X0167961Y0097532D01*
X0168094Y0097448D01*
X0168225Y0097361D01*
X0168354Y0097270D01*
X0168481Y0097176D01*
X0168606Y0097079D01*
X0168727Y0096979D01*
X0168847Y0096876D01*
X0168963Y0096770D01*
X0169077Y0096661D01*
X0169189Y0096549D01*
X0169297Y0096435D01*
X0169402Y0096317D01*
X0169505Y0096197D01*
X0169604Y0096075D01*
X0169700Y0095950D01*
X0169793Y0095822D01*
X0169883Y0095693D01*
X0169969Y0095561D01*
X0170053Y0095427D01*
X0170132Y0095291D01*
X0170209Y0095153D01*
X0170281Y0095013D01*
X0170350Y0094871D01*
X0170416Y0094728D01*
X0170478Y0094583D01*
X0170536Y0094436D01*
X0170591Y0094288D01*
X0170642Y0094139D01*
X0170689Y0093988D01*
X0170732Y0093837D01*
X0170771Y0093684D01*
X0170807Y0093530D01*
X0170838Y0093376D01*
X0170866Y0093221D01*
X0170890Y0093065D01*
X0170910Y0092908D01*
X0170926Y0092751D01*
X0170938Y0092594D01*
X0170946Y0092437D01*
X0170950Y0092279D01*
X0170950Y0092121D01*
X0170946Y0091963D01*
X0170938Y0091806D01*
X0170926Y0091649D01*
X0170910Y0091492D01*
X0170890Y0091335D01*
X0170866Y0091179D01*
X0170838Y0091024D01*
X0170807Y0090870D01*
X0170771Y0090716D01*
X0170732Y0090563D01*
X0170689Y0090412D01*
X0170642Y0090261D01*
X0170591Y0090112D01*
X0170536Y0089964D01*
X0170478Y0089817D01*
X0170416Y0089672D01*
X0170350Y0089529D01*
X0170281Y0089387D01*
X0170209Y0089247D01*
X0170132Y0089109D01*
X0170053Y0088973D01*
X0169969Y0088839D01*
X0169883Y0088707D01*
X0169793Y0088578D01*
X0169700Y0088450D01*
X0169604Y0088325D01*
X0169505Y0088203D01*
X0169402Y0088083D01*
X0169297Y0087965D01*
X0169189Y0087851D01*
X0169077Y0087739D01*
X0168963Y0087630D01*
X0168847Y0087524D01*
X0168727Y0087421D01*
X0168606Y0087321D01*
X0168481Y0087224D01*
X0168354Y0087130D01*
X0168225Y0087039D01*
X0168094Y0086952D01*
X0167961Y0086868D01*
X0167825Y0086787D01*
X0167687Y0086710D01*
X0167548Y0086637D01*
X0167407Y0086567D01*
X0167264Y0086500D01*
X0167119Y0086437D01*
X0166973Y0086378D01*
X0166825Y0086322D01*
X0166676Y0086271D01*
X0166526Y0086223D01*
X0166375Y0086179D01*
X0166222Y0086138D01*
X0166069Y0086102D01*
X0165914Y0086069D01*
X0165759Y0086040D01*
X0165604Y0086016D01*
X0165447Y0085995D01*
X0165291Y0085978D01*
X0165133Y0085965D01*
X0164976Y0085956D01*
X0164818Y0085951D01*
X0164661Y0085950D01*
X0164503Y0085953D01*
X0164345Y0085960D01*
X0164188Y0085971D01*
X0164031Y0085986D01*
X0163874Y0086005D01*
X0163718Y0086028D01*
X0163563Y0086054D01*
X0163408Y0086085D01*
X0163254Y0086119D01*
X0163101Y0086158D01*
X0162949Y0086200D01*
X0162799Y0086246D01*
X0162649Y0086296D01*
X0162501Y0086350D01*
X0162354Y0086407D01*
X0162208Y0086468D01*
X0162065Y0086533D01*
X0161922Y0086601D01*
X0161782Y0086673D01*
X0161644Y0086748D01*
X0161507Y0086827D01*
X0161372Y0086909D01*
X0161240Y0086995D01*
X0161110Y0087084D01*
X0160982Y0087176D01*
X0160856Y0087272D01*
X0160733Y0087370D01*
X0160613Y0087472D01*
X0160495Y0087577D01*
X0160379Y0087684D01*
X0160267Y0087795D01*
X0160157Y0087908D01*
X0160050Y0088024D01*
X0159946Y0088142D01*
X0159845Y0088264D01*
X0159748Y0088387D01*
X0159653Y0088514D01*
X0159562Y0088642D01*
X0159473Y0088773D01*
X0159389Y0088906D01*
X0159307Y0089041D01*
X0159229Y0089178D01*
X0159155Y0089317D01*
X0159084Y0089458D01*
X0159016Y0089600D01*
X0158953Y0089745D01*
X0158892Y0089890D01*
X0158836Y0090038D01*
X0158783Y0090186D01*
X0158734Y0090336D01*
X0158689Y0090487D01*
X0158648Y0090640D01*
X0158610Y0090793D01*
X0158577Y0090947D01*
X0158547Y0091102D01*
X0158521Y0091257D01*
X0158500Y0091414D01*
X0158482Y0091570D01*
X0158468Y0091727D01*
X0158458Y0091885D01*
X0158452Y0092042D01*
X0158450Y0092200D01*
X0158450Y0142200D02*
X0158452Y0142358D01*
X0158458Y0142515D01*
X0158468Y0142673D01*
X0158482Y0142830D01*
X0158500Y0142986D01*
X0158521Y0143143D01*
X0158547Y0143298D01*
X0158577Y0143453D01*
X0158610Y0143607D01*
X0158648Y0143760D01*
X0158689Y0143913D01*
X0158734Y0144064D01*
X0158783Y0144214D01*
X0158836Y0144362D01*
X0158892Y0144510D01*
X0158953Y0144655D01*
X0159016Y0144800D01*
X0159084Y0144942D01*
X0159155Y0145083D01*
X0159229Y0145222D01*
X0159307Y0145359D01*
X0159389Y0145494D01*
X0159473Y0145627D01*
X0159562Y0145758D01*
X0159653Y0145886D01*
X0159748Y0146013D01*
X0159845Y0146136D01*
X0159946Y0146258D01*
X0160050Y0146376D01*
X0160157Y0146492D01*
X0160267Y0146605D01*
X0160379Y0146716D01*
X0160495Y0146823D01*
X0160613Y0146928D01*
X0160733Y0147030D01*
X0160856Y0147128D01*
X0160982Y0147224D01*
X0161110Y0147316D01*
X0161240Y0147405D01*
X0161372Y0147491D01*
X0161507Y0147573D01*
X0161644Y0147652D01*
X0161782Y0147727D01*
X0161922Y0147799D01*
X0162065Y0147867D01*
X0162208Y0147932D01*
X0162354Y0147993D01*
X0162501Y0148050D01*
X0162649Y0148104D01*
X0162799Y0148154D01*
X0162949Y0148200D01*
X0163101Y0148242D01*
X0163254Y0148281D01*
X0163408Y0148315D01*
X0163563Y0148346D01*
X0163718Y0148372D01*
X0163874Y0148395D01*
X0164031Y0148414D01*
X0164188Y0148429D01*
X0164345Y0148440D01*
X0164503Y0148447D01*
X0164661Y0148450D01*
X0164818Y0148449D01*
X0164976Y0148444D01*
X0165133Y0148435D01*
X0165291Y0148422D01*
X0165447Y0148405D01*
X0165604Y0148384D01*
X0165759Y0148360D01*
X0165914Y0148331D01*
X0166069Y0148298D01*
X0166222Y0148262D01*
X0166375Y0148221D01*
X0166526Y0148177D01*
X0166676Y0148129D01*
X0166825Y0148078D01*
X0166973Y0148022D01*
X0167119Y0147963D01*
X0167264Y0147900D01*
X0167407Y0147833D01*
X0167548Y0147763D01*
X0167687Y0147690D01*
X0167825Y0147613D01*
X0167961Y0147532D01*
X0168094Y0147448D01*
X0168225Y0147361D01*
X0168354Y0147270D01*
X0168481Y0147176D01*
X0168606Y0147079D01*
X0168727Y0146979D01*
X0168847Y0146876D01*
X0168963Y0146770D01*
X0169077Y0146661D01*
X0169189Y0146549D01*
X0169297Y0146435D01*
X0169402Y0146317D01*
X0169505Y0146197D01*
X0169604Y0146075D01*
X0169700Y0145950D01*
X0169793Y0145822D01*
X0169883Y0145693D01*
X0169969Y0145561D01*
X0170053Y0145427D01*
X0170132Y0145291D01*
X0170209Y0145153D01*
X0170281Y0145013D01*
X0170350Y0144871D01*
X0170416Y0144728D01*
X0170478Y0144583D01*
X0170536Y0144436D01*
X0170591Y0144288D01*
X0170642Y0144139D01*
X0170689Y0143988D01*
X0170732Y0143837D01*
X0170771Y0143684D01*
X0170807Y0143530D01*
X0170838Y0143376D01*
X0170866Y0143221D01*
X0170890Y0143065D01*
X0170910Y0142908D01*
X0170926Y0142751D01*
X0170938Y0142594D01*
X0170946Y0142437D01*
X0170950Y0142279D01*
X0170950Y0142121D01*
X0170946Y0141963D01*
X0170938Y0141806D01*
X0170926Y0141649D01*
X0170910Y0141492D01*
X0170890Y0141335D01*
X0170866Y0141179D01*
X0170838Y0141024D01*
X0170807Y0140870D01*
X0170771Y0140716D01*
X0170732Y0140563D01*
X0170689Y0140412D01*
X0170642Y0140261D01*
X0170591Y0140112D01*
X0170536Y0139964D01*
X0170478Y0139817D01*
X0170416Y0139672D01*
X0170350Y0139529D01*
X0170281Y0139387D01*
X0170209Y0139247D01*
X0170132Y0139109D01*
X0170053Y0138973D01*
X0169969Y0138839D01*
X0169883Y0138707D01*
X0169793Y0138578D01*
X0169700Y0138450D01*
X0169604Y0138325D01*
X0169505Y0138203D01*
X0169402Y0138083D01*
X0169297Y0137965D01*
X0169189Y0137851D01*
X0169077Y0137739D01*
X0168963Y0137630D01*
X0168847Y0137524D01*
X0168727Y0137421D01*
X0168606Y0137321D01*
X0168481Y0137224D01*
X0168354Y0137130D01*
X0168225Y0137039D01*
X0168094Y0136952D01*
X0167961Y0136868D01*
X0167825Y0136787D01*
X0167687Y0136710D01*
X0167548Y0136637D01*
X0167407Y0136567D01*
X0167264Y0136500D01*
X0167119Y0136437D01*
X0166973Y0136378D01*
X0166825Y0136322D01*
X0166676Y0136271D01*
X0166526Y0136223D01*
X0166375Y0136179D01*
X0166222Y0136138D01*
X0166069Y0136102D01*
X0165914Y0136069D01*
X0165759Y0136040D01*
X0165604Y0136016D01*
X0165447Y0135995D01*
X0165291Y0135978D01*
X0165133Y0135965D01*
X0164976Y0135956D01*
X0164818Y0135951D01*
X0164661Y0135950D01*
X0164503Y0135953D01*
X0164345Y0135960D01*
X0164188Y0135971D01*
X0164031Y0135986D01*
X0163874Y0136005D01*
X0163718Y0136028D01*
X0163563Y0136054D01*
X0163408Y0136085D01*
X0163254Y0136119D01*
X0163101Y0136158D01*
X0162949Y0136200D01*
X0162799Y0136246D01*
X0162649Y0136296D01*
X0162501Y0136350D01*
X0162354Y0136407D01*
X0162208Y0136468D01*
X0162065Y0136533D01*
X0161922Y0136601D01*
X0161782Y0136673D01*
X0161644Y0136748D01*
X0161507Y0136827D01*
X0161372Y0136909D01*
X0161240Y0136995D01*
X0161110Y0137084D01*
X0160982Y0137176D01*
X0160856Y0137272D01*
X0160733Y0137370D01*
X0160613Y0137472D01*
X0160495Y0137577D01*
X0160379Y0137684D01*
X0160267Y0137795D01*
X0160157Y0137908D01*
X0160050Y0138024D01*
X0159946Y0138142D01*
X0159845Y0138264D01*
X0159748Y0138387D01*
X0159653Y0138514D01*
X0159562Y0138642D01*
X0159473Y0138773D01*
X0159389Y0138906D01*
X0159307Y0139041D01*
X0159229Y0139178D01*
X0159155Y0139317D01*
X0159084Y0139458D01*
X0159016Y0139600D01*
X0158953Y0139745D01*
X0158892Y0139890D01*
X0158836Y0140038D01*
X0158783Y0140186D01*
X0158734Y0140336D01*
X0158689Y0140487D01*
X0158648Y0140640D01*
X0158610Y0140793D01*
X0158577Y0140947D01*
X0158547Y0141102D01*
X0158521Y0141257D01*
X0158500Y0141414D01*
X0158482Y0141570D01*
X0158468Y0141727D01*
X0158458Y0141885D01*
X0158452Y0142042D01*
X0158450Y0142200D01*
X0158450Y0192200D02*
X0158452Y0192358D01*
X0158458Y0192515D01*
X0158468Y0192673D01*
X0158482Y0192830D01*
X0158500Y0192986D01*
X0158521Y0193143D01*
X0158547Y0193298D01*
X0158577Y0193453D01*
X0158610Y0193607D01*
X0158648Y0193760D01*
X0158689Y0193913D01*
X0158734Y0194064D01*
X0158783Y0194214D01*
X0158836Y0194362D01*
X0158892Y0194510D01*
X0158953Y0194655D01*
X0159016Y0194800D01*
X0159084Y0194942D01*
X0159155Y0195083D01*
X0159229Y0195222D01*
X0159307Y0195359D01*
X0159389Y0195494D01*
X0159473Y0195627D01*
X0159562Y0195758D01*
X0159653Y0195886D01*
X0159748Y0196013D01*
X0159845Y0196136D01*
X0159946Y0196258D01*
X0160050Y0196376D01*
X0160157Y0196492D01*
X0160267Y0196605D01*
X0160379Y0196716D01*
X0160495Y0196823D01*
X0160613Y0196928D01*
X0160733Y0197030D01*
X0160856Y0197128D01*
X0160982Y0197224D01*
X0161110Y0197316D01*
X0161240Y0197405D01*
X0161372Y0197491D01*
X0161507Y0197573D01*
X0161644Y0197652D01*
X0161782Y0197727D01*
X0161922Y0197799D01*
X0162065Y0197867D01*
X0162208Y0197932D01*
X0162354Y0197993D01*
X0162501Y0198050D01*
X0162649Y0198104D01*
X0162799Y0198154D01*
X0162949Y0198200D01*
X0163101Y0198242D01*
X0163254Y0198281D01*
X0163408Y0198315D01*
X0163563Y0198346D01*
X0163718Y0198372D01*
X0163874Y0198395D01*
X0164031Y0198414D01*
X0164188Y0198429D01*
X0164345Y0198440D01*
X0164503Y0198447D01*
X0164661Y0198450D01*
X0164818Y0198449D01*
X0164976Y0198444D01*
X0165133Y0198435D01*
X0165291Y0198422D01*
X0165447Y0198405D01*
X0165604Y0198384D01*
X0165759Y0198360D01*
X0165914Y0198331D01*
X0166069Y0198298D01*
X0166222Y0198262D01*
X0166375Y0198221D01*
X0166526Y0198177D01*
X0166676Y0198129D01*
X0166825Y0198078D01*
X0166973Y0198022D01*
X0167119Y0197963D01*
X0167264Y0197900D01*
X0167407Y0197833D01*
X0167548Y0197763D01*
X0167687Y0197690D01*
X0167825Y0197613D01*
X0167961Y0197532D01*
X0168094Y0197448D01*
X0168225Y0197361D01*
X0168354Y0197270D01*
X0168481Y0197176D01*
X0168606Y0197079D01*
X0168727Y0196979D01*
X0168847Y0196876D01*
X0168963Y0196770D01*
X0169077Y0196661D01*
X0169189Y0196549D01*
X0169297Y0196435D01*
X0169402Y0196317D01*
X0169505Y0196197D01*
X0169604Y0196075D01*
X0169700Y0195950D01*
X0169793Y0195822D01*
X0169883Y0195693D01*
X0169969Y0195561D01*
X0170053Y0195427D01*
X0170132Y0195291D01*
X0170209Y0195153D01*
X0170281Y0195013D01*
X0170350Y0194871D01*
X0170416Y0194728D01*
X0170478Y0194583D01*
X0170536Y0194436D01*
X0170591Y0194288D01*
X0170642Y0194139D01*
X0170689Y0193988D01*
X0170732Y0193837D01*
X0170771Y0193684D01*
X0170807Y0193530D01*
X0170838Y0193376D01*
X0170866Y0193221D01*
X0170890Y0193065D01*
X0170910Y0192908D01*
X0170926Y0192751D01*
X0170938Y0192594D01*
X0170946Y0192437D01*
X0170950Y0192279D01*
X0170950Y0192121D01*
X0170946Y0191963D01*
X0170938Y0191806D01*
X0170926Y0191649D01*
X0170910Y0191492D01*
X0170890Y0191335D01*
X0170866Y0191179D01*
X0170838Y0191024D01*
X0170807Y0190870D01*
X0170771Y0190716D01*
X0170732Y0190563D01*
X0170689Y0190412D01*
X0170642Y0190261D01*
X0170591Y0190112D01*
X0170536Y0189964D01*
X0170478Y0189817D01*
X0170416Y0189672D01*
X0170350Y0189529D01*
X0170281Y0189387D01*
X0170209Y0189247D01*
X0170132Y0189109D01*
X0170053Y0188973D01*
X0169969Y0188839D01*
X0169883Y0188707D01*
X0169793Y0188578D01*
X0169700Y0188450D01*
X0169604Y0188325D01*
X0169505Y0188203D01*
X0169402Y0188083D01*
X0169297Y0187965D01*
X0169189Y0187851D01*
X0169077Y0187739D01*
X0168963Y0187630D01*
X0168847Y0187524D01*
X0168727Y0187421D01*
X0168606Y0187321D01*
X0168481Y0187224D01*
X0168354Y0187130D01*
X0168225Y0187039D01*
X0168094Y0186952D01*
X0167961Y0186868D01*
X0167825Y0186787D01*
X0167687Y0186710D01*
X0167548Y0186637D01*
X0167407Y0186567D01*
X0167264Y0186500D01*
X0167119Y0186437D01*
X0166973Y0186378D01*
X0166825Y0186322D01*
X0166676Y0186271D01*
X0166526Y0186223D01*
X0166375Y0186179D01*
X0166222Y0186138D01*
X0166069Y0186102D01*
X0165914Y0186069D01*
X0165759Y0186040D01*
X0165604Y0186016D01*
X0165447Y0185995D01*
X0165291Y0185978D01*
X0165133Y0185965D01*
X0164976Y0185956D01*
X0164818Y0185951D01*
X0164661Y0185950D01*
X0164503Y0185953D01*
X0164345Y0185960D01*
X0164188Y0185971D01*
X0164031Y0185986D01*
X0163874Y0186005D01*
X0163718Y0186028D01*
X0163563Y0186054D01*
X0163408Y0186085D01*
X0163254Y0186119D01*
X0163101Y0186158D01*
X0162949Y0186200D01*
X0162799Y0186246D01*
X0162649Y0186296D01*
X0162501Y0186350D01*
X0162354Y0186407D01*
X0162208Y0186468D01*
X0162065Y0186533D01*
X0161922Y0186601D01*
X0161782Y0186673D01*
X0161644Y0186748D01*
X0161507Y0186827D01*
X0161372Y0186909D01*
X0161240Y0186995D01*
X0161110Y0187084D01*
X0160982Y0187176D01*
X0160856Y0187272D01*
X0160733Y0187370D01*
X0160613Y0187472D01*
X0160495Y0187577D01*
X0160379Y0187684D01*
X0160267Y0187795D01*
X0160157Y0187908D01*
X0160050Y0188024D01*
X0159946Y0188142D01*
X0159845Y0188264D01*
X0159748Y0188387D01*
X0159653Y0188514D01*
X0159562Y0188642D01*
X0159473Y0188773D01*
X0159389Y0188906D01*
X0159307Y0189041D01*
X0159229Y0189178D01*
X0159155Y0189317D01*
X0159084Y0189458D01*
X0159016Y0189600D01*
X0158953Y0189745D01*
X0158892Y0189890D01*
X0158836Y0190038D01*
X0158783Y0190186D01*
X0158734Y0190336D01*
X0158689Y0190487D01*
X0158648Y0190640D01*
X0158610Y0190793D01*
X0158577Y0190947D01*
X0158547Y0191102D01*
X0158521Y0191257D01*
X0158500Y0191414D01*
X0158482Y0191570D01*
X0158468Y0191727D01*
X0158458Y0191885D01*
X0158452Y0192042D01*
X0158450Y0192200D01*
X0158450Y0242200D02*
X0158452Y0242358D01*
X0158458Y0242515D01*
X0158468Y0242673D01*
X0158482Y0242830D01*
X0158500Y0242986D01*
X0158521Y0243143D01*
X0158547Y0243298D01*
X0158577Y0243453D01*
X0158610Y0243607D01*
X0158648Y0243760D01*
X0158689Y0243913D01*
X0158734Y0244064D01*
X0158783Y0244214D01*
X0158836Y0244362D01*
X0158892Y0244510D01*
X0158953Y0244655D01*
X0159016Y0244800D01*
X0159084Y0244942D01*
X0159155Y0245083D01*
X0159229Y0245222D01*
X0159307Y0245359D01*
X0159389Y0245494D01*
X0159473Y0245627D01*
X0159562Y0245758D01*
X0159653Y0245886D01*
X0159748Y0246013D01*
X0159845Y0246136D01*
X0159946Y0246258D01*
X0160050Y0246376D01*
X0160157Y0246492D01*
X0160267Y0246605D01*
X0160379Y0246716D01*
X0160495Y0246823D01*
X0160613Y0246928D01*
X0160733Y0247030D01*
X0160856Y0247128D01*
X0160982Y0247224D01*
X0161110Y0247316D01*
X0161240Y0247405D01*
X0161372Y0247491D01*
X0161507Y0247573D01*
X0161644Y0247652D01*
X0161782Y0247727D01*
X0161922Y0247799D01*
X0162065Y0247867D01*
X0162208Y0247932D01*
X0162354Y0247993D01*
X0162501Y0248050D01*
X0162649Y0248104D01*
X0162799Y0248154D01*
X0162949Y0248200D01*
X0163101Y0248242D01*
X0163254Y0248281D01*
X0163408Y0248315D01*
X0163563Y0248346D01*
X0163718Y0248372D01*
X0163874Y0248395D01*
X0164031Y0248414D01*
X0164188Y0248429D01*
X0164345Y0248440D01*
X0164503Y0248447D01*
X0164661Y0248450D01*
X0164818Y0248449D01*
X0164976Y0248444D01*
X0165133Y0248435D01*
X0165291Y0248422D01*
X0165447Y0248405D01*
X0165604Y0248384D01*
X0165759Y0248360D01*
X0165914Y0248331D01*
X0166069Y0248298D01*
X0166222Y0248262D01*
X0166375Y0248221D01*
X0166526Y0248177D01*
X0166676Y0248129D01*
X0166825Y0248078D01*
X0166973Y0248022D01*
X0167119Y0247963D01*
X0167264Y0247900D01*
X0167407Y0247833D01*
X0167548Y0247763D01*
X0167687Y0247690D01*
X0167825Y0247613D01*
X0167961Y0247532D01*
X0168094Y0247448D01*
X0168225Y0247361D01*
X0168354Y0247270D01*
X0168481Y0247176D01*
X0168606Y0247079D01*
X0168727Y0246979D01*
X0168847Y0246876D01*
X0168963Y0246770D01*
X0169077Y0246661D01*
X0169189Y0246549D01*
X0169297Y0246435D01*
X0169402Y0246317D01*
X0169505Y0246197D01*
X0169604Y0246075D01*
X0169700Y0245950D01*
X0169793Y0245822D01*
X0169883Y0245693D01*
X0169969Y0245561D01*
X0170053Y0245427D01*
X0170132Y0245291D01*
X0170209Y0245153D01*
X0170281Y0245013D01*
X0170350Y0244871D01*
X0170416Y0244728D01*
X0170478Y0244583D01*
X0170536Y0244436D01*
X0170591Y0244288D01*
X0170642Y0244139D01*
X0170689Y0243988D01*
X0170732Y0243837D01*
X0170771Y0243684D01*
X0170807Y0243530D01*
X0170838Y0243376D01*
X0170866Y0243221D01*
X0170890Y0243065D01*
X0170910Y0242908D01*
X0170926Y0242751D01*
X0170938Y0242594D01*
X0170946Y0242437D01*
X0170950Y0242279D01*
X0170950Y0242121D01*
X0170946Y0241963D01*
X0170938Y0241806D01*
X0170926Y0241649D01*
X0170910Y0241492D01*
X0170890Y0241335D01*
X0170866Y0241179D01*
X0170838Y0241024D01*
X0170807Y0240870D01*
X0170771Y0240716D01*
X0170732Y0240563D01*
X0170689Y0240412D01*
X0170642Y0240261D01*
X0170591Y0240112D01*
X0170536Y0239964D01*
X0170478Y0239817D01*
X0170416Y0239672D01*
X0170350Y0239529D01*
X0170281Y0239387D01*
X0170209Y0239247D01*
X0170132Y0239109D01*
X0170053Y0238973D01*
X0169969Y0238839D01*
X0169883Y0238707D01*
X0169793Y0238578D01*
X0169700Y0238450D01*
X0169604Y0238325D01*
X0169505Y0238203D01*
X0169402Y0238083D01*
X0169297Y0237965D01*
X0169189Y0237851D01*
X0169077Y0237739D01*
X0168963Y0237630D01*
X0168847Y0237524D01*
X0168727Y0237421D01*
X0168606Y0237321D01*
X0168481Y0237224D01*
X0168354Y0237130D01*
X0168225Y0237039D01*
X0168094Y0236952D01*
X0167961Y0236868D01*
X0167825Y0236787D01*
X0167687Y0236710D01*
X0167548Y0236637D01*
X0167407Y0236567D01*
X0167264Y0236500D01*
X0167119Y0236437D01*
X0166973Y0236378D01*
X0166825Y0236322D01*
X0166676Y0236271D01*
X0166526Y0236223D01*
X0166375Y0236179D01*
X0166222Y0236138D01*
X0166069Y0236102D01*
X0165914Y0236069D01*
X0165759Y0236040D01*
X0165604Y0236016D01*
X0165447Y0235995D01*
X0165291Y0235978D01*
X0165133Y0235965D01*
X0164976Y0235956D01*
X0164818Y0235951D01*
X0164661Y0235950D01*
X0164503Y0235953D01*
X0164345Y0235960D01*
X0164188Y0235971D01*
X0164031Y0235986D01*
X0163874Y0236005D01*
X0163718Y0236028D01*
X0163563Y0236054D01*
X0163408Y0236085D01*
X0163254Y0236119D01*
X0163101Y0236158D01*
X0162949Y0236200D01*
X0162799Y0236246D01*
X0162649Y0236296D01*
X0162501Y0236350D01*
X0162354Y0236407D01*
X0162208Y0236468D01*
X0162065Y0236533D01*
X0161922Y0236601D01*
X0161782Y0236673D01*
X0161644Y0236748D01*
X0161507Y0236827D01*
X0161372Y0236909D01*
X0161240Y0236995D01*
X0161110Y0237084D01*
X0160982Y0237176D01*
X0160856Y0237272D01*
X0160733Y0237370D01*
X0160613Y0237472D01*
X0160495Y0237577D01*
X0160379Y0237684D01*
X0160267Y0237795D01*
X0160157Y0237908D01*
X0160050Y0238024D01*
X0159946Y0238142D01*
X0159845Y0238264D01*
X0159748Y0238387D01*
X0159653Y0238514D01*
X0159562Y0238642D01*
X0159473Y0238773D01*
X0159389Y0238906D01*
X0159307Y0239041D01*
X0159229Y0239178D01*
X0159155Y0239317D01*
X0159084Y0239458D01*
X0159016Y0239600D01*
X0158953Y0239745D01*
X0158892Y0239890D01*
X0158836Y0240038D01*
X0158783Y0240186D01*
X0158734Y0240336D01*
X0158689Y0240487D01*
X0158648Y0240640D01*
X0158610Y0240793D01*
X0158577Y0240947D01*
X0158547Y0241102D01*
X0158521Y0241257D01*
X0158500Y0241414D01*
X0158482Y0241570D01*
X0158468Y0241727D01*
X0158458Y0241885D01*
X0158452Y0242042D01*
X0158450Y0242200D01*
X0158450Y0292200D02*
X0158452Y0292358D01*
X0158458Y0292515D01*
X0158468Y0292673D01*
X0158482Y0292830D01*
X0158500Y0292986D01*
X0158521Y0293143D01*
X0158547Y0293298D01*
X0158577Y0293453D01*
X0158610Y0293607D01*
X0158648Y0293760D01*
X0158689Y0293913D01*
X0158734Y0294064D01*
X0158783Y0294214D01*
X0158836Y0294362D01*
X0158892Y0294510D01*
X0158953Y0294655D01*
X0159016Y0294800D01*
X0159084Y0294942D01*
X0159155Y0295083D01*
X0159229Y0295222D01*
X0159307Y0295359D01*
X0159389Y0295494D01*
X0159473Y0295627D01*
X0159562Y0295758D01*
X0159653Y0295886D01*
X0159748Y0296013D01*
X0159845Y0296136D01*
X0159946Y0296258D01*
X0160050Y0296376D01*
X0160157Y0296492D01*
X0160267Y0296605D01*
X0160379Y0296716D01*
X0160495Y0296823D01*
X0160613Y0296928D01*
X0160733Y0297030D01*
X0160856Y0297128D01*
X0160982Y0297224D01*
X0161110Y0297316D01*
X0161240Y0297405D01*
X0161372Y0297491D01*
X0161507Y0297573D01*
X0161644Y0297652D01*
X0161782Y0297727D01*
X0161922Y0297799D01*
X0162065Y0297867D01*
X0162208Y0297932D01*
X0162354Y0297993D01*
X0162501Y0298050D01*
X0162649Y0298104D01*
X0162799Y0298154D01*
X0162949Y0298200D01*
X0163101Y0298242D01*
X0163254Y0298281D01*
X0163408Y0298315D01*
X0163563Y0298346D01*
X0163718Y0298372D01*
X0163874Y0298395D01*
X0164031Y0298414D01*
X0164188Y0298429D01*
X0164345Y0298440D01*
X0164503Y0298447D01*
X0164661Y0298450D01*
X0164818Y0298449D01*
X0164976Y0298444D01*
X0165133Y0298435D01*
X0165291Y0298422D01*
X0165447Y0298405D01*
X0165604Y0298384D01*
X0165759Y0298360D01*
X0165914Y0298331D01*
X0166069Y0298298D01*
X0166222Y0298262D01*
X0166375Y0298221D01*
X0166526Y0298177D01*
X0166676Y0298129D01*
X0166825Y0298078D01*
X0166973Y0298022D01*
X0167119Y0297963D01*
X0167264Y0297900D01*
X0167407Y0297833D01*
X0167548Y0297763D01*
X0167687Y0297690D01*
X0167825Y0297613D01*
X0167961Y0297532D01*
X0168094Y0297448D01*
X0168225Y0297361D01*
X0168354Y0297270D01*
X0168481Y0297176D01*
X0168606Y0297079D01*
X0168727Y0296979D01*
X0168847Y0296876D01*
X0168963Y0296770D01*
X0169077Y0296661D01*
X0169189Y0296549D01*
X0169297Y0296435D01*
X0169402Y0296317D01*
X0169505Y0296197D01*
X0169604Y0296075D01*
X0169700Y0295950D01*
X0169793Y0295822D01*
X0169883Y0295693D01*
X0169969Y0295561D01*
X0170053Y0295427D01*
X0170132Y0295291D01*
X0170209Y0295153D01*
X0170281Y0295013D01*
X0170350Y0294871D01*
X0170416Y0294728D01*
X0170478Y0294583D01*
X0170536Y0294436D01*
X0170591Y0294288D01*
X0170642Y0294139D01*
X0170689Y0293988D01*
X0170732Y0293837D01*
X0170771Y0293684D01*
X0170807Y0293530D01*
X0170838Y0293376D01*
X0170866Y0293221D01*
X0170890Y0293065D01*
X0170910Y0292908D01*
X0170926Y0292751D01*
X0170938Y0292594D01*
X0170946Y0292437D01*
X0170950Y0292279D01*
X0170950Y0292121D01*
X0170946Y0291963D01*
X0170938Y0291806D01*
X0170926Y0291649D01*
X0170910Y0291492D01*
X0170890Y0291335D01*
X0170866Y0291179D01*
X0170838Y0291024D01*
X0170807Y0290870D01*
X0170771Y0290716D01*
X0170732Y0290563D01*
X0170689Y0290412D01*
X0170642Y0290261D01*
X0170591Y0290112D01*
X0170536Y0289964D01*
X0170478Y0289817D01*
X0170416Y0289672D01*
X0170350Y0289529D01*
X0170281Y0289387D01*
X0170209Y0289247D01*
X0170132Y0289109D01*
X0170053Y0288973D01*
X0169969Y0288839D01*
X0169883Y0288707D01*
X0169793Y0288578D01*
X0169700Y0288450D01*
X0169604Y0288325D01*
X0169505Y0288203D01*
X0169402Y0288083D01*
X0169297Y0287965D01*
X0169189Y0287851D01*
X0169077Y0287739D01*
X0168963Y0287630D01*
X0168847Y0287524D01*
X0168727Y0287421D01*
X0168606Y0287321D01*
X0168481Y0287224D01*
X0168354Y0287130D01*
X0168225Y0287039D01*
X0168094Y0286952D01*
X0167961Y0286868D01*
X0167825Y0286787D01*
X0167687Y0286710D01*
X0167548Y0286637D01*
X0167407Y0286567D01*
X0167264Y0286500D01*
X0167119Y0286437D01*
X0166973Y0286378D01*
X0166825Y0286322D01*
X0166676Y0286271D01*
X0166526Y0286223D01*
X0166375Y0286179D01*
X0166222Y0286138D01*
X0166069Y0286102D01*
X0165914Y0286069D01*
X0165759Y0286040D01*
X0165604Y0286016D01*
X0165447Y0285995D01*
X0165291Y0285978D01*
X0165133Y0285965D01*
X0164976Y0285956D01*
X0164818Y0285951D01*
X0164661Y0285950D01*
X0164503Y0285953D01*
X0164345Y0285960D01*
X0164188Y0285971D01*
X0164031Y0285986D01*
X0163874Y0286005D01*
X0163718Y0286028D01*
X0163563Y0286054D01*
X0163408Y0286085D01*
X0163254Y0286119D01*
X0163101Y0286158D01*
X0162949Y0286200D01*
X0162799Y0286246D01*
X0162649Y0286296D01*
X0162501Y0286350D01*
X0162354Y0286407D01*
X0162208Y0286468D01*
X0162065Y0286533D01*
X0161922Y0286601D01*
X0161782Y0286673D01*
X0161644Y0286748D01*
X0161507Y0286827D01*
X0161372Y0286909D01*
X0161240Y0286995D01*
X0161110Y0287084D01*
X0160982Y0287176D01*
X0160856Y0287272D01*
X0160733Y0287370D01*
X0160613Y0287472D01*
X0160495Y0287577D01*
X0160379Y0287684D01*
X0160267Y0287795D01*
X0160157Y0287908D01*
X0160050Y0288024D01*
X0159946Y0288142D01*
X0159845Y0288264D01*
X0159748Y0288387D01*
X0159653Y0288514D01*
X0159562Y0288642D01*
X0159473Y0288773D01*
X0159389Y0288906D01*
X0159307Y0289041D01*
X0159229Y0289178D01*
X0159155Y0289317D01*
X0159084Y0289458D01*
X0159016Y0289600D01*
X0158953Y0289745D01*
X0158892Y0289890D01*
X0158836Y0290038D01*
X0158783Y0290186D01*
X0158734Y0290336D01*
X0158689Y0290487D01*
X0158648Y0290640D01*
X0158610Y0290793D01*
X0158577Y0290947D01*
X0158547Y0291102D01*
X0158521Y0291257D01*
X0158500Y0291414D01*
X0158482Y0291570D01*
X0158468Y0291727D01*
X0158458Y0291885D01*
X0158452Y0292042D01*
X0158450Y0292200D01*
X0158450Y0342239D02*
X0158452Y0342397D01*
X0158458Y0342554D01*
X0158468Y0342712D01*
X0158482Y0342869D01*
X0158500Y0343025D01*
X0158521Y0343182D01*
X0158547Y0343337D01*
X0158577Y0343492D01*
X0158610Y0343646D01*
X0158648Y0343799D01*
X0158689Y0343952D01*
X0158734Y0344103D01*
X0158783Y0344253D01*
X0158836Y0344401D01*
X0158892Y0344549D01*
X0158953Y0344694D01*
X0159016Y0344839D01*
X0159084Y0344981D01*
X0159155Y0345122D01*
X0159229Y0345261D01*
X0159307Y0345398D01*
X0159389Y0345533D01*
X0159473Y0345666D01*
X0159562Y0345797D01*
X0159653Y0345925D01*
X0159748Y0346052D01*
X0159845Y0346175D01*
X0159946Y0346297D01*
X0160050Y0346415D01*
X0160157Y0346531D01*
X0160267Y0346644D01*
X0160379Y0346755D01*
X0160495Y0346862D01*
X0160613Y0346967D01*
X0160733Y0347069D01*
X0160856Y0347167D01*
X0160982Y0347263D01*
X0161110Y0347355D01*
X0161240Y0347444D01*
X0161372Y0347530D01*
X0161507Y0347612D01*
X0161644Y0347691D01*
X0161782Y0347766D01*
X0161922Y0347838D01*
X0162065Y0347906D01*
X0162208Y0347971D01*
X0162354Y0348032D01*
X0162501Y0348089D01*
X0162649Y0348143D01*
X0162799Y0348193D01*
X0162949Y0348239D01*
X0163101Y0348281D01*
X0163254Y0348320D01*
X0163408Y0348354D01*
X0163563Y0348385D01*
X0163718Y0348411D01*
X0163874Y0348434D01*
X0164031Y0348453D01*
X0164188Y0348468D01*
X0164345Y0348479D01*
X0164503Y0348486D01*
X0164661Y0348489D01*
X0164818Y0348488D01*
X0164976Y0348483D01*
X0165133Y0348474D01*
X0165291Y0348461D01*
X0165447Y0348444D01*
X0165604Y0348423D01*
X0165759Y0348399D01*
X0165914Y0348370D01*
X0166069Y0348337D01*
X0166222Y0348301D01*
X0166375Y0348260D01*
X0166526Y0348216D01*
X0166676Y0348168D01*
X0166825Y0348117D01*
X0166973Y0348061D01*
X0167119Y0348002D01*
X0167264Y0347939D01*
X0167407Y0347872D01*
X0167548Y0347802D01*
X0167687Y0347729D01*
X0167825Y0347652D01*
X0167961Y0347571D01*
X0168094Y0347487D01*
X0168225Y0347400D01*
X0168354Y0347309D01*
X0168481Y0347215D01*
X0168606Y0347118D01*
X0168727Y0347018D01*
X0168847Y0346915D01*
X0168963Y0346809D01*
X0169077Y0346700D01*
X0169189Y0346588D01*
X0169297Y0346474D01*
X0169402Y0346356D01*
X0169505Y0346236D01*
X0169604Y0346114D01*
X0169700Y0345989D01*
X0169793Y0345861D01*
X0169883Y0345732D01*
X0169969Y0345600D01*
X0170053Y0345466D01*
X0170132Y0345330D01*
X0170209Y0345192D01*
X0170281Y0345052D01*
X0170350Y0344910D01*
X0170416Y0344767D01*
X0170478Y0344622D01*
X0170536Y0344475D01*
X0170591Y0344327D01*
X0170642Y0344178D01*
X0170689Y0344027D01*
X0170732Y0343876D01*
X0170771Y0343723D01*
X0170807Y0343569D01*
X0170838Y0343415D01*
X0170866Y0343260D01*
X0170890Y0343104D01*
X0170910Y0342947D01*
X0170926Y0342790D01*
X0170938Y0342633D01*
X0170946Y0342476D01*
X0170950Y0342318D01*
X0170950Y0342160D01*
X0170946Y0342002D01*
X0170938Y0341845D01*
X0170926Y0341688D01*
X0170910Y0341531D01*
X0170890Y0341374D01*
X0170866Y0341218D01*
X0170838Y0341063D01*
X0170807Y0340909D01*
X0170771Y0340755D01*
X0170732Y0340602D01*
X0170689Y0340451D01*
X0170642Y0340300D01*
X0170591Y0340151D01*
X0170536Y0340003D01*
X0170478Y0339856D01*
X0170416Y0339711D01*
X0170350Y0339568D01*
X0170281Y0339426D01*
X0170209Y0339286D01*
X0170132Y0339148D01*
X0170053Y0339012D01*
X0169969Y0338878D01*
X0169883Y0338746D01*
X0169793Y0338617D01*
X0169700Y0338489D01*
X0169604Y0338364D01*
X0169505Y0338242D01*
X0169402Y0338122D01*
X0169297Y0338004D01*
X0169189Y0337890D01*
X0169077Y0337778D01*
X0168963Y0337669D01*
X0168847Y0337563D01*
X0168727Y0337460D01*
X0168606Y0337360D01*
X0168481Y0337263D01*
X0168354Y0337169D01*
X0168225Y0337078D01*
X0168094Y0336991D01*
X0167961Y0336907D01*
X0167825Y0336826D01*
X0167687Y0336749D01*
X0167548Y0336676D01*
X0167407Y0336606D01*
X0167264Y0336539D01*
X0167119Y0336476D01*
X0166973Y0336417D01*
X0166825Y0336361D01*
X0166676Y0336310D01*
X0166526Y0336262D01*
X0166375Y0336218D01*
X0166222Y0336177D01*
X0166069Y0336141D01*
X0165914Y0336108D01*
X0165759Y0336079D01*
X0165604Y0336055D01*
X0165447Y0336034D01*
X0165291Y0336017D01*
X0165133Y0336004D01*
X0164976Y0335995D01*
X0164818Y0335990D01*
X0164661Y0335989D01*
X0164503Y0335992D01*
X0164345Y0335999D01*
X0164188Y0336010D01*
X0164031Y0336025D01*
X0163874Y0336044D01*
X0163718Y0336067D01*
X0163563Y0336093D01*
X0163408Y0336124D01*
X0163254Y0336158D01*
X0163101Y0336197D01*
X0162949Y0336239D01*
X0162799Y0336285D01*
X0162649Y0336335D01*
X0162501Y0336389D01*
X0162354Y0336446D01*
X0162208Y0336507D01*
X0162065Y0336572D01*
X0161922Y0336640D01*
X0161782Y0336712D01*
X0161644Y0336787D01*
X0161507Y0336866D01*
X0161372Y0336948D01*
X0161240Y0337034D01*
X0161110Y0337123D01*
X0160982Y0337215D01*
X0160856Y0337311D01*
X0160733Y0337409D01*
X0160613Y0337511D01*
X0160495Y0337616D01*
X0160379Y0337723D01*
X0160267Y0337834D01*
X0160157Y0337947D01*
X0160050Y0338063D01*
X0159946Y0338181D01*
X0159845Y0338303D01*
X0159748Y0338426D01*
X0159653Y0338553D01*
X0159562Y0338681D01*
X0159473Y0338812D01*
X0159389Y0338945D01*
X0159307Y0339080D01*
X0159229Y0339217D01*
X0159155Y0339356D01*
X0159084Y0339497D01*
X0159016Y0339639D01*
X0158953Y0339784D01*
X0158892Y0339929D01*
X0158836Y0340077D01*
X0158783Y0340225D01*
X0158734Y0340375D01*
X0158689Y0340526D01*
X0158648Y0340679D01*
X0158610Y0340832D01*
X0158577Y0340986D01*
X0158547Y0341141D01*
X0158521Y0341296D01*
X0158500Y0341453D01*
X0158482Y0341609D01*
X0158468Y0341766D01*
X0158458Y0341924D01*
X0158452Y0342081D01*
X0158450Y0342239D01*
X0158450Y0392200D02*
X0158452Y0392358D01*
X0158458Y0392515D01*
X0158468Y0392673D01*
X0158482Y0392830D01*
X0158500Y0392986D01*
X0158521Y0393143D01*
X0158547Y0393298D01*
X0158577Y0393453D01*
X0158610Y0393607D01*
X0158648Y0393760D01*
X0158689Y0393913D01*
X0158734Y0394064D01*
X0158783Y0394214D01*
X0158836Y0394362D01*
X0158892Y0394510D01*
X0158953Y0394655D01*
X0159016Y0394800D01*
X0159084Y0394942D01*
X0159155Y0395083D01*
X0159229Y0395222D01*
X0159307Y0395359D01*
X0159389Y0395494D01*
X0159473Y0395627D01*
X0159562Y0395758D01*
X0159653Y0395886D01*
X0159748Y0396013D01*
X0159845Y0396136D01*
X0159946Y0396258D01*
X0160050Y0396376D01*
X0160157Y0396492D01*
X0160267Y0396605D01*
X0160379Y0396716D01*
X0160495Y0396823D01*
X0160613Y0396928D01*
X0160733Y0397030D01*
X0160856Y0397128D01*
X0160982Y0397224D01*
X0161110Y0397316D01*
X0161240Y0397405D01*
X0161372Y0397491D01*
X0161507Y0397573D01*
X0161644Y0397652D01*
X0161782Y0397727D01*
X0161922Y0397799D01*
X0162065Y0397867D01*
X0162208Y0397932D01*
X0162354Y0397993D01*
X0162501Y0398050D01*
X0162649Y0398104D01*
X0162799Y0398154D01*
X0162949Y0398200D01*
X0163101Y0398242D01*
X0163254Y0398281D01*
X0163408Y0398315D01*
X0163563Y0398346D01*
X0163718Y0398372D01*
X0163874Y0398395D01*
X0164031Y0398414D01*
X0164188Y0398429D01*
X0164345Y0398440D01*
X0164503Y0398447D01*
X0164661Y0398450D01*
X0164818Y0398449D01*
X0164976Y0398444D01*
X0165133Y0398435D01*
X0165291Y0398422D01*
X0165447Y0398405D01*
X0165604Y0398384D01*
X0165759Y0398360D01*
X0165914Y0398331D01*
X0166069Y0398298D01*
X0166222Y0398262D01*
X0166375Y0398221D01*
X0166526Y0398177D01*
X0166676Y0398129D01*
X0166825Y0398078D01*
X0166973Y0398022D01*
X0167119Y0397963D01*
X0167264Y0397900D01*
X0167407Y0397833D01*
X0167548Y0397763D01*
X0167687Y0397690D01*
X0167825Y0397613D01*
X0167961Y0397532D01*
X0168094Y0397448D01*
X0168225Y0397361D01*
X0168354Y0397270D01*
X0168481Y0397176D01*
X0168606Y0397079D01*
X0168727Y0396979D01*
X0168847Y0396876D01*
X0168963Y0396770D01*
X0169077Y0396661D01*
X0169189Y0396549D01*
X0169297Y0396435D01*
X0169402Y0396317D01*
X0169505Y0396197D01*
X0169604Y0396075D01*
X0169700Y0395950D01*
X0169793Y0395822D01*
X0169883Y0395693D01*
X0169969Y0395561D01*
X0170053Y0395427D01*
X0170132Y0395291D01*
X0170209Y0395153D01*
X0170281Y0395013D01*
X0170350Y0394871D01*
X0170416Y0394728D01*
X0170478Y0394583D01*
X0170536Y0394436D01*
X0170591Y0394288D01*
X0170642Y0394139D01*
X0170689Y0393988D01*
X0170732Y0393837D01*
X0170771Y0393684D01*
X0170807Y0393530D01*
X0170838Y0393376D01*
X0170866Y0393221D01*
X0170890Y0393065D01*
X0170910Y0392908D01*
X0170926Y0392751D01*
X0170938Y0392594D01*
X0170946Y0392437D01*
X0170950Y0392279D01*
X0170950Y0392121D01*
X0170946Y0391963D01*
X0170938Y0391806D01*
X0170926Y0391649D01*
X0170910Y0391492D01*
X0170890Y0391335D01*
X0170866Y0391179D01*
X0170838Y0391024D01*
X0170807Y0390870D01*
X0170771Y0390716D01*
X0170732Y0390563D01*
X0170689Y0390412D01*
X0170642Y0390261D01*
X0170591Y0390112D01*
X0170536Y0389964D01*
X0170478Y0389817D01*
X0170416Y0389672D01*
X0170350Y0389529D01*
X0170281Y0389387D01*
X0170209Y0389247D01*
X0170132Y0389109D01*
X0170053Y0388973D01*
X0169969Y0388839D01*
X0169883Y0388707D01*
X0169793Y0388578D01*
X0169700Y0388450D01*
X0169604Y0388325D01*
X0169505Y0388203D01*
X0169402Y0388083D01*
X0169297Y0387965D01*
X0169189Y0387851D01*
X0169077Y0387739D01*
X0168963Y0387630D01*
X0168847Y0387524D01*
X0168727Y0387421D01*
X0168606Y0387321D01*
X0168481Y0387224D01*
X0168354Y0387130D01*
X0168225Y0387039D01*
X0168094Y0386952D01*
X0167961Y0386868D01*
X0167825Y0386787D01*
X0167687Y0386710D01*
X0167548Y0386637D01*
X0167407Y0386567D01*
X0167264Y0386500D01*
X0167119Y0386437D01*
X0166973Y0386378D01*
X0166825Y0386322D01*
X0166676Y0386271D01*
X0166526Y0386223D01*
X0166375Y0386179D01*
X0166222Y0386138D01*
X0166069Y0386102D01*
X0165914Y0386069D01*
X0165759Y0386040D01*
X0165604Y0386016D01*
X0165447Y0385995D01*
X0165291Y0385978D01*
X0165133Y0385965D01*
X0164976Y0385956D01*
X0164818Y0385951D01*
X0164661Y0385950D01*
X0164503Y0385953D01*
X0164345Y0385960D01*
X0164188Y0385971D01*
X0164031Y0385986D01*
X0163874Y0386005D01*
X0163718Y0386028D01*
X0163563Y0386054D01*
X0163408Y0386085D01*
X0163254Y0386119D01*
X0163101Y0386158D01*
X0162949Y0386200D01*
X0162799Y0386246D01*
X0162649Y0386296D01*
X0162501Y0386350D01*
X0162354Y0386407D01*
X0162208Y0386468D01*
X0162065Y0386533D01*
X0161922Y0386601D01*
X0161782Y0386673D01*
X0161644Y0386748D01*
X0161507Y0386827D01*
X0161372Y0386909D01*
X0161240Y0386995D01*
X0161110Y0387084D01*
X0160982Y0387176D01*
X0160856Y0387272D01*
X0160733Y0387370D01*
X0160613Y0387472D01*
X0160495Y0387577D01*
X0160379Y0387684D01*
X0160267Y0387795D01*
X0160157Y0387908D01*
X0160050Y0388024D01*
X0159946Y0388142D01*
X0159845Y0388264D01*
X0159748Y0388387D01*
X0159653Y0388514D01*
X0159562Y0388642D01*
X0159473Y0388773D01*
X0159389Y0388906D01*
X0159307Y0389041D01*
X0159229Y0389178D01*
X0159155Y0389317D01*
X0159084Y0389458D01*
X0159016Y0389600D01*
X0158953Y0389745D01*
X0158892Y0389890D01*
X0158836Y0390038D01*
X0158783Y0390186D01*
X0158734Y0390336D01*
X0158689Y0390487D01*
X0158648Y0390640D01*
X0158610Y0390793D01*
X0158577Y0390947D01*
X0158547Y0391102D01*
X0158521Y0391257D01*
X0158500Y0391414D01*
X0158482Y0391570D01*
X0158468Y0391727D01*
X0158458Y0391885D01*
X0158452Y0392042D01*
X0158450Y0392200D01*
X0185950Y0414700D02*
X0185952Y0414858D01*
X0185958Y0415015D01*
X0185968Y0415173D01*
X0185982Y0415330D01*
X0186000Y0415486D01*
X0186021Y0415643D01*
X0186047Y0415798D01*
X0186077Y0415953D01*
X0186110Y0416107D01*
X0186148Y0416260D01*
X0186189Y0416413D01*
X0186234Y0416564D01*
X0186283Y0416714D01*
X0186336Y0416862D01*
X0186392Y0417010D01*
X0186453Y0417155D01*
X0186516Y0417300D01*
X0186584Y0417442D01*
X0186655Y0417583D01*
X0186729Y0417722D01*
X0186807Y0417859D01*
X0186889Y0417994D01*
X0186973Y0418127D01*
X0187062Y0418258D01*
X0187153Y0418386D01*
X0187248Y0418513D01*
X0187345Y0418636D01*
X0187446Y0418758D01*
X0187550Y0418876D01*
X0187657Y0418992D01*
X0187767Y0419105D01*
X0187879Y0419216D01*
X0187995Y0419323D01*
X0188113Y0419428D01*
X0188233Y0419530D01*
X0188356Y0419628D01*
X0188482Y0419724D01*
X0188610Y0419816D01*
X0188740Y0419905D01*
X0188872Y0419991D01*
X0189007Y0420073D01*
X0189144Y0420152D01*
X0189282Y0420227D01*
X0189422Y0420299D01*
X0189565Y0420367D01*
X0189708Y0420432D01*
X0189854Y0420493D01*
X0190001Y0420550D01*
X0190149Y0420604D01*
X0190299Y0420654D01*
X0190449Y0420700D01*
X0190601Y0420742D01*
X0190754Y0420781D01*
X0190908Y0420815D01*
X0191063Y0420846D01*
X0191218Y0420872D01*
X0191374Y0420895D01*
X0191531Y0420914D01*
X0191688Y0420929D01*
X0191845Y0420940D01*
X0192003Y0420947D01*
X0192161Y0420950D01*
X0192318Y0420949D01*
X0192476Y0420944D01*
X0192633Y0420935D01*
X0192791Y0420922D01*
X0192947Y0420905D01*
X0193104Y0420884D01*
X0193259Y0420860D01*
X0193414Y0420831D01*
X0193569Y0420798D01*
X0193722Y0420762D01*
X0193875Y0420721D01*
X0194026Y0420677D01*
X0194176Y0420629D01*
X0194325Y0420578D01*
X0194473Y0420522D01*
X0194619Y0420463D01*
X0194764Y0420400D01*
X0194907Y0420333D01*
X0195048Y0420263D01*
X0195187Y0420190D01*
X0195325Y0420113D01*
X0195461Y0420032D01*
X0195594Y0419948D01*
X0195725Y0419861D01*
X0195854Y0419770D01*
X0195981Y0419676D01*
X0196106Y0419579D01*
X0196227Y0419479D01*
X0196347Y0419376D01*
X0196463Y0419270D01*
X0196577Y0419161D01*
X0196689Y0419049D01*
X0196797Y0418935D01*
X0196902Y0418817D01*
X0197005Y0418697D01*
X0197104Y0418575D01*
X0197200Y0418450D01*
X0197293Y0418322D01*
X0197383Y0418193D01*
X0197469Y0418061D01*
X0197553Y0417927D01*
X0197632Y0417791D01*
X0197709Y0417653D01*
X0197781Y0417513D01*
X0197850Y0417371D01*
X0197916Y0417228D01*
X0197978Y0417083D01*
X0198036Y0416936D01*
X0198091Y0416788D01*
X0198142Y0416639D01*
X0198189Y0416488D01*
X0198232Y0416337D01*
X0198271Y0416184D01*
X0198307Y0416030D01*
X0198338Y0415876D01*
X0198366Y0415721D01*
X0198390Y0415565D01*
X0198410Y0415408D01*
X0198426Y0415251D01*
X0198438Y0415094D01*
X0198446Y0414937D01*
X0198450Y0414779D01*
X0198450Y0414621D01*
X0198446Y0414463D01*
X0198438Y0414306D01*
X0198426Y0414149D01*
X0198410Y0413992D01*
X0198390Y0413835D01*
X0198366Y0413679D01*
X0198338Y0413524D01*
X0198307Y0413370D01*
X0198271Y0413216D01*
X0198232Y0413063D01*
X0198189Y0412912D01*
X0198142Y0412761D01*
X0198091Y0412612D01*
X0198036Y0412464D01*
X0197978Y0412317D01*
X0197916Y0412172D01*
X0197850Y0412029D01*
X0197781Y0411887D01*
X0197709Y0411747D01*
X0197632Y0411609D01*
X0197553Y0411473D01*
X0197469Y0411339D01*
X0197383Y0411207D01*
X0197293Y0411078D01*
X0197200Y0410950D01*
X0197104Y0410825D01*
X0197005Y0410703D01*
X0196902Y0410583D01*
X0196797Y0410465D01*
X0196689Y0410351D01*
X0196577Y0410239D01*
X0196463Y0410130D01*
X0196347Y0410024D01*
X0196227Y0409921D01*
X0196106Y0409821D01*
X0195981Y0409724D01*
X0195854Y0409630D01*
X0195725Y0409539D01*
X0195594Y0409452D01*
X0195461Y0409368D01*
X0195325Y0409287D01*
X0195187Y0409210D01*
X0195048Y0409137D01*
X0194907Y0409067D01*
X0194764Y0409000D01*
X0194619Y0408937D01*
X0194473Y0408878D01*
X0194325Y0408822D01*
X0194176Y0408771D01*
X0194026Y0408723D01*
X0193875Y0408679D01*
X0193722Y0408638D01*
X0193569Y0408602D01*
X0193414Y0408569D01*
X0193259Y0408540D01*
X0193104Y0408516D01*
X0192947Y0408495D01*
X0192791Y0408478D01*
X0192633Y0408465D01*
X0192476Y0408456D01*
X0192318Y0408451D01*
X0192161Y0408450D01*
X0192003Y0408453D01*
X0191845Y0408460D01*
X0191688Y0408471D01*
X0191531Y0408486D01*
X0191374Y0408505D01*
X0191218Y0408528D01*
X0191063Y0408554D01*
X0190908Y0408585D01*
X0190754Y0408619D01*
X0190601Y0408658D01*
X0190449Y0408700D01*
X0190299Y0408746D01*
X0190149Y0408796D01*
X0190001Y0408850D01*
X0189854Y0408907D01*
X0189708Y0408968D01*
X0189565Y0409033D01*
X0189422Y0409101D01*
X0189282Y0409173D01*
X0189144Y0409248D01*
X0189007Y0409327D01*
X0188872Y0409409D01*
X0188740Y0409495D01*
X0188610Y0409584D01*
X0188482Y0409676D01*
X0188356Y0409772D01*
X0188233Y0409870D01*
X0188113Y0409972D01*
X0187995Y0410077D01*
X0187879Y0410184D01*
X0187767Y0410295D01*
X0187657Y0410408D01*
X0187550Y0410524D01*
X0187446Y0410642D01*
X0187345Y0410764D01*
X0187248Y0410887D01*
X0187153Y0411014D01*
X0187062Y0411142D01*
X0186973Y0411273D01*
X0186889Y0411406D01*
X0186807Y0411541D01*
X0186729Y0411678D01*
X0186655Y0411817D01*
X0186584Y0411958D01*
X0186516Y0412100D01*
X0186453Y0412245D01*
X0186392Y0412390D01*
X0186336Y0412538D01*
X0186283Y0412686D01*
X0186234Y0412836D01*
X0186189Y0412987D01*
X0186148Y0413140D01*
X0186110Y0413293D01*
X0186077Y0413447D01*
X0186047Y0413602D01*
X0186021Y0413757D01*
X0186000Y0413914D01*
X0185982Y0414070D01*
X0185968Y0414227D01*
X0185958Y0414385D01*
X0185952Y0414542D01*
X0185950Y0414700D01*
X0098450Y0342200D02*
X0098452Y0342358D01*
X0098458Y0342515D01*
X0098468Y0342673D01*
X0098482Y0342830D01*
X0098500Y0342986D01*
X0098521Y0343143D01*
X0098547Y0343298D01*
X0098577Y0343453D01*
X0098610Y0343607D01*
X0098648Y0343760D01*
X0098689Y0343913D01*
X0098734Y0344064D01*
X0098783Y0344214D01*
X0098836Y0344362D01*
X0098892Y0344510D01*
X0098953Y0344655D01*
X0099016Y0344800D01*
X0099084Y0344942D01*
X0099155Y0345083D01*
X0099229Y0345222D01*
X0099307Y0345359D01*
X0099389Y0345494D01*
X0099473Y0345627D01*
X0099562Y0345758D01*
X0099653Y0345886D01*
X0099748Y0346013D01*
X0099845Y0346136D01*
X0099946Y0346258D01*
X0100050Y0346376D01*
X0100157Y0346492D01*
X0100267Y0346605D01*
X0100379Y0346716D01*
X0100495Y0346823D01*
X0100613Y0346928D01*
X0100733Y0347030D01*
X0100856Y0347128D01*
X0100982Y0347224D01*
X0101110Y0347316D01*
X0101240Y0347405D01*
X0101372Y0347491D01*
X0101507Y0347573D01*
X0101644Y0347652D01*
X0101782Y0347727D01*
X0101922Y0347799D01*
X0102065Y0347867D01*
X0102208Y0347932D01*
X0102354Y0347993D01*
X0102501Y0348050D01*
X0102649Y0348104D01*
X0102799Y0348154D01*
X0102949Y0348200D01*
X0103101Y0348242D01*
X0103254Y0348281D01*
X0103408Y0348315D01*
X0103563Y0348346D01*
X0103718Y0348372D01*
X0103874Y0348395D01*
X0104031Y0348414D01*
X0104188Y0348429D01*
X0104345Y0348440D01*
X0104503Y0348447D01*
X0104661Y0348450D01*
X0104818Y0348449D01*
X0104976Y0348444D01*
X0105133Y0348435D01*
X0105291Y0348422D01*
X0105447Y0348405D01*
X0105604Y0348384D01*
X0105759Y0348360D01*
X0105914Y0348331D01*
X0106069Y0348298D01*
X0106222Y0348262D01*
X0106375Y0348221D01*
X0106526Y0348177D01*
X0106676Y0348129D01*
X0106825Y0348078D01*
X0106973Y0348022D01*
X0107119Y0347963D01*
X0107264Y0347900D01*
X0107407Y0347833D01*
X0107548Y0347763D01*
X0107687Y0347690D01*
X0107825Y0347613D01*
X0107961Y0347532D01*
X0108094Y0347448D01*
X0108225Y0347361D01*
X0108354Y0347270D01*
X0108481Y0347176D01*
X0108606Y0347079D01*
X0108727Y0346979D01*
X0108847Y0346876D01*
X0108963Y0346770D01*
X0109077Y0346661D01*
X0109189Y0346549D01*
X0109297Y0346435D01*
X0109402Y0346317D01*
X0109505Y0346197D01*
X0109604Y0346075D01*
X0109700Y0345950D01*
X0109793Y0345822D01*
X0109883Y0345693D01*
X0109969Y0345561D01*
X0110053Y0345427D01*
X0110132Y0345291D01*
X0110209Y0345153D01*
X0110281Y0345013D01*
X0110350Y0344871D01*
X0110416Y0344728D01*
X0110478Y0344583D01*
X0110536Y0344436D01*
X0110591Y0344288D01*
X0110642Y0344139D01*
X0110689Y0343988D01*
X0110732Y0343837D01*
X0110771Y0343684D01*
X0110807Y0343530D01*
X0110838Y0343376D01*
X0110866Y0343221D01*
X0110890Y0343065D01*
X0110910Y0342908D01*
X0110926Y0342751D01*
X0110938Y0342594D01*
X0110946Y0342437D01*
X0110950Y0342279D01*
X0110950Y0342121D01*
X0110946Y0341963D01*
X0110938Y0341806D01*
X0110926Y0341649D01*
X0110910Y0341492D01*
X0110890Y0341335D01*
X0110866Y0341179D01*
X0110838Y0341024D01*
X0110807Y0340870D01*
X0110771Y0340716D01*
X0110732Y0340563D01*
X0110689Y0340412D01*
X0110642Y0340261D01*
X0110591Y0340112D01*
X0110536Y0339964D01*
X0110478Y0339817D01*
X0110416Y0339672D01*
X0110350Y0339529D01*
X0110281Y0339387D01*
X0110209Y0339247D01*
X0110132Y0339109D01*
X0110053Y0338973D01*
X0109969Y0338839D01*
X0109883Y0338707D01*
X0109793Y0338578D01*
X0109700Y0338450D01*
X0109604Y0338325D01*
X0109505Y0338203D01*
X0109402Y0338083D01*
X0109297Y0337965D01*
X0109189Y0337851D01*
X0109077Y0337739D01*
X0108963Y0337630D01*
X0108847Y0337524D01*
X0108727Y0337421D01*
X0108606Y0337321D01*
X0108481Y0337224D01*
X0108354Y0337130D01*
X0108225Y0337039D01*
X0108094Y0336952D01*
X0107961Y0336868D01*
X0107825Y0336787D01*
X0107687Y0336710D01*
X0107548Y0336637D01*
X0107407Y0336567D01*
X0107264Y0336500D01*
X0107119Y0336437D01*
X0106973Y0336378D01*
X0106825Y0336322D01*
X0106676Y0336271D01*
X0106526Y0336223D01*
X0106375Y0336179D01*
X0106222Y0336138D01*
X0106069Y0336102D01*
X0105914Y0336069D01*
X0105759Y0336040D01*
X0105604Y0336016D01*
X0105447Y0335995D01*
X0105291Y0335978D01*
X0105133Y0335965D01*
X0104976Y0335956D01*
X0104818Y0335951D01*
X0104661Y0335950D01*
X0104503Y0335953D01*
X0104345Y0335960D01*
X0104188Y0335971D01*
X0104031Y0335986D01*
X0103874Y0336005D01*
X0103718Y0336028D01*
X0103563Y0336054D01*
X0103408Y0336085D01*
X0103254Y0336119D01*
X0103101Y0336158D01*
X0102949Y0336200D01*
X0102799Y0336246D01*
X0102649Y0336296D01*
X0102501Y0336350D01*
X0102354Y0336407D01*
X0102208Y0336468D01*
X0102065Y0336533D01*
X0101922Y0336601D01*
X0101782Y0336673D01*
X0101644Y0336748D01*
X0101507Y0336827D01*
X0101372Y0336909D01*
X0101240Y0336995D01*
X0101110Y0337084D01*
X0100982Y0337176D01*
X0100856Y0337272D01*
X0100733Y0337370D01*
X0100613Y0337472D01*
X0100495Y0337577D01*
X0100379Y0337684D01*
X0100267Y0337795D01*
X0100157Y0337908D01*
X0100050Y0338024D01*
X0099946Y0338142D01*
X0099845Y0338264D01*
X0099748Y0338387D01*
X0099653Y0338514D01*
X0099562Y0338642D01*
X0099473Y0338773D01*
X0099389Y0338906D01*
X0099307Y0339041D01*
X0099229Y0339178D01*
X0099155Y0339317D01*
X0099084Y0339458D01*
X0099016Y0339600D01*
X0098953Y0339745D01*
X0098892Y0339890D01*
X0098836Y0340038D01*
X0098783Y0340186D01*
X0098734Y0340336D01*
X0098689Y0340487D01*
X0098648Y0340640D01*
X0098610Y0340793D01*
X0098577Y0340947D01*
X0098547Y0341102D01*
X0098521Y0341257D01*
X0098500Y0341414D01*
X0098482Y0341570D01*
X0098468Y0341727D01*
X0098458Y0341885D01*
X0098452Y0342042D01*
X0098450Y0342200D01*
X0038450Y0342200D02*
X0038452Y0342358D01*
X0038458Y0342515D01*
X0038468Y0342673D01*
X0038482Y0342830D01*
X0038500Y0342986D01*
X0038521Y0343143D01*
X0038547Y0343298D01*
X0038577Y0343453D01*
X0038610Y0343607D01*
X0038648Y0343760D01*
X0038689Y0343913D01*
X0038734Y0344064D01*
X0038783Y0344214D01*
X0038836Y0344362D01*
X0038892Y0344510D01*
X0038953Y0344655D01*
X0039016Y0344800D01*
X0039084Y0344942D01*
X0039155Y0345083D01*
X0039229Y0345222D01*
X0039307Y0345359D01*
X0039389Y0345494D01*
X0039473Y0345627D01*
X0039562Y0345758D01*
X0039653Y0345886D01*
X0039748Y0346013D01*
X0039845Y0346136D01*
X0039946Y0346258D01*
X0040050Y0346376D01*
X0040157Y0346492D01*
X0040267Y0346605D01*
X0040379Y0346716D01*
X0040495Y0346823D01*
X0040613Y0346928D01*
X0040733Y0347030D01*
X0040856Y0347128D01*
X0040982Y0347224D01*
X0041110Y0347316D01*
X0041240Y0347405D01*
X0041372Y0347491D01*
X0041507Y0347573D01*
X0041644Y0347652D01*
X0041782Y0347727D01*
X0041922Y0347799D01*
X0042065Y0347867D01*
X0042208Y0347932D01*
X0042354Y0347993D01*
X0042501Y0348050D01*
X0042649Y0348104D01*
X0042799Y0348154D01*
X0042949Y0348200D01*
X0043101Y0348242D01*
X0043254Y0348281D01*
X0043408Y0348315D01*
X0043563Y0348346D01*
X0043718Y0348372D01*
X0043874Y0348395D01*
X0044031Y0348414D01*
X0044188Y0348429D01*
X0044345Y0348440D01*
X0044503Y0348447D01*
X0044661Y0348450D01*
X0044818Y0348449D01*
X0044976Y0348444D01*
X0045133Y0348435D01*
X0045291Y0348422D01*
X0045447Y0348405D01*
X0045604Y0348384D01*
X0045759Y0348360D01*
X0045914Y0348331D01*
X0046069Y0348298D01*
X0046222Y0348262D01*
X0046375Y0348221D01*
X0046526Y0348177D01*
X0046676Y0348129D01*
X0046825Y0348078D01*
X0046973Y0348022D01*
X0047119Y0347963D01*
X0047264Y0347900D01*
X0047407Y0347833D01*
X0047548Y0347763D01*
X0047687Y0347690D01*
X0047825Y0347613D01*
X0047961Y0347532D01*
X0048094Y0347448D01*
X0048225Y0347361D01*
X0048354Y0347270D01*
X0048481Y0347176D01*
X0048606Y0347079D01*
X0048727Y0346979D01*
X0048847Y0346876D01*
X0048963Y0346770D01*
X0049077Y0346661D01*
X0049189Y0346549D01*
X0049297Y0346435D01*
X0049402Y0346317D01*
X0049505Y0346197D01*
X0049604Y0346075D01*
X0049700Y0345950D01*
X0049793Y0345822D01*
X0049883Y0345693D01*
X0049969Y0345561D01*
X0050053Y0345427D01*
X0050132Y0345291D01*
X0050209Y0345153D01*
X0050281Y0345013D01*
X0050350Y0344871D01*
X0050416Y0344728D01*
X0050478Y0344583D01*
X0050536Y0344436D01*
X0050591Y0344288D01*
X0050642Y0344139D01*
X0050689Y0343988D01*
X0050732Y0343837D01*
X0050771Y0343684D01*
X0050807Y0343530D01*
X0050838Y0343376D01*
X0050866Y0343221D01*
X0050890Y0343065D01*
X0050910Y0342908D01*
X0050926Y0342751D01*
X0050938Y0342594D01*
X0050946Y0342437D01*
X0050950Y0342279D01*
X0050950Y0342121D01*
X0050946Y0341963D01*
X0050938Y0341806D01*
X0050926Y0341649D01*
X0050910Y0341492D01*
X0050890Y0341335D01*
X0050866Y0341179D01*
X0050838Y0341024D01*
X0050807Y0340870D01*
X0050771Y0340716D01*
X0050732Y0340563D01*
X0050689Y0340412D01*
X0050642Y0340261D01*
X0050591Y0340112D01*
X0050536Y0339964D01*
X0050478Y0339817D01*
X0050416Y0339672D01*
X0050350Y0339529D01*
X0050281Y0339387D01*
X0050209Y0339247D01*
X0050132Y0339109D01*
X0050053Y0338973D01*
X0049969Y0338839D01*
X0049883Y0338707D01*
X0049793Y0338578D01*
X0049700Y0338450D01*
X0049604Y0338325D01*
X0049505Y0338203D01*
X0049402Y0338083D01*
X0049297Y0337965D01*
X0049189Y0337851D01*
X0049077Y0337739D01*
X0048963Y0337630D01*
X0048847Y0337524D01*
X0048727Y0337421D01*
X0048606Y0337321D01*
X0048481Y0337224D01*
X0048354Y0337130D01*
X0048225Y0337039D01*
X0048094Y0336952D01*
X0047961Y0336868D01*
X0047825Y0336787D01*
X0047687Y0336710D01*
X0047548Y0336637D01*
X0047407Y0336567D01*
X0047264Y0336500D01*
X0047119Y0336437D01*
X0046973Y0336378D01*
X0046825Y0336322D01*
X0046676Y0336271D01*
X0046526Y0336223D01*
X0046375Y0336179D01*
X0046222Y0336138D01*
X0046069Y0336102D01*
X0045914Y0336069D01*
X0045759Y0336040D01*
X0045604Y0336016D01*
X0045447Y0335995D01*
X0045291Y0335978D01*
X0045133Y0335965D01*
X0044976Y0335956D01*
X0044818Y0335951D01*
X0044661Y0335950D01*
X0044503Y0335953D01*
X0044345Y0335960D01*
X0044188Y0335971D01*
X0044031Y0335986D01*
X0043874Y0336005D01*
X0043718Y0336028D01*
X0043563Y0336054D01*
X0043408Y0336085D01*
X0043254Y0336119D01*
X0043101Y0336158D01*
X0042949Y0336200D01*
X0042799Y0336246D01*
X0042649Y0336296D01*
X0042501Y0336350D01*
X0042354Y0336407D01*
X0042208Y0336468D01*
X0042065Y0336533D01*
X0041922Y0336601D01*
X0041782Y0336673D01*
X0041644Y0336748D01*
X0041507Y0336827D01*
X0041372Y0336909D01*
X0041240Y0336995D01*
X0041110Y0337084D01*
X0040982Y0337176D01*
X0040856Y0337272D01*
X0040733Y0337370D01*
X0040613Y0337472D01*
X0040495Y0337577D01*
X0040379Y0337684D01*
X0040267Y0337795D01*
X0040157Y0337908D01*
X0040050Y0338024D01*
X0039946Y0338142D01*
X0039845Y0338264D01*
X0039748Y0338387D01*
X0039653Y0338514D01*
X0039562Y0338642D01*
X0039473Y0338773D01*
X0039389Y0338906D01*
X0039307Y0339041D01*
X0039229Y0339178D01*
X0039155Y0339317D01*
X0039084Y0339458D01*
X0039016Y0339600D01*
X0038953Y0339745D01*
X0038892Y0339890D01*
X0038836Y0340038D01*
X0038783Y0340186D01*
X0038734Y0340336D01*
X0038689Y0340487D01*
X0038648Y0340640D01*
X0038610Y0340793D01*
X0038577Y0340947D01*
X0038547Y0341102D01*
X0038521Y0341257D01*
X0038500Y0341414D01*
X0038482Y0341570D01*
X0038468Y0341727D01*
X0038458Y0341885D01*
X0038452Y0342042D01*
X0038450Y0342200D01*
X0008450Y0414700D02*
X0008452Y0414858D01*
X0008458Y0415015D01*
X0008468Y0415173D01*
X0008482Y0415330D01*
X0008500Y0415486D01*
X0008521Y0415643D01*
X0008547Y0415798D01*
X0008577Y0415953D01*
X0008610Y0416107D01*
X0008648Y0416260D01*
X0008689Y0416413D01*
X0008734Y0416564D01*
X0008783Y0416714D01*
X0008836Y0416862D01*
X0008892Y0417010D01*
X0008953Y0417155D01*
X0009016Y0417300D01*
X0009084Y0417442D01*
X0009155Y0417583D01*
X0009229Y0417722D01*
X0009307Y0417859D01*
X0009389Y0417994D01*
X0009473Y0418127D01*
X0009562Y0418258D01*
X0009653Y0418386D01*
X0009748Y0418513D01*
X0009845Y0418636D01*
X0009946Y0418758D01*
X0010050Y0418876D01*
X0010157Y0418992D01*
X0010267Y0419105D01*
X0010379Y0419216D01*
X0010495Y0419323D01*
X0010613Y0419428D01*
X0010733Y0419530D01*
X0010856Y0419628D01*
X0010982Y0419724D01*
X0011110Y0419816D01*
X0011240Y0419905D01*
X0011372Y0419991D01*
X0011507Y0420073D01*
X0011644Y0420152D01*
X0011782Y0420227D01*
X0011922Y0420299D01*
X0012065Y0420367D01*
X0012208Y0420432D01*
X0012354Y0420493D01*
X0012501Y0420550D01*
X0012649Y0420604D01*
X0012799Y0420654D01*
X0012949Y0420700D01*
X0013101Y0420742D01*
X0013254Y0420781D01*
X0013408Y0420815D01*
X0013563Y0420846D01*
X0013718Y0420872D01*
X0013874Y0420895D01*
X0014031Y0420914D01*
X0014188Y0420929D01*
X0014345Y0420940D01*
X0014503Y0420947D01*
X0014661Y0420950D01*
X0014818Y0420949D01*
X0014976Y0420944D01*
X0015133Y0420935D01*
X0015291Y0420922D01*
X0015447Y0420905D01*
X0015604Y0420884D01*
X0015759Y0420860D01*
X0015914Y0420831D01*
X0016069Y0420798D01*
X0016222Y0420762D01*
X0016375Y0420721D01*
X0016526Y0420677D01*
X0016676Y0420629D01*
X0016825Y0420578D01*
X0016973Y0420522D01*
X0017119Y0420463D01*
X0017264Y0420400D01*
X0017407Y0420333D01*
X0017548Y0420263D01*
X0017687Y0420190D01*
X0017825Y0420113D01*
X0017961Y0420032D01*
X0018094Y0419948D01*
X0018225Y0419861D01*
X0018354Y0419770D01*
X0018481Y0419676D01*
X0018606Y0419579D01*
X0018727Y0419479D01*
X0018847Y0419376D01*
X0018963Y0419270D01*
X0019077Y0419161D01*
X0019189Y0419049D01*
X0019297Y0418935D01*
X0019402Y0418817D01*
X0019505Y0418697D01*
X0019604Y0418575D01*
X0019700Y0418450D01*
X0019793Y0418322D01*
X0019883Y0418193D01*
X0019969Y0418061D01*
X0020053Y0417927D01*
X0020132Y0417791D01*
X0020209Y0417653D01*
X0020281Y0417513D01*
X0020350Y0417371D01*
X0020416Y0417228D01*
X0020478Y0417083D01*
X0020536Y0416936D01*
X0020591Y0416788D01*
X0020642Y0416639D01*
X0020689Y0416488D01*
X0020732Y0416337D01*
X0020771Y0416184D01*
X0020807Y0416030D01*
X0020838Y0415876D01*
X0020866Y0415721D01*
X0020890Y0415565D01*
X0020910Y0415408D01*
X0020926Y0415251D01*
X0020938Y0415094D01*
X0020946Y0414937D01*
X0020950Y0414779D01*
X0020950Y0414621D01*
X0020946Y0414463D01*
X0020938Y0414306D01*
X0020926Y0414149D01*
X0020910Y0413992D01*
X0020890Y0413835D01*
X0020866Y0413679D01*
X0020838Y0413524D01*
X0020807Y0413370D01*
X0020771Y0413216D01*
X0020732Y0413063D01*
X0020689Y0412912D01*
X0020642Y0412761D01*
X0020591Y0412612D01*
X0020536Y0412464D01*
X0020478Y0412317D01*
X0020416Y0412172D01*
X0020350Y0412029D01*
X0020281Y0411887D01*
X0020209Y0411747D01*
X0020132Y0411609D01*
X0020053Y0411473D01*
X0019969Y0411339D01*
X0019883Y0411207D01*
X0019793Y0411078D01*
X0019700Y0410950D01*
X0019604Y0410825D01*
X0019505Y0410703D01*
X0019402Y0410583D01*
X0019297Y0410465D01*
X0019189Y0410351D01*
X0019077Y0410239D01*
X0018963Y0410130D01*
X0018847Y0410024D01*
X0018727Y0409921D01*
X0018606Y0409821D01*
X0018481Y0409724D01*
X0018354Y0409630D01*
X0018225Y0409539D01*
X0018094Y0409452D01*
X0017961Y0409368D01*
X0017825Y0409287D01*
X0017687Y0409210D01*
X0017548Y0409137D01*
X0017407Y0409067D01*
X0017264Y0409000D01*
X0017119Y0408937D01*
X0016973Y0408878D01*
X0016825Y0408822D01*
X0016676Y0408771D01*
X0016526Y0408723D01*
X0016375Y0408679D01*
X0016222Y0408638D01*
X0016069Y0408602D01*
X0015914Y0408569D01*
X0015759Y0408540D01*
X0015604Y0408516D01*
X0015447Y0408495D01*
X0015291Y0408478D01*
X0015133Y0408465D01*
X0014976Y0408456D01*
X0014818Y0408451D01*
X0014661Y0408450D01*
X0014503Y0408453D01*
X0014345Y0408460D01*
X0014188Y0408471D01*
X0014031Y0408486D01*
X0013874Y0408505D01*
X0013718Y0408528D01*
X0013563Y0408554D01*
X0013408Y0408585D01*
X0013254Y0408619D01*
X0013101Y0408658D01*
X0012949Y0408700D01*
X0012799Y0408746D01*
X0012649Y0408796D01*
X0012501Y0408850D01*
X0012354Y0408907D01*
X0012208Y0408968D01*
X0012065Y0409033D01*
X0011922Y0409101D01*
X0011782Y0409173D01*
X0011644Y0409248D01*
X0011507Y0409327D01*
X0011372Y0409409D01*
X0011240Y0409495D01*
X0011110Y0409584D01*
X0010982Y0409676D01*
X0010856Y0409772D01*
X0010733Y0409870D01*
X0010613Y0409972D01*
X0010495Y0410077D01*
X0010379Y0410184D01*
X0010267Y0410295D01*
X0010157Y0410408D01*
X0010050Y0410524D01*
X0009946Y0410642D01*
X0009845Y0410764D01*
X0009748Y0410887D01*
X0009653Y0411014D01*
X0009562Y0411142D01*
X0009473Y0411273D01*
X0009389Y0411406D01*
X0009307Y0411541D01*
X0009229Y0411678D01*
X0009155Y0411817D01*
X0009084Y0411958D01*
X0009016Y0412100D01*
X0008953Y0412245D01*
X0008892Y0412390D01*
X0008836Y0412538D01*
X0008783Y0412686D01*
X0008734Y0412836D01*
X0008689Y0412987D01*
X0008648Y0413140D01*
X0008610Y0413293D01*
X0008577Y0413447D01*
X0008547Y0413602D01*
X0008521Y0413757D01*
X0008500Y0413914D01*
X0008482Y0414070D01*
X0008468Y0414227D01*
X0008458Y0414385D01*
X0008452Y0414542D01*
X0008450Y0414700D01*
X0185950Y0017200D02*
X0185952Y0017358D01*
X0185958Y0017515D01*
X0185968Y0017673D01*
X0185982Y0017830D01*
X0186000Y0017986D01*
X0186021Y0018143D01*
X0186047Y0018298D01*
X0186077Y0018453D01*
X0186110Y0018607D01*
X0186148Y0018760D01*
X0186189Y0018913D01*
X0186234Y0019064D01*
X0186283Y0019214D01*
X0186336Y0019362D01*
X0186392Y0019510D01*
X0186453Y0019655D01*
X0186516Y0019800D01*
X0186584Y0019942D01*
X0186655Y0020083D01*
X0186729Y0020222D01*
X0186807Y0020359D01*
X0186889Y0020494D01*
X0186973Y0020627D01*
X0187062Y0020758D01*
X0187153Y0020886D01*
X0187248Y0021013D01*
X0187345Y0021136D01*
X0187446Y0021258D01*
X0187550Y0021376D01*
X0187657Y0021492D01*
X0187767Y0021605D01*
X0187879Y0021716D01*
X0187995Y0021823D01*
X0188113Y0021928D01*
X0188233Y0022030D01*
X0188356Y0022128D01*
X0188482Y0022224D01*
X0188610Y0022316D01*
X0188740Y0022405D01*
X0188872Y0022491D01*
X0189007Y0022573D01*
X0189144Y0022652D01*
X0189282Y0022727D01*
X0189422Y0022799D01*
X0189565Y0022867D01*
X0189708Y0022932D01*
X0189854Y0022993D01*
X0190001Y0023050D01*
X0190149Y0023104D01*
X0190299Y0023154D01*
X0190449Y0023200D01*
X0190601Y0023242D01*
X0190754Y0023281D01*
X0190908Y0023315D01*
X0191063Y0023346D01*
X0191218Y0023372D01*
X0191374Y0023395D01*
X0191531Y0023414D01*
X0191688Y0023429D01*
X0191845Y0023440D01*
X0192003Y0023447D01*
X0192161Y0023450D01*
X0192318Y0023449D01*
X0192476Y0023444D01*
X0192633Y0023435D01*
X0192791Y0023422D01*
X0192947Y0023405D01*
X0193104Y0023384D01*
X0193259Y0023360D01*
X0193414Y0023331D01*
X0193569Y0023298D01*
X0193722Y0023262D01*
X0193875Y0023221D01*
X0194026Y0023177D01*
X0194176Y0023129D01*
X0194325Y0023078D01*
X0194473Y0023022D01*
X0194619Y0022963D01*
X0194764Y0022900D01*
X0194907Y0022833D01*
X0195048Y0022763D01*
X0195187Y0022690D01*
X0195325Y0022613D01*
X0195461Y0022532D01*
X0195594Y0022448D01*
X0195725Y0022361D01*
X0195854Y0022270D01*
X0195981Y0022176D01*
X0196106Y0022079D01*
X0196227Y0021979D01*
X0196347Y0021876D01*
X0196463Y0021770D01*
X0196577Y0021661D01*
X0196689Y0021549D01*
X0196797Y0021435D01*
X0196902Y0021317D01*
X0197005Y0021197D01*
X0197104Y0021075D01*
X0197200Y0020950D01*
X0197293Y0020822D01*
X0197383Y0020693D01*
X0197469Y0020561D01*
X0197553Y0020427D01*
X0197632Y0020291D01*
X0197709Y0020153D01*
X0197781Y0020013D01*
X0197850Y0019871D01*
X0197916Y0019728D01*
X0197978Y0019583D01*
X0198036Y0019436D01*
X0198091Y0019288D01*
X0198142Y0019139D01*
X0198189Y0018988D01*
X0198232Y0018837D01*
X0198271Y0018684D01*
X0198307Y0018530D01*
X0198338Y0018376D01*
X0198366Y0018221D01*
X0198390Y0018065D01*
X0198410Y0017908D01*
X0198426Y0017751D01*
X0198438Y0017594D01*
X0198446Y0017437D01*
X0198450Y0017279D01*
X0198450Y0017121D01*
X0198446Y0016963D01*
X0198438Y0016806D01*
X0198426Y0016649D01*
X0198410Y0016492D01*
X0198390Y0016335D01*
X0198366Y0016179D01*
X0198338Y0016024D01*
X0198307Y0015870D01*
X0198271Y0015716D01*
X0198232Y0015563D01*
X0198189Y0015412D01*
X0198142Y0015261D01*
X0198091Y0015112D01*
X0198036Y0014964D01*
X0197978Y0014817D01*
X0197916Y0014672D01*
X0197850Y0014529D01*
X0197781Y0014387D01*
X0197709Y0014247D01*
X0197632Y0014109D01*
X0197553Y0013973D01*
X0197469Y0013839D01*
X0197383Y0013707D01*
X0197293Y0013578D01*
X0197200Y0013450D01*
X0197104Y0013325D01*
X0197005Y0013203D01*
X0196902Y0013083D01*
X0196797Y0012965D01*
X0196689Y0012851D01*
X0196577Y0012739D01*
X0196463Y0012630D01*
X0196347Y0012524D01*
X0196227Y0012421D01*
X0196106Y0012321D01*
X0195981Y0012224D01*
X0195854Y0012130D01*
X0195725Y0012039D01*
X0195594Y0011952D01*
X0195461Y0011868D01*
X0195325Y0011787D01*
X0195187Y0011710D01*
X0195048Y0011637D01*
X0194907Y0011567D01*
X0194764Y0011500D01*
X0194619Y0011437D01*
X0194473Y0011378D01*
X0194325Y0011322D01*
X0194176Y0011271D01*
X0194026Y0011223D01*
X0193875Y0011179D01*
X0193722Y0011138D01*
X0193569Y0011102D01*
X0193414Y0011069D01*
X0193259Y0011040D01*
X0193104Y0011016D01*
X0192947Y0010995D01*
X0192791Y0010978D01*
X0192633Y0010965D01*
X0192476Y0010956D01*
X0192318Y0010951D01*
X0192161Y0010950D01*
X0192003Y0010953D01*
X0191845Y0010960D01*
X0191688Y0010971D01*
X0191531Y0010986D01*
X0191374Y0011005D01*
X0191218Y0011028D01*
X0191063Y0011054D01*
X0190908Y0011085D01*
X0190754Y0011119D01*
X0190601Y0011158D01*
X0190449Y0011200D01*
X0190299Y0011246D01*
X0190149Y0011296D01*
X0190001Y0011350D01*
X0189854Y0011407D01*
X0189708Y0011468D01*
X0189565Y0011533D01*
X0189422Y0011601D01*
X0189282Y0011673D01*
X0189144Y0011748D01*
X0189007Y0011827D01*
X0188872Y0011909D01*
X0188740Y0011995D01*
X0188610Y0012084D01*
X0188482Y0012176D01*
X0188356Y0012272D01*
X0188233Y0012370D01*
X0188113Y0012472D01*
X0187995Y0012577D01*
X0187879Y0012684D01*
X0187767Y0012795D01*
X0187657Y0012908D01*
X0187550Y0013024D01*
X0187446Y0013142D01*
X0187345Y0013264D01*
X0187248Y0013387D01*
X0187153Y0013514D01*
X0187062Y0013642D01*
X0186973Y0013773D01*
X0186889Y0013906D01*
X0186807Y0014041D01*
X0186729Y0014178D01*
X0186655Y0014317D01*
X0186584Y0014458D01*
X0186516Y0014600D01*
X0186453Y0014745D01*
X0186392Y0014890D01*
X0186336Y0015038D01*
X0186283Y0015186D01*
X0186234Y0015336D01*
X0186189Y0015487D01*
X0186148Y0015640D01*
X0186110Y0015793D01*
X0186077Y0015947D01*
X0186047Y0016102D01*
X0186021Y0016257D01*
X0186000Y0016414D01*
X0185982Y0016570D01*
X0185968Y0016727D01*
X0185958Y0016885D01*
X0185952Y0017042D01*
X0185950Y0017200D01*
D11*
X0192200Y0017200D03*
X0164700Y0042200D03*
X0164700Y0092200D03*
X0164700Y0142200D03*
X0164700Y0192200D03*
X0164700Y0242200D03*
X0164700Y0292200D03*
X0164700Y0342239D03*
X0164700Y0392200D03*
X0192200Y0414700D03*
X0104700Y0342200D03*
X0044700Y0342200D03*
X0014700Y0414700D03*
X0014700Y0017200D03*
D12*
X0004700Y0005507D02*
X0004700Y0424798D01*
X0203519Y0424798D01*
X0203519Y0005507D01*
X0004700Y0005507D01*
D13*
X0098700Y0034500D03*
X0098700Y0047100D03*
X0108500Y0047100D03*
X0108500Y0034500D03*
D14*
X0127100Y0036500D03*
X0079700Y0036500D03*
D15*
X0139109Y0042200D03*
X0150920Y0042200D03*
X0150920Y0092200D03*
X0139109Y0092200D03*
X0139109Y0142200D03*
X0150920Y0142200D03*
X0150920Y0192200D03*
X0139109Y0192200D03*
X0139109Y0242200D03*
X0150920Y0242200D03*
X0150920Y0292200D03*
X0139109Y0292200D03*
X0139109Y0342200D03*
X0150920Y0342200D03*
X0150920Y0392200D03*
X0139109Y0392200D03*
X0124385Y0342200D03*
X0090920Y0342200D03*
X0079109Y0342200D03*
X0064385Y0342200D03*
X0030920Y0342200D03*
X0019109Y0342200D03*
X0184385Y0342200D03*
X0184385Y0292200D03*
X0184385Y0242200D03*
X0184385Y0192200D03*
X0184385Y0142200D03*
X0184385Y0092200D03*
X0184385Y0042200D03*
X0184385Y0392200D03*
D16*
X0094857Y0364641D03*
X0034857Y0364641D03*
D17*
X0044700Y0364641D03*
X0054543Y0364641D03*
X0104700Y0364641D03*
X0114543Y0364641D03*
D18*
X0122417Y0392200D03*
X0086983Y0392200D03*
X0062417Y0392200D03*
X0026983Y0392200D03*
D19*
X0014700Y0262200D03*
X0014700Y0252200D03*
X0014700Y0242200D03*
X0014700Y0232200D03*
X0014700Y0222200D03*
X0014700Y0212200D03*
X0014700Y0202200D03*
X0014700Y0192200D03*
X0014700Y0182200D03*
X0014700Y0172200D03*
X0014700Y0142200D03*
X0014700Y0132200D03*
X0014700Y0122200D03*
X0014700Y0112200D03*
X0014700Y0102200D03*
X0014700Y0092200D03*
X0014700Y0082200D03*
X0014700Y0072200D03*
X0014700Y0062200D03*
X0014700Y0052200D03*
X0194700Y0147200D03*
X0194700Y0157200D03*
X0194700Y0167200D03*
X0194700Y0177200D03*
X0194700Y0187200D03*
X0194700Y0197200D03*
X0194700Y0207200D03*
X0194700Y0217200D03*
X0194700Y0227200D03*
X0194700Y0237200D03*
D20*
X0114700Y0288952D02*
X0114700Y0295448D01*
X0104700Y0295448D02*
X0104700Y0288952D01*
X0094700Y0288952D02*
X0094700Y0295448D01*
X0054700Y0295448D02*
X0054700Y0288952D01*
X0044700Y0288952D02*
X0044700Y0295448D01*
X0034700Y0295448D02*
X0034700Y0288952D01*
D21*
X0024700Y0312200D03*
X0064700Y0312200D03*
X0079700Y0312200D03*
X0119700Y0312200D03*
D22*
X0104700Y0182200D03*
X0064700Y0172200D03*
M02*
